<svg width="141" height="122" viewBox="0 0 141 122" fill="none" xmlns="http://www.w3.org/2000/svg">
<path d="M76.1847 86.3143H64.8398V121.541L76.1847 107.988L87.5234 121.541V86.3143H76.1847Z" fill="#FCAD44" stroke="#3A3A3A" stroke-width="1.5" stroke-linecap="round" stroke-linejoin="round"/>
<path d="M68.9435 86.3143H57.5986V121.541L68.9435 107.988L80.2822 121.541V86.3143H68.9435Z" fill="#F9DB09" stroke="#3A3A3A" stroke-width="1.5" stroke-linecap="round" stroke-linejoin="round"/>
<path d="M80.2822 86.3082V96.8235C82.7577 96.2584 85.1803 95.4819 87.5233 94.5024V86.3082H80.2822Z" fill="#DB973B"/>
<path d="M76.1846 86.3082H57.5986V96.0702C59.961 96.7817 62.3793 97.2919 64.8275 97.5951C69.98 98.2552 75.2086 97.9939 80.2699 96.8235V86.3082H76.1846Z" fill="#FCAD44"/>
<path d="M80.2822 112.887L87.5233 121.541V86.3143" stroke="#3A3A3A" stroke-width="1.5" stroke-linecap="round" stroke-linejoin="round"/>
<path d="M64.8398 121.541L72.5641 112.318" stroke="#3A3A3A" stroke-width="1.5" stroke-linecap="round" stroke-linejoin="round"/>
<path d="M68.9435 86.3143H57.5986V121.541L68.9435 107.988L80.2822 121.541V86.3143H68.9435Z" stroke="#3A3A3A" stroke-width="1.5" stroke-linecap="round" stroke-linejoin="round"/>
<path d="M95.0397 52.0556C96.8375 48.1767 99.3938 44.6981 102.557 41.8255C105.721 38.953 109.428 36.7449 113.458 35.3318C117.489 33.9186 121.762 33.3291 126.024 33.5982C130.286 33.8673 134.451 34.9894 138.272 36.8983C135.465 45.0006 128.034 50.9839 119.796 53.3478C111.558 55.7118 102.636 54.7197 95.0397 52.0556Z" fill="#45906A" stroke="#3A3A3A" stroke-width="1.5" stroke-linecap="round" stroke-linejoin="round"/>
<path d="M89.2235 54.6707C99.7138 48.3747 111.536 44.6383 123.735 43.7635" stroke="#3A3A3A" stroke-width="1.5" stroke-linecap="round" stroke-linejoin="round"/>
<path d="M91.0156 64.9715C94.9832 63.3886 99.2275 62.6185 103.497 62.7067C107.767 62.7949 111.976 63.7397 115.875 65.4852C119.774 67.2307 123.284 69.7414 126.197 72.8688C129.11 75.9963 131.368 79.677 132.836 83.6932C125.234 87.6494 115.711 86.9023 108.122 82.9399C100.532 78.9776 94.7096 72.1368 91.0156 64.9715Z" fill="#45906A" stroke="#3A3A3A" stroke-width="1.5" stroke-linecap="round" stroke-linejoin="round"/>
<path d="M85.0098 62.877C96.9538 65.5133 108.11 70.9282 117.576 78.6836" stroke="#3A3A3A" stroke-width="1.5" stroke-linecap="round" stroke-linejoin="round"/>
<path d="M96.7949 59.8762C102.675 65.5457 110.524 68.7055 118.687 68.6883C126.849 68.6712 134.685 65.4785 140.541 59.7844C137.989 56.2672 134.663 53.3848 130.821 51.3598C126.979 49.3347 122.724 48.2213 118.384 48.1055C109.73 47.9524 101.1 52.1046 96.7949 59.8762Z" fill="#45906A" stroke="#3A3A3A" stroke-width="1.5" stroke-linecap="round" stroke-linejoin="round"/>
<path d="M122.506 59.0249C111.333 57.0805 99.8451 58.1522 89.2235 62.1299" stroke="#3A3A3A" stroke-width="1.5" stroke-linecap="round" stroke-linejoin="round"/>
<path d="M96.7766 48.6445C104.348 49.1038 111.558 44.48 115.968 38.2946C120.377 32.1091 122.402 24.5641 123.796 17.0988C119.777 17.056 115.796 17.8744 112.119 19.4989C108.442 21.1234 105.154 23.5165 102.477 26.5178C97.1802 32.5378 94.6727 40.928 96.7766 48.6445Z" fill="#45906A" stroke="#3A3A3A" stroke-width="1.5" stroke-linecap="round" stroke-linejoin="round"/>
<path d="M108.916 31.9744C101.345 39.2021 95.8363 48.3226 92.9603 58.3942" stroke="#3A3A3A" stroke-width="1.5" stroke-linecap="round" stroke-linejoin="round"/>
<path d="M45.9603 52.0556C44.1418 48.1861 41.5761 44.7154 38.4113 41.8438C35.2466 38.9722 31.5454 36.7564 27.5212 35.3243C23.4885 33.9351 19.2212 33.3584 14.965 33.6274C10.7088 33.8965 6.54775 35.006 2.72156 36.8921C5.53483 44.9944 12.9594 50.9778 21.2035 53.3417C29.4476 55.7056 38.3584 54.7196 45.9603 52.0556Z" fill="#45906A" stroke="#3A3A3A" stroke-width="1.5" stroke-linecap="round" stroke-linejoin="round"/>
<path d="M51.7704 54.6707C41.2823 48.3747 29.462 44.6383 17.265 43.7635" stroke="#3A3A3A" stroke-width="1.5" stroke-linecap="round" stroke-linejoin="round"/>
<path d="M49.9846 64.9715C46.017 63.3886 41.7727 62.6185 37.5027 62.7067C33.2328 62.7949 29.0238 63.7397 25.1248 65.4852C21.2258 67.2307 17.716 69.7414 14.8029 72.8688C11.8898 75.9963 9.63252 79.677 8.16467 83.6932C15.7666 87.6494 25.2889 86.9022 32.8787 82.9399C40.4684 78.9775 46.2906 72.1368 49.9846 64.9715Z" fill="#45906A" stroke="#3A3A3A" stroke-width="1.5" stroke-linecap="round" stroke-linejoin="round"/>
<path d="M56.0026 62.877C44.0609 65.5146 32.9067 70.9294 23.442 78.6836" stroke="#3A3A3A" stroke-width="1.5" stroke-linecap="round" stroke-linejoin="round"/>
<path d="M44.2051 59.8762C38.3032 65.513 30.4664 68.6673 22.3105 68.6889C14.1568 68.6316 6.33559 65.4445 0.45874 59.7843C3.01163 56.2649 6.33907 53.381 10.1835 51.3558C14.0279 49.3306 18.2861 48.2185 22.6285 48.1055C31.2702 47.9524 39.8996 52.1046 44.2051 59.8762Z" fill="#45906A" stroke="#3A3A3A" stroke-width="1.5" stroke-linecap="round" stroke-linejoin="round"/>
<path d="M18.4941 59.025C29.6646 57.0801 41.1509 58.1519 51.7703 62.1299" stroke="#3A3A3A" stroke-width="1.5" stroke-linecap="round" stroke-linejoin="round"/>
<path d="M44.2234 48.6444C36.652 49.1038 29.4415 44.48 25.032 38.2946C20.6225 32.1091 18.5982 24.5641 17.1976 17.0987C21.2186 17.0535 25.2027 17.8706 28.8821 19.4952C32.5615 21.1198 35.851 23.5143 38.5296 26.5177C43.8198 32.5378 46.3211 40.928 44.2234 48.6444Z" fill="#45906A" stroke="#3A3A3A" stroke-width="1.5" stroke-linecap="round" stroke-linejoin="round"/>
<path d="M32.0836 31.9744C39.6468 39.2059 45.1482 48.3256 48.0214 58.3941" stroke="#3A3A3A" stroke-width="1.5" stroke-linecap="round" stroke-linejoin="round"/>
<path d="M120.335 44.8352C120.335 44.5841 120.335 44.3391 120.335 44.0881C120.185 40.6757 119.688 37.2877 118.849 33.977L118.757 33.6463C117.424 28.5836 115.305 23.7621 112.476 19.3586C108.653 20.9711 105.237 23.4168 102.477 26.5178C97.1927 32.5195 94.6913 40.879 96.7646 48.5648C96.5138 49.0731 96.2692 49.5876 96.0307 50.102C95.8105 50.5062 95.6026 50.9104 95.4191 51.3268L95.0399 52.0556L95.1744 52.0985C95.0644 52.368 94.9482 52.6313 94.8442 52.9008L96.2447 52.4598L96.5077 52.5456C98.2297 53.0946 99.9817 53.5444 101.755 53.8929C99.7798 55.5662 98.1224 57.5828 96.8624 59.8456L96.8196 59.9068C97.3272 60.3968 97.8532 60.8561 98.3914 61.3093C99.0396 61.8482 99.7001 62.3688 100.391 62.8587C97.4539 63.0699 94.56 63.6882 91.7924 64.696C91.5417 64.7878 91.2909 64.8736 91.0402 64.9715C91.2359 65.3451 91.4377 65.7187 91.6517 66.0923C94.9604 72.1062 99.7674 77.7895 105.871 81.6171C107.748 79.7132 109.474 77.6656 111.033 75.4929C111.296 75.1193 111.565 74.758 111.822 74.3783C113.094 72.4915 114.238 70.5212 115.247 68.4807C115.687 67.5866 116.109 66.6802 116.5 65.7554C117.357 63.6889 118.074 61.5672 118.647 59.4047C118.726 59.1107 118.806 58.7922 118.879 58.5228C119.301 56.8063 119.632 55.0687 119.87 53.3172C120.102 51.6453 120.249 49.9428 120.317 48.2219C120.317 47.6095 120.365 46.997 120.365 46.3479C120.378 45.8396 120.353 45.319 120.335 44.8352Z" fill="#3B7A5A"/>
<path d="M49.2324 64.696C46.4647 63.6888 43.5709 63.0705 40.6336 62.8587C41.3247 62.3688 41.9852 61.8482 42.6335 61.3093C43.1717 60.8561 43.6976 60.3968 44.2052 59.9068L44.1624 59.8456C42.9005 57.5841 41.2433 55.5679 39.2698 53.8929C41.0408 53.5532 42.7908 53.1115 44.511 52.5701L44.7801 52.4843L46.1807 52.9253C46.0767 52.6558 45.9605 52.3925 45.8504 52.123L45.514 51.3085C45.3428 50.9227 45.1654 50.5368 44.9881 50.1449C44.7557 49.6305 44.511 49.116 44.2603 48.6077C46.3335 40.9096 43.8322 32.5501 38.542 26.5606C35.736 23.3872 32.2454 20.8949 28.3347 19.2728C25.5417 23.6006 23.4353 28.3357 22.0905 33.3095C22.0354 33.5177 21.9743 33.7259 21.9192 33.9219C21.07 37.2351 20.5679 40.6278 20.4209 44.0452C20.4209 44.2779 20.4209 44.5106 20.4209 44.7433C20.4209 45.27 20.3781 45.8028 20.3781 46.3356C20.3781 46.9481 20.3781 47.6095 20.427 48.2403C20.4876 49.9062 20.6325 51.568 20.8612 53.2192C21.1067 55.0041 21.4476 56.7745 21.8825 58.5228C21.9498 58.7984 22.0293 59.074 22.1027 59.3495C22.6949 61.5688 23.4408 63.7441 24.335 65.8596C24.7142 66.7537 25.13 67.6356 25.5581 68.5052C26.5795 70.5798 27.7465 72.5792 29.0503 74.4885C29.301 74.8621 29.564 75.2173 29.8209 75.5786C31.3873 77.7542 33.1235 79.8021 35.0132 81.7028C41.1963 77.8752 46.0583 72.143 49.3915 66.0739C49.5994 65.6983 49.8033 65.3247 50.003 64.9532L49.2324 64.696Z" fill="#3B7A5A"/>
<path d="M118.555 34.0138C125.266 32.8721 132.166 33.8794 138.272 36.8921C136.389 42.3243 132.432 46.8133 127.545 49.8877" stroke="#3A3A3A" stroke-width="1.5" stroke-linecap="round" stroke-linejoin="round"/>
<path d="M89.2235 54.6707C99.7138 48.3747 111.536 44.6383 123.735 43.7635" stroke="#3A3A3A" stroke-width="1.5" stroke-linecap="round" stroke-linejoin="round"/>
<path d="M121.252 68.591C126.541 72.3559 130.577 77.6263 132.835 83.7177C125.233 87.6739 115.711 86.9268 108.121 82.9644C100.532 79.0021 94.7095 72.1614 90.9972 64.9961" stroke="#3A3A3A" stroke-width="1.5" stroke-linecap="round" stroke-linejoin="round"/>
<path d="M85.0098 62.8771C96.9538 65.5133 108.11 70.9282 117.576 78.6836" stroke="#3A3A3A" stroke-width="1.5" stroke-linecap="round" stroke-linejoin="round"/>
<path d="M96.7949 59.8762C102.675 65.5457 110.524 68.7055 118.687 68.6883C126.849 68.6712 134.685 65.4785 140.541 59.7844C137.989 56.2672 134.663 53.3848 130.821 51.3598C126.979 49.3347 122.724 48.2213 118.384 48.1055C109.73 47.9524 101.1 52.1046 96.7949 59.8762Z" stroke="#3A3A3A" stroke-width="1.5" stroke-linecap="round" stroke-linejoin="round"/>
<path d="M122.506 59.0249C111.333 57.0805 99.8451 58.1522 89.2235 62.1299" stroke="#3A3A3A" stroke-width="1.5" stroke-linecap="round" stroke-linejoin="round"/>
<path d="M96.7766 48.6445C104.348 49.1038 111.558 44.48 115.968 38.2946C120.377 32.1091 122.402 24.5641 123.796 17.0988C119.777 17.056 115.796 17.8744 112.119 19.4989C108.442 21.1234 105.154 23.5165 102.477 26.5178C97.1802 32.5378 94.6727 40.928 96.7766 48.6445Z" stroke="#3A3A3A" stroke-width="1.5" stroke-linecap="round" stroke-linejoin="round"/>
<path d="M108.916 31.9744C101.345 39.2021 95.8363 48.3226 92.9603 58.3942" stroke="#3A3A3A" stroke-width="1.5" stroke-linecap="round" stroke-linejoin="round"/>
<path d="M2.72156 36.8921C4.61134 42.3243 8.56216 46.8133 13.4548 49.8877" stroke="#3A3A3A" stroke-width="1.5" stroke-linecap="round" stroke-linejoin="round"/>
<path d="M51.7704 54.6707C41.2823 48.3747 29.462 44.6383 17.265 43.7635" stroke="#3A3A3A" stroke-width="1.5" stroke-linecap="round" stroke-linejoin="round"/>
<path d="M19.7419 68.5909C14.4554 72.354 10.4216 77.6225 8.16467 83.7116C15.7666 87.6678 25.2889 86.9206 32.8787 82.9583C40.4684 78.9959 46.2906 72.1552 50.0029 64.9899" stroke="#3A3A3A" stroke-width="1.5" stroke-linecap="round" stroke-linejoin="round"/>
<path d="M56.0026 62.877C44.0609 65.5146 32.9067 70.9294 23.442 78.6836" stroke="#3A3A3A" stroke-width="1.5" stroke-linecap="round" stroke-linejoin="round"/>
<path d="M44.2051 59.8762C38.3032 65.513 30.4664 68.6673 22.3105 68.6889C14.1568 68.6316 6.33559 65.4445 0.45874 59.7843C3.01163 56.2649 6.33907 53.381 10.1835 51.3558C14.0279 49.3306 18.2861 48.2185 22.6285 48.1055C31.2702 47.9524 39.8996 52.1046 44.2051 59.8762Z" stroke="#3A3A3A" stroke-width="1.5" stroke-linecap="round" stroke-linejoin="round"/>
<path d="M18.4941 59.025C29.6646 57.0801 41.1509 58.1519 51.7703 62.1299" stroke="#3A3A3A" stroke-width="1.5" stroke-linecap="round" stroke-linejoin="round"/>
<path d="M44.2234 48.6444C36.652 49.1038 29.4415 44.48 25.032 38.2946C20.6225 32.1091 18.5982 24.5641 17.1976 17.0987C21.2186 17.0535 25.2027 17.8706 28.8821 19.4952C32.5615 21.1198 35.851 23.5143 38.5296 26.5177C43.8198 32.5378 46.3211 40.928 44.2234 48.6444Z" stroke="#3A3A3A" stroke-width="1.5" stroke-linecap="round" stroke-linejoin="round"/>
<path d="M32.0836 31.9744C39.6468 39.2059 45.1482 48.3256 48.0214 58.3941" stroke="#3A3A3A" stroke-width="1.5" stroke-linecap="round" stroke-linejoin="round"/>
<path d="M114.104 53.4585C118.025 29.2704 101.622 6.47913 77.4666 2.55284C53.3116 -1.37345 30.5515 15.052 26.6306 39.2402C22.7097 63.4283 39.1127 86.2196 63.2677 90.1459C87.4228 94.0722 110.183 77.6467 114.104 53.4585Z" fill="#3457AB" stroke="#3A3A3A" stroke-width="1.5" stroke-linecap="round" stroke-linejoin="round"/>
<path d="M109.884 52.7726C113.427 30.9181 98.6063 10.3258 76.7818 6.77831C54.9572 3.23083 34.393 18.0716 30.8504 39.9261C27.3078 61.7805 42.1282 82.3729 63.9528 85.9204C85.7773 89.4678 106.342 74.6271 109.884 52.7726Z" fill="#3457AB" stroke="#3A3A3A" stroke-width="1.5" stroke-linecap="round" stroke-linejoin="round"/>
<path d="M96.5503 16.0576C103.188 23.7111 106.681 33.5999 106.326 43.7304C105.971 53.861 101.793 63.4799 94.6353 70.6481C87.4777 77.8163 77.8724 82.0007 67.7557 82.3576C57.6391 82.7146 47.7634 79.2176 40.1198 72.5717C43.7161 76.7363 48.131 80.114 53.0891 82.4939C58.0471 84.8738 63.4417 86.2049 68.9364 86.4041C74.431 86.6032 79.9076 85.6662 85.0245 83.6515C90.1414 81.6367 94.7886 78.5875 98.6763 74.6942C102.564 70.8008 105.608 66.1468 107.62 61.0227C109.631 55.8986 110.566 50.4144 110.367 44.9122C110.167 39.4101 108.838 34.0082 106.46 29.0436C104.083 24.0791 100.71 19.6585 96.5503 16.0576V16.0576Z" fill="#395EBA"/>
<path d="M34.3587 50.3837C34.3498 42.6959 36.5507 35.168 40.6984 28.6988C44.8462 22.2296 50.7655 17.0924 57.7498 13.9006C64.7341 10.7088 72.4882 9.59717 80.0862 10.6986C87.6843 11.7999 94.8053 15.0678 100.599 20.1118C97.0031 15.9468 92.5885 12.5686 87.6308 10.1882C82.673 7.80771 77.2785 6.47605 71.7839 6.27629C66.2893 6.07653 60.8125 7.01296 55.6954 9.02715C50.5784 11.0413 45.9308 14.09 42.0427 17.983C38.1547 21.8759 35.1096 26.5296 33.0977 31.6535C31.0857 36.7773 30.1499 42.2615 30.3488 47.7636C30.5477 53.2658 31.877 58.6679 34.2536 63.6327C36.6303 68.5975 40.0034 73.0185 44.1623 76.6197C37.8367 69.3475 34.3543 60.0278 34.3587 50.3837V50.3837Z" fill="#2D4B94"/>
<path d="M109.884 52.7726C113.427 30.9181 98.6063 10.3258 76.7818 6.77831C54.9572 3.23083 34.393 18.0716 30.8504 39.9261C27.3078 61.7805 42.1282 82.3729 63.9528 85.9204C85.7773 89.4678 106.342 74.6271 109.884 52.7726Z" stroke="#3A3A3A" stroke-width="1.5" stroke-linecap="round" stroke-linejoin="round"/>
<path d="M46.5476 39.9726C46.8302 39.6581 47.174 39.4047 47.5578 39.2278C47.9416 39.0509 48.3574 38.9542 48.7798 38.9438C49.4096 38.9253 50.039 38.9912 50.6513 39.1397C51.0169 39.2345 51.3641 39.3898 51.6787 39.5991C51.9431 39.8097 52.1373 40.0959 52.2353 40.4197C52.3894 41.1087 52.4552 41.8146 52.431 42.5203V64.5674C52.4396 65.0214 52.4192 65.4755 52.3698 65.9269C52.3094 66.2957 52.183 66.6504 51.9967 66.9742C51.6298 67.6846 50.6023 68.0459 48.9388 68.0459C47.2753 68.0459 46.2968 67.703 45.8809 67.0171C45.6909 66.6797 45.5644 66.3101 45.5079 65.9269C45.4591 65.4489 45.4387 64.9683 45.4467 64.4878V50.4021L44.933 50.8737C44.1637 51.5639 43.1961 51.9927 42.1686 52.0985C41.4062 52.0985 40.6111 51.6372 39.7835 50.7145C38.9517 49.7958 38.5603 48.9752 38.5603 48.2648C38.5603 47.5544 39.0373 46.7766 39.9853 45.9315L46.4313 40.0522L46.5476 39.9726Z" fill="white" stroke="#3A3A3A" stroke-width="1.5" stroke-linecap="round" stroke-linejoin="round"/>
<path d="M57.9964 42.3243C58.8439 41.1885 59.9457 40.2677 61.2133 39.6358C62.7043 38.8993 64.3522 38.5377 66.0142 38.5824C67.6632 38.5443 69.2966 38.9101 70.7723 39.648C72.0328 40.2604 73.1372 41.1527 74.0014 42.2569C74.8015 43.3957 75.4204 44.6518 75.8362 45.9804C76.6482 48.4149 77.0612 50.9649 77.0593 53.5316C77.0593 58.3044 76.04 62.0871 74.0014 64.8797C73.1671 65.9911 72.0786 66.8858 70.8273 67.4886C69.3405 68.1724 67.7237 68.5263 66.0876 68.5263C64.4515 68.5263 62.8346 68.1724 61.3478 67.4886C60.0847 66.8858 58.9776 65.9993 58.1126 64.8981C57.2873 63.7805 56.6414 62.5407 56.1983 61.2236C55.4007 58.7329 55.0144 56.1285 55.0546 53.5132C55.0071 51.233 55.3188 48.9596 55.9781 46.7766C56.4268 45.2005 57.107 43.7001 57.9964 42.3243V42.3243ZM65.9469 61.4808C68.6542 61.4808 70.0098 58.8984 70.0139 53.7337V53.4948C70.0139 48.1872 68.6725 45.5334 65.9897 45.5334C63.3069 45.5334 61.9635 48.1872 61.9594 53.4948C61.9757 58.8188 63.313 61.4808 65.9714 61.4808H65.9469Z" fill="white" stroke="#3A3A3A" stroke-width="1.5" stroke-linecap="round" stroke-linejoin="round"/>
<path d="M91.9941 53.4152C96.0183 57.2939 98.8724 60.2069 100.556 62.1544C101.425 63.1302 101.859 63.9468 101.859 64.6041C101.859 65.2614 101.339 66.0596 100.299 66.9987C99.2475 67.905 98.3851 68.3582 97.7124 68.3582C97.0458 68.3582 96.2324 67.8071 95.2661 66.6986L86.5816 56.7774V64.4878C86.591 64.9499 86.5706 65.4123 86.5205 65.8718C86.4565 66.2319 86.3302 66.578 86.1474 66.8946C85.7804 67.6131 84.7611 67.9704 83.0895 67.9663C81.2547 67.9663 80.1661 67.4641 79.8481 66.4597C79.6573 65.8061 79.5767 65.1251 79.6096 64.4449V42.4652C79.6041 42.0091 79.6245 41.5532 79.6707 41.0995C79.735 40.7317 79.8611 40.3776 80.0438 40.0522C80.4169 39.3418 81.4382 38.9866 83.1017 38.9866C84.9446 38.9866 86.0373 39.4725 86.3798 40.4442C86.5327 41.1189 86.5985 41.8104 86.5755 42.5019V50.053C90.1512 46.0233 93.046 42.7163 95.2599 40.1318C96.1814 39.0458 96.9846 38.5049 97.6696 38.5089C98.3545 38.513 99.2311 38.9682 100.299 39.8746C101.351 40.781 101.877 41.571 101.877 42.2447C101.77 43.1549 101.353 44.0004 100.697 44.6392C99.1557 46.403 96.7807 48.8282 93.572 51.9148L91.9941 53.4152Z" fill="white" stroke="#3A3A3A" stroke-width="1.5" stroke-linecap="round" stroke-linejoin="round"/>
<path d="M64.1244 23.1004C64.7788 23.3393 65.1029 23.6516 65.1029 24.0374C65.0749 24.283 65.0153 24.5238 64.9255 24.754L62.1245 32.8685C62.0977 32.9553 62.0629 33.0393 62.0205 33.1196C61.9191 33.2727 61.7881 33.4038 61.6352 33.5054C61.4194 33.6648 61.1572 33.7487 60.8891 33.7443C60.6226 33.7506 60.3617 33.6665 60.1491 33.5054C59.9708 33.384 59.8257 33.2198 59.7271 33.0278L58.0208 27.9875C56.9444 31.1844 56.394 32.8175 56.3695 32.8869C56.3365 32.9753 56.2934 33.0595 56.2411 33.138C56.1739 33.2418 56.096 33.3383 56.0087 33.4258C55.9042 33.5342 55.7787 33.62 55.6399 33.678C55.501 33.7359 55.3518 33.7647 55.2014 33.7627C54.9264 33.7689 54.6565 33.6874 54.4308 33.5299C54.2629 33.4175 54.1245 33.2663 54.0272 33.089L53.9293 32.8685L51.116 24.754C51.0265 24.5248 50.9728 24.2831 50.957 24.0374C50.957 23.6516 51.2812 23.3393 51.9356 23.1188C52.1805 23.0278 52.4388 22.9781 52.7 22.9718C52.8 22.9645 52.9003 22.9819 52.992 23.0224C53.0838 23.063 53.1641 23.1256 53.226 23.2046C53.3762 23.4227 53.4879 23.6651 53.5562 23.9211L55.1586 28.8204L56.7487 24.0129C56.8005 23.8231 56.8938 23.6472 57.0217 23.4979C57.1497 23.3485 57.3092 23.2295 57.4887 23.1494C57.6827 23.0711 57.8913 23.0356 58.1003 23.0453C58.3526 23.0457 58.5978 23.1297 58.7975 23.2842C58.9747 23.4034 59.1163 23.5684 59.2073 23.7619L60.883 28.8327L62.4914 23.9333C62.5456 23.7647 62.6089 23.5991 62.681 23.4373C62.7413 23.311 62.8342 23.2031 62.9501 23.1249C63.0903 23.0181 63.2634 22.9639 63.4394 22.9718C63.6732 22.9768 63.9046 23.0203 64.1244 23.1004Z" fill="#2D4B94"/>
<path d="M73.1208 22.9106C73.8289 22.917 74.5288 23.0631 75.1805 23.3406C75.8321 23.618 76.4228 24.0214 76.9186 24.5276C77.4145 25.0338 77.8059 25.633 78.0703 26.2907C78.3348 26.9485 78.4672 27.6521 78.4599 28.3611C78.493 29.8245 77.948 31.2419 76.9432 32.3051C76.4739 32.8296 75.8971 33.2466 75.2523 33.5278C74.6074 33.8089 73.9096 33.9475 73.2064 33.9341C72.5003 33.946 71.7996 33.8093 71.1496 33.5329C70.4996 33.2565 69.9148 32.8466 69.433 32.3296C68.9321 31.8267 68.5371 31.2283 68.2713 30.5697C68.0056 29.9112 67.8744 29.206 67.8857 28.4958C67.8784 27.7171 68.026 26.9448 68.3199 26.2238C68.5872 25.5597 68.9843 24.9559 69.488 24.4478C69.9743 23.9713 70.5445 23.5892 71.1699 23.3209C71.7856 23.053 72.4494 22.9134 73.1208 22.9106V22.9106ZM70.4604 28.4224C70.4455 28.8135 70.5123 29.2035 70.6566 29.5674C70.8008 29.9312 71.0194 30.2609 71.2983 30.5352C71.5404 30.7888 71.8313 30.9907 72.1535 31.1286C72.4757 31.2665 72.8224 31.3376 73.1728 31.3376C73.5232 31.3376 73.8699 31.2665 74.1921 31.1286C74.5143 30.9907 74.8052 30.7888 75.0473 30.5352C75.586 29.9578 75.8856 29.1972 75.8856 28.407C75.8856 27.6169 75.586 26.8562 75.0473 26.2789C74.8062 26.0246 74.5159 25.8222 74.1942 25.6839C73.8725 25.5455 73.526 25.4742 73.1759 25.4742C72.8257 25.4742 72.4792 25.5455 72.1575 25.6839C71.8358 25.8222 71.5455 26.0246 71.3044 26.2789C71.0211 26.5567 70.7996 26.8911 70.6541 27.2605C70.5087 27.6298 70.4427 28.0257 70.4604 28.4224V28.4224Z" fill="#2D4B94"/>
<path d="M94.4038 23.1004C95.0582 23.3393 95.3823 23.6516 95.3823 24.0374C95.3575 24.2835 95.2978 24.5248 95.205 24.754L92.4039 32.8685C92.3771 32.9553 92.3423 33.0393 92.2999 33.1196C92.1985 33.2727 92.0675 33.4038 91.9147 33.5054C91.6988 33.6648 91.4367 33.7487 91.1685 33.7443C90.902 33.7506 90.6412 33.6665 90.4285 33.5054C90.2504 33.3855 90.107 33.2208 90.0126 33.0277L88.3002 27.9875L86.6551 32.8869C86.6168 32.974 86.5718 33.0579 86.5205 33.138C86.4533 33.2418 86.3754 33.3383 86.2881 33.4258C86.1846 33.5338 86.0601 33.6193 85.9223 33.6772C85.7845 33.7352 85.6364 33.7642 85.4869 33.7627C85.2141 33.7727 84.9449 33.6978 84.7163 33.5483C84.5497 33.4362 84.4132 33.2848 84.3188 33.1074L84.2148 32.8869L81.3955 24.7723C81.3089 24.5422 81.2554 24.301 81.2365 24.0558C81.2365 23.67 81.5606 23.3577 82.215 23.1372C82.4599 23.0462 82.7183 22.9965 82.9795 22.9902C83.0795 22.9828 83.1797 23.0002 83.2714 23.0408C83.3632 23.0814 83.4435 23.1439 83.5054 23.2229C83.6556 23.4411 83.7674 23.6834 83.8357 23.9395L85.438 28.8388L87.0342 24.0313C87.0869 23.8441 87.1806 23.6711 87.3087 23.5248C87.4367 23.3786 87.5958 23.2629 87.7743 23.1862C87.9683 23.1079 88.1769 23.0724 88.3858 23.0821C88.6382 23.0825 88.8833 23.1665 89.083 23.3209C89.2602 23.4401 89.4019 23.6052 89.4928 23.7986L91.1685 28.8694L92.777 23.9701C92.8565 23.7496 92.9176 23.5781 92.9666 23.474C93.0289 23.3491 93.1214 23.2417 93.2357 23.1617C93.3763 23.0558 93.5491 23.0017 93.7249 23.0086C93.9547 23.0024 94.1839 23.0334 94.4038 23.1004V23.1004Z" fill="#2D4B94"/>
<path d="M61.99 20.9631C62.6383 21.1958 62.9685 21.5081 62.9685 21.9001C62.9406 22.1456 62.8809 22.3865 62.7912 22.6166L59.9901 30.7312C59.9604 30.8149 59.9257 30.8967 59.8861 30.9761C59.7836 31.13 59.6529 31.263 59.5008 31.3681C59.285 31.5275 59.0229 31.6114 58.7547 31.6069C58.4866 31.6114 58.2244 31.5275 58.0086 31.3681C57.8345 31.2437 57.692 31.0801 57.5927 30.8904L55.8864 25.8441C54.8019 29.0409 54.2514 30.674 54.2351 30.7434C54.2017 30.8297 54.1586 30.9119 54.1067 30.9884C54.039 31.0954 53.9589 31.1941 53.8682 31.2824C53.7654 31.3912 53.641 31.4773 53.5031 31.5353C53.3651 31.5933 53.2166 31.6219 53.067 31.6192C52.8312 31.6267 52.5978 31.5697 52.3919 31.4542C52.1861 31.3387 52.0156 31.1692 51.8989 30.9639L51.7949 30.7434L48.9817 22.6289C48.892 22.3994 48.8364 22.158 48.8165 21.9123C48.8165 21.5204 49.1468 21.2142 49.7951 20.9876C50.0416 20.8922 50.3017 20.8364 50.5657 20.8222C50.6657 20.8149 50.7659 20.8323 50.8576 20.8728C50.9494 20.9134 51.0297 20.976 51.0916 21.055C51.2395 21.2737 51.3491 21.516 51.4157 21.7715L53.0242 26.6708L54.6143 21.8634C54.6688 21.6754 54.7638 21.5017 54.8928 21.3546C55.0217 21.2075 55.1814 21.0905 55.3604 21.0121C55.555 20.9356 55.7632 20.9001 55.972 20.908C56.2229 20.9119 56.4656 20.998 56.6631 21.1529C56.8414 21.2683 56.9834 21.4318 57.0729 21.6245L58.7547 26.7015L60.3571 21.8021C60.4366 21.5755 60.4977 21.4102 60.5467 21.3061C60.6102 21.1803 60.7024 21.0712 60.8157 20.9876C60.9583 20.8855 61.1298 20.8318 61.305 20.8345C61.539 20.8376 61.7707 20.8811 61.99 20.9631Z" fill="white"/>
<path d="M70.9803 20.7732C71.6889 20.7772 72.3896 20.9215 73.0423 21.1976C73.695 21.4738 74.2868 21.8764 74.7835 22.3824C75.2803 22.8883 75.6723 23.4877 75.9369 24.1459C76.2015 24.8041 76.3336 25.5082 76.3255 26.2176C76.3556 27.6824 75.8111 29.1005 74.8088 30.1677C74.3379 30.6904 73.7609 31.1061 73.1164 31.3871C72.4719 31.6681 71.7749 31.8077 71.072 31.7968C70.3615 31.8109 69.6559 31.6748 69.0014 31.3973C68.347 31.1197 67.7584 30.707 67.2741 30.1861C66.7738 29.6796 66.3801 29.0777 66.1164 28.416C65.8527 27.7543 65.7244 27.0463 65.739 26.334C65.7332 25.5548 65.8829 24.7824 66.1794 24.0619C66.4429 23.3959 66.8405 22.7913 67.3475 22.2859C67.8302 21.8079 68.3988 21.4256 69.0232 21.1591C69.6422 20.8973 70.3084 20.7659 70.9803 20.7732ZM68.326 26.285C68.3095 26.6764 68.3756 27.0668 68.52 27.4309C68.6644 27.7949 68.8838 28.1244 69.1639 28.3979C69.4064 28.6498 69.6971 28.8501 70.0186 28.987C70.3402 29.1238 70.686 29.1944 71.0353 29.1944C71.3847 29.1944 71.7305 29.1238 72.0521 28.987C72.3736 28.8501 72.6643 28.6498 72.9068 28.3979C73.1874 28.1225 73.4066 27.7908 73.5499 27.4245C73.6933 27.0582 73.7576 26.6657 73.7385 26.2728C73.7569 25.8784 73.6917 25.4847 73.5473 25.1174C73.4029 24.7501 73.1825 24.4175 72.9007 24.1415C72.6567 23.8895 72.365 23.6888 72.0426 23.551C71.7202 23.4133 71.3736 23.3413 71.0231 23.3393C70.6791 23.346 70.3399 23.421 70.025 23.5597C69.7101 23.6985 69.4257 23.8983 69.1884 24.1477C68.9016 24.4224 68.6765 24.7551 68.5278 25.1235C68.3791 25.492 68.3104 25.8879 68.326 26.285Z" fill="white"/>
<path d="M92.2694 20.9631C92.9177 21.1958 93.2479 21.5081 93.2479 21.9001C93.22 22.1456 93.1603 22.3865 93.0706 22.6166L90.2695 30.7312C90.2425 30.8159 90.2077 30.8979 90.1656 30.9761C90.063 31.13 89.9323 31.263 89.7803 31.3681C89.5625 31.5237 89.3017 31.6074 89.0341 31.6074C88.7666 31.6074 88.5058 31.5237 88.288 31.3681C88.1139 31.2437 87.9714 31.0801 87.8721 30.8904L86.1658 25.8441C85.0854 29.0409 84.5349 30.674 84.5146 30.7434C84.4811 30.8297 84.438 30.9119 84.3861 30.9884C84.3203 31.0968 84.2401 31.1957 84.1476 31.2824C84.0448 31.3912 83.9204 31.4773 83.7825 31.5353C83.6445 31.5933 83.496 31.6219 83.3464 31.6192C83.1106 31.6267 82.8772 31.5697 82.6714 31.4542C82.4655 31.3387 82.295 31.1692 82.1783 30.9639L82.0743 30.7434L79.2611 22.6289C79.1715 22.3994 79.1158 22.158 79.0959 21.9123C79.0959 21.5204 79.4262 21.2142 80.0745 20.9876C80.3226 20.9012 80.5825 20.8537 80.8451 20.8467C80.9451 20.8394 81.0453 20.8567 81.1371 20.8973C81.2288 20.9379 81.3091 21.0005 81.371 21.0794C81.5213 21.2968 81.6311 21.5395 81.6952 21.796L83.3036 26.6953L84.8937 21.8878C84.9422 21.696 85.0326 21.5174 85.1585 21.3649C85.2844 21.2124 85.4425 21.0898 85.6215 21.006C85.816 20.9294 86.0242 20.894 86.2331 20.9019C86.4841 20.9049 86.7271 20.991 86.9242 21.1468C87.1024 21.2622 87.2445 21.4256 87.3339 21.6184L89.0158 26.6953L90.6181 21.796C90.6976 21.5694 90.7588 21.404 90.8077 21.2999C90.8718 21.1727 90.9663 21.0632 91.0829 20.9815C91.2244 20.8773 91.3966 20.8234 91.5722 20.8284C91.8107 20.8319 92.0467 20.8775 92.2694 20.9631V20.9631Z" fill="white"/>
<path d="M23.3503 60.899C26.659 59.9926 27.7782 58.8719 28.6833 55.5587C28.7096 55.4578 28.7686 55.3684 28.8511 55.3047C28.9335 55.2409 29.0348 55.2063 29.1389 55.2063C29.2431 55.2063 29.3443 55.2409 29.4268 55.3047C29.5092 55.3684 29.5682 55.4578 29.5945 55.5587C30.4997 58.8719 31.6189 59.9926 34.9275 60.899C35.0283 60.9253 35.1175 60.9844 35.1812 61.067C35.2449 61.1496 35.2794 61.2509 35.2794 61.3552C35.2794 61.4595 35.2449 61.5609 35.1812 61.6435C35.1175 61.726 35.0283 61.7851 34.9275 61.8115C31.6189 62.7179 30.4997 63.8386 29.5945 67.1518C29.5682 67.2527 29.5092 67.342 29.4268 67.4058C29.3443 67.4696 29.2431 67.5042 29.1389 67.5042C29.0348 67.5042 28.9335 67.4696 28.8511 67.4058C28.7686 67.342 28.7096 67.2527 28.6833 67.1518C27.7782 63.8386 26.659 62.7179 23.3503 61.8115C23.2495 61.7851 23.1603 61.726 23.0966 61.6435C23.033 61.5609 22.9984 61.4595 22.9984 61.3552C22.9984 61.2509 23.033 61.1496 23.0966 61.067C23.1603 60.9844 23.2495 60.9253 23.3503 60.899V60.899Z" fill="white" stroke="#3A3A3A" stroke-width="1.5" stroke-linecap="round" stroke-linejoin="round"/>
<path d="M102.299 45.9315C105.608 45.0251 106.727 43.9043 107.638 40.5912C107.667 40.4928 107.726 40.4063 107.808 40.3448C107.889 40.2832 107.989 40.2499 108.091 40.2499C108.193 40.2499 108.292 40.2832 108.374 40.3448C108.456 40.4063 108.515 40.4928 108.543 40.5912C109.449 43.9043 110.568 45.0251 113.876 45.9315C113.977 45.9578 114.066 46.0169 114.13 46.0995C114.194 46.182 114.228 46.2834 114.228 46.3877C114.228 46.492 114.194 46.5934 114.13 46.676C114.066 46.7585 113.977 46.8176 113.876 46.844C110.568 47.7503 109.449 48.8711 108.543 52.1843C108.515 52.2826 108.456 52.3691 108.374 52.4306C108.292 52.4922 108.193 52.5255 108.091 52.5255C107.989 52.5255 107.889 52.4922 107.808 52.4306C107.726 52.3691 107.667 52.2826 107.638 52.1843C106.727 48.8711 105.608 47.7503 102.299 46.844C102.198 46.8176 102.109 46.7585 102.045 46.676C101.982 46.5934 101.947 46.492 101.947 46.3877C101.947 46.2834 101.982 46.182 102.045 46.0995C102.109 46.0169 102.198 45.9578 102.299 45.9315V45.9315Z" fill="white" stroke="#3A3A3A" stroke-width="1.5" stroke-linecap="round" stroke-linejoin="round"/>
<path d="M37.2332 8.83111C42.1259 7.49604 43.7527 5.84863 45.0859 0.967651C45.1259 0.821283 45.2128 0.692123 45.3332 0.600055C45.4537 0.507987 45.601 0.458115 45.7525 0.458115C45.9041 0.458115 46.0514 0.507987 46.1718 0.600055C46.2923 0.692123 46.3792 0.821283 46.4191 0.967651C47.7585 5.867 49.4037 7.49604 54.2718 8.83111C54.418 8.87113 54.547 8.95814 54.6389 9.07876C54.7309 9.19938 54.7807 9.34691 54.7807 9.49865C54.7807 9.65039 54.7309 9.79792 54.6389 9.91854C54.547 10.0392 54.418 10.1262 54.2718 10.1662C49.3792 11.5074 47.7585 13.1548 46.4191 18.0296C46.3792 18.176 46.2923 18.3052 46.1718 18.3972C46.0514 18.4893 45.9041 18.5392 45.7525 18.5392C45.601 18.5392 45.4537 18.4893 45.3332 18.3972C45.2128 18.3052 45.1259 18.176 45.0859 18.0296C43.7527 13.1303 42.1075 11.5074 37.2332 10.1662C37.087 10.1262 36.9581 10.0392 36.8661 9.91854C36.7742 9.79792 36.7244 9.65039 36.7244 9.49865C36.7244 9.34691 36.7742 9.19938 36.8661 9.07876C36.9581 8.95814 37.087 8.87113 37.2332 8.83111V8.83111Z" fill="white" stroke="#3A3A3A" stroke-width="1.5" stroke-linecap="round" stroke-linejoin="round"/>
<path d="M80.3434 79.541C85.2361 78.2059 86.8568 76.5585 88.19 71.6837C88.2279 71.5347 88.3144 71.4025 88.4356 71.3082C88.5569 71.2138 88.7061 71.1626 88.8597 71.1626C89.0133 71.1626 89.1625 71.2138 89.2837 71.3082C89.405 71.4025 89.4914 71.5347 89.5294 71.6837C90.8626 76.583 92.5078 78.2059 97.376 79.541C97.5211 79.5831 97.6486 79.6713 97.7394 79.7922C97.8301 79.9131 97.8792 80.0603 97.8792 80.2116C97.8792 80.3629 97.8301 80.5101 97.7394 80.631C97.6486 80.752 97.5211 80.8401 97.376 80.8822C92.4833 82.2173 90.8626 83.8647 89.5294 88.7395C89.4873 88.8849 89.3993 89.0126 89.2785 89.1035C89.1578 89.1943 89.0108 89.2435 88.8597 89.2435C88.7086 89.2435 88.5616 89.1943 88.4408 89.1035C88.3201 89.0126 88.232 88.8849 88.19 88.7395C86.8568 83.8402 85.2116 82.2173 80.3434 80.8822C80.1946 80.8442 80.0626 80.7577 79.9684 80.6363C79.8742 80.5148 79.823 80.3654 79.823 80.2116C79.823 80.0578 79.8742 79.9084 79.9684 79.787C80.0626 79.6655 80.1946 79.579 80.3434 79.541V79.541Z" fill="white" stroke="#3A3A3A" stroke-width="1.5" stroke-linecap="round" stroke-linejoin="round"/>
</svg>
