<svg xmlns="http://www.w3.org/2000/svg" width="325.3" height="384.88" viewBox="0 0 325.3 384.88">
  <defs>
    <style>
      .cls-1 {
        isolation: isolate;
      }

      .cls-2 {
        fill: #2c1be9;
      }

      .cls-3 {
        fill: #a29918;
      }

      .cls-4 {
        fill: #407d91;
      }

      .cls-5 {
        fill: #3a353b;
      }

      .cls-6 {
        fill: #f4deff;
      }

      .cls-7 {
        fill: #313217;
      }

      .cls-11, .cls-20, .cls-21, .cls-8 {
        opacity: 0.5;
      }

      .cls-10, .cls-11, .cls-13, .cls-14, .cls-15, .cls-20, .cls-21, .cls-8 {
        mix-blend-mode: multiply;
      }

      .cls-10, .cls-11, .cls-15, .cls-9 {
        fill: #3d3e1d;
      }

      .cls-10, .cls-13 {
        opacity: 0.3;
      }

      .cls-12 {
        fill: #515428;
      }

      .cls-14 {
        opacity: 0.4;
      }

      .cls-15 {
        opacity: 0.2;
      }

      .cls-16 {
        fill: #e7c19c;
      }

      .cls-17 {
        fill: #f1d2b3;
      }

      .cls-18 {
        fill: #ddb996;
      }

      .cls-19 {
        fill: #683c11;
      }

      .cls-20 {
        fill: #b36c1e;
      }

      .cls-21 {
        fill: #432918;
      }

      .cls-22 {
        fill: #c65733;
      }

      .cls-23 {
        fill: #e9b21b;
      }

      .cls-24 {
        fill: #c36015;
      }

      .cls-25 {
        fill: #e35925;
      }

      .cls-26 {
        fill: #853f24;
      }

      .cls-27 {
        fill: #e06918;
      }

      .cls-28 {
        fill: #28acac;
      }

      .cls-29 {
        fill: #28dada;
      }

      .cls-30 {
        fill: #7e7f89;
      }

      .cls-31 {
        fill: #c3a479;
      }

      .cls-32 {
        fill: #28ffff;
      }
    </style>
  </defs>
  <title>boy4</title>
  <g class="cls-1">
    <g id="Layer_2" data-name="Layer 2">
      <g id="Layer_1-2" data-name="Layer 1">
        <g>
          <g>
            <g>
              <g>
                <path class="cls-2" d="M270.81,381.22a14.73,14.73,0,0,1-.73-3.27c-.07-.43-.16-.86-.26-1.28a5.11,5.11,0,0,1-.35-1.09c-.24-1.44-.57-2.88-.78-4.32a12.46,12.46,0,0,1,0-3.23,5.64,5.64,0,0,1,.31-.53,14.42,14.42,0,0,1,1.44-1.14c.41-.26.83-.5,1.25-.72,1.15-.36,2.3-.71,3.48-1A85.89,85.89,0,0,1,284,363c1.49-.21,3.06-.32,4.59-.56.44.11.87.24,1.3.39a9.6,9.6,0,0,0,4.56,1,79.26,79.26,0,0,0,10.56-.58c3.44-.36,6.49-1.66,9.79-2.6,2.61-.75,6.2-.8,8.68.48a3.18,3.18,0,0,1,1.75,3.43c-.74,2.66-2.81,5-4.91,6.85a75.59,75.59,0,0,1-9.25,6.53,46.3,46.3,0,0,1-8.9,4.73c-4.87,1.74-9.77,1.78-14.86,2-4.17.18-8.3.21-12.43.12-.14,0-.29,0-.43-.06C272.39,384.42,271.55,383,270.81,381.22Z"/>
                <path class="cls-3" d="M301.79,375c2.79-3.55,7.93-3.93,11.39-6.61,2-1.52,5.44-4.06,5.25-6.94a2.49,2.49,0,0,0-.36-1.23,11,11,0,0,1,5.45,1,3.18,3.18,0,0,1,1.75,3.43c-.74,2.66-2.81,5-4.91,6.85a75.59,75.59,0,0,1-9.25,6.53,46.3,46.3,0,0,1-8.9,4.73c-.52.18-1,.33-1.54.48C300.11,380.32,300,377.22,301.79,375Z"/>
                <path class="cls-4" d="M268.69,371.26a12.46,12.46,0,0,1,0-3.23,5.64,5.64,0,0,1,.31-.53,14.42,14.42,0,0,1,1.44-1.14c.41-.26.83-.5,1.25-.72,1.15-.36,2.3-.71,3.48-1A85.89,85.89,0,0,1,284,363c1.49-.2,3.06-.32,4.59-.56h0a15.16,15.16,0,0,1-5.15,7.26c-3.91,2.69-9.59,3.4-14.59,2.75C268.83,372.07,268.75,371.67,268.69,371.26Z"/>
                <path class="cls-3" d="M270.81,381.22a14.73,14.73,0,0,1-.73-3.27c-.07-.43-.16-.86-.26-1.28a5.11,5.11,0,0,1-.35-1.09c0-.26-.09-.52-.14-.79l.52,0a10.91,10.91,0,0,1,6.34,1.46c2.69,1.66,7.43,4.91,8.6,8.55-3.3.09-6.59.12-9.87.05-.14,0-.29,0-.43-.06C272.39,384.42,271.55,383,270.81,381.22Z"/>
                <path class="cls-5" d="M270.77,381.12a14.68,14.68,0,0,0,4.17,1.1,54.09,54.09,0,0,0,9.26.49c6.49-.25,13.62-.2,19.7-2.8,6.41-2.72,12-7.41,16.69-12.46,1.25-1.33,3.27-3.25,3.24-5.25a3.29,3.29,0,0,0-.14-.92,3.14,3.14,0,0,1,1.58,3.32c-.74,2.66-2.81,5-4.91,6.85a75.59,75.59,0,0,1-9.25,6.53,46.3,46.3,0,0,1-8.9,4.73c-4.87,1.74-9.77,1.78-14.86,2-4.17.18-8.3.21-12.43.12-.14,0-.29,0-.43-.06-2.1-.35-2.94-1.74-3.68-3.55A.3.3,0,0,0,270.77,381.12Z"/>
                <path class="cls-6" d="M287.65,370.09c-.83-1.45-.21-3.72.49-5.13a2.69,2.69,0,0,1,.23-.4c.41-.83,1-1.9,1.81-1.85.14,0,.32.17.28.31s0,0,.06,0,0,0,0,0h0s0,0,0,0l-.06,0,0,0h0a.18.18,0,0,1-.13.05.94.94,0,0,0-.34.37c-.12.19-.24.38-.35.57a8,8,0,0,0-.83,1.78c-.16.55-.32,1.14-.43,1.73a11.8,11.8,0,0,1,2.93-3c.36-.29,1.53-1.25,2-1a.59.59,0,0,1,.28.28l.06.06a3.2,3.2,0,0,1,.39.65c.15.21.28.43.39.62a6.21,6.21,0,0,1,.52,1.26,18.84,18.84,0,0,1,2.67-2.73,2.68,2.68,0,0,1,.29-.33c0-.12.1-.2.23-.21a.21.21,0,0,1,.23,0,.33.33,0,0,1,.22,0,.62.62,0,0,1,.61.35,5.66,5.66,0,0,1,1.56,1.48,16,16,0,0,1,1.36,1.9c0-.47,0-.93.08-1.36a6.27,6.27,0,0,1,.3-1.28c.14-.83.46-1.44,1.19-1.05a.31.31,0,0,1,.18.35c-.1.66-.37,1.25-.46,1.93-.12,1-.32,1.92-.41,2.9a.32.32,0,0,1-.3.3.75.75,0,0,1-.9.23c-1.07-.94-1.64-2.61-2.7-3.55a.16.16,0,0,0,0-.07l-.48-.68c-.83,1.15-1.6,2.35-2.32,3.58l-.14.21c-.14.73-.61,1.69-1.41,1a2.76,2.76,0,0,1-.6-1.52c-.15-.64-.3-1.26-.47-1.89l-.09-.22c-.12-.29-.25-.59-.38-.88-1.59,1.66-2.92,3.45-4.39,5.22h0a.55.55,0,0,1-.64.11A.35.35,0,0,1,287.65,370.09Z"/>
                <path class="cls-6" d="M310.72,376.2a80.11,80.11,0,0,0,7.37-6.28,36.83,36.83,0,0,0,3.61-3.78c1.06-1.41,2.3-2.62,2-4.54,0,0,0,0,0,0,.6,2.92-2.46,5.45-4.29,7.32a69,69,0,0,1-8.69,7.31S310.7,376.22,310.72,376.2Z"/>
              </g>
              <g>
                <path class="cls-7" d="M152.35,196.21l55.5,2.64c-2.06,8.13-3.52,11.05-2.66,12.9,2.83,6,39.2,34,45.2,64.29,1.89,1.92-9.85,17.81-22.44,9.87-14.7-14.45-73-59.48-79.66-84.16C149.68,199.93,151,198.08,152.35,196.21Z"/>
                <g class="cls-8">
                  <path class="cls-9" d="M229.66,239.06a37.65,37.65,0,0,1-3.76,4.12c-2,1.57-4.36.84-5-1.81-.8-3.31,2-8-.43-10.88a5.32,5.32,0,0,0-2-1.59c-1.15-.53-2.87-.45-2.78-1.92.08-1.17.14-2.35.22-3.52,4.21,4.28,9.17,9.46,14,15.27A3.34,3.34,0,0,0,229.66,239.06Z"/>
                  <path class="cls-9" d="M184.27,239.21c2-1.66,5.83-5.65,7.37-1.12.71,2.06-2,2.76-3.44,3.26-2.13.74-4.82,1.67-5.94,3.62q-2-1.87-3.91-3.76A9,9,0,0,0,184.27,239.21Z"/>
                  <path class="cls-9" d="M195.16,251.83c1.23-1.55,2.44-3.53,4.14-4.62,2.12-1.35,4.15.85,4.46,3,.56,3.88-2.77,7-4.57,10.24-2.15-1.9-4.34-3.86-6.54-5.85A23.34,23.34,0,0,0,195.16,251.83Z"/>
                  <path class="cls-9" d="M192.47,209.92c2.26,2.65,8.62,8.06,6.14,12-1.13,1.81-3.61,3.67-5.88,3.4-2.08-.24-3.57-1.8-4.62-3.5-2.06-3.3-3-7-4.34-10.63-1.75-4.56-4-9.2-7.52-12.71-.43-.43-.88-.84-1.34-1.24l12.59.6A22.55,22.55,0,0,0,192.47,209.92Z"/>
                  <path class="cls-9" d="M204.79,240.74c.23-.15.46-.28.7-.41.09.33.44.63.67.38a9,9,0,0,1,1.53-1.25c.77-.24,1.55-.44,2.32-.68h.06c2,.14,4.5,2.39,3,4.57-.78,1.13-1.6,1.84-1.28,3.28.2.93,1.32,1.72,2,2.32a7.91,7.91,0,0,1,2,2.3c.84,2-3.6.81-4,.16-.77-1.15-1.37-1.8-1.44-3.26a3,3,0,0,0-.23-1.37c-.8-1.34-2.52-.82-3.63-1.72a4.09,4.09,0,0,0-1.66-.63C202.85,243.93,203.51,241.57,204.79,240.74Z"/>
                  <path class="cls-9" d="M238.25,259.2c-.76-2,.24-4.48,1.38-6.17.13-.19.29-.43.48-.68a90,90,0,0,1,5.79,10.4C242.92,262.16,239.45,262.41,238.25,259.2Z"/>
                  <path class="cls-9" d="M174.77,226.9c1.7-1.34,3.87-3.14,6.2-2.79,1.78.26,3.29,1.24,1.61,2.78a23.14,23.14,0,0,1-2.32,1.87c-2.89,2.09-5.58,4.19-6.7,7.68-1.85-1.87-3.65-3.74-5.38-5.6C170.65,230.7,172.93,228.35,174.77,226.9Z"/>
                  <path class="cls-9" d="M210.21,221.47c-.49,3.23.89,11.26-3.26,12.55-4.93,1.55-8.25-5.51-5.78-9.26,1.68-2.54,4-4.54,6-6.85.47-.55,1-1.18,1.5-1.87.75.79,1.6,1.67,2.54,2.62A7,7,0,0,0,210.21,221.47Z"/>
                  <path class="cls-9" d="M216.07,257a12.92,12.92,0,0,0,5.24.73c3.16-.21,2.21-3.4,3.54-5.43.79-1.22,2.65-3.35,4.42-2.68s2.16,3.06,1.56,4.63-1.54,3-2.12,4.66a5,5,0,0,0-.26,3V262a4.9,4.9,0,0,0,2.27,3.27c1.9,1.16,4.65,2.3,3.69,5.15-.68,2.06-2.9,2.83-4.93,2.65-2.51-.23-4.21-1.25-4.86-3.81-.43-1.65-.68-3.54-1.8-4.9-.51-.62-2-1.4-2.81-1s-1.56,1.31-2.57,1.19a16.69,16.69,0,0,1-2.62-.45c-1.77-.46-5.3-1.46-5.12-3.88C210,256.24,213.06,256,216.07,257Z"/>
                </g>
                <g class="cls-8">
                  <path class="cls-9" d="M240.15,255.34c-5.27.39-12.37,3.46-17.34.6-2-1.13-5.46-4.31-2.4-6.2a10.23,10.23,0,0,1,5.3-1.37c2.55,0,5.07.41,7.62.44a11.69,11.69,0,0,0,4.07-.48c1.6,2.27,3.12,4.61,4.54,7A13.46,13.46,0,0,0,240.15,255.34Z"/>
                  <path class="cls-9" d="M210.91,270.72c-4.56-4-9.58-8.33-14.74-13,2.09-.2,4.36-2.07,6-3.71s3.4-3.9,5.8-4.9c2.89-1.19,7.05-1.21,6.89,3s-3.42,5.22-5.7,8a4.58,4.58,0,0,0-1.09,4.76C208.51,266.23,209.89,268.47,210.91,270.72Z"/>
                  <path class="cls-9" d="M199.46,246.91c.25,2-.93,3.91-2.24,5.29-1.15,1.22-2.34,2.23-2.67,3.91,0,0,0,.1,0,.17q-2.11-1.89-4.24-3.83c2.5-1.81,1.41-6.93,1.28-9.64a11,11,0,0,1,2.4-7.05c1.38-1.95,4.77-6.16,7.6-4.13.44.31,2.75,2.26,2,3.09a4.82,4.82,0,0,1-1.44.91,6.1,6.1,0,0,0-2.24,1.68c-1.62,2.17-1.75,3.33-1.39,6C198.62,244.55,199.31,245.69,199.46,246.91Z"/>
                  <path class="cls-9" d="M223.62,232.73c-1.72,2.91-2.44,8.09-5.48,9.94a2.78,2.78,0,0,1-2.84.07c-2.56-1.34-3.64-3.48-1.63-5.79,1.66-1.92,4.25-3.24,5.32-5.6a10.17,10.17,0,0,0,.91-3.81c1.36,1.43,2.77,2.92,4.2,4.48A4.88,4.88,0,0,0,223.62,232.73Z"/>
                  <path class="cls-9" d="M210.53,226.87c-.39,2.08-1.18,4.68-3.81,3.09-2-1.2-1.57-3.4-.81-5.25,1-2.52,2.77-4.81,4.16-7.21l2.2,2.24C211.2,221.82,211,224.63,210.53,226.87Z"/>
                  <path class="cls-9" d="M222,273.84c.65-2.19,1.21-5.23,3.05-6.79.95-.8,5.23-1.82,4.67.61-.71,3-5.81,7.84-8.26,12.29l-1.41-1.25A20.84,20.84,0,0,0,222,273.84Z"/>
                  <path class="cls-9" d="M240.81,269.2c-1.9-.41-4.34-.93-4.23-3.33.14-3,3-2.52,5.12-2a46.35,46.35,0,0,0,5.24,1.25q1.06,2.52,1.91,5.09C245.73,269.73,242.55,269.57,240.81,269.2Z"/>
                  <path class="cls-9" d="M179.92,230.44c5.51.19,8.06,7.16,5.33,11.4a33.71,33.71,0,0,1-2.67,3.44c-3.28-3.12-6.51-6.28-9.59-9.43C174.36,232.84,176.72,230.33,179.92,230.44Z"/>
                </g>
                <path class="cls-7" d="M247.73,270.53a25.46,25.46,0,0,1,5.7,8.4c2.33,5.42,35.1,82.22,35.1,82.22s-5.47,11-21.82,11.59c0,0-24.38-43.66-30-58.45A226.13,226.13,0,0,1,228,285.91S233.21,269.32,247.73,270.53Z"/>
                <path class="cls-10" d="M238.57,277.41c-.3.31-.62.66-.95,1,.58-2.15,4.58-3.79,6.39-3.83,2.12,0,4.45,1.91,2.82,4.1a2.38,2.38,0,0,0-.65,1.59c.17,1.87,1.52,2.73,3.12,3.33,1.83.67,3.46,1.53,2.52,3.87-.46,1.13-1.06,1.39-1.89.39-1.43-1.71-4.17-7.13-7.2-5.68-1.92.92-2.06,3.36-3.79,4.31s-3.76-1-3.22-2.83a9.51,9.51,0,0,1,1.08-2.44,18.75,18.75,0,0,1,2.36-3C239.52,277.85,238.92,277.05,238.57,277.41Z"/>
                <path class="cls-10" d="M239.78,304.32a.52.52,0,0,0-.55-.44,18.62,18.62,0,0,1,0-3.95,7.34,7.34,0,0,1,1.31-3.89c.58-.63,2.93-2.82,3.64-1,.79,2,.35,6.72,2.93,7.6,1.22.41,2.39-.37,3.51-.8a9,9,0,0,1,4.46-.79c2.62.38,1.71,2.75.36,3.93-2.09,1.83-4.81,2.8-4,5.89.55,2,1.06,4.27.35,6.28-.66,1.85-3,.19-2.84-1.37a18.6,18.6,0,0,1,.4-2.35,11.7,11.7,0,0,0,.43-2.49c0-1-.91-5.37-2.82-4.05s-2.92,6.23-5.87,6C236.69,312.45,240.16,307,239.78,304.32Z"/>
                <g>
                  <path class="cls-11" d="M245.15,279.52c1.55-4,5-2.87,8.43-.25l4.92,11.53a30.82,30.82,0,0,0-3.63,2.5c-1.15.88-6,5.94-7.15,2.67-.87-2.47,5-5.42,6.42-6.85C258.72,284.45,243.83,282.94,245.15,279.52Z"/>
                  <path class="cls-11" d="M243.51,316.34c.38,1.38.4,3.36-1.39,3.67a4.91,4.91,0,0,1-3.33-.81c-.46-1-.87-1.95-1.23-2.84a7,7,0,0,1,1.55-3.64C241.06,310.7,243.1,314.81,243.51,316.34Z"/>
                  <path class="cls-11" d="M254,317.45c1.26-2.6-.58-5.55-1.42-7.95-.33-.91-1-2.55-.2-3.44a2.74,2.74,0,0,1,4.29.22,8.5,8.5,0,0,1,.82,1.45s0,.07,0,.12c-.23,3.11.54,6.93,3.73,8.43,2.31,1.08,6.21,1.69,7.63,4,1.12,1.86-1.81,5.43-3.8,4-1.33-.94-2.13-2.4-3.29-3.51-1.33-1.27-4.37-2.44-5.5-.31-.64,1.21-.18,2.77-.58,4.05-1.22,3.88-6.85,3.24-6.31-1.34C249.68,320.07,252.77,319.94,254,317.45Z"/>
                  <path class="cls-11" d="M272.28,330.88a2.35,2.35,0,0,1,2.65-1.61c1.13,2.66,2.24,5.25,3.31,7.76-1-.51-2-1-2.81-1.43C273.73,334.59,271.34,333.18,272.28,330.88Z"/>
                  <path class="cls-11" d="M254.63,338.1a10.12,10.12,0,0,1,3-7.53c1.35-1.19,3-1.86,4.73-.9,1.17.65,2.62,1.65,2,3.21-.84,2-2.79,3.31-4.41,4.63-.57.47-1.86,1.26-1.82,2.14.06,1.79,3.07,7.52,1,8.72-1.09.64-3-.09-4-.71a4.85,4.85,0,0,1-2.1-4.34,17.94,17.94,0,0,1,.88-5.14C254.17,338.46,254.66,338.57,254.63,338.1Z"/>
                  <path class="cls-11" d="M264.74,353.37c5.15-.77,2.72,6.51,1.56,8.66a44.94,44.94,0,0,1-2.94,4.65l-1.56-2.84C261.39,360.78,261.79,353.81,264.74,353.37Z"/>
                  <path class="cls-11" d="M281,368.19c-4.35,1.31-5.65-12.19-.42-10.11,2.43,1,3.92,4.93,3.75,8.16a23.78,23.78,0,0,1-2.85,2.15A.47.47,0,0,0,281,368.19Z"/>
                  <path class="cls-11" d="M279.7,351.4c-2.82-2-.45-5.69,2.29-5.58l2,4.61C282.91,351.87,281.45,352.65,279.7,351.4Z"/>
                  <path class="cls-11" d="M268.5,340.38c.13.33.54.59.73.26,2.49-4.18,6.89,1.55,6.51,4.62a10.78,10.78,0,0,1-3.29,5.84,2.18,2.18,0,0,0-.17,2.95c.9,1.36,1.39,2,1.42,3.7,0,1.94-2.6.45-2.94-.43a5.76,5.76,0,0,1-.37-2.39c.05-1,.18-1.91.23-2.87a6.17,6.17,0,0,0-.74-3.86,25,25,0,0,0-3.12-3.69C265.44,343.06,267,341.52,268.5,340.38Z"/>
                  <path class="cls-11" d="M248,331a11.76,11.76,0,0,1,.25,7.46c-1.79-3.46-3.53-6.87-5.11-10.08A3.82,3.82,0,0,1,248,331Z"/>
                  <path class="cls-11" d="M259.38,299.22a7.54,7.54,0,0,1,1.54-2.76l3.38,7.92-.88-.11C260.72,304,258.44,302.24,259.38,299.22Z"/>
                  <path class="cls-11" d="M238.56,284c1.24,1.37,3.37,4,1.42,5.71a21.58,21.58,0,0,1-2.45,1.67c-1.65,1.1-2.77,2.65-2,4.71s3,2.24,4.89,2.59c1.59.3,3.79.72,4,2.7.13,1.1.05,3.67-1.45,4-1.92.46-4.18-1.42-5.73-2.35-1.78-1.06-3.6-1.88-5-1.58-1.63-5.13-2.78-9.32-3.48-12.05C230.63,285.65,234.52,279.55,238.56,284Z"/>
                </g>
              </g>
              <path class="cls-10" d="M286,357.07a5.77,5.77,0,0,0-3.13.34c-.48.25-2.43,2.33-2.79,1.7-1-1.76-1.83-4,0-5.53.63-.56,1.29-1.07,1.93-1.62a10.34,10.34,0,0,0,1.83-2l3.18,7.43A4.26,4.26,0,0,0,286,357.07Z"/>
              <path class="cls-10" d="M278.21,344.57c-.4,1-1.68,4.77-3.76,2.56a4.45,4.45,0,0,1-.91-5.31c1-2.44,2.58-4.7,3.7-7.12l2.64,6.17C279.27,342.08,278.72,343.32,278.21,344.57Z"/>
              <path class="cls-10" d="M274.79,328.94a23.79,23.79,0,0,1-.83,4c-.6,1.59-3.3,3.48-5.07,2.79-3-1.15-.62-4.43.39-5.87,1.39-2,2.87-4.09,1.57-6.48s-3.2-2.46-5-.89c-1.36,1.16-5.08,3.73-5.62.27-.32-2-.23-3.37,1.57-4.33,1.63-.87,4.21-2.53,4.28-4.66.1-2.58-.71-5-.87-7.39Z"/>
              <path class="cls-10" d="M277.42,363c.63,2.19.86,4.47,1.43,6.68a1.17,1.17,0,0,0,0,.2,27,27,0,0,1-5.16,1.9,38.93,38.93,0,0,0-.21-5.06c-.14-1.66-.51-3.78.12-5.38C274.71,358.63,277,361.46,277.42,363Z"/>
              <path class="cls-10" d="M254.64,342.16c.78-2.23,2.1-4.47,4.83-4.14,5.07.63,2.73,5.29.1,7.39-.28.22-.07.64.18.8,2.14,1.33,4.89,1.82,7.13,3.06.71.4,3.84,2,2.72,3.13-2,2-3.87.58-5.65-.72-2.28-1.67-4.45,0-5,2.49-.24,1.11-.39,2.23-.61,3.34-1.61-3-3.35-6.21-5.13-9.56C253.9,345.93,254.16,343.55,254.64,342.16Z"/>
              <path class="cls-10" d="M242.6,317.6c1.23.85,1.16,2,1.18,3.28a5.65,5.65,0,0,0,.93,3.65c2,2.32,9.12,2.18,7.93,6.47-.73,2.64-3.92,3-6.15,4C243.06,328.32,240,322,238,317.29A4.67,4.67,0,0,1,242.6,317.6Z"/>
            </g>
            <g>
              <g>
                <path class="cls-2" d="M13.18,263.54a14.15,14.15,0,0,1,3.3.55q.64.14,1.29.24a4.29,4.29,0,0,1,1.14.09c1.43.31,2.88.54,4.3.89a12.08,12.08,0,0,1,3,1.22,4.45,4.45,0,0,1,.38.48,13.15,13.15,0,0,1,.51,1.76c.09.48.16,1,.2,1.43-.09,1.2-.2,2.4-.37,3.6a86,86,0,0,1-1.84,8.83c-.36,1.46-.85,3-1.2,4.47-.27.36-.55.71-.85,1A9.62,9.62,0,0,0,20.37,292,80.74,80.74,0,0,0,17,302c-1,3.32-.9,6.65-1.27,10.05-.29,2.7-1.58,6.05-3.7,7.87a3.18,3.18,0,0,1-3.84.33c-2.18-1.68-3.59-4.49-4.5-7.12a74.38,74.38,0,0,1-2.58-11,45.14,45.14,0,0,1-1-10c.21-5.16,2-9.72,3.72-14.53,1.39-3.92,2.91-7.76,4.55-11.56l.21-.38C9.62,263.8,11.23,263.55,13.18,263.54Z"/>
                <path class="cls-3" d="M7.35,294.6c2.25,3.92.67,8.82,1.86,13,.67,2.39,1.72,6.57,4.45,7.47a2.51,2.51,0,0,0,1.29.13,11.11,11.11,0,0,1-3,4.68,3.18,3.18,0,0,1-3.84.33c-2.18-1.68-3.59-4.49-4.5-7.12a74.38,74.38,0,0,1-2.58-11,45.14,45.14,0,0,1-1-10c0-.54.07-1.08.12-1.61C3,291,5.92,292.11,7.35,294.6Z"/>
                <path class="cls-4" d="M23.21,265.31a12.08,12.08,0,0,1,3,1.22,4.45,4.45,0,0,1,.38.48,13.15,13.15,0,0,1,.51,1.76c.09.48.16,1,.2,1.43-.09,1.2-.2,2.4-.37,3.6a86,86,0,0,1-1.84,8.83c-.37,1.46-.85,3-1.2,4.47h0c-2.33-2.11-5.51-4.89-6.11-7.61-1-4.63,1.77-10.05,4.24-14.45C22.4,265.14,22.81,265.21,23.21,265.31Z"/>
                <path class="cls-3" d="M13.18,263.54a14.15,14.15,0,0,1,3.3.55q.64.14,1.29.24a4.29,4.29,0,0,1,1.14.09l.78.15c-.06.2-.12.37-.17.49-.92,2.23-1.76,3.9-3.73,5.34-2.56,1.87-7.34,5-11.16,4.76C5.78,272.06,7,269,8.29,266l.21-.38C9.62,263.8,11.23,263.55,13.18,263.54Z"/>
                <path class="cls-5" d="M13.29,263.54A14.53,14.53,0,0,0,10.71,267a54.78,54.78,0,0,0-3.94,8.39C4.57,281.5,1.85,288.09,2,294.7c.12,7,2.36,13.9,5.28,20.14.78,1.66,1.79,4.25,3.66,5a3.07,3.07,0,0,0,.91.21,3.15,3.15,0,0,1-3.68.22c-2.18-1.68-3.59-4.49-4.5-7.12a74.38,74.38,0,0,1-2.58-11,45.14,45.14,0,0,1-1-10c.21-5.16,2-9.72,3.72-14.53,1.39-3.92,2.91-7.76,4.55-11.56l.21-.38c1.12-1.81,2.73-2.06,4.68-2.07Z"/>
                <path class="cls-6" d="M17.18,283.32c1.65-.22,3.52,1.21,4.57,2.38a4.3,4.3,0,0,1,.28.37c.62.68,1.4,1.62,1,2.37-.07.13-.28.23-.4.14l0,.05h0v0h0v-.07s0,0,0,0,0,0,0,0a.38.38,0,0,1,0-.15,1,1,0,0,0-.22-.45c-.12-.18-.26-.36-.39-.54a8,8,0,0,0-1.35-1.44,15.93,15.93,0,0,0-1.43-1,11.7,11.7,0,0,1,1.71,3.85c.12.44.58,1.88.18,2.22a.6.6,0,0,1-.37.15l-.08,0a4.35,4.35,0,0,1-.75.12,6.75,6.75,0,0,1-.72.12,6.19,6.19,0,0,1-1.36,0,18.94,18.94,0,0,1,1.53,3.5,2.26,2.26,0,0,1,.19.4c.12,0,.15.16.12.29a.21.21,0,0,1-.06.22.42.42,0,0,1-.08.21.62.62,0,0,1-.55.43,5.67,5.67,0,0,1-2,.89,16,16,0,0,1-2.27.55c.43.18.85.39,1.23.58a6.11,6.11,0,0,1,1.07.76c.72.44,1.16,1,.53,1.51a.33.33,0,0,1-.39,0c-.58-.34-1-.82-1.62-1.15-.85-.48-1.66-1-2.53-1.48a.31.31,0,0,1-.17-.39.73.73,0,0,1,.13-.91c1.27-.64,3-.55,4.3-1.17h.09c.26-.07.53-.14.8-.19a42.22,42.22,0,0,0-2.45-3.5l-.14-.21c-.62-.41-1.34-1.2-.39-1.68a2.83,2.83,0,0,1,1.63,0c.65.1,1.28.2,1.93.28H19l1,0c-.95-2.1-2.11-4-3.2-6h0a.57.57,0,0,1,.14-.63A.38.38,0,0,1,17.18,283.32Z"/>
                <path class="cls-6" d="M2.85,302.41a80.47,80.47,0,0,0,3.06,9.19,34.49,34.49,0,0,0,2.15,4.76c.9,1.51,1.56,3.12,3.45,3.58h0c-2.94-.54-4.14-4.32-5.18-6.72a69.12,69.12,0,0,1-3.51-10.8S2.84,302.39,2.85,302.41Z"/>
              </g>
              <g>
                <path class="cls-12" d="M110.78,264.63c7.24-13.44,24.61-44.78,38.42-67.08l2.21-3.54h56.77l3,.54-8.73,19.25c-8.58,9-49.72,55.68-78.74,73.11C123.46,286.82,106.48,289.37,110.78,264.63Z"/>
                <g class="cls-13">
                  <path class="cls-9" d="M128.45,256.15c1.12-.61,2.38-.35,3.57-.65a4.31,4.31,0,0,0,3.56-4.7c-.15-1.6-.67-3.07-.52-4.7.1-1,.61-4.81,2.75-1.57a5.45,5.45,0,0,1,.92,3.26c0,1.28-.23,2.59-.36,3.89-.48,1.86-1.41,4.25-.4,6,1.13,2,6.93,4.37,4.46,7.29-2,2.38-4.36-.88-5-2.68a4.39,4.39,0,0,0-1.5-2.46,2.23,2.23,0,0,0-2.49-.21,8.87,8.87,0,0,1-3.8,1.75C126.76,261.88,126.29,257.32,128.45,256.15Z"/>
                  <path class="cls-9" d="M128.92,243.15c1,2.59.49,5.17-2.65,5.13-2,0-4.1-.53-6.16-.66,1.59-2.86,3.28-5.89,5-9A11,11,0,0,1,128.92,243.15Z"/>
                  <path class="cls-9" d="M127,269.16c-.31-3,3.42-2.1,4.14,0,1,2.8.3,6.36,1.92,8.92a2.73,2.73,0,0,0,1.74,1.3q-2.64,2-5.2,3.75a20.47,20.47,0,0,0,.66-2.46,7.77,7.77,0,0,0-.59-5.33C128.61,273.48,127.21,271.33,127,269.16Z"/>
                  <path class="cls-9" d="M166.16,250.51a32.36,32.36,0,0,0-3.51-2.55c-.67-.44-2.93-1.61-2.82-2.64.38-3.68,7.16.73,8.56,1.31a7.11,7.11,0,0,0,2.37.58q-2,2-4,3.93A7.49,7.49,0,0,0,166.16,250.51Z"/>
                  <path class="cls-9" d="M149.2,267.54q-2.82,2.49-5.64,4.84c-.46-2.19-.7-4.45.39-5.9C145.8,264.05,147.74,265.43,149.2,267.54Z"/>
                  <path class="cls-9" d="M116.72,263.5c-.28,2.37-4.29,2.65-6.29,3.49.09-.76.21-1.54.35-2.36.86-1.6,1.88-3.47,3-5.53C115.54,260.27,116.92,261.71,116.72,263.5Z"/>
                </g>
                <g class="cls-14">
                  <path class="cls-9" d="M177.84,230.35a10.54,10.54,0,0,1-1.37-1.11c-.88-.9-1.61-3.83.57-3.53,3.12.44,4.28,6.91,7.22,7.66-2.18,2.28-4.48,4.68-6.88,7.14-.3-1.31.72-3.34,1.37-4.19a5.86,5.86,0,0,0,1-1.67,3.21,3.21,0,0,0-.07-2.38A5.35,5.35,0,0,0,177.84,230.35Z"/>
                  <path class="cls-9" d="M146.45,229.66c2.69.88,4.88,1.29,5.76-2.1.61-2.35-.71-4.81.08-7.18.85-2.56,4.17-5.26,5.66-1.2a12,12,0,0,1-.87,9.65.43.43,0,0,0-.27,0c-1.45.77-5.09,2.86-2.92,4.94,1.21,1.15,5.61,2.32,3.73,5s-3.85,2-4.9-.61c-.67-1.65-1.35-4-3.35-4.37-2.4-.48-3.55,2.43-4.45,4-2.85,4.9-8.2-1.69-5.53-5.52A6.28,6.28,0,0,1,146.45,229.66Z"/>
                  <path class="cls-9" d="M145.39,250.76a3.41,3.41,0,0,0-.11-1.74c-.87-1.77-3.42-1.63-4.6-3.13a3.12,3.12,0,0,1-.89-2.5c.68-2.23,3.53-1.07,4.56-.3a15.6,15.6,0,0,1,2.48,2.32.31.31,0,0,0-.16.44c.54,1.1,1.22,1.94,2.47,1.32,1.83-.91,2.6-4.85,5.5-2.93,3.28,2.18-3.14,3.48-4.29,3.93-.78.3-2.57,1-2.26,2.2a2,2,0,0,0,1.23,1.47c.34.16.73.15,1.08.29,3,1.22-.56,5.69-3.07,4.65C144.53,255.63,145.2,253.1,145.39,250.76Z"/>
                  <path class="cls-9" d="M153.06,257.87c-.57-1.21-2.31-4.23-1.17-5.47,1.67-1.83,2.78.83,3,2,.32,1.5.41,4.66,1.26,6.83l-2,1.86A9.55,9.55,0,0,0,153.06,257.87Z"/>
                  <path class="cls-9" d="M136.66,227.52c-1.29,2.77-3.63,1.24-5.83,1.09l2.75-4.79C135.52,224.73,137.59,225.51,136.66,227.52Z"/>
                  <path class="cls-9" d="M163.72,215.14q.56.18,1.11.39a8.76,8.76,0,0,0,1.8.57c3.39.47,4.44-3.5,6.87-5a2,2,0,0,1,1.09-.15q2.24,1.91.66,3.81a13.52,13.52,0,0,1-1.95,2.05,5.57,5.57,0,0,0-1.94,2.92,2.3,2.3,0,0,0,.14,1.44c.67,1.51-2.2,1.73-2.74.28a7,7,0,0,0-1.69-3.08c-1.31-1.18-3.07.46-4.45-.42Q161.36,214.26,163.72,215.14Z"/>
                  <path class="cls-9" d="M143.7,252.47a5.87,5.87,0,0,1,4.35,2.46,66.11,66.11,0,0,1,3.83,5.71,4.6,4.6,0,0,1-.23,2.59c-.46,1.07-2,2.8-3.16.1-.25-.54-.48-1.09-.74-1.63-1.25-2.65-4.16-2.91-5.8-5.06C140.48,254.71,140.81,252.39,143.7,252.47Z"/>
                  <path class="cls-9" d="M149.71,211.38c-.84,2-2.48,2.54-4.36,1.55-1.4-.74-2.67-1.61-4.1-2.24,1.09-1.82,2.16-3.63,3.23-5.4a6.63,6.63,0,0,1,2.6.94C148.53,207.26,150.56,209.35,149.71,211.38Z"/>
                  <path class="cls-9" d="M124.05,262.53c4.25,1.58-1.44,6.06-3.24,3a8,8,0,0,1-.75-3.46c-.12-1.31-.34-3.15-1.65-3.85a3.35,3.35,0,0,0-2.38-.4,3,3,0,0,1-1.56,0l1.7-3.09a6.06,6.06,0,0,0,3.41-.57c1.45-.61,2.78-1.75,4.36-2a4.56,4.56,0,0,1,2.26.14c1.29,1.09,1.47,1.86.54,2.3-.55.27-1.11.44-1.67.67-1.48.61-3.82,1.64-4.06,3.49S122.4,261.92,124.05,262.53Z"/>
                  <path class="cls-9" d="M135,279.18a12.38,12.38,0,0,0,.92-2.34,4.29,4.29,0,0,0-.84-3c-1.34-2-3.24-4.58-1.22-6.87,1.14-1.29,3.65-1.41,4,.67a9.39,9.39,0,0,1,.09,2.12c-.15,2.29-.8,4.74.49,6.8C137.32,277.44,136.17,278.32,135,279.18Z"/>
                  <path class="cls-9" d="M169.34,244c-1.57-2.13-3.8-1.12-6-.74-1.75.3-4.33.13-4.71-2.17a2.72,2.72,0,0,1,1.07-2.93c2.7-1.39,3.54,1.45,5.6,2.16,2.58.89,3.65-1.37,3.51-3.63-.15-2.51-1.88-4.82-1.69-7.37a2.59,2.59,0,0,1,5-.7,11.06,11.06,0,0,1,.61,4.67c-.2,3.22-3.35,7.18-2,10.41a3.59,3.59,0,0,0,1.65,1.92c-1.41,1.41-2.83,2.83-4.29,4.26C168.61,248,170.62,245.73,169.34,244Z"/>
                </g>
                <g class="cls-14">
                  <path class="cls-9" d="M170.64,234.43a3.14,3.14,0,0,1,2-4.48c1-.24,1.38.89,1.57,1.69.63,2.67.14,5.53,1.81,7.84a3.24,3.24,0,0,0,1.31,1.13l-4.1,4.17a6.4,6.4,0,0,0,.82-5.6C173.29,237.21,171.73,236.15,170.64,234.43Z"/>
                  <path class="cls-9" d="M183.77,225.63c1-2.63,3.54-.7,4,1.24a18.62,18.62,0,0,1,.35,2.44c-1.81,1.94-3.74,4-5.77,6.1-1.32-2.22-1.44-4.51,1.51-5.4.26-.08.24-.36.18-.56A6.11,6.11,0,0,1,183.77,225.63Z"/>
                  <path class="cls-9" d="M163.3,218.44c1.58-2.17,1-4.26-.81-6.07-1.7-1.64-3.46-3.19-2.46-5.82,1.13-3,4.53-3.32,5.71-.41-.22,0-.39.2-.25.53a10,10,0,0,0,7.72,6c2.61.5,11.33.23,10.73,4.47-1.55,10.92-12.92-5.69-15.88,3.19-.6,1.79-1.05,3.77-2.22,5.3-1.05,1.36-3.3,3.69-5.29,2.84-3.22-1.39-2.43-5-.45-6.93A25.66,25.66,0,0,0,163.3,218.44Z"/>
                  <path class="cls-9" d="M140.2,212.47l2.06-3.48c2.78.52,5.26-.79,7.93-1.44s5.82-.19,6.47,3.18a4.07,4.07,0,0,1-4.36,4.89c-1.19,0-4.35-1.08-4.87.69-.92,3.1,1.39,5.58,2.41,8.27a3,3,0,0,1-2,4.3,3,3,0,0,1-3.21-.42,7.67,7.67,0,0,1-2-4.71c-.35-3.4,2.22-7-.17-9.91A4.2,4.2,0,0,0,140.2,212.47Z"/>
                  <path class="cls-9" d="M136.08,227c1.79-.43,4.94.66,3,2.88a13,13,0,0,0-2.41,3.5c-.95,2.43.94,4.12,2.36,6,.95,1.22,2.31,2.67,2.56,4.24.43,2.78-4.85,4.55-4.87,2.18,0-1.85.83-4,.23-5.8s-1.48-3.45-3.55-2.86c-1.51.43-3.13,1.17-4.73.65a2.16,2.16,0,0,1-1.79-2.28c1.33-2.34,2.68-4.73,4.06-7.13C132.73,228.56,134.43,227.39,136.08,227Z"/>
                  <path class="cls-9" d="M158.22,251.61c1.79-4.07,4,.49,5.14,2.85q-1.67,1.6-3.34,3.2C158.78,255.58,157.51,253.23,158.22,251.61Z"/>
                </g>
                <path class="cls-12" d="M126.59,282l-2.65,4.72s.57.09-4.87.37-95.9-1.57-95.9-1.57-7.48-9.94.68-21.51c0,0,41.5-3.46,55.47-4.93s31.46,5.51,31.46,5.51S124.77,269.78,126.59,282Z"/>
                <g>
                  <path class="cls-15" d="M76.69,267.41c-.63-.57-3.06-2.22-1.24-3.11,1-.48,2,.62,2.46,1.31a9.47,9.47,0,0,1,1.62,3.29c-.2,1.87-2.23,2.51-2.49,4.35a1.38,1.38,0,0,0,.95,1.66c.77.23,3,.76,1.89,2.08a2,2,0,0,1-1.62.71c-1.4,0-3.61-.64-3.87-2.3C73.93,272.44,79.84,270.23,76.69,267.41Z"/>
                  <path class="cls-15" d="M50.07,265.66c.65,1.67-.84,4.75-2.57,2.35-1.14-1.59-1.21-4.1-2.15-5.78l.8-.07a3,3,0,0,0,1.36,1.55C48.35,264.22,49.68,264.68,50.07,265.66Z"/>
                  <path class="cls-15" d="M38.2,278.94c1.23,2,1.06,4.54,1.16,6.95l-4.49-.09a14.21,14.21,0,0,1-.17-2.42,6.66,6.66,0,0,1,.75-3.49C35.92,279.19,37.43,277.69,38.2,278.94Z"/>
                  <path class="cls-15" d="M26.06,282.7c.15-1.15,1-4.3,2.89-3.06,1.24.82,1.95,3.9,1.5,6.07l-4.38-.09A11,11,0,0,1,26.06,282.7Z"/>
                  <path class="cls-15" d="M36.77,271.11a11.26,11.26,0,0,1-3-3.28c-.62-.91-1.44-2.81-2.43-4.41l6-.51a6.45,6.45,0,0,0,.36,2.07,20.32,20.32,0,0,1,1.15,3.54C39,269.67,38.48,272.23,36.77,271.11Z"/>
                  <path class="cls-15" d="M47.08,279.72c1.07-3.83,4.87,4.28,5.46,5.3.21.37.43.75.68,1.13L47,286C47.09,283.93,46.52,281.75,47.08,279.72Z"/>
                  <path class="cls-15" d="M77,283.14c2.43-1.5,4.23,1.13,5.92,3.55l-8.32-.14C75.22,285.4,75.66,284,77,283.14Z"/>
                  <path class="cls-15" d="M86.73,280.32c.2-1.92,2.55-.32,3.14.51,1.46,2.08,2.48,4.26,4,6.05l-6.1-.1a31.2,31.2,0,0,0-.6-3.23A10.82,10.82,0,0,1,86.73,280.32Z"/>
                  <path class="cls-15" d="M88,264.71c.56-1.8,1.85-3.51,1.69-5.39.78.09,1.56.19,2.33.31a4.17,4.17,0,0,0-.73,2.45c0,1.14.37,2.31.3,3.44A1.88,1.88,0,1,1,88,264.71Z"/>
                  <path class="cls-15" d="M101.59,285.82A2.56,2.56,0,0,1,104.2,287L99.76,287A2.42,2.42,0,0,1,101.59,285.82Z"/>
                  <path class="cls-15" d="M26,272c2.13,3.36-1.4,4.32-3.82,5.5a3.59,3.59,0,0,0-1.71,1.61,17.87,17.87,0,0,1,.93-10.55A8.15,8.15,0,0,1,26,272Z"/>
                  <path class="cls-15" d="M57.52,268.75c2.07-.49,1.71-3.05,1.57-4.68a11.27,11.27,0,0,1-.06-1.16q2.76-3.8,4.23,1a9.71,9.71,0,0,1-.87,2.93l-.09.19,0,0c-.88,1.44-2.78,3-1.25,4.62,1.14,1.17,3.68,1,5.13,1.4.34.1,2,.46,1.69,1.12-.39.84-1.55,1.91-2.56,1.76-1.65-.26-2.71-1.9-3.86-2.95s-2.74-2-4.43-1c-1.21.7-2.29,1.94-3.63,2.4-2.49.86-5.92-2.81-3.84-5.07C51.81,266.78,54.85,269.39,57.52,268.75Z"/>
                  <path class="cls-15" d="M106.18,278.32a6.46,6.46,0,0,1,2.92-.37c1.2.15,3.05.83,4.28.43,1.41-.45,1.63-1.78,1.9-3.08a4.53,4.53,0,0,1,.74-2c1.42.15,2.2.78,2.35,1.9a7.64,7.64,0,0,1-.24,3.17.27.27,0,0,0-.31.07c-1,1-1.56,1.85-.81,3.17a4.08,4.08,0,0,1,.63,1.88l-2.14.22c-.15-.42-.27-.84-.41-1.26a3,3,0,0,0-.61-1.24,2.28,2.28,0,0,0-3,0c-2.12,1.57-4,2.86-6.7,1.73C101,281.41,104.64,278.82,106.18,278.32Z"/>
                  <path class="cls-15" d="M97.9,272c1.82-.23.69-3,.77-3.93a3.26,3.26,0,0,1,1.2-2.52c1.27.53,1.79,1.32,1.56,2.39-.06.51-.12,1-.17,1.5-.2-.12-.45-.13-.55.14-1.44,3.75,2.73,3,5,3.48.27.06,2.3.49,1.56,1.27a2.37,2.37,0,0,1-3,.39c-.9-.39-1.76-.9-2.68-1.24a5.18,5.18,0,0,0-4.68.61c-1.33.76-3.3,2.31-5,1.69s-.77-2.48,0-3.3C93.92,270.46,95.66,272.27,97.9,272Z"/>
                  <path class="cls-15" d="M110.49,266.54a11.63,11.63,0,0,0,3.46,3.28c1.7.92,6.61,2.65,5.56,5.3-.34.88-1.74,3.29-3.05,2.76-1-.39-1.45-1.64-1.82-2.52a40.58,40.58,0,0,0-2-5,3.75,3.75,0,0,0-3.53-1.59c-3.33.25-4.43-3.09-4.11-6.11,1.56.48,2.86.92,3.84,1.26A18,18,0,0,0,110.49,266.54Z"/>
                  <path class="cls-15" d="M104.18,280.44c-.84-.65-2.32-1.65-2.22-2.88.19-2.51,2.74-3.23,4.69-2.15a5.81,5.81,0,0,1,3.13,3.9,11,11,0,0,0,1.19,3.33c1.13,1.66,2.29,1.55,3.83.51.94-.63,1.83-1.34,2.78-1.95a3.87,3.87,0,0,1,1.35-.7c.49-.09-.22,1.83-.33,2-1.42,2-4.55,3-6.54,4.64l-4.17-.05a3,3,0,0,0,.25-2.7C107.39,282.59,105.65,281.57,104.18,280.44Z"/>
                  <path class="cls-15" d="M91.31,280.29c.37-1.44,1.82-1.4,3-1,2.36.7,2.65,2.35,2.11,4.48-.26,1-.66,2.08-.87,3.17l-3.31-.06C92,284.54,90.91,281.87,91.31,280.29Z"/>
                  <path class="cls-15" d="M79.1,267c1.65.58,3.29,2.16,5.1,2.13s3.32-2.54,4.62-3.65a4.85,4.85,0,0,1,.61-.49c1.09-.7,1.69,0,1.79,2.22a7.28,7.28,0,0,1-1.9,2.64c-1,.89-2.38,1.65-2.8,3,1.42.36,2.4,2.75,2.65,4.05.38,1.87-1.07,2.49-2.66,2.84-2.05.44-2.28-1.36-2.69-2.87a3.87,3.87,0,0,0-1-2.15c-1.09-.85-2.69-.12-3.85-.95a5.3,5.3,0,0,1-2.24-3.31C76.45,268.86,76.88,266.24,79.1,267Z"/>
                  <path class="cls-15" d="M59.72,282.6a9,9,0,0,0-1.4-2.57c-2-2.61-5.66-.27-8-2.4-1.21-1.11-3.34-4.4-1.27-5.76,2.26-1.49,3.83.34,5.32,1.89.93,1,3.77,3.67,4.94,1.44.47-.9.47-7.19,2.09-6.12,2.54,1.69.86,4.66,1.54,6.81,0,1.91.16,3.9,1.46,5.11a11.31,11.31,0,0,0,4.17,2.09,8,8,0,0,1,3,1.46,1.39,1.39,0,0,1,.08,1.95l-10.57-.2C59.89,285.23,60.17,283.94,59.72,282.6Z"/>
                  <path class="cls-15" d="M30.91,269.14a4,4,0,0,1,2.77-1c1.44.12,2.68.38,3.53-.14,0,.4.55.81.77.43a5.45,5.45,0,0,1,1.93-2.11,1.93,1.93,0,0,1,2.81,2.31,31.38,31.38,0,0,0-1.47,3.56c-.29,1.12.62,2.17,1.35,2.9,1.52,1.52,3.6,2.79,4.78,4.62.93,1.44-.61,3-2.23,2.75-1.27-.2-1.63-1.87-2.06-2.84-.61-1.38-1.5-2.74-3.17-2.89s-1.84,1.17-2.13,2.47a4.38,4.38,0,0,1-2.67,3.48c-2.46.84-4.21-2.5-2.64-4.38,1.34-1.6,3.22-2.46,4.05-4.46.11-.28-.16-.61-.4-.69a25.33,25.33,0,0,1-4.06-1.5C31.41,271.26,29.36,270.3,30.91,269.14Z"/>
                  <path class="cls-15" d="M29.13,266.27c-.13,2.48-2.24,4.37-4.69,3.39-.77-.31-1.8-1.08-2.84-1.63a22.78,22.78,0,0,1,2.25-4l4.82-.4A6.9,6.9,0,0,1,29.13,266.27Z"/>
                  <path class="cls-15" d="M50.4,263.14c-.29-.45-.58-.87-.88-1.28l6.83-.59c.42,1.52.5,3.11-.25,4.15C54.13,268.14,51.49,264.82,50.4,263.14Z"/>
                  <path class="cls-15" d="M76.63,286.59c0-.14,0-.28,0-.44,0-2.53-1.51-4.9-1.44-7.4,0-1.91,2-1.55,3.39-1.24,4,.9,2.48,3.8,2.47,6.72a8.83,8.83,0,0,0,.35,2.44Z"/>
                  <path class="cls-15" d="M71.88,267.6c-.39,1.78-.83,3.52-3.09,3.39-3.31-.19-3.61-7.09-4.46-9.44-.13-.34-.27-.65-.41-1,3.55-.32,6.89-.63,9.78-.91-.17.44-.31.9-.44,1.36C72.69,263.21,72.36,265.42,71.88,267.6Z"/>
                </g>
                <path class="cls-10" d="M96.71,268.74a2.41,2.41,0,0,0,0-2.05c-.5-1.33-2.29-1.67-2.42-3.29-.09-1.2.83-2.42,1.75-1.27s1.66,2.24,2.56,3.3c.69.79,2.32,2.62,3.42,2a2.55,2.55,0,0,0,.53-.18,4.73,4.73,0,0,1,1.43-.56c2.32-.3.62,2-.1,2.26s-1.65-.06-2.33.46a4.05,4.05,0,0,0-1.23,2.15,2,2,0,0,1-3.61.61C95.84,270.9,96.14,270.05,96.71,268.74Z"/>
                <path class="cls-10" d="M121.75,280.16c2.39-1.72,2.64,3.2,2.45,4.47a16.53,16.53,0,0,1-.46,2.19c-.36.05-1.28.13-3.6.25C119.73,284.58,120.35,281.17,121.75,280.16Z"/>
                <path class="cls-10" d="M47.91,266.78c1.55-1.09,3.56.38,4.62,1.9.58,2.11,0,3.66,2.85,4,2.37.26,1.45,3.26-.09,3.67-2,.54-2.94-1.72-3.95-3a18.81,18.81,0,0,0-2.54-2.66,18.15,18.15,0,0,1-1.43-1.12C46.78,268.89,47.27,267.22,47.91,266.78Z"/>
                <path class="cls-10" d="M22.15,281.28c-2.15-2.13-1.31-5.1-1.73-7.78a.41.41,0,0,0,.19-.11c1.58-1.75,3.53-4.94,6.37-3.76s3.8,4.22.88,5.62a10.38,10.38,0,0,0-1.54.91,2.48,2.48,0,0,0-.94,1.42,4.8,4.8,0,0,0,0,1.31Q26.13,281.58,22.15,281.28Z"/>
                <path class="cls-10" d="M45.32,274.43c-.61,2-2.55,3.51-2.5,5.67a2,2,0,0,0,.83,1.55,4.22,4.22,0,0,0,1.36.47l.93.16c.39,1.21.15,1.84-.73,1.9-1.26.17-3.85.17-3.8-1.92a17.23,17.23,0,0,1,.29-2.37,8.61,8.61,0,0,0,.08-2.82.52.52,0,0,0-.58-.44,10.94,10.94,0,0,1,.25-2,4.42,4.42,0,0,1,.68-1.81C43.09,271.67,45.9,272.52,45.32,274.43Z"/>
                <path class="cls-10" d="M65.94,274.34c.19-.56.38-1.12.6-1.67a7.22,7.22,0,0,1,1.44-2.4c1.12-1.54,2.43-1.29,4,.75l-.19.55a4.23,4.23,0,0,0,.65,4c1.16,1.35,3.23,1.19,4.67,2a8.59,8.59,0,0,1,1.72,1.18c.69.65,2,3.53,0,3.22a7.76,7.76,0,0,1-2.7-1.22c-1.24-.73-2.93-1.94-4.46-1.73s-2.29,1.37-3.13,2.47c-.63.83-1.59,2.29-2.83,2.21-2.36-.15-3-2.16-2.22-4s1.84-3.23,2.62-4.92A.44.44,0,0,0,65.94,274.34Z"/>
              </g>
            </g>
          </g>
          <g>
            <g>
              <path class="cls-16" d="M213.88,82.69l.05,6.21-11.1,4.58s0-2,.06-4.43c.05-3.07-3.31-3.63-13.59-7.9-21.32-8.86-24.15-14-27.77-23.36-10.94-28.5,11.73-48.87,43.33-47.94,27.59.82,15,35,13.59,45.84Z"/>
              <path class="cls-16" d="M198.8,106.64s4.8-34,10.36-33.37c0,0,21,10.61,23.16,15.86.1.25.61,0,.38,1.68-1.87.34-7.32-1.81-8.34.69s-6.13,19.85-7.46,24.73C209.73,113.47,197.92,109.33,198.8,106.64Z"/>
            </g>
            <g>
              <path class="cls-17" d="M204.11,9.85s9.5.9,10.4,1.08a33.94,33.94,0,0,1,9.61,3.52c6,3.34,11.27,8.55,13.73,15.09a33.91,33.91,0,0,1,2.18,9c.24,3-.56,6-.48,9,.07,2.77,1.92,5.11,4.1,7.07l.56.54c1.12,1.08,2.4,2,3.55,3s2.53,2.35,2,4c0,.18-.14.33-.2.49a8,8,0,0,1-2,1.58c-.76.44-2.62,1.2-2.51,2.28a4.64,4.64,0,0,0,.69,1.71,6.58,6.58,0,0,1,1.14,3c-.17,1.58-3.36,2.44-4.73,2.48-.1.08,3.46-.06,3.54,1.39.11,2.09-1.44,1.14-1.37,4.36,0,.26.78,2.57,1.12,4.71a7.66,7.66,0,0,1-2.06,5.57c-1.7,1.76-4.47,1.93-7.12,1.72-7.43-.62-14.81-4.74-20.23-9.72-3.59-3.3-5.68-7.51-7.41-11.92-.44-1.51-.88-3-1.37-4.55-1-3.17-2-6.34-3-9.52C207.12,40.63,206.23,25,204.11,9.85Z"/>
              <g>
                <path class="cls-18" d="M242.21,73.63a9.26,9.26,0,0,1,2.94.58,16.38,16.38,0,0,0-3.68-.65l-.58-.09a14,14,0,0,0,6-2.55,1.77,1.77,0,0,1,0,.23C246.77,72.73,243.58,73.59,242.21,73.63Z"/>
                <path class="cls-18" d="M249.74,60.66a2.24,2.24,0,0,1,0,1.45c0,.18-.14.33-.2.49a8,8,0,0,1-2,1.58c-.74.43-2.49,1.16-2.5,2.19A14.77,14.77,0,0,1,241.79,64C244.67,63.63,247.83,62.88,249.74,60.66Z"/>
              </g>
            </g>
            <path class="cls-19" d="M156.33,47.31a44.47,44.47,0,0,1,2.43-15.58,19.58,19.58,0,0,1,3.86-6,8.77,8.77,0,0,1,3.49-1.85c0-.16.09-.31.14-.44,3.43-8.76,12.91-12,21.29-14.27a54.6,54.6,0,0,1,21.92-1.45l.09.06a39.87,39.87,0,0,0,6.24,1.49c2.83.91,5.64,2,8.45,2.61a26.3,26.3,0,0,1,5.21,3,27.16,27.16,0,0,1,8.16,10.19c-.18-.12-.36-.25-.55-.36a8,8,0,0,1,.47.87,27.05,27.05,0,0,1,1.41,3.86c0,.25.09.5.11.74,0,0,0,0,0,0a13,13,0,0,1-.8,4.43l-.06-.07c-.83-1.52-.9-3.39-1.8-5-.28-.49-.58-.95-.9-1.4a8.38,8.38,0,0,1-.88,3.44,13.19,13.19,0,0,1-.91,1.07,9.57,9.57,0,0,0-1-2.36,17.32,17.32,0,0,0-4.05-5.88l-.08,0c0,.23.09.44.13.63A6.31,6.31,0,0,1,226,31.18l-.08,0a9.52,9.52,0,0,0-.65-3.27A9.77,9.77,0,0,0,224,24.58a18.54,18.54,0,0,1-2.26,8.28A17,17,0,0,1,219,36a.4.4,0,0,1,0-.26,13.21,13.21,0,0,0,.26-4.48l-.18.61a20.79,20.79,0,0,1-3.33,6.74c-.22.18-.42.37-.64.54a.3.3,0,0,0-.11.24,1.59,1.59,0,0,0-.13.13c-.23.18-.59-.07-.64-.31a3.18,3.18,0,0,1,0-.62,31.31,31.31,0,0,0,.38,7c.07.44-.48.5-.7.21a8.1,8.1,0,0,1-.64-.93,16.79,16.79,0,0,1,.68,7.51c-.07.45-.53.51-.86.27a4.12,4.12,0,0,1-1.15-1.94v0a13.57,13.57,0,0,1,.12,4.57.44.44,0,0,1-.8.14,34.58,34.58,0,0,1,1.21,4.39c.69,3.23,1.2,7.26-.22,10.38-.2.44-.87.32-1-.11-.72-1.82-1.48-3.63-2.26-5.44a36.17,36.17,0,0,0-3.14-5.54c.59,3.1,1.08,6.22,1.65,9.32.7,3.8,2.33,7.14,3.41,10.79.11.37-.27.48-.56.37a11.66,11.66,0,0,1,1.16,2.52A4,4,0,0,1,209,81.6c-.52-.5-1-1.07-1.43-1.48-.25-.22-.5-.47-.75-.73a15.42,15.42,0,0,1,1,4.45,10.1,10.1,0,0,1-1.1,2.49.5.5,0,0,1-.12-.19,34.21,34.21,0,0,0-1.24-3.28,15.87,15.87,0,0,1,.62,2.69c.08.59-.54.79-1,.47-.26-.21-.53-.4-.79-.6.9,1.22,2,2.43,2.37,3.8,0,0,0,0,0,0a9.65,9.65,0,0,0-1.55-.5,18.57,18.57,0,0,0-4.31-2.86c.6.54,1.21,1.08,1.85,1.55h0c-1.22-.27-2.43-.56-3.64-.87l-.69-.27a125.42,125.42,0,0,1-19.16-8.18c-5.56-2.93-11.42-6.13-15.63-10.9A30,30,0,0,1,156.33,47.31Z"/>
            <path class="cls-20" d="M219.49,11.05c-1.6-.57-3.14-1.25-4.67-2l1,.19c2.83.91,5.64,2,8.47,2.62.76.34,1.5.72,2.22,1.11C224.13,12.42,221.78,11.86,219.49,11.05Z"/>
            <path class="cls-20" d="M228.59,16.33a19.17,19.17,0,0,0,1.93-.55,27.61,27.61,0,0,1,2.89,2.84A19.24,19.24,0,0,0,228.59,16.33Z"/>
            <path class="cls-21" d="M156.33,47.31c0-.92,0-1.85.06-2.79a43.78,43.78,0,0,0,3,11.7c.13.33.86.64.81.06a14.13,14.13,0,0,1,.15-3.5,26.48,26.48,0,0,0,5.52,9.91c.27.31.78.21.67-.26a24.24,24.24,0,0,1-.38-9.9c.07.4.13.78.2,1.16a29.42,29.42,0,0,0,2.51,8c1.74,3.55,4.74,8.24,8.92,9a.33.33,0,0,0,.37-.45c-.35-1.09-.72-2.18-1.08-3.27a20,20,0,0,0,8.46,5.21c.37.1.43-.31.33-.55s-.26-.62-.4-.93c2.91,3.09,6.73,5.4,10.56,5.73.5,0,.44-.5.16-.75-2.16-1.89-4.31-3.5-5.81-6-.35-.58-.68-1.18-1-1.78A22.93,22.93,0,0,0,198,71.41c.51.1.42-.53.15-.75a27.46,27.46,0,0,1-7.26-9.27,11.47,11.47,0,0,0,2.25,1.68c.26.15.48,0,.5-.3a18,18,0,0,0-3.24-11.62,9.78,9.78,0,0,1,5.32,3.56c.19.25.74.27.69-.15a19.41,19.41,0,0,0-1.38-5,60.39,60.39,0,0,0,7.78,3.79c.54.22.6-.43.27-.71a17.85,17.85,0,0,1-4.31-5.72A27,27,0,0,0,205.56,51c.37.15.61-.19.43-.52a58.39,58.39,0,0,1-2.78-6,10.73,10.73,0,0,0,4.08,2.88c.22.08.53,0,.49-.3-.31-2.4-1.16-4.65-1.2-7.09v-.71a27.58,27.58,0,0,0,1.88,3.67c.18.3.77.47.76-.05-.05-3.93.22-7.84.55-11.75l.69,2c.09.25.57.64.77.25a16.15,16.15,0,0,0,1.69-5.7,10.86,10.86,0,0,1,.57,7.36c-.11.38.52.88.77.48,2.54-4,3.36-8.5,2-12.65a7.1,7.1,0,0,1,4.18,6.09c0,.29.59.81.79.37a9.34,9.34,0,0,0-.52-8.38,8.56,8.56,0,0,1,5.43,4.42c.16.32.8.45.76-.05a10.49,10.49,0,0,0-.74-3.25,34.91,34.91,0,0,1,6.69,3.3c.26.17.75.07.57-.35a15.64,15.64,0,0,0-3.24-5,18.78,18.78,0,0,1,5.17,1.39.54.54,0,0,0,.2,0,23.34,23.34,0,0,1,2,3.65c-.18-.12-.36-.25-.55-.36a8,8,0,0,1,.47.87,27.05,27.05,0,0,1,1.41,3.86c0,.25.09.5.11.74,0,0,0,0,0,0a13,13,0,0,1-.8,4.43l-.06-.07c-.83-1.52-.9-3.39-1.8-5-.28-.49-.58-.95-.9-1.4a8.38,8.38,0,0,1-.88,3.44,13.19,13.19,0,0,1-.91,1.07,9.57,9.57,0,0,0-1-2.36,17.32,17.32,0,0,0-4.05-5.88l-.08,0c0,.23.09.44.13.63A6.31,6.31,0,0,1,226,31.18l-.08,0a9.52,9.52,0,0,0-.65-3.27A9.77,9.77,0,0,0,224,24.58a18.54,18.54,0,0,1-2.26,8.28A17,17,0,0,1,219,36a.4.4,0,0,1,0-.26,13.21,13.21,0,0,0,.26-4.48l-.18.61a20.79,20.79,0,0,1-3.33,6.74c-.22.18-.42.37-.64.54a.3.3,0,0,0-.11.24,1.59,1.59,0,0,0-.13.13c-.23.18-.59-.07-.64-.31a3.18,3.18,0,0,1,0-.62,31.31,31.31,0,0,0,.38,7c.07.44-.48.5-.7.21a8.1,8.1,0,0,1-.64-.93,16.79,16.79,0,0,1,.68,7.51c-.07.45-.53.51-.86.27a4.12,4.12,0,0,1-1.15-1.94v0a13.57,13.57,0,0,1,.12,4.57.44.44,0,0,1-.8.14,34.58,34.58,0,0,1,1.21,4.39c.69,3.23,1.2,7.26-.22,10.38-.2.44-.87.32-1-.11-.72-1.82-1.48-3.63-2.26-5.44a36.17,36.17,0,0,0-3.14-5.54c.59,3.1,1.08,6.22,1.65,9.32.7,3.8,2.33,7.14,3.41,10.79.11.37-.27.48-.56.37a11.66,11.66,0,0,1,1.16,2.52A4,4,0,0,1,209,81.6c-.52-.5-1-1.07-1.43-1.48-.25-.22-.5-.47-.75-.73a15.42,15.42,0,0,1,1,4.45,10.1,10.1,0,0,1-1.1,2.49.5.5,0,0,1-.12-.19,34.21,34.21,0,0,0-1.24-3.28,15.87,15.87,0,0,1,.62,2.69c.08.59-.54.79-1,.47-.26-.21-.53-.4-.79-.6.9,1.22,2,2.43,2.37,3.8,0,0,0,0,0,0a9.65,9.65,0,0,0-1.55-.5,18.57,18.57,0,0,0-4.31-2.86c.6.54,1.21,1.08,1.85,1.55h0c-1.22-.27-2.43-.56-3.64-.87l-.69-.27a125.42,125.42,0,0,1-19.16-8.18c-5.56-2.93-11.42-6.13-15.63-10.9A30,30,0,0,1,156.33,47.31Z"/>
            <g>
              <path class="cls-17" d="M200.11,57a5.09,5.09,0,0,1,2.17-.92,6.18,6.18,0,0,1,4.38,1.06c3.2,2.15,5.21,7.59,5.84,11.54.3,1.93.72,4.59-.24,6.26-1.59,2.78-5.41-1.26-7.37-2.6-3.94-2.69-5.51-3.05-6.65-6.71C196.72,60.68,198.47,58.17,200.11,57Z"/>
              <path class="cls-16" d="M203.42,67.34a6.09,6.09,0,0,0,5.68,3.59c1-.08,1.76-.47,1.35-1.62A3.54,3.54,0,0,0,209.34,68c-.69-.49-.93-1.95-1-2.71-.27-2-.46-4.72-3.29-4.5-2.63.19-2.8,2.69-2.27,4.79A9.17,9.17,0,0,0,203.42,67.34Z"/>
            </g>
            <g>
              <path class="cls-22" d="M156.44,50c-1.68-7.73-2.51-17,2.67-27.39,13.75-27.58,72.32-35.49,81.32,8.08,0,0-75.86,37.71-76.41,37.12a36.06,36.06,0,0,1-2.79-3.79,33.92,33.92,0,0,0,6-2.83C163.13,49.94,159.59,49.72,156.44,50Z"/>
              <path class="cls-23" d="M156.44,50c-1.68-7.73-2.51-17,2.67-27.39,13.75-27.58,72.32-35.49,81.32,8.08,0,0-75.86,37.71-76.41,37.12a36.06,36.06,0,0,1-2.79-3.79,33.92,33.92,0,0,0,6-2.83C163.13,49.94,159.59,49.72,156.44,50Z"/>
              <g>
                <path class="cls-24" d="M210.27,29.21c-2.55-5-4.72-10.4-8-15C197.79,8,191.51,4.77,184.61,2.7c22-7.13,49.85-.89,55.82,28,0,0-10.54,5.23-23.78,11.77C214.73,38,212.5,33.6,210.27,29.21Z"/>
                <path class="cls-24" d="M159.11,22.64c4.24-8.49,12.73-15.11,22.71-18.94-1.21,2-2.8,3.8-4.17,5.78-1.73,2.48-3.47,5-5,7.63a28.58,28.58,0,0,0-4.48,16.49c.43,6.52,2.72,13,4.86,19.16,1.1,3.16,2.28,6.27,3.56,9.36C169.16,65.66,164.16,68,164,67.84a36.06,36.06,0,0,1-2.79-3.79,33.92,33.92,0,0,0,6-2.83c-4.11-11.28-7.65-11.5-10.8-11.19C154.76,42.3,153.93,33,159.11,22.64Z"/>
              </g>
              <g class="cls-13">
                <path class="cls-25" d="M185.26,41.14a76.34,76.34,0,0,0,25.67-2.32,89.42,89.42,0,0,0,16.41-5.88c4.24-2.07,7.67-5.22,11.6-7.74a45.78,45.78,0,0,1,1.49,5.52S164.57,68.43,164,67.84a36.06,36.06,0,0,1-2.79-3.79,33.92,33.92,0,0,0,6-2.83c-4.11-11.28-7.65-11.5-10.8-11.19a43.3,43.3,0,0,1-.61-17.84C164.57,37.66,175.34,40.34,185.26,41.14Z"/>
              </g>
              <path class="cls-26" d="M238.61,24.85s26.23,3.79,26.31,3.91,7.48,0,2.41,6.9c-11.07,15-51.18,7.08-51.18,7.08S237.42,32.11,238.61,24.85Z"/>
              <path class="cls-27" d="M238.55,24.1s26.22,3.79,26.3,3.91,7.49,0,2.41,6.9c-11.06,15-50.19,7.38-50.19,7.38S237.36,31.35,238.55,24.1Z"/>
            </g>
          </g>
          <g>
            <g>
              <path class="cls-16" d="M146.52,112.84c-5.83,2.39-12.62,14.37-14.16,16.5A222.51,222.51,0,0,0,120,148.79c-3.6,6.38-5.7,10.57-5.53,11.79l4,2.67c2.51,1.81.72,2.06,28.45-25.36l10.1-12C158.89,120,152.49,108.67,146.52,112.84Z"/>
              <g>
                <path class="cls-16" d="M147.43,129l54.82-12.47c3-1.42,5.55-4.13,5.58-10.38,0,0-1.26-9.91-12.92-8.27l-45.75,13.88C143.57,116.11,141.65,128.92,147.43,129Z"/>
                <path class="cls-28" d="M165,104.81l25.39-8.4c19.79-3.55,21.73,7.15,21.73,7.15s.47,8.94-7.45,13.71c-8.36,5-34,7.47-34,7.47C165.55,118.56,161.63,111.45,165,104.81Z"/>
              </g>
            </g>
            <path class="cls-29" d="M163.34,164.25a86.57,86.57,0,0,0,11.14-24.69,302,302,0,0,1,10.16-29.64,38.11,38.11,0,0,1,2.58-3.51A36.65,36.65,0,0,1,198,94.53c4.58-3,9.57-.72,15.92,4.46a33.09,33.09,0,0,1,7.67,9.94c.49.93,1,1.89,1.59,2.89,2.17,13.51,6.06,25.79,2.81,39.49a257.57,257.57,0,0,1-10.08,31.38c-1.42,3.75-5.36,24.23-10,26.12-12.94,5.34-27.95-.26-35.28-3.38-4.15-1.78-20-9.3-20.58-14.5C149.35,184.26,160.25,168.92,163.34,164.25Z"/>
            <g class="cls-13">
              <path class="cls-28" d="M163.34,164.25a86.57,86.57,0,0,0,11.14-24.69,302,302,0,0,1,10.16-29.64,38.11,38.11,0,0,1,2.58-3.51A36.65,36.65,0,0,1,198,94.53a7.68,7.68,0,0,1,5.52-1.26c.38,2.65,1,5.29,1.61,7.94a35.07,35.07,0,0,1,1.24,10.23A36.4,36.4,0,0,1,204,121c-2.4,6.55-5.63,12.73-8.67,19-2.83,5.82-5.2,11.86-7.82,17.78a89.17,89.17,0,0,1-5.24,10.71c-1.64,2.66-3.47,5.19-5.1,7.85a72.27,72.27,0,0,0-5.77,11.95,88.75,88.75,0,0,0-4.76,15.29c-6.23-3-16.13-8.56-16.58-12.65C149.35,184.26,160.25,168.92,163.34,164.25Z"/>
            </g>
            <path class="cls-30" d="M222.05,109.84s1.42-4.62,1.68-6.36S208.22,89.69,201,89a41.06,41.06,0,0,0-4.44,6.56S210.9,101.2,222.05,109.84Z"/>
            <path class="cls-16" d="M98.85,177.8a10.88,10.88,0,0,0,.17,1.81c.33,1.79,1,1.78,2.63,1.49h0a3.32,3.32,0,0,0,.17,1.38,2.8,2.8,0,0,0,1.78,1.77c.66.25,1.28-.26,1.92-.18a3.1,3.1,0,0,0,1,1.94c1.1.84,4.19.58,5.37.08,3.5-1.48,6.49-4.9,8.15-8.56.9-1.24,1.7-2.58,2.5-3.68,1.36-1.85,1.36-4.71,1.33-6.9,0-1.27.07-2.64-.06-3.95a5.94,5.94,0,0,0-2.73-5.7c-2.52-1.52-4.62-1.07-6.79,0a30.05,30.05,0,0,0-8.92,3.9,11.92,11.92,0,0,0-5.08,7,5.56,5.56,0,0,0-1.6.87C97.16,170.4,95.14,178.05,98.85,177.8Z"/>
            <g>
              <path class="cls-31" d="M103.69,169.64A15.41,15.41,0,0,0,99.12,177c0,.16,0,.32,0,.49a16.85,16.85,0,0,1,3.24-6.17c1.18-1.3,5.87-5.31,6-.53-.3.15-.56.3-.75.42-3.1,2-5.15,6.1-6.14,9.56a.63.63,0,0,0,.07.22,0,0,0,0,1,0,0h0c.88-2.25,2-5.35,3.69-7.1a12.18,12.18,0,0,1,3.14-2.78c1.88-.83,2.88,0,2.67,1.71a7.13,7.13,0,0,0-1.22,1.06,8,8,0,0,0-1.5,2.16,3.35,3.35,0,0,0-2.26,1.8c-1,2.22.67,2,2.52,2.3a15.2,15.2,0,0,1,3.34,1.21,6,6,0,0,1-1.1,3.1s0,0,0,0a4,4,0,0,0,1.25-3.06,3.57,3.57,0,0,0,4.08-.51,39.62,39.62,0,0,0,6.67-7.82h0a55.05,55.05,0,0,1-5.18,6.13c-1.93,1.91-3.26,2.85-6.14,1.75a12.42,12.42,0,0,0-2.47-1c-.56-.09-1.17-.15-1.75-.24a1.28,1.28,0,0,1-.76-.07,1,1,0,0,1-.53-1c-.12-.68.42-1.2,1.06-1.57a2.72,2.72,0,0,1,.66-.37l.31-.07.38-.12c1-.32,2.11-.38,3.15-.67a7.28,7.28,0,0,0,2.88-1.85c1.27-2.88.22-6.59,2.27-9.35,0,0,0,0,0,0-2.09,2.57-1.58,6-2.54,8.94a4,4,0,0,1-.23.34,1.4,1.4,0,0,0-.13-.41,2,2,0,0,0-1.7-1.06,1.82,1.82,0,0,0-1,.34c.24-.89.45-1.53-.27-2.16s-1.65-.25-2.44.13c.29-2.78-1.84-3.14-3.9-1.74a8.73,8.73,0,0,0-.77.59c0-.65.27-1.52-.51-1.76a4.25,4.25,0,0,0-2-.05,6.24,6.24,0,0,1-.65.5,7.35,7.35,0,0,1,2.27-.24C103.8,168.17,103.63,168.93,103.69,169.64ZM111.6,173a1.28,1.28,0,0,1,1.57.11,1.1,1.1,0,0,1,.6,1.07c-1.28,1.5-3.47,1.37-5.26,1.86a9.59,9.59,0,0,1,1.8-2.06A6.76,6.76,0,0,1,111.6,173Z"/>
              <path class="cls-31" d="M105.78,183a9.5,9.5,0,0,1,1.13-2.87c.06-.07.16.05.12.12a13.32,13.32,0,0,0-.85,2.23c-.3.82-.78,1.76-.32,2.65,0,0,0,0,0,0A2.72,2.72,0,0,1,105.78,183Z"/>
            </g>
            <g>
              <g>
                <g>
                  <path class="cls-17" d="M244.35,154c-5.39,1.85-6.36-5.42-6.1-8.84.62-8.36,11-12.2,17.24-16,18.57-10.16,24.13-14.24,27.56-16.46a3.86,3.86,0,0,1,3.35,1.25,4.84,4.84,0,0,1,1.1,4c-.55,1.66-2.24,3.69-6.29,7.69A225.36,225.36,0,0,1,264,140.84C261.9,142.46,250.62,153.27,244.35,154Z"/>
                  <path class="cls-17" d="M253.44,144.18s-31.12-29.44-38-35.45c0,0-14.07,8.61-11.53,12.67l36.32,31.81C246.29,157.69,253.66,147.19,253.44,144.18Z"/>
                </g>
                <path class="cls-32" d="M200.27,105s3.56-3.35,12-1.16c8.14,2.11,24.52,23.76,28,27.53-5.75,3.66-8.85,5.68-12.59,11.35a34.43,34.43,0,0,0-2.63,3.89l-25.07-22C192.08,111.1,200.27,105,200.27,105Z"/>
              </g>
              <g>
                <path class="cls-17" d="M273.68,120.29c-.3-1.46,1.32-3,2.2-4.21,1.3-3.48,3.08-6.86,4.38-10.32a26.11,26.11,0,0,1,7.28-10.67c3-2.59,5.93-2,9.55-1.34,2.33.44,7.32.53,6.8,4a12.34,12.34,0,0,1,2.39.66c1.66.66,3.09,2.71,1.94,4.43l-.05,0c1.71.59,2.76,1.78,2.14,4.54a1.1,1.1,0,0,1,.35.39A4,4,0,0,1,311,109c-.28,1.12-.48,2.3-.72,3.43-.1.26-.2.52-.31.78a.43.43,0,0,0-.14.13c-.78,1.39-1.89,2.77-3.61,3-1.12.12-2.76.29-3.41-1-.13-.25-.75-.54-.88-.14-.31.89-.67,1.77-1.05,2.66a12.19,12.19,0,0,1-2,1.94c-3.86,2.93-7.57,4.9-12.5,4.6-.81,0-1.62-.12-2.42-.23a6,6,0,0,0-3.89.8,3.51,3.51,0,0,1-3.32-.57A7.05,7.05,0,0,1,273.68,120.29Z"/>
                <path class="cls-31" d="M300.62,105.79c1.7-.29,3.31.36,5,.58s3.72.06,5,1.41c0,0,0,0,0,0-1.44-1.15-3.59-1-5.35-1.25-1.55-.22-3.1-.89-4.65-.75C300.61,105.81,300.6,105.79,300.62,105.79Z"/>
                <path class="cls-31" d="M299.06,101.14a7.87,7.87,0,0,1,2.2.58,28,28,0,0,0,3.3.53c1.53.19,3.6.31,4.84,1.34a0,0,0,1,1,0,0c-1.31-1-3.68-1.07-5.28-1.27-.94-.12-1.93-.26-2.86-.47-.73-.16-1.46-.59-2.19-.68C299,101.19,299,101.15,299.06,101.14Z"/>
                <path class="cls-31" d="M297,96.62c1.26,1.36,4.16,1.22,5.82,1.1a7.43,7.43,0,0,1,3.88,1s0,0,0,0c-2-.87-4-.66-6.12-.86-1.24-.12-2.74-.16-3.57-1.23Z"/>
                <path class="cls-31" d="M293.52,95a2.12,2.12,0,0,1-.66-.4s0,0,0,0c.34.31.86.32,1.19.66a2.55,2.55,0,0,1,.49,1.68c0,.08-.1.06-.12,0C294.21,96.19,294.36,95.49,293.52,95Z"/>
                <path class="cls-31" d="M296.42,101.17s0,0,0,0c.25.35.64.58.59,1.07,0,0-.09,0-.1,0A2.45,2.45,0,0,0,296.42,101.17Z"/>
                <path class="cls-31" d="M299.91,118.54c1.25-1,1.65-2.57,2.36-3.92a2.71,2.71,0,0,1,.06-.38c0-.08.11-.06.14,0a2.53,2.53,0,0,1,.79-1.16,3.86,3.86,0,0,1,1.54-.74,4.19,4.19,0,0,0,1.5-.48s0,0,0,0c-.29.36-1,.45-1.42.62A3.5,3.5,0,0,0,302.6,115c.71,2.18,5.21,1.47,6.12.09a17.36,17.36,0,0,0,1.59-3.09h0c-.85,2.21-1.39,4.09-4,4.53-1.26.21-3.79-.06-4-1.57-.18.39-.33.79-.48,1.14a4.54,4.54,0,0,1-1.84,2.54S299.86,118.58,299.91,118.54Z"/>
              </g>
            </g>
          </g>
        </g>
      </g>
    </g>
  </g>
</svg>
