<svg width="54" height="62" viewBox="0 0 54 62" fill="none" xmlns="http://www.w3.org/2000/svg">
<path d="M44.3193 61.3996C44.2592 61.2263 44.2191 61.0467 44.1998 60.8644C44.1883 60.794 44.1736 60.7236 44.1572 60.6549C44.1315 60.5977 44.1123 60.5379 44.0999 60.4765C44.0607 60.2408 44.0067 60.0051 43.9723 59.7694C43.9493 59.5939 43.9493 59.4162 43.9723 59.2408C43.9876 59.2109 44.0045 59.182 44.023 59.154C44.0975 59.0869 44.1763 59.0245 44.2587 58.9674C44.3258 58.9249 44.3946 58.8856 44.4633 58.8496C44.6515 58.7907 44.8397 58.7334 45.0329 58.6859C45.5096 58.5713 45.992 58.4817 46.4781 58.4175C46.7219 58.3831 46.9789 58.3651 47.2293 58.3258C47.3013 58.3438 47.3717 58.3651 47.4421 58.3897C47.6736 58.5048 47.93 58.561 48.1884 58.5533C48.766 58.5602 49.3434 58.5285 49.9168 58.4584C50.4798 58.3995 50.979 58.1867 51.5191 58.0329C51.9463 57.9101 52.5339 57.9019 52.9398 58.1114C53.0423 58.1608 53.1259 58.2424 53.1776 58.3438C53.2294 58.4452 53.2464 58.5608 53.2262 58.6728C53.1051 59.1082 52.7663 59.4912 52.4226 59.794C51.9454 60.1876 51.4393 60.5448 50.9086 60.8627C50.4527 61.173 49.9642 61.4326 49.452 61.6369C48.6549 61.9217 47.8529 61.9282 47.0198 61.9642C46.3373 61.9937 45.6614 61.9986 44.9854 61.9839C44.9625 61.9839 44.9379 61.9839 44.915 61.974C44.5779 61.9233 44.4404 61.6909 44.3193 61.3996Z" fill="black"/>
<path d="M49.3898 60.3815C49.8465 59.8005 50.6877 59.7383 51.254 59.2997C51.5814 59.0509 52.1444 58.6352 52.1133 58.1638C52.1116 58.0927 52.0913 58.0233 52.0544 57.9625C52.3608 57.94 52.6679 57.9964 52.9464 58.1262C53.049 58.1755 53.1325 58.2572 53.1842 58.3586C53.236 58.46 53.253 58.5755 53.2328 58.6875C53.1117 59.1229 52.7729 59.5059 52.4292 59.8087C51.952 60.2023 51.4459 60.5595 50.9152 60.8775C50.4593 61.1877 49.9709 61.4473 49.4586 61.6516C49.3735 61.6811 49.2949 61.7056 49.2065 61.7302C49.1149 61.2523 49.0969 60.7449 49.3898 60.3815Z" fill="black"/>
<path d="M43.9723 59.7694C43.9494 59.5939 43.9494 59.4162 43.9723 59.2408C43.9877 59.2109 44.0046 59.182 44.0231 59.154C44.0976 59.0869 44.1763 59.0246 44.2588 58.9674C44.3259 58.9249 44.3946 58.8856 44.4634 58.8496C44.6516 58.7907 44.8398 58.7334 45.0329 58.6859C45.5097 58.5713 45.992 58.4817 46.4781 58.4175C46.722 58.3848 46.979 58.3651 47.2294 58.3258C47.0736 58.7973 46.78 59.2113 46.3865 59.5141C45.7465 59.9544 44.8169 60.0706 43.9985 59.9642C43.9953 59.902 43.9822 59.8365 43.9723 59.7694Z" fill="black"/>
<path d="M44.3193 61.3996C44.2593 61.2263 44.2192 61.0467 44.1998 60.8644C44.1884 60.794 44.1737 60.7236 44.1573 60.6549C44.1316 60.5977 44.1124 60.5379 44.1 60.4765C44.1 60.4339 44.0853 60.3914 44.0771 60.3472H44.1622C44.5243 60.3194 44.8863 60.4028 45.1999 60.5861C45.6401 60.8578 46.4159 61.3898 46.6074 61.9855C46.0673 62.0002 45.5288 62.0052 44.992 61.9937C44.9691 61.9937 44.9445 61.9937 44.9216 61.9839C44.5779 61.9233 44.4404 61.6909 44.3193 61.3996Z" fill="black"/>
<path d="M44.3128 61.3832C44.5302 61.4765 44.7601 61.5372 44.9953 61.5632C45.4972 61.6333 46.0043 61.6601 46.5109 61.6434C47.5731 61.6025 48.74 61.6107 49.7352 61.1852C50.7843 60.74 51.6992 59.9724 52.4668 59.1458C52.6714 58.9282 53.002 58.6139 52.9971 58.2866C52.9966 58.2355 52.9889 58.1848 52.9742 58.136C53.0689 58.1879 53.1449 58.2683 53.1913 58.3659C53.2378 58.4634 53.2523 58.5731 53.2328 58.6794C53.1117 59.1147 52.7729 59.4977 52.4292 59.8005C51.952 60.1941 51.4459 60.5514 50.9152 60.8693C50.4593 61.1796 49.9708 61.4392 49.4586 61.6434C48.6615 61.9282 47.8595 61.9348 47.0264 61.9708C46.3439 62.0002 45.668 62.0052 44.992 61.9904C44.9691 61.9904 44.9445 61.9904 44.9216 61.9806C44.5779 61.9233 44.4404 61.6958 44.3193 61.3996C44.3181 61.3938 44.3159 61.3882 44.3128 61.3832V61.3832Z" fill="black"/>
<path d="M47.0755 59.5779C46.9397 59.3406 47.0412 58.9691 47.1557 58.7383C47.1664 58.7154 47.179 58.6935 47.1934 58.6728C47.2605 58.537 47.357 58.3619 47.4896 58.37C47.5125 58.37 47.542 58.3979 47.5354 58.4208C47.5289 58.4437 47.5354 58.4208 47.5453 58.4208C47.5551 58.4208 47.5453 58.4208 47.5453 58.4208H47.5354C47.5326 58.4235 47.5293 58.4256 47.5256 58.427C47.522 58.4284 47.5181 58.4291 47.5142 58.429C47.4905 58.4437 47.4712 58.4647 47.4585 58.4895C47.4389 58.5206 47.4192 58.5517 47.4012 58.5828C47.3442 58.674 47.2985 58.7718 47.2654 58.8741C47.2392 58.9642 47.213 59.0607 47.195 59.1573C47.3243 58.9663 47.4867 58.8 47.6746 58.6663C47.7335 58.6188 47.925 58.4617 48.0019 58.5026C48.022 58.5121 48.0382 58.5283 48.0477 58.5484L48.0575 58.5583C48.083 58.5911 48.1044 58.6268 48.1214 58.6646C48.1459 58.699 48.1672 58.735 48.1852 58.7661C48.2211 58.8315 48.2496 58.9007 48.2703 58.9723C48.4005 58.809 48.5469 58.6593 48.7073 58.5255C48.7216 58.5063 48.7375 58.4882 48.7548 58.4715C48.7548 58.4519 48.7712 58.4388 48.7924 58.4371C48.798 58.4335 48.8046 58.4315 48.8113 58.4315C48.8179 58.4315 48.8245 58.4335 48.8301 58.4371C48.8417 58.433 48.8544 58.433 48.8661 58.4371C48.8866 58.4355 48.9071 58.44 48.9249 58.4503C48.9427 58.4605 48.957 58.4759 48.9659 58.4944C49.0657 58.5581 49.1524 58.6403 49.2212 58.7367C49.3029 58.8348 49.3773 58.9387 49.4438 59.0476C49.4438 58.9707 49.4438 58.8954 49.4569 58.825C49.4659 58.7537 49.4824 58.6835 49.506 58.6155C49.5289 58.4797 49.5813 58.3799 49.7008 58.4437C49.7116 58.4484 49.7204 58.4566 49.7258 58.4671C49.7312 58.4775 49.7327 58.4895 49.7303 58.501C49.7139 58.609 49.6697 58.7056 49.655 58.8169C49.6353 58.9805 49.6026 59.1311 49.5879 59.2915C49.5871 59.3043 49.5817 59.3163 49.5726 59.3254C49.5636 59.3344 49.5515 59.3398 49.5388 59.3406C49.522 59.3625 49.4984 59.3781 49.4716 59.385C49.4449 59.3918 49.4167 59.3894 49.3915 59.3782C49.2163 59.2244 49.123 58.9511 48.9496 58.7972C48.9504 58.7934 48.9504 58.7895 48.9496 58.7858L48.871 58.6745C48.7351 58.8627 48.6091 59.0591 48.4913 59.2604L48.4684 59.2948C48.4454 59.4143 48.3685 59.5714 48.2376 59.4584C48.1805 59.3873 48.1463 59.3006 48.1394 59.2097C48.1148 59.1049 48.0903 59.0034 48.0625 58.9003L48.0477 58.8643C48.0281 58.8169 48.0068 58.7678 47.9855 58.7203C47.7253 58.992 47.5076 59.285 47.267 59.5747C47.2537 59.5884 47.2364 59.5975 47.2176 59.6008C47.1988 59.604 47.1794 59.6012 47.1623 59.5927C47.1559 59.5981 47.1484 59.6021 47.1403 59.6043C47.1322 59.6066 47.1237 59.607 47.1154 59.6056C47.1072 59.6042 47.0993 59.601 47.0924 59.5962C47.0855 59.5914 47.0797 59.5852 47.0755 59.5779V59.5779Z" fill="white"/>
<path d="M50.8514 60.5779C51.2738 60.26 51.6767 59.9167 52.0576 59.5501C52.269 59.3581 52.4665 59.1514 52.6485 58.9314C52.822 58.7006 53.0249 58.5026 52.9758 58.1884C53.074 58.6663 52.5732 59.0804 52.2737 59.3864C51.8333 59.8236 51.3576 60.2238 50.8514 60.5829C50.8514 60.5829 50.8481 60.5812 50.8514 60.5779Z" fill="white"/>
<path d="M24.9308 31.1189L34.0145 31.551C33.6773 32.8816 33.4384 33.3596 33.5791 33.6624C34.0423 34.6444 39.995 39.2272 40.977 44.1847C41.2864 44.499 39.3649 47.0997 37.3043 45.8002C34.8983 43.4351 25.3563 36.065 24.2663 32.0257C24.4938 31.7278 24.7098 31.425 24.9308 31.1189Z" fill="black"/>
<g style="mix-blend-mode:multiply" opacity="0.5">
<g style="mix-blend-mode:multiply" opacity="0.5">
<path d="M37.5842 38.1322C37.396 38.3718 37.1903 38.5972 36.9688 38.8065C36.6414 39.0634 36.2552 38.944 36.1504 38.5102C36.0195 37.9685 36.4778 37.2009 36.08 36.7295C35.9937 36.6175 35.8813 36.5281 35.7527 36.4693C35.5645 36.3825 35.283 36.3956 35.2977 36.155C35.3108 35.9635 35.3206 35.7704 35.3337 35.5789C36.0228 36.2794 36.8346 37.1272 37.6251 38.0781C37.6104 38.0953 37.5967 38.1133 37.5842 38.1322V38.1322Z" fill="black"/>
</g>
<g style="mix-blend-mode:multiply" opacity="0.5">
<path d="M30.1552 38.1567C30.4825 37.885 31.1094 37.232 31.3614 37.9734C31.4776 38.3106 31.0341 38.4251 30.7984 38.507C30.4498 38.6281 30.0095 38.7803 29.8262 39.0995C29.608 38.8954 29.3947 38.6903 29.1863 38.4841C29.538 38.4942 29.8817 38.3781 30.1552 38.1567V38.1567Z" fill="black"/>
</g>
<g style="mix-blend-mode:multiply" opacity="0.5">
<path d="M31.9375 40.2222C32.1389 39.9685 32.3369 39.6445 32.6151 39.4661C32.9621 39.2451 33.2944 39.6052 33.3451 39.9571C33.4368 40.5921 32.8917 41.1028 32.5971 41.6331C32.2452 41.3221 31.8868 41.0013 31.5267 40.6756C31.6756 40.5357 31.813 40.3841 31.9375 40.2222V40.2222Z" fill="black"/>
</g>
<g style="mix-blend-mode:multiply" opacity="0.5">
<path d="M31.4973 33.3628C31.8672 33.7965 32.9081 34.682 32.5022 35.3269C32.3173 35.6231 31.9114 35.9275 31.5398 35.8833C31.1994 35.8441 30.9555 35.5887 30.7837 35.3105C30.4465 34.7704 30.2927 34.1648 30.0733 33.5707C29.7869 32.8243 29.4187 32.0649 28.8425 31.4904C28.7722 31.42 28.6985 31.3529 28.6232 31.2875L30.6838 31.3857C30.754 32.1105 31.037 32.7984 31.4973 33.3628V33.3628Z" fill="black"/>
</g>
<g style="mix-blend-mode:multiply" opacity="0.5">
<path d="M33.5137 38.4071C33.5513 38.3826 33.589 38.3613 33.6283 38.34C33.643 38.394 33.7003 38.4431 33.7379 38.4022C33.8136 38.325 33.8976 38.2564 33.9883 38.1976C34.1144 38.1584 34.242 38.1256 34.3681 38.0863H34.3779C34.7052 38.1092 35.1144 38.4775 34.8689 38.8343C34.7412 39.0193 34.607 39.1355 34.6594 39.3711C34.6921 39.5234 34.8754 39.6527 34.9867 39.7509C35.1192 39.8539 35.2304 39.9818 35.3141 40.1273C35.4516 40.4546 34.7249 40.2599 34.6594 40.1535C34.5334 39.9653 34.4352 39.8589 34.4237 39.6199C34.4289 39.5433 34.416 39.4665 34.3861 39.3957C34.2551 39.1764 33.9736 39.2615 33.7919 39.1142C33.71 39.0603 33.6173 39.0251 33.5202 39.0111C33.1962 38.9292 33.3042 38.543 33.5137 38.4071Z" fill="black"/>
</g>
<g style="mix-blend-mode:multiply" opacity="0.5">
<path d="M38.9901 41.4285C38.8657 41.1011 39.0294 40.6952 39.216 40.4186C39.2373 40.3875 39.2635 40.3483 39.2946 40.3073C39.6477 40.8532 39.9642 41.4218 40.2422 42.0095C39.7545 41.9129 39.1865 41.9539 38.9901 41.4285Z" fill="black"/>
</g>
<g style="mix-blend-mode:multiply" opacity="0.5">
<path d="M28.6003 36.1419C28.8786 35.9226 29.2337 35.628 29.6151 35.6853C29.9064 35.7278 30.1535 35.8882 29.8786 36.1403C29.7587 36.2504 29.6319 36.3526 29.4989 36.4464C29.0259 36.7884 28.5856 37.1321 28.4023 37.7033C28.0995 37.3973 27.8049 37.0912 27.5217 36.7868C27.926 36.7639 28.2992 36.3793 28.6003 36.1419Z" fill="black"/>
</g>
<g style="mix-blend-mode:multiply" opacity="0.5">
<path d="M34.4008 35.2532C34.3206 35.7819 34.5465 37.0961 33.8672 37.3073C33.0603 37.561 32.5169 36.4054 32.9212 35.7917C33.1962 35.376 33.5759 35.0486 33.9032 34.6705C33.9802 34.5805 34.0669 34.4774 34.1487 34.3645C34.2715 34.4938 34.4106 34.6378 34.5645 34.7933C34.4775 34.9331 34.4217 35.0899 34.4008 35.2532V35.2532Z" fill="black"/>
</g>
<g style="mix-blend-mode:multiply" opacity="0.5">
<path d="M35.3599 41.0684C35.6345 41.167 35.9265 41.2077 36.2175 41.1879C36.7347 41.1535 36.5792 40.6314 36.7969 40.2992C36.9262 40.0995 37.2306 39.7509 37.5203 39.8605C37.81 39.9702 37.8739 40.3614 37.7757 40.6183C37.6775 40.8753 37.5236 41.1093 37.4287 41.381C37.3644 41.5364 37.3495 41.7079 37.3861 41.872V41.8868C37.4072 41.997 37.4511 42.1016 37.5151 42.1938C37.5791 42.286 37.6617 42.3637 37.7577 42.422C38.0686 42.6118 38.5187 42.7984 38.3616 43.2649C38.2503 43.602 37.887 43.7281 37.5547 43.6986C37.1439 43.661 36.8657 43.494 36.7593 43.075C36.6889 42.805 36.648 42.4956 36.4647 42.273C36.3812 42.1716 36.1373 42.0439 36.0047 42.1094C35.8722 42.1748 35.7494 42.3238 35.5841 42.3041C35.4394 42.291 35.2961 42.2664 35.1553 42.2305C34.8656 42.1552 34.2878 41.9915 34.3173 41.5954C34.3664 40.944 34.8672 40.9047 35.3599 41.0684Z" fill="black"/>
</g>
</g>
<g style="mix-blend-mode:multiply" opacity="0.5">
<g style="mix-blend-mode:multiply" opacity="0.5">
<path d="M39.3011 40.7967C38.4385 40.8606 37.2765 41.363 36.463 40.8949C36.1357 40.71 35.5694 40.1895 36.0702 39.8802C36.3337 39.728 36.6335 39.6505 36.9377 39.656C37.3551 39.656 37.7675 39.7231 38.1849 39.728C38.4098 39.7412 38.6353 39.7146 38.851 39.6494C39.1129 40.0209 39.3617 40.4039 39.5941 40.7951C39.4965 40.7891 39.3986 40.7897 39.3011 40.7967Z" fill="black"/>
</g>
<g style="mix-blend-mode:multiply" opacity="0.5">
<path d="M34.5154 43.314C33.769 42.6593 32.9474 41.9506 32.1029 41.1863C32.4449 41.1535 32.8165 40.8475 33.0849 40.579C33.3533 40.3106 33.6414 39.9407 34.0342 39.7771C34.5072 39.5823 35.188 39.579 35.1619 40.2681C35.1357 40.9571 34.6021 41.1224 34.2289 41.5774C34.1287 41.6772 34.0588 41.8034 34.0272 41.9412C33.9957 42.0791 34.0038 42.223 34.0505 42.3565C34.1226 42.5791 34.3484 42.9457 34.5154 43.314Z" fill="black"/>
</g>
<g style="mix-blend-mode:multiply" opacity="0.5">
<path d="M32.6413 39.417C32.6823 39.7443 32.4891 40.0569 32.2747 40.2828C32.0865 40.4825 31.8917 40.6478 31.8377 40.9228C31.8377 40.9228 31.8377 40.9391 31.8377 40.9506C31.6075 40.7444 31.3762 40.5354 31.1438 40.3237C31.5529 40.0275 31.3745 39.1895 31.3533 38.7459C31.346 38.3274 31.4849 37.9193 31.7461 37.5921C31.9719 37.2729 32.5268 36.5839 32.99 36.9161C33.062 36.9669 33.44 37.286 33.3173 37.4219C33.2482 37.4851 33.1684 37.5355 33.0816 37.5708C32.9397 37.6328 32.8142 37.7269 32.715 37.8458C32.4498 38.2009 32.4286 38.3908 32.4875 38.8278C32.5039 39.0307 32.6168 39.2173 32.6413 39.417Z" fill="black"/>
</g>
<g style="mix-blend-mode:multiply" opacity="0.5">
<path d="M36.5956 37.0961C36.3141 37.5724 36.1963 38.4202 35.6987 38.723C35.6294 38.7666 35.5497 38.7906 35.4679 38.7926C35.3861 38.7946 35.3052 38.7746 35.2339 38.7345C34.8149 38.5152 34.6381 38.1649 34.9671 37.7868C35.2388 37.4726 35.6627 37.2565 35.8378 36.8703C35.9274 36.674 35.978 36.4622 35.9868 36.2467C36.2094 36.4807 36.4401 36.7246 36.6742 36.9799C36.6446 37.0163 36.6184 37.0552 36.5956 37.0961V37.0961Z" fill="black"/>
</g>
<g style="mix-blend-mode:multiply" opacity="0.5">
<path d="M34.4532 36.137C34.3893 36.4775 34.26 36.903 33.8296 36.6428C33.5023 36.4464 33.5726 36.0863 33.697 35.7835C33.8607 35.3711 34.1504 34.9963 34.3779 34.6034L34.738 34.9701C34.5628 35.3105 34.5301 35.7704 34.4532 36.137Z" fill="black"/>
</g>
<g style="mix-blend-mode:multiply" opacity="0.5">
<path d="M36.3305 43.8246C36.4369 43.4662 36.5285 42.9686 36.8297 42.7133C36.9852 42.5824 37.6857 42.4154 37.594 42.8132C37.4778 43.3042 36.6431 44.0963 36.2421 44.8247L36.0113 44.6201C36.1507 44.3694 36.258 44.1021 36.3305 43.8246Z" fill="black"/>
</g>
<g style="mix-blend-mode:multiply" opacity="0.5">
<path d="M39.4091 43.0652C39.0981 42.9981 38.6988 42.913 38.7168 42.5202C38.7397 42.0292 39.2078 42.1077 39.5548 42.1928C39.8365 42.2776 40.1228 42.3459 40.4124 42.3974C40.5281 42.6724 40.6323 42.9501 40.725 43.2305C40.2144 43.152 39.6939 43.1258 39.4091 43.0652Z" fill="black"/>
</g>
<g style="mix-blend-mode:multiply" opacity="0.5">
<path d="M29.4432 36.7213C30.345 36.7524 30.7624 37.8932 30.3156 38.5872C30.1822 38.7841 30.0362 38.9721 29.8786 39.1502C29.3418 38.6396 28.8131 38.1224 28.309 37.6068C28.5332 37.1142 28.9195 36.7033 29.4432 36.7213Z" fill="black"/>
</g>
</g>
<path d="M40.5417 43.2829C40.9418 43.6739 41.2591 44.1415 41.4747 44.6577C41.856 45.5448 47.2195 58.1147 47.2195 58.1147C47.2195 58.1147 46.3242 59.9151 43.6482 60.0116C43.6482 60.0116 39.6579 52.8658 38.7381 50.4451C38.1617 48.9297 37.6854 47.378 37.3125 45.8001C37.3125 45.8001 38.1652 43.0849 40.5417 43.2829Z" fill="black"/>
<g style="mix-blend-mode:multiply" opacity="0.3">
<path d="M39.0425 44.4089C38.9934 44.4597 38.941 44.517 38.887 44.5726C38.982 44.2207 39.6366 43.9523 39.9329 43.9458C40.2799 43.9458 40.6612 44.2584 40.3944 44.6168C40.3278 44.6873 40.2899 44.7801 40.2881 44.877C40.3159 45.1831 40.5368 45.3239 40.7987 45.4221C41.0982 45.5317 41.365 45.6725 41.2112 46.0555C41.1359 46.2404 41.0377 46.283 40.9018 46.1193C40.6678 45.8394 40.2193 44.9523 39.7234 45.1897C39.4091 45.3402 39.3862 45.7396 39.1031 45.8951C38.8199 46.0506 38.4877 45.7314 38.5761 45.4319C38.6159 45.2911 38.6754 45.1567 38.7528 45.0325C38.8645 44.8561 38.994 44.6916 39.1391 44.5415C39.198 44.481 39.0998 44.35 39.0425 44.4089Z" fill="black"/>
</g>
<g style="mix-blend-mode:multiply" opacity="0.3">
<path d="M39.2405 48.8133C39.2373 48.7922 39.2263 48.7731 39.2096 48.7598C39.1929 48.7464 39.1718 48.7398 39.1505 48.7413C39.1276 48.5264 39.1276 48.3097 39.1505 48.0948C39.16 47.8665 39.2344 47.6456 39.3649 47.4581C39.4599 47.355 39.8445 46.9966 39.9607 47.2945C40.09 47.6218 40.018 48.3943 40.4403 48.5384C40.6399 48.6055 40.8314 48.4778 41.0147 48.4074C41.2431 48.3028 41.4943 48.2583 41.7447 48.2781C42.1735 48.3403 42.0246 48.7282 41.8036 48.9213C41.4616 49.2209 41.0164 49.3796 41.1489 49.8854C41.239 50.2127 41.3224 50.5842 41.2062 50.9132C41.0982 51.216 40.7152 50.9443 40.7414 50.689C40.755 50.5595 40.7768 50.431 40.8069 50.3044C40.845 50.1714 40.8686 50.0348 40.8773 49.8968C40.8773 49.7331 40.7283 49.0179 40.4157 49.234C40.1031 49.45 39.9378 50.2536 39.455 50.216C38.7348 50.144 39.3027 49.252 39.2405 48.8133Z" fill="black"/>
</g>
<g style="mix-blend-mode:multiply" opacity="0.5">
<path d="M40.1194 44.7543C40.3731 44.0996 40.9378 44.2846 41.4991 44.7134L42.3044 46.6005C42.0969 46.7225 41.8983 46.8593 41.7103 47.0097C41.5221 47.1537 40.7283 47.9819 40.54 47.4467C40.3976 47.0424 41.3584 46.5596 41.5908 46.3255C42.3404 45.5612 39.9034 45.314 40.1194 44.7543Z" fill="black"/>
</g>
<g style="mix-blend-mode:multiply" opacity="0.5">
<path d="M39.851 50.7806C39.9132 51.0065 39.9165 51.3306 39.6235 51.3813C39.4318 51.404 39.2383 51.357 39.0785 51.2487C39.0032 51.0851 38.9361 50.9296 38.8772 50.7839C38.9027 50.5651 38.9908 50.3582 39.1309 50.1882C39.45 49.8575 39.7839 50.5302 39.851 50.7806Z" fill="black"/>
</g>
<g style="mix-blend-mode:multiply" opacity="0.5">
<path d="M41.5679 50.9623C41.7741 50.5368 41.473 50.054 41.3355 49.6611C41.2815 49.5122 41.1718 49.2438 41.3028 49.0981C41.3474 49.0473 41.403 49.0073 41.4653 48.981C41.5276 48.9547 41.595 48.9429 41.6625 48.9463C41.7301 48.9498 41.7959 48.9685 41.8552 49.001C41.9145 49.0335 41.9657 49.079 42.0049 49.1341C42.0573 49.2086 42.1023 49.2881 42.1391 49.3714C42.1391 49.3714 42.1391 49.3829 42.1391 49.3911C42.1015 49.9001 42.2275 50.5253 42.7496 50.7708C43.1277 50.9476 43.766 51.0474 43.9984 51.4255C44.1817 51.7299 43.7022 52.3142 43.3765 52.0802C43.1588 51.9263 43.0278 51.6874 42.838 51.5057C42.6203 51.2978 42.1227 51.1064 41.9378 51.455C41.8331 51.653 41.9083 51.9083 41.8429 52.1178C41.6432 52.7529 40.7217 52.6481 40.8101 51.8985C40.8608 51.3911 41.3666 51.3699 41.5679 50.9623Z" fill="black"/>
</g>
<g style="mix-blend-mode:multiply" opacity="0.5">
<path d="M44.5598 53.1604C44.5878 53.0713 44.6472 52.9955 44.727 52.947C44.8069 52.8985 44.9016 52.8807 44.9935 52.8969C45.1785 53.3323 45.3602 53.7562 45.5353 54.167C45.3716 54.0835 45.2079 54.0033 45.0754 53.9329C44.7971 53.7676 44.406 53.5368 44.5598 53.1604Z" fill="black"/>
</g>
<g style="mix-blend-mode:multiply" opacity="0.5">
<path d="M41.671 54.3421C41.6635 54.1139 41.7032 53.8867 41.7877 53.6746C41.8722 53.4625 41.9997 53.2702 42.162 53.1097C42.383 52.9149 42.653 52.8053 42.9362 52.9624C43.1277 53.0688 43.365 53.2324 43.2635 53.4878C43.126 53.8151 42.8069 54.0295 42.5417 54.2456C42.4485 54.3225 42.2373 54.4518 42.2439 54.5958C42.2537 54.8888 42.7463 55.8266 42.4075 56.023C42.2291 56.1278 41.9165 56.0083 41.7529 55.9068C41.6386 55.8287 41.5468 55.722 41.4865 55.5974C41.4262 55.4728 41.3995 55.3346 41.4091 55.1965C41.4159 54.9105 41.4644 54.6271 41.5532 54.3552C41.5957 54.401 41.6759 54.419 41.671 54.3421Z" fill="black"/>
</g>
<g style="mix-blend-mode:multiply" opacity="0.5">
<path d="M43.3257 56.8414C44.1686 56.7153 43.7709 57.9068 43.581 58.2587C43.4363 58.522 43.2756 58.7762 43.0998 59.0198L42.8445 58.555C42.7774 58.0542 42.8429 56.9134 43.3257 56.8414Z" fill="black"/>
</g>
<g style="mix-blend-mode:multiply" opacity="0.5">
<path d="M45.987 59.267C45.275 59.4814 45.0623 57.2718 45.9183 57.6122C46.316 57.7759 46.5598 58.4191 46.532 58.9478C46.3856 59.0766 46.2296 59.1942 46.0656 59.2997C46.0571 59.2871 46.0452 59.2773 46.0312 59.2715C46.0172 59.2656 46.0019 59.2641 45.987 59.267Z" fill="black"/>
</g>
<g style="mix-blend-mode:multiply" opacity="0.5">
<path d="M45.7742 56.5189C45.3127 56.1916 45.7006 55.5876 46.149 55.6056L46.4764 56.3602C46.2996 56.5959 46.0607 56.7235 45.7742 56.5189Z" fill="black"/>
</g>
<g style="mix-blend-mode:multiply" opacity="0.5">
<path d="M43.9411 54.7153C43.9624 54.7693 44.0295 54.8118 44.0606 54.7578C44.4681 54.0737 45.1883 55.0115 45.1261 55.514C45.0527 55.8817 44.8641 56.2165 44.5876 56.4698C44.5232 56.5321 44.4846 56.6164 44.4794 56.7058C44.4743 56.7953 44.503 56.8834 44.5598 56.9527C44.7071 57.1752 44.7873 57.28 44.7922 57.5582C44.7922 57.8758 44.3667 57.6319 44.311 57.4879C44.2634 57.3632 44.2427 57.2299 44.2505 57.0967C44.2586 56.933 44.2799 56.7841 44.2881 56.6269C44.3177 56.4088 44.2752 56.1869 44.167 55.9952C44.0167 55.7779 43.8457 55.5756 43.6563 55.3912C43.4403 55.1539 43.6956 54.9019 43.9411 54.7153Z" fill="black"/>
</g>
<g style="mix-blend-mode:multiply" opacity="0.5">
<path d="M40.5859 53.1801C40.7317 53.5718 40.7461 54.0004 40.6268 54.401C40.3338 53.8347 40.049 53.2766 39.7904 52.7512C39.8708 52.7252 39.9556 52.7157 40.0397 52.7234C40.1238 52.731 40.2054 52.7556 40.2798 52.7957C40.3541 52.8358 40.4196 52.8905 40.4722 52.9566C40.5248 53.0226 40.5635 53.0986 40.5859 53.1801V53.1801Z" fill="black"/>
</g>
<g style="mix-blend-mode:multiply" opacity="0.5">
<path d="M42.4484 47.9786C42.4996 47.8119 42.5855 47.6579 42.7005 47.5269L43.2537 48.8231L43.1097 48.8051C42.6678 48.7609 42.2946 48.4729 42.4484 47.9786Z" fill="black"/>
</g>
<g style="mix-blend-mode:multiply" opacity="0.5">
<path d="M39.0408 45.4875C39.2438 45.7118 39.5924 46.1422 39.2732 46.4221C39.146 46.5223 39.012 46.6136 38.8722 46.6954C38.6022 46.8755 38.4189 47.1292 38.5449 47.4663C38.6709 47.8035 39.0359 47.8329 39.3453 47.8902C39.6055 47.9393 39.9656 48.0081 39.9999 48.3321C40.0212 48.5122 40.0081 48.9328 39.7626 48.9868C39.4484 49.0621 39.0785 48.7544 38.8248 48.6022C38.5335 48.4287 38.2356 48.2945 38.0064 48.3436C37.7397 47.504 37.5514 46.8182 37.4369 46.3714C37.7429 45.7576 38.3796 44.7592 39.0408 45.4875Z" fill="black"/>
</g>
<g style="mix-blend-mode:multiply" opacity="0.3">
<path d="M46.8054 57.4469C46.6328 57.4176 46.4554 57.4369 46.2931 57.5026C46.2145 57.5435 45.8954 57.8839 45.8365 57.7808C45.6728 57.4928 45.5369 57.1261 45.8365 56.8757C45.9396 56.7841 46.0476 56.7006 46.1524 56.6106C46.2661 56.5151 46.3668 56.405 46.4519 56.2832L46.9723 57.4993C46.9191 57.4749 46.863 57.4573 46.8054 57.4469Z" fill="black"/>
</g>
<g style="mix-blend-mode:multiply" opacity="0.3">
<path d="M45.5304 55.401C45.465 55.5647 45.2555 56.1818 44.915 55.82C44.7986 55.7114 44.721 55.5676 44.6941 55.4106C44.6672 55.2536 44.6925 55.0922 44.7661 54.951C44.9298 54.5516 45.1884 54.1817 45.3717 53.7856L45.8038 54.7955C45.7039 54.9935 45.6139 55.1965 45.5304 55.401Z" fill="black"/>
</g>
<g style="mix-blend-mode:multiply" opacity="0.3">
<path d="M44.9707 52.8429C44.9442 53.0646 44.8988 53.2836 44.8348 53.4976C44.7366 53.7578 44.2947 54.0671 44.005 53.9542C43.514 53.766 43.9035 53.2291 44.0688 52.9935C44.2963 52.6661 44.5386 52.324 44.3258 51.9329C44.113 51.5417 43.8021 51.5302 43.5074 51.7872C43.2849 51.9771 42.676 52.3977 42.5876 51.8314C42.5352 51.5041 42.55 51.2798 42.8446 51.1227C43.1114 50.9803 43.5336 50.7086 43.5451 50.36C43.5615 49.9377 43.4289 49.5416 43.4027 49.1505L44.9707 52.8429Z" fill="black"/>
</g>
<g style="mix-blend-mode:multiply" opacity="0.3">
<path d="M45.4011 58.4175C45.5042 58.7759 45.5419 59.1491 45.6352 59.5108C45.6342 59.5217 45.6342 59.5327 45.6352 59.5435C45.365 59.6757 45.082 59.7799 44.7906 59.8545C44.7972 59.578 44.7857 59.3014 44.7563 59.0263C44.7333 58.7547 44.6728 58.4077 44.7759 58.1458C44.9576 57.7023 45.3324 58.1654 45.4011 58.4175Z" fill="black"/>
</g>
<g style="mix-blend-mode:multiply" opacity="0.3">
<path d="M41.6727 55.0066C41.8004 54.6416 42.0164 54.275 42.4632 54.329C43.293 54.4321 42.9101 55.1948 42.4796 55.5385C42.4338 55.5745 42.4681 55.6433 42.5091 55.6695C42.8593 55.8871 43.3094 55.9673 43.676 56.1703C43.7922 56.2358 44.3045 56.4976 44.1212 56.6826C43.7939 57.0099 43.4878 56.7775 43.1965 56.5647C42.8233 56.2914 42.4681 56.5647 42.3781 56.9723C42.3388 57.154 42.3143 57.3373 42.2783 57.5189C42.0148 57.0279 41.73 56.5026 41.4387 55.9543C41.5516 55.6236 41.5941 55.2341 41.6727 55.0066Z" fill="black"/>
</g>
<g style="mix-blend-mode:multiply" opacity="0.3">
<path d="M39.7021 50.9869C39.9034 51.126 39.892 51.3142 39.8952 51.5237C39.8761 51.7344 39.9299 51.9452 40.0474 52.1211C40.3748 52.5008 41.5401 52.4779 41.3454 53.18C41.2259 53.6121 40.7038 53.671 40.3388 53.8347C39.7774 52.7414 39.2766 51.707 38.9492 50.9361C39.0684 50.8787 39.2004 50.8532 39.3324 50.8621C39.4643 50.871 39.5917 50.914 39.7021 50.9869V50.9869Z" fill="black"/>
</g>
<path d="M2.15279 42.1388C2.33575 42.1474 2.51705 42.1776 2.6929 42.2289C2.76273 42.2441 2.83311 42.2572 2.90403 42.2681C2.96661 42.2647 3.02936 42.2697 3.09062 42.2829C3.32467 42.3336 3.56199 42.3712 3.7944 42.4285C3.96629 42.4728 4.13144 42.5399 4.28541 42.6282C4.30792 42.6529 4.3287 42.6792 4.34761 42.7068C4.38209 42.8007 4.40999 42.897 4.43108 42.9948C4.44581 43.0734 4.45726 43.1585 4.46381 43.2289C4.44908 43.4253 4.43108 43.6217 4.40325 43.8181C4.32822 44.3048 4.2277 44.7872 4.1021 45.2633C4.04318 45.5023 3.96298 45.7543 3.9057 45.9949C3.8615 46.0538 3.81568 46.1111 3.76658 46.1586C3.57009 46.3317 3.41989 46.5511 3.32958 46.7969C3.11023 47.3299 2.92598 47.8766 2.77801 48.4336C2.61434 48.977 2.6307 49.522 2.57015 50.0785C2.52268 50.5204 2.31155 51.0687 1.96456 51.3666C1.88016 51.4431 1.77297 51.4899 1.65943 51.4996C1.5459 51.5094 1.4323 51.4816 1.33607 51.4206C0.979269 51.1456 0.748494 50.6857 0.599554 50.2553C0.413354 49.6667 0.272191 49.0648 0.177284 48.4549C0.0619758 47.9171 0.00707887 47.3681 0.0136135 46.8182C0.0479843 45.9736 0.340954 45.2273 0.622467 44.44C0.849969 43.7985 1.09875 43.17 1.36717 42.548L1.40154 42.4858C1.57012 42.1814 1.83363 42.1405 2.15279 42.1388Z" fill="black"/>
<path d="M1.19859 47.2224C1.56685 47.864 1.30825 48.666 1.50302 49.3502C1.61267 49.7413 1.78453 50.4255 2.23135 50.5728C2.29865 50.5982 2.37146 50.6056 2.44248 50.5941C2.34637 50.8869 2.17741 51.1504 1.95147 51.36C1.86707 51.4366 1.75988 51.4833 1.64634 51.4931C1.5328 51.5029 1.4192 51.4751 1.32298 51.414C0.966177 51.1391 0.735402 50.6792 0.586461 50.2487C0.400262 49.6602 0.259099 49.0583 0.164192 48.4483C0.0488838 47.9106 -0.00601317 47.3616 0.000521486 46.8116C0.000521486 46.7232 0.0119784 46.6349 0.0201619 46.5481C0.486623 46.6332 0.96454 46.8149 1.19859 47.2224Z" fill="black"/>
<path d="M3.79441 42.4285C3.9663 42.4728 4.13145 42.5399 4.28542 42.6282C4.30793 42.6529 4.32871 42.6792 4.34761 42.7068C4.3821 42.8007 4.40999 42.897 4.43109 42.9948C4.44582 43.0734 4.45727 43.1585 4.46382 43.2289C4.44909 43.4253 4.43109 43.6217 4.40326 43.8181C4.32823 44.3048 4.2277 44.7872 4.10211 45.2633C4.04155 45.5023 3.96299 45.7543 3.9057 45.9949C3.52435 45.6496 3.00388 45.1946 2.90568 44.7494C2.74201 43.9916 3.19538 43.1045 3.59964 42.3843C3.66184 42.4007 3.72894 42.4122 3.79441 42.4285Z" fill="black"/>
<path d="M2.15278 42.1388C2.33575 42.1474 2.51705 42.1776 2.6929 42.2289C2.76273 42.2441 2.83311 42.2572 2.90403 42.2681C2.96661 42.2647 3.02936 42.2697 3.09062 42.2829L3.21828 42.3074C3.20846 42.3402 3.19864 42.368 3.19045 42.3876C3.03988 42.7526 2.90239 43.0259 2.57996 43.2616C2.16097 43.5677 1.37862 44.08 0.753403 44.0407C0.941624 43.5333 1.1413 43.0325 1.35244 42.5415L1.38681 42.4793C1.57012 42.1814 1.83363 42.1405 2.15278 42.1388Z" fill="black"/>
<path d="M2.1708 42.1388C2.00263 42.3055 1.86031 42.4964 1.74853 42.7051C1.49517 43.1438 1.27944 43.6032 1.10367 44.0783C0.743591 45.0784 0.298408 46.1569 0.322959 47.2388C0.342599 48.3845 0.709221 49.5138 1.18714 50.5351C1.3148 50.8068 1.48011 51.2307 1.78617 51.3535C1.83378 51.3725 1.884 51.3841 1.93511 51.3879C1.85122 51.4564 1.74789 51.4967 1.63978 51.5032C1.53166 51.5096 1.42426 51.4819 1.3328 51.4239C0.976003 51.1489 0.745228 50.689 0.596288 50.2585C0.410089 49.67 0.268925 49.0681 0.174019 48.4582C0.0587104 47.9204 0.00381349 47.3714 0.0103481 46.8214C0.0447189 45.9769 0.337689 45.2306 0.619202 44.4433C0.846704 43.8017 1.09548 43.1732 1.3639 42.5513L1.39827 42.4891C1.58158 42.1928 1.84509 42.1519 2.16425 42.1503L2.1708 42.1388Z" fill="black"/>
<path d="M2.80746 45.3762C3.07752 45.3402 3.38358 45.5743 3.55543 45.7658C3.57179 45.7851 3.58709 45.8053 3.60126 45.8263C3.70274 45.9376 3.8304 46.0915 3.76493 46.2142C3.75348 46.2355 3.7191 46.2519 3.69946 46.2371V46.2453V46.2339C3.69783 46.2258 3.69783 46.2174 3.69946 46.2093C3.6939 46.1821 3.68151 46.1568 3.66346 46.1357C3.64382 46.1062 3.6209 46.0767 3.59963 46.0473C3.53598 45.9599 3.46177 45.8807 3.37867 45.8116C3.3037 45.7528 3.22557 45.6982 3.14462 45.6479C3.27527 45.8393 3.3701 46.0528 3.4245 46.2781C3.44414 46.3501 3.51943 46.5858 3.45396 46.6414C3.43717 46.6563 3.4158 46.6649 3.3934 46.666H3.38031C3.34004 46.6761 3.29897 46.6826 3.25755 46.6856C3.21866 46.6943 3.17932 46.7008 3.13971 46.7052C3.06574 46.7134 2.99109 46.7134 2.91712 46.7052C3.01968 46.8873 3.10358 47.0792 3.16753 47.2781C3.18002 47.2988 3.19043 47.3208 3.19863 47.3436C3.21827 47.3436 3.22318 47.3697 3.21827 47.391C3.22028 47.3973 3.22042 47.4041 3.21868 47.4105C3.21693 47.4169 3.21338 47.4226 3.20845 47.427C3.20729 47.4395 3.20276 47.4513 3.19536 47.4614C3.18916 47.4808 3.17725 47.4979 3.1612 47.5105C3.14514 47.523 3.12568 47.5304 3.10534 47.5318C3.00672 47.6011 2.89554 47.6506 2.778 47.6774C2.65651 47.7165 2.53234 47.7465 2.40647 47.7675C2.47685 47.7969 2.54559 47.8313 2.60778 47.8624C2.67045 47.8974 2.72917 47.9391 2.78291 47.9868C2.90075 48.0588 2.97277 48.1504 2.86965 48.2339C2.8604 48.2407 2.84922 48.2444 2.83774 48.2444C2.82626 48.2444 2.81508 48.2407 2.80582 48.2339C2.71089 48.1783 2.64215 48.0997 2.54068 48.0457C2.40156 47.9671 2.26898 47.882 2.12659 47.8035C2.11469 47.7984 2.10517 47.7889 2.1 47.7771C2.09483 47.7652 2.09439 47.7518 2.09877 47.7396C2.08471 47.7161 2.07915 47.6885 2.08302 47.6614C2.08689 47.6343 2.09996 47.6093 2.12004 47.5907C2.32791 47.4859 2.61106 47.5007 2.82383 47.3992H2.83856C2.88111 47.3877 2.9253 47.3763 2.96949 47.3681C2.84558 47.1705 2.71175 46.9793 2.5685 46.7953L2.54559 46.7609C2.44411 46.6938 2.32627 46.5645 2.48176 46.4859C2.56876 46.4598 2.66154 46.4598 2.74854 46.4859C2.85492 46.5023 2.95804 46.5187 3.06442 46.5317H3.10534H3.26901C3.11352 46.188 2.92367 45.8771 2.74527 45.5497C2.73822 45.5322 2.73663 45.513 2.74072 45.4946C2.74481 45.4762 2.75439 45.4595 2.76818 45.4466C2.76531 45.4321 2.76768 45.4171 2.77488 45.4042C2.78207 45.3913 2.79362 45.3814 2.80746 45.3762V45.3762Z" fill="white"/>
<path d="M0.462079 48.5007C0.598669 49.0117 0.765915 49.514 0.96291 50.0048C1.06035 50.2731 1.17798 50.5335 1.3148 50.7839C1.4621 51.0311 1.57013 51.2946 1.87946 51.3699C1.39827 51.2815 1.20187 50.6628 1.03165 50.27C0.791997 49.6975 0.599854 49.1063 0.457169 48.5024C0.457169 48.5024 0.460442 48.4974 0.462079 48.5007Z" fill="white"/>
<path d="M18.1271 42.3172C19.312 40.1175 22.155 34.9881 24.4153 31.3382L24.777 30.7588H34.0685L34.5596 30.8472L33.1307 33.9979C31.7264 35.4709 24.993 43.111 20.2433 45.9638C20.2024 45.9491 17.4233 46.3664 18.1271 42.3172Z" fill="black"/>
<g style="mix-blend-mode:multiply" opacity="0.3">
<g style="mix-blend-mode:multiply" opacity="0.3">
<path d="M21.0191 40.9293C21.2024 40.8295 21.4087 40.872 21.6034 40.8229C21.7801 40.7927 21.9387 40.6964 22.0469 40.5535C22.1551 40.4106 22.2049 40.2319 22.1861 40.0537C22.1615 39.7918 22.0764 39.5512 22.101 39.2844C22.1173 39.1208 22.2008 38.4972 22.5511 39.0275C22.6567 39.1848 22.7094 39.3717 22.7017 39.561C22.7017 39.7705 22.664 39.9849 22.6427 40.1977C22.5642 40.5021 22.412 40.8933 22.5773 41.1797C22.7622 41.5071 23.7115 41.895 23.3072 42.3729C22.9799 42.7624 22.5936 42.2289 22.4889 41.9342C22.4547 41.7762 22.3682 41.6344 22.2434 41.5316C22.1866 41.4858 22.1175 41.4581 22.0449 41.452C21.9722 41.4459 21.8994 41.4616 21.8358 41.4972C21.6543 41.6409 21.4411 41.7391 21.2139 41.7837C20.7425 41.8671 20.6656 41.1208 21.0191 40.9293Z" fill="black"/>
</g>
<g style="mix-blend-mode:multiply" opacity="0.3">
<path d="M21.096 38.8016C21.2597 39.2255 21.1762 39.6478 20.6623 39.6412C20.335 39.6412 19.9913 39.5545 19.6541 39.5332C19.9143 39.0651 20.191 38.5692 20.4725 38.0602C20.7442 38.2457 20.9598 38.5021 21.096 38.8016V38.8016Z" fill="black"/>
</g>
<g style="mix-blend-mode:multiply" opacity="0.3">
<path d="M20.7818 43.0587C20.7311 42.5676 21.3415 42.7149 21.4594 43.0587C21.6231 43.5169 21.5085 44.0996 21.7736 44.5186C21.804 44.5717 21.845 44.6179 21.894 44.6545C21.9429 44.6911 21.9989 44.7173 22.0584 44.7314C21.7704 44.9496 21.4867 45.1542 21.2073 45.3451C21.2517 45.2133 21.2877 45.0788 21.3154 44.9425C21.3877 44.6495 21.3535 44.3402 21.2188 44.0701C21.0453 43.7657 20.8162 43.4138 20.7818 43.0587Z" fill="black"/>
</g>
<g style="mix-blend-mode:multiply" opacity="0.3">
<path d="M27.1911 40.0062C27.0092 39.8544 26.8173 39.715 26.6166 39.5888C26.507 39.5168 26.1371 39.3253 26.1551 39.1568C26.2173 38.5544 27.327 39.2762 27.5561 39.3712C27.679 39.4249 27.8102 39.457 27.944 39.4661C27.7258 39.6843 27.5076 39.8987 27.2893 40.1093C27.2586 40.0731 27.2258 40.0386 27.1911 40.0062Z" fill="black"/>
</g>
<g style="mix-blend-mode:multiply" opacity="0.3">
<path d="M24.4153 42.7935C24.1076 43.0652 23.7999 43.3293 23.4922 43.5857C23.4169 43.2272 23.3776 42.8573 23.556 42.62C23.8588 42.2223 24.1763 42.4482 24.4153 42.7935Z" fill="black"/>
</g>
<g style="mix-blend-mode:multiply" opacity="0.3">
<path d="M19.0993 42.1323C19.0534 42.5202 18.3971 42.566 18.0698 42.7035C18.0845 42.5791 18.1041 42.4514 18.1271 42.3172C18.2678 42.0553 18.4348 41.7493 18.6181 41.4121C18.9061 41.6036 19.132 41.8393 19.0993 42.1323Z" fill="black"/>
</g>
</g>
<g style="mix-blend-mode:multiply" opacity="0.4">
<g style="mix-blend-mode:multiply" opacity="0.4">
<path d="M29.1028 36.7066C29.0231 36.6524 28.9481 36.5917 28.8786 36.525C28.7345 36.3777 28.6151 35.8981 28.9719 35.9472C29.4825 36.0192 29.6724 37.0782 30.1536 37.2009C29.7968 37.5741 29.4203 37.9669 29.0275 38.3695C28.9784 38.1551 29.1454 37.8229 29.2517 37.6837C29.3211 37.6024 29.3765 37.51 29.4154 37.4104C29.4617 37.2839 29.4576 37.1445 29.4039 37.0209C29.3316 36.8925 29.228 36.7844 29.1028 36.7066V36.7066Z" fill="black"/>
</g>
<g style="mix-blend-mode:multiply" opacity="0.4">
<path d="M23.9652 36.5937C24.4054 36.7377 24.7639 36.8048 24.9079 36.25C25.0078 35.8654 24.7917 35.4627 24.921 35.0748C25.0601 34.6558 25.6035 34.2139 25.8474 34.8784C25.9347 35.1371 25.9672 35.4112 25.9427 35.6832C25.9182 35.9551 25.8372 36.2189 25.705 36.4579C25.6906 36.4531 25.6751 36.4531 25.6608 36.4579C25.4235 36.5839 24.8277 36.9259 25.1829 37.2664C25.3809 37.4546 26.1011 37.6461 25.7934 38.0847C25.4857 38.5234 25.1632 38.4121 24.9914 37.9849C24.8817 37.7148 24.7704 37.3302 24.4431 37.2697C24.0503 37.1911 23.8621 37.6674 23.7148 37.9243C23.2483 38.7263 22.3727 37.6477 22.8097 37.0209C22.9303 36.8344 23.108 36.692 23.3163 36.615C23.5246 36.538 23.7523 36.5305 23.9652 36.5937V36.5937Z" fill="black"/>
</g>
<g style="mix-blend-mode:multiply" opacity="0.4">
<path d="M23.7917 40.0471C23.8105 39.9523 23.8043 39.8541 23.7737 39.7624C23.6313 39.4727 23.2139 39.4956 23.0208 39.2501C22.9679 39.1968 22.9275 39.1325 22.9023 39.0617C22.8771 38.991 22.8678 38.9156 22.8751 38.8409C22.9864 38.4759 23.4529 38.6658 23.6215 38.7918C23.7702 38.9032 23.9063 39.0305 24.0274 39.1715C24.0206 39.1741 24.0145 39.1781 24.0094 39.1833C24.0043 39.1885 24.0003 39.1947 23.9979 39.2015C23.9954 39.2084 23.9944 39.2156 23.995 39.2229C23.9955 39.2301 23.9977 39.2372 24.0012 39.2435C24.0896 39.4236 24.2009 39.561 24.4055 39.4596C24.705 39.3106 24.831 38.6658 25.3056 38.98C25.8425 39.3368 24.7917 39.5496 24.6035 39.6232C24.4758 39.6723 24.1829 39.7869 24.2336 39.9833C24.2443 40.0371 24.2684 40.0873 24.3036 40.1293C24.3387 40.1713 24.3839 40.2039 24.4349 40.2239C24.4906 40.2501 24.5544 40.2485 24.6117 40.2714C25.1027 40.471 24.52 41.2026 24.1092 41.0324C23.6509 40.8442 23.7606 40.4301 23.7917 40.0471Z" fill="black"/>
</g>
<g style="mix-blend-mode:multiply" opacity="0.4">
<path d="M25.0471 41.2108C24.9538 41.0128 24.669 40.5185 24.8556 40.3156C25.1289 40.016 25.3106 40.4514 25.3466 40.6429C25.3989 40.8884 25.4137 41.4056 25.5528 41.7608L25.2255 42.0652C25.2483 41.7692 25.1864 41.4729 25.0471 41.2108V41.2108Z" fill="black"/>
</g>
<g style="mix-blend-mode:multiply" opacity="0.4">
<path d="M22.3628 36.2434C22.1517 36.6968 21.7687 36.4464 21.4086 36.4218L21.8587 35.6379C22.1763 35.7868 22.5151 35.9145 22.3628 36.2434Z" fill="black"/>
</g>
<g style="mix-blend-mode:multiply" opacity="0.4">
<path d="M26.7918 34.2172C26.8529 34.2368 26.9134 34.2581 26.9734 34.281C27.068 34.3227 27.1668 34.3539 27.268 34.3743C27.8229 34.4512 27.9947 33.8015 28.3925 33.556C28.4485 33.5313 28.5103 33.5228 28.5709 33.5314C28.8153 33.7398 28.8513 33.9477 28.6789 34.155C28.5845 34.2777 28.4776 34.3902 28.3597 34.4905C28.2052 34.6115 28.0938 34.7791 28.0422 34.9684C28.0243 35.0474 28.0323 35.1301 28.0651 35.2041C28.1748 35.4513 27.705 35.4873 27.6167 35.25C27.5688 35.0611 27.4736 34.8876 27.3401 34.7459C27.1257 34.5527 26.8376 34.8211 26.6117 34.6771C26.4742 34.2745 26.5343 34.1212 26.7918 34.2172Z" fill="black"/>
</g>
<g style="mix-blend-mode:multiply" opacity="0.4">
<path d="M23.5151 40.327C23.6561 40.3376 23.793 40.3792 23.916 40.4488C24.0391 40.5184 24.1453 40.6143 24.227 40.7296C24.4521 41.0301 24.6613 41.342 24.8539 41.6642C24.8824 41.8062 24.8693 41.9534 24.8163 42.0881C24.741 42.2632 24.4889 42.5464 24.2991 42.1045C24.2581 42.0161 24.2205 41.9261 24.1779 41.8377C23.9734 41.404 23.4971 41.3614 23.2287 41.0095C22.9881 40.6936 23.0421 40.3139 23.5151 40.327Z" fill="black"/>
</g>
<g style="mix-blend-mode:multiply" opacity="0.4">
<path d="M24.4988 33.6018C24.3613 33.9291 24.0929 34.0175 23.7852 33.8555C23.556 33.7344 23.3482 33.592 23.1141 33.4889C23.2925 33.191 23.4676 32.8947 23.6428 32.605C23.7938 32.6259 23.9388 32.6783 24.0683 32.7589C24.3056 32.9275 24.6379 33.2696 24.4988 33.6018Z" fill="black"/>
</g>
<g style="mix-blend-mode:multiply" opacity="0.4">
<path d="M20.299 41.9735C20.9946 42.2321 20.0633 42.9654 19.7687 42.4645C19.686 42.2873 19.644 42.0938 19.6459 41.8982C19.6263 41.6838 19.5903 41.3827 19.3759 41.2681C19.2587 41.1987 19.1198 41.1753 18.9863 41.2026C18.9027 41.2252 18.8146 41.2252 18.731 41.2026L19.0092 40.6969C19.2004 40.7207 19.3943 40.6882 19.5674 40.6036C19.8047 40.5038 20.0224 40.3172 20.281 40.2763C20.4042 40.2527 20.5314 40.2606 20.6509 40.2992C20.862 40.4776 20.8915 40.6036 20.7392 40.6756C20.6492 40.7198 20.5576 40.7476 20.4659 40.7853C20.2237 40.8851 19.8407 41.0537 19.8014 41.3565C19.7621 41.6593 20.0289 41.8737 20.299 41.9735Z" fill="black"/>
</g>
<g style="mix-blend-mode:multiply" opacity="0.4">
<path d="M22.0912 44.6987C22.1542 44.5764 22.2047 44.4481 22.2417 44.3157C22.2591 44.1406 22.21 43.9653 22.1043 43.8247C21.8849 43.4973 21.574 43.075 21.9046 42.7002C22.0912 42.4891 22.502 42.4695 22.5593 42.8099C22.5773 42.9246 22.5822 43.041 22.574 43.1569C22.5494 43.5317 22.443 43.9327 22.6542 44.2698C22.4709 44.4139 22.2827 44.5579 22.0912 44.6987Z" fill="black"/>
</g>
<g style="mix-blend-mode:multiply" opacity="0.4">
<path d="M27.7116 38.9407C27.4546 38.5921 27.0896 38.7574 26.7296 38.8196C26.4431 38.8687 26.0209 38.8409 25.9587 38.4644C25.9352 38.3762 25.9393 38.2829 25.9707 38.1971C26.002 38.1113 26.059 38.0372 26.1338 37.9849C26.5757 37.7574 26.7132 38.2222 27.0504 38.3384C27.4726 38.4841 27.6478 38.1142 27.6248 37.7443C27.6003 37.3335 27.3171 36.9554 27.3482 36.538C27.3565 36.4425 27.397 36.3525 27.463 36.2829C27.5291 36.2133 27.6168 36.1681 27.7118 36.1548C27.8068 36.1415 27.9035 36.1609 27.9861 36.2097C28.0688 36.2585 28.1324 36.3338 28.1666 36.4235C28.2544 36.6681 28.2884 36.9288 28.2664 37.1878C28.2337 37.7148 27.7181 38.363 27.9391 38.8916C27.988 39.0257 28.084 39.1374 28.2092 39.2059C27.9784 39.4366 27.746 39.6691 27.507 39.9031C27.5921 39.5954 27.9211 39.2239 27.7116 38.9407Z" fill="black"/>
</g>
</g>
<g style="mix-blend-mode:multiply" opacity="0.4">
<g style="mix-blend-mode:multiply" opacity="0.4">
<path d="M27.9244 37.3744C27.889 37.3059 27.8695 37.2303 27.8673 37.1532C27.8651 37.0761 27.8803 36.9995 27.9117 36.929C27.9431 36.8586 27.99 36.7962 28.0489 36.7463C28.1077 36.6965 28.1771 36.6605 28.2517 36.6411C28.4154 36.6019 28.4776 36.7868 28.5087 36.9177C28.6118 37.3547 28.5316 37.8228 28.8049 38.2009C28.8583 38.2809 28.9324 38.3448 29.0193 38.3859L28.3483 39.0684C28.4394 38.9361 28.4989 38.7847 28.5222 38.6257C28.5455 38.4668 28.5319 38.3047 28.4825 38.1518C28.3581 37.8294 28.1028 37.6559 27.9244 37.3744Z" fill="black"/>
</g>
<g style="mix-blend-mode:multiply" opacity="0.4">
<path d="M30.0733 35.9341C30.237 35.5036 30.6527 35.8195 30.728 36.137C30.7559 36.2687 30.7751 36.4022 30.7853 36.5364C30.4891 36.8539 30.1732 37.1911 29.8409 37.5348C29.6249 37.1714 29.6053 36.7966 30.0881 36.651C30.1306 36.6379 30.1274 36.592 30.1175 36.5593C30.0362 36.361 30.0207 36.1418 30.0733 35.9341V35.9341Z" fill="black"/>
</g>
<g style="mix-blend-mode:multiply" opacity="0.4">
<path d="M26.723 34.7573C26.9816 34.4021 26.8867 34.0601 26.5905 33.7638C26.3122 33.4954 26.0242 33.2417 26.1878 32.8113C26.3728 32.3203 26.9293 32.2679 27.1224 32.7442C27.0864 32.7442 27.0586 32.7769 27.0815 32.8309C27.1904 33.0891 27.3638 33.3149 27.585 33.4869C27.8063 33.6588 28.0679 33.7711 28.345 33.8129C28.7722 33.8948 30.1994 33.8506 30.1012 34.5445C29.8475 36.3318 27.9866 33.6133 27.5021 35.0666C27.4039 35.3596 27.3302 35.6837 27.1387 35.9341C26.9669 36.1567 26.5986 36.538 26.2729 36.3989C25.7459 36.1714 25.8752 35.5806 26.1993 35.2647C26.3882 35.1111 26.5635 34.9413 26.723 34.7573V34.7573Z" fill="black"/>
</g>
<g style="mix-blend-mode:multiply" opacity="0.4">
<path d="M22.9422 33.7802L23.2794 33.2106C23.7344 33.2957 24.1403 33.0813 24.5773 32.9749C25.0143 32.8686 25.5299 32.9438 25.6362 33.4954C25.6577 33.5975 25.6549 33.7032 25.628 33.804C25.6012 33.9048 25.551 33.9979 25.4816 34.0758C25.4121 34.1537 25.3254 34.2141 25.2283 34.2523C25.1312 34.2906 25.0265 34.3054 24.9226 34.2958C24.7279 34.2958 24.2107 34.119 24.1256 34.4087C23.975 34.9161 24.3531 35.322 24.52 35.7622C24.5543 35.8288 24.573 35.9024 24.5745 35.9773C24.576 36.0522 24.5604 36.1264 24.5288 36.1944C24.4972 36.2623 24.4505 36.3221 24.3922 36.3692C24.334 36.4163 24.2657 36.4494 24.1927 36.466C24.1077 36.506 24.013 36.5208 23.9199 36.5086C23.8268 36.4964 23.7391 36.4578 23.6673 36.3973C23.4732 36.1854 23.3576 35.9133 23.34 35.6264C23.2827 35.0699 23.7033 34.4807 23.3121 34.0044C23.2162 33.8918 23.0864 33.8132 22.9422 33.7802V33.7802Z" fill="black"/>
</g>
<g style="mix-blend-mode:multiply" opacity="0.4">
<path d="M22.2679 36.1583C22.5609 36.088 23.0764 36.2664 22.7589 36.6297C22.5969 36.7977 22.4636 36.9913 22.3645 37.2025C22.209 37.6003 22.5183 37.8769 22.7507 38.1846C22.9062 38.3842 23.1288 38.6216 23.1697 38.8785C23.2401 39.3335 22.3759 39.6232 22.3727 39.2353C22.3727 38.9325 22.5085 38.5807 22.4103 38.286C22.3121 37.9914 22.1681 37.7214 21.8293 37.8179C21.5821 37.8883 21.317 38.0094 21.0551 37.9243C20.9687 37.9095 20.8909 37.8631 20.8367 37.7942C20.7826 37.7252 20.756 37.6386 20.7621 37.5512C20.9798 37.1682 21.2008 36.777 21.4266 36.3842C21.7196 36.4137 21.9979 36.2222 22.2679 36.1583Z" fill="black"/>
</g>
<g style="mix-blend-mode:multiply" opacity="0.4">
<path d="M25.8916 40.1863C26.1845 39.5201 26.5463 40.2665 26.7328 40.6527C26.5506 40.8273 26.3684 41.0019 26.1862 41.1765C25.9832 40.836 25.7754 40.4514 25.8916 40.1863Z" fill="black"/>
</g>
</g>
<path d="M20.7147 45.1602L20.2809 45.9327C20.2809 45.9327 20.3742 45.9474 19.4839 45.9933C18.5935 46.0391 3.78788 45.7363 3.78788 45.7363C3.78788 45.7363 2.56362 44.1094 3.89917 42.2158C3.89917 42.2158 10.6915 41.6495 12.978 41.4089C15.2644 41.1683 18.127 42.3107 18.127 42.3107C18.127 42.3107 20.4168 43.1601 20.7147 45.1602Z" fill="black"/>
<g style="mix-blend-mode:multiply" opacity="0.2">
<path d="M12.5475 42.7722C12.4444 42.6789 12.0467 42.4089 12.3446 42.2632C12.5082 42.1847 12.6719 42.3647 12.7472 42.4776C12.8698 42.6381 12.9599 42.8211 13.0123 43.0161C12.9796 43.3222 12.6474 43.4269 12.6048 43.7281C12.5906 43.7847 12.5989 43.8446 12.6278 43.8952C12.6568 43.9459 12.7043 43.9833 12.7603 43.9998C12.8863 44.0374 13.2513 44.1242 13.0696 44.3402C13.0373 44.3786 12.9966 44.4091 12.9506 44.4292C12.9046 44.4494 12.8546 44.4587 12.8045 44.4564C12.5753 44.4564 12.2136 44.3517 12.1711 44.08C12.0958 43.5955 13.0631 43.2338 12.5475 42.7722Z" fill="black"/>
</g>
<g style="mix-blend-mode:multiply" opacity="0.2">
<path d="M8.19062 42.4858C8.297 42.7591 8.05313 43.2633 7.76998 42.8704C7.5834 42.6102 7.57194 42.1994 7.41809 41.9244L7.54903 41.913C7.59092 42.0212 7.66978 42.1111 7.77162 42.1667C7.9091 42.2501 8.12678 42.3254 8.19062 42.4858Z" fill="black"/>
</g>
<g style="mix-blend-mode:multiply" opacity="0.2">
<path d="M6.24783 44.6594C6.44915 44.9867 6.42132 45.4024 6.43769 45.7969L5.70281 45.7821C5.68226 45.6512 5.67295 45.5186 5.67499 45.3861C5.66317 45.188 5.70561 44.9905 5.79774 44.8149C5.87467 44.7003 6.12181 44.4548 6.24783 44.6594Z" fill="black"/>
</g>
<g style="mix-blend-mode:multiply" opacity="0.2">
<path d="M4.26088 45.2748C4.28543 45.0865 4.42455 44.571 4.73389 44.7739C4.93684 44.9081 5.05304 45.4122 4.97939 45.7674L4.26252 45.7527C4.24073 45.5942 4.24018 45.4334 4.26088 45.2748V45.2748Z" fill="black"/>
</g>
<g style="mix-blend-mode:multiply" opacity="0.2">
<path d="M6.01379 43.3778C5.81608 43.2333 5.64915 43.0508 5.52278 42.841C5.4213 42.692 5.28709 42.3811 5.12506 42.1192L6.10708 42.0357C6.10807 42.1511 6.12798 42.2656 6.166 42.3745C6.24634 42.5615 6.30934 42.7554 6.35423 42.9539C6.37878 43.1421 6.29367 43.5611 6.01379 43.3778Z" fill="black"/>
</g>
<g style="mix-blend-mode:multiply" opacity="0.2">
<path d="M7.70123 44.787C7.87636 44.1602 8.49831 45.4875 8.59487 45.6545C8.62925 45.715 8.66525 45.7772 8.70617 45.8394L7.68814 45.8149C7.70287 45.4761 7.60958 45.1193 7.70123 44.787Z" fill="black"/>
</g>
<g style="mix-blend-mode:multiply" opacity="0.2">
<path d="M12.5983 45.3468C12.996 45.1013 13.2906 45.5317 13.5672 45.9278L12.2054 45.9049C12.3069 45.7167 12.3789 45.4875 12.5983 45.3468Z" fill="black"/>
</g>
<g style="mix-blend-mode:multiply" opacity="0.2">
<path d="M14.1908 44.8852C14.2235 44.571 14.6081 44.8329 14.7047 44.9687C14.9437 45.3091 15.1106 45.6659 15.3594 45.9589L14.361 45.9425C14.3376 45.7647 14.3048 45.5883 14.2628 45.4139C14.2122 45.2423 14.1879 45.0641 14.1908 44.8852V44.8852Z" fill="black"/>
</g>
<g style="mix-blend-mode:multiply" opacity="0.2">
<path d="M14.3986 42.3303C14.4903 42.0357 14.7014 41.7558 14.6752 41.4481C14.8029 41.4629 14.9306 41.4792 15.0566 41.4989C14.9758 41.6167 14.934 41.757 14.9371 41.8999C14.9371 42.0865 14.9977 42.2779 14.9862 42.4629C14.9855 42.5086 14.9746 42.5537 14.9543 42.5947C14.934 42.6357 14.9048 42.6716 14.8688 42.6999C14.8329 42.7282 14.791 42.7481 14.7464 42.7582C14.7018 42.7683 14.6555 42.7683 14.6108 42.7583C14.5662 42.7482 14.5244 42.7283 14.4884 42.7C14.4524 42.6717 14.4232 42.6358 14.4029 42.5948C14.3826 42.5538 14.3716 42.5088 14.3709 42.463C14.3702 42.4173 14.3796 42.3719 14.3986 42.3303V42.3303Z" fill="black"/>
</g>
<g style="mix-blend-mode:multiply" opacity="0.2">
<path d="M16.6229 45.7854C16.7053 45.7713 16.7899 45.7822 16.866 45.8166C16.9422 45.851 17.0063 45.9074 17.0501 45.9785H16.3234C16.3548 45.9252 16.3982 45.8799 16.4502 45.8464C16.5022 45.8128 16.5614 45.792 16.6229 45.7854Z" fill="black"/>
</g>
<g style="mix-blend-mode:multiply" opacity="0.2">
<path d="M4.25107 43.5235C4.59969 44.0734 4.02193 44.2305 3.62585 44.4237C3.50565 44.4776 3.40708 44.5704 3.34597 44.6872C3.22107 44.1094 3.27414 43.5074 3.49819 42.9605C3.80916 43.0505 4.07675 43.2507 4.25107 43.5235V43.5235Z" fill="black"/>
</g>
<g style="mix-blend-mode:multiply" opacity="0.2">
<path d="M9.40996 42.9916C9.74875 42.9114 9.68983 42.4924 9.66692 42.2256C9.66038 42.1625 9.65711 42.0991 9.6571 42.0357C9.95825 41.6211 10.189 41.6756 10.3494 42.1994C10.3276 42.3658 10.2795 42.5276 10.207 42.6789L10.1923 42.71C10.0483 42.9457 9.7373 43.2011 9.98771 43.4662C10.1743 43.6577 10.59 43.6299 10.8273 43.6953C10.883 43.7117 11.1547 43.7706 11.1039 43.8787C11.0401 44.0161 10.8503 44.1913 10.6849 44.1667C10.4149 44.1242 10.2414 43.8557 10.0532 43.6839C9.86496 43.512 9.60472 43.3565 9.32812 43.5202C9.13008 43.6348 8.95331 43.8377 8.734 43.913C8.32646 44.0538 7.76507 43.4531 8.1055 43.0832C8.4754 42.6691 8.97296 43.0963 9.40996 42.9916Z" fill="black"/>
</g>
<g style="mix-blend-mode:multiply" opacity="0.2">
<path d="M17.3742 44.5579C17.5267 44.5012 17.6902 44.4805 17.8521 44.4973C18.0485 44.5219 18.3513 44.6332 18.5526 44.5677C18.7834 44.494 18.8194 44.2764 18.8636 44.0636C18.8773 43.9464 18.9188 43.8342 18.9847 43.7363C19.2171 43.7608 19.3447 43.8639 19.3693 44.0472C19.3927 44.221 19.3793 44.3978 19.33 44.5661C19.3214 44.5624 19.3119 44.5615 19.3028 44.5635C19.2937 44.5656 19.2854 44.5705 19.2793 44.5775C19.1156 44.7412 19.024 44.8803 19.1467 45.0964C19.2059 45.1889 19.2413 45.2946 19.2498 45.4041L18.8996 45.4401C18.875 45.3713 18.8554 45.3026 18.8325 45.2338C18.8154 45.1593 18.7812 45.0898 18.7326 45.0309C18.6646 44.9715 18.5774 44.9388 18.4871 44.9388C18.3968 44.9388 18.3096 44.9715 18.2416 45.0309C17.8946 45.2878 17.5869 45.499 17.145 45.314C16.5263 45.0636 17.1221 44.6397 17.3742 44.5579Z" fill="black"/>
</g>
<g style="mix-blend-mode:multiply" opacity="0.2">
<path d="M16.019 43.5235C16.3168 43.4858 16.1319 43.0325 16.145 42.8803C16.1451 42.8013 16.1628 42.7233 16.1968 42.652C16.2308 42.5806 16.2802 42.5177 16.3414 42.4678C16.5492 42.5546 16.6344 42.6839 16.5967 42.859C16.5869 42.9425 16.5771 43.0227 16.5689 43.1045C16.5362 43.0849 16.4952 43.0832 16.4789 43.1274C16.2432 43.7412 16.9257 43.6184 17.2972 43.697C17.3414 43.7068 17.6737 43.7772 17.5525 43.9048C17.491 43.971 17.4082 44.0136 17.3186 44.0253C17.2289 44.0369 17.138 44.0169 17.0615 43.9687C16.9142 43.9048 16.7735 43.8214 16.6229 43.7657C16.4964 43.7205 16.3611 43.706 16.2279 43.7233C16.0947 43.7407 15.9676 43.7894 15.8569 43.8656C15.6392 43.9899 15.3168 44.2436 15.0386 44.1422C14.7603 44.0407 14.9125 43.7363 15.0386 43.6021C15.3675 43.2714 15.6523 43.5677 16.019 43.5235Z" fill="black"/>
</g>
<g style="mix-blend-mode:multiply" opacity="0.2">
<path d="M18.0796 42.6299C18.2293 42.846 18.4221 43.0288 18.6459 43.1667C18.9241 43.3173 19.7277 43.6004 19.5559 44.0341C19.5002 44.1782 19.2711 44.5726 19.0567 44.4859C18.893 44.422 18.8194 44.2175 18.7588 44.0734C18.6679 43.7937 18.5586 43.5203 18.4315 43.2551C18.368 43.1632 18.2806 43.0905 18.1788 43.0446C18.077 42.9988 17.9646 42.9816 17.8537 42.9948C17.3087 43.0358 17.1287 42.4891 17.181 41.9948C17.4364 42.0734 17.6491 42.1454 17.8095 42.201C17.8871 42.3515 17.9774 42.4949 18.0796 42.6299V42.6299Z" fill="black"/>
</g>
<g style="mix-blend-mode:multiply" opacity="0.2">
<path d="M17.0468 44.9049C16.9093 44.7985 16.6671 44.6348 16.6835 44.4335C16.7146 44.0227 17.1319 43.9048 17.4511 44.0816C17.5786 44.1431 17.6908 44.2324 17.7794 44.3428C17.8681 44.4532 17.9309 44.5821 17.9634 44.7199C17.9985 44.9109 18.0643 45.095 18.1582 45.2649C18.3431 45.5366 18.533 45.5186 18.785 45.3484C18.9389 45.2453 19.0845 45.1291 19.24 45.0292C19.3054 44.9768 19.3805 44.9379 19.461 44.9147C19.5412 44.8999 19.425 45.2142 19.407 45.242C19.1745 45.5694 18.6623 45.733 18.3366 46.0015L17.654 45.9933C17.6951 45.928 17.7202 45.854 17.7273 45.7772C17.7344 45.7004 17.7233 45.6231 17.695 45.5514C17.5722 45.2568 17.2874 45.0898 17.0468 44.9049Z" fill="black"/>
</g>
<g style="mix-blend-mode:multiply" opacity="0.2">
<path d="M14.9404 44.8803C15.0009 44.6446 15.2383 44.6512 15.4314 44.7166C15.8177 44.8312 15.8651 45.1013 15.7767 45.4499C15.7342 45.6135 15.6687 45.7903 15.6343 45.9687L15.0926 45.9589C15.0533 45.5759 14.8749 45.1389 14.9404 44.8803Z" fill="black"/>
</g>
<g style="mix-blend-mode:multiply" opacity="0.2">
<path d="M12.942 42.7051C13.212 42.8001 13.4805 43.0587 13.7767 43.0538C14.0729 43.0488 14.3201 42.638 14.5329 42.4564C14.5639 42.427 14.5973 42.4002 14.6327 42.3762C14.8111 42.2616 14.9093 42.3762 14.9257 42.7395C14.8559 42.9051 14.7496 43.0529 14.6147 43.1716C14.451 43.3173 14.2252 43.4417 14.1564 43.6626C14.3888 43.7215 14.5492 44.1127 14.5901 44.3255C14.6523 44.6315 14.415 44.733 14.1548 44.7903C13.8192 44.8623 13.7816 44.5677 13.7145 44.3206C13.6981 44.189 13.6409 44.066 13.5508 43.9687C13.3724 43.8296 13.1106 43.949 12.9207 43.8132C12.7325 43.6874 12.6009 43.4929 12.5541 43.2714C12.5082 43.0096 12.5786 42.5807 12.942 42.7051Z" fill="black"/>
</g>
<g style="mix-blend-mode:multiply" opacity="0.2">
<path d="M9.77004 45.2584C9.71712 45.1066 9.63972 44.9645 9.5409 44.8378C9.21356 44.4106 8.61453 44.7936 8.23154 44.4449C8.0335 44.2633 7.68488 43.7248 8.02368 43.5022C8.39357 43.2583 8.65053 43.5579 8.8944 43.8115C9.04662 43.9752 9.51144 44.4122 9.70293 44.0472C9.77986 43.8999 9.77986 42.8704 10.045 43.0456C10.4607 43.3222 10.1858 43.8083 10.2971 44.1602C10.2971 44.4728 10.3232 44.7985 10.536 44.9965C10.7373 45.1567 10.9697 45.2732 11.2185 45.3386C11.3972 45.3828 11.5645 45.4643 11.7095 45.5775C11.7532 45.6184 11.7791 45.6747 11.7815 45.7344C11.784 45.7942 11.7628 45.8525 11.7226 45.8967L9.99263 45.864C9.79786 45.6888 9.84369 45.4777 9.77004 45.2584Z" fill="black"/>
</g>
<g style="mix-blend-mode:multiply" opacity="0.2">
<path d="M5.05468 43.0554C5.17949 42.9452 5.34161 42.8866 5.50805 42.8917C5.74373 42.9114 5.94668 42.9539 6.0858 42.8688C6.0858 42.9343 6.17582 43.0014 6.21183 42.9392C6.28451 42.798 6.39356 42.6788 6.52772 42.5938C6.58363 42.5602 6.64859 42.5447 6.71367 42.5495C6.77875 42.5542 6.84076 42.5791 6.89116 42.6205C6.94157 42.6619 6.97791 42.718 6.99518 42.7809C7.01246 42.8438 7.00982 42.9105 6.98763 42.9719C6.89558 43.161 6.81523 43.3556 6.74703 43.5546C6.69957 43.7379 6.84851 43.9097 6.96799 44.0292C7.21677 44.278 7.5572 44.4859 7.75033 44.7854C7.90255 45.0211 7.65049 45.2764 7.38535 45.2355C7.17749 45.2027 7.11857 44.9294 7.04819 44.7707C6.94835 44.5448 6.80268 44.3222 6.52935 44.2976C6.25602 44.2731 6.2282 44.4891 6.18073 44.7019C6.16439 44.8269 6.11539 44.9453 6.03867 45.0453C5.96195 45.1453 5.86022 45.2233 5.74373 45.2715C5.3411 45.409 5.05468 44.8623 5.31164 44.5546C5.53096 44.2927 5.83866 44.152 5.97451 43.8246C5.99251 43.7788 5.94832 43.7248 5.90904 43.7117C5.68094 43.649 5.45863 43.5668 5.24454 43.4662C5.13652 43.4024 4.80099 43.2452 5.05468 43.0554Z" fill="black"/>
</g>
<g style="mix-blend-mode:multiply" opacity="0.2">
<path d="M4.76335 42.5857C4.74207 42.9916 4.39673 43.3009 3.99574 43.1405C3.86971 43.0898 3.70113 42.9637 3.53091 42.8737C3.63132 42.6436 3.75469 42.4243 3.89917 42.219L4.68806 42.1536C4.74116 42.2913 4.76673 42.4381 4.76335 42.5857V42.5857Z" fill="black"/>
</g>
<g style="mix-blend-mode:multiply" opacity="0.2">
<path d="M8.24463 42.0734C8.19717 41.9997 8.1497 41.931 8.1006 41.8639L9.21847 41.7673C9.28721 42.0161 9.3003 42.2763 9.17755 42.4465C8.85512 42.8917 8.42303 42.3483 8.24463 42.0734Z" fill="black"/>
</g>
<g style="mix-blend-mode:multiply" opacity="0.2">
<path d="M12.5377 45.9114C12.5377 45.8885 12.5377 45.8656 12.5377 45.8394C12.5377 45.4253 12.2905 45.0374 12.302 44.6283C12.302 44.3157 12.6293 44.3746 12.8568 44.4253C13.5115 44.5726 13.2628 45.0473 13.2611 45.5252C13.2614 45.6603 13.2807 45.7947 13.3184 45.9245L12.5377 45.9114Z" fill="black"/>
</g>
<g style="mix-blend-mode:multiply" opacity="0.2">
<path d="M11.7603 42.8033C11.6964 43.0947 11.6244 43.3795 11.2545 43.3582C10.7128 43.3271 10.6637 42.1978 10.5245 41.8131C10.5033 41.7575 10.4804 41.7067 10.4574 41.6495C11.0385 41.5971 11.5851 41.5463 12.0581 41.5005C12.0303 41.5725 12.0074 41.6478 11.9861 41.7231C11.8928 42.0848 11.8388 42.4465 11.7603 42.8033Z" fill="black"/>
</g>
<g style="mix-blend-mode:multiply" opacity="0.3">
<path d="M15.8242 42.9899C15.8489 42.9374 15.8616 42.8802 15.8616 42.8222C15.8616 42.7642 15.8489 42.7069 15.8242 42.6544C15.7424 42.4367 15.4494 42.3811 15.4281 42.1159C15.4134 41.9195 15.564 41.7198 15.7145 41.9081C15.8651 42.0963 15.9862 42.2747 16.1335 42.4482C16.2465 42.5775 16.5132 42.877 16.6933 42.7755C16.7232 42.7689 16.7523 42.759 16.78 42.7461C16.8525 42.703 16.9316 42.672 17.0141 42.6544C17.3938 42.6053 17.1155 42.9817 16.9977 43.0243C16.8799 43.0669 16.7277 43.0145 16.6164 43.0996C16.5141 43.193 16.4437 43.316 16.415 43.4515C16.3995 43.5131 16.3664 43.5688 16.3197 43.6119C16.273 43.655 16.2148 43.6836 16.1522 43.6942C16.0896 43.7047 16.0252 43.6969 15.9669 43.6715C15.9087 43.6461 15.8591 43.6044 15.8242 43.5513C15.6818 43.3435 15.7309 43.2043 15.8242 42.9899Z" fill="black"/>
</g>
<g style="mix-blend-mode:multiply" opacity="0.3">
<path d="M19.9225 44.859C20.3137 44.5775 20.3546 45.3828 20.3235 45.5906C20.3065 45.7117 20.2814 45.8314 20.2482 45.9491C20.1893 45.9573 20.0387 45.9704 19.659 45.99C19.5919 45.5825 19.6934 45.0243 19.9225 44.859Z" fill="black"/>
</g>
<g style="mix-blend-mode:multiply" opacity="0.3">
<path d="M7.83708 42.6691C8.09077 42.4907 8.41975 42.7313 8.59324 42.9801C8.68817 43.3255 8.59324 43.5791 9.0597 43.6348C9.4476 43.6773 9.29702 44.1684 9.04497 44.2355C8.71763 44.3238 8.56378 43.9539 8.39847 43.7444C8.27445 43.5861 8.13521 43.4403 7.98275 43.3091C7.90172 43.2519 7.82361 43.1907 7.7487 43.1258C7.65214 43.0145 7.73233 42.7411 7.83708 42.6691Z" fill="black"/>
</g>
<g style="mix-blend-mode:multiply" opacity="0.3">
<path d="M3.62093 45.0423C3.26904 44.6937 3.40653 44.2076 3.33778 43.769C3.34959 43.7659 3.36034 43.7597 3.36888 43.751C3.62748 43.4646 3.94664 42.9425 4.41146 43.1356C4.87629 43.3287 5.03341 43.8263 4.55549 44.0554C4.46734 44.0977 4.38301 44.1476 4.30344 44.2044C4.22633 44.2612 4.17183 44.3436 4.14959 44.4368C4.13979 44.5079 4.13979 44.58 4.14959 44.6512C4.23142 44.9447 4.05521 45.0751 3.62093 45.0423Z" fill="black"/>
</g>
<g style="mix-blend-mode:multiply" opacity="0.3">
<path d="M7.41317 43.9212C7.31333 44.2485 6.99581 44.4957 7.00399 44.8492C7.00581 44.8991 7.019 44.9478 7.04254 44.9918C7.06609 45.0358 7.09937 45.0738 7.13984 45.1029C7.20908 45.1411 7.28438 45.1671 7.36243 45.1798L7.51464 45.206C7.57847 45.4041 7.53919 45.5072 7.39516 45.517C7.18894 45.5448 6.76503 45.5448 6.77322 45.2027C6.78005 45.0725 6.79591 44.9429 6.82068 44.8148C6.85039 44.6628 6.85482 44.5068 6.83377 44.3533C6.83052 44.3313 6.81876 44.3114 6.80101 44.2979C6.78327 44.2844 6.76095 44.2785 6.73885 44.2813C6.74238 44.1711 6.75608 44.0616 6.77976 43.9539C6.79454 43.8482 6.83255 43.747 6.89106 43.6577C7.04818 43.4695 7.5081 43.6086 7.41317 43.9212Z" fill="black"/>
</g>
<g style="mix-blend-mode:multiply" opacity="0.3">
<path d="M10.7881 43.9065C10.8192 43.8148 10.8503 43.7232 10.8863 43.6331C10.9384 43.4881 11.0185 43.3546 11.1219 43.2403C11.3053 42.9883 11.5197 43.0292 11.7766 43.3631L11.7455 43.4531C11.7071 43.5624 11.6966 43.6796 11.7152 43.794C11.7338 43.9084 11.7808 44.0163 11.8519 44.1078C12.0418 44.3287 12.3806 44.3026 12.6163 44.4351C12.7176 44.4878 12.8121 44.5527 12.8978 44.6283C13.0107 44.7346 13.2251 45.206 12.8978 45.1553C12.739 45.1177 12.589 45.0499 12.4559 44.9556C12.2529 44.8361 11.9763 44.6381 11.7259 44.6725C11.4755 44.7068 11.3511 44.8967 11.2136 45.0767C11.1105 45.2126 10.9534 45.4515 10.7504 45.4384C10.3642 45.4139 10.2594 45.0849 10.3871 44.7838C10.5147 44.4826 10.6882 44.2551 10.8159 43.9785C10.8186 43.9651 10.8174 43.9512 10.8124 43.9384C10.8075 43.9257 10.7991 43.9146 10.7881 43.9065V43.9065Z" fill="black"/>
</g>
<path d="M35.0014 12.5391L35.0096 13.5555L33.1929 14.3051C33.1929 14.3051 33.1929 13.9777 33.2027 13.58C33.2109 13.0775 32.6609 12.9859 30.9784 12.287C27.4889 10.8369 27.0258 9.99563 26.4333 8.46367C24.6427 3.79906 28.3531 0.465098 33.5251 0.617312C38.0408 0.751522 35.9802 6.34578 35.7494 8.11996L35.0014 12.5391Z" fill="#E7C19C"/>
<path d="M32.5333 16.459C32.5333 16.459 33.3189 10.8942 34.2289 10.9973C34.2289 10.9973 37.666 12.7338 38.0196 13.5931C38.0359 13.634 38.1194 13.5931 38.0817 13.8681C37.7757 13.9237 36.8837 13.5718 36.7167 13.981C36.5498 14.3902 35.7134 17.2299 35.4958 18.0286C34.3222 17.5768 32.3893 16.8992 32.5333 16.459Z" fill="#E7C19C"/>
<path d="M33.4023 0.61731C33.4023 0.61731 34.9572 0.764613 35.1045 0.794074C35.6549 0.905507 36.1852 1.09975 36.6774 1.37019C37.6594 1.91685 38.522 2.76958 38.9246 3.83998C39.1103 4.31236 39.2304 4.808 39.2814 5.31301C39.3207 5.80402 39.1897 6.29504 39.2028 6.78605C39.2143 7.23941 39.5171 7.6224 39.8739 7.9432L39.9655 8.03158C40.1488 8.20834 40.3583 8.35892 40.5466 8.52259C40.7348 8.68626 40.9606 8.90722 40.8739 9.17727C40.8739 9.20673 40.851 9.23128 40.8412 9.25747C40.7466 9.36061 40.6361 9.44792 40.5138 9.51607C40.3894 9.58808 40.085 9.71247 40.103 9.88924C40.1216 9.98915 40.16 10.0843 40.2159 10.1691C40.3177 10.3149 40.3818 10.4836 40.4025 10.6601C40.3747 10.9187 39.8526 11.0595 39.6284 11.066C39.612 11.0791 40.1947 11.0562 40.2078 11.2935C40.2258 11.6356 39.9721 11.4801 39.9835 12.0071C39.9835 12.0497 40.1112 12.4278 40.1668 12.778C40.1742 12.9448 40.1481 13.1113 40.0902 13.2678C40.0323 13.4244 39.9437 13.5678 39.8297 13.6897C39.5514 13.9777 39.0981 14.0055 38.6643 13.9712C37.4483 13.8697 36.2404 13.1954 35.3533 12.3803C34.7657 11.8402 34.4236 11.1511 34.1405 10.4294C34.0685 10.1822 33.9965 9.93834 33.9163 9.68465C33.7526 9.16581 33.5889 8.64698 33.4253 8.12651C33.895 5.65508 33.7493 3.09692 33.4023 0.61731Z" fill="#F1D2B3"/>
<path d="M39.6383 11.0562C39.8027 11.0615 39.9653 11.0936 40.1194 11.1511C39.9234 11.0928 39.7213 11.0571 39.5171 11.0447L39.4222 11.03C39.7778 10.9701 40.1143 10.8271 40.4042 10.6126C40.405 10.6252 40.405 10.6378 40.4042 10.6503C40.3846 10.9089 39.8625 11.0496 39.6383 11.0562Z" fill="#DDB996"/>
<path d="M40.8707 8.93338C40.897 9.0103 40.897 9.09378 40.8707 9.1707C40.8707 9.20016 40.8478 9.22471 40.838 9.2509C40.7434 9.35404 40.6329 9.44135 40.5106 9.5095C40.3895 9.57988 40.1031 9.69936 40.1014 9.86794C39.9073 9.7635 39.7283 9.63299 39.5695 9.48004C40.0409 9.41948 40.5581 9.29673 40.8707 8.93338Z" fill="#DDB996"/>
<path d="M25.0044 6.43515C25.0138 5.55255 25.1797 4.67863 25.4943 3.85395C25.6578 3.48912 25.8872 3.15754 26.1708 2.87579C26.3433 2.73527 26.5457 2.63609 26.7624 2.58584C26.7707 2.56084 26.7791 2.53585 26.7874 2.51419C27.4073 1.07444 29.0037 0.584533 30.4101 0.254592C31.6508 -0.0455368 32.9408 -0.0807404 34.1961 0.151277C34.261 0.164608 34.326 0.181272 34.391 0.197935C34.4798 0.192101 34.5689 0.192101 34.6576 0.197935C35.119 0.243687 35.577 0.318264 36.0291 0.421229C36.7128 0.584009 37.3582 0.878936 37.9287 1.28941C38.1752 1.45764 38.3944 1.66277 38.5786 1.89763L38.6786 1.98595C39.1902 2.48586 39.5118 3.18907 39.7334 3.86394C39.8622 4.30664 39.9046 4.76998 39.8584 5.2287C39.812 5.49342 39.7349 5.7518 39.6284 5.99856C39.6682 5.63772 39.6283 5.27255 39.5118 4.92875C39.5174 5.2876 39.4957 5.64635 39.4468 6.00189C39.4351 5.80232 39.3895 5.6062 39.3118 5.422C39.1948 4.888 38.9758 4.3816 38.6669 3.9306C38.5903 3.81895 38.5003 3.71564 38.4253 3.61566C38.4336 3.64232 38.4453 3.66565 38.4536 3.69397C38.5639 4.09639 38.5928 4.51674 38.5387 4.93047C38.4847 5.34419 38.3487 5.74299 38.1387 6.10354C38.0366 6.24604 37.9148 6.37339 37.7771 6.48181C38.077 5.98152 38.1887 5.39068 38.092 4.81544C38.0182 5.42931 37.7779 6.0113 37.3971 6.49847C37.3478 6.60447 37.2922 6.70741 37.2305 6.80675C37.1536 6.91475 37.0653 7.0142 36.9672 7.10336C37.4691 6.40038 37.741 5.55921 37.7454 4.69546C37.7179 5.04511 37.637 5.38848 37.5055 5.71361C37.3138 6.12368 37.0726 6.50871 36.7873 6.86007C36.7289 6.99172 36.6689 7.12003 36.6056 7.24834C36.3791 7.64954 36.2059 8.07866 36.0907 8.52477C36.074 8.56143 36.0591 8.60143 36.0441 8.63975C36.0765 8.32124 36.1568 8.00945 36.2823 7.71492C36.249 7.77158 36.214 7.82657 36.1774 7.88156C35.947 8.27797 35.6797 8.65178 35.3792 8.99802V8.99802C35.57 8.5932 35.7094 8.16606 35.7941 7.72658C35.7966 7.71843 35.7966 7.70974 35.7941 7.70159C35.7941 7.67826 35.8074 7.6566 35.8124 7.63327C35.8898 7.29333 35.935 6.94686 35.9474 6.59845C35.9157 6.70677 35.8841 6.81341 35.8491 6.9184C35.5841 7.71159 35.2742 8.54144 34.741 9.19799C34.7293 9.33296 34.721 9.46794 34.7143 9.60291C34.6446 9.94598 34.6239 10.2972 34.6526 10.6461C34.5243 10.4294 34.511 10.0928 34.4427 9.8562C34.4127 9.75289 34.3877 9.64957 34.3594 9.54626C34.3847 9.88807 34.3275 10.231 34.1927 10.5461C34.182 10.5592 34.1682 10.5694 34.1524 10.5755C34.1367 10.5817 34.1196 10.5837 34.1028 10.5814C34.0861 10.5791 34.0702 10.5724 34.0568 10.5621C34.0433 10.5519 34.0327 10.5383 34.0261 10.5227C33.9161 10.2145 33.7995 9.90953 33.6795 9.60291C33.5414 9.27528 33.3741 8.96073 33.1796 8.66308C33.2612 9.18299 33.3245 9.70456 33.4029 10.2245C33.4995 10.861 33.7528 11.4276 33.9128 12.0408C33.9294 12.1025 33.8644 12.1191 33.8178 12.0991C33.8938 12.2338 33.9537 12.377 33.9961 12.5257C33.8588 12.5304 33.7234 12.4932 33.6078 12.4191C33.5245 12.3341 33.4495 12.2358 33.3779 12.1658C33.3395 12.1258 33.2979 12.0841 33.2579 12.0391C33.3412 12.2796 33.3878 12.5313 33.3962 12.7857C33.3504 12.9304 33.2842 13.0679 33.1996 13.1939C33.1912 13.1846 33.1844 13.1739 33.1796 13.1623C33.1179 12.9606 33.0646 12.7807 32.9929 12.609C33.0355 12.7567 33.065 12.9078 33.0813 13.0606C33.0913 13.1573 32.9863 13.1889 32.9146 13.1323L32.788 13.029C32.9296 13.2373 33.1096 13.4439 33.1612 13.6755C33.0791 13.639 32.9944 13.6084 32.908 13.5839C32.6969 13.3866 32.4604 13.2184 32.2047 13.084C32.3031 13.1773 32.3997 13.2706 32.503 13.3522C32.3014 13.3022 32.0998 13.2473 31.9015 13.1856C31.8642 13.1671 31.8258 13.1509 31.7865 13.1373C30.7001 12.7351 29.6484 12.2447 28.6421 11.6709C27.7305 11.1526 26.7724 10.5877 26.0975 9.76955C25.3422 8.82668 24.9539 7.64219 25.0044 6.43515V6.43515Z" fill="#392828"/>
<g style="mix-blend-mode:multiply" opacity="0.5">
<path d="M25.0044 5.9356C25.0138 5.05301 25.1797 4.17908 25.4943 3.3544C25.6578 2.98957 25.8872 2.65799 26.1708 2.37624C26.3006 2.26367 26.4537 2.18116 26.6191 2.13462C25.8714 2.93405 25.4454 3.98143 25.4226 5.07576C25.411 6.19555 25.3826 7.50865 26.1142 8.43515C26.1475 8.47681 26.2425 8.49014 26.2358 8.41349C26.146 7.53695 26.2466 6.65135 26.5308 5.81729C26.5041 6.12388 26.5041 6.4322 26.5308 6.73879C26.6174 7.79193 26.7974 9.05837 27.7156 9.72659C27.7672 9.76325 27.8372 9.73992 27.8189 9.66826C27.6406 8.94006 27.3939 8.24185 27.3889 7.48866C27.494 7.92996 27.6624 8.35372 27.8889 8.74676C28.4471 9.71492 29.3203 10.8631 30.4117 11.2563C30.4734 11.278 30.4917 11.203 30.4717 11.1613C30.2651 10.7447 29.9518 10.4031 29.7652 9.97154C29.5484 9.4685 29.3809 8.94558 29.2653 8.41016C29.1567 7.92968 29.0964 7.43955 29.0853 6.94709L29.1686 7.19204C29.4436 7.96357 29.7435 8.7351 30.4067 9.25501C30.4567 9.295 30.5284 9.26834 30.5101 9.19835C30.3717 8.72784 30.2571 8.25066 30.1668 7.76861C30.1884 7.82859 30.2101 7.88692 30.2334 7.94357C30.525 8.66344 30.8183 9.4883 31.3849 10.0399C31.4432 10.0965 31.5149 10.0299 31.4799 9.96321C30.8133 8.67678 30.7383 7.20037 31.0383 5.79729C31.0617 6.31912 31.229 6.82431 31.5215 7.25703C31.5532 7.30036 31.6199 7.30869 31.6415 7.25703C31.8081 6.82377 31.8082 6.36886 31.8981 5.92394C31.9398 5.71064 31.9931 5.50068 32.0548 5.29238C32.1057 5.58003 32.193 5.86002 32.3147 6.12557C32.3159 6.16585 32.3204 6.20598 32.3281 6.24555C32.3364 6.30054 32.4214 6.34886 32.4597 6.29554C32.818 5.79563 32.8513 5.13908 32.8563 4.52585C33.1129 5.39403 33.2762 6.27221 33.1479 7.19204C33.1479 7.2537 33.2329 7.35868 33.2812 7.28036C33.7411 6.55216 33.8728 5.61399 33.8411 4.76748C33.8303 4.48824 33.8019 4.20996 33.7561 3.93429C34.0319 4.47845 34.1688 5.08242 34.1544 5.69231C34.1544 5.7623 34.2677 5.83395 34.296 5.74564C34.4623 5.21114 34.5339 4.65173 34.5077 4.0926C34.8318 5.02574 34.8632 6.03561 34.5976 6.98708C34.5793 7.05207 34.6876 7.15372 34.731 7.07373C35.349 6.00345 35.6224 4.76884 35.5142 3.5377C35.5008 3.39606 35.4858 3.24608 35.4658 3.09444C35.7199 3.59641 35.8669 4.14571 35.8974 4.70749C35.8974 4.77414 36.0074 4.84913 36.0391 4.76081C36.235 4.21649 36.3222 3.63902 36.2957 3.06112C36.5211 3.44377 36.6573 3.87231 36.6942 4.31487C36.7311 4.75742 36.6678 5.20261 36.509 5.61732C36.4823 5.68565 36.5923 5.7673 36.6439 5.70564C37.2372 4.98577 37.6138 3.82598 37.4321 2.89448C37.3729 2.58953 37.2696 2.29483 37.1255 2.01964C37.292 2.144 37.4426 2.28839 37.5738 2.44956C37.6221 2.50622 37.7088 2.48955 37.6938 2.40623C37.6 1.93303 37.3748 1.49583 37.0439 1.14479C37.678 1.37329 38.2669 1.71174 38.7836 2.14461C38.8486 2.19961 38.9069 2.14461 38.8802 2.06796C38.4586 1.02148 37.3971 0.401595 36.3973 0.00833183L36.3623 0C36.9196 0.18267 37.4468 0.446577 37.9271 0.783193C38.1736 0.951422 38.3928 1.15656 38.5769 1.39142L38.6769 1.47973C39.1885 1.97964 39.5101 2.68285 39.7317 3.35773C39.8605 3.80042 39.903 4.26376 39.8567 4.72249C39.8114 4.9894 39.7348 5.25005 39.6284 5.49901C39.6682 5.13817 39.6283 4.773 39.5118 4.4292C39.5174 4.78805 39.4957 5.14681 39.4468 5.50235C39.4351 5.30277 39.3895 5.10665 39.3118 4.92245C39.1948 4.38845 38.9758 3.88205 38.6669 3.43105C38.5903 3.3194 38.5003 3.21609 38.4253 3.11611C38.4336 3.14277 38.4453 3.1661 38.4536 3.19443C38.5639 3.59684 38.5928 4.01719 38.5387 4.43092C38.4847 4.84464 38.3487 5.24344 38.1387 5.60399C38.0366 5.7465 37.9148 5.87384 37.7771 5.98226C38.077 5.48197 38.1887 4.89113 38.092 4.31589C38.0182 4.92976 37.7779 5.51175 37.3971 5.99892C37.3478 6.10492 37.2922 6.20786 37.2305 6.3072C37.1536 6.41521 37.0653 6.51465 36.9672 6.60381C37.4691 5.90084 37.741 5.05966 37.7454 4.19591C37.7179 4.54556 37.637 4.88893 37.5055 5.21406C37.3138 5.62414 37.0726 6.00916 36.7873 6.36052C36.7289 6.49217 36.6689 6.62048 36.6056 6.74879C36.3791 7.14999 36.2059 7.57911 36.0907 8.02523C36.074 8.06189 36.0591 8.10188 36.0441 8.1402C36.0765 7.82169 36.1568 7.5099 36.2823 7.21537C36.249 7.27203 36.214 7.32702 36.1774 7.38201C35.947 7.77842 35.6797 8.15223 35.3792 8.49847V8.49847C35.57 8.09365 35.7094 7.66651 35.7941 7.22704C35.7966 7.21888 35.7966 7.21019 35.7941 7.20204C35.7941 7.17871 35.8074 7.15705 35.8124 7.13372C35.8898 6.79378 35.935 6.44732 35.9474 6.0989C35.9157 6.20722 35.8841 6.31387 35.8491 6.41885C35.5841 7.21204 35.2742 8.04189 34.741 8.69844C34.7293 8.83341 34.721 8.96839 34.7143 9.10337C34.6446 9.44643 34.6239 9.79763 34.6526 10.1465C34.5243 9.92988 34.511 9.59328 34.4427 9.35665C34.4127 9.25334 34.3877 9.15002 34.3594 9.04671C34.3847 9.38852 34.3275 9.73141 34.1927 10.0465C34.182 10.0597 34.1682 10.0698 34.1524 10.076C34.1367 10.0822 34.1196 10.0842 34.1028 10.0819C34.0861 10.0795 34.0702 10.0729 34.0568 10.0626C34.0433 10.0523 34.0327 10.0388 34.0261 10.0232C33.9161 9.71492 33.7995 9.40998 33.6795 9.10337C33.5414 8.77573 33.3741 8.46118 33.1796 8.16353C33.2612 8.68344 33.3245 9.20501 33.4029 9.72492C33.4995 10.3615 33.7528 10.928 33.9128 11.5413C33.9294 11.6029 33.8644 11.6196 33.8178 11.5996C33.8938 11.7343 33.9537 11.8775 33.9961 12.0262C33.8588 12.0309 33.7234 11.9937 33.6078 11.9195C33.5245 11.8345 33.4495 11.7362 33.3779 11.6662C33.3395 11.6262 33.2979 11.5846 33.2579 11.5396C33.3412 11.7801 33.3878 12.0318 33.3962 12.2861C33.3504 12.4309 33.2842 12.5684 33.1996 12.6944C33.1912 12.685 33.1844 12.6743 33.1796 12.6627C33.1179 12.4611 33.0646 12.2811 32.9929 12.1095C33.0355 12.2572 33.065 12.4083 33.0813 12.5611C33.0913 12.6577 32.9863 12.6894 32.9146 12.6327L32.788 12.5294C32.9296 12.7377 33.1096 12.9443 33.1612 13.176C33.0791 13.1395 32.9944 13.1089 32.908 13.0843C32.6969 12.887 32.4604 12.7189 32.2047 12.5844C32.3031 12.6777 32.3997 12.771 32.503 12.8527C32.3014 12.8027 32.0998 12.7477 31.9015 12.6861C31.8642 12.6675 31.8258 12.6514 31.7865 12.6377C30.7001 12.2356 29.6484 11.7451 28.6421 11.1713C27.7305 10.6531 26.7724 10.0882 26.0975 9.27C25.3422 8.32713 24.9539 7.14264 25.0044 5.9356V5.9356Z" fill="#392828"/>
</g>
<path d="M32.7477 8.33436C32.8526 8.25707 32.9743 8.2055 33.1028 8.18379C33.3551 8.14933 33.6111 8.21128 33.8197 8.35728C34.3435 8.70917 34.6724 9.59953 34.7755 10.246C34.8246 10.5619 34.8934 10.9973 34.7363 11.2706C34.476 11.7256 33.8508 11.0644 33.53 10.8451C32.8851 10.4048 32.6282 10.3459 32.4416 9.74684C32.1928 8.93667 32.4792 8.52586 32.7477 8.33436Z" fill="#F1D2B3"/>
<path d="M33.2894 10.0267C33.3696 10.2051 33.5005 10.3558 33.6658 10.4603C33.8311 10.5648 34.0235 10.6183 34.219 10.6143C34.3827 10.6012 34.5071 10.5374 34.44 10.3491C34.3979 10.2639 34.3355 10.1902 34.2583 10.1347C34.1454 10.0545 34.1061 9.81558 34.0946 9.6912C34.0504 9.36385 34.0194 8.91867 33.5562 8.95468C33.1257 8.98578 33.0979 9.39495 33.1846 9.73866C33.2096 9.838 33.2447 9.93453 33.2894 10.0267Z" fill="#E7C19C"/>
<path d="M23.9766 17.4737C23.0224 17.8649 21.9111 19.8257 21.659 20.1743C20.9302 21.1998 20.255 22.2623 19.6361 23.3577C19.0469 24.4019 18.7032 25.0877 18.731 25.2874L19.3857 25.7244C19.7965 26.0206 19.5035 26.0615 24.0421 21.5737L25.6952 19.6096C26.0012 18.6456 24.9537 16.7912 23.9766 17.4737Z" fill="#E7C19C"/>
<path d="M24.1256 20.1186L33.098 18.0777C33.589 17.8453 34.0063 17.4017 34.0113 16.3788C34.0113 16.3788 33.805 14.7568 31.8966 15.0252L24.4087 17.297C23.4938 18.0089 23.1795 20.1056 24.1256 20.1186Z" fill="#E7C19C"/>
<path d="M34.7082 15.9546L34.7084 15.9555L34.7084 15.9562L34.7086 15.9593L34.7089 15.9716C34.7092 15.9825 34.7094 15.9985 34.7092 16.0192C34.7087 16.0606 34.7067 16.1207 34.7002 16.1953C34.6872 16.3444 34.6563 16.5513 34.585 16.7826C34.4425 17.2451 34.1383 17.8049 33.4915 18.1945C33.15 18.3987 32.6318 18.5773 32.046 18.7302C31.4604 18.8832 30.8077 19.0104 30.1977 19.112C29.5877 19.2137 29.0205 19.2898 28.6057 19.3405C28.3984 19.3658 28.2291 19.3848 28.1117 19.3975C28.053 19.4038 28.0073 19.4085 27.9762 19.4117L27.9408 19.4152L27.9318 19.4161L27.9314 19.4162C27.5133 18.9112 27.1445 18.3686 26.9489 17.817C26.7532 17.2653 26.7307 16.7048 27.0048 16.1636L31.1581 14.7895C32.7765 14.4992 33.664 14.7918 34.1467 15.1558C34.3882 15.3379 34.5286 15.5381 34.6087 15.6926C34.6488 15.7699 34.6737 15.8358 34.6887 15.8823C34.6961 15.9055 34.7011 15.924 34.7042 15.9365L34.7075 15.9509L34.7082 15.9546Z" fill="white" stroke="black" stroke-width="0.01"/>
<path d="M26.7337 25.8908L26.7337 25.8908C26.6849 25.9646 26.6242 26.0546 26.5544 26.1581C26.2627 26.5906 25.813 27.2575 25.4137 27.9511C25.1663 28.3809 24.9384 28.8207 24.7794 29.2212C24.6205 29.6219 24.5308 29.9826 24.5594 30.2542C24.5711 30.3595 24.6215 30.471 24.7026 30.5863C24.7837 30.7015 24.8951 30.8203 25.0286 30.9399C25.2954 31.1793 25.6495 31.4218 26.022 31.647C26.7671 32.0973 27.5852 32.4778 27.9247 32.6234C28.5244 32.8787 29.4381 33.2353 30.4664 33.4189C31.4948 33.6025 32.6373 33.6131 33.6951 33.1766L33.6951 33.1766C33.7888 33.1384 33.8813 33.053 33.9718 32.9309C34.0623 32.8088 34.1505 32.6504 34.2359 32.4669C34.4066 32.0999 34.5656 31.633 34.7082 31.1564C34.8508 30.6798 34.9769 30.1937 35.0819 29.7883L35.0853 29.7753C35.1886 29.3761 35.2714 29.0565 35.329 28.9043L35.3291 28.9043C35.988 27.2295 36.539 25.5142 36.9787 23.7689C36.9787 23.7689 36.9787 23.7689 36.9787 23.7689L36.9835 23.7701C37.4044 21.9958 37.0936 20.3671 36.7696 18.6689C36.6841 18.221 36.5977 17.7683 36.5236 17.3068L26.7337 25.8908ZM26.7337 25.8908C27.5501 24.6473 28.1656 23.2832 28.5577 21.8483C29.0276 20.2039 29.5825 18.585 30.2202 16.9981C30.3497 16.7991 30.4905 16.6075 30.6419 16.4245L30.6419 16.4246L30.6424 16.4238C31.0793 15.654 31.6813 14.9905 32.4052 14.4811C32.7785 14.2365 33.1685 14.2071 33.595 14.3446C34.0219 14.4822 34.4853 14.7869 35.0048 15.2107C35.5227 15.6675 35.9484 16.2192 36.2589 16.836L36.2589 16.8361C36.339 16.9881 36.4224 17.145 36.5188 17.3085L26.7337 25.8908Z" fill="white" stroke="black" stroke-width="0.01"/>
<path d="M32.1753 14.6436L32.1738 14.6429C32.3797 14.2654 32.6214 13.9084 32.8955 13.5771C33.1897 13.6058 33.5708 13.7496 33.9769 13.9542C34.3842 14.1593 34.8161 14.4252 35.2098 14.6965C35.6035 14.9678 35.9589 15.2444 36.2131 15.4709C36.3403 15.5842 36.442 15.6849 36.5106 15.766C36.5449 15.8066 36.5708 15.8422 36.5875 15.8719C36.6042 15.9019 36.6111 15.925 36.6087 15.941C36.5874 16.0831 36.5188 16.343 36.4554 16.5677C36.4237 16.68 36.3933 16.7834 36.3708 16.8587L36.3439 16.9482L36.3365 16.9727L36.336 16.9743C35.4245 16.269 34.3839 15.6861 33.5706 15.2794C33.163 15.0755 32.8125 14.9159 32.5639 14.8073C32.4396 14.7529 32.3408 14.7113 32.273 14.6833C32.2391 14.6693 32.213 14.6587 32.1954 14.6516L32.1753 14.6436Z" fill="white" stroke="black" stroke-width="0.01"/>
<path d="M16.1744 28.1058C16.1754 28.2051 16.1847 28.3042 16.2023 28.402C16.2563 28.695 16.3659 28.6933 16.6327 28.6459C16.626 28.7223 16.6354 28.7993 16.6606 28.8717C16.6832 28.9394 16.7214 29.0008 16.7719 29.0511C16.8225 29.1014 16.8841 29.1392 16.9519 29.1614C17.0599 29.2024 17.1614 29.1189 17.2661 29.132C17.2804 29.2542 17.3386 29.367 17.4298 29.4495C17.6098 29.587 18.1156 29.5444 18.3087 29.4626C18.8816 29.2204 19.3709 28.6606 19.6426 28.0616C19.7899 27.8586 19.9209 27.6393 20.0518 27.4593C20.2744 27.1565 20.2744 26.6884 20.2695 26.3299C20.2695 26.1221 20.2809 25.8979 20.2597 25.6834C20.2805 25.5017 20.2497 25.3177 20.1706 25.1526C20.0916 24.9876 19.9676 24.8482 19.8128 24.7505C19.4004 24.5017 19.0567 24.5754 18.7015 24.7505C18.1834 24.8825 17.6903 25.0981 17.2416 25.3888C16.8308 25.6532 16.5341 26.062 16.4101 26.5345C16.3156 26.5673 16.2271 26.6154 16.1483 26.6769C15.8978 26.8946 15.5672 28.1467 16.1744 28.1058Z" fill="#E7C19C"/>
<path d="M16.9666 26.7702C16.6072 27.092 16.3476 27.51 16.2186 27.9748C16.2186 28.001 16.2186 28.0272 16.2186 28.055C16.3231 27.6851 16.5037 27.3412 16.7489 27.0452C16.9421 26.8324 17.7097 26.1761 17.731 26.9584C17.6819 26.983 17.6393 27.0075 17.6082 27.0272C17.1008 27.3545 16.7653 28.0256 16.6033 28.5919C16.6048 28.6045 16.6087 28.6167 16.6147 28.6279V28.6279C16.7588 28.2596 16.9421 27.7522 17.2187 27.4658C17.3624 27.2856 17.5363 27.1316 17.7326 27.0108C18.0403 26.875 18.204 27.0108 18.1696 27.2907C18.0967 27.3408 18.0297 27.399 17.9699 27.4642C17.8691 27.5677 17.7862 27.6871 17.7244 27.8177C17.6447 27.8361 17.5701 27.8721 17.5061 27.9231C17.4421 27.9741 17.3903 28.0387 17.3545 28.1123C17.1908 28.4757 17.4642 28.4397 17.767 28.4888C17.9563 28.5332 18.1398 28.5996 18.3136 28.6868C18.302 28.8694 18.2397 29.0451 18.1336 29.1942C18.1336 29.1942 18.1336 29.1942 18.1336 29.1942C18.2014 29.1301 18.2547 29.0523 18.29 28.9659C18.3253 28.8795 18.3417 28.7866 18.3382 28.6933C18.4445 28.75 18.5657 28.7723 18.6853 28.7574C18.8048 28.7425 18.9168 28.6909 19.0059 28.6099C19.4239 28.2324 19.7909 27.8022 20.0976 27.33C19.8398 27.6846 19.5565 28.0199 19.2498 28.3333C18.9339 28.6459 18.7163 28.7997 18.2449 28.6197C18.1164 28.5508 17.9809 28.4959 17.8406 28.456C17.749 28.4413 17.6491 28.4315 17.5542 28.4167C17.5125 28.4257 17.4691 28.4217 17.4298 28.4053C17.4005 28.39 17.3765 28.3661 17.361 28.3369C17.3456 28.3077 17.3393 28.2745 17.3431 28.2416C17.3234 28.1303 17.4118 28.0452 17.5165 27.9846C17.5496 27.9595 17.5859 27.9391 17.6246 27.9241L17.6753 27.9126L17.7375 27.893C17.9012 27.8406 18.0828 27.8308 18.2531 27.7833C18.432 27.7213 18.5936 27.6175 18.7244 27.4805C18.9323 27.0092 18.7604 26.402 19.096 25.9502C18.7539 26.3709 18.8374 26.9322 18.6802 27.4134C18.6687 27.4326 18.6561 27.4512 18.6426 27.4691C18.639 27.4458 18.6318 27.4231 18.6213 27.402C18.5943 27.3512 18.5543 27.3083 18.5055 27.2779C18.4566 27.2474 18.4006 27.2304 18.3431 27.2285C18.2842 27.2305 18.2273 27.2498 18.1794 27.2841C18.2187 27.1385 18.2531 27.0337 18.1352 26.9306C18.0174 26.8275 17.8652 26.8897 17.7359 26.9519C17.7833 26.4969 17.4347 26.438 17.0976 26.6671C17.0538 26.6969 17.0117 26.7292 16.9715 26.7637C16.9715 26.6573 17.0157 26.5149 16.8881 26.4756C16.7811 26.4469 16.6689 26.4441 16.5607 26.4674C16.5271 26.497 16.4915 26.5243 16.4543 26.5493C16.5754 26.5169 16.7007 26.5036 16.8259 26.51C16.9846 26.5296 16.9568 26.654 16.9666 26.7702ZM18.2612 27.3201C18.3 27.2941 18.3463 27.2817 18.3928 27.285C18.4394 27.2882 18.4835 27.307 18.5182 27.3382C18.5501 27.3543 18.5765 27.3796 18.594 27.4108C18.6115 27.4419 18.6193 27.4776 18.6164 27.5133C18.4069 27.7588 18.0485 27.7375 17.7555 27.8177C17.8371 27.6918 17.9363 27.5783 18.0501 27.4805C18.1138 27.4188 18.1847 27.365 18.2612 27.3201Z" fill="#C3A476"/>
<path d="M17.3087 28.9568C17.3443 28.7912 17.4068 28.6326 17.4936 28.4871C17.5034 28.4756 17.5198 28.4953 17.5133 28.5067C17.4561 28.624 17.4095 28.7461 17.3741 28.8717C17.325 29.0059 17.2465 29.1598 17.3218 29.3055C17.2962 29.2512 17.2819 29.1924 17.2797 29.1325C17.2774 29.0726 17.2873 29.0128 17.3087 28.9568V28.9568Z" fill="#C3A476"/>
<path d="M39.9885 24.2104C39.1063 24.5132 38.9475 23.3233 38.9901 22.7636C39.0915 21.3953 40.7904 20.7668 41.8117 20.1448C44.8511 18.4819 45.7611 17.8142 46.3225 17.4508C46.4236 17.4382 46.5263 17.4502 46.6218 17.4858C46.7172 17.5214 46.8027 17.5796 46.8708 17.6554C46.9475 17.7444 47.0034 17.8493 47.0345 17.9625C47.0657 18.0757 47.0712 18.1944 47.0508 18.3101C46.9608 18.5818 46.6842 18.914 46.0213 19.5687C45.1253 20.4453 44.1852 21.2756 43.2046 22.0565C42.8609 22.3216 41.0147 24.0909 39.9885 24.2104Z" fill="#F1D2B3"/>
<path d="M41.4762 22.6032C41.4762 22.6032 36.3828 17.7847 35.2568 16.8011C35.2568 16.8011 32.9539 18.2103 33.3696 18.8748L39.3142 24.0811C40.306 24.8144 41.5122 23.0958 41.4762 22.6032Z" fill="#F1D2B3"/>
<path d="M32.7739 16.1906L32.7769 16.1946L32.7773 16.1942L32.7739 16.1906ZM32.7739 16.1906L32.7773 16.1942L32.7773 16.1942L32.7774 16.1941L32.7777 16.1938L32.7789 16.1927L32.784 16.1883C32.7885 16.1844 32.7954 16.1788 32.8047 16.1717C32.8231 16.1575 32.8511 16.1376 32.8891 16.1148C32.9649 16.0692 33.0806 16.012 33.2393 15.966C33.5567 15.874 34.0468 15.8265 34.7367 16.0055C35.0685 16.0916 35.4851 16.3771 35.9327 16.7674C36.38 17.1576 36.8577 17.6521 37.3116 18.1551C37.7655 18.6581 38.1956 19.1696 38.5479 19.594C38.6291 19.6918 38.7062 19.7851 38.7785 19.8725C39.0167 20.1606 39.2028 20.3856 39.313 20.5055C38.375 21.1026 37.8676 21.4341 37.256 22.3613C37.0994 22.562 36.9565 22.7731 36.8284 22.9931L32.7303 19.3969C32.0848 18.2927 32.0971 17.492 32.27 16.9677C32.3565 16.7054 32.4833 16.5121 32.5885 16.3843C32.6411 16.3204 32.6882 16.2729 32.7222 16.2414C32.7392 16.2257 32.7529 16.214 32.7623 16.2062L32.7732 16.1974L32.7759 16.1953L32.7766 16.1947L32.7768 16.1946L32.7769 16.1946L32.7739 16.1906Z" fill="white" stroke="white" stroke-width="0.01"/>
<path d="M44.7889 18.6931C44.7398 18.4541 45.005 18.2021 45.149 18.004C45.3618 17.4345 45.6531 16.8812 45.8659 16.3149C46.1105 15.6422 46.5202 15.0417 47.0574 14.5686C47.5484 14.1447 48.028 14.2412 48.6205 14.3493C49.0018 14.4213 49.8185 14.436 49.7334 15.0039C49.8671 15.0267 49.9982 15.0629 50.1246 15.112C50.3963 15.22 50.6303 15.5555 50.4421 15.837H50.4339C50.7138 15.9336 50.8857 16.1284 50.7842 16.5801C50.8081 16.5964 50.8278 16.6183 50.8415 16.6439C50.8707 16.7076 50.8895 16.7756 50.8971 16.8452C50.8513 17.0286 50.8186 17.2217 50.7793 17.4066C50.7629 17.4492 50.7465 17.4917 50.7285 17.5343C50.7194 17.5396 50.7116 17.5468 50.7056 17.5556C50.578 17.7831 50.3963 18.0089 50.1148 18.0466C49.9315 18.0662 49.663 18.094 49.5567 17.8829C49.5354 17.842 49.4339 17.7945 49.4126 17.86C49.3619 18.0057 49.303 18.1497 49.2408 18.2954C49.1442 18.4134 49.0343 18.5199 48.9134 18.6129C48.2817 19.0924 47.6745 19.4149 46.8676 19.3658C46.735 19.3658 46.6024 19.3461 46.4715 19.3281C46.2505 19.2982 46.026 19.3444 45.8348 19.4591C45.7437 19.4903 45.6461 19.4982 45.5512 19.4819C45.4562 19.4656 45.3669 19.4256 45.2914 19.3658C45.0454 19.2126 44.866 18.9725 44.7889 18.6931Z" fill="#F1D2B3"/>
<path d="M49.1982 16.3199C49.4764 16.2724 49.74 16.3788 50.0166 16.4148C50.2932 16.4508 50.6254 16.4246 50.8349 16.6456C50.5992 16.4573 50.2473 16.4819 49.9593 16.441C49.7056 16.405 49.4519 16.2953 49.1982 16.3182C49.1966 16.3231 49.1949 16.3199 49.1982 16.3199Z" fill="#C3A476"/>
<path d="M48.9429 15.5588C49.0669 15.5728 49.1882 15.6048 49.303 15.6537C49.4811 15.6934 49.6615 15.7223 49.8431 15.7405C50.0935 15.7716 50.4323 15.7912 50.6352 15.9598C50.4208 15.7961 50.0329 15.7847 49.7711 15.7519C49.6172 15.7323 49.4552 15.7094 49.303 15.675C49.1835 15.6488 49.064 15.5784 48.9445 15.5637C48.9331 15.567 48.9331 15.5604 48.9429 15.5588Z" fill="#C3A476"/>
<path d="M48.6057 14.819C48.812 15.0416 49.2866 15.0187 49.5583 14.999C49.781 14.9944 50.0006 15.051 50.1933 15.1627C50.1933 15.1627 50.1933 15.1627 50.1933 15.1627C49.866 15.0203 49.5386 15.0547 49.1917 15.0219C48.9887 15.0023 48.7432 14.9958 48.6074 14.8206L48.6057 14.819Z" fill="#C3A476"/>
<path d="M48.0362 14.5539C47.9964 14.5388 47.9598 14.5166 47.9281 14.4884C47.9281 14.4884 47.9281 14.4884 47.9281 14.4884C47.9838 14.5391 48.0689 14.5408 48.1229 14.5964C48.1812 14.6757 48.2096 14.7731 48.2031 14.8714C48.2031 14.8845 48.1867 14.8812 48.1835 14.8714C48.1491 14.7486 48.1736 14.6341 48.0362 14.5539Z" fill="#C3A476"/>
<path d="M48.5108 15.5637C48.5517 15.621 48.6156 15.6586 48.6074 15.7388C48.6074 15.7388 48.5926 15.7388 48.591 15.7388C48.5789 15.6748 48.5514 15.6147 48.5108 15.5637V15.5637Z" fill="#C3A476"/>
<path d="M49.082 18.4067C49.2866 18.243 49.3521 17.986 49.4683 17.7651C49.4701 17.7441 49.4733 17.7233 49.4781 17.7029C49.4781 17.6898 49.4961 17.6931 49.501 17.7029C49.5253 17.6287 49.5702 17.5628 49.6303 17.513C49.7042 17.4543 49.7903 17.4129 49.8824 17.3919C49.9684 17.3815 50.0517 17.3548 50.1279 17.3133C50.1279 17.3133 50.1279 17.3133 50.1279 17.3133C50.0804 17.3723 49.9642 17.387 49.8955 17.4148C49.8033 17.4462 49.7207 17.5005 49.6555 17.5727C49.5902 17.6449 49.5443 17.7325 49.5223 17.8273C49.6385 18.1841 50.375 18.0679 50.5239 17.842C50.6274 17.6825 50.7146 17.5131 50.7842 17.3363C50.6451 17.698 50.5567 18.0057 50.1295 18.0777C49.9233 18.1121 49.5092 18.0679 49.4748 17.8207C49.4454 17.8845 49.4208 17.95 49.3963 18.0073C49.3484 18.1773 49.2417 18.3246 49.0951 18.423C49.0951 18.423 49.0738 18.4132 49.082 18.4067Z" fill="#C3A476"/>
</svg>
