<svg width="100" height="100" viewBox="0 0 100 100" fill="none" xmlns="http://www.w3.org/2000/svg">
<mask id="mask0_65_2130" style="mask-type:alpha" maskUnits="userSpaceOnUse" x="0" y="0" width="100" height="100">
<circle cx="50" cy="50" r="50" fill="#DAEED3"/>
</mask>
<g mask="url(#mask0_65_2130)">
<circle cx="50" cy="50" r="50" fill="#DAEED3"/>
<g clip-path="url(#clip0_65_2130)">
<path d="M64.7999 57.3C92.4999 66.5 88.1999 100.4 88.1999 100.4H11.9999C11.9999 99.7 10.5999 64.8 37.2999 56.7L41.0999 61.6H60.5999L64.7999 57.3Z" fill="#D48934"/>
<path d="M26.4998 83.8H25.7998V100.3H26.4998V83.8Z" fill="#C17325"/>
<path d="M78.2 83.8H77.5V100.3H78.2V83.8Z" fill="#C17325"/>
<path d="M70.1002 59.3C70.0002 59.2 69.9002 59.2 69.9002 59.3C69.5002 59.6 69.2002 60.1 68.9002 60.6C68.8002 60.6 68.8002 60.7 68.8002 60.8C68.7002 60.9 68.7002 61 68.6002 61.1C68.1002 61.8 67.6002 62.5 67.1002 63.1C67.0002 63.1 66.8002 63.1 66.7002 63.2C66.6002 63.2 66.5002 63.5 66.7002 63.5H66.8002C66.0002 64.5 65.2002 65.5 64.4002 66.5C63.7002 66.3 63.0002 66.3 62.6002 67C62.4002 67.4 62.6002 67.8 62.9002 68.1C62.9002 68.2 62.9002 68.2 62.9002 68.3C62.4002 68.1 61.8002 68.2 61.4002 68.7C61.2002 69 61.2002 69.4 61.5002 69.7L61.6002 69.8C61.5002 70 61.4002 70.2 61.5002 70.4C61.2002 70.3 60.9002 70.3 60.6002 70.5C60.3002 70.6 60.1002 70.9 60.1002 71.3C60.0002 71.5 59.9002 71.8 60.0002 72C59.8002 71.9 59.5002 71.8 59.3002 71.8C58.6002 71.8 58.3002 72.4 58.5002 73C58.3002 73.1 58.1002 73.4 58.0002 73.6C57.8002 73.5 57.5002 73.5 57.2002 73.5C56.9002 73.6 56.7002 73.8 56.6002 74.1H56.5002C56.2002 74.3 56.0002 74.6 56.0002 74.9C55.7002 74.7 55.3002 74.5 54.9002 74.6C54.6002 74.7 54.3002 75 54.3002 75.3C54.3002 75.4 54.3002 75.5 54.3002 75.5C54.2002 75.6 54.1002 75.7 54.1002 75.8C54.1002 75.8 54.1002 75.8 54.1002 75.9C53.8002 75.7 53.4002 75.5 53.1002 75.7C52.8002 75.8 52.5002 76 52.5002 76.3C52.3002 76.3 52.2002 76.4 52.1002 76.6C51.9002 76.4 51.7002 76.3 51.5002 76.3C51.2002 76.3 50.9002 76.4 50.7002 76.7L50.6002 76.8C50.4002 76.7 50.1002 76.7 49.9002 76.9C49.8002 77 49.8002 77.1 49.7002 77.2C49.3002 76.8 48.8002 76.9 48.5002 77.2C48.6002 76.9 48.3002 76.7 48.0002 76.7C47.7002 76.7 47.3002 76.8 47.1002 77.1C47.1002 77 47.0002 76.9 46.9002 76.9C46.5002 76.5 46.0002 76.5 45.7002 76.8C45.6002 76.5 45.3002 76.4 45.1002 76.4C45.0002 76.4 44.8002 76.5 44.7002 76.5C44.6002 76.2 44.5002 76 44.3002 75.8C44.1002 75.6 43.7002 75.6 43.5002 75.7C43.3002 75.8 43.2002 75.9 43.1002 76.1C43.0002 75.9 42.6002 75.7 42.4002 75.8C42.3002 75.8 42.3002 75.8 42.3002 75.9C42.3002 75.5 42.1002 75.1 41.7002 74.9C41.4002 74.8 41.1002 74.8 40.8002 75C40.8002 75 40.8002 75 40.7002 75.1C40.6002 75 40.5002 75 40.3002 75.1H40.2002C40.2002 74.9 40.2002 74.7 40.1002 74.6C39.9002 74.1 39.3002 74 38.9002 74.2C38.9002 74.1 38.8002 74.1 38.7002 74C38.5002 73.9 38.3002 73.8 38.1002 73.9C38.1002 73.6 38.1002 73.4 37.9002 73.1C37.8002 72.9 37.5002 72.8 37.2002 72.8C37.1002 72.7 37.0002 72.5 36.9002 72.5C36.7002 72.4 36.5002 72.4 36.4002 72.4C36.6002 72 36.6002 71.5 36.3002 71.1C36.1002 70.8 35.8002 70.8 35.4002 70.8C35.4002 70.7 35.3002 70.7 35.3002 70.6C35.1002 70.4 34.8002 70.3 34.6002 70.3C34.9002 69.8 35.0002 69.3 34.7002 68.8C34.6002 68.5 34.3002 68.4 34.0002 68.3C33.9002 68.1 33.6002 67.9 33.3002 68H33.2002C33.5002 67.5 33.8002 66.9 33.5002 66.4C33.3002 66.1 33.1002 65.9 32.8002 65.9C32.8002 65.7 32.6002 65.5 32.4002 65.4C32.1002 65.3 31.9002 65.3 31.6002 65.4C31.9002 65 32.1002 64.6 32.0002 64.2C31.9002 63.8 31.6002 63.5 31.2002 63.5C30.5002 63 30.0002 63 29.5002 63.2C29.5002 62.9 29.4002 62.7 29.3002 62.5C29.4002 62.5 29.5002 62.3 29.4002 62.3C28.8002 62 28.4002 61.7 27.7002 61.7C26.7002 61.7 26.5002 63 26.8002 63.6C27.6002 64.9 29.0002 64 29.1002 63.9C28.8002 64.3 28.5002 64.9 28.6002 65.2C28.8002 66.2 29.6002 66.5 30.3002 66.2C30.1002 66.5 29.9002 66.9 29.8002 67.3C29.7002 67.9 30.2002 68.6 30.8002 68.8C31.1002 68.9 31.5002 68.9 31.8002 68.8C31.7002 68.9 31.6002 69.1 31.6002 69.2C31.5002 69.5 31.4002 69.9 31.5002 70.2C31.6002 70.7 31.9002 70.9 32.4002 71.1C32.7002 71.2 33.0002 71.3 33.4002 71.2C33.1002 71.8 33.4002 72.6 33.9002 73.1C34.3002 73.4 34.7002 73.4 35.1002 73.3C35.0002 73.7 35.1002 74.2 35.4002 74.6C35.9002 75.1 36.6002 75.2 37.2002 74.9C37.2002 75.4 37.4002 75.8 37.8002 76.1C38.3002 76.4 38.9002 76.5 39.4002 76.3C39.4002 76.7 39.6002 77.1 39.9002 77.4C40.3002 77.7 40.9002 77.8 41.3002 77.6C41.4002 77.5 41.6002 77.5 41.7002 77.4C41.8002 77.7 42.0002 78 42.2002 78.3C42.6002 78.6 43.3002 78.7 43.7002 78.5C43.8002 78.4 44.0002 78.4 44.1002 78.3C44.2002 78.7 44.6002 79.1 45.0002 79.3C45.7002 79.6 46.4002 79.4 46.9002 78.8C46.9002 78.8 46.9002 78.7 47.0002 78.7V78.8C47.5002 79.9 48.9002 80.1 49.6002 79.1C49.6002 79 49.7002 79 49.7002 78.9C49.8002 79.1 49.9002 79.2 50.1002 79.3C50.5002 79.6 51.3002 79.6 51.7002 79.3C52.0002 79.1 52.2002 78.8 52.4002 78.5C52.9002 78.9 53.5002 79 54.1002 78.7C54.5002 78.5 54.7002 78.2 54.8002 77.9C55.0002 78 55.2002 78.1 55.4002 78.1C55.8002 78.1 56.3002 77.9 56.6002 77.5C56.8002 77.2 56.9002 76.9 56.9002 76.5C57.2002 76.7 57.7002 76.8 58.0002 76.7C58.7002 76.5 59.0002 75.9 59.1002 75.3C59.2002 75.3 59.3002 75.4 59.5002 75.4C60.7002 75.6 61.3002 74.4 61.2002 73.4C61.5002 73.5 61.8002 73.5 62.1002 73.5C63.0002 73.4 63.3002 72.5 63.0002 71.7C63.5002 71.8 64.1002 71.6 64.4002 71.1C64.6002 70.8 64.6002 70.5 64.6002 70.1C64.9002 70.2 65.2002 70.1 65.5002 70C66.2002 69.7 66.3002 68.8 66.2002 68.2C66.2002 68.1 66.1002 68 66.1002 67.9H66.2002C66.7002 68 67.6002 67.9 67.8002 67.5C68.0002 67.1 68.1002 66.6 67.9002 66.1C67.9002 66.1 67.9002 66.1 67.9002 66C68.5002 66.1 69.2002 65.8 69.3002 65.1C69.4002 64.6 69.3002 64.2 69.0002 63.9C69.5002 64.1 70.0002 64 70.4002 63.5C70.9002 62.9 70.6002 62.3 70.2002 61.9C70.6002 62.1 71.4002 62 71.6002 61.7C72.0002 60.6 71.3002 59.3 70.1002 59.3Z" fill="#E30613"/>
<path d="M48.2 79.6C47.6 79.6 47.1 79.2 46.8 78.7C46.3 79.2 45.5 79.4 44.8 79.1C44.4 78.9 44.1 78.6 43.9 78.2C43.8 78.3 43.7 78.3 43.7 78.3C43.2 78.5 42.4 78.4 42 78.1C41.8 77.9 41.6 77.7 41.5 77.4C41.4 77.4 41.4 77.5 41.3 77.5C40.8 77.7 40.1 77.6 39.7 77.3C39.4 77 39.2 76.7 39.1 76.3C38.6 76.5 38 76.4 37.6 76C37.3 75.8 37 75.4 37 75C36.3 75.2 35.6 75 35.2 74.6C34.9 74.3 34.8 73.8 34.8 73.4C34.4 73.5 34 73.4 33.7 73.1C33.2 72.7 32.9 72 33.1 71.3C32.8 71.3 32.6 71.3 32.3 71.2C31.9 71 31.5 70.8 31.4 70.2C31.3 69.9 31.3 69.5 31.5 69.1C31.5 69.1 31.5 69 31.6 69C31.4 69 31.1 69 30.9 68.9C30.3 68.7 29.7 68 29.8 67.3C29.9 67 29.9 66.7 30.1 66.5C30 66.5 29.9 66.5 29.9 66.5C29.2 66.5 28.7 66 28.6 65.3C28.5 65 28.7 64.7 28.8 64.4C27.9 64.7 27.2 64.5 26.8 63.8C26.6 63.4 26.6 62.7 26.9 62.3C27.1 61.9 27.4 61.7 27.8 61.7C28.5 61.7 28.9 61.9 29.5 62.3L29.6 62.4C29.7 62.5 29.8 62.6 29.7 62.7C29.7 62.7 29.7 62.8 29.6 62.8C29.7 62.9 29.8 63.1 29.8 63.3C30.3 63.1 30.8 63.2 31.1 63.5C31.6 63.6 31.9 63.9 32 64.3C32.1 64.6 32 65 31.8 65.3C32 65.3 32.1 65.3 32.3 65.4C32.5 65.5 32.7 65.7 32.8 65.9C33.1 66 33.3 66.2 33.5 66.5C33.7 66.9 33.7 67.5 33.4 68C33.6 68 33.9 68.1 34 68.3C34.3 68.3 34.6 68.6 34.8 68.8C35 69.2 35 69.8 34.8 70.2C35 70.2 35.2 70.3 35.3 70.5L35.4 70.6C35.8 70.6 36.1 70.7 36.3 70.9C36.6 71.3 36.7 71.7 36.5 72.1C36.6 72.1 36.8 72.1 36.9 72.2C37.1 72.3 37.2 72.4 37.3 72.5C37.6 72.5 37.9 72.6 38 72.8C38.2 73 38.2 73.3 38.2 73.5C38.4 73.5 38.6 73.6 38.7 73.7C38.8 73.7 38.8 73.8 38.8 73.8C38.9 73.8 39.1 73.7 39.2 73.7C39.6 73.7 39.9 73.9 40 74.3C40.1 74.4 40.1 74.6 40.1 74.7C40.2 74.7 40.3 74.7 40.4 74.7C40.7 74.5 41.1 74.4 41.4 74.6C41.8 74.8 42 75.1 42.1 75.5C42.3 75.4 42.6 75.5 42.8 75.6C42.9 75.5 43 75.4 43.1 75.3C43.4 75.1 43.9 75.2 44.1 75.4C44.3 75.6 44.5 75.8 44.5 76C44.6 76 44.7 75.9 44.7 75.9C45 75.8 45.3 76 45.4 76.2C45.8 76 46.3 76 46.7 76.4L46.8 76.5C47.1 76.3 47.4 76.2 47.7 76.2C47.9 76.2 48.2 76.3 48.3 76.5V76.6C48.6 76.4 49 76.4 49.3 76.7L49.4 76.6C49.6 76.4 49.9 76.3 50.2 76.4C50.4 76.1 50.7 76 51.1 76C51.3 76 51.5 76.1 51.7 76.2C51.8 76.1 51.9 76.1 52 76C52.1 75.7 52.4 75.4 52.7 75.4C53 75.3 53.4 75.4 53.7 75.6C53.7 75.5 53.8 75.5 53.8 75.4C53.8 75.3 53.8 75.3 53.8 75.2C53.8 74.8 54.2 74.4 54.5 74.3C54.8 74.2 55.2 74.3 55.5 74.5C55.6 74.2 55.8 73.9 56.1 73.8C56.1 73.8 56.1 73.8 56.2 73.8C56.3 73.5 56.6 73.3 56.9 73.2C57.1 73.2 57.4 73.2 57.6 73.2C57.7 73 57.8 72.8 58 72.7C57.9 72.4 58 72.1 58.1 71.8C58.3 71.5 58.6 71.4 59 71.4H59.1C59.3 71.4 59.4 71.4 59.6 71.5C59.6 71.3 59.7 71.1 59.7 71C59.7 70.6 59.9 70.3 60.2 70.1C60.5 70 60.7 70 61 70C61 69.9 61 69.7 61.1 69.6C60.8 69.3 60.8 68.7 61 68.4C61.3 68 61.9 67.8 62.4 67.9C62.2 67.6 62 67.2 62.2 66.8C62.5 66.3 62.9 66 63.5 66.1C63.7 66.1 63.8 66.1 64 66.2C64.8 65.3 65.5 64.4 66.2 63.5C66.1 63.5 66.1 63.4 66.1 63.3C66.1 63.1 66.2 63 66.3 62.9C66.4 62.9 66.5 62.8 66.7 62.8C67.1 62.2 67.7 61.5 68.1 60.8C68.2 60.7 68.2 60.6 68.3 60.5C68.3 60.4 68.4 60.3 68.4 60.3C68.7 59.8 69 59.3 69.4 59C69.5 58.9 69.7 58.9 69.8 59C70.4 59 70.9 59.4 71.2 60C71.4 60.5 71.4 61.1 71 61.5C70.8 61.8 70.3 61.9 69.9 61.9C70.2 62.3 70.2 62.9 69.8 63.4C69.9 63.9 69.5 64 69 64C69.2 64.3 69.2 64.7 69.1 65C68.9 65.6 68.4 66.1 67.8 66C67.9 66.4 67.9 66.9 67.7 67.4C67.4 67.9 66.6 68 66 68V68.1C66.1 68.9 66 69.8 65.2 70.1C64.9 70.2 64.7 70.2 64.4 70.2C64.4 70.5 64.3 70.8 64.2 71C63.9 71.4 63.4 71.7 62.9 71.7C63 72.1 62.9 72.5 62.7 72.9C62.5 73.2 62.2 73.5 61.7 73.5C61.5 73.5 61.2 73.5 61 73.5C61 74.1 60.8 74.6 60.5 75C60.1 75.4 59.7 75.5 59.1 75.5C59 75.5 59 75.5 58.9 75.5C58.8 76.2 58.4 76.7 57.7 76.9C57.4 77 57 76.9 56.7 76.8C56.7 77.1 56.6 77.3 56.4 77.6C56.2 78 55.6 78.3 55.1 78.2C54.9 78.2 54.7 78.1 54.6 78C54.5 78.3 54.2 78.6 53.9 78.7C53.4 79 52.7 78.9 52.2 78.6C52 78.9 51.8 79.1 51.6 79.3C51.3 79.5 51 79.5 50.6 79.5C50.3 79.5 50 79.4 49.8 79.2C49.7 79.1 49.6 79 49.5 78.9C49.3 79.4 48.8 79.6 48.2 79.6ZM46.8 78.2C46.9 78.2 46.9 78.2 46.8 78.2C46.9 78.2 46.9 78.2 46.9 78.3V78.4C47.1 78.9 47.6 79.2 48.1 79.3C48.6 79.3 49 79.1 49.3 78.7C49.3 78.6 49.4 78.6 49.4 78.5L49.5 78.4C49.6 78.4 49.6 78.4 49.6 78.5C49.7 78.6 49.8 78.8 50 78.9C50.4 79.2 51.1 79.2 51.4 78.9C51.7 78.7 51.9 78.5 52 78.2L52.1 78.1H52.2C52.6 78.4 53.2 78.5 53.7 78.3C54.1 78.1 54.3 77.8 54.3 77.6L54.4 77.5H54.5C54.7 77.6 54.9 77.7 55 77.7C55.4 77.7 55.8 77.5 56 77.2C56.2 76.9 56.2 76.6 56.2 76.3C56.2 76.2 56.2 76.2 56.3 76.2C56.3 76.2 56.4 76.2 56.5 76.2C56.9 76.4 57.2 76.5 57.5 76.4C58.3 76.2 58.4 75.5 58.5 75.1C58.5 75 58.5 75 58.6 75H58.7C58.8 75 58.9 75.1 59 75.1C59.4 75.2 59.8 75 60.1 74.7C60.4 74.3 60.6 73.7 60.5 73.2C60.5 73.1 60.5 73.1 60.6 73.1C60.6 73.1 60.7 73.1 60.8 73.1C61 73.2 61.3 73.2 61.6 73.2C61.9 73.1 62.2 73 62.3 72.7C62.5 72.4 62.5 72 62.4 71.6C62.4 71.5 62.4 71.5 62.4 71.5L62.5 71.4C63 71.5 63.5 71.3 63.7 70.9C63.8 70.6 63.9 70.4 63.9 70C63.9 70 63.9 69.9 64 69.9H64.1C64.4 70 64.6 69.9 64.9 69.8C65.5 69.6 65.6 68.7 65.5 68.2C65.5 68.1 65.5 68 65.4 67.9C65.4 67.8 65.4 67.8 65.4 67.7C65.4 67.7 65.5 67.6 65.6 67.7C65.7 67.7 65.7 67.7 65.7 67.7C65.8 67.7 65.8 67.7 65.9 67.7C66.4 67.7 66.9 67.6 67.1 67.3C67.3 66.9 67.3 66.4 67.2 66.1V66C67.2 65.9 67.2 65.9 67.2 65.8C67.2 65.8 67.3 65.7 67.4 65.7H67.5C67.9 65.7 68.5 65.5 68.6 64.9C68.7 64.5 68.6 64.1 68.3 63.8C68.3 63.7 68.3 63.7 68.3 63.6C68.3 63.5 68.4 63.5 68.5 63.5C68.6 63.5 68.7 63.6 68.8 63.6C69 63.6 69.4 63.6 69.7 63.2C70.1 62.7 69.9 62.1 69.5 61.8C69.4 61.7 69.4 61.7 69.5 61.6C69.5 61.5 69.6 61.5 69.7 61.6C69.8 61.6 69.9 61.7 70 61.7C70.4 61.7 70.8 61.6 70.9 61.4C71.2 61.1 71.2 60.6 71.1 60.2C70.9 59.7 70.5 59.4 70 59.4C69.9 59.4 69.9 59.4 69.9 59.3C69.5 59.6 69.2 60.1 69 60.5C69 60.5 69 60.6 68.9 60.6V60.7C68.8 60.8 68.8 60.9 68.7 61C68.2 61.7 67.7 62.4 67.2 63L67.1 63.1C67 63.1 66.8 63.1 66.7 63.2H66.8C66.9 63.2 66.9 63.2 66.9 63.3C66.9 63.4 66.9 63.4 66.9 63.4C66.2 64.4 65.3 65.4 64.5 66.4C64.5 66.4 64.4 66.5 64.3 66.4C64.1 66.3 63.9 66.3 63.8 66.3C63.3 66.3 63 66.5 62.8 66.9C62.7 67.2 62.8 67.6 63 67.8C63.1 67.8 63.1 67.9 63 68V68.1C63 68.1 63 68.2 62.9 68.2H62.8C62.3 68 61.8 68.2 61.5 68.5C61.3 68.7 61.4 69.1 61.5 69.3L61.6 69.4C61.7 69.4 61.7 69.5 61.6 69.6C61.5 69.8 61.5 69.9 61.5 70.1C61.5 70.2 61.5 70.2 61.4 70.2H61.3C61 70.1 60.7 70.1 60.5 70.2C60.2 70.3 60.1 70.6 60.1 70.8V70.9C60 71.1 60 71.3 60 71.6C60 71.7 60 71.7 59.9 71.7C59.9 71.7 59.8 71.7 59.7 71.7C59.5 71.6 59.3 71.5 59.1 71.5C58.8 71.5 58.6 71.6 58.5 71.8C58.4 72 58.3 72.2 58.4 72.5C58.4 72.6 58.4 72.7 58.3 72.7C58.1 72.8 58 73 57.9 73.2C57.9 73.2 57.9 73.3 57.8 73.3H57.7C57.5 73.2 57.3 73.2 57 73.2C56.8 73.2 56.6 73.4 56.5 73.7C56.5 73.8 56.4 73.8 56.4 73.8H56.3C56 73.9 55.9 74.2 55.9 74.5C55.9 74.6 55.9 74.6 55.8 74.6C55.7 74.6 55.7 74.6 55.6 74.6C55.3 74.4 54.9 74.3 54.7 74.3C54.5 74.4 54.2 74.6 54.2 74.9C54.2 75 54.2 75 54.2 75.1C54.2 75.2 54.2 75.2 54.1 75.3C54 75.4 54 75.4 53.9 75.5V75.6L53.8 75.7H53.7C53.4 75.5 53.1 75.4 52.8 75.5C52.6 75.6 52.3 75.7 52.3 76C52.3 76.1 52.2 76.1 52.2 76.1C52.1 76.1 52 76.2 51.9 76.3L51.8 76.4H51.7C51.5 76.3 51.4 76.2 51.2 76.2C51 76.2 50.7 76.3 50.6 76.5C50.6 76.5 50.6 76.6 50.5 76.6L50.4 76.7H50.3C50.2 76.7 50.2 76.6 50.1 76.6C50 76.6 49.9 76.6 49.8 76.7C49.7 76.8 49.7 76.9 49.6 76.9L49.5 77H49.4C49.1 76.7 48.7 76.7 48.4 77C48.3 77 48.3 77.1 48.2 77C48.1 77 48.1 76.9 48.1 76.8C48.1 76.7 48.1 76.7 48.1 76.6C48 76.5 47.9 76.4 47.8 76.5C47.4 76.5 47.1 76.6 47 76.8L46.9 76.9C46.8 76.9 46.8 76.9 46.8 76.8C46.8 76.7 46.7 76.7 46.7 76.6C46.4 76.3 46 76.3 45.7 76.5H45.6C45.6 76.5 45.5 76.5 45.5 76.4C45.4 76.2 45.2 76.1 45 76.1C44.9 76.1 44.8 76.2 44.7 76.2H44.6L44.5 76.1C44.5 75.9 44.3 75.7 44.1 75.5C43.9 75.4 43.6 75.4 43.4 75.5C43.3 75.6 43.2 75.7 43.1 75.8C43.1 75.9 43 75.9 43 75.9C42.9 75.9 42.9 75.9 42.9 75.8C42.8 75.6 42.6 75.6 42.4 75.6C42.4 75.6 42.3 75.6 42.3 75.7C42.3 75.7 42.2 75.7 42.1 75.7L42 75.6C42 75.2 41.8 74.9 41.4 74.7C41.2 74.6 40.9 74.6 40.7 74.8C40.7 74.8 40.6 74.9 40.5 74.8C40.4 74.8 40.3 74.7 40.2 74.8C40.2 74.8 40.2 74.8 40.1 74.8H40L39.9 74.7C39.9 74.5 39.9 74.4 39.8 74.2C39.7 74 39.5 73.8 39.2 73.8C39.1 73.8 38.9 73.8 38.8 73.9C38.7 73.9 38.6 73.9 38.6 73.8C38.6 73.7 38.5 73.7 38.5 73.7C38.4 73.6 38.2 73.6 38 73.6H37.9C37.9 73.6 37.8 73.5 37.9 73.5C37.9 73.3 37.9 73 37.7 72.8C37.6 72.6 37.3 72.6 37.2 72.6C37.1 72.6 37.1 72.6 37 72.5C37 72.4 36.9 72.3 36.7 72.2C36.6 72.1 36.4 72.1 36.3 72.2C36.2 72.2 36.2 72.2 36.2 72.1C36.2 72.1 36.2 72 36.2 71.9C36.3 71.6 36.4 71.2 36.1 70.8C36 70.6 35.8 70.6 35.7 70.6C35.6 70.6 35.5 70.6 35.5 70.6C35.4 70.6 35.3 70.6 35.3 70.5C35.3 70.4 35.3 70.4 35.2 70.4C35 70.2 34.8 70.2 34.6 70.2C34.5 70.2 34.5 70.2 34.5 70.1C34.5 70.1 34.5 70 34.5 69.9C34.8 69.4 34.8 68.9 34.6 68.5C34.5 68.3 34.3 68.1 34 68.1C34 68.1 33.9 68.1 33.9 68C33.8 67.8 33.6 67.7 33.3 67.7C33.3 67.7 33.3 67.7 33.2 67.7C33.1 67.7 33.1 67.7 33 67.6C33 67.5 33 67.5 33 67.4C33.3 67 33.5 66.4 33.3 65.9C33 66.2 32.8 66 32.6 66C32.5 66 32.5 65.9 32.5 65.9C32.5 65.7 32.3 65.6 32.2 65.5C32 65.4 31.8 65.4 31.5 65.5C31.4 65.5 31.4 65.5 31.3 65.4C31.3 65.3 31.3 65.3 31.3 65.2C31.5 64.9 31.7 64.5 31.7 64.1C31.6 63.7 31.3 63.5 31 63.5H30.9C30.6 63.2 30.1 63.2 29.7 63.4C29.6 63.4 29.6 63.4 29.5 63.4L29.4 63.3C29.4 63.1 29.3 62.9 29.2 62.7C29.2 62.7 29.1 62.6 29.2 62.5C29.2 62.5 29.2 62.4 29.3 62.4C28.8 62.1 28.4 61.9 27.8 61.9C27.4 61.9 27.2 62.1 27.1 62.3C26.9 62.7 26.9 63.3 27 63.5C27.2 63.9 27.5 64.1 27.9 64.1C28.2 64.1 28.7 64 29.1 63.7C29.2 63.7 29.3 63.7 29.3 63.7C29.3 63.8 29.4 63.8 29.3 63.9C29 64.3 28.8 64.8 28.8 65.1C28.9 65.7 29.3 66.1 29.8 66.1C30 66.1 30.1 66.1 30.3 66C30.4 66 30.4 66 30.5 66.1C30.5 66.2 30.5 66.2 30.5 66.3C30.3 66.6 30.1 66.9 30.1 67.3C30 67.8 30.5 68.4 31 68.6C31.3 68.7 31.6 68.7 31.9 68.6C32 68.6 32 68.6 32.1 68.7C32.1 68.8 32.1 68.8 32.1 68.9C32 69 31.9 69.1 31.9 69.3C31.8 69.6 31.8 69.9 31.8 70.2C31.9 70.6 32.1 70.8 32.6 71C32.9 71.1 33.2 71.1 33.4 71.1C33.5 71.1 33.5 71.1 33.6 71.1C33.6 71.1 33.6 71.2 33.6 71.3C33.4 71.9 33.6 72.6 34.1 73C34.4 73.2 34.8 73.3 35.2 73.2C35.3 73.2 35.3 73.2 35.4 73.2C35.4 73.2 35.5 73.3 35.4 73.4C35.3 73.8 35.4 74.2 35.7 74.5C35.9 74.8 36.2 74.9 36.6 74.9C36.8 74.9 37.1 74.9 37.3 74.8H37.4L37.5 74.9C37.5 75.3 37.7 75.7 38 76C38.4 76.3 39 76.4 39.4 76.2H39.5L39.6 76.3C39.6 76.7 39.8 77 40.1 77.3C40.4 77.6 40.9 77.6 41.3 77.4C41.4 77.3 41.5 77.3 41.6 77.2C41.6 77.2 41.7 77.1 41.8 77.2C41.9 77.2 41.9 77.3 41.9 77.3C42 77.6 42.1 77.9 42.4 78.1C42.7 78.4 43.4 78.4 43.8 78.3C43.9 78.3 44 78.2 44.1 78.1H44.2L44.3 78.2C44.4 78.6 44.7 78.9 45.1 79.1C45.7 79.4 46.4 79.2 46.8 78.7C46.7 78.2 46.8 78.2 46.8 78.2Z" fill="#6B0000"/>
<path opacity="0.3" d="M27.4999 61.9C26.9999 62.5 26.9999 63.6 27.8999 63.7C28.4999 63.8 29.0999 63.6 29.5999 63.1C29.5999 62.9 29.4999 62.6 29.3999 62.4C29.4999 62.4 29.5999 62.2 29.4999 62.2C28.8999 61.9 28.4999 61.6 27.7999 61.6C27.6999 61.6 27.5999 61.6 27.4999 61.6C27.4999 61.7 27.4999 61.8 27.4999 61.9Z" fill="#6B0000"/>
<path opacity="0.3" d="M39.8998 74.4C39.6998 73.9 39.0998 73.8 38.6998 74C38.6998 73.9 38.5998 73.9 38.4998 73.8C38.2998 73.7 38.0998 73.6 37.8998 73.7C37.8998 73.4 37.8998 73.2 37.6998 72.9C37.5998 72.7 37.2998 72.6 36.9998 72.6C36.8998 72.5 36.7998 72.3 36.6998 72.3C36.4998 72.2 36.2998 72.2 36.1998 72.2C36.3998 71.8 36.3998 71.3 36.0998 70.9C35.8998 70.6 35.5998 70.6 35.1998 70.6C35.1998 70.5 35.0998 70.5 35.0998 70.4C34.8998 70.2 34.5998 70.1 34.3998 70.1C34.6998 69.6 34.7998 69.1 34.4998 68.6C34.3998 68.3 34.0998 68.2 33.7998 68.1C33.6998 67.9 33.3998 67.7 33.0998 67.8H32.9998C33.2998 67.3 33.5998 66.7 33.2998 66.2C33.0998 65.9 32.8998 65.7 32.5998 65.7C32.5998 65.5 32.3998 65.3 32.1998 65.2C31.8998 65.1 31.6998 65.1 31.3998 65.2C31.6998 64.8 31.8998 64.4 31.7998 64C31.6998 63.6 31.3998 63.3 30.9998 63.3C30.6998 63 30.3998 63 30.0998 63C29.9998 63.1 29.8998 63.2 29.7998 63.4C29.9998 63.4 29.9998 63.6 29.7998 63.7C29.0998 63.9 28.8998 65 29.4998 65.5C29.8998 65.8 30.4998 65.8 30.8998 65.6H30.9998C31.0998 65.6 31.0998 65.5 31.1998 65.5C31.3998 65.4 31.5998 65.6 31.3998 65.7C31.2998 65.8 31.1998 65.8 31.0998 65.9C30.5998 66.4 29.5998 67.4 30.5998 68C31.1998 68.4 31.9998 68.3 32.4998 67.8C32.5998 67.7 32.7998 67.9 32.6998 68C32.5998 68.1 32.5998 68.1 32.4998 68.2C32.6998 68.2 32.7998 68.5 32.5998 68.5C31.7998 68.7 31.5998 69.8 32.2998 70.3C32.7998 70.6 33.5998 70.7 33.7998 70.1C33.8998 69.9 34.1998 70 34.0998 70.2C34.0998 70.3 33.9998 70.3 33.9998 70.4C34.0998 70.4 34.1998 70.6 33.9998 70.7C33.2998 71.1 33.2998 71.9 33.6998 72.5C33.8998 72.7 34.1998 73 34.4998 72.9C34.9998 72.9 35.2998 72.5 35.4998 72.1C35.5998 71.9 35.8998 72.1 35.7998 72.3C35.6998 72.4 35.5998 72.5 35.4998 72.7V72.8C34.4998 74.1 36.7998 75.2 37.3998 73.8C37.4998 73.6 37.7998 73.7 37.6998 73.9C37.6998 74 37.5998 74.1 37.5998 74.1V74.2C37.3998 74.5 37.2998 74.9 37.4998 75.3C37.6998 75.6 37.9998 75.9 38.4998 76C38.8998 76 39.1998 75.9 39.3998 75.7C39.4998 75.5 39.5998 75.2 39.7998 75.1H39.8998C39.9998 74.7 39.9998 74.6 39.8998 74.4Z" fill="#6B0000"/>
<path opacity="0.3" d="M69.4997 61.4C69.5997 61.5 69.6997 61.5 69.7997 61.5C70.2997 61.4 71.1997 61.4 71.0997 60.6C71.0997 60.1 70.7997 59.8 70.3997 59.5C70.2997 59.4 70.2997 59.3 70.3997 59.3C70.2997 59.3 70.1997 59.3 69.9997 59.3C69.8997 59.2 69.7997 59.2 69.7997 59.3C69.3997 59.6 69.0997 60.1 68.7997 60.6C68.6997 60.6 68.6997 60.7 68.6997 60.8C68.5997 60.9 68.5997 61 68.4997 61.1C67.9997 61.8 67.4997 62.5 66.9997 63.1C66.8997 63.1 66.6997 63.1 66.5997 63.2C66.4997 63.2 66.3997 63.5 66.5997 63.5H66.6997C65.8997 64.5 65.0997 65.5 64.2997 66.5C63.5997 66.3 62.8997 66.3 62.4997 67C62.2997 67.4 62.4997 67.8 62.7997 68.1C62.7997 68.2 62.7997 68.2 62.7997 68.3C62.2997 68.1 61.6997 68.2 61.2997 68.7C61.0997 69 61.0997 69.4 61.3997 69.7L61.4997 69.8C61.3997 70 61.2997 70.2 61.3997 70.4C61.0997 70.3 60.7997 70.3 60.4997 70.5C60.1997 70.6 59.9997 70.9 59.9997 71.3C59.8997 71.5 59.7997 71.8 59.8997 72C59.6997 71.9 59.3997 71.8 59.1997 71.8C58.4997 71.8 58.1997 72.4 58.3997 73C58.1997 73.1 57.9997 73.4 57.8997 73.6C57.6997 73.5 57.3997 73.5 57.0997 73.5C56.7997 73.6 56.5997 73.8 56.4997 74.1H56.3997C56.0997 74.3 55.8997 74.6 55.8997 74.9C55.5997 74.7 55.1997 74.5 54.7997 74.6C54.4997 74.7 54.1997 75 54.1997 75.3C54.1997 75.4 54.1997 75.5 54.1997 75.5C54.0997 75.6 53.9997 75.7 53.9997 75.8C53.9997 75.8 53.9997 75.8 53.9997 75.9C53.6997 75.7 53.2997 75.5 52.9997 75.7C52.6997 75.8 52.3997 76 52.3997 76.3C52.1997 76.3 52.0997 76.4 51.9997 76.6C51.7997 76.4 51.5997 76.3 51.3997 76.3C51.0997 76.3 50.7997 76.4 50.5997 76.7L50.4997 76.8C50.2997 76.7 49.9997 76.7 49.7997 76.9C49.6997 77 49.6997 77.1 49.5997 77.2C49.1997 76.8 48.6997 76.9 48.3997 77.2C48.4997 76.9 48.1997 76.7 47.8997 76.7C47.5997 76.7 47.1997 76.8 46.9997 77.1C46.9997 77 46.8997 76.9 46.7997 76.9C46.3997 76.5 45.8997 76.5 45.5997 76.8C45.4997 76.5 45.1997 76.4 44.9997 76.4C44.8997 76.4 44.6997 76.5 44.5997 76.5C44.4997 76.2 44.3997 76 44.1997 75.8C43.9997 75.6 43.5997 75.6 43.3997 75.7C43.1997 75.8 43.0997 75.9 42.9997 76.1C42.8997 75.9 42.4997 75.7 42.2997 75.8C42.1997 75.8 42.1997 75.8 42.1997 75.9C42.1997 75.5 41.9997 75.1 41.5997 74.9C41.2997 74.8 40.9997 74.8 40.6997 75C40.6997 75 40.6997 75 40.5997 75.1C40.4997 75 40.3997 75 40.1997 75.1C40.1997 75.1 40.1997 75.1 40.0997 75.1C40.0997 75.1 40.0997 75.1 40.1997 75.1C40.2997 75.1 40.3997 75.2 40.2997 75.3C40.1997 75.5 39.9997 75.7 39.7997 75.9C39.6997 76.2 39.7997 76.6 40.0997 76.9C40.4997 77.3 41.3997 77.2 41.6997 76.7C41.6997 76.5 41.6997 76.4 41.6997 76.2C41.6997 76 41.9997 76 41.9997 76.2V76.3V76.4C41.9997 76.5 41.9997 76.6 41.9997 76.7C41.9997 77.2 42.1997 77.6 42.4997 77.9C43.0997 78.3 43.9997 78 44.1997 77.4C44.1997 77.2 44.1997 76.9 44.1997 76.7C44.1997 76.5 44.4997 76.5 44.4997 76.7C44.4997 76.8 44.4997 76.9 44.4997 77.1L44.5997 77.2C44.5997 77.3 44.5997 77.4 44.5997 77.4C44.6997 77.8 44.7997 78.2 45.1997 78.4C45.7997 78.8 46.8997 78.5 46.9997 77.8C46.9997 77.6 46.8997 77.3 46.8997 77.1C46.8997 76.9 47.1997 76.9 47.1997 77.1C47.1997 77.7 47.2997 78.5 47.8997 78.8C48.5997 79.3 49.4997 78.8 49.4997 78C49.4997 77.9 49.4997 77.8 49.3997 77.7C49.3997 77.5 49.6997 77.4 49.6997 77.6C49.6997 77.7 49.6997 77.7 49.6997 77.8C49.6997 77.8 49.6997 77.8 49.6997 77.9C49.6997 77.9 49.6997 77.9 49.6997 78C49.7997 78.5 50.1997 79.1 50.7997 79.1C51.1997 79.1 51.4997 79 51.7997 78.7C52.0997 78.4 52.0997 78 52.0997 77.7V77.6C52.0997 77.5 52.0997 77.5 52.0997 77.5C52.0997 77.3 52.3997 77.4 52.3997 77.6V77.7C52.7997 78.8 54.3997 78.7 54.3997 77.6V77.5V77.4C54.2997 77.2 54.6997 77.1 54.6997 77.3C54.6997 77.4 54.6997 77.4 54.6997 77.5C54.8997 77.7 55.1997 77.8 55.3997 77.8C55.4997 77.8 55.5997 77.8 55.6997 77.8C55.7997 77.8 55.9997 77.7 56.0997 77.6C56.3997 77.3 56.4997 76.9 56.4997 76.5C56.4997 76.4 56.4997 76.4 56.4997 76.3C56.4997 76.2 56.7997 76.2 56.7997 76.3C56.9997 76.4 57.2997 76.5 57.5997 76.6C57.7997 76.6 57.8997 76.6 58.0997 76.5C58.6997 76.1 58.5997 75.6 58.3997 75C58.3997 74.9 58.4997 74.8 58.5997 74.8C58.5997 74.8 58.6997 74.8 58.6997 74.9C59.5997 76.1 61.2997 74.3 60.6997 73.4L60.5997 73.3C60.4997 73.2 60.6997 73 60.7997 73.1L60.8997 73.2C61.9997 73.8 62.8997 72.7 62.2997 71.6C62.1997 71.4 62.3997 71.3 62.4997 71.4H62.5997C62.5997 71.4 62.5997 71.4 62.6997 71.4C63.1997 71.5 63.5997 71.3 63.7997 70.9C63.8997 70.6 63.8997 70.3 63.7997 70C63.6997 70 63.6997 69.9 63.6997 69.8C63.5997 69.6 63.7997 69.5 63.8997 69.6C63.8997 69.6 63.8997 69.7 63.9997 69.7C64.1997 69.8 64.3997 69.8 64.4997 69.9C65.2997 69.9 65.5997 69.2 65.5997 68.5C65.5997 68.2 65.4997 68 65.3997 67.8C65.3997 67.7 65.4997 67.6 65.5997 67.6C65.7997 67.7 65.9997 67.7 66.2997 67.8C66.4997 67.8 66.7997 67.7 66.9997 67.6C67.3997 67.3 67.4997 66.8 67.3997 66.3L67.2997 66.2C67.1997 66.2 67.1997 66.1 67.1997 66.1H67.0997C66.9997 66.1 66.9997 66 66.9997 65.9C66.9997 65.8 67.1997 65.7 67.2997 65.8C67.4997 65.8 67.6997 65.9 67.8997 65.9C67.9997 65.9 68.0997 65.9 68.1997 65.8C68.6997 65.6 68.8997 65.2 68.8997 64.7C68.7997 64.4 68.5997 64.2 68.2997 63.9C68.1997 63.8 68.2997 63.6 68.3997 63.6C68.5997 63.6 68.6997 63.6 68.8997 63.6C69.3997 63.6 69.7997 63.3 69.8997 62.9C69.8997 62.5 69.6997 62.1 69.2997 61.9C69.1997 61.9 69.1997 61.8 69.1997 61.7C69.3997 61.5 69.3997 61.4 69.4997 61.4Z" fill="#6B0000"/>
<path d="M76.2999 36.1C76.3999 32.6 75.8999 29 74.8999 25.7C72.1999 17 65.5999 9.4 56.8999 6.4C54.4999 5.6 51.8999 5.1 49.3999 5.1C39.2999 5 30.2998 10.8 25.6998 19.6C22.8998 24.8 21.2998 30.6 21.7998 36.5C21.9998 38.8 22.5999 41.2 23.5999 43.3C25.2998 47.2 27.5999 50.8 30.6999 53.7C31.5998 54.6 32.6998 55.4 33.7998 56.1C33.3998 56.3 33.0998 56.7 32.7998 57.2C32.5998 57.6 32.4998 58 32.5998 58.4C32.4998 58.6 32.2999 58.8 32.1999 59C31.6999 59.6 31.0998 59.9 30.4998 60.4C29.9998 60.8 29.3998 61 28.7998 61.2C28.4998 61.3 28.0999 61.4 27.7998 61.4C27.2998 61.5 26.8998 61.8 26.9998 61.8C27.5998 61.8 27.9998 62.1 28.2998 62.3C28.7998 62.7 29.4998 63.4 29.8998 64.1C31.9998 67.9 33.5998 71.7 37.3998 74.2C41.8998 77.3 48.3998 79.1 53.6999 77.3C55.1999 76.8 56.7999 76 58.0998 75.1C61.2999 72.8 63.9999 69.8 66.3999 66.7C67.4999 65.2 69.6999 61.5 69.7999 61.2C70.3998 60.1 71.2999 59.3 70.9999 59.3C70.0998 59 69.3999 58.6 68.8999 58.4C68.3999 58.1 67.8999 57.8 67.4999 57.5C67.3999 57.4 66.9999 57.2 66.7999 57.1C66.8998 56.9 66.8999 56.7 66.8999 56.5C66.8999 56.1 66.5999 55.7 66.1999 55.4H66.2999C67.5998 54.8 68.7999 53.9 69.7999 53C73.1999 50 75.3999 45 75.9999 40.6C76.0998 39 76.2999 37.6 76.2999 36.1Z" fill="#E30613"/>
<path d="M47.8999 78.2C44.2999 78 40.3999 76.6 37.1999 74.4C33.9999 72.2 32.3999 69.2 30.6999 66C30.3999 65.4 30.0999 64.8 29.6999 64.2C29.2999 63.5 28.5999 62.9 28.1999 62.5C27.9999 62.3 27.4999 62.1 26.9999 62C26.8999 62 26.7999 61.9 26.7999 61.8C26.7999 61.6 27.2999 61.3 27.6999 61.2C27.9999 61.2 28.2999 61.1 28.6999 61C29.2999 60.8 29.8999 60.6 30.3999 60.2C30.5999 60.1 30.7999 59.9 30.9999 59.8C31.3999 59.5 31.7999 59.2 32.0999 58.8C32.1999 58.6 32.3999 58.5 32.4999 58.3C32.3999 57.9 32.4999 57.5 32.6999 57.1C32.8999 56.7 33.1999 56.4 33.4999 56.1C32.2999 55.4 31.2999 54.6 30.5999 53.8C27.6999 51 25.3999 47.6 23.4999 43.3C22.5999 41.2 21.8999 38.8 21.6999 36.4C21.1999 30.9 22.4999 25.2 25.5999 19.4C30.3999 10.4 39.4999 4.8 49.3999 5C51.8999 5.1 54.5999 5.5 56.9999 6.3C65.1999 9.1 72.1999 16.6 74.9999 25.7C75.9999 28.9 76.4999 32.5 76.3999 36.1C76.3999 37.6 76.2999 39 76.0999 40.4C75.3999 45.3 72.9999 50.1 69.7999 52.9C68.9999 53.6 67.7999 54.6 66.3999 55.2C66.6999 55.5 66.8999 55.9 66.8999 56.2C66.8999 56.4 66.8999 56.6 66.7999 56.8C66.8999 56.9 67.0999 57 67.1999 57.1C67.2999 57.1 67.2999 57.2 67.3999 57.2L67.6999 57.4C68.0999 57.6 68.4999 57.9 68.7999 58.1C69.2999 58.4 69.9999 58.8 70.8999 59C70.9999 59 70.9999 59.1 71.0999 59.1C71.1999 59.3 70.9999 59.5 70.5999 60C70.3999 60.3 70.0999 60.7 69.7999 61.2C69.7999 61.2 69.6999 61.3 69.6999 61.5C69.0999 62.5 67.3999 65.4 66.3999 66.8C63.4999 70.6 60.7999 73.3 58.0999 75.3C56.8999 76.2 55.2999 77 53.5999 77.5C51.8999 78.1 49.9999 78.3 47.8999 78.2ZM27.2999 61.8C27.7999 61.9 28.1999 62.1 28.3999 62.3C28.8999 62.7 29.5999 63.4 29.9999 64.1C30.2999 64.7 30.6999 65.3 30.9999 65.9C32.6999 69.1 34.2999 72 37.3999 74.2C40.4999 76.3 44.2999 77.7 47.8999 77.9C49.8999 78 51.8999 77.8 53.5999 77.2C55.1999 76.7 56.7999 75.9 57.9999 75C60.6999 73.1 63.3999 70.3 66.2999 66.6C66.9999 65.7 68.0999 64 69.4999 61.4C69.5999 61.3 69.5999 61.2 69.5999 61.1C69.8999 60.6 70.1999 60.2 70.3999 59.9C70.5999 59.7 70.6999 59.5 70.7999 59.3C69.8999 59 69.1999 58.6 68.6999 58.4C68.2999 58.2 67.8999 57.9 67.4999 57.7L67.1999 57.5C67.1999 57.5 67.0999 57.4 66.9999 57.4C66.7999 57.3 66.5999 57.2 66.3999 57L66.2999 56.9V56.8C66.3999 56.6 66.3999 56.4 66.3999 56.2C66.3999 55.9 66.0999 55.5 65.7999 55.2L65.5999 55L65.8999 54.9C67.2999 54.3 68.4999 53.3 69.3999 52.5C72.4999 49.7 74.8999 45 75.5999 40.2C75.7999 38.8 75.8999 37.3 75.8999 35.9C75.9999 32.3 75.4999 28.7 74.4999 25.6C71.8999 16.7 64.9999 9.4 56.7999 6.6C54.4999 5.8 51.7999 5.4 49.2999 5.3C39.5999 5.1 30.4999 10.6 25.6999 19.7C22.5999 25.5 21.2999 31.1 21.7999 36.5C21.9999 38.8 22.5999 41.2 23.5999 43.3C25.4999 47.5 27.7999 50.9 30.5999 53.7C31.3999 54.5 32.4999 55.3 33.6999 56.1L33.8999 56.2L33.6999 56.3C33.2999 56.5 32.9999 56.8 32.7999 57.3C32.5999 57.7 32.5999 58 32.5999 58.4V58.5V58.6C32.4999 58.8 32.2999 59 32.1999 59.2C31.8999 59.6 31.3999 59.9 30.9999 60.2C30.7999 60.3 30.5999 60.5 30.4999 60.6C29.9999 61 29.3999 61.2 28.6999 61.4C28.2999 61.5 27.9999 61.6 27.5999 61.6C27.5999 61.6 27.3999 61.7 27.2999 61.8Z" fill="#6B0000"/>
<path d="M29.9998 17.1C31.4998 15.7 33.1998 14.5 34.8998 13.4C38.1998 11.3 41.9998 9.59998 45.8998 8.99998C52.5998 7.99998 59.7998 9.79998 64.2998 15.1C64.0998 14.1 63.2998 13.3 62.6998 12.6C61.9998 11.8 61.1998 11 60.2998 10.3C58.5998 8.99998 56.7998 7.99998 54.8998 7.19998C52.5998 6.29998 50.0998 5.69998 47.6998 5.19998C40.0998 5.49998 33.2998 9.29998 28.5998 15.1C27.4998 17.1 26.4998 19.1 25.7998 21.2C27.2998 19.9 28.4998 18.4 29.9998 17.1Z" fill="#EB1C24"/>
<path opacity="0.3" d="M69.6999 52.9C73.0999 49.9 75.2999 44.9 75.8999 40.5C76.0999 39.1 76.1999 37.6 76.1999 36.2C76.2999 32.7 75.7999 29.1 74.7999 25.8C74.2999 24.1 73.5999 22.5 72.7999 21C72.7999 21.4 72.5999 21.7 72.2999 22C71.4999 22.8 70.2999 22.4 69.4999 22C68.1999 21.3 67.0999 20.2 65.7999 19.3C64.1999 18.1 62.4999 17 60.7999 16C54.1999 12.2 46.1999 9.8 38.9999 13.3C34.7999 15.4 31.5999 18.9 28.4999 22.4C27.6999 23.3 26.7999 24.3 25.7999 25.1C25.0999 25.6 24.0999 26.3 23.3999 25.6C23.2999 25.5 23.1999 25.3 23.0999 25.2C21.8999 28.8 21.2999 32.6 21.5999 36.5C21.7999 38.8 22.3999 41.2 23.3999 43.3C25.0999 47.2 27.3999 50.8 30.4999 53.7C31.3999 54.6 32.4999 55.4 33.5999 56.1C33.1999 56.3 32.8999 56.7 32.5999 57.2C32.3999 57.6 32.2999 58 32.3999 58.4C32.2999 58.6 32.0999 58.8 31.9999 59C31.4999 59.6 30.8999 59.9 30.2999 60.4C29.7999 60.8 29.1999 61 28.5999 61.2C28.2999 61.3 27.8999 61.4 27.5999 61.4C27.0999 61.5 26.6999 61.8 26.7999 61.8C27.3999 61.8 27.7999 62.1 28.0999 62.3C28.5999 62.7 29.2999 63.4 29.6999 64.1C31.7999 67.9 33.3999 71.7 37.1999 74.2C41.6999 77.3 48.1999 79.1 53.4999 77.3C54.9999 76.8 56.5999 76 57.8999 75.1C61.0999 72.8 63.7999 69.8 66.1999 66.7C67.2999 65.2 69.4999 61.5 69.5999 61.2C70.1999 60.1 71.0999 59.3 70.7999 59.3C69.8999 59 69.1999 58.6 68.6999 58.4C68.1999 58.1 67.6999 57.8 67.2999 57.5C67.1999 57.4 66.7999 57.2 66.5999 57.1C66.6999 56.9 66.6999 56.7 66.6999 56.5C66.6999 56.1 66.3999 55.7 65.9999 55.4H66.0999C67.4999 54.7 68.6999 53.8 69.6999 52.9ZM42.4999 56.6C47.5999 58 54.3999 56.5 59.0999 54.4C60.5999 53.7 64.8999 51.8 64.6999 51.9C64.4999 52.1 64.1999 52.2 63.9999 52.4C63.5999 52.7 63.1999 53 62.7999 53.3C60.9999 54.8 58.9999 56 56.7999 56.8C55.5999 57.2 54.2999 57.6 52.9999 58C51.7999 58.4 50.4999 58.5 49.1999 58.6C46.4999 58.8 43.8999 58.1 41.3999 57.1C40.1999 56.6 38.7999 56 37.6999 55.3C36.9999 54.9 35.8999 53.9 35.8999 53.8C36.1999 54 39.8999 55.9 42.4999 56.6ZM45.0999 62.4C43.2999 61.8 41.5999 60.8 40.0999 59.6C38.6999 58.5 37.3999 57.2 36.6999 55.6C36.6999 55.5 39.7999 59.8 47.7999 60.7C55.6999 61.5 63.4999 55.6 62.6999 56.3C62.1999 56.8 60.1999 58.4 59.5999 58.8C58.6999 59.4 57.8999 60 56.9999 60.5C53.4999 62.4 49.0999 63.6 45.0999 62.4ZM55.4999 63.7C54.4999 64.4 53.3999 64.6 52.0999 64.9C50.2999 65.2 48.4999 65.4 46.6999 65.3C45.1999 65.2 43.6999 64.6 42.3999 63.7C41.2999 62.9 40.4999 61.6 39.4999 60.7C39.3999 60.6 39.2999 60.5 39.1999 60.4C40.2999 61 40.9999 61.4 41.9999 62C43.3999 62.7 45.7999 63.8 47.3999 64.1C51.6999 64.7 55.5999 63.6 55.4999 63.7ZM63.8999 61.6C63.3999 62.7 62.3999 63.9 61.5999 64.8C57.3999 70 50.2999 75 43.4999 72.1C41.5999 71.3 39.7999 70.1 38.3999 68.6C36.7999 66.9 35.7999 64.8 34.3999 62.9C34.0999 62.6 33.2999 61 34.3999 61.2C35.3999 61.3 36.4999 62.1 37.2999 62.7C39.8999 64.9 42.3999 67 45.7999 67.8C49.2999 68.6 52.8999 67.8 56.0999 66.2C57.9999 65.3 59.7999 64.2 61.4999 63C62.2999 62.4 63.0999 61.8 63.9999 61.4C63.9999 61.5 63.9999 61.5 63.8999 61.6Z" fill="#6B0000"/>
<path opacity="0.3" d="M71.9 32.8C71.7 31.9 71.6 31.1 71.4 30.2C71.1 29.6 70.7 29 70.3 28.3C68.7 26 66.6 24.1 64.2 22.6C58.3 18.8 51.5 16.1 44.4 16.1C41.4 16.7 38.5 18.1 36 19.8C33.6 21.4 31.3 23.3 29.4 25.5C26.5 28.9 24.3 33.3 25 37.9C25.7 42.4 27.8 46.8 30.5 50.5C31.4 51.8 32.5 52.9 33.8 54C34.6 54.7 35.5 55.4 36.1 56.3C36.4 56.7 36.7 57.7 35.9 57.9C34.9 58.1 34.7 58.2 35 59.2C35.8 61.9 32.8 58.7 32.3 60.8C32 62.1 32.7 63.5 33.2 64.7C34.4 67.3 35.7 69.8 37.6 71.9C38.3 72.6 39 73.3 39.8 74C41.6 75.4 43.5 76.6 45.9 77C49.5 77.6 53.3 77 56.4 75.2C59.6 73.3 62.1 70.4 64.5 67.4C65 66.8 65.5 66.2 65.9 65.5C66.6 64.4 67.3 63.1 67.4 61.8C67.5 61 67.4 60.2 66.5 59.9C65.4 59.5 64.3 60 63.3 60.5C62 61.2 60.7 62.2 59.2 62.5C58.5 62.6 57.2 62.3 57.6 61.3C58 60.4 59.4 60 60.2 59.6C61.4 59 62.7 58.3 63.5 57.2C63.7 56.9 64.3 56.1 63.8 55.7C63.4 55.3 62.1 56.1 62.2 55C62.3 54.4 63.1 54 63.5 53.7C64.1 53.3 64.6 52.8 65.2 52.4C65.8 51.7 66.4 51 67 50.3C69.1 47.8 70.5 46.1 71.4 43C72.2 40.2 72.8 37.2 71.9 32.8ZM58.8 64.9C59.4 64.5 60 64 60.8 63.8C60.8 63.9 60.8 63.9 60.8 64C60.4 64.8 59.7 65.6 59 66.3C55.6 70 50 73.5 44.6 71.4C43 70.8 41.7 70 40.5 68.9C39.2 67.7 38.4 66.1 37.3 64.8C37.1 64.6 36.4 63.4 37.3 63.6C38.1 63.7 39 64.2 39.6 64.7C41.7 66.3 43.6 67.8 46.4 68.4C49.2 69 52.1 68.4 54.6 67.3C56 66.5 57.4 65.7 58.8 64.9ZM62.7 56.3C62.2 56.8 60.2 58.4 59.6 58.8C58.7 59.4 57.9 60 57 60.5C53.4 62.5 49 63.7 45 62.5C43.2 61.9 41.5 60.9 40 59.7C38.6 58.6 37.3 57.3 36.6 55.7C36.6 55.6 39.7 59.9 47.7 60.8C55.7 61.5 63.5 55.5 62.7 56.3ZM64.7 51.9C64.5 52.1 64.2 52.2 64 52.4C63.6 52.7 63.2 53 62.8 53.3C61 54.8 59 56 56.8 56.8C55.6 57.2 54.3 57.6 53 58C51.8 58.4 50.5 58.5 49.2 58.6C46.5 58.8 43.9 58.1 41.4 57.1C40.2 56.6 38.8 56 37.7 55.3C37 54.9 35.9 53.9 35.9 53.8C36.2 54 39.9 55.9 42.5 56.7C47.6 58.1 54.4 56.6 59.1 54.5C60.6 53.7 64.8 51.8 64.7 51.9Z" fill="#6B0000"/>
<path opacity="0.5" d="M28.4999 26.7C27.7999 28.1 27.3999 29.5 27.2999 31.1C27.0999 33.3 26.6999 35.5 26.5999 37.7C26.4999 40 26.5999 42.3 27.5999 44.4C28.4999 46.3 29.6999 48.1 31.0999 49.7C32.4999 51.2 34.0999 52.6 35.8999 53.6C37.8999 54.7 39.7999 55.8 42.0999 56.3C44.4999 56.8 46.9999 56.9 49.4999 57C52.8999 56.6 56.3999 55.6 59.0999 54.4C59.9999 54 61.9999 53.1 63.2999 52.5C65.4999 51.2 67.4999 49.5 68.5999 47.1C69.4999 45 69.6999 42.7 69.8999 40.5C69.9999 39.6 69.9999 38.6 70.2999 37.7C70.5999 36.8 71.1999 35.8 70.9999 34.9C70.7999 34.1 70.4999 33.4 70.3999 32.6C70.2999 31.5 70.2999 30.4 70.1999 29.4C70.1999 28.9 70.0999 28.3 69.9999 27.8C68.3999 25.7 66.4999 24 64.2999 22.6C58.3999 18.8 51.5999 16.1 44.4999 16.1C41.4999 16.7 38.5999 18.1 36.0999 19.8C33.6999 21.4 31.3999 23.3 29.4999 25.5C29.0999 26 28.7999 26.3 28.4999 26.7Z" fill="#6B0000"/>
<path opacity="0.3" d="M64.0001 52.4C63.6001 52.7 63.2001 53 62.8001 53.3C61.0001 54.8 59.0001 56 56.8001 56.8C55.6001 57.2 54.3001 57.6 53.0001 58C51.8001 58.4 50.5001 58.5 49.2001 58.6C46.5001 58.8 43.9001 58.1 41.4001 57.1C40.2001 56.6 38.8001 56 37.7001 55.3C37.2001 55 36.4001 54.3 36.1001 54C36.7001 55.1 37.9001 56.1 38.8001 56.8C40.0001 57.7 41.3001 58.5 42.7001 59C45.3001 59.9 48.3001 60.4 51.0001 59.8C54.1001 59 57.0001 58 59.5001 56.1C61.1001 54.9 62.9001 53.7 64.4001 52.2C64.3001 52.2 64.2001 52.3 64.0001 52.4Z" fill="#6B0000"/>
<path opacity="0.3" d="M52.1 64.8C50.3 65.1 48.5 65.3 46.7 65.2C45.2 65.1 43.7 64.5 42.4 63.6C41.3 62.8 40.5 61.5 39.5 60.6C39.6 61.3 39.8 61.9 40.1 62.5C40.5 63.3 41.1 64.1 41.7 64.8C43.1 66.2 44.8 66.9 46.8 67C49.9 67 52.7 65.9 55 64C54.2 64.4 53.2 64.6 52.1 64.8Z" fill="#6B0000"/>
<path d="M68.9 58.4C66.8 59.8 65.4 62.1 64.1 64.2C62.5 66.7 60.8 69.3 58.5 71.4C57.3 72.4 56 73.3 54.5 73.9C47.9 76.5 40.8 75.2 36.5 69.4C34.9 67.3 33.7 64.9 32 63C31.2 62.1 30.3 61.4 29.1 61.4C28.5 61.4 28 61.5 27.5 61.7C28.4 61.8 29.2 62.2 29.9 63C31.9 65.4 33 68.4 35.1 70.8C37.9 74 41.8 76.3 46.1 76.9C52.4 77.8 57.6 75.5 61.7 70.8C63.1 69.3 64.2 67.6 65.4 66C66.6 64.3 67.7 62.5 69.1 60.9C69.5 60.4 70 59.7 70.6 59.2C69.8 58.9 69.3 58.6 68.9 58.4Z" fill="#6B0000"/>
<path d="M65.6998 23.4C64.2998 22.3 62.8998 21.2 61.3998 20.3C60.2998 19.7 59.2998 19.1 58.1998 18.5C55.4998 17.3 52.6998 16.4 49.8998 15.8C48.6998 15.6 47.4998 15.8 46.2998 15.8C43.8998 15.8 41.7998 16.7 39.6998 17.8C37.6998 18.9 35.6998 19.9 33.7998 21.2C32.0998 22.4 30.6998 23.4 30.1998 25.5C29.7998 27.4 29.6998 29.3 29.7998 31.3C29.9998 34 30.1998 36.4 29.1998 39C28.7998 39.9 28.5998 40.7 28.6998 41.7C28.7998 42.8 28.9998 43.7 29.3998 44.7C30.7998 48 33.5998 50.8 36.5998 52.7C38.1998 53.7 39.7998 54.3 41.4998 55C42.7998 55.5 44.0998 55.8 45.3998 56.1C48.4998 56.7 49.3998 56.5 51.4998 55.9C54.0998 55.2 56.5998 54.1 59.0998 53C59.8998 52.6 60.6998 52.2 61.4998 51.8C62.9998 51 64.4998 50 65.4998 48.6C67.8998 45.3 68.0998 41.4 68.3998 37.5C68.4998 35.7 68.7998 33.9 68.9998 32.1C69.2998 29.8 69.2998 27.4 68.0998 25.5C67.3998 24.8 66.4998 24.1 65.6998 23.4Z" fill="#FBC7A0"/>
<path d="M47.7997 56.6C47.0997 56.6 46.3997 56.4 45.3997 56.2C44.0997 55.9 42.6997 55.6 41.4997 55.1C39.7997 54.4 38.0997 53.8 36.4997 52.8C33.0997 50.7 30.4997 47.8 29.2997 44.7C28.8997 43.7 28.6997 42.7 28.5997 41.6C28.4997 40.6 28.7997 39.8 29.0997 38.8C30.0997 36.2 29.8997 33.5 29.6997 31.2C29.4997 29.1 29.6997 27.2 30.0997 25.4C30.5997 23.3 31.9997 22.3 33.6997 21.1L33.7997 21C35.2997 20 36.7997 19.1 38.3997 18.3C38.7997 18.1 39.2997 17.8 39.6997 17.6C41.9997 16.4 43.9997 15.5 46.2997 15.5C46.6997 15.5 47.0997 15.5 47.4997 15.5C47.9997 15.5 48.5997 15.4 49.1997 15.5C49.4997 15.5 49.6997 15.6 49.8997 15.6C52.8997 16.2 55.6997 17.1 58.2997 18.3C58.6997 18.5 59.0997 18.8 59.4997 19C60.1997 19.4 60.7997 19.8 61.4997 20.1C63.0997 20.9 64.3997 22 65.8997 23.2L66.4997 23.7C67.0997 24.2 67.6997 24.7 68.2997 25.2C69.5997 27.3 69.3997 29.9 69.1997 31.9C69.0997 32.5 68.9997 33.1 68.9997 33.7C68.7997 34.9 68.6997 36.1 68.5997 37.3V37.7C68.2997 41.5 68.0997 45.4 65.6997 48.5C64.7997 49.7 63.4997 50.7 61.6997 51.7C60.8997 52.1 60.0997 52.5 59.1997 52.9L58.7997 53.1C56.4997 54.1 54.0997 55.1 51.5997 55.8C50.1997 56.4 49.2997 56.7 47.7997 56.6ZM49.0997 15.9C48.5997 15.9 47.9997 15.9 47.4997 15.9C47.0997 15.9 46.6997 15.9 46.2997 15.9C43.9997 15.9 41.9997 16.7 39.7997 17.9C39.3997 18.1 38.8997 18.4 38.4997 18.6C36.9997 19.4 35.3997 20.3 33.9997 21.3L33.8997 21.4C32.1997 22.6 30.8997 23.5 30.3997 25.5C29.9997 27.3 29.8997 29.1 30.0997 31.2C30.2997 33.6 30.4997 36.3 29.4997 39C29.0997 40 28.8997 40.7 28.9997 41.6C29.0997 42.7 29.2997 43.6 29.6997 44.6C30.8997 47.6 33.3997 50.4 36.7997 52.5C38.3997 53.5 39.9997 54.1 41.6997 54.8C42.9997 55.3 44.2997 55.6 45.5997 55.9C46.5997 56.1 47.2997 56.2 47.9997 56.3C49.3997 56.4 50.2997 56.1 51.5997 55.8C54.0997 55.1 56.3997 54.1 58.6997 53.1L59.0997 52.9C59.8997 52.5 60.7997 52.1 61.4997 51.7C63.2997 50.7 64.5997 49.7 65.3997 48.6C67.6997 45.5 67.9997 41.6 68.1997 37.9V37.5C68.2997 36.3 68.3997 35.1 68.5997 33.9C68.6997 33.3 68.7997 32.7 68.7997 32.1C68.9997 30.1 69.0997 27.6 67.9997 25.6C67.3997 25.1 66.7997 24.6 66.1997 24.1L65.5997 23.6C64.0997 22.4 62.7997 21.4 61.2997 20.5C60.5997 20.1 59.8997 19.7 59.2997 19.4C58.8997 19.2 58.4997 18.9 58.0997 18.7C55.5997 17.6 52.7997 16.7 49.7997 16C49.5997 16 49.2997 15.9 49.0997 15.9Z" fill="#C16528"/>
<path opacity="0.3" d="M65.6996 23.4C64.2996 22.3 62.8996 21.2 61.3996 20.3C60.2996 19.7 59.2996 19.1 58.1996 18.5C55.4996 17.3 52.6996 16.4 49.8996 15.8C48.6996 15.6 47.4996 15.8 46.2996 15.8C43.8996 15.8 41.7996 16.7 39.6996 17.8C37.6996 18.9 35.6996 19.9 33.7996 21.2C32.0996 22.4 30.6996 23.4 30.1996 25.5C29.7996 27.4 29.6996 29.3 29.7996 31.3C29.9996 34 30.1996 36.4 29.1996 39C28.9996 39.5 28.8996 39.9 28.7996 40.3C28.6996 41 28.5996 41.4 28.5996 41.8C28.5996 42.7 29.6996 45.4 29.9996 46.1C30.7996 47.7 31.2996 48 31.5996 48.4C32.0996 49 31.5996 47 34.1996 46.1C35.6996 45.6 37.6996 45.4 38.9996 46.4C39.8996 47.1 40.5996 47.9 41.1996 48.8C41.5996 49.5 41.9996 50.2 42.4996 50.8C42.9996 51.5 43.6996 51.9 44.2996 52.4C45.0996 52.8 45.8996 53.1 46.7996 53.2C49.2996 53.4 52.2996 52.4 53.6996 50.4C54.7996 48.9 58.6996 44.8 61.9996 47.1C64.7996 49 62.3996 51.3 62.5996 51.1C66.4996 48.3 66.6996 46.2 67.0996 45.2C67.9996 42.9 67.9996 42.9 68.1996 38.1C68.1996 37.9 68.1996 37.7 68.1996 37.5C68.2996 35.7 68.5996 33.9 68.7996 32.1C69.0996 29.8 69.0996 27.4 67.8996 25.5C67.3996 24.8 66.4996 24.1 65.6996 23.4ZM67.2996 31.1C67.0996 32.7 65.6996 31 65.2996 30.5C63.0996 27.6 59.2996 25.5 55.4996 26.4C54.3996 26.6 53.1996 27.1 52.1996 27.6C51.1996 28.2 50.3996 28.9 49.5996 29.7C48.8996 30.4 48.0996 31.2 46.9996 31.3C45.1996 31.4 44.4996 29.1 43.4996 28.1C41.0996 25.6 37.5996 24.6 34.2996 25.6C33.5996 25.8 32.0996 26.8 31.3996 26.3C30.7996 25.9 31.3996 25.1 31.6996 24.8C32.4996 23.8 33.8996 23 34.9996 22.4C36.2996 21.7 37.5996 21.1 38.9996 20.6C41.6996 19.7 44.6996 19.1 47.5996 19.1C49.1996 19.1 50.9996 19.3 52.5996 19.7C55.7996 20.4 58.8996 21.4 61.6996 23C64.4996 24.6 67.6996 27.3 67.2996 31.1Z" fill="#FBC7A0"/>
<path opacity="0.5" d="M47.5997 55.3C48.4997 55.3 49.3997 54.9 50.1997 54.4C48.2997 54.6 46.2997 54.1 44.6997 53.1C45.3997 54.2 46.0997 55.3 47.5997 55.3Z" fill="#FBC7A0"/>
<path opacity="0.8" d="M35.1999 29.5C35.1999 29.5 34.4999 29.9 34.3999 30.7C34.2999 31.5 34.6999 31.6 35.4999 31C37.5999 29.5 38.7999 31.1 39.7999 31.7C40.2999 32 40.4999 31.7 39.5999 30.6C37.7999 28.5 36.0999 28.7 35.1999 29.5Z" fill="#FBC7A0"/>
<path d="M40.1995 31.5C40.1995 31.5 40.2995 31.9 39.2995 30.8C38.2995 29.6 36.4995 29.2 34.6995 31C34.3995 31.4 34.0995 30 35.2995 28.9C36.4995 27.6 39.4995 28.4 40.1995 31.5Z" fill="#642B0E"/>
<path d="M40.0997 31.7C39.9997 31.7 39.7997 31.6 39.0997 30.9C38.5997 30.3 37.8997 30 37.2997 29.9C36.3997 29.8 35.5997 30.2 34.6997 31.1C34.5997 31.2 34.4997 31.2 34.4997 31.2C34.3997 31.2 34.2997 31.2 34.1997 31C34.0997 30.6 34.1997 29.6 35.0997 28.8C35.5997 28.3 36.1997 28.1 36.8997 28.2C38.1997 28.3 39.7997 29.3 40.2997 31.5C40.2997 31.5 40.2997 31.6 40.1997 31.7C40.2997 31.7 40.1997 31.7 40.0997 31.7ZM37.2997 29.6C37.9997 29.6 38.7997 30 39.2997 30.7C39.5997 31 39.7997 31.2 39.8997 31.3C39.3997 29.5 37.9997 28.6 36.8997 28.5C36.2997 28.5 35.6997 28.7 35.2997 29C34.4997 29.8 34.3997 30.7 34.4997 30.9C35.3997 30 36.3997 29.6 37.2997 29.6Z" fill="#3F1503"/>
<g opacity="0.5">
<path opacity="0.5" d="M36.7998 29C35.9998 29.1 35.5998 29.5 35.0998 30.1C34.8998 30.3 34.7998 30.4 34.5998 30.4C34.4998 30.4 34.4998 30.3 34.4998 30.3V30.2C34.2998 30.8 34.4998 31.2 34.6998 31C36.4998 29.1 38.2998 29.6 39.2998 30.8C40.1998 31.8 40.1998 31.6 40.1998 31.5C39.6998 30.3 38.1998 28.8 36.7998 29Z" fill="#642B0E"/>
</g>
<path opacity="0.8" d="M59.9998 30.5C59.9998 30.5 60.5998 31 60.6998 31.8C60.6998 32.6 60.2998 32.7 59.5998 32C57.6998 30.3 56.2998 31.6 55.2998 32.1C54.7998 32.4 54.5998 32 55.6998 31C57.5998 29.2 59.1998 29.5 59.9998 30.5Z" fill="#FBC7A0"/>
<path d="M54.7997 31.8C54.7997 31.8 54.6997 32.2 55.7997 31.2C56.9997 30.2 58.7997 30 60.2997 32C60.5997 32.4 60.9997 31.1 59.9997 29.8C58.9997 28.4 55.8997 28.8 54.7997 31.8Z" fill="#642B0E"/>
<path d="M54.8997 32C54.7997 32 54.7997 32 54.6997 31.9C54.5997 31.8 54.6997 31.7 54.6997 31.7C55.4997 29.6 57.0997 28.8 58.4997 28.9C59.1997 28.9 59.7997 29.3 60.1997 29.8C60.8997 30.8 60.9997 31.7 60.7997 32.1C60.6997 32.3 60.5997 32.3 60.4997 32.3C60.3997 32.3 60.3997 32.3 60.2997 32.2C59.5997 31.2 58.7997 30.7 57.8997 30.7C57.1997 30.7 56.4997 30.9 55.9997 31.4C55.1997 32 54.9997 32 54.8997 32ZM58.3997 29.2C57.1997 29.1 55.7997 29.8 54.9997 31.6C55.0997 31.5 55.2997 31.4 55.6997 31.1C56.3997 30.5 57.0997 30.3 57.8997 30.3C58.7997 30.4 59.6997 30.9 60.4997 31.9C60.5997 31.7 60.5997 30.8 59.8997 29.9C59.5997 29.5 59.0997 29.3 58.3997 29.2Z" fill="#3F1503"/>
<g opacity="0.5">
<path opacity="0.5" d="M58.4998 29.8C59.1998 30 59.5998 30.5 59.9998 31.1C60.0998 31.3 60.1998 31.5 60.4998 31.4C60.5998 31.4 60.5998 31.4 60.6998 31.3V31.2C60.7998 31.8 60.5998 32.2 60.3998 32C58.7998 29.9 56.9998 30.1 55.8998 31.2C54.7998 32.1 54.8998 31.8 54.8998 31.8C55.4998 30.7 57.1998 29.4 58.4998 29.8Z" fill="#642B0E"/>
</g>
<path d="M49.3 54.1C48.7 54.1 48.2 54.2 47.6 54.2C46.8 54.2 46.2 54 45.5 53.7C45.5 53.7 45.4 53.7 45.5 53.8C46.5 54.6 48.2 55.1 49.4 54.3C49.4 54.1 49.3 54.1 49.3 54.1Z" fill="#C16425"/>
<path opacity="0.8" d="M65.6998 23.4C64.2998 22.3 62.8998 21.2 61.3998 20.3C60.2998 19.7 59.2998 19.1 58.1998 18.5C55.4998 17.3 52.6998 16.4 49.8998 15.8C48.6998 15.6 47.4998 15.8 46.2998 15.8C43.8998 15.8 41.7998 16.7 39.6998 17.8C37.6998 18.9 35.6998 19.9 33.7998 21.2C32.0998 22.4 30.6998 23.4 30.1998 25.5C29.7998 27.4 29.6998 29.3 29.7998 31.3C29.9998 34 30.1998 36.4 29.1998 39C28.9998 39.5 28.8998 39.9 28.7998 40.3C29.0998 40.8 29.2998 41.3 29.6998 41.7C29.9998 42 30.3998 42.4 30.7998 42.6C32.3998 43.7 34.1998 44.2 36.0998 44.2C37.1998 44.2 38.2998 44 39.2998 43.5C39.9998 43.2 40.7998 42.9 41.4998 43.1C42.2998 43.3 42.9998 43.8 43.6998 44.2C44.6998 44.7 46.1998 44.5 46.6998 43.7C46.7998 43.6 45.9998 44 45.0998 44C44.0998 43.9 43.2998 43.3 43.1998 42.2C43.0998 40.8 44.5998 40.8 44.9998 39.7C45.2998 38.9 45.2998 38.1 45.5998 37.4C45.6998 37 45.9998 36.1 46.4998 36.1C47.2998 36.2 47.5998 37.3 47.7998 37.9C48.2998 39.4 48.6998 40.8 49.6998 42C50.7998 43.4 52.3998 44.5 53.9998 45.2C57.2998 46.6 61.5998 45.3 63.9998 42.8C64.8998 41.9 65.3998 40.8 65.9998 39.6C66.2998 38.9 66.5998 38.3 67.2998 37.8C67.5998 37.5 67.9998 37.5 68.3998 37.5C68.4998 35.7 68.7998 33.9 68.9998 32.1C69.2998 29.8 69.2998 27.4 68.0998 25.5C67.3998 24.8 66.4998 24.1 65.6998 23.4ZM68.0998 33.1C67.6998 33.9 66.8998 34.3 66.0998 34.4C66.0998 34.5 65.8998 34.5 65.8998 34.4C65.6998 34.4 65.5998 34.5 65.3998 34.5C65.1998 34.5 65.0998 34.2 65.2998 34.2C65.3998 34.2 65.4998 34.2 65.6998 34.1C64.3998 32 62.9998 29.6 60.6998 28.6C58.6998 27.8 56.1998 27.9 54.1998 28.6C53.1998 29 52.3998 29.5 51.5998 30.3C50.9998 31 50.3998 31.8 49.6998 32.5C49.6998 32.5 49.6998 32.5 49.7998 32.6C49.9998 32.7 49.7998 33 49.5998 32.9C48.1998 31.8 46.2998 31.3 44.7998 32.5C44.6998 32.6 44.5998 32.6 44.5998 32.5C43.4998 29.7 41.1998 26.7 37.9998 26.4C36.7998 26.3 35.4998 26.4 34.2998 26.7C33.0998 27 31.7998 27.4 30.9998 28.3V28.4C30.9998 28.5 30.8998 28.5 30.7998 28.5C30.6998 28.5 30.4998 28.4 30.5998 28.3L30.6998 28.2C30.8998 27.3 30.7998 26.3 31.1998 25.4C31.4998 24.7 31.8998 24.1 32.3998 23.6C33.4998 22.4 34.8998 21.5 36.2998 20.7C39.8998 18.5 44.1998 16.9 48.4998 17C52.8998 17.2 56.7998 19.3 60.5998 21.3C63.7998 23.1 67.6998 24.8 68.0998 28.9C68.1998 29.8 68.2998 30.8 68.2998 31.7C68.2998 32.1 68.2998 32.6 68.0998 33.1Z" fill="#FBC7A0"/>
<path opacity="0.8" d="M39.8999 32.8C38.8999 31.9 37.5999 31.4 36.1999 31.6C33.2999 32.1 31.9999 35.3 32.5999 37.9C32.8999 39.2 33.4999 40.8 34.6999 41.5C35.3999 41.9 36.0999 42 36.7999 42.2C36.7999 42.2 36.8999 42.2 36.8999 42.3C39.4999 42.2 41.4999 39 41.4999 36.6C41.5999 35.2 40.8999 33.7 39.8999 32.8Z" fill="#FBC7A0"/>
<path opacity="0.8" d="M29.7998 31.3C29.7998 31.7 29.8998 32.2 29.8998 32.6C29.9998 32.3 30.1998 32 30.2998 31.7C30.6998 31.2 31.0998 30.6 31.4998 30.2C32.4998 29.3 33.6998 28.6 35.0998 28.3C37.2998 27.9 39.6998 28.6 41.1998 30.4C43.4998 33.3 42.9998 37.3 40.7998 39.8C40.3998 40.4 39.8998 41 39.3998 41.5C40.3998 41.2 41.2998 40.8 42.0998 40C43.2998 38.8 43.9998 37.3 44.0998 35.6C44.2998 32.7 43.0998 28.7 40.0998 27.5C38.0998 26.7 35.3998 26.2 33.3998 27C31.9998 27.6 30.8998 28.7 29.7998 29.7C29.7998 30.3 29.7998 30.8 29.7998 31.3Z" fill="#FBC7A0"/>
<path opacity="0.8" d="M33.0999 40.2C32.9999 40.1 32.9999 40 32.8999 39.8C32.4999 39.6 31.9999 39.3 31.6999 38.9C30.8999 38.1 30.2999 37 29.8999 35.9C29.7999 36.8 29.6999 37.6 29.3999 38.5C29.8999 39.3 30.4999 40 31.1999 40.5C32.1999 41.3 33.4999 41.7 34.6999 41.8C34.4999 41.7 34.3999 41.6 34.2999 41.5C33.7999 41.1 33.3999 40.7 33.0999 40.2Z" fill="#FBC7A0"/>
<path d="M66.2997 35C66.2997 35 67.7997 35.1 68.3997 35.1C69.0997 35.1 69.5997 35.1 69.5997 35.6C69.5997 36.1 69.6997 36.8 68.8997 36.8C68.1997 36.8 66.1997 36.7 66.1997 36.7C66.1997 36.7 66.3997 35.6 66.2997 35Z" fill="#424241"/>
<path d="M66.0996 36.9V36.7C66.0996 36.7 66.1996 35.6 66.0996 35V34.8H66.2996C66.2996 34.8 67.7996 34.9 68.3996 34.9C68.4996 34.9 68.5996 34.9 68.7996 34.9C69.0996 34.9 69.7996 35 69.7996 35.5V35.6C69.7996 35.9 69.7996 36.4 69.4996 36.6C69.3996 36.9 69.1996 37 68.9996 37C68.2996 37 66.3996 36.9 66.2996 36.9H66.0996ZM66.4996 35.2C66.5996 35.7 66.4996 36.3 66.4996 36.6C66.9996 36.6 68.3996 36.6 68.9996 36.7C69.0996 36.7 69.1996 36.7 69.2996 36.6C69.4996 36.4 69.4996 36.1 69.4996 35.8V35.7C69.4996 35.5 69.3996 35.4 68.7996 35.4C68.6996 35.4 68.5996 35.4 68.3996 35.4C67.8996 35.3 66.8996 35.2 66.4996 35.2Z" fill="#231F20"/>
<path opacity="0.5" d="M69.1997 36.3C67.2997 36.4 66.8997 36.2 66.6997 35.9C66.5997 35.7 66.4997 35.4 66.4997 35.1C66.3997 35.1 66.1997 35.1 66.1997 35.1C66.2997 35.7 66.1997 36.8 66.1997 36.8C66.1997 36.8 68.1997 36.8 68.8997 36.9C69.2997 36.9 69.4997 36.6 69.4997 36.3C69.4997 36.3 69.3997 36.3 69.1997 36.3Z" fill="#424241"/>
<path d="M69.0994 35.5C68.7994 35.4 68.4994 35.4 68.1994 35.4C67.7994 35.4 67.4994 35.3 67.0994 35.4C66.9994 35.4 66.9994 35.5 67.0994 35.5C67.3994 35.6 67.7994 35.7 68.1994 35.7C68.4994 35.7 68.8994 35.8 69.1994 35.7C69.1994 35.7 69.1994 35.5 69.0994 35.5Z" fill="white"/>
<path d="M45.1001 35.5C45.1001 35.5 46.7001 32.7 49.0001 35.8C48.9001 33.7 48.9001 33.7 48.9001 33.7C48.9001 33.7 47.4001 31.3 45.1001 33.6C45.1001 34.5 45.1001 35.5 45.1001 35.5Z" fill="#424241"/>
<path d="M44.8999 35.9V35.5C44.8999 35.5 44.8999 34.6 44.9999 33.6V33.5C45.6999 32.8 46.3999 32.4 47.0999 32.5C48.1999 32.6 48.7999 33.6 48.7999 33.6L48.8999 36L48.6999 35.8C47.9999 34.9 47.3999 34.5 46.7999 34.4C45.6999 34.3 44.9999 35.5 44.9999 35.5L44.8999 35.9ZM46.8999 34.2C47.4999 34.2 48.1999 34.7 48.7999 35.4V33.7C48.6999 33.5 48.0999 32.8 47.1999 32.7C46.5999 32.7 45.8999 33 45.1999 33.6C45.1999 34.2 45.1999 34.7 45.1999 35.1C45.4999 34.7 46.0999 34.1 46.8999 34.2Z" fill="black"/>
<g opacity="0.5">
<path opacity="0.5" d="M48.9001 33.7C48.9001 33.7 48.5001 33 47.7001 32.7C47.7001 32.7 47.7001 32.7 47.8001 32.7C48.9001 33.2 49.0001 35.2 48.2001 34.3C47.4001 33.4 46.2001 33.8 45.7001 34.2C45.4001 34.4 45.4001 33.9 45.5001 33.4C45.4001 33.5 45.3001 33.6 45.2001 33.6C45.2001 34.5 45.1001 35.5 45.1001 35.5C45.1001 35.5 46.7001 32.7 49.0001 35.8C48.9001 33.7 48.9001 33.7 48.9001 33.7Z" fill="#424241"/>
</g>
<path d="M45.9001 33.4C45.9001 33.4 46.6001 32.9 47.4001 33.2C48.2001 33.6 47.8001 32.6 46.7001 32.7C45.7001 33 45.4001 33.6 45.9001 33.4Z" fill="white"/>
<path d="M48.0999 33.4C48.0999 33.4 47.9999 33.5 47.9999 33.4C47.8999 33.4 47.8999 33.3 47.8999 33.3C47.8999 33.3 47.9999 33.2 47.9999 33.3C48.0999 33.3 48.1999 33.3 48.0999 33.4Z" fill="white"/>
<path d="M45.4998 42.5C44.9998 42.3 44.6998 41.9 44.5998 41.3C44.5998 40.9 44.6998 40.6 44.7998 40.3C44.4998 40.6 44.0998 40.9 43.6998 41.2C43.0998 41.8 42.6998 42.5 43.4998 43.3C44.0998 43.9 45.0998 44.1 45.8998 43.9C46.7998 43.7 47.1998 43.1 47.4998 42.4C46.7998 42.7 46.0998 42.8 45.4998 42.5Z" fill="#FBC7A0"/>
<path d="M46.8996 43.2C45.9996 43.8 44.7996 43.9 43.8996 43.3C43.2996 42.9 42.8996 42 43.4996 41.4C43.7996 41.2 44.0996 41 44.3996 40.8C45.2996 40.1 45.5996 38.8 44.8996 37.8C45.0996 38.4 45.0996 38.9 44.8996 39.5C44.6996 40.2 43.9996 40.5 43.3996 40.9C42.7996 41.3 42.5996 42 42.7996 42.6C43.1996 43.4 43.9996 44 44.7996 44.1C45.4996 44.1 46.4996 43.8 46.8996 43.2C46.9996 43.1 47.0996 43.2 46.8996 43.2Z" fill="#C16425"/>
<path opacity="0.7" d="M54.4999 45.5C53.7999 46.2 52.6999 46.5 51.7999 46.7C50.2999 47.1 48.6999 47.4 47.0999 47.5C46.1999 47.5 45.2999 47.5 44.3999 47.4C43.6999 47.4 43.0999 47.3 42.3999 47.1C41.7999 46.9 41.3999 46.7 40.8999 46.3C41.6999 47.8 42.1999 49.4 43.1999 50.8C44.5999 52.6 47.3999 53.1 49.5999 52.4C51.8999 51.7 52.6999 50.3 53.6999 48.2C53.9999 47.5 54.2999 46.6 54.8999 46C54.9999 45.9 54.9999 45.9 55.0999 45.8C54.8999 45.7 54.6999 45.6 54.4999 45.5Z" fill="#FBC7A0"/>
<path opacity="0.8" d="M60.2999 33.7C59.4999 33 58.4999 32.5 57.4999 32.4C54.8999 32.3 53.3999 34.3 53.0999 36.8C52.9999 37.4 52.9999 38 53.0999 38.6C53.3999 41.1 55.1999 43.4 57.9999 43.1C60.5999 42.8 62.3999 40.1 62.2999 37.5C61.9999 36.2 61.2999 34.7 60.2999 33.7Z" fill="#FBC7A0"/>
<path opacity="0.8" d="M65.2996 34.3C65.1996 34 65.1996 33.6 65.0996 33.3C63.9996 31.5 62.6996 29.6 60.6996 28.8C58.6996 28 56.1996 28.1 54.1996 28.8C53.1996 29.2 52.3996 29.7 51.5996 30.5C51.1996 31 50.7996 31.5 50.3996 31.9C49.9996 32.6 49.7996 33.3 49.6996 34.1C49.3996 36 49.5996 37.8 50.5996 39.5C51.0996 40.3 51.5996 41.2 52.3996 41.8C52.9996 42.3 53.6996 42.7 54.2996 43.1C54.3996 43.2 54.3996 43.3 54.2996 43.4C55.5996 44 57.2996 44 58.6996 43.8C60.6996 43.4 62.6996 42.6 63.9996 40.9C65.4996 39 65.8996 36.7 65.5996 34.5C65.1996 34.6 65.0996 34.3 65.2996 34.3ZM62.4996 40.3C62.0996 40.9 61.4996 41.5 60.7996 41.9C59.9996 42.7 58.9996 43.3 57.6996 43.4C55.7996 43.6 54.2996 42.5 53.4996 41C53.3996 40.9 53.2996 40.8 53.1996 40.6C52.1996 39.4 51.5996 37.7 51.4996 36.1C51.2996 32.8 53.7996 29.8 57.2996 30C60.3996 30.1 62.8996 32.7 63.2996 35.8C63.4996 37.4 63.3996 39 62.4996 40.3Z" fill="#FBC7A0"/>
<path d="M40.7998 36C40.6998 34.7 40.0998 33.5 38.9998 32.8C37.4998 31.8 35.2998 31.9 34.0998 33.7C32.3998 36.3 32.9998 40 35.7998 41.2C37.6998 41.9 39.7998 40.6 40.3998 38.6C40.7998 37.7 40.8998 36.9 40.7998 36Z" fill="white"/>
<path opacity="0.7" d="M40.7998 36C40.6998 34.7 40.1998 33.6 39.0998 32.8C39.6998 33.7 40.0998 34.7 40.0998 35.7C40.0998 37.7 38.6998 40.2 36.3998 39.9C34.1998 39.6 33.3998 36.8 33.5998 35C33.5998 34.7 33.6998 34.4 33.7998 34.1C32.4998 36.7 33.1998 40 35.7998 41.1C37.6998 41.8 39.7998 40.5 40.3998 38.5C40.7998 37.7 40.8998 36.9 40.7998 36Z" fill="#D8D8D8"/>
<path d="M40.7999 36C40.7999 36 40.7999 35.9 40.7999 35.7C40.7999 35.6 40.7999 35.5 40.6999 35.3C40.6999 35.2 40.5999 35 40.5999 34.8C40.5999 34.7 40.4999 34.6 40.4999 34.5C40.4999 34.4 40.3999 34.3 40.3999 34.2C40.3999 34.1 40.2999 34 40.1999 33.9C40.0999 33.8 40.0999 33.7 39.9999 33.6C39.6999 33.2 39.2999 32.8 38.6999 32.5C38.1999 32.2 37.4999 32.1 36.7999 32.1C36.0999 32.1 35.3999 32.4 34.7999 32.9C34.4999 33.1 34.2999 33.5 34.0999 33.8C33.9999 34 33.8999 34.1 33.7999 34.3L33.6999 34.6C33.6999 34.7 33.5999 34.8 33.5999 34.9C33.2999 35.7 33.2999 36.5 33.2999 37.3C33.3999 38.1 33.6999 38.9 34.1999 39.5C34.2999 39.7 34.4999 39.8 34.5999 40C34.6999 40.1 34.8999 40.3 34.9999 40.4C35.1999 40.5 35.2999 40.6 35.4999 40.7C35.6999 40.8 35.7999 40.9 35.9999 40.9C36.0999 40.9 36.1999 41 36.2999 41H36.5999C36.7999 41 36.9999 41 37.0999 41C37.4999 41 37.7999 40.9 38.0999 40.8C38.2999 40.7 38.3999 40.7 38.5999 40.6C38.6999 40.5 38.8999 40.4 38.9999 40.3C39.2999 40.1 39.4999 39.9 39.6999 39.7C40.0999 39.2 40.3999 38.7 40.4999 38.3C40.6999 37.8 40.6999 37.4 40.7999 37C40.7999 36.8 40.7999 36.7 40.7999 36.5C40.7999 36.4 40.7999 36.2 40.7999 36.1V36ZM40.8999 36C40.8999 36 40.8999 36.1 40.8999 36.3C40.8999 36.4 40.8999 36.5 40.8999 36.7C40.8999 36.8 40.8999 37 40.8999 37.2C40.8999 37.6 40.7999 38 40.6999 38.5C40.5999 39 40.2999 39.5 39.8999 40.1C39.4999 40.6 38.9999 41.1 38.2999 41.3C37.9999 41.4 37.5999 41.5 37.1999 41.5C36.9999 41.5 36.7999 41.5 36.5999 41.5L36.2999 41.4C36.1999 41.4 36.0999 41.3 35.9999 41.3C35.7999 41.2 35.5999 41.1 35.3999 41C35.1999 40.9 35.0999 40.8 34.8999 40.7C34.6999 40.6 34.5999 40.4 34.3999 40.3C34.2999 40.1 34.0999 40 33.9999 39.8C33.4999 39.1 33.2999 38.3 33.1999 37.4C33.0999 36.6 33.2999 35.7 33.4999 34.9L33.5999 34.6L33.6999 34.3C33.7999 34.1 33.8999 33.9 33.9999 33.8C34.1999 33.4 34.3999 33.1 34.6999 32.8C35.2999 32.2 35.9999 31.9 36.7999 31.9C37.1999 31.9 37.4999 31.9 37.8999 32C38.1999 32.1 38.4999 32.2 38.7999 32.4C39.2999 32.7 39.7999 33.1 40.0999 33.6C40.3999 34 40.5999 34.4 40.6999 34.8C40.7999 35 40.7999 35.1 40.7999 35.3C40.7999 35.4 40.7999 35.6 40.8999 35.7C40.7999 35.9 40.8999 36 40.8999 36Z" fill="#C16425"/>
<path d="M39.6998 36.6C39.5998 38.7 38.2998 40.3 36.7998 40.2C35.2998 40.1 34.1998 38.4 34.2998 36.3C34.3998 34.2 35.6998 32.6 37.1998 32.7C38.6998 32.8 39.7998 34.5 39.6998 36.6Z" fill="#60CCD1"/>
<path d="M39.6998 36.6C39.5998 38.7 38.2998 40.3 36.7998 40.2C35.2998 40.1 34.1998 38.4 34.2998 36.3C34.3998 34.2 35.6998 32.6 37.1998 32.7C38.6998 32.8 39.7998 34.5 39.6998 36.6Z" fill="#361900"/>
<path d="M38.9997 36.7C38.8997 38.3 37.8997 39.5 36.7997 39.4C35.6997 39.3 34.7997 38 34.8997 36.4C34.9997 34.8 35.9997 33.6 37.0997 33.7C38.1997 33.8 39.0997 35.4 38.9997 36.7Z" fill="#5A3729"/>
<path d="M38.6998 36.5C38.5998 37.7 37.8998 38.7 36.9998 38.7C36.0998 38.7 35.3998 37.6 35.4998 36.4C35.5998 35.2 36.2998 34.2 37.1998 34.2C38.0998 34.2 38.6998 35.3 38.6998 36.5Z" fill="#1D1D1B"/>
<path opacity="0.5" d="M34.3998 35.7C34.3998 35.9 34.2998 36.1 34.2998 36.3C34.1998 38.4 35.2998 40.1 36.7998 40.2C38.2998 40.3 39.5998 38.7 39.6998 36.6C39.6998 36.4 39.6998 36.2 39.6998 36C37.9998 37.1 35.5998 37.2 34.3998 35.7Z" fill="#5C2E08"/>
<path d="M36.5999 35.5C36.4999 36.1 36.0999 36.6 35.5999 36.5C35.0999 36.4 34.8999 35.9 34.8999 35.2C34.9999 34.6 35.3999 34.1 35.8999 34.2C36.3999 34.3 36.6999 34.9 36.5999 35.5Z" fill="white"/>
<path d="M35.9999 37.5C35.9999 37.8 35.6999 38 35.4999 38C35.2999 38 35.0999 37.7 35.1999 37.4C35.1999 37.1 35.4999 36.9 35.6999 36.9C35.8999 36.9 36.0999 37.2 35.9999 37.5Z" fill="white"/>
<path d="M61.1997 37C61.0997 35.7 60.4997 34.5 59.3997 33.8C57.8997 32.8 55.6997 32.9 54.4997 34.7C52.7997 37.3 53.3997 41 56.1997 42.2C58.0997 42.9 60.1997 41.6 60.7997 39.6C61.0997 38.7 61.1997 37.9 61.1997 37Z" fill="white"/>
<path opacity="0.7" d="M61.1997 37C61.0997 35.7 60.5997 34.6 59.4997 33.8C60.0997 34.7 60.4997 35.7 60.4997 36.7C60.4997 38.7 59.0997 41.2 56.7997 40.9C54.5997 40.6 53.7997 37.8 53.9997 36C53.9997 35.7 54.0997 35.4 54.1997 35.1C52.8997 37.7 53.5997 41 56.1997 42.1C58.0997 42.8 60.1997 41.5 60.7997 39.5C61.0997 38.7 61.1997 37.9 61.1997 37Z" fill="#D8D8D8"/>
<path d="M61.0997 37C61.0997 37 61.0997 36.9 61.0997 36.7C61.0997 36.6 61.0997 36.5 60.9997 36.3C60.9997 36.2 60.8997 36 60.8997 35.8C60.8997 35.7 60.7997 35.6 60.7997 35.5C60.7997 35.4 60.6997 35.3 60.6997 35.2C60.6997 35.1 60.5997 35 60.4997 34.9C60.3997 34.8 60.3997 34.7 60.2997 34.6C59.9997 34.3 59.5997 34 58.9997 33.7C58.4997 33.4 57.7997 33.3 57.0997 33.3C56.3997 33.3 55.6997 33.6 55.0997 34.1C54.7997 34.3 54.5997 34.7 54.3997 35C54.2997 35.2 54.1997 35.3 54.0997 35.5L53.9997 35.7C53.9997 35.8 53.8997 35.9 53.8997 36C53.5997 36.8 53.5997 37.6 53.5997 38.4C53.6997 39.2 53.9997 40 54.4997 40.6C54.5997 40.8 54.7997 40.9 54.8997 41.1C54.9997 41.2 55.1997 41.4 55.2997 41.5C55.4997 41.6 55.5997 41.7 55.7997 41.8C55.9997 41.9 56.0997 42 56.2997 42C56.3997 42 56.4997 42.1 56.5997 42.1H56.8997C57.0997 42.1 57.2997 42.1 57.3997 42.1C57.7997 42.1 58.0997 42 58.3997 41.9C58.5997 41.8 58.6997 41.8 58.8997 41.7C58.9997 41.6 59.1997 41.5 59.2997 41.4C59.5997 41.2 59.7997 41 59.9997 40.8C60.3997 40.3 60.6997 39.8 60.7997 39.4C60.9997 38.9 60.9997 38.5 61.0997 38.1C61.0997 37.9 61.0997 37.8 61.0997 37.6C61.0997 37.5 61.0997 37.3 61.0997 37.2C61.1997 37.1 61.0997 37 61.0997 37ZM61.1997 37C61.1997 37 61.1997 37.1 61.1997 37.3C61.1997 37.4 61.1997 37.5 61.1997 37.7C61.1997 37.8 61.1997 38 61.1997 38.2C61.1997 38.6 61.0997 39 60.9997 39.5C60.8997 40 60.5997 40.5 60.1997 41.1C59.7997 41.6 59.2997 42.1 58.5997 42.3C58.2997 42.4 57.8997 42.5 57.4997 42.5C57.2997 42.5 57.0997 42.5 56.8997 42.5L56.5997 42.4C56.4997 42.4 56.3997 42.3 56.2997 42.3C56.0997 42.2 55.8997 42.1 55.6997 42C55.4997 41.9 55.3997 41.8 55.1997 41.7C54.9997 41.6 54.8997 41.4 54.6997 41.3C54.5997 41.1 54.3997 41 54.2997 40.8C53.7997 40.1 53.5997 39.3 53.4997 38.4C53.3997 37.6 53.5997 36.7 53.7997 35.9L53.8997 35.6L53.9997 35.3C54.0997 35.1 54.1997 34.9 54.2997 34.8C54.4997 34.4 54.6997 34.1 54.9997 33.8C55.5997 33.2 56.2997 32.9 57.0997 32.9C57.4997 32.9 57.7997 32.9 58.1997 33C58.4997 33.1 58.7997 33.2 59.0997 33.4C59.5997 33.7 60.0997 34.1 60.3997 34.6C60.6997 35 60.8997 35.4 60.9997 35.8C61.0997 36 61.0997 36.1 61.0997 36.3C61.0997 36.4 61.0997 36.6 61.1997 36.7C61.1997 36.9 61.1997 37 61.1997 37Z" fill="#C16425"/>
<path d="M60.0001 37.6C59.9001 39.7 58.6001 41.3 57.1001 41.2C55.6001 41.1 54.5001 39.4 54.6001 37.3C54.7001 35.2 56.0001 33.6 57.5001 33.7C59.0001 33.8 60.1001 35.5 60.0001 37.6Z" fill="#60CCD1"/>
<path d="M60.0001 37.6C59.9001 39.7 58.6001 41.3 57.1001 41.2C55.6001 41.1 54.5001 39.4 54.6001 37.3C54.7001 35.2 56.0001 33.6 57.5001 33.7C59.0001 33.8 60.1001 35.5 60.0001 37.6Z" fill="#361900"/>
<path d="M59.3 37.7C59.2 39.3 58.2 40.5 57.1 40.4C56 40.3 55.1 39 55.2 37.4C55.3 35.8 56.3 34.6 57.4 34.7C58.5 34.8 59.4 36.4 59.3 37.7Z" fill="#5A3729"/>
<path d="M59.0001 37.5C58.9001 38.7 58.2001 39.7 57.3001 39.7C56.4001 39.7 55.7001 38.6 55.8001 37.4C55.9001 36.2 56.6001 35.2 57.5001 35.2C58.4001 35.2 59.1001 36.3 59.0001 37.5Z" fill="#1D1D1B"/>
<path opacity="0.5" d="M54.7001 36.7C54.7001 36.9 54.6001 37.1 54.6001 37.3C54.5001 39.4 55.6001 41.1 57.1001 41.2C58.6001 41.3 59.9001 39.7 60.0001 37.6C60.0001 37.4 60.0001 37.2 60.0001 37C58.3001 38.1 55.9001 38.2 54.7001 36.7Z" fill="#5C2E08"/>
<path d="M56.9002 36.5C56.8002 37.1 56.4002 37.6 55.9002 37.5C55.4002 37.4 55.2002 36.9 55.2002 36.2C55.3002 35.6 55.7002 35.1 56.2002 35.2C56.7002 35.3 57.0002 35.9 56.9002 36.5Z" fill="white"/>
<path d="M56.3002 38.5C56.3002 38.8 56.0002 39 55.8002 39C55.6002 39 55.4002 38.7 55.5002 38.4C55.5002 38.1 55.8002 37.9 56.0002 37.9C56.2002 37.9 56.4002 38.2 56.3002 38.5Z" fill="white"/>
<path opacity="0.3" d="M65.0999 36.3C64.7999 40.6 61.0999 43.9 56.7999 43.6C52.4999 43.3 49.1999 39.6 49.4999 35.3C49.7999 31 53.4999 27.7 57.7999 28C62.0999 28.3 65.3999 32 65.0999 36.3Z" fill="white"/>
<path opacity="0.5" d="M58.7 28.1C58.4 28 58.1 28 57.8 28C53.5 27.7 49.8 31 49.5 35.3C49.5 35.5 49.5 35.7 49.5 36C52.5 33.3 55.6 30.7 58.7 28.1Z" fill="white"/>
<path opacity="0.5" d="M62.3001 37C60.3001 38.6 58.4001 40.4 56.4001 42.1C56.0001 42.5 55.5001 42.9 55.1001 43.3C55.6001 43.4 56.2001 43.6 56.7001 43.6C61.0001 43.9 64.7001 40.6 65.0001 36.3C65.0001 35.8 65.0001 35.3 64.9001 34.8C64.2001 35.6 63.2001 36.3 62.3001 37Z" fill="white"/>
<path d="M56.9 44.9C52 44.6 48.3 40.3 48.6 35.5C48.9 30.6 53.2 26.9 58 27.2C62.9 27.5 66.6 31.8 66.3 36.6C66 41.5 61.8 45.2 56.9 44.9ZM57.9 28.9C54 28.6 50.6 31.6 50.3 35.5C50 39.4 53 42.8 56.9 43.1C60.8 43.4 64.2 40.4 64.5 36.5C64.8 32.6 61.8 29.2 57.9 28.9Z" fill="#424241"/>
<path d="M56.9001 44.9C56.9001 44.9 56.7001 44.9 56.3001 44.8C56.1001 44.8 55.8001 44.7 55.6001 44.7C55.5001 44.7 55.3001 44.6 55.1001 44.6C54.9001 44.5 54.8001 44.5 54.6001 44.4C53.9001 44.1 53.0001 43.8 52.2001 43.1C51.3001 42.5 50.5001 41.6 49.8001 40.5C49.1001 39.4 48.7001 38 48.6001 36.4C48.6001 36.2 48.6001 36 48.6001 35.8C48.6001 35.6 48.6001 35.4 48.6001 35.2C48.7001 34.8 48.7001 34.4 48.8001 34C49.0001 33.2 49.3001 32.5 49.6001 31.7C50.0001 31 50.5001 30.3 51.1001 29.7C51.7001 29.1 52.4001 28.6 53.1001 28.1C53.8001 27.7 54.7001 27.4 55.5001 27.1C56.4001 26.9 57.2001 26.8 58.1001 26.9C59.0001 27 59.8001 27.1 60.7001 27.4C61.5001 27.7 62.3001 28.1 63.0001 28.6C63.7001 29.1 64.3001 29.7 64.8001 30.4C65.3001 31.1 65.7001 31.8 66.0001 32.6C66.3001 33.4 66.5001 34.2 66.5001 35C66.6001 35.4 66.5001 35.8 66.5001 36.2C66.5001 36.4 66.5001 36.6 66.4001 36.8C66.4001 37 66.4001 37.2 66.3001 37.4C66.0001 38.9 65.4001 40.2 64.6001 41.3C63.8001 42.3 62.8001 43.1 61.9001 43.6C61.0001 44.1 60.1001 44.4 59.3001 44.5C59.1001 44.5 58.9001 44.6 58.8001 44.6C58.6001 44.6 58.5001 44.6 58.3001 44.6C58.0001 44.6 57.8001 44.6 57.5001 44.6C57.1001 44.9 56.9001 44.9 56.9001 44.9ZM56.9001 44.9C56.9001 44.9 57.1001 44.9 57.5001 44.9C57.7001 44.9 58.0001 44.9 58.2001 44.9C58.3001 44.9 58.5001 44.9 58.7001 44.9C58.9001 44.9 59.0001 44.8 59.2001 44.8C59.9001 44.6 60.8001 44.4 61.7001 43.8C62.6001 43.3 63.5001 42.5 64.3001 41.5C65.1001 40.5 65.7001 39.2 65.9001 37.7C66.2001 36.2 66.0001 34.7 65.5001 33.1C65.2001 32.3 64.8001 31.6 64.4001 30.9C63.9001 30.2 63.3001 29.6 62.7001 29.1C62.0001 28.6 61.3001 28.2 60.5001 27.8C59.7001 27.5 58.9001 27.3 58.0001 27.2C57.1001 27.2 56.3001 27.2 55.4001 27.4C54.6001 27.6 53.8001 27.9 53.0001 28.3C52.3001 28.7 51.6001 29.3 51.0001 29.9C50.4001 30.5 49.9001 31.2 49.6001 31.9C49.2001 32.6 49.0001 33.4 48.8001 34.1C48.7001 34.5 48.7001 34.9 48.6001 35.2C48.6001 35.4 48.6001 35.6 48.6001 35.8C48.6001 36 48.6001 36.2 48.6001 36.4C48.7001 37.9 49.1001 39.2 49.8001 40.4C50.4001 41.5 51.3001 42.4 52.1001 43.1C52.9001 43.8 53.8001 44.2 54.5001 44.4C54.7001 44.5 54.9001 44.5 55.0001 44.6C55.2001 44.6 55.3001 44.7 55.5001 44.7C55.8001 44.8 56.0001 44.8 56.2001 44.8C56.7001 44.8 56.9001 44.9 56.9001 44.9Z" fill="#1D1D1B"/>
<path d="M57.8999 28.9C57.8999 28.9 57.6999 28.9 57.3999 28.9C57.1999 28.9 56.9999 28.9 56.7999 28.9C56.6999 28.9 56.5999 28.9 56.3999 28.9C56.2999 28.9 56.0999 29 55.9999 29C55.3999 29.1 54.6999 29.4 53.9999 29.8C53.2999 30.2 52.4999 30.8 51.8999 31.7C51.2999 32.5 50.7999 33.6 50.5999 34.7C50.5999 35 50.4999 35.3 50.4999 35.6C50.4999 35.9 50.4999 36.2 50.4999 36.5C50.4999 37.1 50.6999 37.7 50.8999 38.4C51.0999 39 51.3999 39.6 51.7999 40.1C52.1999 40.6 52.6999 41.1 53.1999 41.5C53.6999 41.9 54.3999 42.2 54.9999 42.5C55.5999 42.7 56.2999 42.9 56.9999 42.9C57.6999 42.9 58.3999 42.9 58.9999 42.7C59.6999 42.5 60.2999 42.3 60.8999 41.9C61.4999 41.5 61.9999 41.1 62.4999 40.7C62.8999 40.2 63.2999 39.7 63.5999 39.1C64.1999 38 64.3999 36.7 64.3999 35.5C64.2999 34.3 63.9999 33.2 63.4999 32.4C62.9999 31.5 62.2999 30.8 61.6999 30.3C60.9999 29.8 60.3999 29.4 59.7999 29.2C59.6999 29.2 59.4999 29.1 59.3999 29.1C59.2999 29.1 59.0999 29 58.9999 29C58.7999 28.9 58.5999 28.9 58.3999 28.9C58.0999 29 57.8999 28.9 57.8999 28.9ZM57.8999 28.9C57.8999 28.9 58.0999 28.9 58.3999 29C58.5999 29 58.7999 29.1 58.9999 29.1C59.0999 29.1 59.1999 29.1 59.3999 29.2C59.4999 29.2 59.6999 29.3 59.7999 29.3C60.3999 29.5 61.0999 29.8 61.7999 30.3C62.4999 30.8 63.1999 31.5 63.6999 32.4C64.1999 33.3 64.5999 34.4 64.6999 35.7C64.7999 36.9 64.4999 38.2 63.8999 39.4C63.5999 40 63.1999 40.5 62.6999 41C62.1999 41.5 61.6999 41.9 61.0999 42.3C60.4999 42.6 59.7999 42.9 59.0999 43C58.3999 43.1 57.6999 43.2 56.9999 43.1C56.2999 43 55.5999 42.9 54.9999 42.6C54.3999 42.3 53.6999 42 53.1999 41.6C52.6999 41.2 52.1999 40.7 51.7999 40.1C51.3999 39.5 51.0999 39 50.7999 38.3C50.5999 37.7 50.3999 37 50.3999 36.4C50.3999 36.1 50.3999 35.8 50.3999 35.5C50.3999 35.2 50.4999 34.9 50.4999 34.6C50.6999 33.4 51.1999 32.3 51.8999 31.5C52.5999 30.7 53.3999 30.1 54.0999 29.7C54.8999 29.3 55.5999 29.1 56.1999 29C56.3999 29 56.4999 28.9 56.5999 28.9C56.6999 28.9 56.8999 28.9 56.9999 28.9C57.1999 28.9 57.3999 28.9 57.5999 28.9C57.7999 28.9 57.8999 28.9 57.8999 28.9Z" fill="#1D1D1B"/>
<g opacity="0.5">
<path opacity="0.5" d="M57.8998 28.9C61.6998 29.1 64.5998 32.3 64.4998 36C64.4998 35.9 64.4998 35.7 64.4998 35.6C64.7998 31.7 61.7998 28.3 57.8998 28C53.9998 27.7 50.5998 30.7 50.2998 34.6C50.2998 34.7 50.2998 34.9 50.2998 35C50.8998 31.4 54.1998 28.7 57.8998 28.9Z" fill="#424241"/>
<path opacity="0.5" d="M56.9 44C52.2 43.7 48.5 39.7 48.6 35C48.6 35.1 48.6 35.3 48.6 35.4C48.3 40.3 52 44.5 56.9 44.8C61.8 45.1 66 41.4 66.3 36.5C66.3 36.4 66.3 36.2 66.3 36.1C65.8 40.8 61.7 44.3 56.9 44Z" fill="#424241"/>
</g>
<path opacity="0.5" d="M58.0001 27.5C62.7001 27.8 66.5001 32.2 66.1001 36.9C66.1001 36.8 66.1001 36.7 66.1001 36.6C66.4001 31.8 62.8001 27.6 57.9001 27.3C53.1001 27 48.9001 30.6 48.6001 35.5C48.6001 35.6 48.6001 35.7 48.6001 35.8C48.8001 30.6 53.3001 27.1 58.0001 27.5Z" fill="#B2B2B2"/>
<path opacity="0.5" d="M56.9002 43.5C52.9002 43.2 49.6002 39.5 50.0002 35.4C50.0002 35.5 50.0002 35.6 50.0002 35.7C49.7002 39.8 52.9002 43.4 57.0002 43.7C61.1002 44 64.7002 40.8 65.0002 36.7C65.0002 36.6 65.0002 36.5 65.0002 36.4C64.7002 40.7 60.9002 43.7 56.9002 43.5Z" fill="#B2B2B2"/>
<path opacity="0.3" d="M43.9998 34.9C43.6998 39.2 39.9998 42.5 35.6998 42.2C31.3998 41.9 28.0998 38.2 28.3998 33.9C28.6998 29.6 32.3998 26.3 36.6998 26.6C40.9998 26.9 44.1998 30.6 43.9998 34.9Z" fill="white"/>
<path opacity="0.5" d="M37.5999 26.7C37.2999 26.6 36.9999 26.6 36.6999 26.6C32.3999 26.3 28.6999 29.6 28.3999 33.9C28.3999 34.1 28.3999 34.3 28.3999 34.6C31.3999 31.9 34.3999 29.3 37.5999 26.7Z" fill="white"/>
<path opacity="0.5" d="M41.2 35.6C39.2 37.2 37.3 39 35.3 40.7C34.9 41.1 34.4 41.5 34 41.9C34.5 42 35.1 42.2 35.6 42.2C39.9 42.5 43.6 39.2 43.9 34.9C43.9 34.4 43.9 33.9 43.8 33.4C43 34.2 42.1 34.9 41.2 35.6Z" fill="white"/>
<path d="M35.6998 43.5C30.7998 43.2 27.0998 38.9 27.3998 34.1C27.6998 29.2 31.9998 25.5 36.7998 25.8C41.6998 26.1 45.3998 30.4 45.0998 35.2C44.8998 40.1 40.5998 43.8 35.6998 43.5ZM36.7998 27.5C32.8998 27.2 29.4998 30.2 29.1998 34.1C28.8998 38 31.8998 41.4 35.7998 41.7C39.6998 42 43.0998 39 43.3998 35.1C43.6998 31.2 40.6998 27.8 36.7998 27.5Z" fill="#424241"/>
<path d="M35.6999 43.5C35.6999 43.5 35.4999 43.5 35.0999 43.4C34.8999 43.4 34.5999 43.3 34.3999 43.3C34.2999 43.3 34.0999 43.2 33.8999 43.2C33.6999 43.1 33.5999 43.1 33.3999 43C32.6999 42.7 31.7999 42.4 30.9999 41.7C30.0999 41.1 29.2999 40.2 28.5999 39.1C27.8999 38 27.4999 36.6 27.3999 35C27.3999 34.8 27.3999 34.6 27.3999 34.4C27.3999 34.2 27.3999 34 27.3999 33.8C27.4999 33.4 27.4999 33 27.5999 32.6C27.7999 31.8 28.0999 31.1 28.3999 30.3C28.7999 29.6 29.2999 28.9 29.8999 28.3C30.4999 27.7 31.1999 27.2 31.8999 26.7C32.5999 26.3 33.4999 26 34.2999 25.7C35.1999 25.5 35.9999 25.4 36.8999 25.5C37.7999 25.6 38.5999 25.7 39.4999 26C40.2999 26.3 41.0999 26.7 41.7999 27.2C42.4999 27.7 43.0999 28.3 43.5999 29C44.0999 29.7 44.4999 30.4 44.7999 31.2C45.0999 32 45.2999 32.8 45.2999 33.6C45.3999 34 45.2999 34.4 45.2999 34.8C45.2999 35 45.2999 35.2 45.1999 35.4C45.1999 35.6 45.1999 35.8 45.0999 36C44.7999 37.5 44.1999 38.8 43.3999 39.9C42.5999 40.9 41.5999 41.7 40.6999 42.2C39.7999 42.7 38.8999 43 38.0999 43.1C37.8999 43.1 37.6999 43.2 37.5999 43.2C37.3999 43.2 37.2999 43.2 37.0999 43.2C36.7999 43.2 36.5999 43.2 36.2999 43.2C35.9999 43.5 35.6999 43.5 35.6999 43.5ZM35.6999 43.5C35.6999 43.5 35.8999 43.5 36.2999 43.5C36.4999 43.5 36.7999 43.5 36.9999 43.5C37.0999 43.5 37.2999 43.5 37.4999 43.5C37.6999 43.5 37.7999 43.4 37.9999 43.4C38.6999 43.2 39.5999 43 40.4999 42.4C41.3999 41.9 42.2999 41.1 43.0999 40.1C43.8999 39.1 44.4999 37.8 44.6999 36.3C44.9999 34.8 44.7999 33.3 44.2999 31.7C43.9999 30.9 43.5999 30.2 43.1999 29.5C42.6999 28.8 42.0999 28.2 41.4999 27.7C40.7999 27.2 40.0999 26.8 39.2999 26.4C38.4999 26.1 37.6999 25.9 36.7999 25.8C35.8999 25.8 35.0999 25.8 34.1999 26C33.3999 26.2 32.5999 26.5 31.7999 26.9C31.0999 27.3 30.3999 27.9 29.7999 28.5C29.1999 29.1 28.6999 29.8 28.3999 30.5C27.9999 31.2 27.7999 32 27.5999 32.7C27.4999 33.1 27.4999 33.5 27.3999 33.8C27.3999 34 27.3999 34.2 27.3999 34.4C27.3999 34.6 27.3999 34.8 27.3999 35C27.4999 36.5 27.8999 37.8 28.5999 39C29.1999 40.1 30.0999 41 30.8999 41.7C31.6999 42.4 32.5999 42.8 33.2999 43C33.4999 43.1 33.6999 43.1 33.7999 43.2C33.9999 43.2 34.0999 43.3 34.2999 43.3C34.5999 43.4 34.7999 43.4 34.9999 43.4C35.4999 43.4 35.6999 43.5 35.6999 43.5Z" fill="#1D1D1B"/>
<path d="M36.7998 27.5C36.7998 27.5 36.5998 27.5 36.2998 27.5C36.0998 27.5 35.8998 27.5 35.6998 27.5C35.5998 27.5 35.4998 27.5 35.2998 27.5C35.1998 27.5 34.9998 27.6 34.8998 27.6C34.2998 27.7 33.5998 28 32.8998 28.4C32.1998 28.8 31.3998 29.4 30.7998 30.3C30.1998 31.1 29.6998 32.2 29.4998 33.3C29.4998 33.6 29.3998 33.9 29.3998 34.2C29.3998 34.5 29.3998 34.8 29.3998 35.1C29.3998 35.7 29.5998 36.3 29.7998 37C29.9998 37.6 30.2998 38.2 30.6998 38.7C31.0998 39.2 31.5998 39.7 32.0998 40.1C32.5998 40.5 33.2998 40.8 33.8998 41.1C34.4998 41.3 35.1998 41.5 35.8998 41.5C36.5998 41.5 37.2998 41.5 37.8998 41.3C38.5998 41.1 39.1998 40.9 39.7998 40.5C40.3998 40.1 40.8998 39.7 41.3998 39.3C41.7998 38.8 42.1998 38.3 42.4998 37.7C43.0998 36.6 43.2998 35.3 43.2998 34.1C43.1998 32.9 42.8998 31.8 42.3998 31C41.8998 30.1 41.1998 29.4 40.5998 28.9C39.8998 28.4 39.2998 28 38.6998 27.8C38.5998 27.8 38.3998 27.7 38.2998 27.7C38.1998 27.7 37.9998 27.6 37.8998 27.6C37.6998 27.5 37.4998 27.5 37.2998 27.5C36.9998 27.6 36.7998 27.5 36.7998 27.5ZM36.7998 27.5C36.7998 27.5 36.9998 27.5 37.2998 27.6C37.4998 27.6 37.6998 27.7 37.8998 27.7C37.9998 27.7 38.0998 27.7 38.2998 27.8C38.3998 27.8 38.5998 27.9 38.6998 27.9C39.2998 28.1 39.9998 28.4 40.6998 28.9C41.3998 29.4 42.0998 30.1 42.5998 31C43.0998 31.9 43.4998 33 43.5998 34.3C43.6998 35.5 43.3998 36.8 42.7998 38C42.4998 38.6 42.0998 39.1 41.5998 39.6C41.0998 40.1 40.5998 40.5 39.9998 40.9C39.3998 41.2 38.6998 41.5 37.9998 41.6C37.2998 41.7 36.5998 41.8 35.8998 41.7C35.1998 41.6 34.4998 41.5 33.8998 41.2C33.2998 40.9 32.5998 40.6 32.0998 40.2C31.5998 39.8 31.0998 39.3 30.6998 38.7C30.2998 38.1 29.9998 37.6 29.6998 36.9C29.4998 36.3 29.2998 35.6 29.2998 35C29.2998 34.7 29.2998 34.4 29.2998 34.1C29.2998 33.8 29.3998 33.5 29.3998 33.2C29.5998 32 30.0998 30.9 30.7998 30.1C31.4998 29.3 32.2998 28.7 32.9998 28.3C33.7998 27.9 34.4998 27.7 35.0998 27.6C35.2998 27.6 35.3998 27.5 35.4998 27.5C35.5998 27.5 35.7998 27.5 35.8998 27.5C36.0998 27.5 36.2998 27.5 36.4998 27.5C36.5998 27.5 36.7998 27.5 36.7998 27.5Z" fill="#1D1D1B"/>
<g opacity="0.5">
<path opacity="0.5" d="M36.7997 27.5C40.5997 27.7 43.4997 30.9 43.3997 34.6C43.3997 34.5 43.3997 34.3 43.3997 34.2C43.6997 30.3 40.6997 26.9 36.7997 26.6C32.8997 26.3 29.4997 29.3 29.1997 33.2C29.1997 33.3 29.1997 33.5 29.1997 33.6C29.7997 30 32.9997 27.3 36.7997 27.5Z" fill="#424241"/>
<path opacity="0.5" d="M35.7999 42.6C31.0999 42.3 27.3999 38.3 27.4999 33.6C27.4999 33.7 27.4999 33.9 27.4999 34C27.1999 38.9 30.8999 43.1 35.7999 43.4C40.6999 43.7 44.8999 40 45.1999 35.1C45.1999 35 45.1999 34.8 45.1999 34.7C44.6999 39.4 40.4999 42.9 35.7999 42.6Z" fill="#424241"/>
</g>
<path opacity="0.5" d="M36.7999 26.1C41.4999 26.4 45.2999 30.8 44.8999 35.5C44.8999 35.4 44.8999 35.3 44.8999 35.2C45.1999 30.4 41.5999 26.2 36.6999 25.9C31.8999 25.6 27.6999 29.2 27.3999 34.1C27.3999 34.2 27.3999 34.3 27.3999 34.4C27.6999 29.2 32.0999 25.7 36.7999 26.1Z" fill="#B2B2B2"/>
<path opacity="0.5" d="M35.7 42.1C31.7 41.8 28.4 38.1 28.8 34C28.8 34.1 28.8 34.2 28.8 34.3C28.5 38.4 31.7 42 35.8 42.3C39.9 42.6 43.5 39.4 43.8 35.3C43.8 35.2 43.8 35.1 43.8 35C43.6 39.3 39.8 42.3 35.7 42.1Z" fill="#B2B2B2"/>
<path d="M55.2997 45.9C54.9997 45.6 54.5997 45.6 54.2997 45.3C53.8997 45 53.4997 44.7 53.2997 44.3H53.1997C53.1997 44.7 53.4997 45.2 53.8997 45.6C51.7997 46.7 49.5997 47.6 47.1997 47.5C44.8997 47.5 41.8997 47.2 40.2997 45.4C40.2997 45.4 40.1997 45.4 40.1997 45.5C40.4997 46.2 41.0997 46.7 41.6997 47C42.1997 47.6 42.0997 48.2 42.6997 49.1C43.2997 50 43.8997 50.8 44.6997 51.4C45.6997 52.1 47.0997 52.5 48.2997 52.3C49.7997 52 51.0997 51.5 52.0997 50.3C53.0997 49.1 53.5997 47.4 54.4997 46.1C54.7997 46.2 54.9997 46.2 55.2997 46.1C55.2997 46 55.3997 45.9 55.2997 45.9Z" fill="#C16425"/>
<path d="M52.0997 49.2C51.6997 49.8 51.2997 50.3 50.6997 50.8C50.0997 51.3 49.1997 51.5 48.3997 51.6C46.6997 51.9 44.6997 51 43.5997 49.8C43.0997 49.2 42.7997 48.5 42.4997 47.7C42.3997 47.5 42.2997 47.3 42.1997 47.2C43.6997 47.8 45.4997 47.8 46.6997 47.9C49.0997 48 51.6997 47.4 53.6997 46.1C53.1997 47.1 52.7997 48.3 52.0997 49.2Z" fill="#A33044"/>
<path d="M48.6999 50.2C47.5999 50.2 46.5999 50.6 45.8999 51.3C46.6999 51.6 47.5999 51.8 48.3999 51.6C49.1999 51.5 49.9999 51.3 50.6999 50.8C50.1999 50.4 49.4999 50.2 48.6999 50.2Z" fill="#EB5961"/>
<path d="M48.1999 50.7C48.2999 50.7 48.2999 50.7 48.3999 50.6C48.4999 50.6 48.7999 50.5 48.7999 50.3C48.8999 50 47.9999 50.2 47.8999 50.2C47.7999 50.2 47.2999 50.4 47.3999 50.6C47.3999 50.7 47.6999 50.7 47.7999 50.7C47.8999 50.8 48.0999 50.8 48.1999 50.7Z" fill="#EB5961"/>
<path d="M45.6998 49.8C46.7998 50.1 47.7998 50 48.8998 49.8C50.1998 49.6 51.3998 49.2 52.4998 48.7C52.9998 47.9 53.3998 47 53.8998 46.1C51.7998 47.3 49.1998 48 46.8998 47.9C45.9998 47.8 44.8998 47.8 43.7998 47.6C44.0998 48.6 44.5998 49.5 45.6998 49.8Z" fill="white"/>
<path d="M71.4999 29.9C71.1999 28.9 70.6998 28 70.0998 27.2C68.6998 25.4 66.7999 23.8 64.8999 22.5C62.9999 21.2 61.0998 19.9 59.0998 18.9C57.5998 18.1 56.0999 17.4 54.4999 16.9C50.3999 15.4 46.0999 15.2 41.9999 16.6C39.8999 17.3 37.8999 18.3 36.0999 19.5C34.5999 20.5 32.9999 21.5 31.6999 22.7C29.1999 25 27.1999 27.8 25.8999 31C25.1999 32.7 24.6999 34.5 24.7999 36.4C24.7999 36.7 24.7999 37.1 24.7999 37.4C24.8999 36.6 24.9999 35.8 25.0999 35.1C25.7999 31.6 27.4999 28.4 29.6999 25.7C32.4999 22.2 36.4999 19.5 40.5999 17.8C42.6999 16.9 44.9999 16.2 47.2999 16.2C51.2999 16.3 55.2999 17.7 58.7999 19.5C59.7999 20 60.7999 20.6 61.7999 21.2C63.4999 22.3 65.0999 23.6 66.6999 24.9C68.0999 26.1 69.4999 27.3 70.2999 28.9C71.2999 30.7 71.8998 32.7 72.2999 34.7C72.0998 32.9 71.9999 31.3 71.4999 29.9Z" fill="#6B0000"/>
<path d="M64.7996 51.7C62.6996 53.3 60.4996 54.8 58.0996 56C55.6996 57.2 52.9996 58 50.2996 58.2C48.8996 58.3 47.5996 58.3 46.1996 58.2C44.7996 58.1 43.4996 57.9 42.2996 57.4C41.1996 56.9 40.0996 56.3 38.9996 55.8C38.2996 55.5 37.6996 55.1 36.9996 54.8C36.4996 54.5 36.0996 54.1 35.6996 53.8C35.5996 53.8 35.5996 53.8 35.5996 53.9C35.8996 54.2 36.0996 54.5 36.3996 54.8C36.9996 55.3 37.5996 55.6 38.2996 56C39.4996 56.6 40.5996 57.4 41.7996 57.9C42.3996 58.1 42.9996 58.4 43.5996 58.5C44.2996 58.7 45.0996 58.6 45.7996 58.8C47.0996 59.1 48.4996 59.1 49.7996 59C52.5996 58.8 55.1996 58.1 57.7996 56.9C59.0996 56.3 60.1996 55.6 61.3996 54.8C62.5996 54 63.7996 53.1 64.7996 52C64.9996 51.8 64.8996 51.7 64.7996 51.7Z" fill="#6B0000"/>
<path d="M55.5 63.7C52.8 64.5 49.8 65.5 46.9 65C45.3 64.8 44 64.4 42.7 63.4C41.5 62.4 40.2 61.4 39.2 60.2C39.1 60.1 39 60.2 39.1 60.3C39.9 61.6 41.1 62.6 42.2 63.6C43.5 64.7 44.7 65.1 46.3 65.4C47.8 65.7 49.2 65.5 50.7 65.3C52.4 65.1 54 64.6 55.5 63.8C55.7 63.8 55.6 63.6 55.5 63.7Z" fill="#6B0000"/>
<path d="M74.2998 44C74.2998 44 74.1998 43.9 74.2998 44C72.9998 48 69.9998 51.4 66.9998 54.2C66.2998 54.9 65.5998 55.5 64.8998 56.2C64.1998 56.9 63.3998 57.3 62.5998 57.9C60.8998 59.1 59.1998 60 57.2998 60.8V60.9C59.0998 60.3 60.9998 59.7 62.5998 58.5C63.2998 57.9 64.0998 57.5 64.7998 56.9C65.2998 56.5 65.7998 56 66.2998 55.5C66.5998 56.1 66.5998 56.8 66.1998 57.3C65.7998 57.7 65.4998 58.1 65.0998 58.5C65.0998 58.5 65.0998 58.6 65.1998 58.6C65.8998 58.2 66.4998 57.8 66.7998 57.1C67.0998 56.6 66.7998 55.8 66.3998 55.3C66.6998 55 66.9998 54.7 67.1998 54.5C70.2998 51.6 73.2998 48.3 74.2998 44Z" fill="#6B0000"/>
<path d="M33.6999 59.7C33.2999 59.4 32.7999 58.9 32.7999 58.4C32.6999 57.7 33.0999 57 33.5999 56.5C33.5999 56.5 33.5999 56.4 33.4999 56.4C32.8999 56.8 32.4999 57.5 32.3999 58.2C32.3999 58.8 33.0999 59.6 33.6999 59.7Z" fill="#6B0000"/>
</g>
</g>
<defs>
<clipPath id="clip0_65_2130">
<rect width="76.5" height="95.4" fill="white" transform="translate(12 5)"/>
</clipPath>
</defs>
</svg>
