<svg width="80" height="80" viewBox="0 0 80 80" fill="none" xmlns="http://www.w3.org/2000/svg">
<mask id="mask0_51_1058" style="mask-type:alpha" maskUnits="userSpaceOnUse" x="0" y="0" width="80" height="80">
<circle cx="40" cy="40" r="40" fill="#DAEED3"/>
</mask>
<g mask="url(#mask0_51_1058)">
<circle cx="40" cy="40" r="40" fill="#DAEED3"/>
<path d="M20.6483 22.1072C20.6483 22.1072 17.8233 33.2288 21.7551 38.312C25.6869 43.3953 28.619 44.9707 33.8049 45.899C38.9908 46.8273 50.8577 48.3313 56.4318 37.1829C58.0295 33.983 59.8682 28.5249 58.1366 22.1028C56.405 15.6807 20.6483 22.1072 20.6483 22.1072Z" fill="#3A2924"/>
<path d="M53.227 54.2C53.227 59.6135 47.1798 64.0183 39.7268 64.0183C32.2737 64.0183 26.231 59.6313 26.231 54.2C26.231 48.7686 32.2782 45.2384 39.7312 45.2384C47.1843 45.2384 53.227 48.7865 53.227 54.2Z" fill="#D48934"/>
<path d="M49.8173 54.3071C49.8173 58.3505 45.3009 61.6307 39.7312 61.6307C34.1615 61.6307 29.645 58.3505 29.645 54.3071C29.645 50.2637 34.1615 47.6127 39.7312 47.6127C45.3009 47.6127 49.8173 50.2637 49.8173 54.3071Z" fill="#C17325"/>
<path d="M49.242 51.5624C67.5399 57.6007 64.7015 80 64.7015 80H14.4002C14.4002 79.518 13.5076 56.5385 31.0914 51.1875L33.5906 54.3874H46.4438L49.242 51.5624Z" fill="#D48934"/>
<path d="M23.0088 69.1328H22.5625V79.9956H23.0088V69.1328Z" fill="#C17325"/>
<path d="M57.1675 69.1328H56.7212V79.9956H57.1675V69.1328Z" fill="#C17325"/>
<path d="M34.4473 44.7743L34.7106 47.9474C37.9909 48.8176 41.4288 48.9123 44.7521 48.2241L44.8101 43.7032L34.4473 44.7743Z" fill="#E8BA8D"/>
<path d="M34.7104 47.9474L35.1166 52.7674C35.1166 52.7674 35.7905 57.1946 39.7312 57.1946C44.1495 57.1946 44.694 52.7674 44.694 52.7674L44.7475 48.2241C41.4256 48.9117 37.9894 48.8169 34.7104 47.9474Z" fill="#EFD0B3"/>
<path d="M55.302 18.6351C55.302 18.6351 57.0425 24.1066 56.1723 31.997C55.3689 39.2805 49.6564 46.5461 40.7306 47.1263C32.327 47.6707 25.1417 44.2343 22.522 32.4478C19.9022 20.6613 24.0572 12.0791 34.853 9.91459C45.4881 7.78133 53.2892 11.7042 55.302 18.6351Z" fill="#EFD0B3"/>
<path d="M49.3843 9.33887C41.6233 7.58941 33.4473 10.1243 30.7919 11.3784C31.0195 9.8164 30.3099 8 29.7877 8C29.0915 8 29.2388 11.0571 29.2968 11.9898L29.2165 12.0166C28.9174 11.3204 28.0204 9.46829 27.0832 10.1377C26.4495 10.5885 27.2082 11.5703 28.0159 12.3156C25.5881 13.1011 19.6703 12.628 18.9652 20.0007C18.6788 23.4708 18.9165 26.9643 19.6703 30.3636C19.6703 30.3636 19.224 31.6221 23.013 30.0066C23.8208 29.6629 25.5658 29.3193 26.5833 25.4321C28.4935 25.4321 31.555 25.4321 32.4208 24.3699C32.9474 23.7183 32.7154 21.112 32.4833 19.6259C33.666 21.5494 33.9962 24.6645 35.3931 24.6645C40.1372 24.6645 46.3808 25.7981 47.135 24.3699C47.8892 22.9418 47.4385 17.6756 47.4385 17.6756C47.4385 17.6756 48.6792 22.5625 50.5268 25.0394C51.2141 25.9632 52.5664 25.2045 53.1332 25.6776C54.7666 30.8367 58.2789 31.3454 58.4886 29.9039C59.1581 24.7448 61.0682 11.9631 49.3843 9.33887Z" fill="#3A2924"/>
<path d="M53.1245 37.1695L53.5083 30.3591C53.5083 30.3591 61.3943 28.0027 61.7201 34.4695C62.0459 40.9362 55.2533 41.262 53.1245 37.1695Z" fill="#EFD0B3"/>
<path d="M55.338 37.5444C55.3557 37.5484 55.374 37.5484 55.3916 37.5444C55.4221 37.5299 55.4457 37.504 55.4573 37.4723C55.469 37.4407 55.4678 37.4057 55.4541 37.3748C55.4541 37.3436 54.0572 34.2508 56.2262 32.787C56.5418 32.5503 56.9029 32.3813 57.2869 32.2907C57.6709 32.2001 58.0695 32.1898 58.4576 32.2603C59.2798 32.4941 59.9908 33.0151 60.4615 33.7286C60.4689 33.7456 60.4798 33.7607 60.4936 33.7731C60.5073 33.7855 60.5236 33.7947 60.5412 33.8003C60.5589 33.8058 60.5775 33.8075 60.5958 33.8053C60.6142 33.803 60.6319 33.7968 60.6476 33.7872C60.6634 33.7775 60.6769 33.7646 60.6873 33.7493C60.6976 33.734 60.7046 33.7166 60.7077 33.6984C60.7107 33.6801 60.7099 33.6614 60.7051 33.6436C60.7004 33.6257 60.6919 33.609 60.6801 33.5947C60.1786 32.817 59.408 32.2513 58.5156 32.006C58.0949 31.9243 57.6618 31.9301 57.2433 32.023C56.8249 32.1159 56.43 32.2939 56.0834 32.546C53.7314 34.1124 55.1908 37.4195 55.2175 37.4552C55.2259 37.4807 55.242 37.503 55.2636 37.519C55.2851 37.535 55.3112 37.5439 55.338 37.5444V37.5444Z" fill="#683938"/>
<path d="M58.529 35.0095C58.5491 35.0095 58.569 35.0046 58.5869 34.9953C58.6047 34.986 58.6201 34.9725 58.6316 34.9559C58.6419 34.9426 58.6494 34.9273 58.6537 34.911C58.6579 34.8947 58.6588 34.8776 58.6563 34.861C58.6538 34.8443 58.648 34.8283 58.6391 34.8139C58.6303 34.7996 58.6186 34.7871 58.6048 34.7774C58.6048 34.7774 56.4091 33.1708 54.798 34.7774C54.7855 34.7893 54.7755 34.8036 54.7686 34.8194C54.7617 34.8353 54.758 34.8523 54.7578 34.8696C54.7576 34.8868 54.7609 34.904 54.7674 34.9199C54.7739 34.9359 54.7835 34.9505 54.7957 34.9627C54.8079 34.9749 54.8224 34.9845 54.8384 34.991C54.8544 34.9975 54.8716 35.0008 54.8888 35.0006C54.9061 35.0003 54.9231 34.9967 54.9389 34.9898C54.9548 34.9829 54.9691 34.9729 54.981 34.9604C56.4359 33.5055 58.4308 34.9604 58.4531 34.9604C58.4711 34.986 58.4983 35.0036 58.529 35.0095V35.0095Z" fill="#683938"/>
<path d="M26.1329 37.1695L24.1647 30.3145C24.1647 30.3145 17.8631 28.0027 17.5239 34.4695C17.1848 40.9362 24.0041 41.262 26.1329 37.1695Z" fill="#EFD0B3"/>
<path d="M23.9198 37.5444C23.9021 37.5484 23.8838 37.5484 23.8662 37.5444C23.8357 37.5299 23.8121 37.504 23.8005 37.4723C23.7888 37.4407 23.79 37.4057 23.8037 37.3748C23.8037 37.3436 25.2006 34.2508 23.0316 32.787C22.716 32.5503 22.3549 32.3813 21.9709 32.2907C21.5869 32.2001 21.1884 32.1898 20.8002 32.2603C19.978 32.4941 19.267 33.0151 18.7964 33.7286C18.7889 33.7456 18.778 33.7607 18.7642 33.7731C18.7505 33.7855 18.7342 33.7947 18.7166 33.8003C18.6989 33.8058 18.6803 33.8075 18.662 33.8053C18.6436 33.803 18.626 33.7968 18.6102 33.7872C18.5944 33.7775 18.5809 33.7646 18.5705 33.7493C18.5602 33.734 18.5532 33.7166 18.5501 33.6984C18.5471 33.6801 18.5479 33.6614 18.5527 33.6436C18.5574 33.6257 18.5659 33.609 18.5777 33.5947C19.0792 32.817 19.8498 32.2513 20.7422 32.006C21.163 31.9243 21.596 31.9301 22.0145 32.023C22.4329 32.1159 22.8278 32.2939 23.1745 32.546C25.5264 34.1124 24.067 37.4195 24.0403 37.4552C24.0319 37.4807 24.0158 37.503 23.9943 37.519C23.9727 37.535 23.9466 37.5439 23.9198 37.5444V37.5444Z" fill="#683938"/>
<path d="M20.7287 35.0095C20.7123 35.0066 20.6967 35.0003 20.6829 34.9911C20.6691 34.9819 20.6573 34.9699 20.6483 34.9559C20.6365 34.9443 20.627 34.9304 20.6206 34.9151C20.6142 34.8998 20.6108 34.8833 20.6108 34.8667C20.6108 34.8501 20.6142 34.8336 20.6206 34.8183C20.627 34.8029 20.6365 34.7891 20.6483 34.7774C20.6707 34.7774 22.8441 33.1708 24.4552 34.7774C24.4677 34.7893 24.4777 34.8036 24.4846 34.8194C24.4915 34.8353 24.4951 34.8523 24.4954 34.8696C24.4956 34.8868 24.4923 34.904 24.4858 34.9199C24.4793 34.9359 24.4697 34.9505 24.4575 34.9627C24.4453 34.9749 24.4307 34.9845 24.4147 34.991C24.3988 34.9975 24.3816 35.0008 24.3644 35.0006C24.3471 35.0003 24.3301 34.9967 24.3142 34.9898C24.2984 34.9829 24.2841 34.9729 24.2722 34.9604C22.8173 33.5055 20.8224 34.9604 20.8001 34.9604C20.7832 34.9851 20.7577 35.0025 20.7287 35.0095V35.0095Z" fill="#683938"/>
<path d="M40.3556 38.2853C38.3786 38.2853 38.1465 36.6384 38.1465 36.6206C38.1471 36.5894 38.1589 36.5595 38.1797 36.5363C38.2006 36.5132 38.2292 36.4983 38.2601 36.4945C38.2911 36.4907 38.3223 36.4982 38.3482 36.5156C38.3741 36.5331 38.3928 36.5592 38.4009 36.5894C38.4009 36.6563 38.6374 38.2049 40.7171 38.0086C40.7512 38.006 40.7851 38.0166 40.8116 38.0381C40.8382 38.0597 40.8555 38.0907 40.8599 38.1246C40.8618 38.1414 40.8602 38.1583 40.8553 38.1745C40.8504 38.1906 40.8423 38.2056 40.8315 38.2185C40.8206 38.2315 40.8073 38.2421 40.7922 38.2497C40.7772 38.2573 40.7607 38.2618 40.7439 38.2629C40.6055 38.2763 40.4806 38.2853 40.3556 38.2853Z" fill="#683938"/>
<path d="M35.3757 38.013C35.1303 39.2448 33.064 39.8741 30.7566 39.4188C28.4493 38.9636 26.7802 37.5891 27.0212 36.3618C27.2622 35.1345 29.333 34.5007 31.6403 34.9559C33.9476 35.4112 35.6033 36.7813 35.3757 38.013Z" fill="#E8BA8D"/>
<path d="M28.7926 27.2887C28.7926 27.2887 27.5028 26.1417 30.2252 24.7091C32.9476 23.2765 33.9116 23.5934 34.3534 24.3119C34.7952 25.0304 34.1302 25.9409 32.5682 26.7174C30.7295 27.6368 29.4888 27.9492 28.7926 27.2887Z" fill="#3A2924"/>
<path d="M33.7193 31.9569C33.7193 32.8495 33.1347 33.5501 32.4117 33.5501C31.6887 33.5501 31.0996 32.8361 31.0996 31.9569C31.0996 31.0777 31.6887 30.3592 32.4117 30.3592C33.1347 30.3592 33.7193 31.0732 33.7193 31.9569Z" fill="#040504"/>
<path d="M47.6974 31.9569C47.6974 32.8495 47.1127 33.5501 46.3897 33.5501C45.6667 33.5501 45.0776 32.8361 45.0776 31.9569C45.0776 31.0777 45.6667 30.3592 46.3897 30.3592C47.1127 30.3592 47.6974 31.0732 47.6974 31.9569Z" fill="#040504"/>
<path d="M43.8952 38.013C44.1407 39.2448 46.207 39.8741 48.5143 39.4188C50.8216 38.9636 52.4908 37.5891 52.2453 36.3618C51.9998 35.1345 49.938 34.5007 47.6307 34.9559C45.3233 35.4112 43.6542 36.7813 43.8952 38.013Z" fill="#E8BA8D"/>
<path d="M49.8174 27.0477C49.8174 27.0477 51.1027 25.9007 48.3803 24.4681C45.658 23.0355 44.694 23.3524 44.2522 24.0709C43.8103 24.7894 44.4753 25.6999 46.0373 26.4764C47.8716 27.4047 49.1167 27.7082 49.8174 27.0477Z" fill="#3A2924"/>
<path d="M40.7976 35.1568C40.7725 35.1562 40.7481 35.1489 40.7269 35.1355C40.7056 35.1222 40.6884 35.1033 40.6771 35.0809C40.6635 35.0489 40.6628 35.0128 40.6753 34.9803C40.6878 34.9478 40.7125 34.9215 40.7441 34.9069C41.3765 34.5981 41.9019 34.1069 42.2525 33.4966C42.6096 32.7647 42.498 31.6712 42.016 31.1982C41.8636 31.0549 41.6657 30.9697 41.4569 30.9575C41.2481 30.9453 41.0416 31.0068 40.8735 31.1312L40.8065 31.1669C39.2133 32.0952 38.4903 31.6757 38.169 31.1669C37.5754 30.2253 38.102 26.2577 38.169 25.4143C38.169 25.3799 38.1826 25.347 38.2069 25.3227C38.2312 25.2985 38.2641 25.2848 38.2984 25.2848C38.3327 25.2848 38.3656 25.2985 38.3899 25.3227C38.4142 25.347 38.4278 25.3799 38.4278 25.4143C38.2627 27.6814 37.928 30.2744 38.3921 31.0107C38.7715 31.6132 39.5435 31.5865 40.6816 30.9259L40.7575 30.8813C40.9754 30.7356 41.2361 30.6674 41.4975 30.6876C41.759 30.7078 42.006 30.8154 42.199 30.9929C42.7658 31.5463 42.8996 32.778 42.4891 33.5903C42.1146 34.2572 41.5444 34.7931 40.8556 35.1255C40.8396 35.1411 40.8195 35.152 40.7976 35.1568V35.1568Z" fill="#683938"/>
<path d="M31.0686 49.505C36.8704 51.2902 39.6463 58.0113 39.6463 58.0113C35.4333 56.3689 27.5965 57.1946 26.4629 53.1958C26.5385 52.0938 26.9271 51.0364 27.5831 50.1476" fill="#D48934"/>
<path d="M38.5441 57.7613H38.4995C37.176 57.4348 35.835 57.1845 34.4829 57.0116C31.1446 56.5251 27.6903 56.0163 26.5924 53.8072C26.58 53.7799 26.5787 53.7488 26.5886 53.7206C26.5986 53.6923 26.6192 53.6689 26.646 53.6555C26.6591 53.6488 26.6734 53.6449 26.6881 53.644C26.7028 53.6431 26.7175 53.6452 26.7313 53.6502C26.7451 53.6552 26.7577 53.6631 26.7684 53.6732C26.7791 53.6833 26.7875 53.6955 26.7933 53.709C27.8421 55.8111 31.2562 56.3109 34.5141 56.7929C35.8794 56.9643 37.2338 57.2131 38.5709 57.5382C38.5853 57.5418 38.5989 57.5483 38.6109 57.5573C38.6228 57.5662 38.6328 57.5775 38.6403 57.5904C38.6478 57.6033 38.6526 57.6176 38.6545 57.6324C38.6563 57.6472 38.6552 57.6622 38.6512 57.6765C38.6453 57.7006 38.6315 57.7219 38.6121 57.7373C38.5928 57.7526 38.5688 57.7611 38.5441 57.7613Z" fill="#C17325"/>
<path d="M39.4861 57.7614C39.4647 57.7624 39.4435 57.757 39.4252 57.7459C39.4069 57.7347 39.3923 57.7184 39.3834 57.6989C38.6694 56.1815 35.9604 51.1161 31.0333 49.6121C31.0049 49.6032 30.9812 49.5834 30.9674 49.5571C30.9536 49.5307 30.9508 49.4999 30.9597 49.4715C30.9686 49.4431 30.9884 49.4194 31.0147 49.4056C31.0411 49.3918 31.0719 49.389 31.1003 49.3979C36.1121 50.9286 38.8613 56.0654 39.5798 57.6052C39.5865 57.6182 39.5904 57.6326 39.5913 57.6472C39.5922 57.6619 39.5901 57.6766 39.585 57.6904C39.58 57.7042 39.5722 57.7169 39.5621 57.7275C39.552 57.7382 39.5398 57.7467 39.5262 57.7524C39.5139 57.7588 39.5 57.7619 39.4861 57.7614V57.7614Z" fill="#C17325"/>
<path d="M37.0173 56.0565C37.0172 56.1501 36.989 56.2416 36.9365 56.319C36.884 56.3965 36.8094 56.4565 36.7225 56.4912C36.6355 56.5259 36.5402 56.5338 36.4487 56.5138C36.3573 56.4939 36.2739 56.447 36.2093 56.3792C36.1448 56.3114 36.102 56.2258 36.0865 56.1335C36.071 56.0412 36.0836 55.9463 36.1225 55.8612C36.1614 55.7761 36.2249 55.7045 36.3049 55.6558C36.3848 55.6071 36.4775 55.5835 36.571 55.5879C36.6914 55.5937 36.8049 55.6456 36.888 55.7328C36.9711 55.8201 37.0174 55.936 37.0173 56.0565V56.0565Z" fill="#C17325"/>
<path d="M36.3172 65.2501C36.2965 65.2542 36.2753 65.2542 36.2547 65.2501C36.2272 65.242 36.2016 65.2284 36.1795 65.2102C36.1573 65.192 36.139 65.1696 36.1257 65.1442C36.1124 65.1188 36.1043 65.091 36.1019 65.0624C36.0996 65.0339 36.1029 65.0051 36.1119 64.9779C36.5582 63.5721 36.2458 62.9339 35.6344 61.6575C35.4692 61.3138 35.2862 60.9256 35.0899 60.4703C34.1259 58.2389 36.3038 56.0074 36.3975 55.9137C36.4174 55.8937 36.4411 55.8779 36.4671 55.8671C36.4931 55.8563 36.5211 55.8507 36.5492 55.8507C36.5774 55.8507 36.6054 55.8563 36.6314 55.8671C36.6574 55.8779 36.6811 55.8937 36.701 55.9137C36.7416 55.9547 36.7644 56.01 36.7644 56.0677C36.7644 56.1254 36.7416 56.1807 36.701 56.2217C36.701 56.2217 34.6391 58.3148 35.4871 60.3008C35.6834 60.747 35.862 61.1309 36.0271 61.47C36.643 62.7598 37.0134 63.5408 36.5269 65.1073C36.5112 65.15 36.4825 65.1867 36.4449 65.2122C36.4073 65.2378 36.3626 65.2511 36.3172 65.2501Z" fill="#EEDCD1"/>
<path d="M48.3977 49.505C42.5826 51.2902 39.8379 58.0113 39.8379 58.0113C44.0509 56.3689 51.8877 57.1946 53.0168 53.1958C52.9386 52.0929 52.5469 51.0354 51.8877 50.1476" fill="#D48934"/>
<path d="M40.9226 57.7614C40.8985 57.7614 40.875 57.7535 40.8557 57.7391C40.8364 57.7246 40.8223 57.7042 40.8155 57.681C40.8114 57.667 40.8101 57.6522 40.8117 57.6377C40.8133 57.6231 40.8177 57.609 40.8248 57.5962C40.8318 57.5833 40.8413 57.572 40.8528 57.5628C40.8642 57.5536 40.8773 57.5468 40.8914 57.5427C42.2342 57.2156 43.5947 56.9653 44.966 56.7929C48.2462 56.3109 51.6603 55.8111 52.6868 53.7091C52.6914 53.6934 52.6993 53.6789 52.7101 53.6666C52.7209 53.6543 52.7343 53.6446 52.7493 53.638C52.7642 53.6315 52.7805 53.6283 52.7968 53.6288C52.8132 53.6292 52.8292 53.6332 52.8438 53.6405C52.8584 53.6478 52.8713 53.6582 52.8814 53.6711C52.8915 53.6839 52.8988 53.6988 52.9025 53.7147C52.9063 53.7306 52.9065 53.7471 52.9031 53.7631C52.8998 53.7791 52.893 53.7942 52.8832 53.8072C51.7853 56.0387 48.3355 56.5252 44.9972 57.0116C43.6347 57.1839 42.2832 57.4343 40.9494 57.7614H40.9226Z" fill="#C17325"/>
<path d="M39.9814 57.7614C39.9653 57.7655 39.9485 57.7655 39.9324 57.7614C39.9059 57.7488 39.8854 57.7263 39.8754 57.6987C39.8653 57.6711 39.8666 57.6407 39.8788 57.6141C40.6018 56.0744 43.3509 50.9197 48.3583 49.4068C48.3724 49.4024 48.3872 49.4008 48.4018 49.4021C48.4165 49.4035 48.4308 49.4077 48.4438 49.4145C48.4569 49.4213 48.4685 49.4307 48.4779 49.442C48.4874 49.4533 48.4945 49.4664 48.4989 49.4804C48.5033 49.4945 48.5049 49.5093 48.5035 49.524C48.5022 49.5386 48.498 49.5529 48.4912 49.566C48.4843 49.579 48.475 49.5906 48.4637 49.6001C48.4524 49.6095 48.4393 49.6166 48.4252 49.621C43.5161 51.125 40.7892 56.1904 40.0796 57.7078C40.0688 57.724 40.0542 57.7373 40.0371 57.7467C40.02 57.756 40.0009 57.761 39.9814 57.7614V57.7614Z" fill="#C17325"/>
<path d="M42.4492 56.0565C42.4493 56.1501 42.4775 56.2416 42.53 56.319C42.5826 56.3965 42.6571 56.4565 42.744 56.4912C42.831 56.5259 42.9263 56.5338 43.0178 56.5138C43.1092 56.4938 43.1926 56.4469 43.2572 56.3792C43.3217 56.3114 43.3645 56.2258 43.38 56.1335C43.3955 56.0412 43.3829 55.9463 43.344 55.8612C43.3051 55.7761 43.2416 55.7045 43.1617 55.6558C43.0817 55.6071 42.989 55.5835 42.8955 55.5879C42.7751 55.5937 42.6616 55.6456 42.5785 55.7328C42.4954 55.8201 42.4491 55.936 42.4492 56.0565Z" fill="#C17325"/>
<path d="M43.1454 65.2501C43.1675 65.2544 43.1902 65.2544 43.2123 65.2501C43.2663 65.2317 43.311 65.193 43.3369 65.1421C43.3627 65.0913 43.3677 65.0323 43.3507 64.9779C42.9044 63.5721 43.2212 62.9339 43.8282 61.6575C43.9933 61.3138 44.1808 60.9256 44.3727 60.4703C45.3411 58.2389 43.1632 56.0074 43.0695 55.9137C43.0496 55.8937 43.026 55.8779 42.9999 55.8671C42.9739 55.8563 42.946 55.8507 42.9178 55.8507C42.8896 55.8507 42.8617 55.8563 42.8356 55.8671C42.8096 55.8779 42.7859 55.8937 42.766 55.9137C42.7254 55.9547 42.7026 56.01 42.7026 56.0677C42.7026 56.1253 42.7254 56.1807 42.766 56.2216C42.766 56.2216 44.8279 58.3147 43.9755 60.3007C43.7836 60.747 43.6006 61.1308 43.4399 61.47C42.824 62.7598 42.4492 63.5408 42.9401 65.1073C42.955 65.1496 42.9829 65.1862 43.0197 65.2118C43.0566 65.2374 43.1005 65.2508 43.1454 65.2501Z" fill="#EEDCD1"/>
</g>
</svg>
