<svg width="100" height="100" viewBox="0 0 100 100" fill="none" xmlns="http://www.w3.org/2000/svg">
<mask id="mask0_1:693" style="mask-type:alpha" maskUnits="userSpaceOnUse" x="0" y="0" width="100" height="100">
<circle cx="50" cy="50" r="50" fill="#DAEED3"/>
</mask>
<g mask="url(#mask0_1:693)">
<circle cx="50" cy="50" r="50" fill="#DAEED3"/>
<path d="M25.81 27.634C25.81 27.634 22.2787 41.536 27.1935 47.89C32.1082 54.2441 35.7734 56.2134 42.2558 57.3737C48.7381 58.5341 63.5717 60.4141 70.5394 46.4787C72.5366 42.4788 74.8349 35.6561 72.6704 27.6285C70.5059 19.6008 25.81 27.634 25.81 27.634Z" fill="#3A2924"/>
<path d="M66.5339 67.75C66.5339 74.5168 58.9749 80.0229 49.6586 80.0229C40.3423 80.0229 32.7888 74.5391 32.7888 67.75C32.7888 60.9608 40.3479 56.5481 49.6642 56.5481C58.9805 56.5481 66.5339 60.9831 66.5339 67.75Z" fill="#D48934"/>
<path d="M62.2719 67.8838C62.2719 72.9381 56.6263 77.0384 49.6642 77.0384C42.7021 77.0384 37.0565 72.9381 37.0565 67.8838C37.0565 62.8296 42.7021 59.5159 49.6642 59.5159C56.6263 59.5159 62.2719 62.8296 62.2719 67.8838Z" fill="#C17325"/>
<path d="M61.5523 64.453C84.4247 72.0009 80.8767 100 80.8767 100H18C18 99.3975 16.8842 70.6732 38.864 63.9844L41.9881 67.9843H58.0545L61.5523 64.453Z" fill="#D48934"/>
<path d="M28.7612 86.416H28.2033V99.9944H28.7612V86.416Z" fill="#C17325"/>
<path d="M71.46 86.416H70.9021V99.9944H71.46V86.416Z" fill="#C17325"/>
<path d="M43.0591 55.9679L43.3883 59.9343C47.4887 61.022 51.7861 61.1404 55.9402 60.2802L56.0127 54.629L43.0591 55.9679Z" fill="#E8BA8D"/>
<path d="M43.3882 59.9343L43.8959 65.9592C43.8959 65.9592 44.7383 71.4932 49.6642 71.4932C55.187 71.4932 55.8676 65.9592 55.8676 65.9592L55.9346 60.2802C51.7822 61.1396 47.4869 61.0211 43.3882 59.9343Z" fill="#EFD0B3"/>
<path d="M69.128 23.2939C69.128 23.2939 71.3037 30.1333 70.2159 39.9963C69.2117 49.1006 62.0711 58.1826 50.9138 58.9078C40.4093 59.5884 31.4277 55.2929 28.153 40.5597C24.8784 25.8266 30.0721 15.0989 43.5668 12.3932C56.8606 9.72664 66.6121 14.6303 69.128 23.2939Z" fill="#EFD0B3"/>
<path d="M61.7308 11.6736C52.0296 9.48677 41.8095 12.6554 38.4903 14.223C38.7748 12.2705 37.8878 10 37.2351 10C36.3648 10 36.5489 13.8214 36.6214 14.9873L36.521 15.0208C36.1472 14.1505 35.0259 11.8354 33.8544 12.6722C33.0622 13.2356 34.0106 14.4629 35.0203 15.3945C31.9856 16.3764 24.5883 15.785 23.7069 25.0009C23.3489 29.3386 23.6461 33.7053 24.5883 37.9545C24.5883 37.9545 24.0304 39.5277 28.7667 37.5082C29.7764 37.0787 31.9577 36.6491 33.2296 31.7901C35.6173 31.7901 39.4442 31.7901 40.5265 30.4624C41.1847 29.6479 40.8946 26.39 40.6046 24.5323C42.0829 26.9367 42.4957 30.8306 44.2418 30.8306C50.1719 30.8306 57.9764 32.2476 58.9192 30.4624C59.862 28.6772 59.2985 22.0945 59.2985 22.0945C59.2985 22.0945 60.8494 28.2031 63.1589 31.2992C64.0181 32.454 65.7084 31.5056 66.4169 32.0969C68.4586 38.5458 72.849 39.1818 73.1112 37.3799C73.948 30.931 76.3357 14.9538 61.7308 11.6736Z" fill="#3A2924"/>
<path d="M66.4058 46.4619L66.8856 37.949C66.8856 37.949 76.743 35.0034 77.1503 43.0869C77.5575 51.1703 69.0668 51.5775 66.4058 46.4619Z" fill="#EFD0B3"/>
<path d="M69.1728 46.9305C69.1948 46.9355 69.2177 46.9355 69.2397 46.9305C69.2778 46.9124 69.3073 46.88 69.3219 46.8404C69.3365 46.8008 69.3351 46.7571 69.3178 46.7185C69.3178 46.6795 67.5717 42.8135 70.2829 40.9837C70.6775 40.6879 71.1289 40.4767 71.6089 40.3634C72.0889 40.2501 72.5871 40.2372 73.0723 40.3254C74.1 40.6177 74.9888 41.2689 75.5771 42.1608C75.5863 42.182 75.6 42.2009 75.6172 42.2164C75.6344 42.2318 75.6547 42.2434 75.6768 42.2503C75.6988 42.2573 75.7221 42.2594 75.7451 42.2566C75.768 42.2537 75.7901 42.246 75.8098 42.234C75.8295 42.2219 75.8464 42.2057 75.8593 42.1866C75.8723 42.1674 75.881 42.1457 75.8848 42.1229C75.8887 42.1002 75.8876 42.0768 75.8817 42.0545C75.8757 42.0321 75.8651 42.0113 75.8504 41.9934C75.2235 41.0212 74.2602 40.3141 73.1448 40.0074C72.6188 39.9054 72.0775 39.9126 71.5544 40.0287C71.0314 40.1449 70.5378 40.3674 70.1044 40.6825C67.1645 42.6406 68.9887 46.7743 69.0222 46.8189C69.0326 46.8509 69.0527 46.8788 69.0797 46.8988C69.1067 46.9188 69.1392 46.9299 69.1728 46.9305Z" fill="#683938"/>
<path d="M73.1616 43.7619C73.1868 43.7619 73.2116 43.7558 73.2339 43.7441C73.2563 43.7325 73.2755 43.7156 73.2899 43.6949C73.3028 43.6782 73.3122 43.6591 73.3175 43.6387C73.3228 43.6183 73.3239 43.5971 73.3208 43.5762C73.3177 43.5554 73.3103 43.5354 73.2993 43.5174C73.2882 43.4995 73.2736 43.4839 73.2564 43.4718C73.2564 43.4718 70.5117 41.4635 68.4978 43.4718C68.4822 43.4867 68.4697 43.5045 68.4611 43.5243C68.4525 43.5441 68.4479 43.5654 68.4476 43.587C68.4474 43.6085 68.4514 43.6299 68.4596 43.6499C68.4677 43.6699 68.4798 43.6881 68.495 43.7033C68.5103 43.7186 68.5284 43.7306 68.5484 43.7388C68.5684 43.7469 68.5898 43.751 68.6114 43.7507C68.633 43.7504 68.6543 43.7459 68.674 43.7372C68.6938 43.7286 68.7117 43.7161 68.7266 43.7005C70.5452 41.8819 73.0388 43.7005 73.0667 43.7005C73.0892 43.7325 73.1232 43.7545 73.1616 43.7619Z" fill="#683938"/>
<path d="M32.6663 46.4619L30.2061 37.8932C30.2061 37.8932 22.3291 35.0034 21.9051 43.0869C21.4811 51.1703 30.0053 51.5775 32.6663 46.4619Z" fill="#EFD0B3"/>
<path d="M29.8993 46.9305C29.8773 46.9355 29.8544 46.9355 29.8324 46.9305C29.7943 46.9124 29.7648 46.88 29.7502 46.8404C29.7356 46.8008 29.7371 46.7571 29.7543 46.7185C29.7543 46.6795 31.5004 42.8135 28.7892 40.9837C28.3946 40.6879 27.9432 40.4767 27.4632 40.3634C26.9833 40.2501 26.4851 40.2372 25.9999 40.3254C24.9722 40.6177 24.0834 41.2689 23.4951 42.1608C23.4858 42.182 23.4721 42.2009 23.4549 42.2164C23.4377 42.2318 23.4174 42.2434 23.3954 42.2503C23.3733 42.2573 23.35 42.2594 23.3271 42.2566C23.3042 42.2537 23.2821 42.246 23.2624 42.234C23.2427 42.2219 23.2258 42.2057 23.2128 42.1866C23.1999 42.1674 23.1912 42.1457 23.1873 42.1229C23.1835 42.1002 23.1845 42.0768 23.1905 42.0545C23.1964 42.0321 23.2071 42.0113 23.2217 41.9934C23.8486 41.0212 24.8119 40.3141 25.9274 40.0074C26.4533 39.9054 26.9947 39.9126 27.5177 40.0287C28.0408 40.1449 28.5343 40.3674 28.9677 40.6825C31.9076 42.6406 30.0834 46.7743 30.05 46.8189C30.0395 46.8509 30.0194 46.8788 29.9925 46.8988C29.9655 46.9188 29.9329 46.9299 29.8993 46.9305Z" fill="#683938"/>
<path d="M25.9105 43.7619C25.8901 43.7582 25.8706 43.7504 25.8533 43.7389C25.8361 43.7274 25.8213 43.7124 25.8101 43.6949C25.7953 43.6804 25.7835 43.663 25.7754 43.6439C25.7674 43.6247 25.7632 43.6041 25.7632 43.5833C25.7632 43.5626 25.7674 43.542 25.7754 43.5228C25.7835 43.5037 25.7953 43.4863 25.8101 43.4718C25.838 43.4718 28.5548 41.4635 30.5687 43.4718C30.5843 43.4867 30.5968 43.5045 30.6054 43.5243C30.6141 43.5441 30.6186 43.5654 30.6189 43.587C30.6192 43.6085 30.6151 43.6299 30.607 43.6499C30.5988 43.6699 30.5868 43.6881 30.5715 43.7033C30.5563 43.7186 30.5381 43.7306 30.5181 43.7388C30.4981 43.7469 30.4767 43.751 30.4552 43.7507C30.4336 43.7504 30.4123 43.7459 30.3925 43.7372C30.3727 43.7286 30.3549 43.7161 30.34 43.7005C28.5213 41.8819 26.0277 43.7005 25.9998 43.7005C25.9787 43.7313 25.9469 43.7532 25.9105 43.7619Z" fill="#683938"/>
<path d="M50.4453 47.8566C47.9739 47.8566 47.6838 45.7981 47.6838 45.7758C47.6846 45.7368 47.6993 45.6994 47.7254 45.6704C47.7515 45.6415 47.7872 45.6229 47.8259 45.6182C47.8646 45.6134 47.9037 45.6228 47.936 45.6446C47.9683 45.6663 47.9917 45.6991 48.0018 45.7367C48.0018 45.8204 48.2975 47.7562 50.8971 47.5107C50.9398 47.5075 50.9821 47.5207 51.0153 47.5477C51.0485 47.5747 51.0701 47.6133 51.0756 47.6557C51.078 47.6767 51.076 47.6979 51.0699 47.7181C51.0638 47.7383 51.0536 47.757 51.0401 47.7732C51.0265 47.7894 51.0098 47.8026 50.991 47.8121C50.9722 47.8217 50.9516 47.8273 50.9306 47.8287C50.7577 47.8454 50.6015 47.8566 50.4453 47.8566Z" fill="#683938"/>
<path d="M44.2195 47.5163C43.9127 49.056 41.3298 49.8426 38.4457 49.2736C35.5615 48.7046 33.4751 46.9863 33.7764 45.4522C34.0776 43.9181 36.6661 43.1259 39.5502 43.6949C42.4344 44.264 44.5041 45.9766 44.2195 47.5163Z" fill="#E8BA8D"/>
<path d="M35.9911 34.1108C35.9911 34.1108 34.3789 32.6771 37.7819 30.8864C41.1848 29.0957 42.3898 29.4917 42.9421 30.3899C43.4944 31.2881 42.6632 32.4261 40.7107 33.3968C38.4123 34.546 36.8614 34.9365 35.9911 34.1108Z" fill="#3A2924"/>
<path d="M42.1498 39.9461C42.1498 41.0618 41.419 41.9377 40.5153 41.9377C39.6116 41.9377 38.8752 41.0451 38.8752 39.9461C38.8752 38.8471 39.6116 37.9489 40.5153 37.9489C41.419 37.9489 42.1498 38.8415 42.1498 39.9461Z" fill="#040504"/>
<path d="M59.6222 39.9461C59.6222 41.0618 58.8914 41.9377 57.9877 41.9377C57.0839 41.9377 56.3475 41.0451 56.3475 39.9461C56.3475 38.8471 57.0839 37.9489 57.9877 37.9489C58.8914 37.9489 59.6222 38.8415 59.6222 39.9461Z" fill="#040504"/>
<path d="M54.8691 47.5163C55.176 49.056 57.7589 49.8426 60.643 49.2736C63.5272 48.7046 65.6136 46.9863 65.3068 45.4522C64.9999 43.9181 62.4226 43.1259 59.5384 43.6949C56.6543 44.264 54.5679 45.9766 54.8691 47.5163Z" fill="#E8BA8D"/>
<path d="M62.272 33.8096C62.272 33.8096 63.8786 32.3759 60.4757 30.5852C57.0727 28.7944 55.8677 29.1905 55.3154 30.0887C54.7632 30.9868 55.5944 32.1249 57.5469 33.0955C59.8397 34.2559 61.3962 34.6352 62.272 33.8096Z" fill="#3A2924"/>
<path d="M50.9976 43.946C50.9662 43.9453 50.9357 43.9361 50.9091 43.9194C50.8826 43.9027 50.8611 43.8791 50.847 43.8511C50.8299 43.8111 50.8291 43.766 50.8447 43.7254C50.8603 43.6848 50.8911 43.6518 50.9306 43.6336C51.7212 43.2476 52.378 42.6336 52.8162 41.8707C53.2625 40.9558 53.123 39.5891 52.5205 38.9977C52.33 38.8187 52.0827 38.7122 51.8217 38.6969C51.5606 38.6816 51.3025 38.7585 51.0924 38.9141L51.0087 38.9587C49.0172 40.119 48.1134 39.5946 47.7118 38.9587C46.9698 37.7816 47.6281 32.8222 47.7118 31.7678C47.7118 31.7249 47.7288 31.6838 47.7592 31.6534C47.7895 31.6231 47.8306 31.606 47.8735 31.606C47.9165 31.606 47.9576 31.6231 47.9879 31.6534C48.0183 31.6838 48.0353 31.7249 48.0353 31.7678C47.8289 34.6018 47.4105 37.843 47.9907 38.7634C48.4649 39.5165 49.43 39.4831 50.8525 38.6574L50.9474 38.6016C51.2199 38.4195 51.5457 38.3342 51.8725 38.3595C52.1993 38.3848 52.5081 38.5192 52.7493 38.7411C53.4578 39.4329 53.6251 40.9726 53.1119 41.9879C52.6438 42.8215 51.9311 43.4914 51.0701 43.9069C51.05 43.9264 51.0249 43.9399 50.9976 43.946Z" fill="#683938"/>
<path d="M38.8362 61.8813C46.0884 64.1127 49.5583 72.5141 49.5583 72.5141C44.2921 70.4612 34.496 71.4932 33.079 66.4948C33.1736 65.1173 33.6593 63.7955 34.4793 62.6846" fill="#D48934"/>
<path d="M48.1804 72.2017H48.1246C46.4703 71.7935 44.794 71.4806 43.1039 71.2645C38.9311 70.6564 34.6132 70.0204 33.2409 67.259C33.2253 67.2249 33.2236 67.1861 33.2361 67.1507C33.2486 67.1153 33.2743 67.0862 33.3078 67.0693C33.3242 67.061 33.3421 67.0561 33.3604 67.055C33.3788 67.0538 33.3971 67.0565 33.4144 67.0628C33.4317 67.0691 33.4475 67.0788 33.4608 67.0915C33.4741 67.1041 33.4847 67.1194 33.4919 67.1363C34.8029 69.7638 39.0705 70.3886 43.1429 70.9911C44.8495 71.2054 46.5426 71.5164 48.2139 71.9228C48.232 71.9273 48.249 71.9354 48.2639 71.9466C48.2788 71.9578 48.2913 71.9719 48.3006 71.988C48.31 72.0041 48.316 72.022 48.3184 72.0405C48.3207 72.059 48.3193 72.0777 48.3143 72.0957C48.3069 72.1257 48.2897 72.1524 48.2655 72.1716C48.2413 72.1908 48.2113 72.2014 48.1804 72.2017Z" fill="#C17325"/>
<path d="M49.3575 72.2017C49.3308 72.203 49.3043 72.1963 49.2814 72.1823C49.2585 72.1684 49.2403 72.148 49.2292 72.1236C48.3366 70.2269 44.9504 63.8951 38.7916 62.0151C38.7561 62.004 38.7265 61.9793 38.7092 61.9463C38.6919 61.9134 38.6885 61.8749 38.6996 61.8394C38.7107 61.8039 38.7354 61.7742 38.7684 61.757C38.8013 61.7397 38.8398 61.7363 38.8753 61.7474C45.1401 63.6608 48.5765 70.0818 49.4747 72.0065C49.483 72.0228 49.4879 72.0407 49.4891 72.0591C49.4902 72.0774 49.4875 72.0958 49.4812 72.1131C49.475 72.1303 49.4652 72.1461 49.4526 72.1594C49.4399 72.1728 49.4247 72.1834 49.4077 72.1905C49.3923 72.1986 49.3749 72.2024 49.3575 72.2017Z" fill="#C17325"/>
<path d="M46.2725 70.0707C46.2723 70.1877 46.2372 70.302 46.1715 70.3988C46.1058 70.4956 46.0126 70.5706 45.9039 70.614C45.7953 70.6574 45.6761 70.6672 45.5618 70.6423C45.4475 70.6173 45.3432 70.5587 45.2625 70.474C45.1818 70.3892 45.1284 70.2823 45.109 70.1669C45.0897 70.0515 45.1053 69.9329 45.154 69.8265C45.2026 69.7201 45.282 69.6307 45.3819 69.5698C45.4819 69.5089 45.5977 69.4793 45.7146 69.4849C45.8651 69.4921 46.007 69.557 46.1109 69.666C46.2148 69.7751 46.2726 69.92 46.2725 70.0707Z" fill="#C17325"/>
<path d="M45.3967 81.5626C45.3709 81.5678 45.3444 81.5678 45.3186 81.5626C45.2842 81.5525 45.2523 81.5355 45.2246 81.5128C45.1969 81.4901 45.174 81.462 45.1574 81.4303C45.1407 81.3985 45.1306 81.3638 45.1277 81.3281C45.1247 81.2923 45.1289 81.2564 45.1401 81.2223C45.698 79.4651 45.3075 78.6673 44.5432 77.0718C44.3368 76.6423 44.1081 76.1569 43.8626 75.5879C42.6576 72.7986 45.38 70.0093 45.4971 69.8921C45.522 69.8672 45.5516 69.8474 45.5841 69.8339C45.6167 69.8203 45.6516 69.8134 45.6868 69.8134C45.722 69.8134 45.7569 69.8203 45.7895 69.8339C45.822 69.8474 45.8516 69.8672 45.8765 69.8921C45.9272 69.9433 45.9557 70.0125 45.9557 70.0846C45.9557 70.1567 45.9272 70.2259 45.8765 70.2771C45.8765 70.2771 43.2992 72.8935 44.3591 75.3759C44.6045 75.9338 44.8277 76.4136 45.0341 76.8375C45.804 78.4498 46.267 79.426 45.6589 81.3841C45.6392 81.4375 45.6033 81.4833 45.5564 81.5153C45.5094 81.5473 45.4536 81.5639 45.3967 81.5626Z" fill="#EEDCD1"/>
<path d="M60.4979 61.8813C53.229 64.1127 49.7981 72.5141 49.7981 72.5141C55.0643 70.4612 64.8604 71.4932 66.2718 66.4948C66.174 65.1162 65.6843 63.7942 64.8604 62.6846" fill="#D48934"/>
<path d="M51.1537 72.2017C51.1236 72.2017 51.0942 72.1919 51.0701 72.1738C51.0459 72.1557 51.0283 72.1303 51.0199 72.1013C51.0147 72.0837 51.0131 72.0653 51.0151 72.0471C51.0171 72.0289 51.0227 72.0112 51.0315 71.9952C51.0403 71.9791 51.0522 71.965 51.0664 71.9535C51.0807 71.942 51.0971 71.9335 51.1147 71.9284C52.7933 71.5195 54.4938 71.2066 56.208 70.9911C60.3083 70.3887 64.5759 69.7638 65.859 67.1363C65.8647 67.1167 65.8747 67.0986 65.8882 67.0832C65.9017 67.0679 65.9184 67.0557 65.9371 67.0475C65.9558 67.0394 65.9761 67.0354 65.9965 67.0359C66.0169 67.0365 66.037 67.0415 66.0553 67.0506C66.0735 67.0598 66.0896 67.0728 66.1022 67.0888C66.1149 67.1048 66.1239 67.1234 66.1286 67.1433C66.1333 67.1632 66.1336 67.1839 66.1294 67.2039C66.1252 67.2239 66.1167 67.2427 66.1045 67.259C64.7321 70.0484 60.4198 70.6564 56.247 71.2645C54.5439 71.4799 52.8545 71.7928 51.1872 72.2017H51.1537Z" fill="#C17325"/>
<path d="M49.9767 72.2017C49.9566 72.2069 49.9354 72.2069 49.9153 72.2017C49.8822 72.186 49.8566 72.1579 49.8441 72.1234C49.8316 72.0889 49.8331 72.0509 49.8484 72.0176C50.7521 70.093 54.1885 63.6497 60.4478 61.7585C60.4653 61.753 60.4838 61.751 60.5022 61.7527C60.5205 61.7544 60.5384 61.7596 60.5547 61.7682C60.571 61.7767 60.5855 61.7884 60.5973 61.8025C60.6091 61.8167 60.618 61.833 60.6235 61.8506C60.629 61.8682 60.631 61.8866 60.6293 61.905C60.6277 61.9233 60.6224 61.9412 60.6139 61.9575C60.6053 61.9738 60.5936 61.9883 60.5795 62.0001C60.5654 62.0119 60.549 62.0208 60.5314 62.0263C54.395 63.9063 50.9864 70.238 50.0994 72.1348C50.0859 72.155 50.0677 72.1717 50.0463 72.1833C50.0249 72.195 50.001 72.2013 49.9767 72.2017Z" fill="#C17325"/>
<path d="M53.0615 70.0707C53.0617 70.1877 53.0968 70.302 53.1625 70.3988C53.2282 70.4956 53.3214 70.5706 53.43 70.614C53.5387 70.6574 53.6579 70.6672 53.7722 70.6423C53.8865 70.6173 53.9908 70.5587 54.0715 70.474C54.1522 70.3892 54.2056 70.2823 54.225 70.1669C54.2443 70.0515 54.2287 69.9329 54.18 69.8265C54.1314 69.7201 54.052 69.6307 53.9521 69.5698C53.8521 69.5089 53.7363 69.4793 53.6194 69.4849C53.4689 69.4921 53.327 69.557 53.2231 69.666C53.1192 69.7751 53.0614 69.92 53.0615 70.0707Z" fill="#C17325"/>
<path d="M53.9318 81.5627C53.9595 81.5681 53.9879 81.5681 54.0155 81.5627C54.083 81.5397 54.1389 81.4913 54.1712 81.4277C54.2035 81.3641 54.2097 81.2904 54.1885 81.2224C53.6306 79.4651 54.0267 78.6673 54.7854 77.0719C54.9918 76.6423 55.2261 76.157 55.466 75.5879C56.6765 72.7986 53.9542 70.0093 53.837 69.8921C53.8121 69.8672 53.7826 69.8474 53.75 69.8339C53.7175 69.8203 53.6826 69.8134 53.6473 69.8134C53.6121 69.8134 53.5772 69.8203 53.5446 69.8339C53.5121 69.8474 53.4825 69.8672 53.4577 69.8921C53.4069 69.9433 53.3784 70.0125 53.3784 70.0846C53.3784 70.1567 53.4069 70.2259 53.4577 70.2771C53.4577 70.2771 56.035 72.8935 54.9695 75.376C54.7296 75.9338 54.5009 76.4136 54.3 76.8376C53.5302 78.4498 53.0616 79.426 53.6752 81.3841C53.6939 81.437 53.7287 81.4827 53.7748 81.5147C53.8208 81.5468 53.8758 81.5635 53.9318 81.5627Z" fill="#EEDCD1"/>
</g>
</svg>
