<svg width="1280" height="713" viewBox="0 0 1280 713" fill="none" xmlns="http://www.w3.org/2000/svg">
<path d="M55.0465 0H53.6744V488.562H55.0465V0Z" fill="#B66D12"/>
<path d="M54.3604 482.977L50.9303 503.033L30.8065 500.093L48.8395 509.533L39.7903 527.76L54.3604 513.551L68.8979 527.76L59.8814 509.533L77.8818 500.093L57.758 503.033L54.3604 482.977Z" fill="#B66D12"/>
<path d="M113.164 0H111.792V154.209H113.164V0Z" fill="#B66D12"/>
<path d="M112.478 150.289L110.224 163.518L96.9601 161.558L108.819 167.797L102.873 179.818L112.478 170.443L122.05 179.818L116.104 167.797L127.995 161.558L114.732 163.518L112.478 150.289Z" fill="#B66D12"/>
<path d="M26.0695 0H24.6974V238.908H26.0695V0Z" fill="#B66D12"/>
<path d="M25.3835 234.988L21.7573 256.253L0.457397 253.117L19.5358 263.112L9.96393 282.417L25.3835 267.359L40.803 282.417L31.2311 263.112L50.3095 253.117L29.0097 256.253L25.3835 234.988Z" fill="#B66D12"/>
<path d="M141.683 0H140.311V598.74H141.683V0Z" fill="#B66D12"/>
<path d="M140.997 591.26L137.567 611.283L117.476 608.343L135.476 617.783L126.46 635.977L140.997 621.768L155.502 635.977L146.486 617.783L164.486 608.343L144.395 611.283L140.997 591.26Z" fill="#B66D12"/>
<path d="M49.2641 669.197C40.0516 671.255 38.3855 672.953 36.1967 682.263C34.1386 673.084 32.4398 671.385 23.1293 669.197C32.3091 667.106 34.0079 665.441 36.1967 656.131C38.3855 665.441 40.0516 667.106 49.2641 669.197Z" fill="#002747"/>
<path d="M133.026 433.066C126.492 434.503 125.447 435.679 124.01 442.081C122.572 435.548 121.396 434.503 114.993 433.066C121.527 431.628 122.572 430.452 124.01 424.05C125.447 430.452 126.623 431.628 133.026 433.066Z" fill="#002747"/>
<path d="M86.0161 287.219C82.4226 288.035 81.7365 288.689 80.9198 292.282C80.1358 288.689 79.4497 288.035 75.8562 287.219C79.4497 286.402 80.1358 285.749 80.9198 282.156C81.6712 285.749 82.4226 286.402 86.0161 287.219Z" fill="#002747"/>
<path d="M171.314 81.6612C166.119 82.8371 165.139 83.7844 163.996 88.978C162.82 83.7844 161.84 82.8371 156.646 81.6612C161.84 80.4852 162.82 79.538 163.996 74.3443C165.139 79.6033 166.119 80.5506 171.314 81.6612Z" fill="#002747"/>
<path d="M190 252.986C184.806 254.162 183.826 255.109 182.682 260.303C181.506 255.109 180.526 254.162 175.332 252.986C180.526 251.81 181.506 250.863 182.682 245.669C183.826 250.863 184.806 251.81 190 252.986Z" fill="#002747"/>
<path d="M12.3814 125.301C8.00378 126.313 7.18707 127.097 6.20701 131.507C5.19429 127.097 4.41025 126.313 0 125.301C4.41025 124.321 5.19429 123.504 6.20701 119.127C7.18707 123.504 8.00378 124.321 12.3814 125.301Z" fill="#002747"/>
<path d="M88.7276 83.6537C94.3208 83.6537 98.8549 79.1201 98.8549 73.5277C98.8549 67.9353 94.3208 63.4017 88.7276 63.4017C83.1345 63.4017 78.6004 67.9353 78.6004 73.5277C78.6004 79.1201 83.1345 83.6537 88.7276 83.6537Z" fill="#002747"/>
<path d="M179.677 381.162C174.09 382.436 173.143 383.448 171.804 389.034C170.53 383.448 169.517 382.501 163.931 381.162C169.517 379.888 170.464 378.875 171.804 373.29C173.143 378.908 174.058 379.888 179.677 381.162Z" fill="#002747"/>
<path d="M173.829 586.229C178.177 586.229 181.702 582.705 181.702 578.357C181.702 574.009 178.177 570.485 173.829 570.485C169.481 570.485 165.956 574.009 165.956 578.357C165.956 582.705 169.481 586.229 173.829 586.229Z" fill="#002747"/>
<path d="M101.697 553.663C103.249 553.663 104.507 552.405 104.507 550.854C104.507 549.302 103.249 548.044 101.697 548.044C100.145 548.044 98.8876 549.302 98.8876 550.854C98.8876 552.405 100.145 553.663 101.697 553.663Z" fill="#002747"/>
<path d="M175.626 703.429C168.831 704.965 167.589 706.206 166.054 713C164.519 706.206 163.277 704.965 156.482 703.429C163.277 701.894 164.519 700.653 166.054 693.859C167.589 700.653 168.831 701.894 175.626 703.429Z" fill="#002747"/>
<path d="M33.2891 440.317C27.7028 441.591 26.7554 442.604 25.3834 448.222C24.142 442.604 23.0966 441.689 17.5103 440.317C23.0966 439.076 24.044 438.031 25.3834 432.445C26.6574 438.031 27.7028 439.076 33.2891 440.317Z" fill="#002747"/>
<path d="M267.046 0H265.674V488.562H267.046V0Z" fill="#B66D12"/>
<path d="M266.36 482.977L262.93 503.033L242.806 500.093L260.839 509.533L251.79 527.76L266.36 513.551L280.898 527.76L271.881 509.533L289.882 500.093L269.758 503.033L266.36 482.977Z" fill="#B66D12"/>
<path d="M325.164 0H323.792V154.209H325.164V0Z" fill="#B66D12"/>
<path d="M324.478 150.289L322.224 163.518L308.96 161.558L320.819 167.797L314.873 179.818L324.478 170.443L334.05 179.818L328.104 167.797L339.995 161.558L326.732 163.518L324.478 150.289Z" fill="#B66D12"/>
<path d="M238.07 0H236.697V238.908H238.07V0Z" fill="#B66D12"/>
<path d="M237.383 234.988L233.757 256.253L212.457 253.117L231.536 263.112L221.964 282.417L237.383 267.359L252.803 282.417L243.231 263.112L262.31 253.117L241.01 256.253L237.383 234.988Z" fill="#B66D12"/>
<path d="M353.683 0H352.311V598.74H353.683V0Z" fill="#B66D12"/>
<path d="M352.997 591.26L349.567 611.283L329.476 608.343L347.476 617.783L338.46 635.977L352.997 621.768L367.502 635.977L358.486 617.783L376.486 608.343L356.395 611.283L352.997 591.26Z" fill="#B66D12"/>
<path d="M261.264 669.197C252.052 671.255 250.385 672.953 248.197 682.263C246.139 673.084 244.44 671.385 235.129 669.197C244.309 667.106 246.008 665.441 248.197 656.131C250.385 665.441 252.052 667.106 261.264 669.197Z" fill="#002747"/>
<path d="M345.026 433.066C338.492 434.503 337.447 435.679 336.01 442.081C334.572 435.548 333.396 434.503 326.993 433.066C333.527 431.628 334.572 430.452 336.01 424.05C337.447 430.452 338.623 431.628 345.026 433.066Z" fill="#002747"/>
<path d="M298.016 287.219C294.423 288.035 293.737 288.689 292.92 292.282C292.136 288.689 291.45 288.035 287.856 287.219C291.45 286.402 292.136 285.749 292.92 282.156C293.671 285.749 294.423 286.402 298.016 287.219Z" fill="#002747"/>
<path d="M383.314 81.6612C378.119 82.8371 377.139 83.7844 375.996 88.978C374.82 83.7844 373.84 82.8371 368.645 81.6612C373.84 80.4852 374.82 79.538 375.996 74.3443C377.139 79.6033 378.119 80.5506 383.314 81.6612Z" fill="#002747"/>
<path d="M402 252.986C396.806 254.162 395.826 255.109 394.682 260.303C393.506 255.109 392.526 254.162 387.332 252.986C392.526 251.81 393.506 250.863 394.682 245.669C395.826 250.863 396.806 251.81 402 252.986Z" fill="#002747"/>
<path d="M224.381 125.301C220.004 126.313 219.187 127.097 218.207 131.507C217.194 127.097 216.41 126.313 212 125.301C216.41 124.321 217.194 123.504 218.207 119.127C219.187 123.504 220.004 124.321 224.381 125.301Z" fill="#002747"/>
<path d="M300.728 83.6537C306.321 83.6537 310.855 79.1201 310.855 73.5277C310.855 67.9353 306.321 63.4017 300.728 63.4017C295.135 63.4017 290.6 67.9353 290.6 73.5277C290.6 79.1201 295.135 83.6537 300.728 83.6537Z" fill="#002747"/>
<path d="M391.677 381.162C386.09 382.436 385.143 383.448 383.804 389.034C382.53 383.448 381.517 382.501 375.931 381.162C381.517 379.888 382.464 378.875 383.804 373.29C385.143 378.908 386.058 379.888 391.677 381.162Z" fill="#002747"/>
<path d="M385.829 586.229C390.177 586.229 393.702 582.705 393.702 578.357C393.702 574.009 390.177 570.485 385.829 570.485C381.481 570.485 377.956 574.009 377.956 578.357C377.956 582.705 381.481 586.229 385.829 586.229Z" fill="#002747"/>
<path d="M313.697 553.663C315.249 553.663 316.507 552.405 316.507 550.854C316.507 549.302 315.249 548.044 313.697 548.044C312.145 548.044 310.888 549.302 310.888 550.854C310.888 552.405 312.145 553.663 313.697 553.663Z" fill="#002747"/>
<path d="M387.626 703.429C380.831 704.965 379.589 706.206 378.054 713C376.519 706.206 375.277 704.965 368.482 703.429C375.277 701.894 376.519 700.653 378.054 693.859C379.589 700.653 380.831 701.894 387.626 703.429Z" fill="#002747"/>
<path d="M245.289 440.317C239.703 441.591 238.755 442.604 237.383 448.222C236.142 442.604 235.097 441.689 229.51 440.317C235.097 439.076 236.044 438.031 237.383 432.445C238.657 438.031 239.703 439.076 245.289 440.317Z" fill="#002747"/>
<path d="M933.046 0H931.674V488.562H933.046V0Z" fill="#B66D12"/>
<path d="M932.36 482.977L928.93 503.033L908.806 500.093L926.839 509.533L917.79 527.76L932.36 513.551L946.898 527.76L937.881 509.533L955.882 500.093L935.758 503.033L932.36 482.977Z" fill="#B66D12"/>
<path d="M991.164 0H989.792V154.209H991.164V0Z" fill="#B66D12"/>
<path d="M990.478 150.289L988.224 163.518L974.96 161.558L986.819 167.797L980.873 179.818L990.478 170.443L1000.05 179.818L994.104 167.797L1006 161.558L992.732 163.518L990.478 150.289Z" fill="#B66D12"/>
<path d="M904.07 0H902.697V238.908H904.07V0Z" fill="#B66D12"/>
<path d="M903.383 234.988L899.757 256.253L878.457 253.117L897.536 263.112L887.964 282.417L903.383 267.359L918.803 282.417L909.231 263.112L928.31 253.117L907.01 256.253L903.383 234.988Z" fill="#B66D12"/>
<path d="M1019.68 0H1018.31V598.74H1019.68V0Z" fill="#B66D12"/>
<path d="M1019 591.26L1015.57 611.283L995.476 608.343L1013.48 617.783L1004.46 635.977L1019 621.768L1033.5 635.977L1024.49 617.783L1042.49 608.343L1022.39 611.283L1019 591.26Z" fill="#B66D12"/>
<path d="M927.264 669.197C918.052 671.255 916.385 672.953 914.197 682.263C912.139 673.084 910.44 671.385 901.129 669.197C910.309 667.106 912.008 665.441 914.197 656.131C916.385 665.441 918.052 667.106 927.264 669.197Z" fill="#002747"/>
<path d="M1011.03 433.066C1004.49 434.503 1003.45 435.679 1002.01 442.081C1000.57 435.548 999.396 434.503 992.993 433.066C999.527 431.628 1000.57 430.452 1002.01 424.05C1003.45 430.452 1004.62 431.628 1011.03 433.066Z" fill="#002747"/>
<path d="M964.016 287.219C960.423 288.035 959.737 288.689 958.92 292.282C958.136 288.689 957.45 288.035 953.856 287.219C957.45 286.402 958.136 285.749 958.92 282.156C959.671 285.749 960.423 286.402 964.016 287.219Z" fill="#002747"/>
<path d="M1049.31 81.6612C1044.12 82.8371 1043.14 83.7844 1042 88.978C1040.82 83.7844 1039.84 82.8371 1034.65 81.6612C1039.84 80.4852 1040.82 79.538 1042 74.3443C1043.14 79.6033 1044.12 80.5506 1049.31 81.6612Z" fill="#002747"/>
<path d="M1068 252.986C1062.81 254.162 1061.83 255.109 1060.68 260.303C1059.51 255.109 1058.53 254.162 1053.33 252.986C1058.53 251.81 1059.51 250.863 1060.68 245.669C1061.83 250.863 1062.81 251.81 1068 252.986Z" fill="#002747"/>
<path d="M890.381 125.301C886.004 126.313 885.187 127.097 884.207 131.507C883.194 127.097 882.41 126.313 878 125.301C882.41 124.321 883.194 123.504 884.207 119.127C885.187 123.504 886.004 124.321 890.381 125.301Z" fill="#002747"/>
<path d="M966.728 83.6537C972.321 83.6537 976.855 79.1201 976.855 73.5277C976.855 67.9353 972.321 63.4017 966.728 63.4017C961.135 63.4017 956.6 67.9353 956.6 73.5277C956.6 79.1201 961.135 83.6537 966.728 83.6537Z" fill="#002747"/>
<path d="M1057.68 381.162C1052.09 382.436 1051.14 383.448 1049.8 389.034C1048.53 383.448 1047.52 382.501 1041.93 381.162C1047.52 379.888 1048.46 378.875 1049.8 373.29C1051.14 378.908 1052.06 379.888 1057.68 381.162Z" fill="#002747"/>
<path d="M1051.83 586.229C1056.18 586.229 1059.7 582.705 1059.7 578.357C1059.7 574.009 1056.18 570.485 1051.83 570.485C1047.48 570.485 1043.96 574.009 1043.96 578.357C1043.96 582.705 1047.48 586.229 1051.83 586.229Z" fill="#002747"/>
<path d="M979.697 553.663C981.249 553.663 982.507 552.405 982.507 550.854C982.507 549.302 981.249 548.044 979.697 548.044C978.145 548.044 976.888 549.302 976.888 550.854C976.888 552.405 978.145 553.663 979.697 553.663Z" fill="#002747"/>
<path d="M1053.63 703.429C1046.83 704.965 1045.59 706.206 1044.05 713C1042.52 706.206 1041.28 704.965 1034.48 703.429C1041.28 701.894 1042.52 700.653 1044.05 693.859C1045.59 700.653 1046.83 701.894 1053.63 703.429Z" fill="#002747"/>
<path d="M911.289 440.317C905.703 441.591 904.755 442.604 903.383 448.222C902.142 442.604 901.097 441.689 895.51 440.317C901.097 439.076 902.044 438.031 903.383 432.445C904.657 438.031 905.703 439.076 911.289 440.317Z" fill="#002747"/>
<path d="M1145.05 0H1143.67V488.562H1145.05V0Z" fill="#B66D12"/>
<path d="M1144.36 482.977L1140.93 503.033L1120.81 500.093L1138.84 509.533L1129.79 527.76L1144.36 513.551L1158.9 527.76L1149.88 509.533L1167.88 500.093L1147.76 503.033L1144.36 482.977Z" fill="#B66D12"/>
<path d="M1203.16 0H1201.79V154.209H1203.16V0Z" fill="#B66D12"/>
<path d="M1202.48 150.289L1200.22 163.518L1186.96 161.558L1198.82 167.797L1192.87 179.818L1202.48 170.443L1212.05 179.818L1206.1 167.797L1218 161.558L1204.73 163.518L1202.48 150.289Z" fill="#B66D12"/>
<path d="M1116.07 0H1114.7V238.908H1116.07V0Z" fill="#B66D12"/>
<path d="M1115.38 234.988L1111.76 256.253L1090.46 253.117L1109.54 263.112L1099.96 282.417L1115.38 267.359L1130.8 282.417L1121.23 263.112L1140.31 253.117L1119.01 256.253L1115.38 234.988Z" fill="#B66D12"/>
<path d="M1231.68 0H1230.31V598.74H1231.68V0Z" fill="#B66D12"/>
<path d="M1231 591.26L1227.57 611.283L1207.48 608.343L1225.48 617.783L1216.46 635.977L1231 621.768L1245.5 635.977L1236.49 617.783L1254.49 608.343L1234.39 611.283L1231 591.26Z" fill="#B66D12"/>
<path d="M1139.26 669.197C1130.05 671.255 1128.39 672.953 1126.2 682.263C1124.14 673.084 1122.44 671.385 1113.13 669.197C1122.31 667.106 1124.01 665.441 1126.2 656.131C1128.39 665.441 1130.05 667.106 1139.26 669.197Z" fill="#002747"/>
<path d="M1223.03 433.066C1216.49 434.503 1215.45 435.679 1214.01 442.081C1212.57 435.548 1211.4 434.503 1204.99 433.066C1211.53 431.628 1212.57 430.452 1214.01 424.05C1215.45 430.452 1216.62 431.628 1223.03 433.066Z" fill="#002747"/>
<path d="M1176.02 287.219C1172.42 288.035 1171.74 288.689 1170.92 292.282C1170.14 288.689 1169.45 288.035 1165.86 287.219C1169.45 286.402 1170.14 285.749 1170.92 282.156C1171.67 285.749 1172.42 286.402 1176.02 287.219Z" fill="#002747"/>
<path d="M1261.31 81.6612C1256.12 82.8371 1255.14 83.7844 1254 88.978C1252.82 83.7844 1251.84 82.8371 1246.65 81.6612C1251.84 80.4852 1252.82 79.538 1254 74.3443C1255.14 79.6033 1256.12 80.5506 1261.31 81.6612Z" fill="#002747"/>
<path d="M1280 252.986C1274.81 254.162 1273.83 255.109 1272.68 260.303C1271.51 255.109 1270.53 254.162 1265.33 252.986C1270.53 251.81 1271.51 250.863 1272.68 245.669C1273.83 250.863 1274.81 251.81 1280 252.986Z" fill="#002747"/>
<path d="M1102.38 125.301C1098 126.313 1097.19 127.097 1096.21 131.507C1095.19 127.097 1094.41 126.313 1090 125.301C1094.41 124.321 1095.19 123.504 1096.21 119.127C1097.19 123.504 1098 124.321 1102.38 125.301Z" fill="#002747"/>
<path d="M1178.73 83.6537C1184.32 83.6537 1188.85 79.1201 1188.85 73.5277C1188.85 67.9353 1184.32 63.4017 1178.73 63.4017C1173.13 63.4017 1168.6 67.9353 1168.6 73.5277C1168.6 79.1201 1173.13 83.6537 1178.73 83.6537Z" fill="#002747"/>
<path d="M1269.68 381.162C1264.09 382.436 1263.14 383.448 1261.8 389.034C1260.53 383.448 1259.52 382.501 1253.93 381.162C1259.52 379.888 1260.46 378.875 1261.8 373.29C1263.14 378.908 1264.06 379.888 1269.68 381.162Z" fill="#002747"/>
<path d="M1263.83 586.229C1268.18 586.229 1271.7 582.705 1271.7 578.357C1271.7 574.009 1268.18 570.485 1263.83 570.485C1259.48 570.485 1255.96 574.009 1255.96 578.357C1255.96 582.705 1259.48 586.229 1263.83 586.229Z" fill="#002747"/>
<path d="M1191.7 553.663C1193.25 553.663 1194.51 552.405 1194.51 550.854C1194.51 549.302 1193.25 548.044 1191.7 548.044C1190.15 548.044 1188.89 549.302 1188.89 550.854C1188.89 552.405 1190.15 553.663 1191.7 553.663Z" fill="#002747"/>
<path d="M1265.63 703.429C1258.83 704.965 1257.59 706.206 1256.05 713C1254.52 706.206 1253.28 704.965 1246.48 703.429C1253.28 701.894 1254.52 700.653 1256.05 693.859C1257.59 700.653 1258.83 701.894 1265.63 703.429Z" fill="#002747"/>
<path d="M1123.29 440.317C1117.7 441.591 1116.76 442.604 1115.38 448.222C1114.14 442.604 1113.1 441.689 1107.51 440.317C1113.1 439.076 1114.04 438.031 1115.38 432.445C1116.66 438.031 1117.7 439.076 1123.29 440.317Z" fill="#002747"/>
</svg>
