<svg xmlns="http://www.w3.org/2000/svg" width="328.03" height="378.09" viewBox="0 0 328.03 378.09">
  <defs>
    <style>
      .cls-1 {
        isolation: isolate;
      }

      .cls-2 {
        fill: #38a77c;
      }

      .cls-3 {
        fill: #1894a2;
      }

      .cls-4 {
        fill: #91406f;
      }

      .cls-5 {
        fill: #bdbaa9;
      }

      .cls-6 {
        fill: #fff9de;
      }

      .cls-7 {
        fill: #545448;
      }

      .cls-8 {
        fill: #717262;
      }

      .cls-9 {
        fill: #e7c19c;
      }

      .cls-10 {
        fill: #f1d2b3;
      }

      .cls-11, .cls-12 {
        fill: #392828;
      }

      .cls-12 {
        opacity: 0.5;
        mix-blend-mode: multiply;
      }

      .cls-13 {
        fill: #c3a479;
      }

      .cls-14 {
        fill: #3a5472;
      }

      .cls-15 {
        fill: #a8351e;
      }

      .cls-16 {
        fill: #1e312e;
      }

      .cls-17 {
        fill: #fffde1;
      }

      .cls-18 {
        fill: #e64128;
      }

      .cls-19 {
        fill: #b53821;
        opacity: 0.4;
      }

      .cls-20 {
        fill: #3172b1;
      }

      .cls-21 {
        fill: #e54f35;
      }
    </style>
  </defs>
  <title>boy1</title>
  <g class="cls-1">
    <g id="Layer_2" data-name="Layer 2">
      <g id="Layer_1-2" data-name="Layer 1">
        <g>
          <g>
            <g>
              <g>
                <path class="cls-2" d="M274.67,374.73a14.78,14.78,0,0,1-.93-3.21c-.09-.43-.21-.85-.34-1.27a4.82,4.82,0,0,1-.41-1.07c-.33-1.42-.74-2.83-1-4.26a11.65,11.65,0,0,1-.19-3.22,4,4,0,0,1,.27-.55,13.26,13.26,0,0,1,1.37-1.22c.39-.29.79-.55,1.2-.8,1.13-.43,2.26-.85,3.41-1.21a82.28,82.28,0,0,1,8.76-2.15c1.47-.3,3-.51,4.55-.84a12.6,12.6,0,0,1,1.32.31,9.76,9.76,0,0,0,4.61.74,80.55,80.55,0,0,0,10.51-1.23c3.41-.57,6.38-2.06,9.61-3.19,2.56-.91,6.14-1.18,8.69-.05a3.18,3.18,0,0,1,2,3.32c-.58,2.69-2.5,5.18-4.49,7.13A75.22,75.22,0,0,1,314.7,369a45.34,45.34,0,0,1-8.6,5.26c-4.75,2-9.63,2.38-14.71,2.91-4.14.44-8.26.72-12.39.88l-.44,0C276.44,377.83,275.52,376.49,274.67,374.73Z"/>
                <path class="cls-3" d="M305.22,366.6c2.56-3.72,7.67-4.41,11-7.3,1.86-1.63,5.18-4.38,4.82-7.24a2.58,2.58,0,0,0-.44-1.21,11,11,0,0,1,5.5.66,3.18,3.18,0,0,1,2,3.32c-.58,2.69-2.5,5.18-4.49,7.13A75.22,75.22,0,0,1,314.7,369a45.34,45.34,0,0,1-8.6,5.26c-.5.22-1,.4-1.5.58C303.86,372.05,303.59,369,305.22,366.6Z"/>
                <path class="cls-4" d="M272,364.92a11.65,11.65,0,0,1-.19-3.22,4,4,0,0,1,.27-.55,13.26,13.26,0,0,1,1.37-1.22c.39-.29.79-.55,1.2-.8,1.13-.43,2.26-.85,3.41-1.21a82.28,82.28,0,0,1,8.76-2.15c1.47-.3,3-.51,4.55-.84h0a15.15,15.15,0,0,1-4.71,7.56c-3.73,2.93-9.36,4-14.39,3.64C272.14,365.73,272,365.33,272,364.92Z"/>
                <path class="cls-3" d="M274.67,374.73a14.78,14.78,0,0,1-.93-3.21c-.09-.43-.21-.85-.34-1.27a4.82,4.82,0,0,1-.41-1.07c-.05-.25-.12-.51-.19-.77.2,0,.39-.05.52-.05a11,11,0,0,1,6.42,1.06c2.79,1.5,7.71,4.45,9.11,8-3.29.29-6.57.52-9.85.65l-.44,0C276.44,377.83,275.52,376.49,274.67,374.73Z"/>
                <path class="cls-5" d="M274.63,374.63a14.21,14.21,0,0,0,4.23.85,55.19,55.19,0,0,0,9.27-.07c6.46-.65,13.58-1,19.5-4,6.22-3.11,11.52-8.13,15.89-13.45,1.16-1.41,3.06-3.45,2.92-5.44a3.65,3.65,0,0,0-.2-.92,3.17,3.17,0,0,1,1.78,3.23c-.58,2.69-2.5,5.18-4.49,7.13A75.22,75.22,0,0,1,314.7,369a45.34,45.34,0,0,1-8.6,5.26c-4.75,2-9.63,2.38-14.71,2.91-4.14.44-8.26.72-12.39.88l-.44,0c-2.12-.23-3-1.57-3.89-3.33Z"/>
                <path class="cls-6" d="M290.8,362.59c-.91-1.39-.43-3.69.18-5.14a3.22,3.22,0,0,1,.21-.42c.35-.85.86-1.95,1.69-1.95.14,0,.33.14.3.29l.06,0s0,0,0,0h0s0,0,0,0l-.06,0,0,0,0,0a.34.34,0,0,1-.14.05,1,1,0,0,0-.31.39c-.11.2-.22.39-.32.59a8.35,8.35,0,0,0-.71,1.83,15.94,15.94,0,0,0-.33,1.75,11.8,11.8,0,0,1,2.74-3.2c.35-.31,1.45-1.34,1.93-1.12a.59.59,0,0,1,.29.27s.05,0,.07.05a3.67,3.67,0,0,1,.43.63,6.52,6.52,0,0,1,.42.59,5.7,5.7,0,0,1,.59,1.22,19.63,19.63,0,0,1,2.5-2.88c.11-.15.21-.27.28-.35s.09-.21.21-.23a.26.26,0,0,1,.23,0,.41.41,0,0,1,.22,0,.59.59,0,0,1,.62.31,5.62,5.62,0,0,1,1.66,1.38,16,16,0,0,1,1.47,1.82c0-.47,0-.93,0-1.36a6.32,6.32,0,0,1,.23-1.3c.09-.84.37-1.46,1.13-1.12a.33.33,0,0,1,.2.34c-.06.66-.3,1.27-.34,1.95-.06,1-.21,1.94-.24,2.92a.32.32,0,0,1-.28.32.74.74,0,0,1-.88.28c-1.13-.87-1.8-2.5-2.91-3.38l-.05-.07-.52-.65c-.76,1.2-1.46,2.45-2.1,3.72l-.13.23c-.1.73-.5,1.72-1.34,1.07A2.84,2.84,0,0,1,297,360c-.19-.63-.37-1.24-.58-1.86l-.1-.2c-.14-.29-.29-.58-.44-.87-1.48,1.76-2.7,3.62-4.06,5.48h0a.57.57,0,0,1-.63.15A.35.35,0,0,1,290.8,362.59Z"/>
                <path class="cls-6" d="M314.2,367.29a80.4,80.4,0,0,0,7-6.72,35.92,35.92,0,0,0,3.38-4c1-1.46,2.13-2.74,1.73-4.65h0c.77,2.88-2.12,5.59-3.84,7.57a70,70,0,0,1-8.22,7.83A0,0,0,0,1,314.2,367.29Z"/>
              </g>
              <path class="cls-7" d="M227.13,282.22c-16.86-14.66-71.47-53.25-74.94-71.59l49.57-14.08c-1.56,8.24-2.84,11.24-1.86,13,3.19,5.84,37.4,30.65,49.85,60.23C251.76,271.61,240.18,289.38,227.13,282.22Z"/>
              <path class="cls-7" d="M245.93,265.66a25.35,25.35,0,0,1,6.21,8c2.66,5.27,40.05,79.93,40.05,79.93s-4.78,11.33-21.07,12.9c0,0-27-42.09-33.49-56.51a227.72,227.72,0,0,1-10.5-27.79S231.37,265.34,245.93,265.66Z"/>
            </g>
            <g>
              <g>
                <path class="cls-2" d="M11.4,273a13.81,13.81,0,0,1,3.33.35c.43.07.87.11,1.3.16a4,4,0,0,1,1.15,0c1.44.22,2.9.36,4.34.62a12,12,0,0,1,3.06,1,3.57,3.57,0,0,1,.4.46,13.65,13.65,0,0,1,.63,1.73c.11.47.21.94.28,1.4,0,1.21-.06,2.42-.15,3.62a86.91,86.91,0,0,1-1.3,8.93c-.27,1.47-.67,3-.93,4.53a10.44,10.44,0,0,1-.78,1.1,9.7,9.7,0,0,0-2.42,4,84.16,84.16,0,0,0-2.81,10.2c-.75,3.37-.48,6.69-.64,10.11-.13,2.71-1.22,6.14-3.22,8.07a3.15,3.15,0,0,1-3.81.57c-2.28-1.54-3.86-4.26-4.93-6.83a75.9,75.9,0,0,1-3.25-10.84,45.46,45.46,0,0,1-1.64-10c-.11-5.17,1.4-9.83,2.82-14.73,1.15-4,2.44-7.93,3.84-11.81.06-.13.12-.27.19-.39C7.86,273.46,9.45,273.11,11.4,273Z"/>
                <path class="cls-3" d="M7.48,304.35c2.48,3.77,1.2,8.76,2.64,12.9.82,2.34,2.12,6.45,4.91,7.19a2.6,2.6,0,0,0,1.29,0,11.12,11.12,0,0,1-2.68,4.85,3.15,3.15,0,0,1-3.81.57c-2.28-1.54-3.86-4.26-4.93-6.83a75.9,75.9,0,0,1-3.25-10.84,45.46,45.46,0,0,1-1.64-10c0-.54,0-1.08,0-1.61C2.93,301.05,5.9,302,7.48,304.35Z"/>
                <path class="cls-4" d="M21.52,274.14a12,12,0,0,1,3.06,1,3.57,3.57,0,0,1,.4.46,13.65,13.65,0,0,1,.63,1.73c.11.47.21.94.28,1.4,0,1.21-.06,2.42-.15,3.62a86.91,86.91,0,0,1-1.3,8.93c-.27,1.48-.66,3-.93,4.53v0c-2.46-2-5.8-4.55-6.57-7.23-1.31-4.56,1.15-10.14,3.36-14.68Z"/>
                <path class="cls-3" d="M11.4,273a13.81,13.81,0,0,1,3.33.35c.43.07.87.11,1.3.16a4,4,0,0,1,1.15,0l.78.1a4.12,4.12,0,0,1-.14.5c-.78,2.28-1.52,4-3.4,5.56-2.43,2-7,5.48-10.84,5.43,1-3.16,2-6.28,3.09-9.37.06-.13.12-.27.19-.39C7.86,273.46,9.45,273.11,11.4,273Z"/>
                <path class="cls-5" d="M11.51,273a14.49,14.49,0,0,0-2.37,3.6,53.55,53.55,0,0,0-3.41,8.61c-1.83,6.24-4.14,13-3.62,19.58.55,6.94,3.21,13.73,6.5,19.78.88,1.61,2.05,4.13,4,4.74a3.13,3.13,0,0,0,.92.16,3.14,3.14,0,0,1-3.65.44c-2.28-1.54-3.86-4.26-4.93-6.83a75.9,75.9,0,0,1-3.25-10.84,45.46,45.46,0,0,1-1.64-10c-.11-5.17,1.4-9.83,2.82-14.73,1.15-4,2.44-7.93,3.84-11.81.06-.13.12-.27.19-.39,1-1.89,2.59-2.24,4.54-2.36Z"/>
                <path class="cls-6" d="M16.6,292.49c1.63-.32,3.59,1,4.7,2.1a2.4,2.4,0,0,1,.31.35c.65.64,1.49,1.53,1.18,2.3-.06.13-.26.25-.39.17l0,0h0s0,0,0,0,0,0,0,0v-.07l0,0a0,0,0,0,0,0,0,.33.33,0,0,1,0-.14.92.92,0,0,0-.24-.43c-.14-.18-.28-.35-.43-.52a7.61,7.61,0,0,0-1.43-1.35,14.81,14.81,0,0,0-1.5-1,11.8,11.8,0,0,1,1.95,3.74c.15.44.69,1.84.31,2.21a.64.64,0,0,1-.36.17l-.07,0a3.43,3.43,0,0,1-.75.16,5.19,5.19,0,0,1-.71.17,5.61,5.61,0,0,1-1.35.09,19.17,19.17,0,0,1,1.73,3.4c.1.16.18.29.23.39s.15.16.12.28a.2.2,0,0,1,0,.23.39.39,0,0,1-.06.21.6.6,0,0,1-.53.46,5.49,5.49,0,0,1-1.9,1,17.37,17.37,0,0,1-2.23.68,13.23,13.23,0,0,1,1.26.51,5.63,5.63,0,0,1,1.12.69c.74.4,1.21.9.62,1.47a.34.34,0,0,1-.39.06c-.6-.31-1.07-.76-1.69-1.05-.88-.43-1.71-.92-2.61-1.32a.31.31,0,0,1-.19-.38.74.74,0,0,1,.06-.92c1.23-.72,3-.73,4.23-1.43l.08,0,.8-.23c-.83-1.16-1.73-2.28-2.66-3.34l-.16-.21c-.64-.37-1.41-1.11-.49-1.65a2.74,2.74,0,0,1,1.63-.09c.66.06,1.29.12,1.94.16l.23,0,1-.08c-1.08-2-2.35-3.86-3.56-5.82h0v0a.54.54,0,0,1,.1-.63A.36.36,0,0,1,16.6,292.49Z"/>
                <path class="cls-6" d="M3.46,312.42a80.91,80.91,0,0,0,3.61,9A35.82,35.82,0,0,0,9.51,326c1,1.45,1.74,3,3.66,3.35,0,0,0,0,0,0-3-.37-4.39-4.06-5.58-6.4a70.28,70.28,0,0,1-4.16-10.55S3.45,312.4,3.46,312.42Z"/>
              </g>
              <path class="cls-8" d="M108.88,268.13c7.75-16.76,28.69-60.57,41.57-82.36L205,190.09,199.92,205c-5.62,13.8-48.84,65.44-76.74,84.61C122.9,289.5,106.1,293.08,108.88,268.13Z"/>
              <path class="cls-8" d="M125.73,284.53l-2.36,4.88s.57.06-4.84.67-95.82,4.28-95.82,4.28-8.07-9.46-.63-21.51c0,0,41.21-6,55.06-8.3s31.74,3.58,31.74,3.58S123.16,272.41,125.73,284.53Z"/>
            </g>
          </g>
          <g>
            <g>
              <path class="cls-9" d="M201.21,75.87l-.16,6.2-11.24,4.22s.08-2,.2-4.43c.16-3.06-3.19-3.73-13.32-8.34-21-9.55-23.68-14.73-27-24.25C139.69,20.43,163,.81,194.57,2.78,222.13,4.49,208.46,38.29,206.65,49Z"/>
              <path class="cls-9" d="M185.35,99.31s5.91-33.8,11.45-33c0,0,20.59,11.29,22.62,16.61.1.25.61,0,.33,1.69-1.88.28-7.26-2-8.35.41s-6.78,19.64-8.28,24.48C196.05,106.5,184.39,102,185.35,99.31Z"/>
            </g>
            <g>
              <path class="cls-10" d="M193.82,2.74S203.29,4,204.19,4.17A33.82,33.82,0,0,1,213.67,8c5.93,3.54,11,8.92,13.23,15.53a33.4,33.4,0,0,1,1.88,9c.15,3-.75,6-.77,9,0,2.76,1.76,5.16,3.87,7.19l.54.57c1.09,1.11,2.34,2,3.45,3.1s2.45,2.43,1.9,4c-.06.18-.15.33-.22.49a7.67,7.67,0,0,1-2,1.51c-.77.42-2.65,1.12-2.58,2.2a4.72,4.72,0,0,0,.63,1.73,6.32,6.32,0,0,1,1,3c-.22,1.58-3.43,2.34-4.8,2.33-.1.08,3.46.06,3.49,1.51,0,2.09-1.48,1.09-1.51,4.3,0,.27.69,2.6,1,4.75a7.67,7.67,0,0,1-2.25,5.5c-1.76,1.7-4.53,1.78-7.17,1.49-7.41-.86-14.65-5.23-19.9-10.38-3.48-3.41-5.43-7.69-7-12.15-.39-1.52-.78-3.06-1.22-4.6q-1.38-4.8-2.72-9.61C195.82,33.61,195.45,17.94,193.82,2.74Z"/>
              <g>
                <path class="cls-9" d="M229.82,67.74a9.3,9.3,0,0,1,2.91.67,16.1,16.1,0,0,0-3.65-.76l-.58-.11a14.17,14.17,0,0,0,6.13-2.36,1.69,1.69,0,0,1,0,.23C234.4,67,231.19,67.75,229.82,67.74Z"/>
                <path class="cls-9" d="M237.76,55a2.18,2.18,0,0,1,0,1.45c-.06.18-.15.33-.22.49a7.67,7.67,0,0,1-2,1.51c-.75.41-2.53,1.08-2.56,2.11a15.21,15.21,0,0,1-3.26-2.45C232.61,57.83,235.78,57.18,237.76,55Z"/>
              </g>
            </g>
            <path class="cls-11" d="M144.84,38.62a44.81,44.81,0,0,1,2.94-15.49,19.54,19.54,0,0,1,4.06-5.87,8.75,8.75,0,0,1,3.55-1.74c.05-.15.1-.3.15-.43,3.72-8.64,13.3-11.58,21.74-13.56A54.5,54.5,0,0,1,200,.91c.39.08.78.18,1.17.28a12.2,12.2,0,0,1,1.6,0A66.69,66.69,0,0,1,211,2.53,32.35,32.35,0,0,1,222.4,7.74a17.47,17.47,0,0,1,3.9,3.65l.6.53c3.07,3,5,7.22,6.33,11.27a21.57,21.57,0,0,1,.75,8.19A20.66,20.66,0,0,1,232.6,36a14.91,14.91,0,0,0-.7-6.42,42.34,42.34,0,0,1-.39,6.44,10.53,10.53,0,0,0-.81-3.48,25.49,25.49,0,0,0-3.87-8.95c-.46-.67-1-1.29-1.45-1.89.05.16.12.3.17.47a18.84,18.84,0,0,1-1.89,14.46,11.16,11.16,0,0,1-2.17,2.27,14.71,14.71,0,0,0,1.89-10A20.35,20.35,0,0,1,219.21,39a17.57,17.57,0,0,1-1,1.85,11.12,11.12,0,0,1-1.58,1.78,25.09,25.09,0,0,0,4.67-14.45,20.6,20.6,0,0,1-1.44,6.11,33.23,33.23,0,0,1-4.31,6.88c-.35.79-.71,1.56-1.09,2.33a31.7,31.7,0,0,0-3.09,7.66c-.1.22-.19.46-.28.69a19.09,19.09,0,0,1,1.43-5.55c-.2.34-.41.67-.63,1A43.78,43.78,0,0,1,207.1,54h0a32.16,32.16,0,0,0,2.49-7.63.26.26,0,0,0,0-.15c0-.14.08-.27.11-.41a33.32,33.32,0,0,0,.81-6.21c-.19.65-.38,1.29-.59,1.92-1.59,4.76-3.45,9.74-6.65,13.68-.07.81-.12,1.62-.16,2.43a22.26,22.26,0,0,0-.37,6.26c-.77-1.3-.85-3.32-1.26-4.74-.18-.62-.33-1.24-.5-1.86a12.84,12.84,0,0,1-1,6,.59.59,0,0,1-1-.14c-.66-1.85-1.36-3.68-2.08-5.52a35.57,35.57,0,0,0-3-5.64c.49,3.12.87,6.25,1.34,9.37.58,3.82,2.1,7.22,3.06,10.9.1.37-.29.47-.57.35a11.79,11.79,0,0,1,1.07,2.56,4.06,4.06,0,0,1-2.33-.64c-.5-.51-.95-1.1-1.38-1.52-.23-.24-.48-.49-.72-.76a15.23,15.23,0,0,1,.83,4.48,9.56,9.56,0,0,1-1.18,2.45.67.67,0,0,1-.12-.19c-.37-1.21-.69-2.29-1.12-3.32a15.83,15.83,0,0,1,.53,2.71c.06.58-.57.77-1,.43l-.76-.62c.85,1.25,1.93,2.49,2.24,3.88,0,0,0,0,0,0a11.47,11.47,0,0,0-1.52-.55,19.4,19.4,0,0,0-4.22-3c.59.56,1.17,1.12,1.79,1.61h0c-1.21-.3-2.42-.63-3.61-1a5.93,5.93,0,0,0-.69-.29,127.38,127.38,0,0,1-18.87-8.8c-5.47-3.11-11.22-6.5-15.27-11.41A30,30,0,0,1,144.84,38.62Z"/>
            <path class="cls-12" d="M144.84,38.62a44.81,44.81,0,0,1,2.94-15.49,19.54,19.54,0,0,1,4.06-5.87,7,7,0,0,1,2.69-1.45,26.65,26.65,0,0,0-7.18,17.65c-.07,6.72-.24,14.6,4.15,20.16.2.25.77.33.73-.13A36.71,36.71,0,0,1,154,37.91a31.9,31.9,0,0,0,0,5.53c.52,6.32,1.6,13.92,7.11,17.93.31.22.73.08.62-.35-1.07-4.37-2.55-8.56-2.58-13.08a28.2,28.2,0,0,0,3,7.55c3.35,5.81,8.59,12.7,15.14,15.06.37.13.48-.32.36-.57-1.24-2.5-3.12-4.55-4.24-7.14a50.75,50.75,0,0,1-3-9.37,44.39,44.39,0,0,1-1.08-8.78l.5,1.47c1.65,4.63,3.45,9.26,7.43,12.38.3.24.73.08.62-.34a87.5,87.5,0,0,1-2.06-8.58c.13.36.26.71.4,1.05,1.75,4.32,3.51,9.27,6.91,12.58.35.34.78-.06.57-.46-4-7.72-4.45-16.58-2.65-25a17,17,0,0,0,2.9,8.76c.19.26.59.31.72,0,1-2.6,1-5.33,1.54-8,.25-1.28.57-2.54.94-3.79a20.62,20.62,0,0,0,1.56,5,4.48,4.48,0,0,0,.08.72c.05.33.56.62.79.3,2.15-3,2.35-6.94,2.38-10.62,1.54,5.21,2.52,10.48,1.75,16,0,.37.51,1,.8.53,2.76-4.37,3.55-10,3.36-15.08a39.9,39.9,0,0,0-.51-5,22.18,22.18,0,0,1,2.39,10.55c0,.42.68.85.85.32a28.85,28.85,0,0,0,1.27-9.92,29.1,29.1,0,0,1,.54,17.37c-.11.39.54,1,.8.52a36.11,36.11,0,0,0,4.7-21.22c-.08-.85-.17-1.75-.29-2.66a24.36,24.36,0,0,1,2.59,9.68c0,.4.66.85.85.32a26.53,26.53,0,0,0,1.54-10.2,17.73,17.73,0,0,1,1.28,15.34c-.16.41.5.9.81.53,3.56-4.32,5.82-11.28,4.73-16.87a19.21,19.21,0,0,0-1.84-5.25,15.19,15.19,0,0,1,2.69,2.58c.29.34.81.24.72-.26a15.4,15.4,0,0,0-3.9-7.57,34.43,34.43,0,0,1,10.44,6c.39.33.74,0,.58-.46-2.53-6.28-8.9-10-14.9-12.36L213,3a35.77,35.77,0,0,1,9.39,4.7,17.47,17.47,0,0,1,3.9,3.65l.6.53c3.07,3,5,7.22,6.33,11.27a21.57,21.57,0,0,1,.75,8.19A20.66,20.66,0,0,1,232.6,36a14.91,14.91,0,0,0-.7-6.42,42.34,42.34,0,0,1-.39,6.44,10.53,10.53,0,0,0-.81-3.48,25.49,25.49,0,0,0-3.87-8.95c-.46-.67-1-1.29-1.45-1.89.05.16.12.3.17.47a18.84,18.84,0,0,1-1.89,14.46,11.16,11.16,0,0,1-2.17,2.27,14.71,14.71,0,0,0,1.89-10A20.35,20.35,0,0,1,219.21,39a17.57,17.57,0,0,1-1,1.85,11.12,11.12,0,0,1-1.58,1.78,25.09,25.09,0,0,0,4.67-14.45,20.6,20.6,0,0,1-1.44,6.11,33.23,33.23,0,0,1-4.31,6.88c-.35.79-.71,1.56-1.09,2.33a31.7,31.7,0,0,0-3.09,7.66c-.1.22-.19.46-.28.69a19.09,19.09,0,0,1,1.43-5.55c-.2.34-.41.67-.63,1A43.78,43.78,0,0,1,207.1,54h0a32.16,32.16,0,0,0,2.49-7.63.26.26,0,0,0,0-.15c0-.14.08-.27.11-.41a33.32,33.32,0,0,0,.81-6.21c-.19.65-.38,1.29-.59,1.92-1.59,4.76-3.45,9.74-6.65,13.68-.07.81-.12,1.62-.16,2.43a22.26,22.26,0,0,0-.37,6.26c-.77-1.3-.85-3.32-1.26-4.74-.18-.62-.33-1.24-.5-1.86a12.84,12.84,0,0,1-1,6,.59.59,0,0,1-1-.14c-.66-1.85-1.36-3.68-2.08-5.52a35.57,35.57,0,0,0-3-5.64c.49,3.12.87,6.25,1.34,9.37.58,3.82,2.1,7.22,3.06,10.9.1.37-.29.47-.57.35a11.79,11.79,0,0,1,1.07,2.56,4.06,4.06,0,0,1-2.33-.64c-.5-.51-.95-1.1-1.38-1.52-.23-.24-.48-.49-.72-.76a15.23,15.23,0,0,1,.83,4.48,9.56,9.56,0,0,1-1.18,2.45.67.67,0,0,1-.12-.19c-.37-1.21-.69-2.29-1.12-3.32a15.83,15.83,0,0,1,.53,2.71c.06.58-.57.77-1,.43l-.76-.62c.85,1.25,1.93,2.49,2.24,3.88,0,0,0,0,0,0a11.47,11.47,0,0,0-1.52-.55,19.4,19.4,0,0,0-4.22-3c.59.56,1.17,1.12,1.79,1.61h0c-1.21-.3-2.42-.63-3.61-1a5.93,5.93,0,0,0-.69-.29,127.38,127.38,0,0,1-18.87-8.8c-5.47-3.11-11.22-6.5-15.27-11.41A30,30,0,0,1,144.84,38.62Z"/>
          </g>
          <g>
            <g>
              <g>
                <path class="cls-9" d="M99.36,176.66a10.55,10.55,0,0,0,.27,1.8c.44,1.77,1.16,1.72,2.72,1.33,0,0,0,0,0,0a3.32,3.32,0,0,0,.25,1.37,2.82,2.82,0,0,0,1.89,1.67c.67.2,1.25-.35,1.9-.3a3.08,3.08,0,0,0,1.13,1.87c1.15.77,4.22.32,5.36-.24,3.41-1.7,6.18-5.3,7.62-9,.81-1.29,1.53-2.68,2.27-3.82,1.24-1.93,1.07-4.79.9-7-.09-1.27-.09-2.64-.3-3.94a5.92,5.92,0,0,0-3.07-5.52c-2.61-1.37-4.67-.79-6.78.38a30.25,30.25,0,0,0-8.67,4.44,11.91,11.91,0,0,0-4.64,7.26,5.05,5.05,0,0,0-1.54,1C97.21,169.38,95.67,177.14,99.36,176.66Z"/>
                <g>
                  <path class="cls-13" d="M103.73,168.92a15.26,15.26,0,0,0-4.11,7.6c0,.16,0,.33,0,.49a17,17,0,0,1,2.87-6.36c1.09-1.37,5.53-5.65,5.94-.89a5.64,5.64,0,0,0-.72.47c-3,2.21-4.77,6.4-5.55,9.91a.93.93,0,0,0,.08.22l0,0h0c.74-2.3,1.63-5.46,3.24-7.32a12.46,12.46,0,0,1,3-3c1.83-.94,2.88-.15,2.77,1.54a7.4,7.4,0,0,0-1.16,1.14,8,8,0,0,0-1.36,2.25,3.34,3.34,0,0,0-2.15,1.93c-.9,2.28.79,1.94,2.66,2.14a15.89,15.89,0,0,1,3.41,1,6.07,6.07,0,0,1-.91,3.17s0,0,0,0a4,4,0,0,0,1.06-3.13,3.58,3.58,0,0,0,4.05-.76,39.61,39.61,0,0,0,6.17-8.2,0,0,0,0,0,0,0,53.92,53.92,0,0,1-4.79,6.43c-1.81,2-3.08,3.06-6,2.13a12.37,12.37,0,0,0-2.52-.82c-.57-.06-1.18-.07-1.76-.13a1.29,1.29,0,0,1-.76,0,1,1,0,0,1-.59-1c-.17-.68.34-1.23,1-1.63a2.54,2.54,0,0,1,.63-.41l.3-.09.37-.15c1-.38,2.1-.5,3.11-.86a7.17,7.17,0,0,0,2.76-2c1.1-3-.18-6.59,1.7-9.47,0,0,0,0,0,0-1.93,2.7-1.21,6.08-2,9.08-.07.13-.14.24-.21.35a1.69,1.69,0,0,0-.15-.4,2.08,2.08,0,0,0-1.77-1,1.81,1.81,0,0,0-1,.41c.19-.9.35-1.55-.41-2.14s-1.66-.15-2.43.28c.12-2.79-2-3-4-1.5a7.33,7.33,0,0,0-.73.63c0-.64.17-1.53-.62-1.72a4.17,4.17,0,0,0-2,.07,6.31,6.31,0,0,1-.62.54,7.42,7.42,0,0,1,2.26-.37C103.75,167.45,103.63,168.21,103.73,168.92Zm8.1,2.84a1.28,1.28,0,0,1,1.57,0,1.15,1.15,0,0,1,.67,1c-1.19,1.57-3.38,1.58-5.14,2.17a9.46,9.46,0,0,1,1.67-2.16A6.21,6.21,0,0,1,111.83,171.76Z"/>
                  <path class="cls-13" d="M106.62,182.12a9.92,9.92,0,0,1,1-2.92c0-.08.16,0,.13.1a14,14,0,0,0-.72,2.28c-.24.84-.66,1.81-.15,2.67,0,0,0,0,0,0A2.77,2.77,0,0,1,106.62,182.12Z"/>
                </g>
              </g>
              <g>
                <path class="cls-9" d="M143,109.61c-5.67,2.74-11.72,15.12-13.12,17.33a223.8,223.8,0,0,0-11.16,20.18c-3.2,6.58-5,10.89-4.8,12.1l4.13,2.42c2.61,1.65.83,2,26.84-27L154.25,122C155.79,116,148.72,105.09,143,109.61Z"/>
                <path class="cls-9" d="M144.87,125l53.95-15.79c2.9-1.6,5.29-4.46,4.94-10.7,0,0-1.86-9.81-13.4-7.47L145.54,107.7C140.23,112.36,139.09,125.27,144.87,125Z"/>
              </g>
              <path class="cls-14" d="M128.09,153.88a37.55,37.55,0,0,1-3.41,4.5c-.73.5-7.51-3.29-8.86-6.47l2.9-5.16Z"/>
              <g>
                <path class="cls-15" d="M125.91,155.69c-2.09-.63-4.69-1.56-6.13-3.31a7.66,7.66,0,0,1-1.46-5.19c.12-.26.24-.51.37-.77a227.44,227.44,0,0,1,11.15-20.17c1.41-2.22,7.45-14.59,13.13-17.33,5.71-4.53,15.2,8.56,13.66,14.54l-9.27,10.37c-9.58,10.7-15.26,17.67-18.77,22.15A6.42,6.42,0,0,1,125.91,155.69Z"/>
                <path class="cls-15" d="M148.12,127.86l50.77-15.56c2.9-1.6,5.22-7.54,4.87-13.78,0,0-2.27-12.14-13.81-9.79l-44.41,19C140.23,112.36,142.35,128.12,148.12,127.86Z"/>
              </g>
            </g>
            <g>
              <path class="cls-14" d="M180.68,207.41s-2.68,4.33-5.09,5-31.15-2.72-38-27c0,0-.05-2.68.95-3.66a24.89,24.89,0,0,1,4-2.55Z"/>
              <path class="cls-16" d="M220.63,115.25c.72.24,7.22,31.52-7.53,74.76,0,0-4.81,11.7-9.57,13.77-5.84,2.53-35.93-4.54-51.18-18,0,0,.26-1.22,4-7.36S220.63,115.25,220.63,115.25Z"/>
              <g>
                <path class="cls-17" d="M216.58,139.36A90.63,90.63,0,0,1,206,135.81c-1.62-.68-3.19-1.43-4.74-2.23,10.83-10.33,19.33-18.33,19.33-18.33.39.13,2.5,9.62,1.89,25.28A33.21,33.21,0,0,1,216.58,139.36Z"/>
                <path class="cls-17" d="M206,136.7A75.55,75.55,0,0,0,219,140.84a30.48,30.48,0,0,0,3.53.56c-.07,1.54-.16,3.12-.29,4.76a65.55,65.55,0,0,1-22.81-4.39c-1.54-.57-3.09-1.22-4.63-1.93l5.89-5.64C202.4,135.11,204.19,136,206,136.7Z"/>
                <path class="cls-17" d="M199.62,150.21c6.69,1.95,14.56,4.19,21.84,3.51-.18,1.43-.37,2.88-.59,4.36-7.92,1.43-16.85-1.35-24.14-3.71a128.36,128.36,0,0,1-12.2-4.68l3.76-3.64A89.48,89.48,0,0,0,199.62,150.21Z"/>
                <path class="cls-17" d="M191.53,160.68c8.52,3,18.65,5.51,28.1,4.69-.36,1.86-.75,3.74-1.19,5.67a47.41,47.41,0,0,1-9-.54,136.33,136.33,0,0,1-16.87-3.45,93.58,93.58,0,0,1-18.59-7c1.54-1.52,3.15-3.09,4.79-4.68A137.71,137.71,0,0,0,191.53,160.68Z"/>
                <path class="cls-17" d="M168.54,165.36a75,75,0,0,0,18,8.33,104.38,104.38,0,0,0,17.76,3.71,40.57,40.57,0,0,0,12.54,0c-.46,1.73-.94,3.48-1.47,5.26a63.81,63.81,0,0,1-13,.21,97.77,97.77,0,0,1-19.35-4.18,106.9,106.9,0,0,1-19.34-8.52C165.2,168.71,166.81,167.09,168.54,165.36Z"/>
                <path class="cls-17" d="M158.73,175.49c7,4.17,15.09,6.86,22.63,9.07,6.1,1.79,12.37,3.75,18.67,4.7,4.45.68,9.17.85,13.46-.44-.14.4-.26.79-.39,1.19,0,0-1,2.32-2.43,5.07-4.65.86-9.68.24-14.18-.7a161.26,161.26,0,0,1-17.51-5c-7.51-2.49-16-5.71-22.71-10.82l.09-.14A23.94,23.94,0,0,1,158.73,175.49Z"/>
                <path class="cls-17" d="M179.34,195.65a113.87,113.87,0,0,0,20,5.4,45.63,45.63,0,0,0,6.84.74,8.36,8.36,0,0,1-2.61,2c-5.84,2.53-35.93-4.54-51.18-18a19.57,19.57,0,0,1,1.82-3.65A94.82,94.82,0,0,0,179.34,195.65Z"/>
              </g>
              <path class="cls-18" d="M162.89,159.21a86.47,86.47,0,0,0,9.62-25.32,301,301,0,0,1,8.33-30.21A38,38,0,0,1,183.2,100a36.88,36.88,0,0,1,10-12.52c4.4-3.3,9.52-1.3,16.17,3.48,0,0,5.22,1.86,9.12,8.29.54.89,2.71,5.08,3.33,6,2.37,10.61,3.84,13.86,2.35,25.18-1.79,13.72-8.23,28.17-15.51,39.8-5.17,8.25-10.69,16.3-16.3,24.26-2,2.88-4.06,5.75-6.21,8.54-.93,1.2-3.21,5.13-4.82,5.37-5.87.89-12.15-.36-17.82-1.92-8.67-2.37-14.32-6.85-18.85-14.56-1.9-3.23-4.78-7.52-4.4-11.45C140.94,173.85,160.1,164.06,162.89,159.21Z"/>
              <path class="cls-19" d="M200.34,113.46a285.8,285.8,0,0,1-16.47,41.27c-5.74,11.52-15.78,18.09-27.45,22.71a28.25,28.25,0,0,0-12.58,9q-.68.89-1.32,1.8c-1.35-2.47-2.49-5.18-2.24-7.74.66-6.68,19.82-16.47,22.61-21.32a86.47,86.47,0,0,0,9.62-25.32,301,301,0,0,1,8.33-30.21A38,38,0,0,1,183.2,100a36.88,36.88,0,0,1,10-12.52c2.49-1.86,5.2-2,8.3-1C202.52,95.58,203.11,104.66,200.34,113.46Z"/>
              <path class="cls-14" d="M193.72,189.17c6.8-9.21,13.59-18.63,18.58-29,7.22-15,12-32.77,10.72-49.77,1.62,6.93,2.39,10.79,1.17,20.07-1.79,13.72-8.23,28.17-15.51,39.8-5.17,8.25-10.69,16.3-16.3,24.26-2,2.88-4.06,5.75-6.21,8.54-.93,1.2-3.21,5.13-4.82,5.37a28.35,28.35,0,0,1-5.76.24C182.66,203.28,188.44,196.32,193.72,189.17Z"/>
              <g>
                <path class="cls-14" d="M221.84,105.31s-18.94-25-31-13.7-11.11,30.17-14.48,29.44-8.13-7.52-7.7-10-5.29,1.06-3.69-4.79,10.95-25.4,27.9-24.46S218.61,93.87,221.84,105.31Z"/>
                <path class="cls-20" d="M180.17,91.29a24.44,24.44,0,0,1,9-5.22,20.81,20.81,0,0,1,4.9-.93,47.45,47.45,0,0,1,4.9.45s0,0,0,0c-3.46-.12-6.28-.44-9.66.71a28.51,28.51,0,0,0-8.78,5.34c-5.2,4.23-8.84,10.61-11.16,16.82,0,.08-.15,0-.13,0A36.71,36.71,0,0,1,180.17,91.29Z"/>
              </g>
              <path class="cls-14" d="M187.07,171.64s-10.56,14.1-27.86,11.66v1.82S178.85,188.39,187.07,171.64Z"/>
            </g>
            <g>
              <g>
                <path class="cls-10" d="M281.81,116.49c-.12-1.48,1.67-2.79,2.7-3.9,1.72-3.3,3.9-6.44,5.61-9.72a26,26,0,0,1,8.53-9.69c3.3-2.21,6.14-1.28,9.64-.16,2.26.72,7.2,1.42,6.25,4.85a11.66,11.66,0,0,1,2.29.95c1.57.86,2.74,3.07,1.39,4.63l-.06,0c1.63.79,2.53,2.1,1.57,4.76a1.22,1.22,0,0,1,.31.43,4.33,4.33,0,0,1,.23,1.19c-.42,1.08-.76,2.23-1.13,3.32-.13.25-.27.49-.41.73a.35.35,0,0,0-.15.12c-.95,1.28-2.22,2.52-3.94,2.5-1.14,0-2.78,0-3.27-1.37-.1-.26-.68-.63-.87-.25-.41.84-.88,1.68-1.36,2.51a11.76,11.76,0,0,1-2.21,1.69c-4.19,2.43-8.12,3.93-13,3-.8-.14-1.59-.32-2.38-.52a5.87,5.87,0,0,0-3.95.32,3.53,3.53,0,0,1-3.23-1A7,7,0,0,1,281.81,116.49Z"/>
                <path class="cls-13" d="M310.32,105.4c1.73-.08,3.24.76,4.91,1.19s3.68.51,4.83,2c0,0,0,.05-.05,0-1.29-1.31-3.44-1.44-5.16-1.9-1.51-.41-3-1.26-4.52-1.31C310.31,105.42,310.3,105.4,310.32,105.4Z"/>
                <path class="cls-13" d="M309.34,100.59a7.66,7.66,0,0,1,2.11.85,27.56,27.56,0,0,0,3.22.93c1.49.38,3.53.75,4.64,1.92,0,0,0,0,0,0-1.19-1.14-3.53-1.52-5.09-1.91-.92-.23-1.89-.49-2.78-.81a21.34,21.34,0,0,0-2.09-.94S309.31,100.59,309.34,100.59Z"/>
                <path class="cls-13" d="M307.81,95.85c1.08,1.5,4,1.72,5.63,1.81a7.37,7.37,0,0,1,3.74,1.42,0,0,0,1,1,0,0c-1.88-1.11-3.9-1.15-6-1.61-1.21-.27-2.7-.49-3.39-1.65C307.79,95.85,307.8,95.84,307.81,95.85Z"/>
                <path class="cls-13" d="M304.6,93.86a2.2,2.2,0,0,1-.61-.48s0,0,0,0c.3.35.81.42,1.1.8a2.54,2.54,0,0,1,.28,1.72c0,.08-.1.05-.12,0C305.13,95.09,305.37,94.41,304.6,93.86Z"/>
                <path class="cls-13" d="M306.72,100.3s0,0,0,0c.21.38.56.65.45,1.13,0,.06-.09,0-.09,0A2.53,2.53,0,0,0,306.72,100.3Z"/>
                <path class="cls-13" d="M308.06,118c1.35-.8,1.95-2.35,2.82-3.61a1.78,1.78,0,0,1,.1-.36c0-.08.12,0,.15,0a2.55,2.55,0,0,1,.92-1.05,3.77,3.77,0,0,1,1.62-.55,4.23,4.23,0,0,0,1.55-.29s0,0,0,0c-.33.32-1.08.32-1.49.44a3.47,3.47,0,0,0-2.58,2.17c.44,2.26,5,2.1,6.06.85a17.36,17.36,0,0,0,1.95-2.88h0c-1.11,2.09-1.87,3.89-4.52,4-1.28.06-3.76-.52-3.81-2-.22.36-.42.74-.62,1.06a4.58,4.58,0,0,1-2.13,2.31C308.06,118.07,308,118,308.06,118Z"/>
              </g>
              <path class="cls-21" d="M239.14,144.75l-38.88-24c-15.22-13.15-8.12-21.39-8.12-21.39s6.64-6,15.34-2.84c9.17,3.33,37.49,29.37,37.49,29.37C239.67,132,238.25,137.77,239.14,144.75Z"/>
              <g>
                <path class="cls-14" d="M279.64,113.31a38,38,0,0,1,5-2.6c.87-.14,4.71,8.65,4.56,12.1l-5.73,2.2Z"/>
                <path class="cls-21" d="M236.82,127.89s1.56-3.22,4.17-2.57c0,0,24.51-10.18,39.66-13.41,0,0,3.08,2.33,5,12.72,0,0-36.64,23.11-46.49,20.12C231.65,142.48,234,130.28,236.82,127.89Z"/>
              </g>
            </g>
          </g>
        </g>
      </g>
    </g>
  </g>
</svg>
