<svg xmlns="http://www.w3.org/2000/svg" width="329.08" height="381.46" viewBox="0 0 329.08 381.46">
  <defs>
    <style>
      .cls-1 {
        isolation: isolate;
      }

      .cls-2 {
        fill: #e7c19c;
      }

      .cls-3 {
        fill: #f1d2b3;
      }

      .cls-4 {
        fill: #ddb996;
      }

      .cls-5 {
        fill: #f39200;
      }

      .cls-6 {
        fill: #884700;
      }

      .cls-7 {
        fill: #066d9d;
      }

      .cls-8, .cls-9 {
        fill: #034b98;
      }

      .cls-19, .cls-9 {
        opacity: 0.4;
        mix-blend-mode: multiply;
      }

      .cls-10 {
        fill: #2d2e83;
      }

      .cls-11 {
        fill: #1894a2;
      }

      .cls-12 {
        fill: #bdbaa9;
      }

      .cls-13 {
        fill: #fff9de;
      }

      .cls-14 {
        fill: #2e1f09;
      }

      .cls-15 {
        fill: #1d1407;
      }

      .cls-16 {
        fill: #50391f;
      }

      .cls-17 {
        fill: #362714;
      }

      .cls-18, .cls-19 {
        fill: #272726;
      }

      .cls-20 {
        fill: #c3a479;
      }

      .cls-21 {
        fill: #3a5472;
      }

      .cls-22 {
        fill: #8229fd;
      }

      .cls-23 {
        fill: #3172b1;
      }

      .cls-24 {
        fill: #722af9;
      }

      .cls-25 {
        fill: #c80092;
      }

      .cls-26 {
        fill: #bd0094;
      }

      .cls-27 {
        fill: #f104ff;
      }

      .cls-28 {
        fill: #a3195b;
      }

      .cls-29 {
        fill: #852afe;
      }
    </style>
  </defs>
  <title>boy2</title>
  <g class="cls-1">
    <g id="Layer_2" data-name="Layer 2">
      <g id="Layer_1-2" data-name="Layer 1">
        <g>
          <g>
            <g>
              <path class="cls-2" d="M208.74,79.13l-.09,6.21-11.2,4.33s.06-2,.16-4.43c.12-3.07-3.23-3.7-13.41-8.2-21.11-9.34-23.83-14.5-27.23-24-10.3-28.74,12.82-48.59,44.39-46.95,27.57,1.44,14.25,35.37,12.55,46.13Z"/>
              <path class="cls-2" d="M193.12,102.73s5.57-33.85,11.12-33.12c0,0,20.7,11.08,22.79,16.38.1.24.61,0,.34,1.68-1.87.3-7.27-2-8.35.5s-6.58,19.71-8,24.56C203.9,109.81,192.19,105.4,193.12,102.73Z"/>
            </g>
            <g>
              <g>
                <g>
                  <path class="cls-3" d="M200.45,6.17s9.49,1.12,10.39,1.32a34.06,34.06,0,0,1,9.52,3.73c6,3.48,11.07,8.81,13.38,15.4a33.71,33.71,0,0,1,2,9c.17,3-.69,6-.68,9,0,2.77,1.81,5.15,3.94,7.16l.55.56c1.09,1.1,2.35,2,3.48,3.06s2.48,2.41,1.94,4a4.31,4.31,0,0,1-.22.49,7.84,7.84,0,0,1-2,1.53c-.77.42-2.64,1.14-2.56,2.22a4.76,4.76,0,0,0,.65,1.73c.38.67,1.19,2.13,1.07,3-.2,1.58-3.41,2.37-4.78,2.37-.1.08,3.46,0,3.5,1.48.07,2.09-1.46,1.11-1.46,4.32,0,.27.72,2.59,1,4.74.25,1.8-.95,4.29-2.19,5.52-1.74,1.72-4.51,1.83-7.16,1.56-7.42-.79-14.7-5.08-20-10.17-3.52-3.38-5.51-7.64-7.15-12.09-.4-1.51-.81-3.05-1.26-4.57-1-3.2-1.89-6.39-2.82-9.59C202.77,37,202.24,21.35,200.45,6.17Z"/>
                  <g>
                    <path class="cls-4" d="M237.11,70.79a9.39,9.39,0,0,1,2.92.65,16.07,16.07,0,0,0-3.65-.73l-.59-.1a14.17,14.17,0,0,0,6.1-2.42.88.88,0,0,1,0,.23C241.69,70,238.48,70.79,237.11,70.79Z"/>
                    <path class="cls-4" d="M244.93,58a2.28,2.28,0,0,1,0,1.46,4.31,4.31,0,0,1-.22.49,7.84,7.84,0,0,1-2,1.53c-.74.41-2.52,1.1-2.54,2.13a15.17,15.17,0,0,1-3.29-2.42C239.8,60.86,243,60.17,244.93,58Z"/>
                  </g>
                </g>
                <path class="cls-5" d="M151.84,42.54A44.72,44.72,0,0,1,154.62,27a19.53,19.53,0,0,1,4-5.91,8.78,8.78,0,0,1,3.53-1.78c0-.16.1-.3.15-.43,3.63-8.68,13.18-11.72,21.61-13.79a54.41,54.41,0,0,1,22.65-.84,28.6,28.6,0,0,1,3.48.88q-.06,4.52-.11,9c0,6.43,0,12.82-.5,19.25-.37,4.82-.86,9.62-1.25,14.44,0,.31-.07.66-.11,1a6.46,6.46,0,0,1-.79-1.65h0a13.49,13.49,0,0,1,0,4.57c-.09.41-.56.42-.81.12a33.24,33.24,0,0,1,1.12,4.42c.61,3.24,1,7.29-.45,10.37a.58.58,0,0,1-1-.13c-.68-1.84-1.4-3.67-2.14-5.5a35,35,0,0,0-3-5.6c.52,3.11.94,6.24,1.45,9.35.61,3.82,2.16,7.19,3.17,10.87.1.37-.29.47-.58.35a12.1,12.1,0,0,1,1.11,2.55,4,4,0,0,1-2.34-.62c-.51-.5-1-1.08-1.4-1.5-.24-.23-.48-.49-.73-.75a15.16,15.16,0,0,1,.88,4.47,10.32,10.32,0,0,1-1.16,2.47.88.88,0,0,1-.12-.2,32.64,32.64,0,0,0-1.16-3.31,16.11,16.11,0,0,1,.56,2.71c.07.58-.56.78-1,.44l-.77-.62a12.39,12.39,0,0,1,2.28,3.86s0,0,0,0a9.71,9.71,0,0,0-1.54-.54,19,19,0,0,0-4.24-3c.59.56,1.18,1.11,1.8,1.6,0,0,0,0,0,0-1.21-.3-2.42-.61-3.62-1-.22-.1-.45-.2-.69-.29a125.36,125.36,0,0,1-19-8.6c-5.5-3.06-11.28-6.39-15.39-11.25A30.1,30.1,0,0,1,151.84,42.54Z"/>
                <g>
                  <path class="cls-3" d="M195.39,53.17a5.17,5.17,0,0,1,2.2-.87,6.19,6.19,0,0,1,4.35,1.15c3.15,2.24,5,7.72,5.58,11.68.26,1.93.62,4.6-.38,6.25-1.66,2.74-5.38-1.38-7.31-2.77-3.88-2.78-5.44-3.17-6.5-6.85C191.92,56.82,193.73,54.35,195.39,53.17Z"/>
                  <path class="cls-2" d="M198.48,63.63a6.08,6.08,0,0,0,5.59,3.72c1-.06,1.77-.43,1.39-1.59a3.53,3.53,0,0,0-1.08-1.37c-.69-.51-.89-2-1-2.73-.22-2-.35-4.73-3.18-4.58-2.63.14-2.86,2.62-2.37,4.74A8.34,8.34,0,0,0,198.48,63.63Z"/>
                </g>
              </g>
              <g>
                <path class="cls-6" d="M147.21,34.77c1.11-4.94,3.41-9.38,5.62-14a28.75,28.75,0,0,1,8.84-10.45A21.66,21.66,0,0,1,164,8.9c.46-.34.93-.67,1.43-1a55.27,55.27,0,0,1,9.24-4.6A43.57,43.57,0,0,1,195.83.25a50.19,50.19,0,0,1,16.49,4.62,13.86,13.86,0,0,1,4.21,2.19A46.83,46.83,0,0,1,222,10.18a15.76,15.76,0,0,1,1.32,1.4c2,2.43,4.8,3.86,6.84,6.24,2.38,2.77,5,6.11,5.9,9.65a7.48,7.48,0,0,1-.32,4.67c-.48.63-.95,1.2-1.34,1.71a19.6,19.6,0,0,1-1.84,2c-1.51,2-3.44,3.41-5.15,5.27-.92,1-2.11,1.77-3.05,2.76q-1.87,2-3.8,3.9c-4.16,4.18-8.81,7.9-13.09,12-2.17,2.07-4.11,4.35-6.27,6.44a65.36,65.36,0,0,0-6.61,7c-1.64,2.26-2.93,4.75-4.71,6.92-.91,1.13-2.14,3-3.92,3-2.79-.1-5.73-1.84-8.25-2.83-3.35-1.3-6-3.21-6.13-6.21-1-.53-2-1.12-3-1.72a10.21,10.21,0,0,1-8,.53c-2.06-.73-3.32-2.25-4.69-3.76a40.22,40.22,0,0,1-4.57-5.72,34.28,34.28,0,0,1-4.8-13.89A42.67,42.67,0,0,1,147.21,34.77Z"/>
                <path class="cls-7" d="M176.72,55.45c3.58-7.1,8.57-13.45,13-20.12a129.78,129.78,0,0,0,10.73-19.52c2-4.52,3.5-9.27,3.37-14.08a48,48,0,0,1,5.13,1.67c.14,6.45-3.07,12.87-6.08,18.54a97.55,97.55,0,0,1-13.56,18.74c-4.67,5.29-8.83,10.56-12,16.66A70.92,70.92,0,0,0,172.53,66,65.12,65.12,0,0,1,176.72,55.45Z"/>
                <path class="cls-7" d="M170.48,54.71c1.44-6.93,4.32-13.44,7-20,4.49-11,10.29-22.61,10.12-34.53a41.64,41.64,0,0,1,8,.06c.4,4.2-2,10.79-2.6,12.44-2.74,6.93-6.8,13.32-10.13,20-5.9,11.85-10.71,24.16-12.24,37.14-.17.71-.32,1.42-.46,2.14A52.8,52.8,0,0,1,170.48,54.71Z"/>
                <path class="cls-7" d="M167.37,65.84c-.15-.47-.29-.94-.43-1.4-.83-2.66-1.87-5.25-2.61-7.94A126.38,126.38,0,0,1,160.86,39a78,78,0,0,1-.72-17.34,55.74,55.74,0,0,1,3.11-12.28c.25-.15.51-.31.78-.45.46-.34.93-.67,1.43-1a55.27,55.27,0,0,1,9.24-4.6c.68-.27,1.37-.53,2.06-.77-1,2-2.17,4-3.08,6.07a64.27,64.27,0,0,0-3.33,9.45,139.46,139.46,0,0,0-3.63,20.53C165.76,47.53,165.45,56.94,167.37,65.84Z"/>
                <path class="cls-7" d="M151.8,57a72.59,72.59,0,0,1-5.15-11.8c-.15-.47-.3-.95-.44-1.43a41.42,41.42,0,0,1,1-9,34.2,34.2,0,0,1,1.44-4.71,73.86,73.86,0,0,0,6,22.21c3,7,6.89,15.52,13.68,20.23-.39.17-.78.32-1.18.45C160.09,70.12,155.12,63.11,151.8,57Z"/>
                <path class="cls-7" d="M176.55,60.69a109,109,0,0,1,15.7-20.49c9.68-10,21.47-19.55,24.44-33.06A46.12,46.12,0,0,1,222,10.21c.3.29.59.58.87.89-1.09,6.2-6.7,11.82-11.27,16C204.74,33.43,197.41,39.3,190.9,46a103.73,103.73,0,0,0-15.74,20.31,67,67,0,0,0-3.88,7.61l-.52-.3A59,59,0,0,1,176.55,60.69Z"/>
                <path class="cls-8" d="M190.29,59.94c6.7-6.22,14.47-11.28,21.28-17.36,5.86-5.24,11.54-11.28,15-18.19A23.58,23.58,0,0,0,229,16.61a15,15,0,0,1,1.18,1.21c2.38,2.77,5,6.11,5.9,9.65a7.48,7.48,0,0,1-.32,4.67c-.48.63-.95,1.2-1.34,1.71a19.6,19.6,0,0,1-1.84,2c-1.51,2-3.44,3.41-5.15,5.27-.92,1-2.11,1.77-3.05,2.76q-1.87,2-3.8,3.9c-4.16,4.18-8.81,7.9-13.09,12-2.17,2.07-4.11,4.35-6.27,6.44a65.36,65.36,0,0,0-6.61,7c-1.64,2.26-2.93,4.75-4.71,6.92-.91,1.13-2.14,3-3.92,3-2.79-.1-5.73-1.84-8.25-2.83a19.33,19.33,0,0,1-2.1-1C179,72,184.2,65.6,190.29,59.94Z"/>
                <path class="cls-7" d="M178.8,65C183.86,58.2,190,52.37,196.11,46.5c7.49-7.15,15.49-13.83,22.73-21.2,3.36-3.42,6.07-7.15,7.09-11.24a31.51,31.51,0,0,1,4.25,3.76c2.38,2.77,5,6.11,5.9,9.65a7.48,7.48,0,0,1-.32,4.67c-.48.63-.95,1.2-1.34,1.71a19.6,19.6,0,0,1-1.84,2c-1.51,2-3.44,3.41-5.15,5.27-.92,1-2.11,1.77-3.05,2.76q-1.87,2-3.8,3.9c-4.16,4.18-8.81,7.9-13.09,12-2.17,2.07-4.11,4.35-6.27,6.44a65.36,65.36,0,0,0-6.61,7c-1.64,2.26-2.93,4.75-4.71,6.92-.91,1.13-2.14,3-3.92,3-2.79-.1-5.73-1.84-8.25-2.83S173,78,172.09,76A66.34,66.34,0,0,1,178.8,65Z"/>
                <path class="cls-9" d="M147.21,34.77c1.11-4.94,3.41-9.38,5.62-14a28.75,28.75,0,0,1,8.84-10.45A21.66,21.66,0,0,1,164,8.9c.46-.34.93-.67,1.43-1a55.27,55.27,0,0,1,9.24-4.6A43.89,43.89,0,0,1,193.89.1a22.52,22.52,0,0,0-2.44.39c-18.8,4.25-26.33,25.51-27,41.42-.15,3.5-.82,15,5.62,14.65,4.16-.22,7.16-4.49,9.58-7.2a82.38,82.38,0,0,1,11.45-10.84c-3.42,3.95-7.29,7.57-10.41,11.75S173.8,60,176.13,65.06a.49.49,0,0,0,.68.23c4.64-3.17,7.07-8,11-11.8,4.65-4.46,9.73-8.47,14.74-12.56a114.39,114.39,0,0,0,13.16-12c3.39-3.82,6.44-7.87,9.47-11.94a10.92,10.92,0,0,1-.57,2.95,24.22,24.22,0,0,1-3.2,5.66,75.38,75.38,0,0,1-8.68,9.56C207.64,40,202.7,45,197.82,50c-2.3,2.37-4.46,4.93-7,7.12-1.7,1.49-3.45,2.93-5,4.56-2.7,2.8-3.93,5.89-1,8.87s7.48.3,9.87-2c10.6-10.08,21.43-20,32.38-29.8,2.68-2.38,6.55-5.68,9.2-9.35a7.59,7.59,0,0,1-.54,2.69c-.48.62-.95,1.2-1.34,1.71a19.6,19.6,0,0,1-1.84,2c-1.51,2-3.44,3.41-5.15,5.27-.92,1-2.11,1.77-3.05,2.76q-1.87,2-3.8,3.9c-4.16,4.18-8.81,7.9-13.09,12-2.17,2.07-4.11,4.35-6.27,6.44a65.36,65.36,0,0,0-6.61,7c-1.64,2.26-2.93,4.75-4.71,6.92-.91,1.13-2.14,3-3.92,3-2.79-.1-5.73-1.84-8.25-2.83-3.35-1.3-6-3.21-6.13-6.21-1-.53-2-1.12-3-1.72a10.21,10.21,0,0,1-8,.53c-2.06-.73-3.32-2.25-4.69-3.76a40.22,40.22,0,0,1-4.57-5.72,34.28,34.28,0,0,1-4.8-13.89A42.67,42.67,0,0,1,147.21,34.77Z"/>
              </g>
            </g>
          </g>
          <g>
            <g>
              <g>
                <path class="cls-10" d="M275.73,378.1a14.86,14.86,0,0,1-.93-3.22c-.09-.42-.21-.84-.34-1.26a4.53,4.53,0,0,1-.41-1.07c-.33-1.42-.75-2.83-1.05-4.26a12.47,12.47,0,0,1-.19-3.22,4.07,4.07,0,0,1,.28-.55,13.47,13.47,0,0,1,1.37-1.23c.39-.28.79-.54,1.19-.79,1.13-.43,2.26-.85,3.42-1.22a87.23,87.23,0,0,1,8.75-2.15c1.48-.3,3-.5,4.55-.84.45.09.89.19,1.32.31a9.65,9.65,0,0,0,4.62.74,80.58,80.58,0,0,0,10.5-1.22c3.41-.57,6.38-2.06,9.61-3.2,2.56-.9,6.15-1.18,8.7,0a3.16,3.16,0,0,1,1.95,3.32c-.57,2.69-2.5,5.17-4.48,7.13a75.22,75.22,0,0,1-8.83,7.08,45.66,45.66,0,0,1-8.6,5.26c-4.75,2-9.64,2.38-14.71,2.91q-6.21.65-12.4.88l-.43,0C277.5,381.2,276.58,379.86,275.73,378.1Z"/>
                <path class="cls-11" d="M306.27,370c2.57-3.72,7.67-4.41,11-7.3,1.87-1.63,5.19-4.38,4.83-7.24a2.58,2.58,0,0,0-.45-1.21,11,11,0,0,1,5.51.66,3.16,3.16,0,0,1,1.95,3.32c-.57,2.69-2.5,5.17-4.48,7.13a75.22,75.22,0,0,1-8.83,7.08,45.66,45.66,0,0,1-8.6,5.26c-.5.21-1,.4-1.51.58C304.92,375.42,304.64,372.33,306.27,370Z"/>
                <path class="cls-11" d="M273,368.29a12.47,12.47,0,0,1-.19-3.22,4.07,4.07,0,0,1,.28-.55,13.47,13.47,0,0,1,1.37-1.23c.39-.28.79-.54,1.19-.79,1.13-.43,2.26-.85,3.42-1.22a87.23,87.23,0,0,1,8.75-2.15c1.48-.29,3-.5,4.55-.84h0a15.15,15.15,0,0,1-4.71,7.56c-3.74,2.93-9.36,4-14.39,3.64C273.2,369.1,273.09,368.69,273,368.29Z"/>
                <path class="cls-11" d="M275.73,378.1a14.86,14.86,0,0,1-.93-3.22c-.09-.42-.21-.84-.34-1.26a4.53,4.53,0,0,1-.41-1.07c-.06-.26-.13-.51-.19-.77l.51-.06c2.41-.13,4.28-.09,6.43,1.07,2.78,1.5,7.71,4.45,9.1,8-3.29.3-6.57.53-9.85.66l-.43,0C277.5,381.2,276.58,379.86,275.73,378.1Z"/>
                <path class="cls-12" d="M275.69,378a14.14,14.14,0,0,0,4.22.85,55.18,55.18,0,0,0,9.27-.07c6.47-.66,13.59-1,19.5-4,6.23-3.11,11.52-8.13,15.9-13.46,1.16-1.41,3.06-3.44,2.91-5.44a3,3,0,0,0-.2-.91,3.17,3.17,0,0,1,1.78,3.23c-.57,2.69-2.5,5.17-4.48,7.13a75.22,75.22,0,0,1-8.83,7.08,45.66,45.66,0,0,1-8.6,5.26c-4.75,2-9.64,2.38-14.71,2.91q-6.21.65-12.4.88l-.43,0c-2.12-.23-3-1.57-3.89-3.33A.42.42,0,0,1,275.69,378Z"/>
                <path class="cls-13" d="M291.86,366c-.92-1.39-.43-3.7.17-5.15,0-.09.12-.24.21-.41.35-.85.86-1.95,1.69-1.95.15,0,.33.14.31.29l.05,0s0,0,0,0h0l-.06,0a0,0,0,0,1,0,0l0,0a.29.29,0,0,1-.13.05,1,1,0,0,0-.31.39c-.11.2-.22.39-.32.59a8.19,8.19,0,0,0-.72,1.83,15.94,15.94,0,0,0-.32,1.75,11.78,11.78,0,0,1,2.73-3.2c.35-.31,1.46-1.34,1.94-1.12a.59.59,0,0,1,.29.27.13.13,0,0,1,.06.05,4.05,4.05,0,0,1,.44.62c.16.2.3.42.42.6a6.22,6.22,0,0,1,.59,1.22,19.63,19.63,0,0,1,2.5-2.88,1.93,1.93,0,0,1,.28-.35c0-.12.08-.21.21-.23a.25.25,0,0,1,.23,0,.4.4,0,0,1,.22,0,.6.6,0,0,1,.62.31,5.43,5.43,0,0,1,1.65,1.38,17.29,17.29,0,0,1,1.48,1.82c0-.47,0-.94,0-1.37a5.63,5.63,0,0,1,.23-1.29c.08-.84.37-1.46,1.12-1.13a.32.32,0,0,1,.2.34c-.06.67-.3,1.28-.34,2-.06,1-.21,1.93-.24,2.92a.32.32,0,0,1-.28.32.75.75,0,0,1-.88.28c-1.12-.87-1.79-2.5-2.91-3.38l0-.07c-.18-.21-.36-.43-.52-.65-.76,1.2-1.46,2.45-2.1,3.72l-.13.22c-.1.73-.5,1.73-1.34,1.08a2.69,2.69,0,0,1-.7-1.48c-.19-.63-.37-1.24-.58-1.86l-.11-.2-.43-.87c-1.49,1.76-2.7,3.62-4.06,5.48h0a.58.58,0,0,1-.63.15A.36.36,0,0,1,291.86,366Z"/>
                <path class="cls-13" d="M315.26,370.66a81.86,81.86,0,0,0,7-6.72,35.66,35.66,0,0,0,3.37-4c1-1.46,2.14-2.74,1.73-4.65,0,0,0,0,0,0,.78,2.88-2.12,5.59-3.83,7.57a69.14,69.14,0,0,1-8.23,7.82S315.24,370.68,315.26,370.66Z"/>
              </g>
              <path class="cls-2" d="M245.93,269a25.35,25.35,0,0,1,6.21,8c2.66,5.27,36.71,84,36.71,84s-1.93,5.17-13.16,5.17c0,0-17-28.3-33.53-48.58-10.81-13.26-15-32-15-32S231.37,268.71,245.93,269Z"/>
              <path class="cls-14" d="M223.64,288.28C202.33,269,149,236.06,145.57,217.72l56.19-17.81c-1.56,8.25-2.5,12.47-1.53,14.26,3.19,5.85,38.31,28.55,50.77,58.13C253,274.1,233.41,293.5,223.64,288.28Z"/>
              <path class="cls-15" d="M247,262.84a50.22,50.22,0,0,1-29.78,21.09l7.53,7.38s16.48-.77,27.3-18.61Z"/>
            </g>
            <g>
              <g>
                <path class="cls-10" d="M11.4,282.25a14.89,14.89,0,0,1,3.33.35c.43.07.87.12,1.3.16a4.41,4.41,0,0,1,1.15,0c1.44.23,2.9.37,4.34.63a12.4,12.4,0,0,1,3.06,1,4.4,4.4,0,0,1,.4.46,13.24,13.24,0,0,1,.63,1.73c.11.47.21.94.28,1.41,0,1.21-.06,2.41-.15,3.62a86.33,86.33,0,0,1-1.3,8.92c-.27,1.48-.67,3-.93,4.54a11.59,11.59,0,0,1-.78,1.1,9.7,9.7,0,0,0-2.42,4,83.66,83.66,0,0,0-2.81,10.2c-.75,3.37-.48,6.68-.64,10.11-.13,2.71-1.21,6.13-3.22,8.07a3.16,3.16,0,0,1-3.81.57c-2.28-1.55-3.86-4.26-4.93-6.84a75.14,75.14,0,0,1-3.25-10.84A45.27,45.27,0,0,1,0,311.55c-.11-5.17,1.4-9.83,2.82-14.73,1.15-4,2.44-7.93,3.84-11.82.06-.13.12-.26.19-.39C7.86,282.73,9.45,282.38,11.4,282.25Z"/>
                <path class="cls-11" d="M7.48,313.62c2.48,3.77,1.2,8.76,2.64,12.9.82,2.34,2.12,6.45,4.91,7.18a2.5,2.5,0,0,0,1.29.05,11.12,11.12,0,0,1-2.68,4.85,3.16,3.16,0,0,1-3.81.57c-2.28-1.55-3.86-4.26-4.93-6.84a75.14,75.14,0,0,1-3.25-10.84A45.27,45.27,0,0,1,0,311.55c0-.55,0-1.08,0-1.62C2.93,310.32,5.9,311.22,7.48,313.62Z"/>
                <path class="cls-11" d="M21.52,283.41a12.4,12.4,0,0,1,3.06,1,4.4,4.4,0,0,1,.4.46,13.24,13.24,0,0,1,.63,1.73c.11.47.21.94.28,1.41,0,1.21-.06,2.41-.15,3.62a86.33,86.33,0,0,1-1.3,8.92c-.27,1.48-.66,3-.93,4.54h0c-2.46-2-5.8-4.54-6.57-7.22-1.31-4.56,1.15-10.14,3.36-14.68C20.7,283.29,21.11,283.34,21.52,283.41Z"/>
                <path class="cls-11" d="M11.4,282.25a14.89,14.89,0,0,1,3.33.35c.43.07.87.12,1.3.16a4.41,4.41,0,0,1,1.15,0c.26.05.52.08.78.11a4.12,4.12,0,0,1-.14.5,11.06,11.06,0,0,1-3.4,5.56c-2.43,2-7,5.47-10.84,5.43,1-3.16,2-6.29,3.09-9.38.06-.13.12-.26.19-.39C7.86,282.73,9.45,282.38,11.4,282.25Z"/>
                <path class="cls-12" d="M11.51,282.25a14.86,14.86,0,0,0-2.37,3.6,54.6,54.6,0,0,0-3.41,8.62c-1.83,6.24-4.14,13-3.62,19.57.55,6.94,3.21,13.73,6.5,19.79.88,1.6,2.05,4.13,4,4.74a3.49,3.49,0,0,0,.92.16,3.15,3.15,0,0,1-3.65.44c-2.28-1.55-3.86-4.26-4.93-6.84a75.14,75.14,0,0,1-3.25-10.84A45.27,45.27,0,0,1,0,311.55c-.11-5.17,1.4-9.83,2.82-14.73,1.15-4,2.44-7.93,3.84-11.82.06-.13.12-.26.19-.39,1-1.88,2.59-2.23,4.54-2.36Z"/>
                <path class="cls-13" d="M16.6,301.76c1.63-.33,3.59,1,4.7,2.1a2.85,2.85,0,0,1,.31.34c.65.65,1.49,1.54,1.18,2.3-.06.14-.26.26-.39.17a.1.1,0,0,1,0,.05s0,0,0,0,0,0,0,0,0,0,0,0v-.06s0,0,0,0a0,0,0,0,0,0,0,.22.22,0,0,1,0-.14,1.07,1.07,0,0,0-.25-.44c-.14-.17-.28-.35-.43-.52a8,8,0,0,0-1.43-1.35,14.76,14.76,0,0,0-1.5-1,11.76,11.76,0,0,1,1.95,3.73c.15.44.69,1.85.31,2.22a.57.57,0,0,1-.36.16.18.18,0,0,1-.07.05,3.43,3.43,0,0,1-.75.16,4.86,4.86,0,0,1-.71.17,6.17,6.17,0,0,1-1.35.09,19.64,19.64,0,0,1,1.74,3.4,3.48,3.48,0,0,1,.22.39c.12,0,.15.15.13.28a.23.23,0,0,1-.05.23.42.42,0,0,1-.06.21.62.62,0,0,1-.53.46,5.51,5.51,0,0,1-1.89,1,16.09,16.09,0,0,1-2.24.69c.44.15.87.33,1.26.5a6.18,6.18,0,0,1,1.12.7c.74.39,1.21.89.62,1.46a.32.32,0,0,1-.39.06c-.6-.3-1.07-.75-1.69-1.05-.88-.42-1.71-.92-2.61-1.32a.31.31,0,0,1-.19-.38.74.74,0,0,1,.06-.92c1.23-.71,3-.72,4.23-1.43h.08c.27-.08.53-.17.8-.24-.83-1.15-1.73-2.27-2.66-3.34l-.16-.21c-.64-.36-1.41-1.1-.49-1.64a2.74,2.74,0,0,1,1.63-.09c.66.06,1.29.12,1.94.15h.23l1-.08c-1.08-2-2.35-3.87-3.56-5.83h0a.54.54,0,0,1,.1-.63A.35.35,0,0,1,16.6,301.76Z"/>
                <path class="cls-13" d="M3.46,321.68a80.3,80.3,0,0,0,3.61,9,35.7,35.7,0,0,0,2.44,4.62c1,1.46,1.74,3,3.66,3.36a0,0,0,0,1,0,0c-3-.37-4.4-4.07-5.59-6.4A70,70,0,0,1,3.43,321.7S3.45,321.66,3.46,321.68Z"/>
              </g>
              <path class="cls-3" d="M125.73,293.8l-2.36,4.88s.57.05-4.84.66-95.67,1.24-95.67,1.24-6.54-4.88-.7-14.88c0,0,41.13-9.57,55-11.89s31.75,3.58,31.75,3.58S123.16,281.68,125.73,293.8Z"/>
              <path class="cls-16" d="M103.44,274.92c7.74-16.76,34.13-58.09,47-79.88l52.9,3.29-2.33,13c-5.79,12.88-44.84,64.57-72.74,83.74C128.28,295.07,109.9,291.55,103.44,274.92Z"/>
              <path class="cls-14" d="M137.17,289.55a55.82,55.82,0,0,1-30.11-22.75l-4.75,8.81a39.29,39.29,0,0,0,27.08,21.83Z"/>
              <g>
                <path class="cls-17" d="M162.12,252.27S149,270,144,273.27c0,0-9.75-.5-15.13-2.87s-9.12-10.13-9.5-10.63,12.4-24.31,12.4-24.31Z"/>
                <path class="cls-14" d="M163.15,251s-11.37-13.69-30.42-17l-1.5,4.31,12.61,10.63L159,254.65Z"/>
              </g>
            </g>
          </g>
          <g>
            <g>
              <path class="cls-18" d="M223.43,113.52s8,55.28-12.87,93.12c0,0-2.18,5.47-5.27,5.18s-32-2.53-44.16-19.28Z"/>
              <path class="cls-19" d="M223.43,113.52a209.44,209.44,0,0,1,.85,42.11c-3.68,11.88-8.41,23.46-15.13,33.93a93.59,93.59,0,0,1-17.38,20.14c-10.13-2.33-23.36-7.16-30.64-17.16Z"/>
            </g>
            <g>
              <g>
                <path class="cls-2" d="M101.3,184.41a10.55,10.55,0,0,0,.27,1.8c.44,1.77,1.16,1.71,2.73,1.32h0a3.32,3.32,0,0,0,.25,1.37,2.82,2.82,0,0,0,1.89,1.67c.67.2,1.25-.35,1.9-.3a3.12,3.12,0,0,0,1.12,1.87c1.16.77,4.23.32,5.37-.25,3.41-1.69,6.18-5.29,7.62-9,.81-1.29,1.53-2.68,2.27-3.82,1.24-1.93,1.07-4.79.9-7-.09-1.26-.09-2.63-.3-3.93a5.92,5.92,0,0,0-3.07-5.52c-2.61-1.37-4.67-.79-6.78.38a30.34,30.34,0,0,0-8.67,4.43,12,12,0,0,0-4.64,7.27,5.26,5.26,0,0,0-1.54,1C99.15,177.13,97.61,184.89,101.3,184.41Z"/>
                <g>
                  <path class="cls-20" d="M105.67,176.66a15.33,15.33,0,0,0-4.11,7.61c0,.16,0,.32,0,.49a17,17,0,0,1,2.87-6.36c1.09-1.37,5.53-5.65,5.94-.89a5.64,5.64,0,0,0-.72.47c-3,2.2-4.77,6.4-5.55,9.91a.93.93,0,0,0,.08.22l0,0h0c.74-2.3,1.63-5.46,3.24-7.32a12.5,12.5,0,0,1,3-3c1.83-.94,2.88-.14,2.76,1.55a8.25,8.25,0,0,0-1.15,1.13,8.15,8.15,0,0,0-1.36,2.26,3.34,3.34,0,0,0-2.15,1.93c-.9,2.27.79,1.94,2.66,2.14a15.09,15.09,0,0,1,3.4,1,6,6,0,0,1-.9,3.17s0,0,0,0a4,4,0,0,0,1.06-3.13,3.58,3.58,0,0,0,4-.76A39.67,39.67,0,0,0,125,179h0a54.74,54.74,0,0,1-4.79,6.43c-1.81,2-3.08,3-6,2.13a12.06,12.06,0,0,0-2.53-.82c-.57-.06-1.18-.08-1.76-.13a1.29,1.29,0,0,1-.76,0,1,1,0,0,1-.59-1c-.17-.68.34-1.23,1-1.63a2.54,2.54,0,0,1,.63-.41l.3-.09.38-.15c1-.38,2.09-.5,3.1-.86a7.17,7.17,0,0,0,2.76-2c1.1-3-.18-6.59,1.7-9.47,0,0,0,0,0,0-1.93,2.7-1.21,6.07-2,9.08a3,3,0,0,1-.21.35,1.69,1.69,0,0,0-.15-.4,2.07,2.07,0,0,0-1.77-1,1.81,1.81,0,0,0-1,.41c.19-.9.35-1.55-.41-2.15s-1.66-.14-2.43.29c.12-2.8-2-3-4-1.51a9,9,0,0,0-.73.64c0-.64.17-1.53-.62-1.73a4.29,4.29,0,0,0-2,.08,6.31,6.31,0,0,1-.62.54,7.44,7.44,0,0,1,2.26-.38C105.69,175.19,105.57,176,105.67,176.66Zm8.1,2.85a1.28,1.28,0,0,1,1.57,0,1.13,1.13,0,0,1,.67,1c-1.19,1.57-3.38,1.58-5.14,2.17a9.25,9.25,0,0,1,1.67-2.16A6.17,6.17,0,0,1,113.77,179.51Z"/>
                  <path class="cls-20" d="M108.57,189.87a9.68,9.68,0,0,1,1-2.93c0-.07.16,0,.13.11a14,14,0,0,0-.72,2.28c-.24.84-.66,1.8-.15,2.67,0,0,0,0,0,0A2.7,2.7,0,0,1,108.57,189.87Z"/>
                </g>
              </g>
              <g>
                <path class="cls-2" d="M145,117.36c-5.67,2.74-11.71,15.11-13.12,17.33a225,225,0,0,0-11.16,20.17c-3.2,6.58-5,10.9-4.8,12.11l4.13,2.42c2.61,1.65.83,2,26.84-27l9.35-12.63C157.74,123.75,150.66,112.84,145,117.36Z"/>
                <path class="cls-2" d="M146.81,132.76,200.76,117c2.9-1.6,5.29-4.46,4.94-10.7,0,0-1.86-9.82-13.4-7.47l-44.82,16.65C142.17,120.11,141,133,146.81,132.76Z"/>
              </g>
              <path class="cls-21" d="M130,161.63a37.55,37.55,0,0,1-3.41,4.5c-.73.5-7.51-3.29-8.86-6.47l2.9-5.16Z"/>
              <g>
                <path class="cls-22" d="M127.85,163.44c-2.09-.63-4.69-1.57-6.13-3.31a7.66,7.66,0,0,1-1.46-5.19c.12-.26.24-.51.37-.77A227.44,227.44,0,0,1,131.78,134c1.41-2.22,7.45-14.6,13.13-17.33,5.71-4.53,15.2,8.56,13.66,14.54l-9.27,10.37c-9.58,10.7-15.26,17.67-18.77,22.14A6.24,6.24,0,0,1,127.85,163.44Z"/>
                <path class="cls-22" d="M150.06,135.61,200.83,120c2.91-1.59,5.22-7.53,4.87-13.77,0,0-2.27-12.14-13.81-9.79l-44.41,19C142.17,120.11,144.29,135.87,150.06,135.61Z"/>
              </g>
            </g>
            <g>
              <path class="cls-21" d="M223.78,113.06s-18.94-25-31-13.7-11.11,30.17-14.48,29.44-8.13-7.52-7.7-10.05-5.29,1.06-3.68-4.79,10.94-25.4,27.89-24.47S220.54,101.61,223.78,113.06Z"/>
              <path class="cls-23" d="M182.11,99a24.44,24.44,0,0,1,9-5.22,20.9,20.9,0,0,1,4.9-.93,47.45,47.45,0,0,1,4.9.45s0,0,0,0c-3.46-.12-6.28-.45-9.66.71a28.67,28.67,0,0,0-8.78,5.33c-5.2,4.24-8.84,10.62-11.16,16.83,0,.08-.15,0-.13,0A36.66,36.66,0,0,1,182.11,99Z"/>
            </g>
            <g>
              <path class="cls-21" d="M165.2,207s-3.59,3.63-6.46,2.07S145,194.4,145.2,189.47c0,0,4.66-4.1,5.16-4.43S165.2,207,165.2,207Z"/>
              <path class="cls-24" d="M164.83,167a86.42,86.42,0,0,0,9.62-25.33,302.74,302.74,0,0,1,8.33-30.2,38,38,0,0,1,2.36-3.66,36.69,36.69,0,0,1,10-12.52c4.4-3.3,9.52-1.3,16.17,3.48,0,0,5.22,1.85,9.12,8.29.54.89,2.71,5.08,3.33,6,2.37,10.61,3.64,18.53,2.16,29.85-.08.63-.18,1.25-.28,1.87,0,.12,0,.24-.08.35-2.78,10.56-6.1,20.82-12.73,29.65A110.36,110.36,0,0,1,184.21,201c-7,2.31-14.6,9.68-20,7.75-4.26-1.52-17.27-17.5-16.35-21.87C149.24,180.35,162,171.81,164.83,167Z"/>
              <path class="cls-21" d="M176.83,201.46c.81-.43,1.58-.9,2.33-1.39l.46-.23a90.08,90.08,0,0,0,11-7,85.77,85.77,0,0,0,18.65-18.62,71.14,71.14,0,0,0,7.29-12.88,55.83,55.83,0,0,0,4.08-9.75,122.78,122.78,0,0,0,4.86-29.93,68.16,68.16,0,0,1,.43,21.23c-.08.63-.18,1.25-.28,1.87,0,.12,0,.24-.08.35-2.78,10.56-6.1,20.82-12.73,29.65A110.36,110.36,0,0,1,184.21,201c-7,2.31-14.6,9.68-20,7.75a10.09,10.09,0,0,1-2.73-1.83A62.46,62.46,0,0,0,176.83,201.46Z"/>
              <path class="cls-21" d="M180.63,179.3c-3,.17-6,.32-9,.31-3.78,0-7.63-1.12-11.4-2,0-1.4.21-1.38.21-1.38,10.66,4,28-1,28-1a5,5,0,0,1-.31,2.07C185.81,178.09,183.08,179.17,180.63,179.3Z"/>
            </g>
            <g>
              <g>
                <path class="cls-25" d="M190.43,110.33c7.71-14,20.28-4.73,20.28-4.73s12.06,7.59,4.26,30.4-46.72,53.12-46.72,53.12l-3.36,6.29s35.78-18.19,50.68-44.33c11.12-19.51,12.93-44.16-5.21-53.24,0,0-10.44-6.78-15.93,1.1a28.38,28.38,0,0,0-6.13,14.45C187.56,121.62,190.43,110.33,190.43,110.33Z"/>
                <path class="cls-26" d="M198.63,95.78a3.13,3.13,0,0,0,1.49,3.63c1.93,1,4.24.89,6.28,1.59a21.16,21.16,0,0,1,7.64,4.39c7.14,6.68,7,17.78,4.67,26.59-2.5,9.4-7.47,18.08-13.46,25.69-6.19,7.86-13.64,14.7-21.23,21.18-5.92,5.06-12,9.88-18.13,14.69l2.36-4.42S207.17,158.8,215,136s-4.26-30.4-4.26-30.4-12.57-9.29-20.28,4.73a54.57,54.57,0,0,1-1.65,5.41c-.11-.26-.49-.43-.54-.07,0,.1,0,.2,0,.31a15.46,15.46,0,0,1,.1-2.59,28.38,28.38,0,0,1,6.13-14.45,8.47,8.47,0,0,1,4.28-3.33C198.69,95.67,198.65,95.72,198.63,95.78Z"/>
              </g>
              <g>
                <path class="cls-27" d="M183.42,91.3s15.79-4.91,10.5,10.25-12.42,28.86-14.29,52-7.11,36.78-13,40.86-23.52,6.37-32.26-4.83-.67-27,7.51-46.17C151.72,120.32,169.18,97.68,183.42,91.3Z"/>
                <path class="cls-28" d="M168.7,166.74c-1.92,6.31-5.13,13.2-11.59,15.92-9.15,3.86-20.7-.37-26.28-8.46,1.12-8.35,5.55-18,10.2-28.83A86.92,86.92,0,0,0,157,152.23,88.8,88.8,0,0,0,171,155.65,73.36,73.36,0,0,1,168.7,166.74Z"/>
                <path class="cls-25" d="M161.47,159.73c-4.58.93-9.3,2.32-14,1.54a9.13,9.13,0,0,1-6.17-4.22c-1-1.54-3-5.36-2.19-7.24l1.92-4.44A86.92,86.92,0,0,0,157,152.23a89,89,0,0,0,13.84,3.37C169.79,156.29,163.6,159.3,161.47,159.73Z"/>
                <path class="cls-25" d="M151.09,186.35a17,17,0,0,0,16.74-10,50.49,50.49,0,0,0,3.69-12.65c1-5.35,2-10.73,3.07-16.08a225.79,225.79,0,0,1,9-31c2.81-7.76,6-15.62,11.22-22.1.39,1.65.2,3.92-.89,7.06-5.3,15.16-12.42,28.86-14.29,52s-7.11,36.78-13,40.86-23.52,6.37-32.26-4.83a18.37,18.37,0,0,1-3.76-12.39C136.2,182.36,143.84,186,151.09,186.35Z"/>
                <path class="cls-26" d="M194.76,98.49s2.34-6.46-5-6.57S166.1,111.56,159.13,124c0,0-3.6,7.69-10.58,5.84a1.38,1.38,0,0,1-.77-2c.67-1.58,14.19-22,27.24-33.22S198.79,91.13,194.76,98.49Z"/>
              </g>
            </g>
            <g>
              <g>
                <path class="cls-3" d="M284.44,123.06c-.17-1.48,1.58-2.85,2.57-4,1.59-3.35,3.67-6.57,5.26-9.9a26.08,26.08,0,0,1,8.19-10c3.22-2.32,6.09-1.49,9.63-.49,2.28.63,7.24,1.16,6.41,4.62a12.61,12.61,0,0,1,2.33.87c1.59.81,2.84,3,1.54,4.58,0,0,0,0-.05,0,1.66.74,2.6,2,1.73,4.71a1.07,1.07,0,0,1,.32.41,4.31,4.31,0,0,1,.28,1.19c-.38,1.09-.68,2.25-1,3.36-.12.25-.24.5-.38.74a.39.39,0,0,0-.14.12c-.91,1.31-2.13,2.6-3.86,2.64-1.13,0-2.78,0-3.32-1.26-.1-.25-.69-.6-.86-.21-.39.85-.83,1.71-1.28,2.55a12.2,12.2,0,0,1-2.15,1.77c-4.1,2.58-8,4.21-12.86,3.48-.8-.12-1.6-.26-2.39-.44a5.9,5.9,0,0,0-3.94.46,3.51,3.51,0,0,1-3.26-.86A7.09,7.09,0,0,1,284.44,123.06Z"/>
                <path class="cls-20" d="M312.55,111c1.72-.13,3.26.65,4.95,1s3.7.39,4.89,1.85c0,0,0,0,0,0-1.34-1.26-3.5-1.31-5.23-1.71-1.52-.35-3-1.15-4.56-1.15C312.54,111,312.53,111,312.55,111Z"/>
                <path class="cls-20" d="M311.4,106.21a7.33,7.33,0,0,1,2.14.77,27.9,27.9,0,0,0,3.24.81c1.51.33,3.56.63,4.71,1.77,0,0,0,0,0,0-1.23-1.09-3.58-1.39-5.15-1.73-.93-.2-1.9-.42-2.81-.71a22.51,22.51,0,0,0-2.12-.87A0,0,0,0,1,311.4,106.21Z"/>
                <path class="cls-20" d="M309.7,101.52c1.13,1.46,4,1.58,5.7,1.61a7.28,7.28,0,0,1,3.78,1.3s0,0,0,0c-1.93-1-3.94-1-6-1.4-1.23-.22-2.72-.39-3.45-1.53C309.68,101.52,309.69,101.52,309.7,101.52Z"/>
                <path class="cls-20" d="M306.42,99.64a2.15,2.15,0,0,1-.62-.45s0,0,0,0c.31.33.83.38,1.13.75a2.57,2.57,0,0,1,.34,1.72c0,.08-.1,0-.12,0C307,100.85,307.22,100.17,306.42,99.64Z"/>
                <path class="cls-20" d="M308.77,106s0,0,0,0c.22.36.59.63.49,1.11,0,.06-.09,0-.09,0A2.35,2.35,0,0,0,308.77,106Z"/>
                <path class="cls-20" d="M310.73,123.62c1.32-.85,1.86-2.42,2.69-3.7a2.83,2.83,0,0,1,.09-.37c0-.08.12,0,.14,0a2.6,2.6,0,0,1,.89-1.09,3.85,3.85,0,0,1,1.6-.6,4.18,4.18,0,0,0,1.54-.35s0,0,0,0c-.31.34-1.07.36-1.47.5a3.47,3.47,0,0,0-2.51,2.25c.52,2.24,5.06,1.92,6.09.64a17.38,17.38,0,0,0,1.85-3h0c-1,2.13-1.74,4-4.38,4.16-1.27.1-3.77-.39-3.88-1.91-.21.37-.4.75-.58,1.09a4.57,4.57,0,0,1-2.05,2.38S310.67,123.65,310.73,123.62Z"/>
              </g>
              <path class="cls-29" d="M240.67,153.18,202.2,128.49c-15.22-13.15-8.12-21.39-8.12-21.39s6.65-6,15.34-2.84c9.17,3.33,37.49,29.36,37.49,29.36C241.61,139.71,239.78,146.19,240.67,153.18Z"/>
              <g>
                <path class="cls-21" d="M281.58,121.06a38,38,0,0,1,5-2.6c.87-.14,5.37,6.2,5.23,9.64L287,131.52Z"/>
                <path class="cls-29" d="M238.76,135.64s1.56-3.22,4.17-2.57c0,0,24.51-10.18,39.66-13.41,0,0,3.08,2.33,5,12.72,0,0-37,23.78-46.9,20.8C233.18,150.9,236,138,238.76,135.64Z"/>
              </g>
            </g>
          </g>
        </g>
      </g>
    </g>
  </g>
</svg>
