<svg xmlns="http://www.w3.org/2000/svg" width="329.08" height="390.37" viewBox="0 0 329.08 390.37">
  <defs>
    <style>
      .cls-1 {
        isolation: isolate;
      }

      .cls-2 {
        fill: #e7c19c;
      }

      .cls-3 {
        fill: #f1d2b3;
      }

      .cls-4 {
        fill: #ddb996;
      }

      .cls-5 {
        fill: #575756;
      }

      .cls-6 {
        fill: #3c3c3b;
      }

      .cls-7, .cls-8 {
        fill: #368041;
      }

      .cls-8 {
        opacity: 0.3;
      }

      .cls-18, .cls-8 {
        mix-blend-mode: multiply;
      }

      .cls-9 {
        fill: #135111;
      }

      .cls-10 {
        fill: #a3195b;
      }

      .cls-11 {
        fill: #1894a2;
      }

      .cls-12 {
        fill: #91406f;
      }

      .cls-13 {
        fill: #bdbaa9;
      }

      .cls-14 {
        fill: #fff9de;
      }

      .cls-15 {
        fill: #292942;
      }

      .cls-16 {
        fill: #413f64;
      }

      .cls-17, .cls-18 {
        fill: #272726;
      }

      .cls-18 {
        opacity: 0.4;
      }

      .cls-19 {
        fill: #c3a479;
      }

      .cls-20 {
        fill: #e7dd9c;
      }

      .cls-21 {
        fill: #3a3f72;
      }

      .cls-22 {
        fill: #e0fd29;
      }

      .cls-23 {
        fill: #3143b1;
      }

      .cls-24 {
        fill: #ecf92a;
      }

      .cls-25 {
        fill: #f3eb2a;
      }

      .cls-26 {
        fill: #f1e9b3;
      }
    </style>
  </defs>
  <title>boy3</title>
  <g class="cls-1">
    <g id="Layer_2" data-name="Layer 2">
      <g id="Layer_1-2" data-name="Layer 1">
        <g>
          <g>
            <g>
              <path class="cls-2" d="M200.57,87.33l-.09,6.2-11.2,4.33s.06-2,.16-4.43c.12-3.06-3.23-3.7-13.41-8.2-21.11-9.34-17.9-8-21.3-17.47-10.3-28.74,6.9-55.1,38.46-53.45,27.57,1.43,14.25,35.36,12.56,46.12Z"/>
              <path class="cls-2" d="M185,110.93s5.57-33.86,11.12-33.13c0,0,20.7,11.08,22.79,16.38.1.25.61,0,.34,1.69-1.87.3-7.27-2-8.34.5s-6.58,19.71-8,24.55C195.73,118,184,113.59,185,110.93Z"/>
            </g>
            <g>
              <g>
                <path class="cls-3" d="M192.29,14.36s9.48,1.12,10.38,1.33a33.76,33.76,0,0,1,9.52,3.73c6,3.48,11.07,8.8,13.38,15.39a33.71,33.71,0,0,1,2,9c.17,3.05-.69,6-.68,9,0,2.76,1.81,5.15,3.94,7.15l.55.56c1.09,1.11,2.35,2,3.48,3.07s2.48,2.4,1.94,4a3.64,3.64,0,0,1-.22.49,7.72,7.72,0,0,1-2,1.54c-.77.42-2.64,1.14-2.55,2.22a4.58,4.58,0,0,0,.64,1.72c.38.67,1.19,2.14,1.07,3-.2,1.58-3.41,2.37-4.78,2.38-.1.08,3.46,0,3.5,1.47.07,2.09-1.46,1.11-1.46,4.33,0,.26.72,2.59,1,4.73A7.65,7.65,0,0,1,229.81,95c-1.74,1.72-4.51,1.83-7.16,1.56-7.41-.78-14.7-5.07-20-10.17-3.51-3.38-5.51-7.63-7.15-12.08-.4-1.52-.81-3-1.26-4.58-1-3.19-1.89-6.39-2.82-9.59C194.6,45.21,194.07,29.55,192.29,14.36Z"/>
                <g>
                  <path class="cls-4" d="M228.94,79a9.25,9.25,0,0,1,2.92.64,16.06,16.06,0,0,0-3.65-.72l-.59-.11a14,14,0,0,0,6.1-2.42.88.88,0,0,1,0,.23C233.52,78.19,230.31,79,228.94,79Z"/>
                  <path class="cls-4" d="M236.76,66.19a2.25,2.25,0,0,1,0,1.45,3.64,3.64,0,0,1-.22.49,7.72,7.72,0,0,1-2,1.54c-.74.4-2.52,1.1-2.54,2.13a15.5,15.5,0,0,1-3.29-2.42C231.63,69.05,234.8,68.37,236.76,66.19Z"/>
                </g>
              </g>
              <path class="cls-5" d="M146.45,35.22a19.66,19.66,0,0,1,4-5.91A8.64,8.64,0,0,1,154,27.54c.05-.16.1-.3.15-.44,3.63-8.68,13.18-11.72,21.61-13.78a54.25,54.25,0,0,1,22.65-.85,32.83,32.83,0,0,1,3.48.88c0,3-.08,6-.1,9-.05,6.44,0,12.83-.51,19.25-.37,4.82-.86,9.62-1.25,14.44,0,.31-.07.66-.11,1a6.8,6.8,0,0,1-.79-1.65h0a13.44,13.44,0,0,1,0,4.56.44.44,0,0,1-.81.13,33.49,33.49,0,0,1,1.12,4.41c.61,3.24,1,7.29-.45,10.37a.59.59,0,0,1-1-.12c-.68-1.85-1.4-3.67-2.14-5.5a34.7,34.7,0,0,0-3-5.61c.52,3.11.94,6.24,1.45,9.36.61,3.81,2.16,7.19,3.17,10.86.1.37-.29.48-.57.36a12.13,12.13,0,0,1,1.1,2.55,4.06,4.06,0,0,1-2.34-.62c-.5-.51-1-1.09-1.4-1.51-.24-.23-.48-.48-.73-.75a15.29,15.29,0,0,1,.88,4.48,10,10,0,0,1-1.15,2.46.59.59,0,0,1-.12-.19,34.25,34.25,0,0,0-1.17-3.31,14.9,14.9,0,0,1,.56,2.7c.07.59-.56.78-1,.44s-.52-.4-.77-.61c.87,1.24,2,2.47,2.28,3.86,0,0,0,0,0,0a10.78,10.78,0,0,0-1.54-.53,18.47,18.47,0,0,0-4.24-3c.59.55,1.18,1.11,1.81,1.59h0c-1.21-.29-2.42-.61-3.62-1a7.1,7.1,0,0,0-.69-.28c-6.55-2.33-12.3-3.39-18.38-6.77-2.46-1.37-6.38-3.4-8.78-5-3.44-3.34-5.27-5.66-5.33-10.35.08-.28.05-3.59.14-3.86,1.08-3.12,1.58-5.74.35-8.91-1.4-3.63-3.83-6.78-5.2-10.4-.85-2.26-1.55-4.55-2.19-6.86A30.07,30.07,0,0,1,146.45,35.22Z"/>
              <path class="cls-6" d="M152.87,56.26c.47-.19.93-.38,1.39-.59a37,37,0,0,0,4.19,11.65c3.06,5.43,7.75,12,14.42,13,.41.06.33-.48.21-.68-2.23-3.76-5.24-7.25-5.55-11.67a13.41,13.41,0,0,0,4.79,5.62.34.34,0,0,0,.53-.39c-.59-2.42-1.73-4.69-2.31-7.1,3.22,6.06,8.24,12.51,15.05,13.87.44.09.53-.37.32-.67-4.71-6.8-9.69-13.58-12.23-21.54a95.6,95.6,0,0,0,9.47,6.5c.52.31.68-.42.34-.72-2.07-1.9-3.7-4.21-5.78-6.09a23.81,23.81,0,0,1,7.38,1.52c.51.17.51-.53.24-.77-2-1.7-4.47-2.77-6.44-4.48,4.4-1.86,10.94,3.16,14,5.8.34.29.85,0,.6-.43a40.37,40.37,0,0,1-3.75-8c1.46,2.38,2.56,5,4.82,6.75.29.22.74.13.64-.31a26.7,26.7,0,0,1-.38-7.19c.83,2.21,1.71,4.4,2.38,6.67.11.38.78.74.84.13a99.56,99.56,0,0,1,3.37-17.91c-.05.82-.08,1.63-.14,2.45-.37,4.82-.86,9.62-1.25,14.44,0,.31-.07.66-.11,1a6.8,6.8,0,0,1-.79-1.65h0a13.44,13.44,0,0,1,0,4.56.44.44,0,0,1-.81.13,33.49,33.49,0,0,1,1.12,4.41c.61,3.24,1,7.29-.45,10.37a.59.59,0,0,1-1-.12c-.68-1.85-1.4-3.67-2.14-5.5a34.7,34.7,0,0,0-3-5.61c.52,3.11.94,6.24,1.45,9.36.61,3.81,2.16,7.19,3.17,10.86.1.37-.29.48-.57.36a12.13,12.13,0,0,1,1.1,2.55,4.06,4.06,0,0,1-2.34-.62c-.5-.51-1-1.09-1.4-1.51-.24-.23-.48-.48-.73-.75a15.29,15.29,0,0,1,.88,4.48,10,10,0,0,1-1.15,2.46.59.59,0,0,1-.12-.19,34.25,34.25,0,0,0-1.17-3.31,14.9,14.9,0,0,1,.56,2.7c.07.59-.56.78-1,.44s-.52-.4-.77-.61c.87,1.24,2,2.47,2.28,3.86,0,0,0,0,0,0a10.78,10.78,0,0,0-1.54-.53,18.47,18.47,0,0,0-4.24-3c.59.55,1.18,1.11,1.81,1.59h0c-1.21-.29-2.42-.61-3.62-1a7.1,7.1,0,0,0-.69-.28c-6.55-2.33-12.3-3.39-18.38-6.77-2.46-1.37-6.38-3.4-8.78-5-3.44-3.34-5.27-5.66-5.33-10.35.08-.28.05-3.59.14-3.86C153.4,61.74,153.88,59.23,152.87,56.26Z"/>
              <g>
                <path class="cls-3" d="M187.22,61.37a5,5,0,0,1,2.2-.87,6.14,6.14,0,0,1,4.35,1.15c3.15,2.23,5,7.71,5.58,11.68.26,1.93.62,4.6-.38,6.24-1.66,2.75-5.38-1.38-7.31-2.77-3.88-2.77-5.44-3.16-6.49-6.85C183.76,65,185.56,62.55,187.22,61.37Z"/>
                <path class="cls-2" d="M190.31,71.83a6.07,6.07,0,0,0,5.59,3.71c1-.05,1.77-.43,1.39-1.58a3.56,3.56,0,0,0-1.08-1.38c-.69-.5-.89-2-1-2.73-.22-2-.36-4.73-3.19-4.58-2.63.14-2.86,2.63-2.37,4.75A8.34,8.34,0,0,0,190.31,71.83Z"/>
              </g>
            </g>
            <g>
              <path class="cls-7" d="M130.44,53.07c1.12,1.87,3.25,3.12,5,4.36S139.58,60,141.82,60a10.83,10.83,0,0,0,3.06-.3,11,11,0,0,1,4-.24.2.2,0,0,0,.13.15c1,.37,2.36-.41,3.31-.58,1.81-.34,3.64-.72,5.45-1.1A74,74,0,0,0,168,55.24a149.26,149.26,0,0,0,22.27-10.49c3.46-2,6.72-4.42,10.28-6.19a76.26,76.26,0,0,0,10.29-6,40.13,40.13,0,0,0,8-7.35,6.37,6.37,0,0,0,1.33-3.05.94.94,0,0,0,.18.21s.06,0,.05,0a3,3,0,0,1-.1-.32s-.07,0-.05,0a1.18,1.18,0,0,1-.06-.27,2.6,2.6,0,0,0-.11-.79c-.17-1.89,0-4.87,0-6.78a43,43,0,0,0-.57-8.93c-.46-2.18-.87-4-3.14-4.7a16.91,16.91,0,0,0-7.22-.36C202.85,1.31,196.48,2,190.24,3.4s-12.36,3-18.62,4.15a30.94,30.94,0,0,0-9.24,2.82,32.17,32.17,0,0,0-6.87,4.93c-5,4.73-9.1,10.06-13.39,15.42C138,35.86,133.49,41,130.67,47,129.64,49.17,129.14,50.91,130.44,53.07Z"/>
              <path class="cls-8" d="M130.67,47c2.82-6,7.33-11.13,11.45-16.27,4.29-5.36,8.38-10.69,13.39-15.42a31.93,31.93,0,0,1,2.69-2.24c-4.5,5.88-8.82,12-11.72,18.78-2.23,5.21-5.73,14.73.7,18.59,3.5,2.1,7.73,3,11.68,3.86,2.49.53,5,1.05,7.48,1.51-2.82.89-5.64,1.47-8.57,2.09-1.81.38-3.64.76-5.45,1.1-.95.17-2.35.95-3.31.58a.2.2,0,0,1-.13-.15,11,11,0,0,0-4,.24,10.83,10.83,0,0,1-3.06.3c-2.24,0-4.66-1.26-6.41-2.53s-3.85-2.49-5-4.36C129.14,50.91,129.64,49.17,130.67,47Z"/>
              <path class="cls-8" d="M178.91,30.3c8.83-5,17.91-9.75,25.83-16.14,4.41-3.55,10-7.41,13.54-12.28a8.41,8.41,0,0,1,1.23,3.41,43,43,0,0,1,.57,8.93c0,1.91-.17,4.89,0,6.78a2.6,2.6,0,0,1,.11.79,1.18,1.18,0,0,0,.06.27s0,0,.05,0a3,3,0,0,0,.1.32s0,.06-.05,0a.94.94,0,0,1-.18-.21,6.37,6.37,0,0,1-1.33,3.05,40.13,40.13,0,0,1-8,7.35,76.26,76.26,0,0,1-10.29,6c-3.56,1.77-6.82,4.22-10.28,6.19A149.26,149.26,0,0,1,168,55.24a74,74,0,0,1-10.24,2.65c-1.81.38-3.64.76-5.45,1.1-.95.17-2.35.95-3.31.58a.2.2,0,0,1-.13-.15,11,11,0,0,0-4,.24,10.83,10.83,0,0,1-3.06.3c-2.24,0-4.66-1.26-6.41-2.53s-3.85-2.49-5-4.36a6.42,6.42,0,0,1-.4-.78C147.37,47.89,163.45,39,178.91,30.3Z"/>
              <path class="cls-7" d="M192.13,49c.83,1.52,3,1.54,4.51,1.74a102.63,102.63,0,0,0,18.79.7,105,105,0,0,0,20.35-3.6A44.73,44.73,0,0,0,244.23,45c1.55-.75,4.65-2.15,5.05-4.09.3-1.47-2.44-2.86-3.33-3.4a69.5,69.5,0,0,0-8.06-4.24c-3-1.34-6-2.53-9-4a37.19,37.19,0,0,0-5.33-1.72h.06c.21,0,.16-.29,0-.33a5.85,5.85,0,0,0-3.69-.21,16.23,16.23,0,0,0-3,1.66c-2.84,1.66-5.23,3.86-8,5.56A49.19,49.19,0,0,0,202,39.64c-2.42,2.16-5.06,4-7.44,6.18C194,46.33,191.56,47.92,192.13,49Z"/>
              <path class="cls-8" d="M229.94,29.75A86.52,86.52,0,0,1,213.08,44a117.31,117.31,0,0,1-13.39,7.09c-1-.1-2-.21-3.05-.34-1.53-.2-3.68-.22-4.51-1.74-.57-1,1.89-2.64,2.43-3.15,2.38-2.2,5-4,7.44-6.18a49.19,49.19,0,0,1,6.88-5.41c2.77-1.7,5.16-3.9,8-5.56a16.23,16.23,0,0,1,3-1.66,5.85,5.85,0,0,1,3.69.21c.17,0,.22.37,0,.33h-.06a37.19,37.19,0,0,1,5.33,1.72Z"/>
              <path class="cls-9" d="M145.67,59.49c3.09-1.43,6.43-2,9.39-3.73s6.12-3.38,9.34-4.88a205.75,205.75,0,0,0,19-10c6.13-3.65,12.62-6.8,18.62-10.65a113.11,113.11,0,0,1,9.91-5.56c1.7-.86,3.42-1.63,5.06-2.61a14.41,14.41,0,0,1,2.42-1.4l.26-.18h.08l.1.07.17,0a0,0,0,0,1,0,0l0,.08c1.48,1,2.36,3.74,3.15,5.16.34.6.77,1.28,1.2,2C203.47,46,178.8,60.6,152.23,68.57a9.17,9.17,0,0,1-.94-1.37c-.87-1.73-2.28-3-3-4.9-.37-.91-1.24-1.83-1.41-2.83l-1,.35C145.66,59.89,145.48,59.58,145.67,59.49Z"/>
              <path class="cls-8" d="M145.67,59.49c3.09-1.43,6.43-2,9.39-3.73s6.12-3.38,9.34-4.88a205.75,205.75,0,0,0,19-10c6.13-3.65,12.62-6.8,18.62-10.65a113.11,113.11,0,0,1,9.91-5.56c1.7-.86,3.42-1.63,5.06-2.61a14.41,14.41,0,0,1,2.42-1.4l.26-.18h.08l.07,0C215.7,25.1,210.69,29,206.24,33.1a180.66,180.66,0,0,1-19.08,15.37,234.72,234.72,0,0,1-35.1,19.89,7.89,7.89,0,0,1-.77-1.16c-.87-1.73-2.28-3-3-4.9-.37-.91-1.24-1.83-1.41-2.83l-1,.35C145.66,59.89,145.48,59.58,145.67,59.49Z"/>
            </g>
          </g>
          <g>
            <g>
              <g>
                <path class="cls-10" d="M275.73,387a14.94,14.94,0,0,1-.93-3.21c-.1-.43-.21-.85-.34-1.27a4.37,4.37,0,0,1-.41-1.07c-.33-1.42-.75-2.83-1.05-4.26a12.47,12.47,0,0,1-.19-3.22,4.07,4.07,0,0,1,.28-.55,13.47,13.47,0,0,1,1.37-1.23c.39-.28.79-.54,1.19-.79,1.13-.43,2.26-.85,3.41-1.21a85.41,85.41,0,0,1,8.76-2.15c1.48-.3,3-.51,4.55-.85.44.09.89.19,1.32.32a9.78,9.78,0,0,0,4.62.74,80.6,80.6,0,0,0,10.5-1.23c3.41-.57,6.38-2.06,9.61-3.19,2.56-.91,6.14-1.18,8.69,0a3.17,3.17,0,0,1,2,3.32c-.57,2.69-2.5,5.17-4.48,7.13a75.22,75.22,0,0,1-8.83,7.08,45.66,45.66,0,0,1-8.6,5.26c-4.75,2-9.64,2.38-14.71,2.91-4.15.44-8.27.72-12.4.88l-.43,0C277.5,390.11,276.58,388.77,275.73,387Z"/>
                <path class="cls-11" d="M306.27,378.88c2.57-3.72,7.67-4.41,11-7.3,1.87-1.63,5.19-4.38,4.82-7.24a2.47,2.47,0,0,0-.44-1.21,10.92,10.92,0,0,1,5.5.66,3.17,3.17,0,0,1,2,3.32c-.57,2.69-2.5,5.17-4.48,7.13a75.22,75.22,0,0,1-8.83,7.08,45.66,45.66,0,0,1-8.6,5.26c-.5.22-1,.4-1.51.58C304.92,384.33,304.64,381.24,306.27,378.88Z"/>
                <path class="cls-12" d="M273,377.2a12.47,12.47,0,0,1-.19-3.22,4.07,4.07,0,0,1,.28-.55,13.47,13.47,0,0,1,1.37-1.23c.39-.28.79-.54,1.19-.79,1.13-.43,2.26-.85,3.41-1.21a85.41,85.41,0,0,1,8.76-2.15c1.48-.3,3-.51,4.55-.84h0a15.15,15.15,0,0,1-4.71,7.56c-3.74,2.93-9.36,4-14.4,3.64C273.2,378,273.09,377.61,273,377.2Z"/>
                <path class="cls-11" d="M275.73,387a14.94,14.94,0,0,1-.93-3.21c-.1-.43-.21-.85-.34-1.27a4.37,4.37,0,0,1-.41-1.07c-.06-.25-.13-.51-.19-.77l.51-.06c2.41-.13,4.27-.09,6.43,1.07,2.78,1.5,7.71,4.45,9.1,8-3.29.3-6.57.53-9.85.66l-.43,0C277.5,390.11,276.58,388.77,275.73,387Z"/>
                <path class="cls-13" d="M275.69,386.91a14.14,14.14,0,0,0,4.22.85,55.18,55.18,0,0,0,9.27-.07c6.47-.66,13.59-1,19.5-4,6.23-3.11,11.52-8.13,15.9-13.45,1.16-1.41,3.06-3.45,2.91-5.44a3,3,0,0,0-.2-.92,3.17,3.17,0,0,1,1.78,3.23c-.57,2.69-2.5,5.17-4.48,7.13a75.22,75.22,0,0,1-8.83,7.08,45.66,45.66,0,0,1-8.6,5.26c-4.75,2-9.64,2.38-14.71,2.91-4.15.44-8.27.72-12.4.88l-.43,0c-2.12-.23-3-1.57-3.89-3.33A.3.3,0,0,1,275.69,386.91Z"/>
                <path class="cls-14" d="M291.86,374.87c-.92-1.39-.43-3.69.17-5.14a4,4,0,0,1,.21-.42c.35-.85.86-1.95,1.69-1.95.15,0,.33.14.31.29l.05,0s0,0,0,0h0l-.06,0a0,0,0,0,1,0,0l0,0a.29.29,0,0,1-.13.05,1,1,0,0,0-.31.39c-.11.2-.22.39-.32.59a8.39,8.39,0,0,0-.72,1.83,15.94,15.94,0,0,0-.32,1.75,11.78,11.78,0,0,1,2.73-3.2c.35-.31,1.45-1.34,1.94-1.12a.53.53,0,0,1,.28.27s.05,0,.07.05a3.71,3.71,0,0,1,.44.63,6.52,6.52,0,0,1,.42.59,6.22,6.22,0,0,1,.59,1.22,19.63,19.63,0,0,1,2.5-2.88,2.36,2.36,0,0,1,.28-.35c0-.12.08-.21.21-.23a.25.25,0,0,1,.23-.05.4.4,0,0,1,.22,0,.6.6,0,0,1,.62.31,5.57,5.57,0,0,1,1.65,1.38,17.29,17.29,0,0,1,1.48,1.82c0-.47,0-.94,0-1.37a5.73,5.73,0,0,1,.23-1.29c.08-.84.37-1.46,1.12-1.12a.3.3,0,0,1,.2.33c-.06.67-.3,1.28-.34,2-.06,1-.21,1.94-.24,2.92a.3.3,0,0,1-.28.32.73.73,0,0,1-.88.28c-1.12-.87-1.79-2.5-2.91-3.38l0-.07c-.18-.21-.36-.43-.52-.65-.76,1.2-1.46,2.45-2.1,3.72,0,.06-.08.14-.13.23-.1.73-.5,1.72-1.34,1.07a2.69,2.69,0,0,1-.7-1.48c-.19-.63-.38-1.24-.58-1.86,0-.06-.07-.13-.11-.2l-.43-.87c-1.49,1.76-2.7,3.62-4.07,5.48h0a.56.56,0,0,1-.62.15A.35.35,0,0,1,291.86,374.87Z"/>
                <path class="cls-14" d="M315.26,379.57a81.86,81.86,0,0,0,7-6.72,34.79,34.79,0,0,0,3.37-4c1-1.46,2.14-2.74,1.73-4.65h0c.78,2.88-2.12,5.59-3.83,7.57a70,70,0,0,1-8.23,7.83S315.24,379.59,315.26,379.57Z"/>
              </g>
              <path class="cls-15" d="M227.13,294.5c-16.86-14.66-71.47-53.25-74.94-71.59l49.57-14.09c-1.56,8.25-2.84,11.25-1.86,13,3.19,5.84,37.4,30.65,49.85,60.23C251.76,283.89,240.18,301.66,227.13,294.5Z"/>
              <path class="cls-15" d="M245.93,277.94a25.35,25.35,0,0,1,6.21,8c2.66,5.27,40.05,79.93,40.05,79.93s-4.78,11.33-21.07,12.9c0,0-27-42.09-33.49-56.51a227.72,227.72,0,0,1-10.5-27.79S231.37,277.62,245.93,277.94Z"/>
            </g>
            <g>
              <g>
                <path class="cls-10" d="M11.4,291.16a14.89,14.89,0,0,1,3.33.35c.43.07.87.12,1.3.16a4.41,4.41,0,0,1,1.15,0c1.44.23,2.9.37,4.34.63a12,12,0,0,1,3.06,1,4.28,4.28,0,0,1,.4.45,14.87,14.87,0,0,1,.63,1.73c.11.47.21.94.28,1.41,0,1.21-.06,2.42-.15,3.62a86.33,86.33,0,0,1-1.3,8.92c-.27,1.48-.67,3-.93,4.54a10.44,10.44,0,0,1-.78,1.1,9.7,9.7,0,0,0-2.42,4,83.66,83.66,0,0,0-2.81,10.2c-.75,3.37-.48,6.68-.64,10.11-.13,2.71-1.22,6.13-3.22,8.07a3.17,3.17,0,0,1-3.81.57c-2.28-1.55-3.86-4.26-4.93-6.84A75.14,75.14,0,0,1,1.65,330.4,45.27,45.27,0,0,1,0,320.46c-.11-5.17,1.4-9.83,2.82-14.73,1.15-4,2.44-7.93,3.84-11.82.06-.13.12-.26.19-.39C7.86,291.64,9.45,291.29,11.4,291.16Z"/>
                <path class="cls-11" d="M7.48,322.53c2.48,3.77,1.2,8.76,2.64,12.9.82,2.34,2.12,6.45,4.91,7.18a2.5,2.5,0,0,0,1.29.05,11.12,11.12,0,0,1-2.68,4.85,3.17,3.17,0,0,1-3.81.57c-2.28-1.55-3.86-4.26-4.93-6.84A75.14,75.14,0,0,1,1.65,330.4,45.27,45.27,0,0,1,0,320.46c0-.55,0-1.08,0-1.62C2.93,319.23,5.9,320.13,7.48,322.53Z"/>
                <path class="cls-12" d="M21.52,292.32a12,12,0,0,1,3.06,1,4.28,4.28,0,0,1,.4.45,14.87,14.87,0,0,1,.63,1.73c.11.47.21.94.28,1.41,0,1.21-.06,2.42-.15,3.62a86.33,86.33,0,0,1-1.3,8.92c-.27,1.48-.66,3-.93,4.54v0c-2.46-2-5.8-4.55-6.57-7.23-1.31-4.56,1.15-10.14,3.36-14.68Z"/>
                <path class="cls-11" d="M11.4,291.16a14.89,14.89,0,0,1,3.33.35c.43.07.87.12,1.3.16a4.41,4.41,0,0,1,1.15,0c.26.05.52.08.78.11-.05.2-.1.38-.14.5-.78,2.28-1.52,4-3.4,5.56-2.43,2-7,5.47-10.84,5.43,1-3.16,2-6.29,3.09-9.38.06-.13.12-.26.19-.39C7.86,291.64,9.45,291.29,11.4,291.16Z"/>
                <path class="cls-13" d="M11.51,291.16a14.86,14.86,0,0,0-2.37,3.6,53.66,53.66,0,0,0-3.41,8.62c-1.83,6.24-4.14,13-3.62,19.57.55,6.95,3.21,13.74,6.5,19.79.88,1.6,2.05,4.13,4,4.74a3.49,3.49,0,0,0,.92.16,3.15,3.15,0,0,1-3.65.44c-2.28-1.55-3.86-4.26-4.93-6.84A75.14,75.14,0,0,1,1.65,330.4,45.27,45.27,0,0,1,0,320.46c-.11-5.17,1.4-9.83,2.82-14.73,1.15-4,2.44-7.93,3.84-11.82.06-.13.12-.26.19-.39,1-1.88,2.59-2.23,4.54-2.36Z"/>
                <path class="cls-14" d="M16.6,310.67c1.63-.33,3.59,1,4.7,2.1a2.85,2.85,0,0,1,.31.34c.65.65,1.49,1.54,1.18,2.3-.06.14-.26.26-.39.18l0,0s0,0,0,0,0,0,0,0,0,0,0,0v-.06l0,0s0,0,0,0a.33.33,0,0,1,0-.14,1,1,0,0,0-.24-.44c-.14-.17-.28-.35-.43-.52A7.89,7.89,0,0,0,20.21,313a14.81,14.81,0,0,0-1.5-1,11.76,11.76,0,0,1,1.95,3.73c.15.44.69,1.85.31,2.22a.57.57,0,0,1-.36.16.18.18,0,0,1-.07.05,3.43,3.43,0,0,1-.75.16,5.19,5.19,0,0,1-.71.17,5.61,5.61,0,0,1-1.35.09,18.83,18.83,0,0,1,1.73,3.4c.1.16.18.29.23.39s.15.16.12.28a.2.2,0,0,1,0,.23.42.42,0,0,1-.06.21.62.62,0,0,1-.53.46,5.46,5.46,0,0,1-1.9,1,16,16,0,0,1-2.23.69c.44.15.87.33,1.26.5a6.18,6.18,0,0,1,1.12.7c.74.39,1.21.89.62,1.47a.33.33,0,0,1-.39,0c-.6-.3-1.07-.75-1.69-1-.88-.42-1.71-.92-2.61-1.31a.31.31,0,0,1-.19-.38.74.74,0,0,1,.06-.92c1.23-.72,3-.73,4.23-1.43l.08,0c.27-.08.53-.17.8-.24-.83-1.15-1.73-2.27-2.66-3.34,0,0-.1-.12-.16-.21-.64-.36-1.41-1.1-.49-1.64a2.74,2.74,0,0,1,1.63-.09c.65.06,1.29.12,1.94.16l.23,0,1-.08c-1.08-2-2.35-3.86-3.56-5.82h0a.54.54,0,0,1,.1-.63A.36.36,0,0,1,16.6,310.67Z"/>
                <path class="cls-14" d="M3.46,330.59a80.3,80.3,0,0,0,3.61,9,34.5,34.5,0,0,0,2.44,4.62c1,1.46,1.74,3,3.66,3.36,0,0,0,0,0,0-3-.37-4.39-4.07-5.58-6.4a70,70,0,0,1-4.16-10.56S3.45,330.57,3.46,330.59Z"/>
              </g>
              <path class="cls-16" d="M106.38,285.56c7.75-16.76,31.19-59.82,44.07-81.61l52.32,4.7-2.85,14.49c-5.62,13.8-48.84,65.44-76.74,84.61C122.9,307.67,103.6,310.51,106.38,285.56Z"/>
              <path class="cls-16" d="M125.73,302.71l-2.36,4.88s.57.05-4.84.66-95.82,4.29-95.82,4.29-8.07-9.47-.63-21.51c0,0,41.21-6,55.06-8.3s34.18.17,34.18.17S123.16,290.59,125.73,302.71Z"/>
            </g>
          </g>
          <g>
            <g>
              <path class="cls-17" d="M219.62,118.44s8,55.28-12.86,93.13c0,0-2.19,5.46-5.28,5.18s-32-2.53-44.15-19.29Z"/>
              <path class="cls-18" d="M219.62,118.44a208.61,208.61,0,0,1,.85,42.11c-3.67,11.88-8.41,23.47-15.13,33.93A93.88,93.88,0,0,1,188,214.63c-10.14-2.33-23.36-7.16-30.64-17.17Z"/>
            </g>
            <g>
              <g>
                <path class="cls-2" d="M97.49,189.33a9.52,9.52,0,0,0,.28,1.8c.43,1.77,1.16,1.72,2.72,1.33a0,0,0,0,1,0,0,3.27,3.27,0,0,0,.25,1.36,2.8,2.8,0,0,0,1.88,1.67c.68.2,1.26-.35,1.91-.3a3.07,3.07,0,0,0,1.12,1.87c1.15.77,4.22.33,5.37-.24,3.4-1.7,6.17-5.29,7.61-9.05.82-1.29,1.54-2.68,2.27-3.82,1.25-1.93,1.08-4.79.91-7-.1-1.27-.09-2.64-.3-3.94a5.94,5.94,0,0,0-3.07-5.52c-2.61-1.36-4.68-.79-6.79.38a30.38,30.38,0,0,0-8.67,4.44,11.93,11.93,0,0,0-4.63,7.26,5.47,5.47,0,0,0-1.55,1C95.35,182.05,93.8,189.81,97.49,189.33Z"/>
                <g>
                  <path class="cls-19" d="M101.86,181.59a15.42,15.42,0,0,0-4.11,7.6c0,.17,0,.33,0,.49a17.17,17.17,0,0,1,2.87-6.35c1.09-1.38,5.53-5.66,5.94-.9-.28.17-.54.34-.72.47-3,2.21-4.77,6.4-5.54,9.91a.78.78,0,0,0,.08.23v0h0c.75-2.3,1.64-5.46,3.25-7.31a12.14,12.14,0,0,1,3-3c1.82-.94,2.87-.14,2.76,1.54a7.75,7.75,0,0,0-1.15,1.14,8,8,0,0,0-1.37,2.25,3.32,3.32,0,0,0-2.14,1.93c-.9,2.28.79,1.94,2.65,2.14a15.56,15.56,0,0,1,3.41,1,6,6,0,0,1-.91,3.17s0,0,0,0a4,4,0,0,0,1.07-3.13,3.58,3.58,0,0,0,4-.75,39.58,39.58,0,0,0,6.17-8.21s0,0,0,0a54.46,54.46,0,0,1-4.79,6.43c-1.81,2-3.08,3-6,2.12a12.79,12.79,0,0,0-2.52-.82c-.57,0-1.19-.07-1.77-.13a1.39,1.39,0,0,1-.76,0,1,1,0,0,1-.59-1c-.16-.68.34-1.23,1-1.64a2.33,2.33,0,0,1,.64-.4l.3-.1.37-.15c1-.38,2.09-.5,3.11-.86a7.14,7.14,0,0,0,2.75-2c1.1-3-.18-6.59,1.71-9.48,0,0,0,0,0,0-1.93,2.69-1.21,6.07-2,9.07a2.6,2.6,0,0,1-.21.36,1.43,1.43,0,0,0-.15-.41,2,2,0,0,0-1.77-.95,1.79,1.79,0,0,0-1,.41c.19-.91.35-1.56-.4-2.15s-1.66-.15-2.43.28c.12-2.79-2-3-4-1.5-.25.19-.49.42-.73.63,0-.64.18-1.52-.62-1.72a4.29,4.29,0,0,0-2,.07,6.31,6.31,0,0,1-.61.55,7.33,7.33,0,0,1,2.25-.38C101.88,180.12,101.76,180.89,101.86,181.59Zm8.1,2.84a1.31,1.31,0,0,1,1.58,0,1.14,1.14,0,0,1,.66,1c-1.18,1.57-3.38,1.58-5.14,2.17a9.79,9.79,0,0,1,1.68-2.16A6.83,6.83,0,0,1,110,184.43Z"/>
                  <path class="cls-19" d="M104.76,194.8a9.61,9.61,0,0,1,1-2.93c0-.08.16,0,.12.11a14.59,14.59,0,0,0-.71,2.27c-.24.85-.67,1.81-.15,2.67,0,0,0,0,0,0A2.7,2.7,0,0,1,104.76,194.8Z"/>
                </g>
              </g>
              <g>
                <path class="cls-2" d="M141.15,122.29C135.47,125,129.43,137.4,128,139.61a226.21,226.21,0,0,0-11.15,20.18c-3.21,6.58-5,10.9-4.8,12.1l4.12,2.43c2.61,1.64.84,2,26.84-27l9.36-12.62C153.93,128.67,146.85,117.76,141.15,122.29Z"/>
                <path class="cls-20" d="M143,137.68,197,121.89c2.91-1.6,5.3-4.46,4.94-10.7,0,0-1.86-9.81-13.39-7.47l-44.83,16.65C138.36,125,137.23,137.94,143,137.68Z"/>
              </g>
              <path class="cls-21" d="M126.22,166.56a38.42,38.42,0,0,1-3.4,4.49c-.73.5-7.52-3.29-8.87-6.46l2.9-5.17Z"/>
              <g>
                <path class="cls-22" d="M124,168.37c-2.09-.64-4.69-1.57-6.13-3.31a7.75,7.75,0,0,1-1.46-5.2c.13-.25.25-.5.37-.76A223.8,223.8,0,0,1,128,138.92c1.41-2.22,7.45-14.59,13.13-17.33,5.7-4.52,15.2,8.57,13.66,14.54l-9.28,10.37c-9.57,10.7-15.26,17.68-18.76,22.15A6.45,6.45,0,0,1,124,168.37Z"/>
                <path class="cls-22" d="M146.26,140.53,197,125c2.9-1.6,5.22-7.54,4.86-13.78,0,0-2.27-12.13-13.81-9.79l-44.41,19C138.36,125,140.48,140.79,146.26,140.53Z"/>
              </g>
            </g>
            <g>
              <path class="cls-21" d="M220,118s-18.94-25-31-13.7-11.11,30.17-14.47,29.44-8.13-7.52-7.71-10-5.28,1.06-3.68-4.79S174,93.48,191,94.42,216.74,106.54,220,118Z"/>
              <path class="cls-23" d="M178.3,104a24.47,24.47,0,0,1,9-5.23,21.53,21.53,0,0,1,4.9-.93,44.62,44.62,0,0,1,4.9.46s0,0,0,0c-3.45-.11-6.28-.44-9.66.71a29,29,0,0,0-8.78,5.34c-5.2,4.23-8.84,10.61-11.15,16.82,0,.09-.16,0-.13-.05A36.74,36.74,0,0,1,178.3,104Z"/>
            </g>
            <g>
              <path class="cls-21" d="M161.39,212s-3.58,3.64-6.46,2.07-13.7-14.7-13.54-19.64c0,0,4.67-4.09,5.17-4.43S161.39,212,161.39,212Z"/>
              <path class="cls-24" d="M161,171.88a86.75,86.75,0,0,0,9.62-25.32A303.62,303.62,0,0,1,179,116.35a38.11,38.11,0,0,1,2.37-3.66,36.51,36.51,0,0,1,10-12.51c4.39-3.31,9.52-1.31,16.17,3.47,0,0,5.21,1.86,9.11,8.29.55.89,2.71,5.08,3.33,6,2.38,10.61,3.64,18.53,2.16,29.86-.08.62-.18,1.24-.27,1.87l-.09.35c-2.78,10.56-6.1,20.81-12.73,29.65A110.34,110.34,0,0,1,180.4,206c-7,2.31-14.6,9.68-20,7.75-4.26-1.52-17.27-17.5-16.34-21.87C145.44,185.28,158.24,176.73,161,171.88Z"/>
              <path class="cls-21" d="M173,206.38c.8-.42,1.57-.89,2.32-1.38l.47-.24a90.78,90.78,0,0,0,11-7,86,86,0,0,0,18.65-18.62,71.82,71.82,0,0,0,7.29-12.89,55.83,55.83,0,0,0,4.08-9.75,122.61,122.61,0,0,0,4.85-29.92,67.84,67.84,0,0,1,.43,21.23c-.08.62-.18,1.24-.27,1.87l-.09.35c-2.78,10.56-6.1,20.81-12.73,29.65A110.34,110.34,0,0,1,180.4,206c-7,2.31-14.6,9.68-20,7.75a10,10,0,0,1-2.73-1.83A62.67,62.67,0,0,0,173,206.38Z"/>
              <g>
                <path class="cls-25" d="M184.69,180.08s-17.38,5.07-28,1c0,0-3,12,11.41,15.57C177.35,199,184.68,184.8,184.69,180.08Z"/>
                <path class="cls-21" d="M176.82,184.23c-3,.16-6,.31-9,.3-3.78,0-7.64-1.11-11.4-2,0-1.4.2-1.38.2-1.38,10.66,4,28-1,28-1a5.08,5.08,0,0,1-.31,2.06C182,183,179.28,184.1,176.82,184.23Z"/>
              </g>
            </g>
            <g>
              <path class="cls-26" d="M249.74,146.35s-32.86-27.48-40.13-33.06c0,0-13.52,9.45-10.74,13.35l38.19,29.53C243.43,160.28,250.14,149.34,249.74,146.35Z"/>
              <g>
                <path class="cls-3" d="M280.64,128c-.18-1.48,1.57-2.85,2.56-4,1.6-3.36,3.67-6.58,5.26-9.91a26.32,26.32,0,0,1,8.19-10c3.22-2.31,6.09-1.48,9.63-.49,2.29.64,7.25,1.16,6.42,4.62a12.13,12.13,0,0,1,2.32.88c1.6.8,2.84,3,1.55,4.58a.06.06,0,0,1-.05,0c1.65.74,2.6,2,1.73,4.71a1.21,1.21,0,0,1,.32.42,4.62,4.62,0,0,1,.28,1.18c-.39,1.09-.69,2.25-1,3.36l-.38.75a.33.33,0,0,0-.15.11c-.9,1.32-2.12,2.6-3.85,2.64-1.14,0-2.78,0-3.32-1.25-.11-.26-.7-.61-.87-.22-.38.86-.82,1.71-1.28,2.56a12.15,12.15,0,0,1-2.15,1.76c-4.1,2.58-8,4.21-12.85,3.49-.81-.12-1.6-.27-2.4-.45a6,6,0,0,0-3.94.46,3.53,3.53,0,0,1-3.26-.86A7.12,7.12,0,0,1,280.64,128Z"/>
                <path class="cls-19" d="M308.75,115.9c1.71-.14,3.26.65,4.94,1s3.7.38,4.89,1.84c0,0,0,0,0,0-1.34-1.27-3.49-1.32-5.22-1.72-1.53-.35-3-1.15-4.57-1.15C308.74,115.92,308.73,115.9,308.75,115.9Z"/>
                <path class="cls-19" d="M307.6,111.13a8.08,8.08,0,0,1,2.14.77,25.61,25.61,0,0,0,3.24.82c1.51.33,3.56.63,4.71,1.76,0,0,0,0,0,0-1.23-1.09-3.58-1.39-5.16-1.72-.93-.2-1.9-.43-2.8-.72a21.92,21.92,0,0,0-2.12-.86S307.56,111.13,307.6,111.13Z"/>
                <path class="cls-19" d="M305.9,106.45c1.13,1.46,4,1.57,5.69,1.6a7.46,7.46,0,0,1,3.79,1.3s0,.05,0,0c-1.92-1-3.94-1-6-1.4-1.23-.23-2.72-.4-3.45-1.54A0,0,0,0,1,305.9,106.45Z"/>
                <path class="cls-19" d="M302.62,104.57a2.37,2.37,0,0,1-.63-.46s0,0,0,0c.31.34.82.39,1.12.76a2.59,2.59,0,0,1,.35,1.71c0,.08-.11.06-.12,0C303.2,105.78,303.41,105.09,302.62,104.57Z"/>
                <path class="cls-19" d="M305,110.93s0,0,0,0c.22.37.58.63.49,1.12,0,0-.1,0-.1,0A2.54,2.54,0,0,0,305,110.93Z"/>
                <path class="cls-19" d="M306.92,128.54c1.33-.85,1.87-2.41,2.69-3.7a2.83,2.83,0,0,1,.09-.37c0-.08.12,0,.15,0a2.45,2.45,0,0,1,.89-1.08,3.87,3.87,0,0,1,1.59-.61,4.13,4.13,0,0,0,1.54-.34s0,0,0,0c-.31.33-1.06.35-1.46.49a3.43,3.43,0,0,0-2.51,2.26c.51,2.24,5.05,1.92,6.08.63a17.75,17.75,0,0,0,1.86-2.94h0c-1,2.12-1.74,4-4.38,4.16-1.27.09-3.77-.4-3.87-1.91-.21.37-.4.75-.58,1.08a4.58,4.58,0,0,1-2,2.38C306.93,128.64,306.87,128.57,306.92,128.54Z"/>
              </g>
              <path class="cls-22" d="M236.87,158.1l-38.48-24.69c-15.21-13.15-8.11-21.39-8.11-21.39s6.64-6,15.33-2.84c9.17,3.33,37.5,29.37,37.5,29.37C237.81,144.63,236,151.12,236.87,158.1Z"/>
              <g>
                <path class="cls-21" d="M277.78,126a37.78,37.78,0,0,1,5-2.6c.87-.14,5.38,6.2,5.23,9.65l-4.84,3.42Z"/>
                <path class="cls-22" d="M235,140.56s1.56-3.22,4.17-2.56c0,0,24.51-10.19,39.66-13.42,0,0,3.09,2.34,5,12.72,0,0-37.06,23.78-46.9,20.8C229.37,155.82,232.15,143,235,140.56Z"/>
              </g>
            </g>
          </g>
        </g>
      </g>
    </g>
  </g>
</svg>
