<svg xmlns="http://www.w3.org/2000/svg" width="262.6" height="374.76" viewBox="0 0 262.6 374.76">
  <defs>
    <style>
      .cls-1 {
        isolation: isolate;
      }

      .cls-2 {
        fill: #e7c19c;
      }

      .cls-3 {
        fill: #f1d2b3;
      }

      .cls-4 {
        fill: #ddb996;
      }

      .cls-5 {
        fill: #575756;
      }

      .cls-6 {
        fill: #3c3c3b;
        opacity: 0.5;
      }

      .cls-17, .cls-6 {
        mix-blend-mode: multiply;
      }

      .cls-7 {
        fill: #dedc00;
      }

      .cls-8 {
        fill: #1894a2;
      }

      .cls-9 {
        fill: #91406f;
      }

      .cls-10 {
        fill: #bdbaa9;
      }

      .cls-11 {
        fill: #fff9de;
      }

      .cls-12 {
        fill: #436600;
      }

      .cls-13 {
        fill: #5a8800;
      }

      .cls-14, .cls-17 {
        fill: #aa28ac;
      }

      .cls-15 {
        fill: #c3a479;
      }

      .cls-16 {
        fill: #d728da;
      }

      .cls-17 {
        opacity: 0.3;
      }

      .cls-18 {
        fill: #891e87;
      }

      .cls-19 {
        fill: #fb28ff;
      }
    </style>
  </defs>
  <title>boy5</title>
  <g class="cls-1">
    <g id="Layer_2" data-name="Layer 2">
      <g id="Layer_1-2" data-name="Layer 1">
        <g>
          <g>
            <g>
              <path class="cls-2" d="M170.58,74.47l.55,6.18-10.68,5.47s-.16-2-.31-4.42c-.2-3.06-3.59-3.34-14.19-6.76-22-7.1-25.21-11.94-29.57-21-13.23-27.51,7.71-49.66,39.28-51.31,27.57-1.43,17.84,33.7,17.27,44.58Z"/>
              <path class="cls-2" d="M157.5,99.57s2-34.25,7.61-34.1c0,0,21.74,8.87,24.37,13.92.12.23.61,0,.51,1.64-1.83.5-7.43-1.2-8.25,1.36s-4.49,20.29-5.42,25.26C169,105.49,156.84,102.32,157.5,99.57Z"/>
            </g>
            <g>
              <path class="cls-3" d="M154.91,2.67s9.54.12,10.46.23a34,34,0,0,1,9.85,2.72c6.3,2.85,11.94,7.61,14.92,13.93a33.77,33.77,0,0,1,2.9,8.76c.49,3-.06,6,.26,9.05.3,2.75,2.34,4.93,4.67,6.71l.6.5c1.2,1,2.55,1.75,3.78,2.68s2.71,2.14,2.34,3.78c0,.19-.11.35-.16.52a8.26,8.26,0,0,1-1.83,1.73c-.72.5-2.51,1.41-2.31,2.47a4.58,4.58,0,0,0,.81,1.65,6.42,6.42,0,0,1,1.39,2.87c0,1.59-3.15,2.72-4.51,2.86-.1.09,3.44-.33,3.63,1.11.28,2.07-1.34,1.25-1,4.45,0,.26,1,2.5,1.5,4.6.44,1.77-.5,4.37-1.6,5.72-1.56,1.89-4.3,2.28-7,2.29-7.46,0-15.15-3.52-21-8-3.85-3-6.28-7-8.36-11.28-.57-1.47-1.12-3-1.74-4.42q-1.92-4.62-3.79-9.25C160.41,33.1,158.26,17.58,154.91,2.67Z"/>
              <g>
                <path class="cls-4" d="M198.08,63.13a9.51,9.51,0,0,1,3,.34,16.17,16.17,0,0,0-3.71-.34l-.6,0a14.22,14.22,0,0,0,5.82-3,1.66,1.66,0,0,1,0,.22C202.55,61.86,199.44,63,198.08,63.13Z"/>
                <path class="cls-4" d="M204.52,49.59a2.21,2.21,0,0,1,.17,1.44c0,.19-.11.35-.16.52a8.26,8.26,0,0,1-1.83,1.73c-.7.48-2.39,1.35-2.31,2.38a15,15,0,0,1-3.52-2.06C199.72,53,202.8,52,204.52,49.59Z"/>
              </g>
            </g>
            <path class="cls-5" d="M110.33,43.89a45,45,0,0,1,1.16-15.72,19.49,19.49,0,0,1,3.36-6.29,8.75,8.75,0,0,1,3.33-2.14,2.57,2.57,0,0,1,.11-.44c2.7-9,11.89-13,20-16A54.29,54.29,0,0,1,160.78.15c6.67.52,13.42,3.92,19.92,3A8.78,8.78,0,0,0,182.15,3a22.76,22.76,0,0,0,4.44-1.27,6.5,6.5,0,0,0,.65-.32A5.17,5.17,0,0,1,185,4.55a21,21,0,0,0,2.38,0A15.21,15.21,0,0,0,189.78,4a7.4,7.4,0,0,0,.89-.34l.1,0,.17-.07h0l.11-.07,0,0c.78-.39,1.53-.87,2.34-1.26a2.27,2.27,0,0,1-.21.41,6.44,6.44,0,0,1,.07,2.91,4.67,4.67,0,0,1-1.27,2.11,12.05,12.05,0,0,1,4.24,1.93l.29.23A9.48,9.48,0,0,1,198,12.9a13.9,13.9,0,0,0-5.71-2.37,9.89,9.89,0,0,1,2.38,1.92.55.55,0,0,0,.14.18,3.67,3.67,0,0,1,1,1.73,47.38,47.38,0,0,0-4.62-2.31c-.3-.11-.61-.21-.92-.29a9.15,9.15,0,0,1,.81.64,17.88,17.88,0,0,1,2.54,2.9,10.4,10.4,0,0,1,.43,4.21.7.7,0,0,1-.2-.18A12.35,12.35,0,0,0,189,14.81a6.67,6.67,0,0,1,.54.84,24.49,24.49,0,0,1,1.89,4.19,12.83,12.83,0,0,1-.42,4.78s-.05,0-.06-.06c-1-1.45-1.19-3.3-2.21-4.82a16.43,16.43,0,0,0-1-1.32,8.26,8.26,0,0,1-.6,3.5,13.05,13.05,0,0,1-.81,1.14,9.33,9.33,0,0,0-1.2-2.27,17.2,17.2,0,0,0-4.5-5.53l-.09,0,.17.61a6.29,6.29,0,0,1-2.24,6.32s0,0-.07,0a9.34,9.34,0,0,0-.92-3.21,9.67,9.67,0,0,0-1.49-3.24,18.43,18.43,0,0,1-1.58,8.44,17.22,17.22,0,0,1-2.47,3.39.4.4,0,0,1-.06-.26,13,13,0,0,0-.1-4.48c0,.21-.09.41-.14.62a20.25,20.25,0,0,1-2.77,7c-.2.2-.39.4-.59.59a.33.33,0,0,0-.09.24l-.12.14c-.21.21-.59,0-.66-.25a4.31,4.31,0,0,1-.1-.61,31,31,0,0,0,1,7c.1.43-.43.54-.68.27a7.2,7.2,0,0,1-.71-.88,16.91,16.91,0,0,1,1.29,7.43c0,.46-.49.55-.84.34A4.18,4.18,0,0,1,166,42.84h0a13.51,13.51,0,0,1,.5,4.54.44.44,0,0,1-.79.2,33.49,33.49,0,0,1,1.56,4.28c.95,3.16,1.79,7.14.63,10.36-.16.46-.84.39-1,0-.87-1.76-1.77-3.5-2.7-5.24a36.43,36.43,0,0,0-3.58-5.27c.84,3,1.58,6.11,2.4,9.16,1,3.73,2.91,6.93,4.28,10.48.14.35-.23.5-.53.41A11.4,11.4,0,0,1,168,74.15a4.05,4.05,0,0,1-2.38-.37c-.56-.45-1.08-1-1.55-1.36-.26-.2-.53-.43-.81-.67a15.3,15.3,0,0,1,1.34,4.36,9.55,9.55,0,0,1-.89,2.57.73.73,0,0,1-.14-.18,33.54,33.54,0,0,0-1.5-3.17A15.87,15.87,0,0,1,163,78c.12.57-.48.83-.93.53L161.2,78c1,1.14,2.21,2.26,2.67,3.6,0,0,0,0,0,0a9.65,9.65,0,0,0-1.59-.37,18.61,18.61,0,0,0-4.53-2.51c.65.49,1.3,1,2,1.4a0,0,0,0,0,0,0c-1.24-.17-2.47-.35-3.7-.57-.24-.07-.47-.15-.72-.21a124.72,124.72,0,0,1-19.75-6.59c-5.79-2.47-11.89-5.18-16.48-9.59A30.15,30.15,0,0,1,110.33,43.89Z"/>
            <path class="cls-6" d="M110.33,43.89c-.07-.92-.12-1.85-.16-2.78a44.27,44.27,0,0,0,3.92,11.41c.16.33.92.58.81,0a14.6,14.6,0,0,1-.13-3.49,26.58,26.58,0,0,0,6.31,9.42c.3.28.79.14.65-.32a24.09,24.09,0,0,1-1.19-9.83c.1.39.2.77.29,1.14A29.67,29.67,0,0,0,124,57.18c2,3.4,5.39,7.83,9.62,8.3A.33.33,0,0,0,134,65c-.45-1.06-.9-2.11-1.34-3.17a19.93,19.93,0,0,0,8.85,4.51c.38.06.4-.35.28-.58l-.47-.9c3.15,2.85,7.15,4.84,11,4.86.5,0,.39-.54.09-.76-2.3-1.71-4.57-3.14-6.27-5.52-.4-.55-.78-1.12-1.14-1.69a22.72,22.72,0,0,0,8.86,2.77c.52.06.37-.56.1-.75a27.44,27.44,0,0,1-8-8.65,11.74,11.74,0,0,0,2.38,1.49.33.33,0,0,0,.47-.34A18,18,0,0,0,144.58,45a9.78,9.78,0,0,1,5.59,3.11c.21.24.76.21.67-.2a19.13,19.13,0,0,0-1.78-4.9,62.44,62.44,0,0,0,8.07,3.15c.55.17.55-.48.2-.73A18.07,18.07,0,0,1,152.57,40a26.68,26.68,0,0,0,7.14,3.49c.38.12.58-.23.38-.55a56,56,0,0,1-3.26-5.72,10.61,10.61,0,0,0,4.3,2.54c.23.07.53,0,.47-.34-.51-2.36-1.54-4.53-1.78-7,0-.24,0-.47,0-.71a27,27,0,0,0,2.17,3.51c.21.28.8.4.75-.11-.37-3.92-.42-7.84-.41-11.77.29.64.57,1.29.85,1.93.11.25.62.59.79.2a16.23,16.23,0,0,0,1.22-5.83A10.77,10.77,0,0,1,166.3,27c-.08.39.6.84.82.41,2.19-4.21,2.65-8.74,1-12.77a7.11,7.11,0,0,1,4.66,5.73c0,.29.66.76.81.31a9.29,9.29,0,0,0-1.2-8.31,8.53,8.53,0,0,1,5.78,4c.18.31.83.38.76-.11a10.51,10.51,0,0,0-1-3.17,33.86,33.86,0,0,1,6.93,2.74c.28.14.76,0,.55-.4a15.64,15.64,0,0,0-3.64-4.71,19.06,19.06,0,0,1,5.27,1c.47.16.58-.36.3-.65-2.09-2.19-4.71-3.14-7.48-3.85A16.84,16.84,0,0,0,183,5.81c.34-.18.09-.7-.21-.78-4.11-1-8.35-1.33-12.45-2.42A55.23,55.23,0,0,1,164.71.74c5.37,1.1,10.76,3.16,16,2.42A8.78,8.78,0,0,0,182.15,3a22.76,22.76,0,0,0,4.44-1.27,6.5,6.5,0,0,0,.65-.32A5.17,5.17,0,0,1,185,4.55a21,21,0,0,0,2.38,0A15.21,15.21,0,0,0,189.78,4a7.4,7.4,0,0,0,.89-.34l.1,0,.17-.07h0l.11-.07,0,0c.78-.39,1.53-.87,2.34-1.26a2.27,2.27,0,0,1-.21.41,6.44,6.44,0,0,1,.07,2.91,4.67,4.67,0,0,1-1.27,2.11,12.05,12.05,0,0,1,4.24,1.93l.29.23A9.48,9.48,0,0,1,198,12.9a13.9,13.9,0,0,0-5.71-2.37,9.89,9.89,0,0,1,2.38,1.92.55.55,0,0,0,.14.18,3.67,3.67,0,0,1,1,1.73,47.38,47.38,0,0,0-4.62-2.31c-.3-.11-.61-.21-.92-.29a9.15,9.15,0,0,1,.81.64,17.88,17.88,0,0,1,2.54,2.9,10.4,10.4,0,0,1,.43,4.21.7.7,0,0,1-.2-.18A12.35,12.35,0,0,0,189,14.81a6.67,6.67,0,0,1,.54.84,24.49,24.49,0,0,1,1.89,4.19,12.83,12.83,0,0,1-.42,4.78s-.05,0-.06-.06c-1-1.45-1.19-3.3-2.21-4.82a16.43,16.43,0,0,0-1-1.32,8.26,8.26,0,0,1-.6,3.5,13.05,13.05,0,0,1-.81,1.14,9.33,9.33,0,0,0-1.2-2.27,17.2,17.2,0,0,0-4.5-5.53l-.09,0,.17.61a6.29,6.29,0,0,1-2.24,6.32s0,0-.07,0a9.34,9.34,0,0,0-.92-3.21,9.67,9.67,0,0,0-1.49-3.24,18.43,18.43,0,0,1-1.58,8.44,17.22,17.22,0,0,1-2.47,3.39.4.4,0,0,1-.06-.26,13,13,0,0,0-.1-4.48c0,.21-.09.41-.14.62a20.25,20.25,0,0,1-2.77,7c-.2.2-.39.4-.59.59a.33.33,0,0,0-.09.24l-.12.14c-.21.21-.59,0-.66-.25a4.31,4.31,0,0,1-.1-.61,31,31,0,0,0,1,7c.1.43-.43.54-.68.27a7.2,7.2,0,0,1-.71-.88,16.91,16.91,0,0,1,1.29,7.43c0,.46-.49.55-.84.34A4.18,4.18,0,0,1,166,42.84h0a13.51,13.51,0,0,1,.5,4.54.44.44,0,0,1-.79.2,33.49,33.49,0,0,1,1.56,4.28c.95,3.16,1.79,7.14.63,10.36-.16.46-.84.39-1,0-.87-1.76-1.77-3.5-2.7-5.24a36.43,36.43,0,0,0-3.58-5.27c.84,3,1.58,6.11,2.4,9.16,1,3.73,2.91,6.93,4.28,10.48.14.35-.23.5-.53.41A11.4,11.4,0,0,1,168,74.15a4.05,4.05,0,0,1-2.38-.37c-.56-.45-1.08-1-1.55-1.36-.26-.2-.53-.43-.81-.67a15.3,15.3,0,0,1,1.34,4.36,9.55,9.55,0,0,1-.89,2.57.73.73,0,0,1-.14-.18,33.54,33.54,0,0,0-1.5-3.17A15.87,15.87,0,0,1,163,78c.12.57-.48.83-.93.53L161.2,78c1,1.14,2.21,2.26,2.67,3.6,0,0,0,0,0,0a9.65,9.65,0,0,0-1.59-.37,18.61,18.61,0,0,0-4.53-2.51c.65.49,1.3,1,2,1.4a0,0,0,0,0,0,0c-1.24-.17-2.47-.35-3.7-.57-.24-.07-.47-.15-.72-.21a124.72,124.72,0,0,1-19.75-6.59c-5.79-2.47-11.89-5.18-16.48-9.59A30.15,30.15,0,0,1,110.33,43.89Z"/>
            <g>
              <path class="cls-3" d="M154.75,49.94a5,5,0,0,1,2.09-1.09,6.17,6.17,0,0,1,4.46.69c3.36,1.89,5.81,7.15,6.75,11,.47,1.9,1.1,4.52.28,6.26-1.36,2.9-5.5-.82-7.56-2-4.15-2.36-5.74-2.58-7.17-6.13C151.68,53.93,153.22,51.29,154.75,49.94Z"/>
              <path class="cls-2" d="M158.91,60a6.08,6.08,0,0,0,5.94,3.11c1-.16,1.72-.62,1.22-1.72a3.51,3.51,0,0,0-1.22-1.26c-.73-.43-1.08-1.87-1.24-2.61-.43-2-.84-4.67-3.64-4.23-2.61.41-2.57,2.91-1.87,5A9.38,9.38,0,0,0,158.91,60Z"/>
            </g>
          </g>
          <g>
            <g>
              <g>
                <path class="cls-7" d="M15.75,218.25a14.55,14.55,0,0,1,3.24.83c.42.13.84.24,1.26.35a4.17,4.17,0,0,1,1.13.18c1.4.44,2.82.79,4.21,1.26a12,12,0,0,1,2.87,1.46c.12.16.23.34.34.52a13.33,13.33,0,0,1,.36,1.8c.05.48.07,1,.08,1.43-.2,1.19-.41,2.38-.68,3.56A86.59,86.59,0,0,1,26,238.28c-.48,1.42-1.09,2.88-1.57,4.35-.3.34-.61.67-.94,1a9.58,9.58,0,0,0-3,3.61,80.08,80.08,0,0,0-4.26,9.68c-1.24,3.23-1.46,6.54-2.11,9.9-.52,2.67-2.09,5.9-4.36,7.53a3.16,3.16,0,0,1-3.85,0c-2-1.85-3.2-4.77-3.88-7.47A74.13,74.13,0,0,1,.4,255.66a45.92,45.92,0,0,1-.19-10.08c.65-5.13,2.82-9.52,4.93-14.16,1.73-3.8,3.57-7.49,5.52-11.14.08-.11.16-.24.25-.35C12.18,218.21,13.8,218.1,15.75,218.25Z"/>
                <path class="cls-8" d="M7.31,248.71c1.9,4.1-.09,8.85.74,13.15.47,2.44,1.16,6.69,3.81,7.82a2.61,2.61,0,0,0,1.27.24,11.1,11.1,0,0,1-3.36,4.41,3.16,3.16,0,0,1-3.85,0c-2-1.85-3.2-4.77-3.88-7.47A74.13,74.13,0,0,1,.4,255.66a45.92,45.92,0,0,1-.19-10.08c.07-.54.16-1.07.26-1.59C3.29,244.79,6.09,246.11,7.31,248.71Z"/>
                <path class="cls-9" d="M25.59,220.87a12,12,0,0,1,2.87,1.46c.12.16.23.34.34.52a13.33,13.33,0,0,1,.36,1.8c.05.48.07,1,.08,1.43-.2,1.19-.41,2.38-.68,3.56A86.59,86.59,0,0,1,26,238.28c-.49,1.43-1.09,2.88-1.57,4.35,0,0,0,0,0,0-2.15-2.3-5.07-5.34-5.45-8.1-.63-4.71,2.62-9.87,5.46-14Z"/>
                <path class="cls-8" d="M15.75,218.25a14.55,14.55,0,0,1,3.24.83c.42.13.84.24,1.26.35a4.17,4.17,0,0,1,1.13.18l.76.23c-.08.19-.15.36-.21.47a11,11,0,0,1-4.17,5c-2.7,1.64-7.74,4.4-11.52,3.8,1.41-3,2.87-5.93,4.42-8.83.08-.11.16-.24.25-.35C12.18,218.21,13.8,218.1,15.75,218.25Z"/>
                <path class="cls-10" d="M15.85,218.27A14.18,14.18,0,0,0,13,221.49a54.26,54.26,0,0,0-4.64,8c-2.7,5.91-6,12.25-6.42,18.85-.47,6.94,1.18,14.05,3.56,20.51.63,1.72,1.42,4.39,3.22,5.27a3.19,3.19,0,0,0,.89.29,3.15,3.15,0,0,1-3.68-.1c-2-1.85-3.2-4.77-3.88-7.47A74.13,74.13,0,0,1,.4,255.66a45.92,45.92,0,0,1-.19-10.08c.65-5.13,2.82-9.52,4.93-14.16,1.73-3.8,3.57-7.49,5.52-11.14.08-.11.16-.24.25-.35,1.27-1.72,2.89-1.83,4.84-1.68Z"/>
                <path class="cls-11" d="M18.05,238.31c1.67-.09,3.41,1.5,4.35,2.75a2.68,2.68,0,0,1,.25.39c.56.74,1.26,1.74.84,2.45-.08.13-.3.21-.41.11l0,0s0,0,0,0v0s0,0,0,0v-.06s0,0,0,0v0a.26.26,0,0,1,0-.15.83.83,0,0,0-.18-.46c-.11-.19-.22-.39-.34-.58a8.7,8.7,0,0,0-1.22-1.54A14.11,14.11,0,0,0,19.94,240a11.43,11.43,0,0,1,1.38,4c.09.46.42,1.94,0,2.24a.56.56,0,0,1-.39.11l-.07,0a4.82,4.82,0,0,1-.77.05,6.16,6.16,0,0,1-.72.06,5.44,5.44,0,0,1-1.35-.1A19.67,19.67,0,0,1,19.24,250a4.15,4.15,0,0,1,.16.42c.11,0,.13.18.09.3a.26.26,0,0,1-.08.22.34.34,0,0,1-.09.19.6.6,0,0,1-.59.38,5.41,5.41,0,0,1-2,.73,16.3,16.3,0,0,1-2.31.35c.41.22.82.46,1.18.69a5.77,5.77,0,0,1,1,.85c.68.5,1.07,1.06.4,1.54a.32.32,0,0,1-.39,0c-.55-.39-.95-.9-1.52-1.28-.81-.55-1.56-1.16-2.39-1.69a.31.31,0,0,1-.14-.4.74.74,0,0,1,.2-.9c1.32-.53,3.07-.29,4.39-.8h.09l.82-.12c-.65-1.26-1.38-2.49-2.15-3.69,0-.06-.07-.14-.12-.22-.58-.46-1.24-1.31-.25-1.71a2.86,2.86,0,0,1,1.63.15c.64.16,1.26.31,1.89.44l.23,0,1,.06c-.77-2.17-1.76-4.17-2.67-6.28h0a.56.56,0,0,1,.19-.62A.35.35,0,0,1,18.05,238.31Z"/>
                <path class="cls-11" d="M2.16,256.11a80.06,80.06,0,0,0,2.27,9.41,34.46,34.46,0,0,0,1.74,4.94c.77,1.58,1.28,3.23,3.14,3.85h0c-2.88-.79-3.75-4.66-4.59-7.13a71,71,0,0,1-2.59-11.06A0,0,0,0,1,2.16,256.11Z"/>
              </g>
              <path class="cls-3" d="M123.27,264.77a9.94,9.94,0,0,1-2.68,1.31c-6,1.77-7.37-8.5-7.18-12.4s1.06-8,1.39-11.94c1.29-10.86,6.35-52,11.45-72l48.28,3.24a305.7,305.7,0,0,1-41.6,78.89C130.35,255.33,127,259.77,123.27,264.77Z"/>
              <path class="cls-3" d="M27,224.6l29.43,3.83c9.06,1.18,18.22,1.94,27.19,3.72a71.83,71.83,0,0,1,15.16,4.65c6.61,2.93,12.94,6.44,19.48,9.52.69.33,2.3.73,2.82,1.33,3.63,4.19,7.63,9.2,4,14.81-1.84,2.86-5,4-8.21,4.27-29-9.36-92.65-30.8-92.65-30.8S21.88,228.53,27,224.6Z"/>
            </g>
            <g>
              <g>
                <path class="cls-7" d="M206.59,369.2a14.27,14.27,0,0,1-.38-3.32c0-.44-.08-.87-.13-1.31a4.06,4.06,0,0,1-.23-1.12c-.09-1.46-.27-2.91-.33-4.37a12.15,12.15,0,0,1,.34-3.21,5.74,5.74,0,0,1,.36-.5,14.63,14.63,0,0,1,1.56-1c.43-.22.87-.41,1.31-.59,1.18-.24,2.37-.46,3.56-.63a87.28,87.28,0,0,1,9-.68c1.51-.05,3.08,0,4.63-.08a12.23,12.23,0,0,1,1.25.52,9.58,9.58,0,0,0,4.43,1.49,79.38,79.38,0,0,0,10.56.52c3.46,0,6.64-1,10-1.56,2.67-.47,6.25-.15,8.58,1.39a3.15,3.15,0,0,1,1.38,3.59c-1,2.56-3.31,4.69-5.6,6.29a75.12,75.12,0,0,1-9.87,5.54,46.21,46.21,0,0,1-9.35,3.77c-5,1.23-9.9.76-15,.44-4.16-.25-8.27-.65-12.37-1.17l-.42-.1C207.82,372.56,207.14,371.08,206.59,369.2Z"/>
                <path class="cls-8" d="M238.06,366.21c3.14-3.24,8.29-3.08,12-5.39,2.11-1.3,5.84-3.47,5.95-6.35a2.55,2.55,0,0,0-.24-1.27,11,11,0,0,1,5.32,1.57,3.15,3.15,0,0,1,1.38,3.59c-1,2.56-3.31,4.69-5.6,6.29a75.12,75.12,0,0,1-9.87,5.54,46.21,46.21,0,0,1-9.35,3.77c-.53.13-1,.23-1.58.32C235.82,371.36,236.06,368.27,238.06,366.21Z"/>
                <path class="cls-9" d="M205.52,359.08a12.15,12.15,0,0,1,.34-3.21,5.74,5.74,0,0,1,.36-.5,14.63,14.63,0,0,1,1.56-1c.43-.22.87-.41,1.31-.59,1.18-.24,2.37-.46,3.56-.63a87.28,87.28,0,0,1,9-.68c1.51-.05,3.08,0,4.63-.08h0a15.15,15.15,0,0,1-5.88,6.68c-4.18,2.27-9.89,2.38-14.8,1.22C205.58,359.9,205.54,359.49,205.52,359.08Z"/>
                <path class="cls-8" d="M206.59,369.2a14.27,14.27,0,0,1-.38-3.32c0-.44-.08-.87-.13-1.31a4.06,4.06,0,0,1-.23-1.12l-.06-.79.51,0a11.12,11.12,0,0,1,6.17,2.11c2.49,1.94,6.87,5.66,7.65,9.4-3.29-.25-6.56-.56-9.82-1l-.42-.1C207.82,372.56,207.14,371.08,206.59,369.2Z"/>
                <path class="cls-10" d="M206.57,369.1a14.34,14.34,0,0,0,4,1.53,54.49,54.49,0,0,0,9.15,1.46c6.49.42,13.57,1.21,19.89-.73,6.65-2,12.7-6.12,17.89-10.66,1.38-1.2,3.59-2.89,3.78-4.88a3.14,3.14,0,0,0-.05-.93,3.15,3.15,0,0,1,1.22,3.47c-1,2.56-3.31,4.69-5.6,6.29a75.12,75.12,0,0,1-9.87,5.54,46.21,46.21,0,0,1-9.35,3.77c-5,1.23-9.9.76-15,.44-4.16-.25-8.27-.65-12.37-1.17l-.42-.1c-2.06-.57-2.74-2.05-3.29-3.93C206.58,369.17,206.58,369.13,206.57,369.1Z"/>
                <path class="cls-11" d="M224.5,359.89c-.68-1.52.18-3.72,1-5.05a3.24,3.24,0,0,1,.27-.37c.49-.78,1.18-1.79,2-1.65.15,0,.31.2.25.34l.06,0s0,0,0,0h0l-.06,0,0,0,0,0a.32.32,0,0,1-.14,0,.9.9,0,0,0-.37.33c-.14.18-.28.35-.41.53a8.31,8.31,0,0,0-1,1.69,15.61,15.61,0,0,0-.61,1.67,11.78,11.78,0,0,1,3.23-2.71c.39-.24,1.65-1.08,2.09-.79a.58.58,0,0,1,.24.32l.06.06a4.38,4.38,0,0,1,.32.69,6.57,6.57,0,0,1,.32.66,5.66,5.66,0,0,1,.38,1.3,20,20,0,0,1,2.94-2.43,2.62,2.62,0,0,1,.33-.3c0-.12.12-.19.25-.19a.21.21,0,0,1,.23,0,.42.42,0,0,1,.22,0,.62.62,0,0,1,.57.41,5.68,5.68,0,0,1,1.4,1.63,15.7,15.7,0,0,1,1.15,2c0-.46.14-.93.22-1.35a6.1,6.1,0,0,1,.44-1.24c.22-.81.61-1.38,1.29-.92a.34.34,0,0,1,.15.37c-.17.65-.51,1.2-.66,1.87-.22.95-.53,1.88-.72,2.84a.32.32,0,0,1-.33.27.73.73,0,0,1-.91.13c-1-1-1.36-2.76-2.32-3.81l0-.08c-.14-.24-.28-.48-.41-.72-.94,1.05-1.84,2.17-2.68,3.32l-.17.2c-.21.7-.77,1.62-1.5.84a2.79,2.79,0,0,1-.44-1.58c-.08-.65-.16-1.28-.27-1.92l-.06-.22c-.09-.31-.2-.62-.29-.93-1.76,1.49-3.26,3.13-4.91,4.74h0a.57.57,0,0,1-.65,0A.34.34,0,0,1,224.5,359.89Z"/>
                <path class="cls-11" d="M246.8,368.38a80.65,80.65,0,0,0,8-5.48,35.79,35.79,0,0,0,4-3.39c1.2-1.29,2.56-2.36,2.48-4.31h0c.29,3-3,5.16-5,6.83a69.23,69.23,0,0,1-9.4,6.36S246.79,368.39,246.8,368.38Z"/>
              </g>
              <path class="cls-3" d="M215.8,256.84a9.47,9.47,0,0,1-.26,3c-1.6,6.07-11.08,1.92-14.32-.26s-6.27-5-9.51-7.36c-8.64-6.7-41.3-32.3-55.79-47l19.6-33.4c11,13.26,39.34,34.15,54.19,70.08C211.37,245.9,213.46,251,215.8,256.84Z"/>
              <path class="cls-3" d="M208.52,356.46l-14.68-61.1,2.62-35c.26-6.76,5.87-10.41,12.39-9,3.33.7,5.51,3.23,6.92,6.14,1.62,30.44,4.32,97.54,4.32,97.54S214,359.8,208.52,356.46Z"/>
            </g>
            <path class="cls-12" d="M192.48,259.1c-14.12-14.32-59.45-53.44-63.55-71.65l49-15.79c-1.27,8.3-2.44,11.34-1.41,13.09,3.4,5.74,30.83,34.93,39.7,64.51C215.41,250.35,205.77,265.8,192.48,259.1Z"/>
            <path class="cls-13" d="M107.17,239.64c3.73-18.08,11.64-56.19,19.22-80.34L177.94,174c-5.62,11.12-31.68,67.6-54.48,92.61C123.16,266.57,108.58,273.17,107.17,239.64Z"/>
            <path class="cls-12" d="M214.87,248.45l1.39.81a51.72,51.72,0,0,1,1.53,8.91c.59,5.87,6.87,94.5,6.87,94.5s-5.69,10-21.46,5.62c0,0-11-55.61-12-71.4a228.34,228.34,0,0,1,.14-29.71S201.38,242.94,214.87,248.45Z"/>
            <path class="cls-13" d="M123.63,264.12l-.17,2.46s-3.07,1.68-8.39.57-92.42-25.7-92.42-25.7-4.73-11.51,6.1-20.64c0,0,41,7.12,54.91,9.22s29.06,13.26,29.06,13.26S125,251.81,123.63,264.12Z"/>
          </g>
          <g>
            <g>
              <g>
                <path class="cls-2" d="M116.48,114.28c-5.63,2.83-11.45,15.31-12.82,17.56a225,225,0,0,0-10.79,20.37c-3.08,6.63-4.84,11-4.58,12.18l4.17,2.35c2.64,1.6.87,2,26.35-27.52l9.13-12.79C129.37,120.43,122.1,109.65,116.48,114.28Z"/>
                <g>
                  <path class="cls-2" d="M116.78,132.64l51.84-21.76c2.7-1.91,4.76-5,3.7-11.19,0,0-2.95-9.54-14.15-5.91L115.5,115.36C110.75,120.6,111.08,133.55,116.78,132.64Z"/>
                  <path class="cls-14" d="M129.94,105.75l23.54-12.66c18.89-6.92,22.65,3.29,22.65,3.29s2,8.72-5,14.79c-7.36,6.4-32.21,13.24-32.21,13.24C132.83,119.21,127.73,112.88,129.94,105.75Z"/>
                </g>
              </g>
              <path class="cls-2" d="M74.08,182.79a11.75,11.75,0,0,0,.31,1.79c.47,1.76,1.19,1.69,2.74,1.28,0,0,0,0,0,0a3.31,3.31,0,0,0,.28,1.37,2.79,2.79,0,0,0,1.91,1.63c.68.19,1.25-.37,1.9-.34a3.14,3.14,0,0,0,1.16,1.86c1.16.75,4.23.25,5.36-.34,3.37-1.76,6.08-5.41,7.45-9.19.8-1.3,1.49-2.7,2.2-3.86,1.21-1.94,1-4.8.79-7-.12-1.26-.14-2.64-.38-3.93a5.94,5.94,0,0,0-3.16-5.47c-2.64-1.32-4.69-.7-6.78.5a30.4,30.4,0,0,0-8.59,4.59,11.94,11.94,0,0,0-4.5,7.35,5.61,5.61,0,0,0-1.54,1C71.81,175.54,70.41,183.33,74.08,182.79Z"/>
              <g>
                <path class="cls-15" d="M78.26,174.27a15.28,15.28,0,0,0-4,7.68,3.91,3.91,0,0,0,0,.48,17,17,0,0,1,2.75-6.4c1.07-1.39,5.43-5.75,5.93-1a6.87,6.87,0,0,0-.72.48c-2.93,2.26-4.65,6.48-5.36,10a.63.63,0,0,0,.08.22,0,0,0,0,1,0,0h0c.71-2.32,1.54-5.49,3.12-7.37a12.39,12.39,0,0,1,2.92-3c1.8-1,2.87-.19,2.78,1.5A8.6,8.6,0,0,0,84.72,178a7.84,7.84,0,0,0-1.32,2.27,3.32,3.32,0,0,0-2.11,2c-.86,2.29.82,1.93,2.69,2.09a15.85,15.85,0,0,1,3.43.94,6.06,6.06,0,0,1-.86,3.19s0,0,0,0a4.05,4.05,0,0,0,1-3.15,3.59,3.59,0,0,0,4-.83,39.28,39.28,0,0,0,6-8.32h0A54.56,54.56,0,0,1,93,182.72c-1.77,2.05-3,3.1-6,2.23a12.64,12.64,0,0,0-2.54-.78c-.57,0-1.18,0-1.77-.09a1.39,1.39,0,0,1-.76,0,1,1,0,0,1-.6-1c-.18-.67.32-1.23.93-1.65a2.67,2.67,0,0,1,.62-.41l.3-.1.37-.16c1-.39,2.09-.54,3.1-.91a7.29,7.29,0,0,0,2.72-2.07c1-3-.31-6.59,1.53-9.5,0,0,0,0,0,0-1.88,2.73-1.1,6.1-1.82,9.11a3.1,3.1,0,0,1-.21.36,1.31,1.31,0,0,0-.16-.4,2,2,0,0,0-1.78-.93,1.82,1.82,0,0,0-1,.43c.17-.9.32-1.56-.45-2.14s-1.66-.12-2.42.33c.07-2.8-2.08-3-4-1.43a7.41,7.41,0,0,0-.72.65c0-.65.14-1.53-.65-1.72a4.31,4.31,0,0,0-2,.11,5.4,5.4,0,0,1-.61.56,7.39,7.39,0,0,1,2.25-.42C78.25,172.8,78.15,173.57,78.26,174.27Zm8.15,2.7A1.28,1.28,0,0,1,88,177a1.13,1.13,0,0,1,.69,1c-1.16,1.59-3.35,1.64-5.1,2.26a9.46,9.46,0,0,1,1.63-2.19A6.5,6.5,0,0,1,86.41,177Z"/>
                <path class="cls-15" d="M81.39,187.42a9.67,9.67,0,0,1,.91-2.94c0-.08.16,0,.13.11a13.9,13.9,0,0,0-.68,2.28c-.23.85-.63,1.82-.1,2.67,0,0,0,0,0,0A2.7,2.7,0,0,1,81.39,187.42Z"/>
              </g>
            </g>
            <g>
              <path class="cls-16" d="M127.76,154.11c4.39-8.25,7-12.49,8.73-21.74a302.52,302.52,0,0,1,7.28-30.47A38,38,0,0,1,146,98.16a36.82,36.82,0,0,1,9.59-12.86c4.28-3.45,9.47-1.63,16.28,2.92a33.16,33.16,0,0,1,8.58,9.17c.58.88,1.2,1.78,1.86,2.72,2.73,10.52,6.77,20.4,5.68,31.76-.82,8.55-2.7,16.93-4.43,25.32-1.35,6.5-2,11.17-3.63,17.61-1.43,5.58-2,12.11-5.51,16.89-5.63,7.69-16.66,8.17-25.25,8.39-8.4.22-18.52-.09-26-4.35C110.87,188.76,123,163.05,127.76,154.11Z"/>
              <path class="cls-17" d="M127.76,154.11c4.39-8.25,7-12.49,8.73-21.74a302.52,302.52,0,0,1,7.28-30.47A38,38,0,0,1,146,98.16a36.82,36.82,0,0,1,9.59-12.86A7.66,7.66,0,0,1,161,83.52c.51,2.78,1.15,5.54,1.67,8.33a53.48,53.48,0,0,1-.81,22c-1.57,7-3.77,13.79-5.84,20.63-1.87,6.2-3.48,12.46-6,18.46-2.61,6.36-6.16,12.22-9.12,18.41a64.56,64.56,0,0,0-4.86,14.58,77.58,77.58,0,0,0-2,13.4,33,33,0,0,1-10.88-3.59C110.87,188.76,123,163.05,127.76,154.11Z"/>
              <path class="cls-18" d="M181,98.24s1-4.73,1.08-6.49S165.32,79.5,158,79.53a40.2,40.2,0,0,0-3.79,7S169.08,90.7,181,98.24Z"/>
            </g>
            <g>
              <g>
                <g>
                  <path class="cls-3" d="M208.78,140c-4.68,3.25-7.59-3.48-8.27-6.84-1.68-8.22,7.28-14.74,12.22-20.12,15.11-14.83,19.35-20.26,22.05-23.33a3.89,3.89,0,0,1,3.57.28,4.89,4.89,0,0,1,2.14,3.55c-.08,1.74-1.15,4.16-4,9.1a225.07,225.07,0,0,1-12.44,19.41C222.54,124.2,214.63,137.67,208.78,140Z"/>
                  <path class="cls-3" d="M215.53,129.44s-33.79-26.34-41.25-31.66c0,0-13.19,9.91-10.27,13.71l39.19,28.2C209.7,143.57,216,132.4,215.53,129.44Z"/>
                </g>
                <path class="cls-19" d="M158.86,95.49s3.22-3.68,11.84-2.31c8.3,1.33,26.67,21.32,30.49,24.74-5.37,4.19-8.26,6.5-11.45,12.5-1.16,2.21-1.1,1.5-2.25,4.12L160.44,115C151.29,102.36,158.86,95.49,158.86,95.49Z"/>
              </g>
              <g>
                <path class="cls-3" d="M227.85,99.67c-.69-1.33.46-3.23,1-4.65.3-3.7,1.09-7.45,1.4-11.13a26,26,0,0,1,4.1-12.25c2.19-3.31,5.16-3.55,8.83-3.88,2.36-.22,7.18-1.49,7.64,2a12.08,12.08,0,0,1,2.48,0c1.78.19,3.71,1.77,3.07,3.73,0,0,0,0,0,0,1.81.1,3.15,1,3.29,3.78a1.11,1.11,0,0,1,.45.28,4.1,4.1,0,0,1,.68,1c0,1.16.16,2.35.24,3.51,0,.27-.05.55-.09.83a.28.28,0,0,0-.09.16c-.38,1.55-1.07,3.18-2.67,3.84-1.05.42-2.58,1-3.54,0-.19-.2-.87-.31-.89.11-.06.94-.16,1.89-.29,2.84A11.75,11.75,0,0,1,252,92.33c-2.92,3.87-6,6.78-10.78,7.83-.79.18-1.59.32-2.39.44a5.94,5.94,0,0,0-3.52,1.83,3.55,3.55,0,0,1-3.36.35A7.09,7.09,0,0,1,227.85,99.67Z"/>
                <path class="cls-15" d="M249.83,78.38c1.56-.74,3.28-.55,5-.81s3.59-.95,5.22,0c0,0,0,0,0,0-1.7-.71-3.73,0-5.49.25-1.55.22-3.22,0-4.68.55A0,0,0,1,1,249.83,78.38Z"/>
                <path class="cls-15" d="M247.06,74.33a7.9,7.9,0,0,1,2.28,0,26.59,26.59,0,0,0,3.32-.39c1.52-.23,3.55-.67,5,0,0,0,0,0,0,0-1.54-.58-3.84,0-5.43.22-.94.14-1.93.28-2.88.33a22.1,22.1,0,0,0-2.29-.06A0,0,0,0,1,247.06,74.33Z"/>
                <path class="cls-15" d="M243.81,70.56c1.57,1,4.33,0,5.89-.53a7.35,7.35,0,0,1,4-.13,0,0,0,0,1,0,0c-2.17-.29-4,.45-6.13.83-1.22.22-2.68.59-3.76-.21C243.79,70.56,243.8,70.55,243.81,70.56Z"/>
                <path class="cls-15" d="M240.08,70a2.15,2.15,0,0,1-.75-.21s0,0,0,0c.41.2.91.07,1.32.31a2.5,2.5,0,0,1,.93,1.48c0,.07-.07.09-.11,0C241.05,70.89,241,70.18,240.08,70Z"/>
                <path class="cls-15" d="M244.53,75.08s0,0,0,0c.33.26.77.38.85.86,0,0-.07.06-.09,0A2.42,2.42,0,0,0,244.53,75.08Z"/>
                <path class="cls-15" d="M252.62,90.84c.93-1.26.88-2.91,1.2-4.41a2.18,2.18,0,0,1,0-.38c0-.08.09-.09.14,0a2.52,2.52,0,0,1,.45-1.33,3.72,3.72,0,0,1,1.27-1.13,4.16,4.16,0,0,0,1.32-.87s0,0,0,0c-.18.42-.88.71-1.2,1a3.44,3.44,0,0,0-1.54,3c1.27,1.91,5.4,0,5.91-1.57a17.31,17.31,0,0,0,.68-3.41h0c-.21,2.35-.22,4.31-2.61,5.45-1.16.54-3.67,1-4.31-.41-.06.42-.1.84-.15,1.22a4.64,4.64,0,0,1-1.07,3S252.58,90.9,252.62,90.84Z"/>
              </g>
            </g>
          </g>
        </g>
      </g>
    </g>
  </g>
</svg>
