<svg width="158" height="158" viewBox="0 0 158 158" fill="none" xmlns="http://www.w3.org/2000/svg">
<circle cx="79" cy="79" r="79" fill="#F3F9F1"/>
<mask id="mask0_1:127" style="mask-type:alpha" maskUnits="userSpaceOnUse" x="0" y="0" width="158" height="158">
<circle cx="79" cy="79" r="79" fill="#F3F9F1"/>
</mask>
<g mask="url(#mask0_1:127)">
<rect x="-1" y="107" width="159" height="61" fill="#DAEED3"/>
</g>
<g clip-path="url(#clip0_1:127)">
<path d="M108.821 80.479L108.963 80.513L109.033 76.2308L106.144 74.1327L105.932 73.9522C105.955 72.5015 105.95 71.1855 105.932 70.0256C105.893 67.5931 105.811 66.9924 105.461 66.2856C105.085 65.7143 104.743 65.1215 104.437 64.5101C104.161 63.7373 104.01 62.9256 103.988 62.1053C103.874 60.9023 103.648 59.7124 103.314 58.5511C102.875 57.126 102.24 55.7687 101.427 54.5183C100.897 53.6622 100.305 52.8464 99.6548 52.0774C98.4742 50.7332 97.1544 49.5179 95.7175 48.4521C95.3099 48.1337 94.2922 47.3505 91.6252 45.5867C89.9272 44.4586 88.695 43.6881 85.9856 41.9954C83.7188 40.5701 81.8361 39.3995 80.5169 38.577H76.2071C73.4648 40.3366 71.2966 41.7131 69.987 42.5462C69.0796 43.1235 65.6687 45.2895 61.5967 48.1868C60.1723 49.1139 58.8793 50.2287 57.7527 51.5011C56.7613 52.7081 55.9117 54.0249 55.2206 55.4257C54.503 56.7539 53.9169 58.149 53.4705 59.5912C53.2456 60.312 53.0722 61.0479 52.9516 61.7933C52.8964 62.1563 52.9123 62.4821 52.7881 64.4125C52.7881 64.4497 52.7786 64.5579 52.7765 64.5972L51.7513 65.425C51.6076 65.5351 51.4935 65.6791 51.4191 65.8442C51.3694 65.9532 51.3386 66.0698 51.3278 66.1891C51.2949 66.5159 51.2472 67.7184 51.2132 69.3432L51.0922 74.0127L48.0995 76.062V80.5586L48.2056 80.5257C47.9095 81.6661 47.7573 82.8391 47.7524 84.0173C47.7351 85.6229 48.0622 87.2135 48.7118 88.6819C49.3613 90.1504 50.3182 91.4624 51.5178 92.5297C52.9322 93.571 54.4404 94.4784 56.0229 95.2402V95.2402C56.0982 95.2731 59.8944 97.0231 61.7325 98.0504C60.721 94.7059 60.2009 91.2322 60.1884 87.7381V87.2924H60.1979V87.0801C60.1979 81.1444 72.1807 79.1259 78.2872 79.1259C84.3651 79.1259 96.3765 81.1349 96.3765 87.0801V87.2924H96.3861V87.7392C96.3759 91.3388 95.8242 94.9164 94.7496 98.3518C101.35 94.5726 109.244 93.3426 109.244 83.8305C109.24 82.6967 109.097 81.5677 108.82 80.4684L108.821 80.479Z" fill="#5A8648"/>
<path d="M52.4273 74.0435C52.4401 74.2069 53.3825 74.3098 71.1651 73.9978C85.9337 73.7378 85.9241 73.6572 90.5937 73.6699C100.039 73.7092 104.74 74.0583 104.774 73.6699C104.808 73.2815 100.037 72.3444 95.2442 72.0589C94.3654 72.0069 93.4793 71.992 91.742 71.9676C83.5002 71.8445 79.3474 71.783 77.7916 71.783C73.1592 71.783 70.8424 71.783 68.7708 71.8742C60.5269 72.2446 52.3881 73.551 52.4273 74.0435Z" fill="#365731"/>
<path d="M76.3218 37.9562C76.8576 37.5275 77.2561 36.9512 77.4679 36.2985C77.6399 35.9081 77.6884 35.4745 77.607 35.0557C77.4826 34.7432 77.3898 34.4189 77.33 34.0879C77.2942 33.9289 77.2942 33.764 77.33 33.605C77.382 33.4416 77.4658 33.3853 77.8213 32.9597C77.9423 32.8385 78.0376 32.6941 78.1015 32.5352C78.1164 32.4928 78.2246 32.1574 78.0782 32.029C77.9317 31.9006 77.712 32.0916 77.5953 31.9834C77.4786 31.8751 77.5624 31.5132 77.7333 31.2702C77.9328 30.9826 78.1217 31.0166 78.2161 30.7788C78.2487 30.6548 78.2554 30.5254 78.2357 30.3986C78.2159 30.2719 78.1703 30.1506 78.1015 30.0423C77.92 29.6613 77.7418 29.6581 77.504 29.3058C77.2911 28.9838 77.1717 28.6091 77.1591 28.2233C77.1514 27.8207 77.2542 27.4236 77.4565 27.0753C77.6588 26.7271 77.9527 26.441 78.3063 26.2483C78.8051 25.9851 79.3602 25.9586 79.3888 26.036C79.4175 26.1135 79.0354 26.1751 78.698 26.5433C78.4199 26.8555 78.2577 27.2538 78.2384 27.6715C78.2159 27.8469 78.2308 28.0251 78.2822 28.1943C78.3336 28.3635 78.4203 28.5199 78.5366 28.6531C78.7674 28.851 79.0626 28.9575 79.3665 28.9524C79.7426 28.9993 80.1229 28.9096 80.4384 28.6998C80.4575 28.6786 80.4904 28.6446 80.517 28.6521C80.604 28.6818 80.6157 29.1922 80.3779 29.5732C80.2851 29.7238 80.1614 29.8529 80.0151 29.9522C79.8688 30.0516 79.7031 30.1188 79.5289 30.1495C79.2731 30.1835 79.1299 30.1007 78.9983 30.2185C78.9391 30.2822 78.899 30.3612 78.8825 30.4466C78.866 30.5319 78.8737 30.6202 78.9049 30.7014C78.9569 30.8351 79.0354 30.8277 79.2328 31.0463C79.3426 31.1587 79.4288 31.2918 79.4865 31.4379C79.5013 31.4793 79.617 31.8146 79.4865 31.9293C79.4196 31.9844 79.3474 31.9293 79.0492 31.9293C78.8858 31.9293 78.7924 31.9293 78.75 31.977C78.6746 32.0577 78.7266 32.2147 78.8189 32.4832C78.8752 32.6683 78.9525 32.8464 79.0492 33.0139C79.2275 33.3185 79.3018 33.2951 79.3941 33.5212C79.4619 33.6969 79.493 33.8848 79.4854 34.073C79.4698 34.2047 79.4468 34.3355 79.4164 34.4646C79.397 34.6866 79.3892 34.9094 79.3931 35.1322C79.3624 35.3237 79.3539 35.5181 79.3676 35.7116C79.4039 35.8871 79.4738 36.054 79.5735 36.203C79.7413 36.4531 79.926 36.6913 80.1264 36.9161C80.2977 37.1429 80.4228 37.4011 80.4947 37.676C80.5649 37.9708 80.5649 38.278 80.4947 38.5728H76.3218V37.9562Z" fill="#B17A43"/>
<path d="M92.6812 99.5861C93.8443 96.6699 94.5488 93.5911 94.7698 90.4592C91.6125 93.5549 84.9477 95.1002 78.2893 95.1002C71.6309 95.1002 64.9545 93.5539 61.8026 90.4624C62.0229 93.4702 62.6818 96.4295 63.7585 99.2465C71.6373 104.064 76.0352 108.399 78.4039 118.037V118.91C78.4347 118.761 78.4708 118.614 78.5101 118.465C78.544 118.614 78.5791 118.761 78.6162 118.91V118.037C79.6109 113.767 81.5149 109.762 84.1985 106.294C86.7567 103.737 89.6034 101.486 92.6812 99.5861V99.5861Z" fill="#FF4444"/>
<path d="M57.8122 98.7551C52.3414 96.5859 48.8317 93.7746 47 90.9399C47.797 97.7034 48.524 102.787 48.524 102.787C48.5241 110.455 51.5182 117.821 56.8686 123.314C62.219 128.808 69.5028 131.995 77.1686 132.198C77.464 130.379 77.6148 128.539 77.6197 126.696C77.6218 106.518 61.6763 100.543 57.8122 98.7551Z" fill="#FF4444"/>
<path d="M79.3803 126.695C79.3853 128.538 79.5354 130.377 79.8292 132.197C87.4951 131.994 94.7791 128.807 100.13 123.313C105.48 117.82 108.475 110.454 108.475 102.786C108.475 102.786 109.203 97.7034 110.001 90.9388C103.381 101.206 79.3803 99.567 79.3803 126.695Z" fill="#FF4444"/>
<path d="M78.2861 93.6122C87.2496 93.6122 93.5408 90.8752 94.687 88.0331C91.639 90.5526 85.2268 91.6903 79.3665 91.6903C76.7011 91.7249 74.0409 91.4453 71.441 90.8572C67.7021 89.8755 66.003 88.3462 66.003 86.8552C66.003 85.1868 68.635 82.4159 76.7908 82.4159C83.2858 82.4159 86.1374 84.1935 86.1374 85.8448C86.1374 87.2786 83.9862 88.6179 80.2007 88.6179C78.9811 88.6096 77.7648 88.4903 76.5669 88.2613C75.8696 88.1388 75.1916 87.9247 74.5505 87.6245C73.9859 87.3285 73.5211 86.9698 73.5211 86.5102C73.5226 86.4189 73.5409 86.3286 73.5752 86.2438C73.5525 86.3065 73.5403 86.3725 73.5391 86.4391C73.5391 87.2446 75.3772 87.7307 76.6242 87.8697C77.1609 87.9236 77.7 87.9498 78.2395 87.9483C81.5464 87.9483 85.0772 87.0345 85.0772 85.918C85.0772 85.5338 84.6527 85.1221 83.6562 84.7178C81.6725 84.0454 79.5849 83.7316 77.4913 83.7913C72.5999 83.7913 67.4602 85.0648 67.4602 86.7702C67.4602 87.147 67.7127 87.545 68.2784 87.9536C70.6503 89.7047 75.8824 90.56 81.177 90.56C86.6956 90.56 92.2737 89.6335 94.7613 87.8326C94.8443 87.5743 94.8873 87.3048 94.8886 87.0334C94.8886 83.2851 86.3582 80.6117 78.2819 80.6117C68.3474 80.6117 61.6741 83.9727 61.6741 87.112C61.6741 90.2512 68.3516 93.6122 78.2861 93.6122Z" fill="#FF4444"/>
</g>
<defs>
<clipPath id="clip0_1:127">
<rect width="63" height="106.198" fill="white" transform="translate(47 26)"/>
</clipPath>
</defs>
</svg>
