<svg width="158" height="158" viewBox="0 0 158 158" fill="none" xmlns="http://www.w3.org/2000/svg">
<circle cx="79" cy="79" r="79" fill="#DAEED3"/>
<g clip-path="url(#clip0_1:249)">
<path d="M108.821 80.4791L108.963 80.5131L109.033 76.2308L106.144 74.1327L105.932 73.9523C105.955 72.5015 105.95 71.1856 105.932 70.0256C105.893 67.5932 105.811 66.9925 105.461 66.2857C105.085 65.7144 104.743 65.1215 104.437 64.5102C104.161 63.7373 104.01 62.9257 103.988 62.1054C103.874 60.9023 103.648 59.7125 103.314 58.5512C102.875 57.126 102.24 55.7688 101.427 54.5184C100.897 53.6623 100.305 52.8465 99.6548 52.0775C98.4742 50.7332 97.1544 49.518 95.7175 48.4522C95.3099 48.1338 94.2922 47.3506 91.6252 45.5868C89.9272 44.4586 88.695 43.6881 85.9856 41.9954C83.7188 40.5701 81.8361 39.3996 80.5169 38.5771H76.2071C73.4648 40.3367 71.2966 41.7131 69.987 42.5462C69.0796 43.1236 65.6687 45.2896 61.5967 48.1869C60.1723 49.1139 58.8793 50.2287 57.7527 51.5012C56.7613 52.7082 55.9117 54.025 55.2206 55.4258C54.503 56.754 53.9169 58.1491 53.4705 59.5912C53.2456 60.3121 53.0722 61.048 52.9516 61.7934C52.8964 62.1563 52.9123 62.4821 52.7881 64.4126C52.7881 64.4497 52.7786 64.558 52.7765 64.5972L51.7513 65.425C51.6076 65.5352 51.4935 65.6792 51.4191 65.8442C51.3694 65.9532 51.3386 66.0698 51.3278 66.1891C51.2949 66.516 51.2472 67.7184 51.2132 69.3432L51.0922 74.0128L48.0995 76.0621V80.5587L48.2056 80.5258C47.9095 81.6662 47.7573 82.8392 47.7524 84.0174C47.7351 85.6229 48.0622 87.2136 48.7118 88.682C49.3613 90.1504 50.3182 91.4625 51.5178 92.5298C52.9322 93.5711 54.4403 94.4785 56.0229 95.2403C56.0982 95.2732 59.8944 97.0232 61.7325 98.0505C60.721 94.706 60.2009 91.2323 60.1884 87.7382V87.2924H60.1979V87.0802C60.1979 81.1445 72.1807 79.126 78.2872 79.126C84.3651 79.126 96.3765 81.135 96.3765 87.0802V87.2924H96.3861V87.7392C96.3759 91.3388 95.8242 94.9164 94.7496 98.3519C101.35 94.5727 109.244 93.3427 109.244 83.8306C109.24 82.6968 109.097 81.5678 108.82 80.4685L108.821 80.4791Z" fill="#5A8648"/>
<path d="M52.4273 74.0436C52.44 74.207 53.3824 74.3099 71.165 73.9979C85.9336 73.7379 85.9241 73.6573 90.5937 73.67C100.039 73.7093 104.74 74.0584 104.774 73.67C104.808 73.2816 100.037 72.3445 95.2441 72.059C94.3654 72.007 93.4792 71.9921 91.7419 71.9677C83.5001 71.8446 79.3474 71.7831 77.7916 71.7831C73.1591 71.7831 70.8424 71.7831 68.7708 71.8743C60.5269 72.2447 52.388 73.5511 52.4273 74.0436Z" fill="#365731"/>
<path d="M76.3217 37.9563C76.8576 37.5276 77.2561 36.9513 77.4679 36.2986C77.6398 35.9082 77.6883 35.4745 77.6069 35.0558C77.4826 34.7432 77.3898 34.419 77.3299 34.0879C77.2941 33.929 77.2941 33.764 77.3299 33.6051C77.3819 33.4416 77.4658 33.3854 77.8213 32.9598C77.9423 32.8386 78.0376 32.6942 78.1015 32.5353C78.1164 32.4928 78.2246 32.1575 78.0781 32.0291C77.9317 31.9007 77.712 32.0917 77.5953 31.9834C77.4785 31.8752 77.5624 31.5133 77.7332 31.2703C77.9328 30.9827 78.1216 31.0166 78.2161 30.7789C78.2487 30.6549 78.2554 30.5254 78.2356 30.3987C78.2159 30.2719 78.1703 30.1506 78.1015 30.0424C77.92 29.6614 77.7417 29.6582 77.504 29.3059C77.2911 28.9839 77.1717 28.6092 77.1591 28.2234C77.1513 27.8207 77.2542 27.4237 77.4565 27.0754C77.6588 26.7272 77.9527 26.4411 78.3063 26.2484C78.8051 25.9852 79.3602 25.9586 79.3888 26.0361C79.4175 26.1136 79.0354 26.1751 78.6979 26.5434C78.4199 26.8556 78.2576 27.2539 78.2384 27.6715C78.2158 27.8469 78.2307 28.0251 78.2821 28.1943C78.3336 28.3636 78.4203 28.52 78.5366 28.6532C78.7673 28.8511 79.0626 28.9576 79.3665 28.9525C79.7425 28.9993 80.1229 28.9097 80.4384 28.6999C80.4575 28.6787 80.4904 28.6447 80.5169 28.6521C80.6039 28.6818 80.6156 29.1923 80.3779 29.5733C80.285 29.7238 80.1614 29.853 80.0151 29.9523C79.8687 30.0516 79.703 30.1189 79.5289 30.1496C79.2731 30.1835 79.1298 30.1008 78.9982 30.2186C78.9391 30.2823 78.899 30.3613 78.8825 30.4466C78.866 30.532 78.8737 30.6203 78.9049 30.7014C78.9569 30.8351 79.0354 30.8277 79.2328 31.0463C79.3425 31.1587 79.4287 31.2919 79.4864 31.4379C79.5013 31.4793 79.617 31.8147 79.4864 31.9293C79.4196 31.9845 79.3474 31.9293 79.0492 31.9293C78.8858 31.9293 78.7924 31.9293 78.7499 31.9771C78.6746 32.0577 78.7266 32.2148 78.8189 32.4833C78.8752 32.6684 78.9524 32.8464 79.0492 33.0139C79.2275 33.3185 79.3018 33.2952 79.3941 33.5212C79.4619 33.697 79.4929 33.8848 79.4854 34.0731C79.4698 34.2048 79.4468 34.3356 79.4164 34.4647C79.397 34.6866 79.3892 34.9095 79.3931 35.1322C79.3624 35.3238 79.3539 35.5182 79.3676 35.7117C79.4039 35.8872 79.4738 36.0541 79.5735 36.203C79.7413 36.4531 79.926 36.6914 80.1264 36.9162C80.2976 37.143 80.4227 37.4011 80.4946 37.6761C80.5649 37.9709 80.5649 38.2781 80.4946 38.5728H76.3217V37.9563Z" fill="#B17A43"/>
<path d="M92.6812 99.5862C93.8443 96.6699 94.5488 93.5911 94.7698 90.4593C91.6125 93.555 84.9477 95.1002 78.2893 95.1002C71.6309 95.1002 64.9545 93.5539 61.8026 90.4625C62.0229 93.4702 62.6818 96.4295 63.7585 99.2465C71.6373 104.064 76.0352 108.399 78.404 118.037V118.91C78.4347 118.761 78.4708 118.614 78.5101 118.465C78.544 118.614 78.5791 118.761 78.6162 118.91V118.037C79.6109 113.767 81.5149 109.762 84.1985 106.294C86.7567 103.737 89.6034 101.486 92.6812 99.5862Z" fill="#FF4444"/>
<path d="M57.8122 98.7552C52.3414 96.586 48.8317 93.7747 47 90.94C47.797 97.7035 48.524 102.787 48.524 102.787C48.5241 110.455 51.5182 117.821 56.8686 123.314C62.219 128.808 69.5028 131.995 77.1686 132.198C77.464 130.379 77.6148 128.539 77.6197 126.696C77.6218 106.518 61.6763 100.543 57.8122 98.7552Z" fill="#FF4444"/>
<path d="M79.3803 126.695C79.3853 128.538 79.5354 130.378 79.8292 132.197C87.4951 131.994 94.7791 128.807 100.13 123.313C105.48 117.82 108.475 110.454 108.475 102.786C108.475 102.786 109.203 97.7034 110.001 90.9389C103.381 101.206 79.3803 99.567 79.3803 126.695Z" fill="#FF4444"/>
<path d="M78.2862 93.6123C87.2496 93.6123 93.5408 90.8753 94.687 88.0332C91.639 90.5526 85.2269 91.6903 79.3665 91.6903C76.7011 91.725 74.0409 91.4453 71.441 90.8572C67.7022 89.8756 66.0031 88.3463 66.0031 86.8552C66.0031 85.1869 68.635 82.4159 76.7909 82.4159C83.2858 82.4159 86.1374 84.1935 86.1374 85.8449C86.1374 87.2786 83.9862 88.6179 80.2007 88.6179C78.9811 88.6097 77.7648 88.4903 76.5669 88.2614C75.8697 88.1388 75.1917 87.9247 74.5505 87.6246C73.9859 87.3285 73.5211 86.9698 73.5211 86.5103C73.5226 86.4189 73.5409 86.3286 73.5752 86.2439C73.5525 86.3066 73.5404 86.3726 73.5391 86.4392C73.5391 87.2447 75.3772 87.7307 76.6242 87.8698C77.1609 87.9236 77.7001 87.9498 78.2395 87.9483C81.5464 87.9483 85.0772 87.0345 85.0772 85.9181C85.0772 85.5339 84.6527 85.1221 83.6562 84.7178C81.6725 84.0454 79.585 83.7317 77.4913 83.7913C72.5999 83.7913 67.4602 85.0648 67.4602 86.7703C67.4602 87.147 67.7128 87.545 68.2784 87.9536C70.6504 89.7047 75.8824 90.5601 81.1771 90.5601C86.6957 90.5601 92.2737 89.6336 94.7613 87.8326C94.8443 87.5743 94.8873 87.3048 94.8886 87.0335C94.8886 83.2851 86.3582 80.6117 78.2819 80.6117C68.3474 80.6117 61.6742 83.9728 61.6742 87.112C61.6742 90.2512 68.3516 93.6123 78.2862 93.6123Z" fill="#FF4444"/>
</g>
<defs>
<clipPath id="clip0_1:249">
<rect width="63" height="106.198" fill="white" transform="translate(47 26)"/>
</clipPath>
</defs>
</svg>
