<svg width="55" height="63" viewBox="0 0 55 63" fill="none" xmlns="http://www.w3.org/2000/svg">
<path d="M45.7694 62.4438C45.6976 62.2719 45.6457 62.0925 45.6144 61.9089C45.5994 61.8372 45.5794 61.7673 45.5577 61.6973C45.5279 61.6408 45.505 61.5809 45.4894 61.519C45.4344 61.2823 45.3661 61.0474 45.3228 60.8091C45.2874 60.6326 45.2767 60.452 45.2911 60.2725C45.3037 60.2409 45.3188 60.2102 45.3361 60.1809C45.4074 60.1079 45.4837 60.04 45.5644 59.9776C45.6294 59.9293 45.696 59.8859 45.7644 59.8443C45.9527 59.7726 46.141 59.7026 46.3326 59.6426C46.8123 59.4966 47.2996 59.377 47.7923 59.2844C48.0373 59.2344 48.2922 59.1994 48.5505 59.1444C48.6247 59.1577 48.6981 59.1749 48.7705 59.196C49.0128 59.2987 49.2764 59.341 49.5387 59.3194C50.1263 59.2895 50.7114 59.221 51.29 59.1144C51.8583 59.0194 52.3532 58.7711 52.8914 58.5828C53.318 58.4312 53.9146 58.3862 54.3395 58.5745C54.4482 58.6171 54.5399 58.6944 54.6002 58.7945C54.6604 58.8945 54.686 59.0117 54.6728 59.1277C54.5761 59.576 54.2562 59.9909 53.9246 60.3158C53.4599 60.7437 52.9636 61.1359 52.4398 61.489C51.9962 61.8335 51.5155 62.1275 51.0068 62.3655C50.2152 62.6988 49.402 62.7621 48.5555 62.8504C47.8657 62.9237 47.1791 62.9704 46.4909 62.997H46.4176C46.0643 62.9604 45.911 62.7371 45.7694 62.4438Z" fill="#38A77C"/>
<path d="M50.86 61.0887C51.2866 60.4688 52.1381 60.3538 52.693 59.8722C53.0029 59.6006 53.5562 59.1424 53.4962 58.6658C53.4892 58.5935 53.464 58.5241 53.4229 58.4642C53.7328 58.422 54.0483 58.4599 54.3394 58.5741C54.4481 58.6167 54.5398 58.6941 54.6 58.7941C54.6603 58.8942 54.6858 59.0113 54.6726 59.1274C54.576 59.5756 54.2561 59.9905 53.9244 60.3155C53.4598 60.7434 52.9635 61.1355 52.4397 61.4886C51.9961 61.8331 51.5154 62.1271 51.0066 62.3651C50.9233 62.4018 50.84 62.4318 50.7567 62.4618C50.6334 61.9969 50.5884 61.4886 50.86 61.0887Z" fill="#1894A2"/>
<path d="M45.3245 60.8087C45.2891 60.6322 45.2784 60.4516 45.2928 60.2721C45.3055 60.2405 45.3205 60.2098 45.3378 60.1805C45.4091 60.1075 45.4854 60.0396 45.5661 59.9772C45.6311 59.9289 45.6977 59.8855 45.7661 59.8439C45.9544 59.7722 46.1427 59.7022 46.3343 59.6423C46.814 59.4962 47.3013 59.3766 47.794 59.284C48.039 59.234 48.2939 59.199 48.5522 59.144C48.4228 59.6331 48.1493 60.072 47.7674 60.4038C47.1458 60.892 46.2077 61.0703 45.3695 61.0103C45.3478 60.9437 45.3245 60.877 45.3245 60.8087Z" fill="#91406F"/>
<path d="M45.7694 62.4434C45.6977 62.2716 45.6457 62.0921 45.6144 61.9085C45.5994 61.8369 45.5794 61.7669 45.5577 61.6969C45.528 61.6404 45.505 61.5805 45.4894 61.5186C45.4811 61.4769 45.4694 61.4336 45.4578 61.3903C45.4911 61.3903 45.5228 61.382 45.5444 61.382C45.9107 61.3316 46.2836 61.3932 46.6142 61.5586C47.0791 61.8085 47.899 62.3001 48.1323 62.8917C47.5841 62.94 47.0375 62.9783 46.4909 63H46.4176C46.0643 62.96 45.911 62.7367 45.7694 62.4434Z" fill="#1894A2"/>
<path d="M45.7627 62.4268C45.9891 62.5096 46.2268 62.5573 46.4676 62.5684C46.9819 62.6078 47.4986 62.6039 48.0123 62.5567C49.0888 62.4484 50.2752 62.3901 51.2617 61.8902C52.2982 61.3719 53.1814 60.5354 53.9096 59.6489C54.1029 59.414 54.4195 59.074 54.3961 58.7424C54.3917 58.6901 54.3805 58.6386 54.3628 58.5891C54.4622 58.6367 54.5443 58.7141 54.5975 58.8107C54.6506 58.9072 54.6723 59.0179 54.6594 59.1273C54.5628 59.5756 54.2428 59.9905 53.9112 60.3155C53.4509 60.7428 52.959 61.135 52.4398 61.4886C51.9962 61.8331 51.5155 62.1271 51.0068 62.3651C50.2152 62.6984 49.402 62.7617 48.5555 62.85C47.8657 62.9233 47.1791 62.97 46.4909 62.9967H46.4176C46.0643 62.9583 45.9177 62.735 45.7694 62.4418L45.7627 62.4268Z" fill="#BDBAA9"/>
<path d="M48.4573 60.4204C48.3056 60.1888 48.3856 59.8056 48.4873 59.5639C48.4972 59.5398 48.5089 59.5164 48.5223 59.4939C48.5806 59.3523 48.6656 59.169 48.8039 59.169C48.8272 59.169 48.8589 59.1923 48.8539 59.2173H48.8639H48.8539C48.8468 59.2218 48.8388 59.2246 48.8305 59.2257C48.8081 59.2426 48.7903 59.265 48.7789 59.2906C48.7606 59.324 48.7422 59.3556 48.7256 59.389C48.6743 59.4856 48.6346 59.588 48.6072 59.6939C48.5835 59.79 48.5651 59.8874 48.5523 59.9855C48.6712 59.7818 48.8259 59.6012 49.0088 59.4523C49.0672 59.4006 49.2505 59.229 49.3305 59.2656C49.3513 59.2746 49.3683 59.2905 49.3788 59.3106C49.3788 59.3106 49.3871 59.3106 49.3904 59.319C49.4179 59.3514 49.4419 59.3866 49.4621 59.424C49.4872 59.4554 49.5106 59.4882 49.5321 59.5223C49.5728 59.5859 49.6058 59.6541 49.6304 59.7256C49.7534 59.5525 49.8929 59.3917 50.047 59.2457C50.0653 59.2207 50.082 59.2007 50.0936 59.1873C50.1053 59.174 50.1086 59.1523 50.1286 59.149C50.1346 59.1461 50.1412 59.1445 50.1478 59.1445C50.1544 59.1445 50.161 59.1461 50.167 59.149C50.179 59.1457 50.1916 59.1457 50.2036 59.149C50.2241 59.1456 50.2451 59.1488 50.2637 59.1581C50.2822 59.1673 50.2974 59.1822 50.3069 59.2007C50.4131 59.2587 50.5071 59.3368 50.5836 59.4306C50.6725 59.5256 50.7544 59.627 50.8285 59.7339C50.8285 59.6556 50.8285 59.5789 50.8285 59.5073C50.8337 59.4339 50.8465 59.3613 50.8668 59.2906C50.8818 59.1507 50.9285 59.0474 51.0551 59.104C51.0661 59.1086 51.0752 59.1166 51.0812 59.1268C51.0872 59.137 51.0898 59.1489 51.0885 59.1607C51.0785 59.2706 51.0385 59.3723 51.0318 59.4856C51.0218 59.6522 50.9968 59.8089 50.9918 59.9722C50.9919 59.9852 50.9872 59.9979 50.9786 60.0077C50.97 60.0175 50.9581 60.0239 50.9452 60.0255C50.9296 60.0488 50.9067 60.066 50.88 60.0745C50.8534 60.083 50.8246 60.0822 50.7985 60.0722C50.6102 59.9272 50.4986 59.6556 50.3136 59.5089L50.3053 59.4973L50.2186 59.389C50.092 59.5889 49.9753 59.7972 49.8687 60.0088L49.847 60.0472C49.8304 60.1688 49.7637 60.3338 49.6237 60.2255C49.5571 60.1613 49.5108 60.0791 49.4904 59.9889C49.4588 59.8839 49.4288 59.7822 49.3938 59.6789L49.3771 59.6456C49.3538 59.5973 49.3288 59.5489 49.3038 59.5006C49.0572 59.7939 48.8539 60.1038 48.6272 60.4138C48.6143 60.4281 48.5974 60.4382 48.5786 60.4426C48.5599 60.4471 48.5402 60.4458 48.5223 60.4388C48.5109 60.4428 48.4985 60.4433 48.4868 60.44C48.4752 60.4367 48.4649 60.4299 48.4573 60.4204Z" fill="#FFF9DE"/>
<path d="M52.3564 61.2037C52.7675 60.8542 53.157 60.4803 53.5229 60.0839C53.7266 59.8757 53.9149 59.6529 54.0861 59.4173C54.2528 59.174 54.4411 58.9607 54.3744 58.6425C54.5027 59.1224 54.0211 59.574 53.7345 59.9039C53.314 60.3752 52.8559 60.8115 52.3648 61.2087L52.3564 61.2037Z" fill="#FFF9DE"/>
<path d="M37.8474 47.0278C35.0379 44.585 25.9378 38.1544 25.3596 35.0983L33.6198 32.7521C33.3598 34.1252 33.1466 34.6251 33.3099 34.9184C33.8414 35.8915 39.5421 40.0258 41.6167 44.9549C41.9516 45.2598 40.022 48.221 37.8474 47.0278Z" fill="#545448"/>
<path d="M40.9802 44.2684C41.4113 44.6386 41.7632 45.092 42.015 45.6015C42.4583 46.4796 48.6888 58.9207 48.6888 58.9207C48.6888 58.9207 47.8923 60.8087 45.1778 61.0703C45.1778 61.0703 40.6786 54.0566 39.5971 51.6537C38.9137 50.1498 38.3292 48.6029 37.8474 47.0229C37.8474 47.0229 38.5539 44.215 40.9802 44.2684Z" fill="#545448"/>
<path d="M1.89894 45.4917C2.08559 45.4886 2.27192 45.5082 2.45384 45.55C2.52549 45.5617 2.59881 45.5684 2.67047 45.5767C2.73401 45.5675 2.79855 45.5675 2.8621 45.5767C3.10206 45.6134 3.34534 45.6367 3.5853 45.68C3.76198 45.7124 3.9335 45.7685 4.09521 45.8467C4.11957 45.8703 4.14187 45.8959 4.16186 45.9233C4.20331 46.0169 4.23838 46.1132 4.26685 46.2116C4.28518 46.2899 4.30184 46.3682 4.3135 46.4449C4.3135 46.6465 4.30351 46.8481 4.28851 47.0481C4.24212 47.5475 4.16981 48.0442 4.07188 48.5362C4.02689 48.7811 3.96023 49.0361 3.91691 49.291C3.87758 49.3549 3.83416 49.4161 3.78693 49.4743C3.60018 49.6603 3.46174 49.8891 3.38367 50.1409C3.1921 50.6971 3.0357 51.2648 2.91542 51.8406C2.79044 52.4021 2.83544 52.9554 2.80877 53.5253C2.78711 53.9769 2.60548 54.5484 2.2722 54.87C2.19181 54.9539 2.08586 55.0087 1.97097 55.0259C1.85608 55.0431 1.73874 55.0217 1.63732 54.965C1.25739 54.7084 0.9941 54.2551 0.815799 53.8269C0.590577 53.2391 0.409551 52.6353 0.274229 52.0205C0.121317 51.477 0.0296526 50.9181 0.000944936 50.3542C-0.0173851 49.4927 0.234236 48.7161 0.470861 47.8996C0.662493 47.2331 0.877454 46.5782 1.11075 45.9316C1.12074 45.91 1.13074 45.8866 1.14241 45.8667C1.30904 45.5684 1.574 45.51 1.89894 45.4917Z" fill="#38A77C"/>
<path d="M1.24575 50.7155C1.65901 51.3438 1.44572 52.1753 1.68567 52.8651C1.82232 53.2551 2.03894 53.94 2.50386 54.0633C2.57438 54.0813 2.64831 54.0813 2.71882 54.0633C2.64054 54.366 2.48691 54.6441 2.27224 54.8715C2.19184 54.9553 2.0859 55.0101 1.97101 55.0273C1.85611 55.0445 1.73877 55.0231 1.63735 54.9664C1.25742 54.7098 0.994132 54.2566 0.81583 53.8283C0.590608 53.2405 0.409582 52.6367 0.274261 52.022C0.121348 51.4784 0.0296842 50.9195 0.000976562 50.3556C0.000976562 50.2656 0.000976562 50.1756 0.000976562 50.0873C0.487556 50.1656 0.982467 50.3239 1.24575 50.7155Z" fill="#1894A2"/>
<path d="M3.58519 45.6815C3.76187 45.7139 3.93338 45.7699 4.0951 45.8481C4.11946 45.8717 4.14176 45.8974 4.16175 45.9248C4.20319 46.0184 4.23827 46.1147 4.26673 46.213C4.28506 46.2914 4.30173 46.3697 4.31339 46.4463C4.31339 46.648 4.30339 46.8496 4.2884 47.0496C4.24201 47.549 4.1697 48.0457 4.07177 48.5376C4.02678 48.7842 3.96179 49.0375 3.9168 49.2925C3.50687 48.9592 2.9503 48.5343 2.82199 48.0877C2.6037 47.3278 3.01363 46.398 3.38189 45.6415L3.58519 45.6815Z" fill="#91406F"/>
<path d="M1.89905 45.4915C2.08569 45.4883 2.27203 45.5079 2.45395 45.5498C2.5256 45.5615 2.59892 45.5681 2.67057 45.5765C2.73412 45.5672 2.79866 45.5672 2.86221 45.5765L2.99218 45.5931C2.98617 45.6214 2.97837 45.6492 2.96885 45.6764C2.83888 46.0564 2.71557 46.343 2.40229 46.6029C1.99736 46.9362 1.23583 47.5161 0.595947 47.5078C0.762584 46.9812 0.929221 46.4613 1.11085 45.9464C1.12085 45.9247 1.13085 45.9014 1.14252 45.8814C1.30915 45.5681 1.5741 45.5098 1.89905 45.4915Z" fill="#1894A2"/>
<path d="M1.91748 45.4915C1.75667 45.6706 1.62355 45.8728 1.52255 46.0914C1.29207 46.5523 1.10194 47.0324 0.95432 47.5261C0.649375 48.5659 0.264444 49.6924 0.351095 50.7889C0.442745 51.9453 0.885999 53.0768 1.43423 54.0849C1.58087 54.3532 1.77584 54.7732 2.10078 54.8748C2.15026 54.8913 2.20194 54.9003 2.25409 54.9015C2.17327 54.9761 2.07101 55.0233 1.96183 55.0364C1.85264 55.0496 1.74209 55.028 1.64586 54.9748C1.26593 54.7182 1.00264 54.2649 0.824344 53.8367C0.599122 53.2489 0.418095 52.6451 0.282774 52.0303C0.129862 51.4868 0.0381975 50.9278 0.00948986 50.3639C-0.00884018 49.5024 0.242781 48.7259 0.479406 47.9094C0.671038 47.2428 0.885999 46.588 1.11929 45.9414C1.12929 45.9197 1.13929 45.8964 1.15095 45.8764C1.31759 45.5615 1.58254 45.5032 1.90748 45.4832L1.91748 45.4915Z" fill="#BDBAA9"/>
<path d="M0.5758 52.0603C0.746155 52.5718 0.947035 53.0726 1.17736 53.56C1.29426 53.8239 1.43015 54.079 1.58395 54.3232C1.75059 54.5649 1.8739 54.8231 2.19384 54.8815C1.69393 54.8198 1.46231 54.2049 1.26401 53.815C0.98596 53.2486 0.754136 52.6607 0.570801 52.057C0.570801 52.057 0.574134 52.057 0.5758 52.0603Z" fill="#FFF9DE"/>
<path d="M18.1428 44.68C19.4342 41.8871 22.9236 34.5868 25.0699 30.9557L34.1599 31.6756L33.3134 34.1602C32.3769 36.4598 25.1749 45.0649 20.5257 48.2593C20.479 48.241 17.6795 48.8375 18.1428 44.68Z" fill="#717262"/>
<path d="M20.9505 47.4128L20.5573 48.226C20.5573 48.226 20.6522 48.236 19.7507 48.3376C18.8492 48.4393 3.7836 49.0508 3.7836 49.0508C3.7836 49.0508 2.43884 47.4745 3.67862 45.4665C3.67862 45.4665 10.5457 44.4667 12.8536 44.0834C15.1616 43.7001 18.1427 44.68 18.1427 44.68C18.1427 44.68 20.5223 45.3932 20.9505 47.4128Z" fill="#717262"/>
<path d="M33.5283 12.6424L33.5016 13.6755L31.6286 14.3787C31.6286 14.3787 31.642 14.0454 31.6619 13.6405C31.6886 13.1306 31.1304 13.019 29.4423 12.2508C25.943 10.6594 25.4964 9.79621 24.9432 8.20982C23.2768 3.40402 27.1611 0.134607 32.4218 0.462881C37.0143 0.74783 34.7364 6.38015 34.4348 8.16483L33.5283 12.6424Z" fill="#E7C19C"/>
<path d="M30.8855 16.5484C30.8855 16.5484 31.8703 10.916 32.7935 11.0494C32.7935 11.0494 36.2246 12.9307 36.5628 13.8172C36.5795 13.8589 36.6645 13.8172 36.6178 14.0988C36.3045 14.1455 35.408 13.7655 35.2264 14.1671C35.0448 14.5687 34.0966 17.4399 33.8466 18.2464C32.6685 17.7465 30.7255 16.9966 30.8855 16.5484Z" fill="#E7C19C"/>
<path d="M32.2967 0.456207C32.2967 0.456207 33.8748 0.66617 34.0247 0.694498C34.5806 0.825952 35.1133 1.04115 35.6044 1.33272C36.5926 1.92261 37.4374 2.81912 37.809 3.92059C37.9821 4.40366 38.0875 4.90835 38.1223 5.42032C38.1473 5.92023 37.9973 6.42014 37.994 6.92005C37.994 7.37996 38.2873 7.77989 38.6389 8.11816L38.7289 8.21315C38.9105 8.39811 39.1188 8.54642 39.3038 8.72972C39.4887 8.91302 39.712 9.13465 39.6204 9.39627C39.6104 9.42626 39.5954 9.45126 39.5837 9.47792C39.4872 9.5795 39.3746 9.66451 39.2505 9.72954C39.1221 9.79953 38.8089 9.91618 38.8205 10.0961C38.8363 10.1982 38.8719 10.2962 38.9255 10.3844C39.0225 10.5342 39.0799 10.7063 39.0922 10.8843C39.0555 11.1476 38.5206 11.2743 38.2923 11.2726C38.2756 11.2859 38.8689 11.2826 38.8739 11.5242C38.8739 11.8725 38.6272 11.7059 38.6222 12.2408C38.6222 12.2858 38.7372 12.674 38.7889 13.0323C38.7905 13.2023 38.7582 13.3709 38.6938 13.5283C38.6294 13.6857 38.5343 13.8286 38.4139 13.9488C38.1207 14.2321 37.6591 14.2454 37.2192 14.1971C35.9844 14.0538 34.7779 13.3256 33.9031 12.4674C33.3232 11.8992 32.9982 11.1859 32.7366 10.4427C32.6716 10.1895 32.6067 9.93284 32.5333 9.67622C32.38 9.14298 32.2289 8.60919 32.0801 8.07484C32.63 5.60028 32.5683 2.98909 32.2967 0.456207Z" fill="#F1D2B3"/>
<path d="M38.2956 11.2876C38.4622 11.2984 38.626 11.3361 38.7806 11.3992C38.5834 11.3336 38.3793 11.2911 38.1723 11.2726L38.0757 11.2542C38.4423 11.205 38.7922 11.0702 39.0972 10.861C39.098 10.8737 39.098 10.8865 39.0972 10.8993C39.0588 11.1642 38.5239 11.2892 38.2956 11.2876Z" fill="#E7C19C"/>
<path d="M39.6188 9.16458C39.6464 9.24276 39.6464 9.32802 39.6188 9.4062C39.6088 9.4362 39.5938 9.46119 39.5822 9.48786C39.4856 9.58943 39.373 9.67444 39.2489 9.73948C39.1239 9.8078 38.8273 9.91945 38.8223 10.0911C38.6237 9.98 38.441 9.84268 38.2791 9.68282C38.7606 9.63616 39.2889 9.52785 39.6188 9.16458Z" fill="#E7C19C"/>
<path d="M24.135 6.43515C24.1444 5.55255 24.3103 4.67863 24.6249 3.85395C24.7884 3.48912 25.0178 3.15754 25.3014 2.87579C25.4739 2.73527 25.6763 2.63609 25.893 2.58584C25.9013 2.56084 25.9097 2.53585 25.918 2.51419C26.5379 1.07444 28.1343 0.584533 29.5407 0.254592C30.7814 -0.0455368 32.0714 -0.0807404 33.3267 0.151277C33.3917 0.164608 33.4566 0.181272 33.5216 0.197935C33.6104 0.192101 33.6995 0.192101 33.7883 0.197935C34.2496 0.243687 34.7076 0.318264 35.1597 0.421229C35.8434 0.584009 36.4888 0.878936 37.0593 1.28941C37.3059 1.45764 37.525 1.66277 37.7092 1.89763L37.8092 1.98595C38.3208 2.48586 38.6424 3.18907 38.864 3.86394C38.9928 4.30664 39.0352 4.76998 38.989 5.2287C38.9426 5.49342 38.8655 5.7518 38.759 5.99856C38.7988 5.63772 38.759 5.27255 38.6424 4.92875C38.648 5.2876 38.6263 5.64635 38.5774 6.00189C38.5658 5.80232 38.5201 5.6062 38.4424 5.422C38.3254 4.888 38.1065 4.3816 37.7975 3.9306C37.7209 3.81895 37.6309 3.71564 37.5559 3.61566C37.5642 3.64232 37.5759 3.66565 37.5842 3.69397C37.6945 4.09639 37.7234 4.51674 37.6694 4.93047C37.6153 5.34419 37.4793 5.74299 37.2693 6.10354C37.1672 6.24604 37.0455 6.37339 36.9077 6.48181C37.2076 5.98152 37.3193 5.39068 37.2226 4.81544C37.1488 5.42931 36.9085 6.0113 36.5278 6.49847C36.4784 6.60447 36.4228 6.70741 36.3611 6.80675C36.2842 6.91475 36.196 7.0142 36.0978 7.10336C36.5997 6.40038 36.8716 5.55921 36.876 4.69546C36.8485 5.04511 36.7676 5.38848 36.6361 5.71361C36.4444 6.12368 36.2032 6.50871 35.9179 6.86007C35.8595 6.99172 35.7996 7.12003 35.7362 7.24834C35.5097 7.64954 35.3366 8.07866 35.2213 8.52477C35.2047 8.56143 35.1897 8.60143 35.1747 8.63975C35.2071 8.32124 35.2874 8.00945 35.413 7.71492C35.3796 7.77158 35.3446 7.82657 35.308 7.88156C35.0776 8.27797 34.8103 8.65178 34.5098 8.99802V8.99802C34.7006 8.5932 34.84 8.16606 34.9247 7.72658C34.9272 7.71843 34.9272 7.70974 34.9247 7.70159C34.9247 7.67826 34.938 7.6566 34.943 7.63327C35.0204 7.29333 35.0656 6.94686 35.078 6.59845C35.0464 6.70677 35.0147 6.81341 34.9797 6.9184C34.7148 7.71159 34.4048 8.54144 33.8716 9.19799C33.8599 9.33296 33.8516 9.46794 33.8449 9.60291C33.7752 9.94598 33.7545 10.2972 33.7833 10.6461C33.6549 10.4294 33.6416 10.0928 33.5733 9.8562C33.5433 9.75289 33.5183 9.64957 33.49 9.54626C33.5153 9.88807 33.4582 10.231 33.3233 10.5461C33.3127 10.5592 33.2988 10.5694 33.283 10.5755C33.2673 10.5817 33.2502 10.5837 33.2334 10.5814C33.2167 10.5791 33.2008 10.5724 33.1874 10.5621C33.1739 10.5519 33.1634 10.5383 33.1567 10.5227C33.0467 10.2145 32.9301 9.90953 32.8101 9.60291C32.672 9.27528 32.5047 8.96073 32.3102 8.66308C32.3918 9.18299 32.4552 9.70456 32.5335 10.2245C32.6301 10.861 32.8834 11.4276 33.0434 12.0408C33.0601 12.1025 32.9951 12.1191 32.9484 12.0991C33.0244 12.2338 33.0843 12.377 33.1267 12.5257C32.9895 12.5304 32.854 12.4932 32.7384 12.4191C32.6551 12.3341 32.5801 12.2358 32.5085 12.1658C32.4702 12.1258 32.4285 12.0841 32.3885 12.0391C32.4718 12.2796 32.5184 12.5313 32.5268 12.7857C32.4811 12.9304 32.4148 13.0679 32.3302 13.1939C32.3218 13.1846 32.315 13.1739 32.3102 13.1623C32.2485 12.9606 32.1952 12.7807 32.1236 12.609C32.1661 12.7567 32.1956 12.9078 32.2119 13.0606C32.2219 13.1573 32.1169 13.1889 32.0452 13.1323L31.9186 13.029C32.0602 13.2373 32.2402 13.4439 32.2919 13.6755C32.2097 13.639 32.125 13.6084 32.0386 13.5839C31.8276 13.3866 31.591 13.2184 31.3354 13.084C31.4337 13.1773 31.5303 13.2706 31.6336 13.3522C31.432 13.3022 31.2304 13.2473 31.0321 13.1856C30.9948 13.1671 30.9564 13.1509 30.9171 13.1373C29.8307 12.7351 28.779 12.2447 27.7727 11.6709C26.8612 11.1526 25.903 10.5877 25.2281 9.76955C24.4728 8.82668 24.0845 7.64219 24.135 6.43515V6.43515Z" fill="#392828"/>
<g style="mix-blend-mode:multiply" opacity="0.5">
<path d="M24.135 6.43514C24.1444 5.55255 24.3103 4.67862 24.6249 3.85394C24.7884 3.48912 25.0178 3.15753 25.3014 2.87578C25.4312 2.76321 25.5843 2.6807 25.7497 2.63416C25.002 3.43359 24.576 4.48097 24.5532 5.5753C24.5416 6.6951 24.5133 8.00819 25.2448 8.93469C25.2781 8.97635 25.3731 8.98968 25.3664 8.91303C25.2766 8.03649 25.3772 7.15089 25.6614 6.31683C25.6347 6.62342 25.6347 6.93174 25.6614 7.23833C25.748 8.29148 25.928 9.55792 26.8462 10.2261C26.8978 10.2628 26.9678 10.2395 26.9495 10.1678C26.7712 9.4396 26.5246 8.7414 26.5196 7.9882C26.6246 8.4295 26.793 8.85326 27.0195 9.24631C27.5777 10.2145 28.4509 11.3626 29.5423 11.7559C29.604 11.7775 29.6223 11.7025 29.6023 11.6609C29.3957 11.2443 29.0824 10.9027 28.8958 10.4711C28.679 9.96804 28.5116 9.44512 28.3959 8.9097C28.2873 8.42922 28.227 7.93909 28.2159 7.44663L28.2992 7.69158C28.5742 8.46311 28.8741 9.23464 29.5373 9.75455C29.5873 9.79454 29.659 9.76788 29.6407 9.69789C29.5023 9.22739 29.3877 8.7502 29.2974 8.26815C29.3191 8.32814 29.3407 8.38646 29.364 8.44312C29.6557 9.16299 29.9489 9.98784 30.5155 10.5394C30.5738 10.5961 30.6455 10.5294 30.6105 10.4628C29.9439 9.17632 29.869 7.69992 30.1689 6.29683C30.1923 6.81866 30.3596 7.32385 30.6521 7.75657C30.6838 7.7999 30.7505 7.80823 30.7721 7.75657C30.9388 7.32332 30.9388 6.8684 31.0288 6.42348C31.0704 6.21018 31.1237 6.00022 31.1854 5.79193C31.2363 6.07957 31.3236 6.35956 31.4453 6.62511C31.4465 6.6654 31.451 6.70552 31.4587 6.74509C31.467 6.80008 31.552 6.8484 31.5903 6.79508C31.9486 6.29517 31.9819 5.63862 31.9869 5.0254C32.2435 5.89357 32.4068 6.77175 32.2785 7.69158C32.2785 7.75324 32.3635 7.85822 32.4118 7.7799C32.8718 7.0517 33.0034 6.11353 32.9717 5.26702C32.9609 4.98778 32.9326 4.7095 32.8867 4.43384C33.1626 4.97799 33.2994 5.58196 33.285 6.19185C33.285 6.26184 33.3983 6.33349 33.4267 6.24518C33.5929 5.71069 33.6645 5.15127 33.6383 4.59214C33.9624 5.52528 33.9938 6.53515 33.7283 7.48662C33.7099 7.55161 33.8182 7.65326 33.8616 7.57327C34.4796 6.50299 34.753 5.26838 34.6448 4.03724C34.6314 3.8956 34.6164 3.74563 34.5964 3.59399C34.8505 4.09595 34.9975 4.64525 35.028 5.20703C35.028 5.27369 35.138 5.34867 35.1697 5.26035C35.3656 4.71604 35.4528 4.13856 35.4263 3.56066C35.6517 3.94331 35.7879 4.37185 35.8248 4.81441C35.8618 5.25697 35.7984 5.70215 35.6396 6.11687C35.6129 6.18519 35.7229 6.26684 35.7746 6.20518C36.3678 5.48531 36.7444 4.32552 36.5628 3.39402C36.5035 3.08908 36.4003 2.79437 36.2561 2.51918C36.4226 2.64354 36.5732 2.78794 36.7044 2.9491C36.7527 3.00576 36.8394 2.9891 36.8244 2.90578C36.7306 2.43257 36.5054 1.99537 36.1745 1.64434C36.8086 1.87283 37.3975 2.21128 37.9142 2.64416C37.9792 2.69915 38.0375 2.64416 38.0108 2.5675C37.5892 1.52103 36.5278 0.901137 35.5279 0.507874L35.4929 0.499542C36.0502 0.682212 36.5775 0.946119 37.0577 1.28273C37.3042 1.45096 37.5234 1.6561 37.7075 1.89096L37.8075 1.97928C38.3191 2.47919 38.6407 3.18239 38.8623 3.85727C38.9911 4.29997 39.0336 4.7633 38.9873 5.22203C38.942 5.48895 38.8654 5.74959 38.759 5.99855C38.7988 5.63771 38.759 5.27255 38.6424 4.92875C38.648 5.28759 38.6263 5.64635 38.5774 6.00189C38.5658 5.80231 38.5201 5.60619 38.4424 5.42199C38.3254 4.88799 38.1065 4.3816 37.7975 3.93059C37.7209 3.81895 37.6309 3.71563 37.5559 3.61565C37.5642 3.64231 37.5759 3.66564 37.5842 3.69397C37.6945 4.09638 37.7234 4.51674 37.6694 4.93046C37.6153 5.34419 37.4793 5.74298 37.2693 6.10354C37.1672 6.24604 37.0455 6.37339 36.9077 6.4818C37.2076 5.98151 37.3193 5.39067 37.2226 4.81543C37.1488 5.4293 36.9085 6.01129 36.5278 6.49847C36.4784 6.60446 36.4228 6.7074 36.3611 6.80674C36.2842 6.91475 36.196 7.01419 36.0978 7.10336C36.5997 6.40038 36.8716 5.55921 36.876 4.69546C36.8485 5.0451 36.7676 5.38847 36.6361 5.71361C36.4444 6.12368 36.2032 6.5087 35.9179 6.86007C35.8595 6.99171 35.7996 7.12002 35.7362 7.24833C35.5097 7.64953 35.3366 8.07865 35.2213 8.52477C35.2047 8.56143 35.1897 8.60142 35.1747 8.63975C35.2071 8.32123 35.2874 8.00944 35.413 7.71491C35.3796 7.77157 35.3446 7.82656 35.308 7.88155C35.0776 8.27796 34.8103 8.65177 34.5098 8.99802V8.99802C34.7006 8.59319 34.84 8.16605 34.9247 7.72658C34.9272 7.71843 34.9272 7.70973 34.9247 7.70158C34.9247 7.67825 34.938 7.65659 34.943 7.63326C35.0204 7.29333 35.0656 6.94686 35.078 6.59845C35.0464 6.70676 35.0147 6.81341 34.9797 6.91839C34.7148 7.71158 34.4048 8.54143 33.8716 9.19798C33.8599 9.33296 33.8516 9.46793 33.8449 9.60291C33.7752 9.94597 33.7545 10.2972 33.7833 10.6461C33.6549 10.4294 33.6416 10.0928 33.5733 9.8562C33.5433 9.75288 33.5183 9.64957 33.49 9.54625C33.5153 9.88806 33.4582 10.231 33.3233 10.5461C33.3127 10.5592 33.2988 10.5693 33.283 10.5755C33.2673 10.5817 33.2502 10.5837 33.2334 10.5814C33.2167 10.579 33.2008 10.5724 33.1874 10.5621C33.1739 10.5519 33.1634 10.5383 33.1567 10.5227C33.0467 10.2145 32.9301 9.90952 32.8101 9.60291C32.672 9.27527 32.5047 8.96073 32.3102 8.66308C32.3918 9.18298 32.4552 9.70456 32.5335 10.2245C32.6301 10.861 32.8834 11.4276 33.0434 12.0408C33.0601 12.1025 32.9951 12.1191 32.9484 12.0991C33.0244 12.2338 33.0843 12.377 33.1267 12.5257C32.9895 12.5304 32.854 12.4932 32.7384 12.4191C32.6551 12.3341 32.5801 12.2358 32.5085 12.1658C32.4702 12.1258 32.4285 12.0841 32.3885 12.0391C32.4718 12.2796 32.5184 12.5313 32.5268 12.7857C32.4811 12.9304 32.4148 13.0679 32.3302 13.1939C32.3218 13.1846 32.315 13.1739 32.3102 13.1623C32.2485 12.9606 32.1952 12.7807 32.1236 12.609C32.1661 12.7567 32.1956 12.9078 32.2119 13.0606C32.2219 13.1573 32.1169 13.1889 32.0452 13.1323L31.9186 13.029C32.0602 13.2373 32.2402 13.4439 32.2919 13.6755C32.2097 13.639 32.125 13.6084 32.0386 13.5839C31.8276 13.3866 31.591 13.2184 31.3354 13.0839C31.4337 13.1773 31.5303 13.2706 31.6336 13.3522C31.432 13.3022 31.2304 13.2473 31.0321 13.1856C30.9948 13.1671 30.9564 13.1509 30.9171 13.1373C29.8307 12.7351 28.779 12.2447 27.7727 11.6709C26.8612 11.1526 25.903 10.5877 25.2281 9.76954C24.4728 8.82667 24.0845 7.64218 24.135 6.43514V6.43514Z" fill="#392828"/>
</g>
<path d="M16.5562 29.4377C16.5626 29.5388 16.5776 29.6392 16.6012 29.7377C16.6746 30.0326 16.7945 30.0243 17.0545 29.9593C17.0521 30.0375 17.0663 30.1153 17.0961 30.1876C17.1234 30.2552 17.1661 30.3156 17.2208 30.3639C17.2754 30.4122 17.3406 30.4471 17.4111 30.4659C17.5227 30.4992 17.6194 30.4075 17.7277 30.4159C17.7503 30.5393 17.8173 30.6501 17.916 30.7275C18.1076 30.8558 18.6192 30.7808 18.8092 30.6875C19.3774 30.4042 19.839 29.8043 20.0789 29.1878C20.2139 28.9728 20.3339 28.7412 20.4572 28.5512C20.6638 28.2296 20.6355 27.753 20.6072 27.3847C20.5922 27.1731 20.5922 26.9448 20.5572 26.7282C20.5675 26.5422 20.5249 26.3571 20.4343 26.1944C20.3438 26.0316 20.209 25.8978 20.0456 25.8084C19.6107 25.5801 19.2674 25.6767 18.9158 25.8717C18.3974 26.0386 17.9095 26.2885 17.4711 26.6116C17.0714 26.9042 16.7956 27.3357 16.6979 27.8213C16.6029 27.8607 16.5159 27.9172 16.4413 27.988C16.198 28.2246 15.9414 29.5177 16.5562 29.4377Z" fill="#E7C19C"/>
<path d="M17.766 30.3475C17.7959 30.1777 17.8521 30.0135 17.9327 29.861C17.9327 29.8476 17.9593 29.861 17.9543 29.8776C17.9036 30.0006 17.8634 30.1277 17.8344 30.2576C17.7944 30.3975 17.7244 30.5592 17.8094 30.7025C17.7789 30.6492 17.7594 30.5903 17.7519 30.5294C17.7445 30.4684 17.7493 30.4066 17.766 30.3475V30.3475Z" fill="#C3A479"/>
<path d="M23.8283 18.2647C22.8835 18.7213 21.8753 20.7843 21.642 21.1525C20.9648 22.2408 20.344 23.3632 19.7823 24.5153C19.2491 25.6117 18.9492 26.3299 18.9825 26.5316L19.6707 26.9348C20.1056 27.2098 19.809 27.2681 24.1432 22.4356L25.703 20.3294C25.9596 19.3295 24.7815 17.5115 23.8283 18.2647Z" fill="#E7C19C"/>
<path d="M24.1398 20.8292L33.1299 18.198C33.6131 17.9314 34.0114 17.4548 33.953 16.415C33.953 16.415 33.6431 14.7803 31.7201 15.1702L24.2515 17.9464C23.3666 18.7229 23.1766 20.8742 24.1398 20.8292Z" fill="#E7C19C"/>
<path d="M21.3437 25.6417C21.1734 25.9056 20.9834 26.1563 20.7755 26.3916C20.6538 26.4749 19.524 25.8434 19.2991 25.3135L19.7823 24.4536L21.3437 25.6417Z" fill="#3A5472"/>
<path d="M20.9804 25.9434C20.6321 25.8384 20.1988 25.6834 19.9589 25.3918C19.7757 25.1425 19.6892 24.8352 19.7156 24.5269C19.7356 24.4836 19.7556 24.442 19.7772 24.3986C20.3394 23.2476 20.9595 22.1258 21.6352 21.0376C21.8702 20.6676 22.8767 18.6063 23.8232 18.1498C24.7747 17.3949 26.3561 19.5762 26.0994 20.5727L24.5547 22.3007C22.9583 24.0837 22.0118 25.2451 21.427 25.9917C21.2763 26.0074 21.1241 25.9909 20.9804 25.9434V25.9434Z" fill="#A8351E"/>
<path d="M24.6814 21.3059L33.1416 18.713C33.6248 18.4464 34.0114 17.4566 33.9531 16.4168C33.9531 16.4168 33.5748 14.3938 31.6518 14.7854L24.2515 17.9515C23.3667 18.723 23.7199 21.3492 24.6814 21.3059Z" fill="#A8351E"/>
<path d="M30.1072 34.5618C30.1072 34.5618 29.6606 35.2833 29.259 35.3949C28.8574 35.5066 24.0683 34.9417 22.9268 30.8957C22.9268 30.8957 22.9185 30.4492 23.0851 30.2859C23.2933 30.1233 23.5165 29.981 23.7517 29.8609L30.1072 34.5618Z" fill="#3A5472"/>
<path d="M36.7644 19.2045C36.8844 19.2445 37.9676 24.4569 35.5097 31.6623C35.5097 31.6623 34.7081 33.6119 33.9149 33.9569C32.9418 34.3785 27.9277 33.2004 25.3865 30.9574C25.3865 30.9574 25.4298 30.7541 26.053 29.731C26.6762 28.7078 36.7644 19.2045 36.7644 19.2045Z" fill="#1E312E"/>
<path d="M36.0895 23.2221C35.4902 23.0614 34.9014 22.8638 34.3265 22.6306C34.0565 22.5173 33.7949 22.3923 33.5366 22.259C35.3413 20.5376 36.7577 19.2045 36.7577 19.2045C36.8227 19.2262 37.1743 20.8076 37.0727 23.4171C36.7397 23.382 36.4106 23.3167 36.0895 23.2221V23.2221Z" fill="#FFFDE1"/>
<path d="M34.3265 22.7789C35.0263 23.0737 35.7514 23.3046 36.4928 23.4687C36.6869 23.5113 36.8833 23.5425 37.081 23.5621C37.0694 23.8187 37.0544 24.082 37.0327 24.3553C35.7323 24.3396 34.4451 24.0919 33.2317 23.6237C32.9751 23.5287 32.7168 23.4204 32.4602 23.3021L33.4417 22.3623C33.7266 22.5139 34.0249 22.6622 34.3265 22.7789Z" fill="#FFFDE1"/>
<path d="M33.2633 25.0301C34.3781 25.3551 35.6896 25.7283 36.9027 25.615C36.8727 25.8533 36.841 26.0949 36.8044 26.3416C35.4846 26.5798 33.9965 26.1166 32.7817 25.7233C32.0913 25.4981 31.4128 25.2378 30.7488 24.9435L31.3753 24.3369C31.9883 24.6102 32.6191 24.8418 33.2633 25.0301V25.0301Z" fill="#FFFDE1"/>
<path d="M31.9152 26.7748C33.3349 27.2747 35.023 27.693 36.5977 27.5564C36.5377 27.8663 36.4727 28.1796 36.3994 28.5012C35.8978 28.5189 35.3956 28.4888 34.8997 28.4112C33.9514 28.279 33.0125 28.087 32.0885 27.8363C31.0174 27.5585 29.979 27.1675 28.9907 26.6698C29.2473 26.4166 29.5156 26.1549 29.7889 25.89C30.4824 26.2203 31.1921 26.5157 31.9152 26.7748V26.7748Z" fill="#FFFDE1"/>
<path d="M28.0843 27.5547C29.0182 28.1481 30.0269 28.6149 31.0837 28.9428C32.0504 29.2344 33.0406 29.4412 34.0432 29.561C34.7355 29.6693 35.4405 29.6693 36.1328 29.561C36.0562 29.8493 35.9762 30.1409 35.8879 30.4375C35.1689 30.5229 34.443 30.5346 33.7216 30.4725C32.626 30.35 31.5456 30.1166 30.4972 29.776C29.3787 29.4103 28.2991 28.9347 27.2744 28.3562C27.5277 28.1129 27.796 27.843 28.0843 27.5547Z" fill="#FFFDE1"/>
<path d="M26.4495 29.2427C27.6159 29.9376 28.964 30.3858 30.2205 30.7541C31.237 31.0524 32.2818 31.379 33.3316 31.5373C34.0731 31.6506 34.8596 31.6789 35.5745 31.464C35.5512 31.5306 35.5312 31.5956 35.5095 31.6623C35.5095 31.6623 35.3429 32.0489 35.1046 32.5071C34.3297 32.6504 33.4915 32.5471 32.7417 32.3905C31.7542 32.1679 30.78 31.8898 29.8239 31.5573C28.5724 31.1424 27.1577 30.6058 26.0396 29.7543L26.0545 29.731C26.1732 29.5581 26.3052 29.3948 26.4495 29.2427V29.2427Z" fill="#FFFDE1"/>
<path d="M29.8839 32.6021C30.9652 33.0027 32.0807 33.3039 33.2167 33.502C33.5929 33.5717 33.974 33.6129 34.3565 33.6253C34.235 33.7641 34.0871 33.8773 33.9215 33.9585C32.9484 34.3801 27.9343 33.202 25.3931 30.9591C25.4727 30.7463 25.5743 30.5425 25.6963 30.3509C26.9707 31.3082 28.3825 32.0672 29.8839 32.6021V32.6021Z" fill="#FFFDE1"/>
<path d="M27.1426 26.5299C27.8953 25.2164 28.4363 23.7925 28.7457 22.3106C29.1207 20.6096 29.584 18.9293 30.1338 17.2765C30.253 17.0647 30.3843 16.86 30.527 16.6633C30.9229 15.8541 31.4918 15.1419 32.1934 14.577C32.9266 14.0271 33.7798 14.3604 34.8879 15.1569C34.8879 15.1569 35.7578 15.4668 36.4076 16.5383C36.4976 16.6866 36.8592 17.3848 36.9625 17.5381C37.3575 19.3062 37.6024 19.8477 37.3541 21.734C37.0559 24.0203 35.9827 26.4282 34.7696 28.3662C33.9081 29.7409 32.9883 31.0824 32.0534 32.4088C31.7202 32.8887 31.3769 33.367 31.0186 33.8319C30.8636 34.0318 30.4837 34.6867 30.2154 34.7267C29.2373 34.875 28.1908 34.6667 27.246 34.4068C25.8012 34.0118 24.8597 33.2653 24.1049 31.9805C23.7882 31.4423 23.3083 30.7274 23.3717 30.0726C23.485 28.9694 26.6777 27.338 27.1426 26.5299Z" fill="#E64128"/>
<path opacity="0.4" d="M33.3834 18.9063C32.6484 21.2664 31.7308 23.5657 30.6389 25.7834C29.6824 27.703 28.0093 28.7978 26.0647 29.5677C25.24 29.8628 24.514 30.3822 23.9684 31.0674C23.8928 31.1663 23.8195 31.2663 23.7484 31.3674C23.5235 30.9558 23.3335 30.5042 23.3752 30.0776C23.4851 28.9645 26.6779 27.3331 27.1428 26.5249C27.8955 25.2114 28.4365 23.7875 28.7459 22.3056C29.1208 20.6047 29.5842 18.9243 30.1339 17.2715C30.2533 17.0615 30.3846 16.8584 30.5272 16.6633C30.923 15.8542 31.4919 15.1419 32.1936 14.577C32.6085 14.2671 33.0601 14.2438 33.5767 14.4104C33.7466 15.9268 33.8449 17.4399 33.3834 18.9063Z" fill="#B53821"/>
<path d="M32.2802 31.5223C33.4133 29.9876 34.5448 28.4179 35.3763 26.6898C36.5794 24.1903 37.3759 21.2292 37.1626 18.3963C37.4326 19.5511 37.5609 20.1943 37.3576 21.7407C37.0593 24.027 35.9862 26.4349 34.773 28.3729C33.9115 29.7476 32.9917 31.0891 32.0569 32.4155C31.7236 32.8954 31.3803 33.3736 31.0221 33.8386C30.8671 34.0385 30.4871 34.6934 30.2189 34.7334C29.9011 34.7793 29.5795 34.7927 29.259 34.7734C30.4372 33.8736 31.4003 32.7138 32.2802 31.5223Z" fill="#3A5472"/>
<path d="M36.966 17.5482C36.966 17.5482 33.8099 13.3822 31.8002 15.2652C29.7906 17.1482 29.9489 20.2927 29.3873 20.171C28.8258 20.0494 28.0326 18.9179 28.1042 18.5046C28.1759 18.0914 27.2227 18.6813 27.4893 17.7065C27.756 16.7316 29.314 13.4739 32.1385 13.6305C34.963 13.7872 36.4277 15.6418 36.966 17.5482Z" fill="#3A5472"/>
<path d="M30.0223 15.2119C30.454 14.8177 30.9655 14.521 31.5221 14.342C31.787 14.2578 32.0612 14.2058 32.3386 14.1871C32.6119 14.1979 32.8844 14.223 33.1551 14.2621C33.1551 14.2621 33.1551 14.2621 33.1551 14.2621C32.5785 14.2421 32.1086 14.1887 31.5454 14.3804C31.0078 14.5859 30.5121 14.8874 30.0823 15.2702C29.2158 15.9751 28.6092 17.0382 28.2227 18.073C28.2227 18.0864 28.1977 18.073 28.201 18.073C28.5263 16.9667 29.1577 15.9749 30.0223 15.2119V15.2119Z" fill="#3172B1"/>
<path d="M31.172 28.6012C31.172 28.6012 29.4124 30.9507 26.5295 30.5442V30.8474C26.5295 30.8474 29.8023 31.3923 31.172 28.6012Z" fill="#3A5472"/>
<path d="M46.9592 19.4111C46.9392 19.1645 47.2375 18.9462 47.4091 18.7613C47.6957 18.2114 48.059 17.6881 48.344 17.1416C48.6745 16.4924 49.1634 15.937 49.7654 15.5268C50.3153 15.1586 50.7885 15.3136 51.3718 15.5002C51.7484 15.6202 52.5715 15.7368 52.4132 16.3084C52.5457 16.3474 52.6736 16.4005 52.7948 16.4667C53.0564 16.61 53.2514 16.9783 53.0265 17.2382H53.0165C53.2881 17.3698 53.438 17.5881 53.2781 18.0314C53.3003 18.0512 53.318 18.0757 53.3297 18.1031C53.3517 18.167 53.3646 18.2338 53.3681 18.3013C53.2981 18.4813 53.2414 18.6729 53.1798 18.8546C53.1581 18.8962 53.1348 18.9362 53.1114 18.9762C53.1014 18.9804 53.0927 18.9874 53.0864 18.9962C52.9281 19.2095 52.7165 19.4161 52.4299 19.4128C52.2399 19.4128 51.9666 19.4128 51.885 19.1845C51.8683 19.1412 51.7717 19.0795 51.74 19.1429C51.6717 19.2828 51.5934 19.4228 51.5134 19.5611C51.4022 19.6692 51.2786 19.7638 51.1451 19.8427C50.4469 20.2477 49.792 20.4976 48.9788 20.3426C48.8455 20.3193 48.7139 20.2893 48.5822 20.256C48.3633 20.1969 48.1306 20.2158 47.924 20.3093C47.8275 20.3288 47.7277 20.3238 47.6337 20.2946C47.5396 20.2655 47.4544 20.2133 47.3858 20.1427C47.157 19.9609 47.0047 19.6998 46.9592 19.4111V19.4111Z" fill="#F1D2B3"/>
<path d="M51.7101 17.5631C51.9984 17.5498 52.25 17.6898 52.5283 17.7614C52.8065 17.8331 53.1415 17.8464 53.3331 18.0947C53.3331 18.0947 53.3331 18.1031 53.3248 18.0947C53.1098 17.8764 52.7515 17.8548 52.4649 17.7781C52.2133 17.7098 51.965 17.5681 51.7117 17.5598C51.7084 17.5665 51.7067 17.5631 51.7101 17.5631Z" fill="#C3A479"/>
<path d="M51.5468 16.7616C51.6704 16.7911 51.7889 16.8388 51.8984 16.9033C52.0739 16.9658 52.2531 17.0175 52.435 17.0582C52.6832 17.1216 53.0232 17.1832 53.2081 17.3782C53.0099 17.1882 52.6199 17.1249 52.36 17.0599C52.2067 17.0216 52.045 16.9783 51.8967 16.9249C51.7835 16.8665 51.6673 16.8142 51.5484 16.7683C51.5484 16.7683 51.5418 16.7616 51.5468 16.7616Z" fill="#C3A479"/>
<path d="M51.2917 15.9718C51.4716 16.2217 51.9582 16.2584 52.2298 16.2734C52.4554 16.2933 52.6711 16.3752 52.853 16.51C52.5398 16.325 52.2032 16.3184 51.8532 16.2417C51.6516 16.1967 51.4033 16.1601 51.2883 15.9668C51.2883 15.9718 51.29 15.9701 51.2917 15.9718Z" fill="#C3A479"/>
<path d="M50.7569 15.6402C50.7186 15.6197 50.6841 15.5927 50.6553 15.5602C50.6553 15.5602 50.6553 15.5602 50.6553 15.5602C50.7053 15.6185 50.7903 15.6302 50.8386 15.6935C50.8874 15.7805 50.904 15.8821 50.8852 15.9801C50.8852 15.9934 50.8686 15.9884 50.8652 15.9801C50.8452 15.8451 50.8852 15.7318 50.7569 15.6402Z" fill="#C3A479"/>
<path d="M51.1101 16.7133C51.1451 16.7766 51.2034 16.8216 51.1851 16.9016C51.1851 16.9116 51.1701 16.9016 51.1701 16.9016C51.1653 16.835 51.1447 16.7704 51.1101 16.7133V16.7133Z" fill="#C3A479"/>
<path d="M51.3334 19.6628C51.5584 19.5295 51.6584 19.2712 51.8033 19.0612C51.8068 19.0407 51.8124 19.0206 51.82 19.0012C51.82 18.9879 51.84 19.0012 51.845 19.0012C51.8788 18.9298 51.9319 18.8692 51.9983 18.8263C52.0801 18.7754 52.1724 18.7441 52.2683 18.7346C52.3566 18.7348 52.4442 18.7184 52.5266 18.6863C52.5266 18.6863 52.5266 18.6863 52.5266 18.6863C52.4716 18.7396 52.3466 18.7396 52.2783 18.7596C52.1818 18.7784 52.0917 18.8214 52.0164 18.8847C51.9412 18.948 51.8834 19.0294 51.8483 19.1212C51.9217 19.4978 52.6815 19.4711 52.8582 19.2628C52.9823 19.1142 53.0911 18.9534 53.1831 18.7829V18.7829C52.9981 19.1312 52.8715 19.4311 52.4299 19.4495C52.2166 19.4595 51.8033 19.3628 51.795 19.1162C51.7584 19.1762 51.725 19.2395 51.6917 19.2928C51.6225 19.459 51.4968 19.5953 51.3368 19.6778C51.3334 19.6744 51.3234 19.6628 51.3334 19.6628Z" fill="#C3A479"/>
<path d="M39.8488 24.1203L33.3699 20.121C30.8337 17.9298 32.0168 16.5567 32.0168 16.5567C32.0168 16.5567 33.1233 15.5569 34.573 16.0834C36.1011 16.6383 40.8203 20.9776 40.8203 20.9776C39.9371 21.9957 39.7005 22.9572 39.8488 24.1203Z" fill="#E54F35"/>
<path d="M46.5977 18.8812C46.8643 18.7164 47.1428 18.5716 47.4308 18.448C47.5758 18.4246 48.2157 19.8894 48.1907 20.4643L47.2359 20.8309L46.5977 18.8812Z" fill="#3A5472"/>
<path d="M39.4623 21.3108C39.4623 21.3108 39.7222 20.7742 40.1571 20.8825C40.1571 20.8825 44.2414 19.1862 46.766 18.6479C46.766 18.6479 47.2792 19.0362 47.5991 20.7676C47.5991 20.7676 41.4936 24.6185 39.8522 24.1203C38.6008 23.742 38.9923 21.7091 39.4623 21.3108Z" fill="#E54F35"/>
</svg>
