<svg width="54" height="63" viewBox="0 0 54 63" fill="none" xmlns="http://www.w3.org/2000/svg">
<g clip-path="url(#clip0_1:556)">
<path d="M32.369 14.0938L32.3545 15.0943L30.547 15.7931C30.547 15.7931 30.5566 15.4704 30.5728 15.0782C30.5922 14.5844 30.0515 14.4811 28.4086 13.7548C25.0018 12.2475 25.5198 12.4638 24.9711 10.9354C23.3088 6.29723 26.0847 2.04312 31.178 2.3094C35.6274 2.54018 33.4777 8.01599 33.205 9.75249L32.369 14.0938Z" fill="#E7C19C"/>
<path d="M29.8562 17.9025C29.8562 17.9025 30.7551 12.4379 31.6508 12.5558C31.6508 12.5558 34.9915 14.3439 35.3288 15.1992C35.3449 15.2396 35.4272 15.1992 35.3837 15.472C35.0819 15.5204 34.2104 15.1492 34.0377 15.5527C33.865 15.9561 32.9758 18.7336 32.7466 19.5147C31.5879 19.0434 29.6948 18.3317 29.8562 17.9025Z" fill="#E7C19C"/>
<path d="M31.0328 2.31744C31.0328 2.31744 32.5627 2.4982 32.7079 2.53209C33.2477 2.65358 33.7657 2.85656 34.2443 3.13405C35.2126 3.69567 36.0309 4.55424 36.4037 5.61777C36.5773 6.08486 36.6859 6.57359 36.7264 7.07024C36.7539 7.56247 36.6151 8.03855 36.6167 8.52271C36.6167 8.96813 36.9088 9.35384 37.2525 9.67662L37.3413 9.76699C37.5172 9.94613 37.7206 10.0898 37.9029 10.2624C38.0853 10.4351 38.3032 10.6498 38.216 10.908C38.2061 10.9352 38.1943 10.9616 38.1805 10.9871C38.0873 11.0871 37.9782 11.171 37.8577 11.2356C37.7335 11.3034 37.4317 11.4196 37.4462 11.5939C37.4616 11.6924 37.4967 11.7868 37.5495 11.8715C37.6108 11.9796 37.7415 12.2168 37.7222 12.3556C37.6899 12.6106 37.1719 12.7381 36.9508 12.7397C36.9346 12.7526 37.5091 12.7397 37.5156 12.9769C37.5269 13.3142 37.28 13.1561 37.28 13.6757C37.28 13.7177 37.3962 14.0937 37.4414 14.4391C37.445 14.6039 37.4156 14.7678 37.3549 14.9211C37.2942 15.0744 37.2034 15.2139 37.0879 15.3316C36.8071 15.6091 36.3601 15.6269 35.9324 15.5833C34.7365 15.4574 33.56 14.7651 32.7047 13.942C32.1382 13.3965 31.8155 12.7107 31.5508 11.9925C31.4862 11.7472 31.4201 11.5083 31.3475 11.2534C31.1861 10.7385 31.0424 10.2221 30.8923 9.70566C31.4056 7.29618 31.32 4.76889 31.0328 2.31744Z" fill="#F1D2B3"/>
<path d="M36.9476 12.7494C37.1092 12.758 37.2684 12.7929 37.4188 12.8527C37.2276 12.7912 37.0299 12.7522 36.8297 12.7365L36.7345 12.7187C37.089 12.6684 37.4264 12.5345 37.719 12.3282C37.7206 12.3405 37.7206 12.353 37.719 12.3653C37.6867 12.6186 37.1687 12.7494 36.9476 12.7494Z" fill="#DDB996"/>
<path d="M38.2096 10.682C38.2354 10.7579 38.2354 10.8402 38.2096 10.916C38.1998 10.9432 38.1879 10.9697 38.1741 10.9951C38.0809 11.0951 37.9718 11.1791 37.8513 11.2437C37.7319 11.3082 37.4447 11.4212 37.4414 11.5874C37.248 11.4812 37.0695 11.3499 36.9105 11.1969C37.3817 11.1436 37.8933 11.0339 38.2096 10.682Z" fill="#DDB996"/>
<path d="M23.6349 5.68396C23.7901 5.32931 24.0089 5.00605 24.2804 4.73017C24.4467 4.59181 24.6428 4.49401 24.8533 4.44452C24.8614 4.4187 24.8695 4.3961 24.8775 4.37351C25.4634 2.97268 27.0046 2.48207 28.3651 2.14962C29.5603 1.84702 30.8059 1.80028 32.0205 2.01244C32.2101 2.0495 32.3976 2.09691 32.5821 2.15446C32.5821 2.63862 32.5692 3.12277 32.5659 3.60693C32.5579 4.64625 32.5659 5.6775 32.4836 6.71359C32.4239 7.49147 32.3449 8.26612 32.2819 9.044C32.2819 9.09403 32.2706 9.15051 32.2642 9.20539C32.2099 9.12277 32.167 9.0332 32.1367 8.9391C32.1786 9.18261 32.1786 9.4315 32.1367 9.67502C32.1337 9.68901 32.1265 9.70178 32.1161 9.71164C32.1057 9.72149 32.0926 9.72798 32.0785 9.73025C32.0643 9.73252 32.0499 9.73046 32.0369 9.72435C32.024 9.71824 32.0132 9.70835 32.0059 9.696C32.0823 9.92886 32.1426 10.1666 32.1867 10.4077C32.2851 10.9306 32.3481 11.5842 32.1141 12.0813C32.104 12.0941 32.0907 12.1041 32.0757 12.1103C32.0606 12.1166 32.0441 12.1188 32.0279 12.1169C32.0117 12.1149 31.9963 12.1088 31.9831 12.0992C31.97 12.0896 31.9595 12.0767 31.9527 12.0619C31.8429 11.7633 31.7267 11.4696 31.6073 11.1743C31.474 10.8583 31.3119 10.5552 31.1232 10.2689C31.2071 10.7708 31.2749 11.276 31.3572 11.7795C31.4556 12.3944 31.7058 12.9398 31.8688 13.5321C31.8849 13.5918 31.822 13.6096 31.7768 13.5902C31.8515 13.7202 31.9111 13.8582 31.9543 14.0018C31.8212 14.0076 31.6894 13.9727 31.5767 13.9017C31.496 13.8194 31.4153 13.7258 31.3507 13.658C31.312 13.6209 31.2733 13.5805 31.2329 13.537C31.3162 13.7695 31.364 14.0132 31.3749 14.26C31.3314 14.4001 31.269 14.5337 31.1893 14.657C31.181 14.6481 31.1744 14.6377 31.17 14.6263C31.1162 14.4451 31.0532 14.2669 30.9811 14.0921C31.0247 14.2343 31.0549 14.3801 31.0715 14.5279C31.0828 14.6231 30.9811 14.6538 30.9101 14.5989C30.8391 14.544 30.8262 14.5343 30.7859 14.5004C30.9263 14.7006 31.1086 14.8991 31.1538 15.1234C31.0733 15.0886 30.9902 15.0601 30.9053 15.0379C30.7011 14.845 30.4708 14.682 30.221 14.5537C30.3162 14.6425 30.4115 14.7328 30.5131 14.8103C30.3179 14.7635 30.1226 14.7119 29.9289 14.6489C29.8926 14.6319 29.8554 14.6168 29.8176 14.6037C28.7605 14.2277 27.8325 14.0566 26.8513 13.5111C26.4543 13.29 25.8217 12.9624 25.4343 12.7042C24.8792 12.1652 24.5838 11.7908 24.5741 11.0339C24.5871 10.9887 24.5822 10.4545 24.5967 10.4109C24.771 9.90741 24.8517 9.48458 24.6532 8.97299C24.4273 8.38716 24.0351 7.8788 23.814 7.29458C23.6768 6.92985 23.5639 6.56028 23.4606 6.18748C23.5094 6.01657 23.5676 5.84848 23.6349 5.68396Z" fill="#575756"/>
<path d="M24.671 9.07949C24.7468 9.04883 24.8211 9.01817 24.8953 8.98428C25.0135 9.64452 25.2421 10.2801 25.5715 10.8644C26.0653 11.7407 26.8222 12.801 27.8987 12.9624C27.9648 12.9721 27.9519 12.885 27.9326 12.8527C27.5727 12.2459 27.0869 11.6826 27.0369 10.9693C27.2046 11.338 27.4724 11.6523 27.8099 11.8763C27.8193 11.884 27.831 11.8883 27.8432 11.8885C27.8553 11.8888 27.8672 11.8851 27.877 11.8779C27.8868 11.8707 27.8939 11.8604 27.8972 11.8488C27.9006 11.8371 27.8999 11.8246 27.8954 11.8134C27.8002 11.4228 27.6163 11.0565 27.5226 10.6675C28.0423 11.6455 28.8525 12.6865 29.9515 12.9059C30.0225 12.9205 30.037 12.8462 30.0031 12.7978C29.243 11.7004 28.4393 10.6062 28.0294 9.32157C28.5174 9.70156 29.0277 10.0519 29.5577 10.3706C29.6416 10.4206 29.6675 10.3028 29.6126 10.2544C29.2785 9.94775 29.0155 9.57495 28.6798 9.27154C29.0873 9.28958 29.4893 9.37238 29.8708 9.51685C29.9531 9.54428 29.9531 9.43131 29.9095 9.39258C29.5868 9.11823 29.1881 8.94554 28.8702 8.66958C29.5803 8.3694 30.6358 9.17955 31.1296 9.60561C31.1845 9.65241 31.2668 9.60561 31.2264 9.53621C30.9781 9.12929 30.7751 8.69634 30.6212 8.24513C30.8569 8.62923 31.0344 9.05206 31.3991 9.33448C31.4459 9.36999 31.5185 9.35546 31.5024 9.28445C31.4297 8.90221 31.409 8.51187 31.4411 8.12409C31.575 8.48075 31.7171 8.83419 31.8252 9.20053C31.8429 9.26186 31.9511 9.31996 31.9607 9.22151C32.0533 8.24344 32.2353 7.27592 32.5046 6.3311C32.4965 6.46344 32.4917 6.59416 32.482 6.72649C32.4223 7.50437 32.3432 8.27902 32.2803 9.0569C32.2803 9.10693 32.269 9.16341 32.2625 9.21829C32.2082 9.13567 32.1653 9.0461 32.135 8.952C32.177 9.19551 32.177 9.4444 32.135 9.68792C32.132 9.70192 32.1249 9.71468 32.1145 9.72454C32.1041 9.73439 32.091 9.74088 32.0769 9.74315C32.0627 9.74542 32.0482 9.74336 32.0353 9.73725C32.0223 9.73114 32.0115 9.72125 32.0043 9.7089C32.0806 9.94176 32.141 10.1795 32.1851 10.4206C32.2835 10.9435 32.3465 11.5971 32.1124 12.0942C32.1023 12.107 32.0891 12.117 32.074 12.1232C32.059 12.1295 32.0425 12.1317 32.0263 12.1298C32.0101 12.1278 31.9947 12.1218 31.9815 12.1121C31.9683 12.1025 31.9578 12.0897 31.9511 12.0748C31.8413 11.7762 31.7251 11.4825 31.6057 11.1872C31.4724 10.8712 31.3103 10.5681 31.1215 10.2818C31.2055 10.7837 31.2732 11.2889 31.3555 11.7924C31.454 12.4073 31.7041 12.9527 31.8671 13.545C31.8833 13.6047 31.8203 13.6225 31.7751 13.6031C31.8499 13.7331 31.9095 13.8711 31.9527 14.0147C31.8195 14.0205 31.6878 13.9856 31.575 13.9146C31.4943 13.8323 31.4136 13.7387 31.3491 13.6709C31.3104 13.6338 31.2716 13.5934 31.2313 13.5499C31.3145 13.7824 31.3624 14.0261 31.3733 14.2729C31.3298 14.413 31.2673 14.5466 31.1877 14.6699C31.1793 14.661 31.1728 14.6506 31.1683 14.6392C31.1146 14.458 31.0516 14.2798 30.9795 14.105C31.0231 14.2472 31.0533 14.393 31.0699 14.5408C31.0812 14.636 30.9795 14.6667 30.9085 14.6118C30.8375 14.5569 30.8246 14.5472 30.7842 14.5133C30.9246 14.7135 31.107 14.912 31.1522 15.1363C31.0716 15.1016 30.9886 15.073 30.9037 15.0508C30.6995 14.8579 30.4692 14.6949 30.2194 14.5666C30.3146 14.6554 30.4098 14.7457 30.5115 14.8232C30.3162 14.7764 30.121 14.7248 29.9273 14.6618C29.891 14.6448 29.8538 14.6297 29.8159 14.6166C28.7589 14.2406 27.8309 14.0695 26.8497 13.524C26.4527 13.303 25.82 12.9753 25.4327 12.7171C24.8775 12.1781 24.5822 11.8037 24.5725 11.0468C24.5854 11.0016 24.5806 10.4674 24.5951 10.4238C24.7565 9.96389 24.834 9.55881 24.671 9.07949Z" fill="#3C3C3B"/>
<path d="M30.2146 9.9042C30.32 9.82967 30.4417 9.78152 30.5696 9.76379C30.8187 9.7346 31.0695 9.80092 31.2716 9.94938C31.78 10.3093 32.0786 11.1937 32.1722 11.8344C32.2141 12.1458 32.2722 12.5767 32.1108 12.8414C31.8429 13.2852 31.2426 12.6187 30.9311 12.3944C30.3049 11.9473 30.0532 11.8844 29.8837 11.2889C29.6562 10.49 29.9467 10.0946 30.2146 9.9042Z" fill="#F1D2B3"/>
<path d="M30.7132 11.5923C30.7881 11.7697 30.9136 11.9211 31.0741 12.0276C31.2345 12.1341 31.4228 12.1909 31.6154 12.191C31.7768 12.183 31.901 12.1216 31.8397 11.936C31.8011 11.8484 31.7412 11.7719 31.6654 11.7133C31.5541 11.6326 31.5218 11.3905 31.504 11.2727C31.4685 10.95 31.4459 10.5094 30.9892 10.5336C30.5648 10.5562 30.5277 10.958 30.6067 11.3002C30.6308 11.4013 30.6666 11.4994 30.7132 11.5923Z" fill="#E7C19C"/>
<path d="M21.0511 8.5647C21.2318 8.86649 21.5756 9.06822 21.858 9.26834C22.1404 9.46846 22.5262 9.6831 22.8877 9.6831C23.0537 9.69053 23.22 9.67422 23.3815 9.63468C23.5925 9.58236 23.8113 9.56923 24.027 9.59595C24.0281 9.60146 24.0306 9.6066 24.0343 9.61084C24.038 9.61509 24.0427 9.6183 24.048 9.62016C24.2094 9.67987 24.4289 9.55399 24.5822 9.52655C24.8743 9.47168 25.1697 9.41036 25.4618 9.34903C26.0217 9.24389 26.5735 9.09881 27.1127 8.9149C28.3553 8.45052 29.5574 7.88428 30.7068 7.22197C31.2652 6.8992 31.7913 6.50865 32.3658 6.223C32.9438 5.94402 33.499 5.62026 34.0265 5.25468C34.5086 4.91964 34.943 4.52059 35.3176 4.0685C35.4315 3.92634 35.5055 3.75647 35.5322 3.57628C35.5402 3.58895 35.55 3.60037 35.5613 3.61017C35.5613 3.61017 35.5709 3.61017 35.5693 3.61017C35.563 3.59327 35.5576 3.57603 35.5532 3.55853C35.5532 3.55853 35.5419 3.55853 35.5451 3.55853C35.5402 3.54443 35.5369 3.52981 35.5354 3.51495C35.5361 3.47179 35.5301 3.42879 35.5177 3.38746C35.4902 3.08244 35.5177 2.60151 35.5177 2.29326C35.5372 1.81098 35.5064 1.32798 35.4257 0.852093C35.3514 0.500273 35.2853 0.206552 34.9189 0.0935822C34.5393 -0.00954824 34.1418 -0.0293673 33.7537 0.0354835C32.737 0.211393 31.709 0.322749 30.7019 0.548689C29.6949 0.774628 28.7072 1.03284 27.6969 1.21844C27.1791 1.29112 26.6759 1.4447 26.2057 1.67354C25.8028 1.88882 25.43 2.15634 25.097 2.46917C24.2901 3.23253 23.6284 4.09271 22.9361 4.95774C22.2712 5.78726 21.5433 6.61678 21.0882 7.58509C20.922 7.9353 20.8413 8.21611 21.0511 8.5647Z" fill="#368041"/>
<g style="mix-blend-mode:multiply" opacity="0.3">
<path d="M21.0882 7.5851C21.5433 6.61679 22.2711 5.78888 22.936 4.95936C23.6284 4.09434 24.2884 3.23415 25.097 2.4708C25.235 2.34245 25.3799 2.22177 25.5311 2.1093C24.8049 3.05824 24.1077 4.04592 23.6397 5.14012C23.2798 5.98093 22.7149 7.51732 23.7527 8.14027C24.3175 8.47918 25.0002 8.62443 25.6376 8.76322C26.0395 8.84875 26.4446 8.93267 26.8448 9.00691C26.3897 9.15054 25.9346 9.24415 25.4617 9.3442C25.1696 9.40553 24.8743 9.46686 24.5822 9.52173C24.4289 9.54916 24.2029 9.67504 24.048 9.61533C24.0427 9.61347 24.038 9.61026 24.0343 9.60601C24.0306 9.60177 24.0281 9.59664 24.027 9.59112C23.8113 9.5644 23.5925 9.57753 23.3815 9.62986C23.22 9.6694 23.0537 9.6857 22.8876 9.67827C22.5261 9.67827 22.1356 9.47493 21.8532 9.26997C21.5707 9.06501 21.2318 8.86812 21.0462 8.56633C20.8413 8.21612 20.922 7.93531 21.0882 7.5851Z" fill="#368041"/>
</g>
<g style="mix-blend-mode:multiply" opacity="0.3">
<path d="M28.8735 4.88996C30.2985 4.08303 31.7639 3.31645 33.042 2.2852C33.7538 1.71228 34.6559 1.08934 35.2272 0.303391C35.3326 0.470221 35.4003 0.658024 35.4257 0.853714C35.5064 1.3296 35.5372 1.8126 35.5177 2.29489C35.5177 2.60313 35.4903 3.08406 35.5177 3.38908C35.5301 3.43041 35.5361 3.47341 35.5354 3.51657C35.537 3.53143 35.5402 3.54605 35.5451 3.56015C35.5451 3.56015 35.5451 3.56015 35.5532 3.56015C35.5576 3.57765 35.563 3.59489 35.5693 3.61179C35.5693 3.61179 35.5693 3.62147 35.5613 3.61179C35.55 3.60199 35.5402 3.59057 35.5322 3.5779C35.5055 3.75809 35.4315 3.92796 35.3176 4.07012C34.943 4.52221 34.5086 4.92126 34.0265 5.25631C33.499 5.62188 32.9438 5.94564 32.3658 6.22462C31.7913 6.51027 31.2652 6.90566 30.7068 7.22359C29.5574 7.88535 28.3553 8.45104 27.1127 8.91491C26.5728 9.09671 26.0205 9.23963 25.4602 9.34258C25.1681 9.40391 24.8727 9.46523 24.5806 9.52011C24.4273 9.54754 24.2014 9.67342 24.0464 9.61371C24.0411 9.61185 24.0364 9.60864 24.0327 9.60439C24.029 9.60015 24.0265 9.59501 24.0254 9.5895C23.8097 9.56278 23.5909 9.57591 23.3799 9.62823C23.2184 9.66778 23.0521 9.68408 22.8861 9.67665C22.5246 9.67665 22.134 9.4733 21.8516 9.26834C21.5692 9.06339 21.2302 8.8665 21.0447 8.5647C21.0203 8.52426 20.9987 8.48221 20.9801 8.43882C23.7834 7.72873 26.3784 6.29401 28.8735 4.88996Z" fill="#368041"/>
</g>
<path d="M31.0069 7.90785C31.1408 8.15316 31.4911 8.15638 31.7347 8.18866C32.74 8.31903 33.755 8.35684 34.7672 8.30163C35.8783 8.21643 36.9784 8.02183 38.0514 7.72064C38.5201 7.61366 38.9769 7.46012 39.4151 7.26231C39.6652 7.14127 40.1655 6.91533 40.2301 6.60224C40.2785 6.36501 39.8363 6.14068 39.6926 6.05353C39.2745 5.79725 38.84 5.56867 38.3919 5.36926C37.9077 5.153 37.4236 4.96095 36.9394 4.72372C36.6601 4.6097 36.3725 4.51691 36.0792 4.44613H36.0889C36.1228 4.44613 36.1147 4.39933 36.0889 4.39288C35.8993 4.31752 35.6904 4.30563 35.4934 4.35899C35.323 4.43094 35.1607 4.52074 35.0092 4.62689C34.5509 4.89479 34.1652 5.24983 33.7182 5.52419C33.3201 5.78126 32.9458 6.07345 32.5998 6.39728C32.2092 6.74588 31.7832 7.04282 31.3991 7.39464C31.3087 7.47695 30.9149 7.73355 31.0069 7.90785Z" fill="#368041"/>
<g style="mix-blend-mode:multiply" opacity="0.3">
<path d="M37.1089 4.8012C36.3039 5.68081 35.3894 6.45368 34.388 7.10094C33.6931 7.52851 32.9713 7.91072 32.227 8.24516C32.0656 8.22902 31.9043 8.21127 31.7348 8.19029C31.4879 8.15801 31.1409 8.15478 31.007 7.90948C30.915 7.74809 31.312 7.48342 31.3991 7.40111C31.7832 7.04607 32.2061 6.75557 32.5998 6.40375C32.9433 6.08031 33.3148 5.78812 33.7102 5.53066C34.1572 5.2563 34.5429 4.90126 35.0013 4.63336C35.1527 4.52721 35.315 4.43741 35.4854 4.36546C35.6824 4.3121 35.8913 4.32399 36.0809 4.39935C36.1084 4.39935 36.1164 4.45906 36.0809 4.4526H36.0712C36.3645 4.52338 36.6521 4.61617 36.9314 4.73019L37.1089 4.8012Z" fill="#368041"/>
</g>
<path d="M23.5089 9.60077C24.0076 9.36999 24.5466 9.278 25.0243 8.9988C25.502 8.71961 26.012 8.45332 26.5317 8.21124C27.5812 7.72703 28.6047 7.18834 29.598 6.59739C30.5873 6.00833 31.6347 5.49997 32.603 4.87864C33.1207 4.55293 33.6545 4.25345 34.2023 3.98133C34.4767 3.84254 34.7542 3.71828 35.0189 3.56012C35.1415 3.47232 35.2723 3.39666 35.4095 3.33418L35.4514 3.30513H35.4643L35.4805 3.31643H35.5079V3.32934C35.7468 3.49072 35.8888 3.93292 36.0163 4.16209C36.0711 4.25892 36.1405 4.36866 36.2099 4.48486C32.837 7.42368 28.8556 9.77991 24.5676 11.0661C24.5105 10.9972 24.4597 10.9232 24.4159 10.845C24.2755 10.5659 24.0479 10.3609 23.9317 10.0543C23.872 9.9074 23.7316 9.75893 23.7042 9.59754L23.5428 9.65403C23.5073 9.66532 23.4783 9.61529 23.5089 9.60077Z" fill="#135111"/>
<g style="mix-blend-mode:multiply" opacity="0.3">
<path d="M23.5089 9.60077C24.0076 9.36999 24.5466 9.278 25.0243 8.9988C25.502 8.71961 26.012 8.45332 26.5317 8.21124C27.5812 7.72703 28.6047 7.18834 29.598 6.59739C30.5873 6.00833 31.6347 5.49997 32.603 4.87864C33.1207 4.55293 33.6545 4.25345 34.2023 3.98133C34.4767 3.84254 34.7542 3.71828 35.0189 3.56012C35.1415 3.47232 35.2723 3.39666 35.4095 3.33418L35.4514 3.30513H35.4643H35.4756C34.8107 4.05073 34.0022 4.68013 33.284 5.34181C32.3149 6.23737 31.2862 7.06611 30.2048 7.8223C28.4122 9.05288 26.517 10.1268 24.5402 11.0323C24.4933 10.9736 24.4517 10.911 24.4159 10.845C24.2755 10.5659 24.0479 10.3609 23.9317 10.0543C23.872 9.9074 23.7316 9.75893 23.7042 9.59754L23.5428 9.65403C23.5073 9.66532 23.4783 9.61529 23.5089 9.60077Z" fill="#368041"/>
</g>
<path d="M44.4988 62.4561C44.4295 62.2895 44.3792 62.1158 44.3487 61.938C44.3325 61.8686 44.3148 61.8008 44.2938 61.7331C44.2643 61.6787 44.242 61.6206 44.2276 61.5604C44.1744 61.3312 44.1066 61.1037 44.0582 60.8729C44.0255 60.7017 44.0152 60.527 44.0275 60.3532C44.0403 60.3225 44.0554 60.2929 44.0727 60.2645C44.1418 60.1933 44.2157 60.127 44.2938 60.066C44.3567 60.0208 44.4213 59.9788 44.4858 59.9385C44.6682 59.8691 44.8506 59.8013 45.0362 59.7432C45.501 59.6027 45.9729 59.4869 46.4499 59.3962C46.6888 59.3478 46.9341 59.3139 47.1842 59.259C47.2552 59.2736 47.3278 59.2897 47.3972 59.3107C47.6325 59.4102 47.8883 59.4512 48.1428 59.4301C48.7114 59.4011 49.2775 59.3348 49.8374 59.2316C50.3877 59.1396 50.867 58.8992 51.3883 58.7168C51.8015 58.5699 52.3792 58.5264 52.7907 58.7168C52.8962 58.7578 52.9852 58.8327 53.0436 58.9296C53.102 59.0266 53.1266 59.1402 53.1135 59.2526C53.0215 59.6867 52.7101 60.0869 52.3905 60.4033C51.9449 60.8194 51.4685 61.2013 50.9655 61.5459C50.5356 61.8792 50.0701 62.1639 49.5776 62.3947C48.811 62.7175 48.0218 62.7788 47.2036 62.8644C46.5338 62.9354 45.8689 62.9806 45.2024 63.0064H45.133C44.7844 62.958 44.6359 62.7417 44.4988 62.4561Z" fill="#A3195B"/>
<path d="M49.4275 61.1456C49.8422 60.5453 50.6653 60.4339 51.2027 59.9675C51.5045 59.7045 52.0403 59.2607 51.9806 58.7991C51.9746 58.7289 51.9501 58.6615 51.9096 58.6038C52.2097 58.5624 52.5154 58.5991 52.7972 58.7103C52.9027 58.7514 52.9916 58.8262 53.05 58.9232C53.1084 59.0201 53.133 59.1337 53.12 59.2461C53.028 59.6803 52.7165 60.0805 52.397 60.3968C51.9513 60.8129 51.475 61.1949 50.9719 61.5394C50.542 61.8727 50.0766 62.1574 49.584 62.3883C49.5033 62.4238 49.4226 62.4528 49.3403 62.4819C49.2096 62.0252 49.1644 61.5265 49.4275 61.1456Z" fill="#1894A2"/>
<path d="M44.0582 60.8745C44.0255 60.7033 44.0152 60.5287 44.0275 60.3548C44.0403 60.3242 44.0554 60.2945 44.0727 60.2661C44.1418 60.1949 44.2157 60.1286 44.2938 60.0676C44.3567 60.0224 44.4213 59.9804 44.4858 59.9401C44.6682 59.8707 44.8506 59.8029 45.0362 59.7448C45.501 59.6043 45.9729 59.4885 46.4499 59.3978C46.6888 59.3494 46.9341 59.3155 47.1842 59.2623C47.0588 59.7359 46.794 60.161 46.4241 60.4823C45.8205 60.9552 44.9135 61.1279 44.1001 61.0698C44.0905 61.0036 44.0727 60.9407 44.0582 60.8745Z" fill="#91406F"/>
<path d="M44.4988 62.4561C44.4295 62.2895 44.3792 62.1158 44.3487 61.938C44.3326 61.8686 44.3148 61.8008 44.2938 61.7331C44.2643 61.6787 44.242 61.6206 44.2277 61.5604C44.218 61.52 44.2067 61.4781 44.197 61.4361L44.2793 61.4264C44.6682 61.4055 44.9684 61.4119 45.317 61.5991C45.7657 61.8412 46.5613 62.3173 46.7856 62.8902C46.2547 62.9386 45.7253 62.9757 45.196 62.9967H45.1266C44.7844 62.958 44.636 62.7417 44.4988 62.4561Z" fill="#1894A2"/>
<path d="M44.4923 62.4416C44.711 62.5218 44.9406 62.5681 45.1733 62.5788C45.6714 62.617 46.1719 62.6132 46.6694 62.5675C47.7135 62.461 48.8626 62.4061 49.8164 61.9219C50.8218 61.42 51.6755 60.6099 52.3824 59.7513C52.5696 59.5237 52.8762 59.1945 52.852 58.8734C52.8492 58.8225 52.8383 58.7724 52.8198 58.7249C52.916 58.771 52.9955 58.846 53.047 58.9394C53.0985 59.0329 53.1195 59.1402 53.107 59.2462C53.015 59.6803 52.7036 60.0805 52.384 60.3968C51.9384 60.8129 51.462 61.1949 50.959 61.5394C50.5291 61.8728 50.0636 62.1575 49.5711 62.3883C48.8045 62.7111 48.0153 62.7724 47.1971 62.858C46.5274 62.929 45.8624 62.9742 45.1959 63H45.1265C44.7844 62.9629 44.6424 62.7466 44.4987 62.4626C44.495 62.4562 44.4928 62.449 44.4923 62.4416Z" fill="#BDBAA9"/>
<path d="M47.1019 60.4985C46.9534 60.2742 47.0325 59.903 47.1293 59.669C47.1393 59.6457 47.1506 59.6231 47.1632 59.6012C47.2197 59.464 47.302 59.2865 47.436 59.2865C47.4602 59.2865 47.4892 59.3091 47.486 59.3333H47.4941H47.4844C47.4782 59.3376 47.471 59.3404 47.4634 59.3414C47.4417 59.3578 47.4245 59.3794 47.4134 59.4043C47.3956 59.4366 47.3779 59.4672 47.3617 59.4995C47.3116 59.5931 47.2726 59.6922 47.2455 59.7948C47.2231 59.888 47.2058 59.9822 47.1939 60.0773C47.3086 59.8801 47.4578 59.7052 47.6345 59.5608C47.691 59.5108 47.8685 59.3446 47.9476 59.3801C47.9676 59.3884 47.9838 59.4039 47.9927 59.4237C47.9927 59.4237 48.0008 59.4237 48.004 59.4317C48.0312 59.4631 48.055 59.4972 48.0751 59.5334C48.0994 59.5639 48.122 59.5957 48.1428 59.6286C48.1816 59.6906 48.2136 59.7566 48.238 59.8255C48.3571 59.6579 48.4923 59.5022 48.6415 59.3607C48.6547 59.3405 48.6699 59.3216 48.6867 59.3042C48.6867 59.2849 48.6996 59.2703 48.7206 59.2671C48.7256 59.2628 48.7317 59.2599 48.7381 59.2584C48.7446 59.257 48.7513 59.2572 48.7577 59.2591C48.7693 59.2557 48.7816 59.2557 48.7932 59.2591C48.813 59.256 48.8333 59.2592 48.8512 59.2682C48.8691 59.2771 48.8838 59.2914 48.8933 59.3091C48.9957 59.3653 49.0861 59.441 49.1596 59.5318C49.2457 59.6242 49.3255 59.7223 49.3984 59.8255C49.3984 59.7497 49.3984 59.6738 49.3984 59.6044C49.4028 59.5338 49.4152 59.464 49.4355 59.3962C49.4484 59.2607 49.4952 59.1606 49.6163 59.2155C49.6271 59.2191 49.6362 59.2265 49.6421 59.2362C49.648 59.246 49.6503 59.2575 49.6486 59.2687C49.6389 59.3769 49.6001 59.4753 49.5937 59.5915C49.584 59.7529 49.5598 59.9046 49.5549 60.0627C49.5554 60.0691 49.5546 60.0755 49.5525 60.0815C49.5505 60.0876 49.5473 60.0932 49.5431 60.098C49.5389 60.1028 49.5338 60.1067 49.5281 60.1095C49.5223 60.1123 49.5161 60.114 49.5098 60.1144C49.4949 60.1371 49.4727 60.1541 49.4468 60.1623C49.4209 60.1705 49.393 60.1696 49.3677 60.1596C49.187 60.0192 49.0789 59.7561 48.8981 59.6141V59.6028C48.8691 59.5689 48.84 59.5334 48.8142 59.4979C48.6915 59.6916 48.5786 59.8933 48.4753 60.0983C48.4753 60.1079 48.4624 60.1208 48.4543 60.1354C48.4382 60.2532 48.3736 60.4129 48.238 60.308C48.1765 60.2421 48.137 60.1586 48.1251 60.0692C48.0944 59.9675 48.0638 59.8691 48.0315 59.769C48.0315 59.7593 48.0202 59.748 48.0137 59.7367L47.9443 59.5963C47.7039 59.8804 47.5086 60.1806 47.2875 60.4807C47.2753 60.4945 47.2591 60.5041 47.2413 60.5085C47.2234 60.5128 47.2046 60.5116 47.1874 60.5049C47.1817 60.5107 47.1748 60.5152 47.1671 60.518C47.1595 60.5208 47.1513 60.522 47.1432 60.5214C47.1351 60.5208 47.1272 60.5184 47.12 60.5145C47.1129 60.5105 47.1067 60.505 47.1019 60.4985Z" fill="#FFF9DE"/>
<path d="M50.8783 61.257C51.276 60.9181 51.6532 60.556 52.008 60.1725C52.2052 59.9712 52.387 59.7555 52.5519 59.5269C52.7133 59.2913 52.8972 59.0847 52.8311 58.7765C52.9569 59.2413 52.4889 59.6786 52.213 59.9982C51.8052 60.4547 51.361 60.8773 50.8848 61.2618C50.8848 61.2618 50.8751 61.2602 50.8783 61.257Z" fill="#FFF9DE"/>
<path d="M36.6554 47.528C33.9344 45.1621 25.1212 38.9342 24.5612 35.9744L32.5611 33.7005C32.3093 35.0319 32.1027 35.5161 32.2609 35.7985C32.7757 36.741 38.2967 40.7449 40.3059 45.5187C40.6303 45.8157 38.7615 48.6835 36.6554 47.528Z" fill="#292942"/>
<path d="M39.6894 44.8554C40.1069 45.214 40.4478 45.6531 40.6916 46.1465C41.1209 46.997 47.1551 59.046 47.1551 59.046C47.1551 59.046 46.3837 60.8745 43.7547 61.1279C43.7547 61.1279 39.3973 54.3352 38.3499 52.008C37.688 50.5515 37.122 49.0534 36.6553 47.5231C36.6553 47.5231 37.3396 44.8038 39.6894 44.8554Z" fill="#292942"/>
<path d="M1.83975 46.989C2.02044 46.9875 2.20072 47.0065 2.37716 47.0454C2.44656 47.0567 2.51757 47.0648 2.58696 47.0713C2.64856 47.0632 2.71096 47.0632 2.77255 47.0713C3.00495 47.1084 3.24057 47.131 3.47297 47.1729C3.64408 47.2043 3.81019 47.2586 3.96681 47.3343C3.99 47.357 4.01157 47.3812 4.03136 47.4069C4.07099 47.4978 4.10494 47.5911 4.13303 47.6861C4.15079 47.762 4.16692 47.8378 4.17822 47.9137C4.17822 48.109 4.16854 48.3042 4.15401 48.4979C4.1092 48.9811 4.03917 49.4616 3.94421 49.9375C3.90064 50.1763 3.83608 50.4216 3.79412 50.6702C3.75603 50.732 3.71398 50.7913 3.66824 50.8477C3.48738 51.0278 3.3533 51.2494 3.27769 51.4932C3.09195 52.0318 2.94048 52.5816 2.8242 53.1393C2.70316 53.6832 2.74673 54.2174 2.72091 54.771C2.69993 55.2083 2.52402 55.7602 2.20125 56.0733C2.12309 56.1541 2.02052 56.2068 1.90939 56.2234C1.79825 56.2401 1.68474 56.2196 1.58637 56.1653C1.21841 55.9152 0.963424 55.4778 0.790742 55.0614C0.572645 54.4955 0.397319 53.9139 0.26624 53.3217C0.118061 52.7986 0.0287455 52.2605 -4.61463e-05 51.7175C-0.0177985 50.8832 0.225893 50.1311 0.455061 49.3403C0.640654 48.6948 0.848841 48.0606 1.07478 47.4328C1.08446 47.4118 1.09415 47.3908 1.10544 47.3698C1.26844 47.0664 1.52505 47.0099 1.83975 46.989Z" fill="#A3195B"/>
<path d="M1.20716 52.0516C1.6074 52.6601 1.40082 53.4654 1.63322 54.1335C1.76556 54.5111 1.97536 55.1744 2.42562 55.2923C2.49311 55.3131 2.5649 55.3159 2.63381 55.3003C2.558 55.5936 2.4092 55.8628 2.2013 56.083C2.12313 56.1638 2.02057 56.2165 1.90943 56.2332C1.7983 56.2498 1.68478 56.2294 1.58642 56.175C1.21846 55.9249 0.963471 55.4875 0.790788 55.0712C0.572227 54.502 0.396896 53.9172 0.266286 53.3217C0.118107 52.7986 0.0287917 52.2605 0 51.7176C0 51.6288 0 51.5433 0 51.4561C0.472859 51.5191 0.952174 51.6643 1.20716 52.0516Z" fill="#1894A2"/>
<path d="M3.47294 47.1762C3.64406 47.2076 3.81017 47.2618 3.96678 47.3376C3.98998 47.3602 4.01155 47.3845 4.03134 47.4102C4.07096 47.5011 4.10492 47.5943 4.13301 47.6894C4.15076 47.7652 4.1669 47.8411 4.1782 47.9169C4.1782 48.1122 4.16851 48.3075 4.15399 48.5012C4.10917 48.9843 4.03914 49.4648 3.94419 49.9407C3.90061 50.1796 3.83767 50.4249 3.7941 50.6734C3.39709 50.3506 2.85806 49.9391 2.7338 49.5066C2.52238 48.7707 2.91939 47.8701 3.27605 47.1375L3.47294 47.1762Z" fill="#91406F"/>
<path d="M1.83973 46.989C2.02042 46.9875 2.2007 47.0065 2.37714 47.0454C2.44654 47.0567 2.51755 47.0648 2.58695 47.0713C2.64854 47.0632 2.71094 47.0632 2.77254 47.0713C2.8145 47.0793 2.85646 47.0842 2.89842 47.089C2.89035 47.1213 2.88228 47.1503 2.87582 47.1697C2.74994 47.5377 2.63052 47.8152 2.32711 48.067C1.93495 48.3898 1.19742 48.9498 0.577698 48.9433C0.739083 48.4333 0.900468 47.9282 1.07638 47.4295C1.08606 47.4086 1.09574 47.3876 1.10704 47.3666C1.26843 47.0664 1.52503 47.0099 1.83973 46.989Z" fill="#1894A2"/>
<path d="M1.8575 46.9893C1.70245 47.1634 1.5736 47.3591 1.47502 47.5703C1.25179 48.0173 1.06766 48.4827 0.924692 48.9615C0.629357 49.9685 0.256557 51.0595 0.340477 52.1198C0.429239 53.2414 0.858524 54.3372 1.38948 55.3136C1.5315 55.5718 1.72032 55.9801 2.03502 56.0786C2.08313 56.0938 2.13307 56.1025 2.1835 56.1044C2.10511 56.1764 2.00609 56.222 1.9004 56.2347C1.79472 56.2475 1.6877 56.2267 1.59444 56.1754C1.22648 55.9252 0.971494 55.4879 0.798811 55.0715C0.577509 54.5026 0.399479 53.9178 0.26624 53.3221C0.118061 52.7989 0.0287455 52.2609 -4.61463e-05 51.7179C-0.0177985 50.8836 0.225893 50.1315 0.455061 49.3407C0.640654 48.6952 0.848841 48.0609 1.07478 47.4331C1.08446 47.4122 1.09415 47.3912 1.10544 47.3702C1.26683 47.0668 1.52343 47.0103 1.83813 46.9893H1.8575Z" fill="#BDBAA9"/>
<path d="M2.6789 50.1376C2.94196 50.0843 3.25827 50.299 3.43741 50.4765C3.45554 50.4934 3.47227 50.5117 3.48744 50.5313C3.59234 50.6362 3.72791 50.7799 3.67788 50.9025C3.66819 50.9251 3.63592 50.9445 3.61494 50.9316V50.9219C3.61332 50.9145 3.61332 50.9068 3.61494 50.8993C3.60826 50.8727 3.59493 50.8483 3.5762 50.8283C3.55361 50.8009 3.53101 50.7718 3.50681 50.7444C3.43562 50.6569 3.35313 50.5793 3.2615 50.5136C3.18416 50.4549 3.10332 50.401 3.01942 50.3522C3.15967 50.5323 3.26628 50.7362 3.33412 50.9542C3.35833 51.0252 3.44548 51.2527 3.38415 51.3125C3.36847 51.3277 3.34787 51.3368 3.32606 51.3383C3.323 51.3418 3.31912 51.3446 3.31476 51.3463C3.2755 51.3595 3.2349 51.3681 3.19372 51.3722C3.15622 51.384 3.11793 51.3932 3.07914 51.3996C3.00736 51.4132 2.93421 51.4181 2.86126 51.4141C2.97267 51.5871 3.06621 51.771 3.14046 51.9628C3.1566 51.9887 3.16951 52.0096 3.17758 52.0258C3.18565 52.0419 3.20179 52.0516 3.19695 52.071C3.20077 52.0764 3.20282 52.0829 3.20282 52.0895C3.20282 52.0962 3.20077 52.1026 3.19695 52.1081C3.19676 52.12 3.19342 52.1317 3.18726 52.142C3.18218 52.1615 3.17128 52.1791 3.15601 52.1924C3.14074 52.2056 3.12182 52.2139 3.10173 52.2162C3.01121 52.2898 2.90698 52.3446 2.7951 52.3776C2.678 52.4234 2.55772 52.4606 2.43521 52.489C2.50622 52.5132 2.57561 52.5422 2.63855 52.5696C2.70267 52.6007 2.76326 52.6386 2.8193 52.6826C2.93873 52.7456 3.01458 52.8262 2.91936 52.9199C2.91023 52.9265 2.89921 52.9301 2.88789 52.9301C2.87658 52.9301 2.86555 52.9265 2.85642 52.9199C2.75959 52.8714 2.68374 52.7988 2.58368 52.7585C2.44166 52.6907 2.30771 52.61 2.16247 52.5471C2.15051 52.5427 2.14067 52.5339 2.13498 52.5225C2.12928 52.5111 2.12814 52.4979 2.1318 52.4857C2.11638 52.4635 2.10894 52.4368 2.1107 52.4098C2.11246 52.3828 2.12331 52.3572 2.14149 52.3372C2.33999 52.2211 2.62564 52.2194 2.82415 52.1065H2.83706C2.88063 52.0936 2.92259 52.079 2.96617 52.0677C2.83222 51.8821 2.68697 51.7014 2.53688 51.5287C2.53688 51.5287 2.52074 51.5093 2.51106 51.4948C2.40777 51.4367 2.2835 51.3173 2.43198 51.2301C2.51615 51.1987 2.60791 51.1936 2.69504 51.2156C2.79994 51.2253 2.90323 51.235 3.00813 51.2414H3.04524L3.20663 51.2285C3.03233 50.9058 2.82737 50.6056 2.6321 50.2893C2.62364 50.2728 2.62065 50.2541 2.62355 50.2358C2.62645 50.2175 2.6351 50.2006 2.64824 50.1876C2.64845 50.1773 2.6514 50.1672 2.65679 50.1584C2.66218 50.1496 2.66981 50.1424 2.6789 50.1376Z" fill="#FFF9DE"/>
<path d="M0.558354 53.3524C0.723117 53.8479 0.917672 54.3329 1.14096 54.8049C1.25318 55.063 1.38482 55.3122 1.53474 55.5505C1.69612 55.7861 1.81555 56.0346 2.12541 56.0927C1.64125 56.033 1.41692 55.4359 1.22488 55.0599C0.955327 54.5109 0.730801 53.9409 0.553513 53.3556C0.553513 53.3556 0.55674 53.3492 0.558354 53.3524Z" fill="#FFF9DE"/>
<path d="M17.1682 46.0852C18.4189 43.3804 22.2018 36.4311 24.2804 32.9145L32.7241 33.673L32.2642 36.0115C31.3572 38.2386 24.3821 46.5726 19.8795 49.6663C19.8343 49.6534 16.7195 50.1117 17.1682 46.0852Z" fill="#413F64"/>
<path d="M20.2909 48.853L19.91 49.6405C19.91 49.6405 20.002 49.6486 19.1289 49.747C18.2558 49.8455 3.66499 50.4394 3.66499 50.4394C3.66499 50.4394 2.36261 48.9111 3.56332 46.968C3.56332 46.968 10.214 45.9997 12.4492 45.6285C14.6844 45.2573 17.9653 45.6559 17.9653 45.6559C17.9653 45.6559 19.8761 46.897 20.2909 48.853Z" fill="#413F64"/>
<path d="M35.4435 19.1145C35.4435 19.1145 36.7346 28.0359 33.3681 34.1443C33.3681 34.1443 33.0146 35.0255 32.516 34.9803C32.0173 34.9351 27.3516 34.572 25.3908 31.8672L35.4435 19.1145Z" fill="#272726"/>
<g style="mix-blend-mode:multiply" opacity="0.4">
<path d="M35.4435 19.1145C35.7183 21.3694 35.7643 23.6463 35.5806 25.9104C34.9884 27.8277 34.2234 29.6981 33.1389 31.3862C32.365 32.5974 31.4228 33.6924 30.3405 34.6381C28.704 34.2621 26.5705 33.4826 25.3956 31.8671L35.4435 19.1145Z" fill="#272726"/>
</g>
<path d="M16.4387 29.306C16.1053 29.6433 15.8751 30.0688 15.7754 30.5325C15.7754 30.56 15.7754 30.5858 15.7754 30.6116C15.8581 30.2419 16.0158 29.8931 16.2386 29.5868C16.4145 29.3641 17.1311 28.6734 17.1972 29.4416C17.152 29.469 17.1101 29.4964 17.081 29.5174C16.5969 29.8741 16.3112 30.5503 16.187 31.1167C16.1893 31.1297 16.1936 31.1422 16.1999 31.1538C16.3209 30.7827 16.4645 30.2727 16.7244 29.9741C16.8561 29.7856 17.02 29.6217 17.2085 29.49C17.5022 29.3383 17.6717 29.4674 17.6539 29.7385C17.5858 29.7932 17.5236 29.8548 17.4684 29.9225C17.3751 30.0305 17.3004 30.1532 17.2473 30.2856C17.17 30.3082 17.0988 30.348 17.039 30.4019C16.9792 30.4558 16.9324 30.5225 16.9019 30.5971C16.7566 30.965 17.0294 30.9102 17.3296 30.9424C17.5186 30.975 17.7032 31.0292 17.8799 31.1038C17.8797 31.2847 17.8288 31.4619 17.733 31.6154C17.7962 31.5484 17.8442 31.4687 17.874 31.3815C17.9038 31.2944 17.9146 31.2019 17.9057 31.1103C18.0129 31.158 18.132 31.172 18.2474 31.1504C18.3627 31.1288 18.4687 31.0726 18.5512 30.9892C18.9393 30.5927 19.274 30.1473 19.547 29.6643C19.3152 30.0287 19.0568 30.3755 18.774 30.702C18.4819 31.0247 18.2769 31.1861 17.8056 31.0441C17.675 30.986 17.5387 30.9417 17.399 30.9118C17.307 30.9118 17.2069 30.9005 17.1133 30.8908C17.0732 30.9022 17.0307 30.9022 16.9907 30.8908C16.96 30.8771 16.9343 30.8543 16.9172 30.8253C16.9002 30.7964 16.8925 30.7629 16.8954 30.7294C16.8696 30.6197 16.9503 30.5309 17.0568 30.4647C17.0875 30.4377 17.1224 30.4159 17.1601 30.4002L17.2085 30.384L17.2682 30.3598C17.4296 30.2985 17.6055 30.2791 17.7701 30.221C17.9419 30.1508 18.0942 30.04 18.214 29.8983C18.3915 29.4141 18.1849 28.8347 18.4899 28.3683C18.1784 28.8025 18.2946 29.348 18.1672 29.8321C18.1574 29.8523 18.1461 29.8718 18.1333 29.8902C18.1286 29.867 18.1205 29.8447 18.1091 29.824C18.0792 29.7756 18.037 29.7358 17.9869 29.7089C17.9367 29.682 17.8803 29.6688 17.8234 29.6707C17.7641 29.6756 17.7077 29.6987 17.662 29.7369C17.6927 29.59 17.7185 29.4851 17.5975 29.3899C17.4764 29.2947 17.3296 29.3657 17.2053 29.4351C17.2247 28.9848 16.8825 28.9509 16.5598 29.193C16.5194 29.2237 16.4807 29.2608 16.4419 29.2947C16.4419 29.1914 16.471 29.0494 16.3419 29.0171C16.2349 28.9954 16.1243 28.9993 16.0191 29.0284C15.9883 29.0601 15.9554 29.0898 15.9207 29.1172C16.0378 29.0779 16.1603 29.0572 16.2838 29.0558C16.4419 29.0688 16.4226 29.193 16.4387 29.306ZM17.7459 29.7643C17.7826 29.7366 17.8274 29.7216 17.8734 29.7216C17.9195 29.7216 17.9642 29.7366 18.0009 29.7643C18.0319 29.7787 18.0583 29.8014 18.0771 29.8299C18.0959 29.8584 18.1064 29.8916 18.1074 29.9257C17.917 30.1791 17.562 30.1807 17.2779 30.2759C17.3515 30.1476 17.4428 30.0303 17.549 29.9273C17.6101 29.8651 17.6784 29.8104 17.7524 29.7643H17.7459Z" fill="#C3A479"/>
<path d="M16.9067 31.4379C16.9346 31.2726 16.9891 31.1129 17.0681 30.965C17.0681 30.9521 17.0939 30.965 17.0875 30.9828C17.0394 31.1016 17.0011 31.2241 16.9729 31.3491C16.9342 31.4863 16.8648 31.6413 16.9487 31.7801C16.9188 31.7289 16.8997 31.6721 16.8924 31.6133C16.8852 31.5545 16.8901 31.4948 16.9067 31.4379Z" fill="#C3A479"/>
<path d="M22.7796 19.7358C21.8629 20.1732 20.8881 22.1744 20.6574 22.531C20.0026 23.5853 19.402 24.6723 18.8579 25.7878C18.3399 26.8497 18.051 27.5469 18.0833 27.7405L18.7482 28.1327C19.1694 28.3974 18.8837 28.4555 23.0798 23.7753L24.5903 21.7386C24.8421 20.7655 23.6995 19.0048 22.7796 19.7358Z" fill="#E7C19C"/>
<path d="M23.0781 22.2195L31.7929 19.6713C32.2626 19.4131 32.6483 18.9515 32.5902 17.9444C32.5902 17.9444 32.29 16.3613 30.4292 16.7389L23.1943 19.426C22.3293 20.1732 22.1469 22.2615 23.0781 22.2195Z" fill="#E7DD9C"/>
<path d="M20.3701 26.8804C20.2052 27.135 20.0218 27.3772 19.8214 27.605C19.7036 27.6857 18.6078 27.074 18.3899 26.5624L18.8579 25.7281L20.3701 26.8804Z" fill="#3A3F72"/>
<path d="M20.0118 27.1725C19.6745 27.0692 19.2549 26.9191 19.0225 26.6383C18.8459 26.3959 18.7623 26.098 18.7869 25.7991C18.8079 25.7587 18.8272 25.7184 18.8466 25.6764C19.3937 24.5604 19.9981 23.4734 20.6574 22.4197C20.8849 22.0614 21.8597 20.0651 22.7763 19.6229C23.6962 18.8934 25.2294 21.0059 24.9809 21.9694L23.4832 23.643C21.9388 25.3698 21.0205 26.4963 20.4556 27.2177C20.3062 27.2349 20.1547 27.2194 20.0118 27.1725Z" fill="#E0FD29"/>
<path d="M23.6042 22.6795L31.7929 20.1732C32.2609 19.915 32.6353 18.9563 32.5772 17.9493C32.5772 17.9493 32.2109 15.9917 30.3485 16.3693L23.1814 19.4357C22.3293 20.1732 22.6714 22.7215 23.6042 22.6795Z" fill="#E0FD29"/>
<path d="M35.5048 19.0435C35.5048 19.0435 32.4481 15.0088 30.5018 16.8325C28.5555 18.6561 28.7088 21.7015 28.1666 21.5837C27.6243 21.4659 26.8545 20.3701 26.9223 19.9698C26.9901 19.5696 26.0702 20.1409 26.3284 19.1968C26.5866 18.2527 28.081 15.0863 30.8246 15.238C33.5681 15.3897 34.9786 17.194 35.5048 19.0435Z" fill="#3A3F72"/>
<path d="M28.775 16.7841C29.193 16.4018 29.6884 16.114 30.2275 15.9401C30.4844 15.8596 30.7498 15.8092 31.0183 15.79C31.283 15.8001 31.547 15.8249 31.8091 15.8642C31.2523 15.8464 30.7956 15.7932 30.2501 15.9788C29.7302 16.1794 29.2504 16.4713 28.8331 16.8406C27.9939 17.5232 27.4065 18.5529 27.0337 19.5551C27.0337 19.5696 27.0079 19.5551 27.0127 19.547C27.3289 18.4788 27.9397 17.5212 28.775 16.7841Z" fill="#3143B1"/>
<path d="M26.046 34.2137C26.046 34.2137 25.4683 34.8011 25.0035 34.5478C24.5387 34.2944 22.7925 32.1754 22.8183 31.3782C22.8183 31.3782 23.572 30.7181 23.6527 30.6632C23.7334 30.6083 26.046 34.2137 26.046 34.2137Z" fill="#3A3F72"/>
<path d="M25.983 27.7389C26.7113 26.4665 27.2352 25.0876 27.5356 23.6527C27.9021 22.0053 28.3535 20.378 28.888 18.7772C29.0041 18.5732 29.1318 18.376 29.2705 18.1865C29.6524 17.4024 30.2036 16.7128 30.8843 16.1676C31.5928 15.6334 32.4207 15.9562 33.4939 16.7276C33.4939 16.7276 34.3347 17.0278 34.9641 18.0655C35.0529 18.2091 35.4015 18.8853 35.5015 19.0338C35.8856 20.7461 36.089 22.0243 35.8501 23.8528C35.8372 23.9528 35.8211 24.0529 35.8066 24.1546L35.792 24.211C35.3434 25.9153 34.8076 27.5695 33.7376 28.9961C32.4603 30.6753 30.8947 32.1141 29.1139 33.2454C27.9842 33.6182 26.7577 34.8076 25.8862 34.4961C25.1987 34.2508 23.0991 31.6719 23.2492 30.9666C23.4719 29.9015 25.5376 28.5217 25.983 27.7389Z" fill="#ECF92A"/>
<path d="M27.9197 33.3067C28.0488 33.239 28.1731 33.1631 28.2941 33.084L28.37 33.0453C28.988 32.7118 29.5813 32.3342 30.1452 31.9156C31.2969 31.0745 32.3121 30.061 33.1551 28.9106C33.6179 28.2596 34.0121 27.5625 34.3316 26.8303C34.6003 26.3278 34.8208 25.801 34.99 25.2568C35.4496 23.6859 35.7125 22.0639 35.7727 20.4282C35.9756 21.5595 35.999 22.7158 35.8421 23.8544C35.8292 23.9545 35.8131 24.0545 35.7985 24.1562L35.784 24.2127C35.3354 25.9169 34.7996 27.5711 33.7296 28.9978C32.4545 30.6756 30.8917 32.1138 29.114 33.2454C27.9843 33.6182 26.7578 34.8076 25.8863 34.4962C25.7241 34.4227 25.5753 34.3229 25.4457 34.2008C26.3058 34.0118 27.1375 33.7112 27.9197 33.3067Z" fill="#3A3F72"/>
<path d="M29.8063 29.0623C29.8063 29.0623 27.0015 29.8805 25.2875 29.2237C25.2875 29.2237 24.8034 31.1603 27.1289 31.7365C28.6218 32.1157 29.8047 29.8241 29.8063 29.0623Z" fill="#F3EB2A"/>
<path d="M28.5362 29.7321C28.0521 29.7579 27.5679 29.7821 27.0838 29.7805C26.4737 29.7805 25.8508 29.6013 25.244 29.4577C25.244 29.2318 25.2762 29.235 25.2762 29.235C26.9966 29.8805 29.795 29.0736 29.795 29.0736C29.8015 29.1867 29.7845 29.2999 29.745 29.4061C29.3722 29.5336 28.9332 29.7111 28.5362 29.7321Z" fill="#3A3F72"/>
<path d="M40.3044 23.6188C40.3044 23.6188 35.0013 19.1839 33.828 18.2834C33.828 18.2834 31.6461 19.8085 32.0947 20.4379L38.258 25.2036C39.2861 25.8669 40.369 24.1013 40.3044 23.6188Z" fill="#F1E9B3"/>
<path d="M45.2912 20.6573C45.2622 20.4185 45.5446 20.1974 45.7044 20.0118C45.9626 19.4695 46.2967 18.9499 46.5533 18.4125C46.8528 17.773 47.3071 17.2183 47.875 16.7986C48.3947 16.4258 48.8578 16.5598 49.4291 16.7195C49.7987 16.8228 50.5992 16.9067 50.4652 17.4651C50.5946 17.4996 50.72 17.5471 50.8397 17.6072C51.0979 17.7363 51.298 18.0913 51.0898 18.3463C51.0885 18.3469 51.0872 18.3472 51.0858 18.3472C51.0844 18.3472 51.083 18.3469 51.0817 18.3463C51.348 18.4657 51.5013 18.6691 51.3609 19.1064C51.3829 19.1249 51.4006 19.1481 51.4126 19.1742C51.4359 19.2354 51.4511 19.2994 51.4578 19.3646C51.3948 19.5405 51.3464 19.7278 51.2964 19.9069L51.2351 20.0279C51.2254 20.0314 51.217 20.0376 51.2108 20.0457C51.0656 20.2587 50.8687 20.4653 50.5895 20.4717C50.4055 20.4717 50.1409 20.4717 50.0537 20.27C50.036 20.228 49.9407 20.1716 49.9133 20.2345C49.852 20.3733 49.781 20.5105 49.7067 20.6476C49.6023 20.7553 49.4859 20.8506 49.3598 20.9317C48.6981 21.3481 48.0687 21.6111 47.286 21.4949C47.1552 21.4756 47.0277 21.4513 46.8986 21.4223C46.6844 21.3742 46.4602 21.4004 46.2628 21.4965C46.1705 21.5191 46.074 21.5183 45.9821 21.494C45.8902 21.4698 45.8058 21.4229 45.7367 21.3577C45.5061 21.1879 45.3472 20.9381 45.2912 20.6573Z" fill="#F1D2B3"/>
<path d="M49.8278 18.7046C50.1038 18.682 50.3539 18.8095 50.6251 18.866C50.8962 18.9224 51.2222 18.9273 51.4142 19.1629C51.198 18.9579 50.851 18.9499 50.5718 18.8853C50.3249 18.8288 50.0877 18.6997 49.8343 18.6997C49.8262 18.7078 49.8246 18.7046 49.8278 18.7046Z" fill="#C3A479"/>
<path d="M49.6422 17.9347C49.7626 17.9597 49.8788 18.0015 49.9875 18.059C50.1587 18.1145 50.3334 18.1587 50.5104 18.1913C50.7541 18.2446 51.0849 18.293 51.2705 18.4754C51.072 18.2995 50.6928 18.2511 50.4378 18.1978C50.2877 18.1655 50.1311 18.1284 49.9859 18.0816C49.8743 18.0294 49.7601 17.9831 49.6438 17.9428C49.6438 17.9428 49.6357 17.9347 49.6422 17.9347Z" fill="#C3A479"/>
<path d="M49.3678 17.1795C49.5502 17.4151 50.0134 17.4329 50.2861 17.4377C50.5053 17.4506 50.7168 17.5231 50.8978 17.6475C50.8978 17.6475 50.8978 17.6556 50.8978 17.6475C50.5879 17.4861 50.2619 17.4861 49.9295 17.4216C49.731 17.3844 49.4905 17.357 49.3727 17.173L49.3678 17.1795Z" fill="#C3A479"/>
<path d="M48.8384 16.8761C48.8007 16.8571 48.7663 16.832 48.7368 16.8018C48.7368 16.8018 48.7368 16.8018 48.7368 16.8018C48.7868 16.8567 48.8691 16.8648 48.9175 16.9245C48.9677 17.0072 48.9877 17.1047 48.974 17.2005C48.974 17.2134 48.9562 17.2101 48.9546 17.2005C48.932 17.0714 48.9659 16.96 48.8384 16.8761Z" fill="#C3A479"/>
<path d="M49.2225 17.9025C49.258 17.9622 49.3161 18.0042 49.3016 18.0832H49.2855C49.279 18.0189 49.2575 17.9569 49.2225 17.9025Z" fill="#C3A479"/>
<path d="M49.5325 20.7445C49.7471 20.6073 49.8343 20.3555 49.9666 20.1473C49.9701 20.1271 49.975 20.1072 49.9811 20.0876C49.9811 20.0747 50.0005 20.0876 50.0054 20.0876C50.0353 20.0168 50.0852 19.9562 50.149 19.9133C50.2261 19.8619 50.3138 19.8282 50.4056 19.8149C50.4912 19.8127 50.5756 19.7941 50.6541 19.76C50.6041 19.8133 50.4831 19.8165 50.4185 19.8391C50.3253 19.8598 50.2389 19.9042 50.168 19.9681C50.097 20.0321 50.0437 20.1132 50.0134 20.2038C50.0957 20.5653 50.8284 20.5137 50.9947 20.3055C51.11 20.1575 51.2105 19.9986 51.2948 19.831C51.1334 20.1732 51.014 20.4766 50.588 20.5024C50.383 20.5169 49.9795 20.4378 49.9634 20.1941C49.9295 20.2539 49.8988 20.3152 49.8698 20.3684C49.8103 20.5302 49.6961 20.666 49.547 20.7525C49.5341 20.7606 49.5244 20.7493 49.5325 20.7445Z" fill="#C3A479"/>
<path d="M38.2274 25.515L32.0173 21.5304C29.5626 19.4082 30.7085 18.0784 30.7085 18.0784C30.7085 18.0784 31.78 17.1101 33.1825 17.6201C34.6624 18.1575 39.2344 22.3599 39.2344 22.3599C38.3791 23.3412 38.087 24.3885 38.2274 25.515Z" fill="#E0FD29"/>
<path d="M44.8296 20.3346C45.0877 20.1748 45.3575 20.0346 45.6365 19.915C45.7769 19.8924 46.5048 20.9156 46.4806 21.4723L45.6995 22.0243L44.8296 20.3346Z" fill="#3A3F72"/>
<path d="M37.9256 22.6844C37.9256 22.6844 38.1773 22.1647 38.5985 22.2712C38.5985 22.2712 42.5541 20.6267 44.9991 20.1054C44.9991 20.1054 45.4978 20.4831 45.806 22.1583C45.806 22.1583 39.8251 25.996 38.237 25.5151C37.017 25.1471 37.4656 23.0782 37.9256 22.6844Z" fill="#E0FD29"/>
</g>
<defs>
<clipPath id="clip0_1:556">
<rect width="53.1087" height="63" fill="white"/>
</clipPath>
</defs>
</svg>
