<svg width="54" height="63" viewBox="0 0 54 63" fill="none" xmlns="http://www.w3.org/2000/svg">
<path d="M44.3193 62.3995C44.2592 62.2262 44.2191 62.0467 44.1998 61.8643C44.1883 61.7939 44.1736 61.7236 44.1572 61.6548C44.1315 61.5977 44.1123 61.5378 44.0999 61.4764C44.0607 61.2407 44.0066 61.005 43.9723 60.7694C43.9493 60.5939 43.9493 60.4162 43.9723 60.2407C43.9876 60.2109 44.0045 60.1819 44.023 60.154C44.0975 60.0868 44.1762 60.0245 44.2587 59.9674C44.3258 59.9248 44.3945 59.8855 44.4633 59.8495C44.6515 59.7906 44.8397 59.7333 45.0329 59.6859C45.5096 59.5712 45.992 59.4817 46.4781 59.4174C46.7219 59.3831 46.9789 59.3651 47.2293 59.3258C47.3013 59.3438 47.3717 59.3651 47.4421 59.3896C47.6736 59.5048 47.93 59.561 48.1884 59.5533C48.766 59.5602 49.3434 59.5284 49.9168 59.4584C50.4798 59.3994 50.979 59.1867 51.5191 59.0328C51.9463 58.9101 52.5339 58.9019 52.9398 59.1114C53.0423 59.1608 53.1259 59.2424 53.1776 59.3438C53.2293 59.4452 53.2464 59.5607 53.2262 59.6728C53.1051 60.1081 52.7663 60.4911 52.4226 60.7939C51.9454 61.1875 51.4393 61.5448 50.9086 61.8627C50.4527 62.173 49.9642 62.4326 49.452 62.6368C48.6549 62.9216 47.8529 62.9282 47.0198 62.9642C46.3373 62.9936 45.6614 62.9986 44.9854 62.9838C44.9625 62.9838 44.9379 62.9838 44.915 62.974C44.5779 62.9233 44.4404 62.6909 44.3193 62.3995Z" fill="#2C1BE9"/>
<path d="M49.3898 61.3815C49.8465 60.8005 50.6877 60.7383 51.254 60.2996C51.5814 60.0509 52.1444 59.6351 52.1133 59.1638C52.1116 59.0927 52.0912 59.0233 52.0544 58.9624C52.3608 58.94 52.6679 58.9963 52.9464 59.1261C53.0489 59.1755 53.1325 59.2571 53.1842 59.3585C53.236 59.4599 53.253 59.5755 53.2328 59.6875C53.1117 60.1229 52.7729 60.5059 52.4292 60.8086C51.952 61.2022 51.4459 61.5595 50.9152 61.8774C50.4593 62.1877 49.9708 62.4473 49.4586 62.6516C49.3735 62.681 49.2949 62.7056 49.2065 62.7301C49.1149 62.2522 49.0969 61.7448 49.3898 61.3815Z" fill="#A29918"/>
<path d="M43.9723 60.7694C43.9494 60.5939 43.9494 60.4162 43.9723 60.2407C43.9877 60.2109 44.0046 60.1819 44.0231 60.154C44.0976 60.0868 44.1763 60.0245 44.2588 59.9674C44.3259 59.9248 44.3946 59.8855 44.4633 59.8495C44.6516 59.7906 44.8398 59.7333 45.0329 59.6859C45.5096 59.5713 45.992 59.4817 46.4781 59.4174C46.722 59.3847 46.979 59.3651 47.2294 59.3258C47.0736 59.7973 46.78 60.2112 46.3865 60.514C45.7465 60.9543 44.8169 61.0705 43.9985 60.9641C43.9952 60.9019 43.9821 60.8365 43.9723 60.7694Z" fill="#407D91"/>
<path d="M44.3193 62.3995C44.2593 62.2263 44.2192 62.0467 44.1998 61.8643C44.1884 61.794 44.1736 61.7236 44.1573 61.6548C44.1316 61.5977 44.1123 61.5379 44.1 61.4764C44.1 61.4339 44.0853 61.3913 44.0771 61.3471H44.1622C44.5243 61.3194 44.8863 61.4028 45.1999 61.5861C45.6401 61.8578 46.4159 62.3897 46.6074 62.9855C46.0673 63.0002 45.5288 63.0051 44.992 62.9937C44.9691 62.9937 44.9445 62.9937 44.9216 62.9838C44.5779 62.9233 44.4404 62.6909 44.3193 62.3995Z" fill="#A29918"/>
<path d="M44.3128 62.3832C44.5301 62.4764 44.7601 62.5371 44.9953 62.5632C45.4972 62.6333 46.0043 62.6601 46.5108 62.6434C47.5731 62.6025 48.74 62.6107 49.7352 62.1851C50.7843 61.7399 51.6992 60.9723 52.4668 60.1458C52.6714 59.9281 53.002 59.6139 52.9971 59.2865C52.9966 59.2355 52.9889 59.1848 52.9742 59.1359C53.0689 59.1878 53.1449 59.2683 53.1913 59.3658C53.2378 59.4634 53.2523 59.5731 53.2328 59.6793C53.1117 60.1147 52.7729 60.4977 52.4292 60.8005C51.9519 61.1941 51.4459 61.5513 50.9152 61.8692C50.4593 62.1795 49.9708 62.4391 49.4585 62.6434C48.6615 62.9282 47.8595 62.9347 47.0264 62.9707C46.3439 63.0002 45.6679 63.0051 44.992 62.9904C44.9691 62.9904 44.9445 62.9904 44.9216 62.9806C44.5779 62.9233 44.4404 62.6958 44.3193 62.3995C44.3181 62.3937 44.3159 62.3882 44.3128 62.3832Z" fill="#3A353B"/>
<path d="M47.0755 60.5779C46.9397 60.3405 47.0411 59.969 47.1557 59.7382C47.1664 59.7154 47.179 59.6935 47.1934 59.6728C47.2605 59.5369 47.357 59.3618 47.4896 59.37C47.5125 59.37 47.542 59.3978 47.5354 59.4207C47.5289 59.4436 47.5354 59.4207 47.5452 59.4207C47.5551 59.4207 47.5452 59.4207 47.5452 59.4207H47.5354C47.5326 59.4234 47.5293 59.4255 47.5256 59.427C47.522 59.4284 47.5181 59.429 47.5141 59.4289C47.4904 59.4437 47.4712 59.4646 47.4585 59.4895C47.4389 59.5206 47.4192 59.5517 47.4012 59.5828C47.3441 59.6739 47.2985 59.7718 47.2654 59.8741C47.2392 59.9641 47.213 60.0607 47.195 60.1572C47.3242 59.9662 47.4867 59.8 47.6745 59.6662C47.7335 59.6188 47.925 59.4616 48.0019 59.5026C48.022 59.5121 48.0382 59.5283 48.0477 59.5484L48.0575 59.5582C48.0829 59.591 48.1044 59.6267 48.1214 59.6646C48.1459 59.699 48.1672 59.735 48.1852 59.7661C48.221 59.8315 48.2496 59.9006 48.2703 59.9723C48.4005 59.8089 48.5469 59.6592 48.7073 59.5255C48.7216 59.5062 48.7375 59.4881 48.7548 59.4715C48.7548 59.4518 48.7711 59.4387 48.7924 59.4371C48.798 59.4334 48.8045 59.4315 48.8112 59.4315C48.8179 59.4315 48.8245 59.4334 48.8301 59.4371C48.8417 59.433 48.8544 59.433 48.8661 59.4371C48.8865 59.4354 48.9071 59.44 48.9249 59.4502C48.9427 59.4604 48.957 59.4758 48.9659 59.4944C49.0657 59.5581 49.1524 59.6403 49.2212 59.7366C49.3029 59.8347 49.3773 59.9386 49.4438 60.0476C49.4438 59.9707 49.4438 59.8954 49.4569 59.825C49.4659 59.7536 49.4824 59.6834 49.506 59.6155C49.5289 59.4796 49.5813 59.3798 49.7008 59.4436C49.7116 59.4483 49.7204 59.4566 49.7258 59.467C49.7311 59.4774 49.7327 59.4894 49.7302 59.5009C49.7139 59.6089 49.6697 59.7055 49.655 59.8168C49.6353 59.9805 49.6026 60.131 49.5879 60.2914C49.5871 60.3042 49.5817 60.3163 49.5726 60.3253C49.5636 60.3344 49.5515 60.3398 49.5388 60.3406C49.522 60.3625 49.4984 60.3781 49.4716 60.3849C49.4449 60.3917 49.4167 60.3894 49.3914 60.3782C49.2163 60.2243 49.123 59.951 48.9495 59.7972C48.9504 59.7934 48.9504 59.7895 48.9495 59.7857L48.871 59.6744C48.7351 59.8626 48.6091 60.059 48.4913 60.2603L48.4683 60.2947C48.4454 60.4142 48.3685 60.5713 48.2376 60.4584C48.1805 60.3873 48.1462 60.3005 48.1394 60.2096C48.1148 60.1049 48.0903 60.0034 48.0624 59.9003L48.0477 59.8643C48.0281 59.8168 48.0068 59.7677 47.9855 59.7202C47.7253 59.9919 47.5076 60.2849 47.267 60.5746C47.2537 60.5883 47.2364 60.5975 47.2176 60.6007C47.1987 60.6039 47.1794 60.6011 47.1623 60.5926C47.1559 60.5981 47.1484 60.602 47.1403 60.6043C47.1322 60.6065 47.1237 60.6069 47.1154 60.6055C47.1072 60.6041 47.0993 60.6009 47.0924 60.5961C47.0855 60.5914 47.0797 60.5851 47.0755 60.5779Z" fill="#F4DEFF"/>
<path d="M50.8514 61.5779C51.2738 61.2599 51.6767 60.9167 52.0576 60.55C52.269 60.3581 52.4664 60.1513 52.6485 59.9314C52.822 59.7006 53.0249 59.5026 52.9758 59.1883C53.074 59.6662 52.5732 60.0803 52.2737 60.3864C51.8333 60.8236 51.3576 61.2238 50.8514 61.5828C50.8514 61.5828 50.8481 61.5812 50.8514 61.5779Z" fill="#F4DEFF"/>
<path d="M24.9308 32.1189L34.0145 32.551C33.6773 33.8816 33.4384 34.3595 33.5791 34.6623C34.0423 35.6443 39.995 40.2271 40.977 45.1847C41.2864 45.4989 39.3649 48.0996 37.3043 46.8001C34.8983 44.4351 25.3563 37.065 24.2663 33.0256C24.4938 32.7277 24.7098 32.4249 24.9308 32.1189Z" fill="#313217"/>
<g style="mix-blend-mode:multiply" opacity="0.5">
<g style="mix-blend-mode:multiply" opacity="0.5">
<path d="M37.5842 39.1321C37.396 39.3718 37.1903 39.5972 36.9688 39.8064C36.6414 40.0634 36.2552 39.9439 36.1504 39.5102C36.0195 38.9684 36.4778 38.2008 36.08 37.7294C35.9937 37.6174 35.8813 37.5281 35.7527 37.4692C35.5645 37.3825 35.283 37.3956 35.2977 37.155C35.3108 36.9635 35.3206 36.7703 35.3337 36.5788C36.0228 37.2794 36.8346 38.1272 37.6251 39.0781C37.6104 39.0952 37.5967 39.1133 37.5842 39.1321Z" fill="#3D3E1D"/>
</g>
<g style="mix-blend-mode:multiply" opacity="0.5">
<path d="M30.1552 39.1567C30.4825 38.885 31.1094 38.2319 31.3614 38.9734C31.4776 39.3105 31.0341 39.4251 30.7984 39.5069C30.4498 39.628 30.0095 39.7803 29.8262 40.0994C29.608 39.8954 29.3947 39.6902 29.1863 39.484C29.538 39.4941 29.8817 39.378 30.1552 39.1567Z" fill="#3D3E1D"/>
</g>
<g style="mix-blend-mode:multiply" opacity="0.5">
<path d="M31.9376 41.2222C32.1389 40.9685 32.3369 40.6444 32.6152 40.466C32.9621 40.2451 33.2944 40.6051 33.3451 40.957C33.4368 41.5921 32.8918 42.1027 32.5971 42.633C32.2453 42.322 31.8868 42.0013 31.5267 41.6756C31.6756 41.5357 31.813 41.384 31.9376 41.2222Z" fill="#3D3E1D"/>
</g>
<g style="mix-blend-mode:multiply" opacity="0.5">
<path d="M31.4973 34.3628C31.8672 34.7965 32.9081 35.6819 32.5022 36.3268C32.3173 36.623 31.9114 36.9275 31.5398 36.8833C31.1994 36.844 30.9555 36.5887 30.7837 36.3104C30.4465 35.7703 30.2927 35.1647 30.0733 34.5706C29.7869 33.8243 29.4187 33.0648 28.8425 32.4904C28.7722 32.42 28.6985 32.3529 28.6232 32.2874L30.6838 32.3856C30.754 33.1105 31.037 33.7984 31.4973 34.3628Z" fill="#3D3E1D"/>
</g>
<g style="mix-blend-mode:multiply" opacity="0.5">
<path d="M33.5137 39.4071C33.5513 39.3825 33.589 39.3612 33.6283 39.34C33.643 39.394 33.7003 39.4431 33.7379 39.4022C33.8136 39.325 33.8976 39.2564 33.9883 39.1976C34.1144 39.1583 34.242 39.1256 34.3681 39.0863H34.3779C34.7052 39.1092 35.1144 39.4774 34.8689 39.8342C34.7412 40.0192 34.607 40.1354 34.6594 40.3711C34.6921 40.5233 34.8754 40.6526 34.9867 40.7508C35.1192 40.8539 35.2304 40.9817 35.3141 41.1272C35.4516 41.4546 34.7249 41.2598 34.6594 41.1534C34.5334 40.9652 34.4352 40.8588 34.4237 40.6199C34.4289 40.5432 34.416 40.4664 34.3861 40.3956C34.2551 40.1763 33.9736 40.2614 33.7919 40.1141C33.71 40.0603 33.6173 40.0251 33.5202 40.011C33.1962 39.9292 33.3042 39.5429 33.5137 39.4071Z" fill="#3D3E1D"/>
</g>
<g style="mix-blend-mode:multiply" opacity="0.5">
<path d="M38.9901 42.4284C38.8657 42.1011 39.0294 41.6952 39.216 41.4186C39.2373 41.3875 39.2635 41.3482 39.2946 41.3073C39.6477 41.8531 39.9642 42.4218 40.2422 43.0095C39.7545 42.9129 39.1865 42.9538 38.9901 42.4284Z" fill="#3D3E1D"/>
</g>
<g style="mix-blend-mode:multiply" opacity="0.5">
<path d="M28.6003 37.1419C28.8786 36.9226 29.2337 36.628 29.6151 36.6852C29.9064 36.7278 30.1535 36.8882 29.8786 37.1402C29.7587 37.2503 29.6319 37.3525 29.4989 37.4463C29.0259 37.7884 28.5856 38.1321 28.4023 38.7033C28.0995 38.3972 27.8049 38.0912 27.5217 37.7867C27.926 37.7638 28.2992 37.3792 28.6003 37.1419Z" fill="#3D3E1D"/>
</g>
<g style="mix-blend-mode:multiply" opacity="0.5">
<path d="M34.4008 36.2531C34.3206 36.7818 34.5465 38.0961 33.8672 38.3072C33.0603 38.5609 32.5169 37.4054 32.9212 36.7916C33.1962 36.3759 33.5759 36.0486 33.9032 35.6705C33.9802 35.5805 34.0669 35.4773 34.1487 35.3644C34.2715 35.4937 34.4106 35.6377 34.5645 35.7932C34.4775 35.933 34.4217 36.0899 34.4008 36.2531Z" fill="#3D3E1D"/>
</g>
<g style="mix-blend-mode:multiply" opacity="0.5">
<path d="M35.3599 42.0684C35.6345 42.1669 35.9265 42.2076 36.2175 42.1878C36.7347 42.1535 36.5792 41.6314 36.7969 41.2991C36.9262 41.0994 37.2306 40.7508 37.5203 40.8605C37.81 40.9701 37.8739 41.3613 37.7757 41.6183C37.6775 41.8752 37.5236 42.1093 37.4287 42.381C37.3644 42.5364 37.3495 42.7078 37.3861 42.872V42.8867C37.4072 42.9969 37.4511 43.1015 37.5151 43.1937C37.5791 43.2859 37.6617 43.3637 37.7577 43.4219C38.0686 43.6118 38.5187 43.7984 38.3616 44.2648C38.2503 44.602 37.887 44.728 37.5547 44.6985C37.1439 44.6609 36.8657 44.494 36.7593 44.075C36.6889 43.8049 36.648 43.4956 36.4647 43.273C36.3812 43.1715 36.1373 43.0438 36.0048 43.1093C35.8722 43.1748 35.7494 43.3237 35.5841 43.3041C35.4395 43.291 35.2961 43.2663 35.1553 43.2304C34.8656 43.1551 34.2879 42.9915 34.3173 42.5954C34.3664 41.944 34.8673 41.9047 35.3599 42.0684Z" fill="#3D3E1D"/>
</g>
</g>
<g style="mix-blend-mode:multiply" opacity="0.5">
<g style="mix-blend-mode:multiply" opacity="0.5">
<path d="M39.3011 41.7967C38.4386 41.8605 37.2765 42.363 36.4631 41.8949C36.1357 41.7099 35.5694 41.1895 36.0702 40.8801C36.3337 40.728 36.6336 40.6505 36.9377 40.6559C37.3551 40.6559 37.7675 40.723 38.1849 40.7279C38.4098 40.7412 38.6353 40.7146 38.851 40.6494C39.1129 41.0209 39.3617 41.4039 39.5941 41.795C39.4965 41.7891 39.3986 41.7896 39.3011 41.7967Z" fill="#3D3E1D"/>
</g>
<g style="mix-blend-mode:multiply" opacity="0.5">
<path d="M34.5154 44.3139C33.769 43.6592 32.9474 42.9506 32.1029 42.1862C32.4449 42.1535 32.8165 41.8474 33.0849 41.579C33.3533 41.3106 33.6414 40.9407 34.0342 40.777C34.5072 40.5822 35.188 40.579 35.1619 41.268C35.1357 41.9571 34.6021 42.1224 34.2289 42.5774C34.1287 42.6772 34.0588 42.8033 34.0272 42.9412C33.9957 43.079 34.0038 43.223 34.0505 43.3565C34.1226 43.579 34.3484 43.9457 34.5154 44.3139Z" fill="#3D3E1D"/>
</g>
<g style="mix-blend-mode:multiply" opacity="0.5">
<path d="M32.6413 40.4169C32.6823 40.7443 32.4891 41.0569 32.2747 41.2828C32.0865 41.4824 31.8917 41.6477 31.8377 41.9227C31.8377 41.9227 31.8377 41.9391 31.8377 41.9505C31.6075 41.7443 31.3762 41.5354 31.1438 41.3237C31.5529 41.0274 31.3745 40.1894 31.3533 39.7459C31.346 39.3273 31.4849 38.9193 31.7461 38.592C31.9719 38.2729 32.5268 37.5838 32.99 37.9161C33.062 37.9668 33.44 38.286 33.3173 38.4218C33.2482 38.485 33.1684 38.5355 33.0816 38.5707C32.9397 38.6327 32.8142 38.7269 32.715 38.8457C32.4498 39.2009 32.4286 39.3907 32.4875 39.8277C32.5039 40.0307 32.6168 40.2173 32.6413 40.4169Z" fill="#3D3E1D"/>
</g>
<g style="mix-blend-mode:multiply" opacity="0.5">
<path d="M36.5956 38.0961C36.3141 38.5724 36.1963 39.4202 35.6987 39.723C35.6294 39.7665 35.5497 39.7905 35.4679 39.7926C35.3861 39.7946 35.3052 39.7745 35.2339 39.7344C34.8149 39.5151 34.6381 39.1649 34.9671 38.7868C35.2388 38.4725 35.6627 38.2565 35.8378 37.8702C35.9274 37.674 35.978 37.4622 35.9868 37.2466C36.2094 37.4807 36.4401 37.7246 36.6742 37.9799C36.6446 38.0162 36.6184 38.0551 36.5956 38.0961Z" fill="#3D3E1D"/>
</g>
<g style="mix-blend-mode:multiply" opacity="0.5">
<path d="M34.4532 37.137C34.3893 37.4774 34.26 37.903 33.8296 37.6427C33.5023 37.4463 33.5726 37.0862 33.697 36.7835C33.8607 36.371 34.1504 35.9962 34.3779 35.6034L34.738 35.97C34.5628 36.3105 34.5301 36.7704 34.4532 37.137Z" fill="#3D3E1D"/>
</g>
<g style="mix-blend-mode:multiply" opacity="0.5">
<path d="M36.3305 44.8246C36.4369 44.4661 36.5285 43.9686 36.8297 43.7133C36.9852 43.5823 37.6857 43.4154 37.594 43.8131C37.4778 44.3041 36.6431 45.0963 36.2421 45.8246L36.0113 45.62C36.1507 45.3693 36.258 45.1021 36.3305 44.8246Z" fill="#3D3E1D"/>
</g>
<g style="mix-blend-mode:multiply" opacity="0.5">
<path d="M39.4091 44.0652C39.0981 43.9981 38.6988 43.9129 38.7168 43.5201C38.7397 43.0291 39.2078 43.1077 39.5548 43.1928C39.8365 43.2776 40.1228 43.3459 40.4124 43.3974C40.5281 43.6724 40.6323 43.95 40.725 44.2305C40.2144 44.1519 39.6939 44.1257 39.4091 44.0652Z" fill="#3D3E1D"/>
</g>
<g style="mix-blend-mode:multiply" opacity="0.5">
<path d="M29.4432 37.7213C30.345 37.7524 30.7624 38.8932 30.3156 39.5871C30.1822 39.784 30.0362 39.9721 29.8786 40.1502C29.3418 39.6395 28.8131 39.1223 28.309 38.6067C28.5332 38.1141 28.9195 37.7033 29.4432 37.7213Z" fill="#3D3E1D"/>
</g>
</g>
<path d="M40.5417 44.2828C40.9418 44.6738 41.2591 45.1414 41.4747 45.6577C41.856 46.5448 47.2195 59.1146 47.2195 59.1146C47.2195 59.1146 46.3242 60.915 43.6482 61.0116C43.6482 61.0116 39.6579 53.8657 38.7381 51.4451C38.1617 49.9296 37.6854 48.378 37.3125 46.8001C37.3125 46.8001 38.1652 44.0848 40.5417 44.2828Z" fill="#313217"/>
<g style="mix-blend-mode:multiply" opacity="0.3">
<path d="M39.0425 45.4089C38.9934 45.4596 38.941 45.5169 38.887 45.5726C38.982 45.2207 39.6366 44.9523 39.9329 44.9457C40.2799 44.9457 40.6612 45.2583 40.3944 45.6168C40.3278 45.6872 40.2899 45.78 40.2881 45.877C40.3159 46.1831 40.5368 46.3238 40.7987 46.422C41.0982 46.5317 41.365 46.6724 41.2112 47.0554C41.1359 47.2404 41.0377 47.2829 40.9018 47.1193C40.6678 46.8394 40.2193 45.9523 39.7234 46.1896C39.4091 46.3402 39.3862 46.7395 39.1031 46.895C38.8199 47.0505 38.4877 46.7314 38.5761 46.4318C38.6159 46.2911 38.6754 46.1566 38.7528 46.0325C38.8645 45.8561 38.994 45.6916 39.1391 45.5415C39.198 45.4809 39.0998 45.35 39.0425 45.4089Z" fill="#3D3E1D"/>
</g>
<g style="mix-blend-mode:multiply" opacity="0.3">
<path d="M39.2405 49.8133C39.2373 49.7922 39.2263 49.773 39.2096 49.7597C39.1929 49.7464 39.1718 49.7398 39.1505 49.7412C39.1276 49.5264 39.1276 49.3096 39.1505 49.0947C39.16 48.8664 39.2344 48.6456 39.3649 48.4581C39.4599 48.355 39.8445 47.9965 39.9607 48.2944C40.09 48.6217 40.018 49.3943 40.4403 49.5383C40.6399 49.6054 40.8314 49.4777 41.0147 49.4074C41.2431 49.3027 41.4943 49.2582 41.7447 49.2781C42.1735 49.3403 42.0246 49.7282 41.8036 49.9213C41.4616 50.2208 41.0164 50.3796 41.1489 50.8853C41.239 51.2126 41.3224 51.5842 41.2062 51.9131C41.0982 52.2159 40.7152 51.9442 40.7414 51.6889C40.755 51.5594 40.7768 51.431 40.8069 51.3043C40.845 51.1714 40.8686 51.0347 40.8773 50.8968C40.8773 50.7331 40.7283 50.0178 40.4157 50.2339C40.1031 50.4499 39.9378 51.2536 39.455 51.2159C38.7348 51.1439 39.3027 50.2519 39.2405 49.8133Z" fill="#3D3E1D"/>
</g>
<g style="mix-blend-mode:multiply" opacity="0.5">
<path d="M40.1194 45.7542C40.3731 45.0995 40.9378 45.2845 41.4992 45.7133L42.3044 47.6004C42.0969 47.7225 41.8983 47.8592 41.7103 48.0096C41.5221 48.1536 40.7283 48.9818 40.54 48.4466C40.3977 48.0423 41.3584 47.5595 41.5908 47.3255C42.3404 46.5611 39.9034 46.314 40.1194 45.7542Z" fill="#3D3E1D"/>
</g>
<g style="mix-blend-mode:multiply" opacity="0.5">
<path d="M39.851 51.7806C39.9132 52.0064 39.9165 52.3305 39.6235 52.3812C39.4318 52.4039 39.2383 52.3569 39.0785 52.2487C39.0032 52.085 38.9361 51.9295 38.8772 51.7838C38.9027 51.565 38.9908 51.3581 39.1309 51.1881C39.45 50.8575 39.7839 51.5302 39.851 51.7806Z" fill="#3D3E1D"/>
</g>
<g style="mix-blend-mode:multiply" opacity="0.5">
<path d="M41.5679 51.9623C41.7741 51.5367 41.473 51.0539 41.3355 50.6611C41.2815 50.5121 41.1718 50.2437 41.3028 50.0981C41.3474 50.0473 41.403 50.0072 41.4653 49.981C41.5276 49.9547 41.595 49.9428 41.6625 49.9463C41.7301 49.9497 41.7959 49.9684 41.8552 50.001C41.9145 50.0335 41.9657 50.079 42.0049 50.1341C42.0573 50.2086 42.1023 50.2881 42.1391 50.3714C42.1391 50.3714 42.1391 50.3828 42.1391 50.391C42.1015 50.9 42.2275 51.5253 42.7496 51.7708C43.1277 51.9475 43.766 52.0474 43.9984 52.4254C44.1817 52.7299 43.7022 53.3142 43.3765 53.0801C43.1588 52.9263 43.0278 52.6873 42.838 52.5056C42.6203 52.2978 42.1227 52.1063 41.9378 52.4549C41.8331 52.6529 41.9083 52.9083 41.8429 53.1178C41.6432 53.7528 40.7217 53.6481 40.8101 52.8985C40.8608 52.3911 41.3666 52.3698 41.5679 51.9623Z" fill="#3D3E1D"/>
</g>
<g style="mix-blend-mode:multiply" opacity="0.5">
<path d="M44.5598 54.1603C44.5878 54.0713 44.6472 53.9954 44.727 53.9469C44.8068 53.8984 44.9016 53.8806 44.9935 53.8968C45.1785 54.3322 45.3601 54.7561 45.5353 55.1669C45.3716 55.0834 45.2079 55.0032 45.0754 54.9329C44.7971 54.7676 44.406 54.5368 44.5598 54.1603Z" fill="#3D3E1D"/>
</g>
<g style="mix-blend-mode:multiply" opacity="0.5">
<path d="M41.671 55.3421C41.6635 55.1139 41.7032 54.8866 41.7877 54.6745C41.8722 54.4624 41.9997 54.2701 42.162 54.1096C42.383 53.9149 42.653 53.8052 42.9362 53.9623C43.1277 54.0687 43.365 54.2324 43.2635 54.4877C43.126 54.815 42.8069 55.0294 42.5417 55.2455C42.4485 55.3224 42.2373 55.4517 42.2439 55.5957C42.2537 55.8887 42.7463 56.8265 42.4075 57.0229C42.2291 57.1277 41.9165 57.0082 41.7529 56.9067C41.6386 56.8286 41.5468 56.7219 41.4865 56.5973C41.4262 56.4727 41.3995 56.3345 41.4091 56.1964C41.4159 55.9105 41.4644 55.6271 41.5532 55.3551C41.5957 55.401 41.6759 55.419 41.671 55.3421Z" fill="#3D3E1D"/>
</g>
<g style="mix-blend-mode:multiply" opacity="0.5">
<path d="M43.3257 57.8413C44.1686 57.7153 43.7709 58.9068 43.581 59.2587C43.4363 59.522 43.2756 59.7761 43.0998 60.0197L42.8445 59.5549C42.7774 59.0541 42.8429 57.9133 43.3257 57.8413Z" fill="#3D3E1D"/>
</g>
<g style="mix-blend-mode:multiply" opacity="0.5">
<path d="M45.987 60.2669C45.275 60.4813 45.0623 58.2717 45.9182 58.6122C46.316 58.7759 46.5598 59.4191 46.532 59.9477C46.3856 60.0766 46.2296 60.1942 46.0656 60.2996C46.0571 60.287 46.0452 60.2772 46.0312 60.2714C46.0172 60.2656 46.0019 60.264 45.987 60.2669Z" fill="#3D3E1D"/>
</g>
<g style="mix-blend-mode:multiply" opacity="0.5">
<path d="M45.7742 57.5189C45.3127 57.1915 45.7006 56.5876 46.149 56.6056L46.4764 57.3601C46.2996 57.5958 46.0607 57.7235 45.7742 57.5189Z" fill="#3D3E1D"/>
</g>
<g style="mix-blend-mode:multiply" opacity="0.5">
<path d="M43.9411 55.7152C43.9624 55.7692 44.0295 55.8118 44.0606 55.7578C44.4681 55.0736 45.1883 56.0115 45.1261 56.5139C45.0527 56.8817 44.8641 57.2165 44.5876 57.4698C44.5232 57.532 44.4846 57.6163 44.4794 57.7057C44.4743 57.7952 44.503 57.8833 44.5598 57.9526C44.7071 58.1752 44.7873 58.2799 44.7922 58.5582C44.7922 58.8757 44.3667 58.6318 44.311 58.4878C44.2634 58.3632 44.2427 58.2298 44.2505 58.0966C44.2586 57.9329 44.2799 57.784 44.2881 57.6269C44.3177 57.4087 44.2752 57.1869 44.167 56.9951C44.0167 56.7778 43.8457 56.5755 43.6563 56.3912C43.4403 56.1538 43.6956 55.9018 43.9411 55.7152Z" fill="#3D3E1D"/>
</g>
<g style="mix-blend-mode:multiply" opacity="0.5">
<path d="M40.5859 54.18C40.7317 54.5718 40.7461 55.0003 40.6268 55.401C40.3338 54.8347 40.049 54.2766 39.7904 53.7512C39.8708 53.7252 39.9556 53.7157 40.0397 53.7233C40.1238 53.731 40.2054 53.7556 40.2798 53.7956C40.3541 53.8357 40.4196 53.8904 40.4722 53.9565C40.5248 54.0226 40.5635 54.0986 40.5859 54.18Z" fill="#3D3E1D"/>
</g>
<g style="mix-blend-mode:multiply" opacity="0.5">
<path d="M42.4485 48.9785C42.4996 48.8118 42.5855 48.6579 42.7005 48.5268L43.2537 49.8231L43.1097 49.8051C42.6678 49.7609 42.2946 49.4728 42.4485 48.9785Z" fill="#3D3E1D"/>
</g>
<g style="mix-blend-mode:multiply" opacity="0.5">
<path d="M39.0408 46.4875C39.2438 46.7117 39.5924 47.1422 39.2732 47.422C39.146 47.5222 39.012 47.6136 38.8722 47.6954C38.6022 47.8754 38.4189 48.1291 38.5449 48.4663C38.6709 48.8034 39.0359 48.8329 39.3453 48.8902C39.6055 48.9393 39.9656 49.008 39.9999 49.3321C40.0212 49.5121 40.0081 49.9327 39.7626 49.9868C39.4484 50.062 39.0785 49.7543 38.8248 49.6021C38.5335 49.4286 38.2356 49.2944 38.0064 49.3435C37.7397 48.5039 37.5514 47.8181 37.4369 47.3713C37.7429 46.7575 38.3796 45.7591 39.0408 46.4875Z" fill="#3D3E1D"/>
</g>
<g style="mix-blend-mode:multiply" opacity="0.3">
<path d="M46.8054 58.4469C46.6328 58.4176 46.4554 58.4368 46.2931 58.5025C46.2146 58.5434 45.8954 58.8839 45.8365 58.7808C45.6728 58.4927 45.537 58.1261 45.8365 57.8757C45.9396 57.784 46.0476 57.7005 46.1524 57.6105C46.2661 57.515 46.3668 57.405 46.4519 57.2832L46.9723 58.4992C46.9191 58.4748 46.863 58.4573 46.8054 58.4469Z" fill="#3D3E1D"/>
</g>
<g style="mix-blend-mode:multiply" opacity="0.3">
<path d="M45.5304 56.401C45.4649 56.5647 45.2555 57.1817 44.915 56.82C44.7986 56.7113 44.721 56.5675 44.6941 56.4105C44.6672 56.2536 44.6925 56.0921 44.7661 55.9509C44.9297 55.5515 45.1883 55.1817 45.3717 54.7856L45.8037 55.7954C45.7039 55.9935 45.6139 56.1964 45.5304 56.401Z" fill="#3D3E1D"/>
</g>
<g style="mix-blend-mode:multiply" opacity="0.3">
<path d="M44.9707 53.8428C44.9442 54.0645 44.8988 54.2836 44.8348 54.4975C44.7366 54.7577 44.2947 55.0671 44.005 54.9541C43.514 54.7659 43.9035 54.2291 44.0688 53.9934C44.2963 53.6661 44.5386 53.324 44.3258 52.9328C44.113 52.5416 43.8021 52.5302 43.5074 52.7871C43.2849 52.977 42.676 53.3976 42.5876 52.8313C42.5352 52.504 42.55 52.2798 42.8446 52.1226C43.1114 51.9803 43.5336 51.7086 43.5451 51.3599C43.5615 50.9377 43.4289 50.5416 43.4027 50.1504L44.9707 53.8428Z" fill="#3D3E1D"/>
</g>
<g style="mix-blend-mode:multiply" opacity="0.3">
<path d="M45.4011 59.4174C45.5042 59.7759 45.5419 60.149 45.6352 60.5107C45.6342 60.5216 45.6342 60.5326 45.6352 60.5435C45.365 60.6756 45.082 60.7798 44.7906 60.8545C44.7972 60.5779 44.7857 60.3013 44.7563 60.0263C44.7333 59.7546 44.6728 59.4076 44.7759 59.1457C44.9576 58.7022 45.3324 59.1654 45.4011 59.4174Z" fill="#3D3E1D"/>
</g>
<g style="mix-blend-mode:multiply" opacity="0.3">
<path d="M41.6727 56.0065C41.8004 55.6416 42.0164 55.2749 42.4632 55.3289C43.293 55.4321 42.9101 56.1948 42.4796 56.5385C42.4338 56.5745 42.4681 56.6432 42.5091 56.6694C42.8593 56.8871 43.3094 56.9673 43.676 57.1702C43.7922 57.2357 44.3045 57.4976 44.1212 57.6825C43.7939 58.0099 43.4878 57.7775 43.1965 57.5647C42.8233 57.2914 42.4681 57.5647 42.3781 57.9722C42.3388 58.1539 42.3143 58.3372 42.2783 58.5189C42.0148 58.0279 41.73 57.5025 41.4387 56.9542C41.5516 56.6236 41.5941 56.234 41.6727 56.0065Z" fill="#3D3E1D"/>
</g>
<g style="mix-blend-mode:multiply" opacity="0.3">
<path d="M39.7021 51.9868C39.9034 52.1259 39.892 52.3141 39.8952 52.5236C39.8761 52.7343 39.9299 52.9452 40.0474 53.121C40.3748 53.5008 41.5401 53.4778 41.3454 54.18C41.2259 54.6121 40.7038 54.671 40.3388 54.8347C39.7774 53.7414 39.2766 52.707 38.9492 51.9361C39.0684 51.8787 39.2004 51.8532 39.3324 51.8621C39.4643 51.8709 39.5917 51.9139 39.7021 51.9868Z" fill="#3D3E1D"/>
</g>
<path d="M2.15278 43.1388C2.33574 43.1473 2.51705 43.1775 2.69289 43.2288C2.76272 43.2441 2.8331 43.2572 2.90403 43.2681C2.9666 43.2646 3.02935 43.2696 3.09061 43.2828C3.32466 43.3335 3.56198 43.3712 3.79439 43.4285C3.96628 43.4727 4.13144 43.5399 4.2854 43.6282C4.30791 43.6529 4.32869 43.6791 4.3476 43.7067C4.38209 43.8007 4.40998 43.8969 4.43107 43.9948C4.4458 44.0733 4.45726 44.1584 4.4638 44.2288C4.44907 44.4252 4.43107 44.6216 4.40325 44.818C4.32821 45.3047 4.22769 45.7871 4.10209 46.2632C4.04317 46.5022 3.96297 46.7543 3.90569 46.9949C3.8615 47.0538 3.81567 47.1111 3.76657 47.1585C3.57009 47.3316 3.41989 47.551 3.32957 47.7968C3.11022 48.3298 2.92597 48.8765 2.778 49.4335C2.61433 49.9769 2.6307 50.5219 2.57014 51.0784C2.52267 51.5203 2.31154 52.0686 1.96456 52.3665C1.88016 52.4431 1.77296 52.4898 1.65942 52.4996C1.54589 52.5093 1.43229 52.4816 1.33606 52.4205C0.979261 52.1456 0.748486 51.6856 0.599546 51.2552C0.413347 50.6666 0.272183 50.0648 0.177276 49.4548C0.0619682 48.917 0.00707124 48.3681 0.0136059 47.8181C0.0479767 46.9736 0.340947 46.2272 0.62246 45.44C0.849962 44.7984 1.09874 44.1699 1.36716 43.548L1.40153 43.4858C1.57011 43.1813 1.83362 43.1404 2.15278 43.1388Z" fill="#2C1BE9"/>
<path d="M1.19859 48.2224C1.56685 48.864 1.30825 49.666 1.50302 50.3501C1.61267 50.7413 1.78453 51.4254 2.23135 51.5727C2.29865 51.5982 2.37146 51.6055 2.44248 51.594C2.34637 51.8868 2.17741 52.1504 1.95147 52.36C1.86707 52.4365 1.75988 52.4833 1.64634 52.493C1.5328 52.5028 1.4192 52.475 1.32298 52.414C0.966177 52.139 0.735402 51.6791 0.586461 51.2487C0.400262 50.6601 0.259099 50.0582 0.164192 49.4483C0.0488838 48.9105 -0.00601317 48.3615 0.000521486 47.8116C0.000521486 47.7232 0.0119784 47.6348 0.0201619 47.5481C0.486623 47.6332 0.96454 47.8148 1.19859 48.2224Z" fill="#A29918"/>
<path d="M3.79441 43.4285C3.9663 43.4727 4.13145 43.5399 4.28542 43.6282C4.30793 43.6529 4.32871 43.6791 4.34761 43.7067C4.3821 43.8007 4.40999 43.8969 4.43109 43.9948C4.44582 44.0733 4.45727 44.1585 4.46382 44.2288C4.44909 44.4252 4.43109 44.6216 4.40326 44.818C4.32823 45.3047 4.2277 45.7871 4.10211 46.2633C4.04155 46.5022 3.96299 46.7543 3.9057 46.9949C3.52435 46.6495 3.00388 46.1945 2.90568 45.7493C2.74201 44.9915 3.19538 44.1044 3.59964 43.3843C3.66184 43.4007 3.72894 43.4121 3.79441 43.4285Z" fill="#407D91"/>
<path d="M2.15278 43.1388C2.33575 43.1473 2.51705 43.1775 2.6929 43.2288C2.76273 43.2441 2.83311 43.2572 2.90403 43.2681C2.96661 43.2646 3.02936 43.2696 3.09062 43.2828L3.21828 43.3074C3.20846 43.3401 3.19864 43.3679 3.19045 43.3876C3.03988 43.7525 2.9024 44.0259 2.57996 44.2616C2.16097 44.5676 1.37862 45.0799 0.753403 45.0406C0.941624 44.5332 1.1413 44.0324 1.35244 43.5414L1.38681 43.4792C1.57012 43.1813 1.83363 43.1404 2.15278 43.1388Z" fill="#A29918"/>
<path d="M2.1708 43.1388C2.00263 43.3055 1.86031 43.4963 1.74853 43.7051C1.49517 44.1438 1.27944 44.6031 1.10367 45.0783C0.743591 46.0783 0.298408 47.1569 0.322959 48.2387C0.342599 49.3844 0.709221 50.5138 1.18714 51.5351C1.3148 51.8068 1.48011 52.2307 1.78617 52.3534C1.83378 52.3724 1.884 52.384 1.93511 52.3878C1.85122 52.4563 1.74789 52.4966 1.63978 52.5031C1.53166 52.5096 1.42426 52.4818 1.3328 52.4238C0.976003 52.1488 0.745228 51.6889 0.596288 51.2585C0.410089 50.6699 0.268925 50.0681 0.174019 49.4581C0.0587104 48.9203 0.00381349 48.3713 0.0103481 47.8214C0.0447189 46.9768 0.337689 46.2305 0.619202 45.4433C0.846704 44.8017 1.09548 44.1732 1.3639 43.5512L1.39827 43.489C1.58158 43.1928 1.84509 43.1519 2.16425 43.1502L2.1708 43.1388Z" fill="#3A353B"/>
<path d="M2.80747 46.3762C3.07752 46.3402 3.38359 46.5742 3.55544 46.7657C3.5718 46.7851 3.58709 46.8053 3.60127 46.8263C3.70275 46.9376 3.83041 47.0914 3.76494 47.2142C3.75348 47.2355 3.71911 47.2518 3.69947 47.2371V47.2453V47.2338C3.69784 47.2257 3.69784 47.2174 3.69947 47.2093C3.69391 47.1821 3.68152 47.1567 3.66346 47.1356C3.64382 47.1061 3.62091 47.0767 3.59963 47.0472C3.53599 46.9598 3.46178 46.8807 3.37868 46.8115C3.30371 46.7528 3.22558 46.6981 3.14463 46.6479C3.27528 46.8393 3.37011 47.0528 3.42451 47.278C3.44415 47.35 3.51943 47.5857 3.45397 47.6414C3.43717 47.6562 3.4158 47.6649 3.39341 47.6659H3.38031C3.34005 47.676 3.29897 47.6826 3.25756 47.6855C3.21866 47.6942 3.17932 47.7008 3.13972 47.7052C3.06575 47.7134 2.9911 47.7134 2.91713 47.7052C3.01969 47.8872 3.10359 48.0791 3.16754 48.278C3.18003 48.2988 3.19044 48.3207 3.19864 48.3435C3.21828 48.3435 3.22319 48.3697 3.21828 48.391C3.22029 48.3973 3.22043 48.404 3.21868 48.4104C3.21694 48.4168 3.21339 48.4226 3.20846 48.427C3.2073 48.4394 3.20277 48.4513 3.19537 48.4613C3.18916 48.4808 3.17726 48.4979 3.1612 48.5104C3.14515 48.523 3.12568 48.5304 3.10535 48.5317C3.00673 48.6011 2.89555 48.6506 2.77801 48.6774C2.65652 48.7164 2.53235 48.7465 2.40648 48.7674C2.47685 48.7969 2.5456 48.8312 2.60779 48.8623C2.67046 48.8974 2.72918 48.9391 2.78292 48.9867C2.90076 49.0587 2.97277 49.1504 2.86966 49.2339C2.8604 49.2406 2.84922 49.2443 2.83775 49.2443C2.82627 49.2443 2.81509 49.2406 2.80583 49.2339C2.7109 49.1782 2.64216 49.0997 2.54069 49.0456C2.40157 48.9671 2.26899 48.882 2.1266 48.8034C2.11469 48.7983 2.10518 48.7889 2.10001 48.777C2.09484 48.7652 2.09439 48.7518 2.09877 48.7396C2.08471 48.7161 2.07915 48.6885 2.08303 48.6613C2.0869 48.6342 2.09997 48.6093 2.12005 48.5906C2.32791 48.4859 2.61106 48.5006 2.82383 48.3991H2.83857C2.88112 48.3877 2.92531 48.3762 2.9695 48.368C2.84559 48.1705 2.71175 47.9793 2.56851 47.7952L2.5456 47.7608C2.44412 47.6937 2.32628 47.5644 2.48176 47.4859C2.56877 47.4597 2.66154 47.4597 2.74855 47.4859C2.85493 47.5022 2.95804 47.5186 3.06443 47.5317H3.10535H3.26902C3.11353 47.188 2.92367 46.877 2.74527 46.5497C2.73822 46.5322 2.73664 46.513 2.74073 46.4946C2.74482 46.4762 2.75439 46.4594 2.76819 46.4466C2.76531 46.4321 2.76769 46.417 2.77488 46.4041C2.78208 46.3913 2.79363 46.3813 2.80747 46.3762Z" fill="#F4DEFF"/>
<path d="M0.462079 49.5007C0.598669 50.0116 0.765915 50.5139 0.96291 51.0048C1.06035 51.273 1.17798 51.5334 1.3148 51.7839C1.4621 52.031 1.57013 52.2945 1.87946 52.3698C1.39827 52.2814 1.20187 51.6628 1.03165 51.2699C0.791997 50.6975 0.599854 50.1063 0.457169 49.5023C0.457169 49.5023 0.460442 49.4974 0.462079 49.5007Z" fill="#F4DEFF"/>
<path d="M18.1271 43.3172C19.312 41.1174 22.155 35.988 24.4153 32.3382L24.777 31.7588H34.0685L34.5596 31.8472L33.1307 34.9978C31.7264 36.4708 24.993 44.111 20.2433 46.9638C20.2024 46.949 17.4233 47.3664 18.1271 43.3172Z" fill="#515428"/>
<g style="mix-blend-mode:multiply" opacity="0.3">
<g style="mix-blend-mode:multiply" opacity="0.3">
<path d="M21.0191 41.9293C21.2024 41.8294 21.4086 41.872 21.6034 41.8229C21.7801 41.7927 21.9386 41.6963 22.0469 41.5535C22.1551 41.4106 22.2049 41.2319 22.1861 41.0536C22.1615 40.7918 22.0764 40.5512 22.101 40.2844C22.1173 40.1207 22.2008 39.4971 22.5511 40.0274C22.6567 40.1848 22.7094 40.3716 22.7016 40.561C22.7016 40.7705 22.664 40.9849 22.6427 41.1977C22.5642 41.5021 22.4119 41.8933 22.5773 42.1797C22.7622 42.507 23.7115 42.8949 23.3072 43.3728C22.9799 43.7624 22.5936 43.2288 22.4889 42.9342C22.4547 42.7762 22.3682 42.6343 22.2434 42.5316C22.1866 42.4858 22.1175 42.4581 22.0449 42.4519C21.9722 42.4458 21.8994 42.4616 21.8358 42.4972C21.6543 42.6409 21.4411 42.7391 21.2139 42.7836C20.7425 42.8671 20.6656 42.1208 21.0191 41.9293Z" fill="#3D3E1D"/>
</g>
<g style="mix-blend-mode:multiply" opacity="0.3">
<path d="M21.0961 39.8015C21.2597 40.2255 21.1763 40.6477 20.6623 40.6412C20.335 40.6412 19.9913 40.5544 19.6541 40.5332C19.9144 40.0651 20.191 39.5691 20.4725 39.0601C20.7442 39.2456 20.9598 39.5021 21.0961 39.8015Z" fill="#3D3E1D"/>
</g>
<g style="mix-blend-mode:multiply" opacity="0.3">
<path d="M20.7818 44.0586C20.7311 43.5676 21.3416 43.7149 21.4594 44.0586C21.6231 44.5169 21.5085 45.0996 21.7736 45.5186C21.804 45.5716 21.845 45.6179 21.894 45.6545C21.943 45.6911 21.9989 45.7172 22.0584 45.7313C21.7704 45.9496 21.4867 46.1541 21.2073 46.3451C21.2517 46.2133 21.2878 46.0788 21.3154 45.9425C21.3877 45.6494 21.3535 45.3402 21.2188 45.0701C21.0453 44.7657 20.8162 44.4138 20.7818 44.0586Z" fill="#3D3E1D"/>
</g>
<g style="mix-blend-mode:multiply" opacity="0.3">
<path d="M27.1911 41.0062C27.0092 40.8543 26.8173 40.7149 26.6166 40.5888C26.507 40.5168 26.1371 40.3253 26.1551 40.1567C26.2173 39.5544 27.327 40.2762 27.5561 40.3711C27.679 40.4249 27.8102 40.457 27.944 40.466C27.7258 40.6843 27.5076 40.8987 27.2893 41.1093C27.2586 41.073 27.2258 41.0386 27.1911 41.0062Z" fill="#3D3E1D"/>
</g>
<g style="mix-blend-mode:multiply" opacity="0.3">
<path d="M24.4153 43.7935C24.1076 44.0652 23.7999 44.3292 23.4922 44.5856C23.4169 44.2272 23.3776 43.8573 23.556 43.62C23.8588 43.2223 24.1763 43.4481 24.4153 43.7935Z" fill="#3D3E1D"/>
</g>
<g style="mix-blend-mode:multiply" opacity="0.3">
<path d="M19.0993 43.1322C19.0534 43.5201 18.3971 43.566 18.0698 43.7034C18.0845 43.579 18.1041 43.4514 18.1271 43.3172C18.2678 43.0553 18.4348 42.7492 18.6181 42.4121C18.9061 42.6036 19.132 42.8393 19.0993 43.1322Z" fill="#3D3E1D"/>
</g>
</g>
<g style="mix-blend-mode:multiply" opacity="0.4">
<g style="mix-blend-mode:multiply" opacity="0.4">
<path d="M29.1028 37.7066C29.0231 37.6524 28.9481 37.5916 28.8786 37.5249C28.7345 37.3776 28.6151 36.898 28.9719 36.9471C29.4825 37.0191 29.6724 38.0781 30.1536 38.2008C29.7968 38.574 29.4203 38.9668 29.0275 39.3695C28.9784 39.155 29.1454 38.8228 29.2517 38.6837C29.3211 38.6023 29.3765 38.5099 29.4154 38.4103C29.4617 38.2838 29.4576 38.1444 29.4039 38.0208C29.3316 37.8924 29.228 37.7843 29.1028 37.7066Z" fill="#3D3E1D"/>
</g>
<g style="mix-blend-mode:multiply" opacity="0.4">
<path d="M23.9652 37.5936C24.4054 37.7377 24.7639 37.8048 24.9079 37.2499C25.0078 36.8653 24.7917 36.4627 24.921 36.0748C25.0601 35.6558 25.6035 35.2139 25.8474 35.8784C25.9347 36.1371 25.9672 36.4111 25.9427 36.6831C25.9182 36.955 25.8372 37.2189 25.705 37.4578C25.6906 37.4531 25.6751 37.4531 25.6608 37.4578C25.4235 37.5838 24.8277 37.9259 25.1829 38.2663C25.3809 38.4546 26.1011 38.646 25.7934 39.0847C25.4857 39.5233 25.1632 39.412 24.9914 38.9848C24.8817 38.7148 24.7704 38.3302 24.4431 38.2696C24.0503 38.191 23.8621 38.6673 23.7148 38.9243C23.2483 39.7263 22.3727 38.6477 22.8097 38.0208C22.9303 37.8343 23.108 37.6919 23.3163 37.6149C23.5246 37.5379 23.7523 37.5305 23.9652 37.5936Z" fill="#3D3E1D"/>
</g>
<g style="mix-blend-mode:multiply" opacity="0.4">
<path d="M23.7917 41.0471C23.8105 40.9522 23.8043 40.8541 23.7737 40.7623C23.6313 40.4726 23.2139 40.4955 23.0208 40.25C22.9679 40.1967 22.9275 40.1324 22.9023 40.0617C22.8771 39.991 22.8678 39.9155 22.8751 39.8408C22.9864 39.4758 23.4529 39.6657 23.6215 39.7917C23.7702 39.9032 23.9063 40.0305 24.0274 40.1714C24.0206 40.174 24.0145 40.1781 24.0094 40.1833C24.0043 40.1884 24.0003 40.1947 23.9979 40.2015C23.9954 40.2083 23.9944 40.2156 23.995 40.2228C23.9955 40.2301 23.9977 40.2371 24.0012 40.2435C24.0896 40.4235 24.2009 40.561 24.4055 40.4595C24.705 40.3106 24.831 39.6657 25.3056 39.98C25.8425 40.3368 24.7917 40.5495 24.6035 40.6232C24.4758 40.6723 24.1829 40.7868 24.2336 40.9833C24.2443 41.037 24.2684 41.0872 24.3036 41.1292C24.3387 41.1713 24.3839 41.2038 24.4349 41.2238C24.4906 41.25 24.5544 41.2484 24.6117 41.2713C25.1027 41.471 24.52 42.2026 24.1092 42.0324C23.6509 41.8442 23.7606 41.4301 23.7917 41.0471Z" fill="#3D3E1D"/>
</g>
<g style="mix-blend-mode:multiply" opacity="0.4">
<path d="M25.047 42.2108C24.9538 42.0127 24.669 41.5184 24.8556 41.3155C25.1289 41.016 25.3106 41.4513 25.3466 41.6428C25.3989 41.8883 25.4137 42.4055 25.5528 42.7607L25.2254 43.0651C25.2483 42.7692 25.1864 42.4728 25.047 42.2108Z" fill="#3D3E1D"/>
</g>
<g style="mix-blend-mode:multiply" opacity="0.4">
<path d="M22.3628 37.2434C22.1517 37.6967 21.7687 37.4463 21.4086 37.4218L21.8587 36.6378C22.1763 36.7867 22.5151 36.9144 22.3628 37.2434Z" fill="#3D3E1D"/>
</g>
<g style="mix-blend-mode:multiply" opacity="0.4">
<path d="M26.7918 35.2171C26.8529 35.2368 26.9134 35.2581 26.9734 35.281C27.068 35.3226 27.1668 35.3539 27.268 35.3743C27.8229 35.4512 27.9947 34.8014 28.3925 34.5559C28.4485 34.5312 28.5103 34.5227 28.5709 34.5314C28.8153 34.7398 28.8513 34.9476 28.6789 35.155C28.5845 35.2776 28.4776 35.3901 28.3597 35.4905C28.2052 35.6115 28.0938 35.7791 28.0422 35.9684C28.0243 36.0474 28.0323 36.13 28.0651 36.2041C28.1748 36.4512 27.705 36.4872 27.6167 36.2499C27.5688 36.0611 27.4736 35.8876 27.3401 35.7458C27.1257 35.5527 26.8376 35.8211 26.6117 35.6771C26.4742 35.2744 26.5343 35.1211 26.7918 35.2171Z" fill="#3D3E1D"/>
</g>
<g style="mix-blend-mode:multiply" opacity="0.4">
<path d="M23.5151 41.327C23.6561 41.3375 23.793 41.3791 23.916 41.4487C24.0391 41.5183 24.1453 41.6142 24.227 41.7296C24.4521 42.03 24.6613 42.342 24.8539 42.6641C24.8824 42.8061 24.8693 42.9533 24.8163 43.0881C24.741 43.2632 24.4889 43.5463 24.2991 43.1044C24.2581 43.016 24.2205 42.926 24.1779 42.8376C23.9734 42.4039 23.4971 42.3614 23.2287 42.0095C22.9881 41.6936 23.0421 41.3139 23.5151 41.327Z" fill="#3D3E1D"/>
</g>
<g style="mix-blend-mode:multiply" opacity="0.4">
<path d="M24.4988 34.6017C24.3613 34.9291 24.0928 35.0175 23.7851 34.8554C23.556 34.7343 23.3481 34.5919 23.1141 34.4888C23.2925 34.1909 23.4676 33.8947 23.6428 33.605C23.7938 33.6258 23.9388 33.6782 24.0683 33.7588C24.3056 33.9274 24.6379 34.2695 24.4988 34.6017Z" fill="#3D3E1D"/>
</g>
<g style="mix-blend-mode:multiply" opacity="0.4">
<path d="M20.299 42.9735C20.9946 43.2321 20.0633 43.9653 19.7687 43.4645C19.686 43.2873 19.644 43.0938 19.6459 42.8982C19.6263 42.6838 19.5903 42.3826 19.3759 42.2681C19.2587 42.1986 19.1198 42.1753 18.9863 42.2026C18.9027 42.2251 18.8146 42.2251 18.731 42.2026L19.0092 41.6969C19.2004 41.7206 19.3943 41.6882 19.5674 41.6036C19.8047 41.5037 20.0224 41.3171 20.281 41.2762C20.4042 41.2526 20.5314 41.2605 20.6509 41.2991C20.862 41.4775 20.8915 41.6036 20.7392 41.6756C20.6492 41.7198 20.5576 41.7476 20.4659 41.7852C20.2237 41.8851 19.8407 42.0537 19.8014 42.3564C19.7621 42.6592 20.0289 42.8736 20.299 42.9735Z" fill="#3D3E1D"/>
</g>
<g style="mix-blend-mode:multiply" opacity="0.4">
<path d="M22.0911 45.6986C22.1542 45.5764 22.2047 45.448 22.2417 45.3156C22.259 45.1405 22.21 44.9653 22.1042 44.8246C21.8849 44.4973 21.574 44.075 21.9046 43.7002C22.0911 43.489 22.502 43.4694 22.5592 43.8098C22.5773 43.9246 22.5822 44.041 22.574 44.1568C22.5494 44.5316 22.443 44.9326 22.6542 45.2698C22.4709 45.4138 22.2826 45.5578 22.0911 45.6986Z" fill="#3D3E1D"/>
</g>
<g style="mix-blend-mode:multiply" opacity="0.4">
<path d="M27.7116 39.9407C27.4546 39.5921 27.0896 39.7574 26.7296 39.8196C26.4431 39.8687 26.0209 39.8408 25.9587 39.4644C25.9352 39.3761 25.9393 39.2828 25.9707 39.197C26.002 39.1112 26.059 39.0372 26.1338 38.9848C26.5757 38.7573 26.7132 39.2222 27.0504 39.3384C27.4726 39.484 27.6478 39.1141 27.6248 38.7442C27.6003 38.3334 27.3171 37.9553 27.3482 37.538C27.3565 37.4424 27.397 37.3524 27.463 37.2828C27.5291 37.2132 27.6168 37.1681 27.7118 37.1548C27.8068 37.1415 27.9035 37.1608 27.9861 37.2096C28.0688 37.2584 28.1324 37.3338 28.1666 37.4234C28.2544 37.6681 28.2884 37.9288 28.2664 38.1878C28.2337 38.7148 27.7181 39.3629 27.9391 39.8916C27.988 40.0256 28.084 40.1373 28.2092 40.2058C27.9784 40.4366 27.746 40.669 27.507 40.9031C27.5921 40.5954 27.9211 40.2238 27.7116 39.9407Z" fill="#3D3E1D"/>
</g>
</g>
<g style="mix-blend-mode:multiply" opacity="0.4">
<g style="mix-blend-mode:multiply" opacity="0.4">
<path d="M27.9244 38.3743C27.889 38.3058 27.8695 38.2302 27.8673 38.1531C27.8651 38.076 27.8803 37.9994 27.9117 37.929C27.9431 37.8586 27.99 37.7961 28.0489 37.7463C28.1077 37.6964 28.1771 37.6605 28.2517 37.6411C28.4154 37.6018 28.4776 37.7868 28.5087 37.9177C28.6118 38.3547 28.5316 38.8228 28.8049 39.2009C28.8583 39.2808 28.9324 39.3447 29.0193 39.3858L28.3483 40.0683C28.4394 39.9361 28.4989 39.7846 28.5222 39.6257C28.5455 39.4668 28.5319 39.3046 28.4825 39.1518C28.3581 38.8293 28.1028 38.6558 27.9244 38.3743Z" fill="#3D3E1D"/>
</g>
<g style="mix-blend-mode:multiply" opacity="0.4">
<path d="M30.0734 36.934C30.237 36.5036 30.6527 36.8195 30.728 37.137C30.7559 37.2687 30.7751 37.4021 30.7853 37.5363C30.4891 37.8539 30.1732 38.191 29.8409 38.5347C29.6249 38.1714 29.6053 37.7966 30.0881 37.6509C30.1306 37.6378 30.1274 37.592 30.1175 37.5593C30.0362 37.361 30.0207 37.1418 30.0734 36.934Z" fill="#3D3E1D"/>
</g>
<g style="mix-blend-mode:multiply" opacity="0.4">
<path d="M26.723 35.7573C26.9816 35.4021 26.8867 35.06 26.5905 34.7638C26.3122 34.4954 26.0242 34.2417 26.1878 33.8112C26.3728 33.3202 26.9293 33.2678 27.1224 33.7441C27.0864 33.7441 27.0586 33.7768 27.0815 33.8309C27.1904 34.089 27.3638 34.3149 27.585 34.4868C27.8063 34.6588 28.0679 34.771 28.345 34.8129C28.7722 34.8947 30.1994 34.8505 30.1012 35.5445C29.8475 37.3318 27.9866 34.6132 27.5021 36.0666C27.4039 36.3596 27.3302 36.6836 27.1387 36.934C26.9669 37.1566 26.5986 37.538 26.2729 37.3989C25.7459 37.1714 25.8752 36.5805 26.1993 36.2646C26.3882 36.111 26.5635 35.9412 26.723 35.7573Z" fill="#3D3E1D"/>
</g>
<g style="mix-blend-mode:multiply" opacity="0.4">
<path d="M22.9422 34.7801L23.2794 34.2106C23.7344 34.2957 24.1403 34.0813 24.5773 33.9749C25.0143 33.8685 25.5299 33.9438 25.6363 34.4953C25.6577 34.5974 25.6549 34.7032 25.628 34.804C25.6012 34.9048 25.551 34.9979 25.4816 35.0757C25.4121 35.1536 25.3254 35.2141 25.2283 35.2523C25.1312 35.2905 25.0265 35.3054 24.9227 35.2957C24.7279 35.2957 24.2107 35.1189 24.1256 35.4086C23.975 35.916 24.3531 36.3219 24.52 36.7622C24.5544 36.8288 24.573 36.9023 24.5745 36.9772C24.576 37.0521 24.5604 37.1264 24.5288 37.1943C24.4972 37.2622 24.4505 37.322 24.3923 37.3691C24.334 37.4162 24.2657 37.4493 24.1927 37.466C24.1077 37.506 24.013 37.5207 23.9199 37.5085C23.8268 37.4964 23.7391 37.4577 23.6673 37.3972C23.4732 37.1853 23.3576 36.9132 23.34 36.6263C23.2827 36.0699 23.7033 35.4806 23.3121 35.0044C23.2162 34.8918 23.0865 34.8131 22.9422 34.7801Z" fill="#3D3E1D"/>
</g>
<g style="mix-blend-mode:multiply" opacity="0.4">
<path d="M22.2679 37.1583C22.5609 37.0879 23.0764 37.2663 22.7589 37.6296C22.5969 37.7977 22.4636 37.9912 22.3645 38.2025C22.209 38.6002 22.5183 38.8768 22.7507 39.1845C22.9062 39.3842 23.1288 39.6215 23.1697 39.8785C23.2401 40.3335 22.3759 40.6232 22.3727 40.2353C22.3727 39.9325 22.5085 39.5806 22.4103 39.286C22.3121 38.9914 22.1681 38.7213 21.8293 38.8179C21.5821 38.8883 21.317 39.0094 21.0551 38.9243C20.9687 38.9095 20.8909 38.8631 20.8367 38.7941C20.7826 38.7252 20.756 38.6386 20.7621 38.5511C20.9798 38.1681 21.2008 37.777 21.4266 37.3841C21.7196 37.4136 21.9979 37.2221 22.2679 37.1583Z" fill="#3D3E1D"/>
</g>
<g style="mix-blend-mode:multiply" opacity="0.4">
<path d="M25.8916 41.1862C26.1846 40.5201 26.5463 41.2664 26.7328 41.6527C26.5506 41.8272 26.3684 42.0018 26.1862 42.1764C25.9832 41.836 25.7754 41.4513 25.8916 41.1862Z" fill="#3D3E1D"/>
</g>
</g>
<path d="M20.7147 46.1601L20.2809 46.9327C20.2809 46.9327 20.3742 46.9474 19.4839 46.9932C18.5935 47.039 3.78788 46.7363 3.78788 46.7363C3.78788 46.7363 2.56362 45.1094 3.89917 43.2157C3.89917 43.2157 10.6915 42.6494 12.978 42.4088C15.2644 42.1682 18.127 43.3106 18.127 43.3106C18.127 43.3106 20.4168 44.1601 20.7147 46.1601Z" fill="#515428"/>
<g style="mix-blend-mode:multiply" opacity="0.2">
<path d="M12.5475 43.7722C12.4444 43.6789 12.0467 43.4088 12.3446 43.2632C12.5082 43.1846 12.6719 43.3646 12.7472 43.4776C12.8698 43.6381 12.9599 43.821 13.0123 44.016C12.9796 44.3221 12.6473 44.4269 12.6048 44.728C12.5906 44.7846 12.5989 44.8445 12.6278 44.8952C12.6568 44.9458 12.7043 44.9833 12.7603 44.9997C12.8863 45.0373 13.2513 45.1241 13.0696 45.3401C13.0373 45.3785 12.9966 45.409 12.9506 45.4291C12.9046 45.4493 12.8546 45.4586 12.8045 45.4563C12.5753 45.4563 12.2136 45.3516 12.1711 45.0799C12.0958 44.5954 13.0631 44.2337 12.5475 43.7722Z" fill="#3D3E1D"/>
</g>
<g style="mix-blend-mode:multiply" opacity="0.2">
<path d="M8.19061 43.4858C8.29699 43.7591 8.05312 44.2632 7.76997 43.8704C7.58339 43.6102 7.57193 43.1993 7.41808 42.9244L7.54902 42.9129C7.59091 43.0211 7.66977 43.111 7.77161 43.1666C7.90909 43.2501 8.12678 43.3254 8.19061 43.4858Z" fill="#3D3E1D"/>
</g>
<g style="mix-blend-mode:multiply" opacity="0.2">
<path d="M6.24783 45.6593C6.44915 45.9866 6.42132 46.4024 6.43769 46.7968L5.70281 46.7821C5.68226 46.6511 5.67295 46.5186 5.67499 46.386C5.66317 46.188 5.70561 45.9905 5.79774 45.8148C5.87467 45.7002 6.12181 45.4547 6.24783 45.6593Z" fill="#3D3E1D"/>
</g>
<g style="mix-blend-mode:multiply" opacity="0.2">
<path d="M4.26087 46.2747C4.28542 46.0865 4.42454 45.5709 4.73388 45.7739C4.93683 45.9081 5.05304 46.4122 4.97938 46.7674L4.26251 46.7526C4.24073 46.5941 4.24018 46.4334 4.26087 46.2747Z" fill="#3D3E1D"/>
</g>
<g style="mix-blend-mode:multiply" opacity="0.2">
<path d="M6.01378 44.3778C5.81607 44.2332 5.64915 44.0507 5.52277 43.8409C5.4213 43.692 5.28709 43.381 5.12505 43.1191L6.10708 43.0357C6.10807 43.1511 6.12797 43.2655 6.166 43.3745C6.24633 43.5614 6.30934 43.7554 6.35422 43.9539C6.37877 44.1421 6.29366 44.5611 6.01378 44.3778Z" fill="#3D3E1D"/>
</g>
<g style="mix-blend-mode:multiply" opacity="0.2">
<path d="M7.70123 45.787C7.87636 45.1601 8.49831 46.4875 8.59487 46.6544C8.62925 46.715 8.66525 46.7772 8.70617 46.8394L7.68814 46.8148C7.70287 46.476 7.60958 46.1192 7.70123 45.787Z" fill="#3D3E1D"/>
</g>
<g style="mix-blend-mode:multiply" opacity="0.2">
<path d="M12.5982 46.3467C12.996 46.1012 13.2906 46.5317 13.5672 46.9278L12.2054 46.9048C12.3069 46.7166 12.3789 46.4875 12.5982 46.3467Z" fill="#3D3E1D"/>
</g>
<g style="mix-blend-mode:multiply" opacity="0.2">
<path d="M14.1908 45.8852C14.2235 45.5709 14.6081 45.8328 14.7047 45.9686C14.9436 46.3091 15.1106 46.6659 15.3594 46.9589L14.361 46.9425C14.3376 46.7647 14.3048 46.5882 14.2628 46.4138C14.2122 46.2423 14.1879 46.064 14.1908 45.8852Z" fill="#3D3E1D"/>
</g>
<g style="mix-blend-mode:multiply" opacity="0.2">
<path d="M14.3986 43.3303C14.4903 43.0357 14.7014 42.7558 14.6752 42.4481C14.8029 42.4628 14.9305 42.4792 15.0566 42.4988C14.9757 42.6167 14.934 42.7569 14.9371 42.8998C14.9371 43.0864 14.9977 43.2779 14.9862 43.4628C14.9855 43.5086 14.9746 43.5536 14.9543 43.5946C14.934 43.6356 14.9048 43.6716 14.8688 43.6999C14.8328 43.7282 14.791 43.7481 14.7464 43.7582C14.7018 43.7683 14.6554 43.7683 14.6108 43.7582C14.5662 43.7481 14.5244 43.7282 14.4884 43.7C14.4524 43.6717 14.4232 43.6357 14.4029 43.5947C14.3825 43.5537 14.3716 43.5087 14.3709 43.463C14.3701 43.4172 14.3796 43.3719 14.3986 43.3303Z" fill="#3D3E1D"/>
</g>
<g style="mix-blend-mode:multiply" opacity="0.2">
<path d="M16.6229 46.7854C16.7053 46.7713 16.7899 46.7822 16.866 46.8166C16.9422 46.851 17.0063 46.9074 17.0501 46.9785H16.3234C16.3548 46.9251 16.3982 46.8799 16.4502 46.8463C16.5022 46.8128 16.5614 46.7919 16.6229 46.7854Z" fill="#3D3E1D"/>
</g>
<g style="mix-blend-mode:multiply" opacity="0.2">
<path d="M4.25106 44.5234C4.59967 45.0734 4.02192 45.2305 3.62584 45.4236C3.50564 45.4776 3.40707 45.5704 3.34596 45.6871C3.22105 45.1094 3.27412 44.5074 3.49817 43.9604C3.80915 44.0505 4.07674 44.2506 4.25106 44.5234Z" fill="#3D3E1D"/>
</g>
<g style="mix-blend-mode:multiply" opacity="0.2">
<path d="M9.40994 43.9915C9.74874 43.9113 9.68982 43.4923 9.6669 43.2255C9.66037 43.1625 9.65709 43.0991 9.65708 43.0357C9.95824 42.621 10.189 42.6756 10.3494 43.1993C10.3276 43.3657 10.2795 43.5276 10.207 43.6789L10.1923 43.71C10.0483 43.9457 9.73728 44.201 9.9877 44.4662C10.1743 44.6577 10.59 44.6298 10.8273 44.6953C10.883 44.7117 11.1547 44.7706 11.1039 44.8786C11.0401 45.0161 10.8502 45.1912 10.6849 45.1667C10.4149 45.1241 10.2414 44.8557 10.0532 44.6838C9.86494 44.512 9.60471 44.3565 9.3281 44.5202C9.13006 44.6347 8.9533 44.8377 8.73398 44.913C8.32644 45.0537 7.76505 44.4531 8.10549 44.0832C8.47538 43.6691 8.97294 44.0963 9.40994 43.9915Z" fill="#3D3E1D"/>
</g>
<g style="mix-blend-mode:multiply" opacity="0.2">
<path d="M17.3742 45.5578C17.5267 45.5011 17.6902 45.4804 17.8521 45.4973C18.0485 45.5218 18.3513 45.6331 18.5526 45.5677C18.7834 45.494 18.8194 45.2763 18.8636 45.0635C18.8773 44.9463 18.9188 44.8341 18.9847 44.7362C19.2171 44.7608 19.3447 44.8639 19.3693 45.0472C19.3927 45.221 19.3793 45.3977 19.33 45.566C19.3214 45.5623 19.3119 45.5614 19.3028 45.5635C19.2937 45.5655 19.2854 45.5704 19.2793 45.5775C19.1156 45.7411 19.0239 45.8803 19.1467 46.0963C19.2058 46.1888 19.2413 46.2945 19.2498 46.404L18.8996 46.44C18.875 46.3713 18.8554 46.3025 18.8325 46.2338C18.8154 46.1593 18.7812 46.0898 18.7326 46.0308C18.6646 45.9714 18.5774 45.9387 18.4871 45.9387C18.3968 45.9387 18.3096 45.9714 18.2416 46.0308C17.8946 46.2878 17.5869 46.4989 17.145 46.314C16.5263 46.0636 17.1221 45.6397 17.3742 45.5578Z" fill="#3D3E1D"/>
</g>
<g style="mix-blend-mode:multiply" opacity="0.2">
<path d="M16.019 44.5234C16.3168 44.4858 16.1319 44.0324 16.145 43.8802C16.1451 43.8012 16.1628 43.7232 16.1968 43.6519C16.2308 43.5806 16.2802 43.5177 16.3414 43.4678C16.5492 43.5545 16.6344 43.6838 16.5967 43.8589C16.5869 43.9424 16.5771 44.0226 16.5689 44.1044C16.5362 44.0848 16.4952 44.0832 16.4789 44.1273C16.2432 44.7411 16.9257 44.6184 17.2972 44.6969C17.3414 44.7067 17.6737 44.7771 17.5525 44.9048C17.491 44.971 17.4082 45.0136 17.3186 45.0252C17.2289 45.0369 17.138 45.0169 17.0615 44.9686C16.9142 44.9048 16.7735 44.8213 16.6229 44.7657C16.4964 44.7205 16.3611 44.7059 16.2279 44.7233C16.0947 44.7406 15.9676 44.7894 15.8569 44.8655C15.6392 44.9899 15.3168 45.2436 15.0386 45.1421C14.7603 45.0406 14.9125 44.7362 15.0386 44.602C15.3675 44.2714 15.6523 44.5676 16.019 44.5234Z" fill="#3D3E1D"/>
</g>
<g style="mix-blend-mode:multiply" opacity="0.2">
<path d="M18.0796 43.6298C18.2292 43.8459 18.4221 44.0287 18.6459 44.1666C18.9241 44.3172 19.7277 44.6004 19.5559 45.0341C19.5002 45.1781 19.2711 45.5726 19.0567 45.4858C18.893 45.422 18.8194 45.2174 18.7588 45.0734C18.6679 44.7936 18.5586 44.5202 18.4315 44.255C18.3679 44.1632 18.2806 44.0904 18.1788 44.0446C18.077 43.9987 17.9646 43.9815 17.8537 43.9948C17.3087 44.0357 17.1287 43.489 17.181 42.9948C17.4364 43.0733 17.6491 43.1453 17.8095 43.201C17.8871 43.3514 17.9774 43.4949 18.0796 43.6298Z" fill="#3D3E1D"/>
</g>
<g style="mix-blend-mode:multiply" opacity="0.2">
<path d="M17.0468 45.9048C16.9093 45.7984 16.6671 45.6347 16.6835 45.4334C16.7146 45.0226 17.1319 44.9048 17.4511 45.0815C17.5786 45.1431 17.6908 45.2323 17.7794 45.3428C17.868 45.4532 17.9309 45.582 17.9634 45.7199C17.9985 45.9108 18.0642 46.0949 18.1581 46.2649C18.3431 46.5366 18.5329 46.5186 18.785 46.3483C18.9388 46.2452 19.0845 46.129 19.24 46.0292C19.3053 45.9768 19.3805 45.9378 19.461 45.9146C19.5412 45.8999 19.4249 46.2141 19.4069 46.242C19.1745 46.5693 18.6622 46.733 18.3365 47.0014L17.654 46.9932C17.6951 46.9279 17.7202 46.8539 17.7273 46.7771C17.7344 46.7004 17.7233 46.623 17.695 46.5513C17.5722 46.2567 17.2874 46.0898 17.0468 45.9048Z" fill="#3D3E1D"/>
</g>
<g style="mix-blend-mode:multiply" opacity="0.2">
<path d="M14.9404 45.8803C15.0009 45.6446 15.2383 45.6511 15.4314 45.7166C15.8176 45.8312 15.8651 46.1012 15.7767 46.4498C15.7342 46.6135 15.6687 46.7903 15.6343 46.9687L15.0926 46.9588C15.0533 46.5759 14.8749 46.1389 14.9404 45.8803Z" fill="#3D3E1D"/>
</g>
<g style="mix-blend-mode:multiply" opacity="0.2">
<path d="M12.942 43.7051C13.212 43.8 13.4804 44.0586 13.7767 44.0537C14.0729 44.0488 14.3201 43.638 14.5328 43.4563C14.5639 43.4269 14.5973 43.4001 14.6327 43.3761C14.8111 43.2615 14.9093 43.3761 14.9257 43.7395C14.8559 43.9051 14.7496 44.0528 14.6147 44.1716C14.451 44.3172 14.2251 44.4416 14.1564 44.6626C14.3888 44.7215 14.5492 45.1127 14.5901 45.3254C14.6523 45.6315 14.415 45.733 14.1548 45.7903C13.8192 45.8623 13.7816 45.5677 13.7145 45.3205C13.6981 45.189 13.6409 45.0659 13.5508 44.9686C13.3724 44.8295 13.1105 44.949 12.9207 44.8131C12.7325 44.6873 12.6009 44.4929 12.5541 44.2714C12.5082 44.0095 12.5786 43.5807 12.942 43.7051Z" fill="#3D3E1D"/>
</g>
<g style="mix-blend-mode:multiply" opacity="0.2">
<path d="M9.77003 46.2583C9.71711 46.1066 9.63971 45.9645 9.54089 45.8377C9.21355 45.4105 8.61452 45.7935 8.23153 45.4449C8.03349 45.2632 7.68487 44.7247 8.02367 44.5022C8.39356 44.2583 8.65053 44.5578 8.89439 44.8115C9.04661 44.9752 9.51143 45.4122 9.70293 45.0472C9.77985 44.8999 9.77985 43.8704 10.045 44.0455C10.4607 44.3221 10.1858 44.8082 10.297 45.1601C10.297 45.4727 10.3232 45.7984 10.536 45.9965C10.7373 46.1567 10.9697 46.2732 11.2185 46.3385C11.3972 46.3828 11.5645 46.4642 11.7095 46.5775C11.7532 46.6183 11.7791 46.6747 11.7815 46.7344C11.784 46.7941 11.7628 46.8524 11.7226 46.8967L9.99262 46.8639C9.79786 46.6888 9.84368 46.4777 9.77003 46.2583Z" fill="#3D3E1D"/>
</g>
<g style="mix-blend-mode:multiply" opacity="0.2">
<path d="M5.05468 44.0553C5.17949 43.9451 5.34161 43.8866 5.50805 43.8917C5.74373 43.9113 5.94668 43.9539 6.0858 43.8687C6.0858 43.9342 6.17582 44.0013 6.21183 43.9391C6.28451 43.7979 6.39356 43.6787 6.52771 43.5938C6.58363 43.5601 6.64859 43.5446 6.71367 43.5494C6.77875 43.5542 6.84076 43.579 6.89116 43.6204C6.94157 43.6619 6.97791 43.7179 6.99518 43.7808C7.01246 43.8438 7.00982 43.9105 6.98763 43.9719C6.89558 44.161 6.81523 44.3556 6.74703 44.5545C6.69957 44.7378 6.84851 44.9097 6.96799 45.0292C7.21677 45.278 7.5572 45.4858 7.75033 45.7853C7.90255 46.021 7.65049 46.2763 7.38535 46.2354C7.17749 46.2027 7.11857 45.9294 7.04819 45.7706C6.94835 45.5447 6.80268 45.3221 6.52935 45.2976C6.25602 45.273 6.2282 45.4891 6.18073 45.7019C6.16439 45.8268 6.11539 45.9453 6.03867 46.0453C5.96195 46.1453 5.86022 46.2233 5.74373 46.2714C5.3411 46.4089 5.05468 45.8623 5.31164 45.5546C5.53096 45.2927 5.83866 45.1519 5.97451 44.8246C5.99251 44.7788 5.94832 44.7247 5.90904 44.7117C5.68094 44.6489 5.45863 44.5668 5.24454 44.4661C5.13652 44.4023 4.80099 44.2452 5.05468 44.0553Z" fill="#3D3E1D"/>
</g>
<g style="mix-blend-mode:multiply" opacity="0.2">
<path d="M4.76334 43.5856C4.74207 43.9915 4.39672 44.3008 3.99573 44.1404C3.8697 44.0897 3.70112 43.9637 3.53091 43.8737C3.63131 43.6436 3.75469 43.4242 3.89917 43.219L4.68806 43.1535C4.74115 43.2912 4.76673 43.438 4.76334 43.5856Z" fill="#3D3E1D"/>
</g>
<g style="mix-blend-mode:multiply" opacity="0.2">
<path d="M8.24462 43.0733C8.19716 42.9997 8.14969 42.9309 8.10059 42.8638L9.21846 42.7673C9.2872 43.016 9.3003 43.2763 9.17754 43.4465C8.85511 43.8917 8.42302 43.3483 8.24462 43.0733Z" fill="#3D3E1D"/>
</g>
<g style="mix-blend-mode:multiply" opacity="0.2">
<path d="M12.5377 46.9114C12.5377 46.8885 12.5377 46.8655 12.5377 46.8394C12.5377 46.4253 12.2905 46.0374 12.302 45.6282C12.302 45.3156 12.6293 45.3745 12.8568 45.4252C13.5115 45.5726 13.2628 46.0472 13.2611 46.5251C13.2614 46.6603 13.2807 46.7947 13.3184 46.9245L12.5377 46.9114Z" fill="#3D3E1D"/>
</g>
<g style="mix-blend-mode:multiply" opacity="0.2">
<path d="M11.7602 43.8033C11.6964 44.0946 11.6244 44.3794 11.2545 44.3581C10.7128 44.327 10.6637 43.1977 10.5245 42.8131C10.5033 42.7574 10.4803 42.7067 10.4574 42.6494C11.0385 42.597 11.5851 42.5463 12.0581 42.5005C12.0303 42.5725 12.0074 42.6478 11.9861 42.7231C11.8928 43.0848 11.8388 43.4465 11.7602 43.8033Z" fill="#3D3E1D"/>
</g>
<g style="mix-blend-mode:multiply" opacity="0.3">
<path d="M15.8242 43.9899C15.8489 43.9374 15.8616 43.8801 15.8616 43.8221C15.8616 43.7641 15.8489 43.7068 15.8242 43.6544C15.7424 43.4367 15.4494 43.381 15.4281 43.1159C15.4134 42.9195 15.564 42.7198 15.7145 42.908C15.8651 43.0962 15.9862 43.2746 16.1335 43.4481C16.2465 43.5774 16.5132 43.8769 16.6933 43.7755C16.7232 43.7689 16.7523 43.759 16.78 43.746C16.8525 43.7029 16.9316 43.672 17.0141 43.6544C17.3938 43.6053 17.1155 43.9817 16.9977 44.0242C16.8799 44.0668 16.7277 44.0144 16.6164 44.0995C16.5141 44.1929 16.4437 44.316 16.415 44.4514C16.3995 44.513 16.3664 44.5688 16.3197 44.6119C16.273 44.6549 16.2148 44.6835 16.1522 44.6941C16.0896 44.7047 16.0252 44.6968 15.9669 44.6715C15.9087 44.6461 15.8591 44.6043 15.8242 44.5513C15.6818 44.3434 15.7309 44.2043 15.8242 43.9899Z" fill="#3D3E1D"/>
</g>
<g style="mix-blend-mode:multiply" opacity="0.3">
<path d="M19.9225 45.859C20.3137 45.5775 20.3546 46.3827 20.3235 46.5906C20.3065 46.7116 20.2814 46.8314 20.2482 46.949C20.1893 46.9572 20.0387 46.9703 19.659 46.99C19.5919 46.5824 19.6934 46.0243 19.9225 45.859Z" fill="#3D3E1D"/>
</g>
<g style="mix-blend-mode:multiply" opacity="0.3">
<path d="M7.83708 43.6691C8.09077 43.4907 8.41975 43.7313 8.59324 43.98C8.68817 44.3254 8.59324 44.5791 9.0597 44.6347C9.4476 44.6773 9.29702 45.1683 9.04497 45.2354C8.71763 45.3238 8.56378 44.9539 8.39847 44.7444C8.27445 44.586 8.13521 44.4402 7.98275 44.309C7.90172 44.2519 7.82361 44.1907 7.7487 44.1257C7.65214 44.0144 7.73233 43.7411 7.83708 43.6691Z" fill="#3D3E1D"/>
</g>
<g style="mix-blend-mode:multiply" opacity="0.3">
<path d="M3.62093 46.0423C3.26903 45.6937 3.40652 45.2076 3.33778 44.7689C3.34959 44.7659 3.36034 44.7596 3.36887 44.7509C3.62747 44.4645 3.94663 43.9424 4.41145 44.1355C4.87628 44.3287 5.0334 44.8262 4.55548 45.0554C4.46734 45.0977 4.38301 45.1475 4.30343 45.2043C4.22632 45.2612 4.17182 45.3435 4.14958 45.4367C4.13978 45.5078 4.13978 45.58 4.14958 45.6511C4.23142 45.9446 4.0552 46.075 3.62093 46.0423Z" fill="#3D3E1D"/>
</g>
<g style="mix-blend-mode:multiply" opacity="0.3">
<path d="M7.41318 44.9212C7.31334 45.2485 6.99582 45.4956 7.004 45.8492C7.00582 45.899 7.01901 45.9478 7.04255 45.9917C7.06609 46.0357 7.09937 46.0737 7.13985 46.1029C7.20909 46.141 7.28438 46.1671 7.36244 46.1798L7.51465 46.206C7.57848 46.404 7.5392 46.5071 7.39517 46.5169C7.18895 46.5448 6.76504 46.5448 6.77322 46.2027C6.78006 46.0725 6.79592 45.9428 6.82069 45.8148C6.8504 45.6627 6.85482 45.5068 6.83378 45.3532C6.83053 45.3312 6.81877 45.3113 6.80102 45.2979C6.78327 45.2844 6.76095 45.2784 6.73885 45.2812C6.74239 45.1711 6.75609 45.0615 6.77977 44.9539C6.79455 44.8481 6.83256 44.747 6.89107 44.6576C7.04819 44.4694 7.5081 44.6085 7.41318 44.9212Z" fill="#3D3E1D"/>
</g>
<g style="mix-blend-mode:multiply" opacity="0.3">
<path d="M10.7881 44.9064C10.8191 44.8148 10.8502 44.7231 10.8863 44.6331C10.9384 44.488 11.0185 44.3546 11.1219 44.2403C11.3053 43.9882 11.5197 44.0291 11.7766 44.363L11.7455 44.453C11.707 44.5624 11.6966 44.6796 11.7152 44.794C11.7338 44.9083 11.7808 45.0162 11.8519 45.1077C12.0418 45.3287 12.3806 45.3025 12.6163 45.4351C12.7176 45.4878 12.8121 45.5526 12.8978 45.6282C13.0107 45.7346 13.2251 46.206 12.8978 46.1552C12.739 46.1177 12.589 46.0499 12.4559 45.9555C12.2529 45.8361 11.9763 45.638 11.7259 45.6724C11.4755 45.7068 11.3511 45.8966 11.2136 46.0767C11.1105 46.2125 10.9534 46.4515 10.7504 46.4384C10.3641 46.4138 10.2594 46.0848 10.3871 45.7837C10.5147 45.4825 10.6882 45.255 10.8159 44.9784C10.8186 44.965 10.8174 44.9511 10.8124 44.9384C10.8075 44.9256 10.799 44.9145 10.7881 44.9064Z" fill="#3D3E1D"/>
</g>
<path d="M35.0014 13.539L35.0096 14.5554L33.1928 15.305C33.1928 15.305 33.1928 14.9777 33.2027 14.58C33.2109 14.0775 32.6609 13.9858 30.9784 13.287C27.4889 11.8369 27.0257 10.9956 26.4333 9.46363C24.6427 4.79903 28.3531 1.46506 33.5251 1.61727C38.0408 1.75148 35.9802 7.34574 35.7494 9.11992L35.0014 13.539Z" fill="#E7C19C"/>
<path d="M32.5333 17.4589C32.5333 17.4589 33.3189 11.8941 34.2289 11.9972C34.2289 11.9972 37.666 13.7338 38.0195 14.5931C38.0359 14.634 38.1194 14.5931 38.0817 14.868C37.7757 14.9237 36.8837 14.5718 36.7167 14.981C36.5498 15.3901 35.7134 18.2298 35.4957 19.0285C34.3222 18.5768 32.3893 17.8992 32.5333 17.4589Z" fill="#E7C19C"/>
<path d="M33.4023 1.61727C33.4023 1.61727 34.9572 1.76457 35.1045 1.79404C35.6549 1.90547 36.1852 2.09972 36.6774 2.37016C37.6594 2.91681 38.5219 3.76954 38.9246 4.83994C39.1103 5.31233 39.2304 5.80796 39.2814 6.31297C39.3207 6.80399 39.1897 7.295 39.2028 7.78601C39.2143 8.23938 39.5171 8.62236 39.8739 8.94316L39.9655 9.03154C40.1488 9.2083 40.3583 9.35888 40.5465 9.52255C40.7348 9.68622 40.9606 9.90718 40.8739 10.1772C40.8739 10.2067 40.851 10.2312 40.8412 10.2574C40.7466 10.3606 40.636 10.4479 40.5138 10.516C40.3894 10.588 40.085 10.7124 40.103 10.8892C40.1215 10.9891 40.1599 11.0843 40.2159 11.1691C40.3177 11.3148 40.3818 11.4835 40.4025 11.6601C40.3747 11.9187 39.8526 12.0594 39.6284 12.066C39.612 12.0791 40.1947 12.0562 40.2078 12.2935C40.2258 12.6356 39.9721 12.4801 39.9835 13.0071C39.9835 13.0496 40.1112 13.4277 40.1668 13.778C40.1741 13.9447 40.1481 14.1113 40.0902 14.2678C40.0323 14.4244 39.9437 14.5678 39.8297 14.6896C39.5514 14.9777 39.0981 15.0055 38.6643 14.9711C37.4483 14.8697 36.2404 14.1953 35.3533 13.3803C34.7657 12.8402 34.4236 12.1511 34.1405 11.4293C34.0685 11.1822 33.9965 10.9383 33.9163 10.6846C33.7526 10.1658 33.5889 9.64694 33.4252 9.12647C33.895 6.65505 33.7493 4.09688 33.4023 1.61727Z" fill="#F1D2B3"/>
<path d="M39.6382 12.0561C39.8027 12.0615 39.9653 12.0935 40.1194 12.1511C39.9234 12.0928 39.7213 12.0571 39.5171 12.0447L39.4222 12.03C39.7778 11.9701 40.1143 11.8271 40.4042 11.6126C40.405 11.6251 40.405 11.6377 40.4042 11.6502C40.3846 11.9088 39.8625 12.0496 39.6382 12.0561Z" fill="#DDB996"/>
<path d="M40.8707 9.93334C40.897 10.0103 40.897 10.0937 40.8707 10.1707C40.8707 10.2001 40.8478 10.2247 40.838 10.2509C40.7434 10.354 40.6328 10.4413 40.5106 10.5095C40.3895 10.5798 40.1031 10.6993 40.1014 10.8679C39.9073 10.7635 39.7283 10.633 39.5695 10.48C40.0409 10.4194 40.5581 10.2967 40.8707 9.93334Z" fill="#DDB996"/>
<path d="M25.5822 7.74837C25.5618 6.88147 25.6965 6.0179 25.9799 5.19838C26.1285 4.83511 26.3427 4.50225 26.6116 4.21636C26.7765 4.07331 26.9719 3.96975 27.1828 3.91357C27.1828 3.88738 27.1976 3.86283 27.2058 3.84155C27.7672 2.4078 29.3187 1.87751 30.6903 1.50598C31.8578 1.18463 33.0783 1.10388 34.278 1.26866L34.2927 1.27848C34.626 1.38707 34.9676 1.46862 35.314 1.52234C35.7772 1.67128 36.2371 1.84969 36.697 1.94952C36.9991 2.08006 37.2852 2.24481 37.5497 2.44054C38.1239 2.87962 38.5823 3.45209 38.8853 4.10834C38.8558 4.0887 38.8264 4.06742 38.7953 4.04942C38.8238 4.09525 38.8495 4.1428 38.8722 4.19181C38.965 4.39624 39.0422 4.60744 39.103 4.82358C39.103 4.86449 39.1177 4.90541 39.121 4.94469C39.1198 5.19215 39.0755 5.43752 38.99 5.66975L38.9802 5.6583C38.8444 5.40952 38.8329 5.10345 38.6856 4.83994C38.6398 4.75975 38.5907 4.68446 38.5383 4.6108C38.5311 4.80661 38.4819 4.9986 38.3943 5.17383C38.3478 5.23481 38.298 5.29327 38.2453 5.34896C38.2083 5.21345 38.1533 5.08353 38.0817 4.9627C37.9299 4.59935 37.7042 4.27159 37.4188 4.00031H37.4057C37.4057 4.03796 37.4204 4.07233 37.427 4.10343C37.4552 4.29554 37.4288 4.49172 37.3506 4.66947C37.2724 4.84723 37.1458 4.99934 36.9851 5.10836H36.972C36.9683 4.92509 36.9323 4.74391 36.8656 4.57316C36.8303 4.38028 36.7598 4.19553 36.6577 4.02814C36.6421 4.50258 36.5154 4.96675 36.2878 5.38333C36.16 5.57238 36.0094 5.74499 35.8394 5.89725C35.8346 5.88347 35.8346 5.86849 35.8394 5.8547C35.8953 5.6145 35.9097 5.36651 35.8819 5.12146L35.8525 5.2213C35.7393 5.61907 35.5546 5.9929 35.3074 6.32443C35.2714 6.35389 35.2387 6.38499 35.2027 6.41282C35.1969 6.41756 35.1923 6.42356 35.1891 6.43037C35.186 6.43718 35.1845 6.44461 35.1847 6.4521C35.1772 6.45877 35.1701 6.46588 35.1634 6.47337C35.1258 6.50284 35.0668 6.46192 35.0587 6.42264C35.0554 6.38889 35.0554 6.35491 35.0587 6.32116C35.0364 6.70418 35.0573 7.08849 35.1209 7.46685C35.1323 7.53887 35.0423 7.54869 35.0063 7.50122C34.9679 7.45298 34.9329 7.40212 34.9015 7.34901C35.0314 7.74499 35.0694 8.16532 35.0128 8.57818C35.0014 8.65183 34.9261 8.66165 34.8721 8.62237C34.781 8.53609 34.7158 8.42613 34.6839 8.30485C34.7327 8.55127 34.7393 8.80418 34.7035 9.05282C34.7004 9.06668 34.6932 9.07931 34.6829 9.08911C34.6726 9.09891 34.6597 9.10545 34.6457 9.1079C34.6317 9.11035 34.6173 9.1086 34.6042 9.10288C34.5912 9.09716 34.5802 9.08771 34.5726 9.07573C34.6543 9.31063 34.7205 9.55065 34.7706 9.79425C34.8835 10.3229 34.967 10.9825 34.7346 11.4931C34.7019 11.5652 34.5922 11.5455 34.5709 11.4751C34.4531 11.1773 34.3287 10.881 34.201 10.5848C34.0567 10.268 33.8847 9.96459 33.6871 9.67804C33.7837 10.1854 33.8639 10.6961 33.9572 11.2034C34.0717 11.8254 34.3385 12.3721 34.5153 12.9695C34.5333 13.03 34.4711 13.048 34.4236 13.03C34.5031 13.1594 34.5668 13.2979 34.6135 13.4425C34.4713 13.4609 34.327 13.4322 34.2027 13.3606C34.1176 13.2788 34.039 13.1855 33.9686 13.1184C33.9277 13.0824 33.8868 13.0415 33.8459 12.9989C33.9362 13.2322 33.9914 13.4777 34.0095 13.7272C33.9682 13.8706 33.9076 14.0077 33.8295 14.1348C33.8207 14.126 33.814 14.1154 33.8099 14.1037C33.7514 13.9214 33.6837 13.7422 33.6069 13.5668C33.6535 13.7104 33.6874 13.8577 33.7084 14.0071C33.7215 14.1037 33.62 14.1364 33.5447 14.084C33.5022 14.0497 33.458 14.0186 33.4154 13.9858C33.5627 14.1855 33.7428 14.3836 33.8033 14.6078C33.7212 14.5734 33.6363 14.546 33.5496 14.526C33.3375 14.3378 33.1 14.1802 32.8442 14.0579C32.9424 14.1462 33.0422 14.2346 33.147 14.3115C32.9473 14.2674 32.7493 14.2199 32.5512 14.1692L32.4383 14.125C31.3577 13.7664 30.3087 13.3186 29.3024 12.7861C28.3924 12.3066 27.4333 11.7828 26.7442 11.0021C25.9755 10.0941 25.5625 8.93792 25.5822 7.74837Z" fill="#683C11"/>
<g style="mix-blend-mode:multiply" opacity="0.5">
<path d="M35.9196 1.81368C35.6577 1.72039 35.4057 1.6091 35.1552 1.48634L35.3189 1.51744C35.7821 1.66638 36.242 1.84478 36.7052 1.94626C36.8296 2.00191 36.9507 2.0641 37.0685 2.12793C36.679 2.03791 36.2944 1.94626 35.9196 1.81368Z" fill="#B36C1E"/>
</g>
<g style="mix-blend-mode:multiply" opacity="0.5">
<path d="M37.409 2.67786C37.5158 2.65339 37.6212 2.62334 37.7249 2.58784C37.8937 2.73098 38.0518 2.88634 38.1979 3.05266C37.9536 2.89169 37.6881 2.76554 37.409 2.67786Z" fill="#B36C1E"/>
</g>
<g style="mix-blend-mode:multiply" opacity="0.5">
<path d="M25.5822 7.74837C25.5822 7.5978 25.5822 7.44558 25.592 7.29173C25.6664 7.94967 25.8316 8.59411 26.083 9.20668C26.1043 9.26069 26.2238 9.31142 26.2156 9.2165C26.2 9.02527 26.2082 8.83284 26.2401 8.64365C26.4206 9.24322 26.7288 9.79657 27.1436 10.2656C27.1878 10.3164 27.2712 10.3 27.2532 10.2231C27.1212 9.693 27.1 9.14137 27.191 8.60273C27.2025 8.6682 27.2123 8.73039 27.2238 8.79259C27.2975 9.24642 27.4358 9.68735 27.6346 10.102C27.9194 10.683 28.4104 11.4506 29.0945 11.575C29.1041 11.5769 29.1141 11.5762 29.1233 11.5729C29.1325 11.5696 29.1407 11.5639 29.1469 11.5563C29.1531 11.5488 29.1572 11.5397 29.1586 11.53C29.1601 11.5203 29.1588 11.5104 29.1551 11.5013C29.0978 11.3229 29.0372 11.1445 28.9783 10.9661C29.3608 11.3623 29.837 11.6556 30.363 11.8189C30.4235 11.8352 30.4334 11.7681 30.417 11.7288C30.4006 11.6896 30.3744 11.6274 30.3515 11.5766C30.8278 12.0824 31.453 12.4604 32.0799 12.5145C32.1617 12.5145 32.1519 12.4326 32.1061 12.3917C31.7525 12.0824 31.4006 11.8189 31.1551 11.4097C31.0979 11.3147 31.0438 11.2165 30.9915 11.1183C31.4175 11.4043 31.8977 11.5998 32.4023 11.6928C32.4858 11.7092 32.4711 11.6061 32.4269 11.5701C31.9257 11.1562 31.5203 10.6386 31.2386 10.0529C31.3496 10.1592 31.4733 10.2516 31.6069 10.3278C31.6494 10.3524 31.6854 10.3278 31.6887 10.2787C31.736 9.60264 31.5487 8.93095 31.1584 8.37687C31.5058 8.46792 31.8125 8.67313 32.0291 8.95953C32.0602 9.00045 32.1503 9.00372 32.1421 8.93498C32.1037 8.65332 32.0278 8.37808 31.9162 8.11663C32.3253 8.35359 32.7508 8.56089 33.1896 8.73694C33.2779 8.77295 33.2878 8.66656 33.2338 8.62073C32.9378 8.35953 32.6978 8.04106 32.5283 7.68454C32.8639 7.96056 33.2384 8.18557 33.6397 8.35232C33.7002 8.37687 33.7395 8.32122 33.71 8.26721C33.5399 7.94872 33.388 7.62086 33.255 7.28518C33.4375 7.49264 33.6662 7.65414 33.9228 7.75656C33.9588 7.76965 34.0096 7.75656 34.003 7.70745C33.9523 7.31465 33.8132 6.94639 33.8066 6.54703V6.43082C33.894 6.63845 33.9969 6.83923 34.1143 7.0315C34.1438 7.0806 34.2403 7.10842 34.2387 7.02331C34.2305 6.38009 34.2747 5.74014 34.3287 5.10018L34.4416 5.42753C34.4564 5.46844 34.5349 5.53227 34.5677 5.46844C34.7168 5.17727 34.8106 4.86093 34.8443 4.53552C35.0151 4.91385 35.0481 5.34002 34.9376 5.74014C34.9196 5.80233 35.0227 5.88417 35.0636 5.8187C35.4793 5.16402 35.6135 4.4275 35.3909 3.74827C35.5854 3.83565 35.7522 3.97486 35.8728 4.15067C35.9935 4.32648 36.0635 4.5321 36.0751 4.74502C36.0751 4.79248 36.1716 4.87759 36.2044 4.80558C36.2982 4.58618 36.3394 4.34786 36.3246 4.1097C36.3098 3.87153 36.2395 3.64013 36.1193 3.43402C36.31 3.48515 36.4878 3.57604 36.641 3.70071C36.7941 3.82539 36.9192 3.98103 37.008 4.15744C37.0342 4.20982 37.1389 4.2311 37.1324 4.14926C37.1206 3.96663 37.0797 3.78705 37.0113 3.61733C37.3945 3.75774 37.7616 3.93882 38.1062 4.15744C38.1488 4.18527 38.229 4.1689 38.1995 4.10016C38.0768 3.79592 37.8968 3.51809 37.6692 3.28181C37.9607 3.31684 38.2457 3.39345 38.5154 3.50931C38.5262 3.51135 38.5373 3.51135 38.5481 3.50931C38.6748 3.6983 38.7844 3.89822 38.8755 4.10671C38.846 4.08707 38.8166 4.06579 38.7855 4.04778C38.814 4.09362 38.8397 4.14117 38.8624 4.19018C38.9552 4.39461 39.0324 4.60581 39.0932 4.82195C39.0932 4.86286 39.1079 4.90378 39.1112 4.94306C39.11 5.19052 39.0657 5.43589 38.9802 5.66812L38.9704 5.65666C38.8346 5.40789 38.8231 5.10182 38.6758 4.83831C38.63 4.75811 38.5809 4.68283 38.5285 4.60917C38.5213 4.80498 38.4721 4.99697 38.3845 5.1722C38.338 5.23318 38.2882 5.29164 38.2355 5.34733C38.1985 5.21182 38.1435 5.0819 38.0719 4.96107C37.9201 4.59772 37.6944 4.26996 37.409 3.99868H37.3959C37.3959 4.03633 37.4106 4.0707 37.4172 4.1018C37.4468 4.29321 37.422 4.4891 37.3456 4.66709C37.2692 4.84508 37.1442 4.99799 36.9851 5.10837H36.972C36.9683 4.9251 36.9323 4.74392 36.8656 4.57317C36.8303 4.38028 36.7599 4.19554 36.6577 4.02814C36.6421 4.50259 36.5154 4.96676 36.2878 5.38333C36.16 5.57239 36.0094 5.74499 35.8394 5.89726C35.8347 5.88347 35.8347 5.86849 35.8394 5.85471C35.8953 5.61451 35.9097 5.36651 35.8819 5.12146L35.8525 5.2213C35.7394 5.61908 35.5547 5.9929 35.3075 6.32444C35.2715 6.3539 35.2387 6.385 35.2027 6.41282C35.1969 6.41756 35.1923 6.42357 35.1892 6.43037C35.186 6.43718 35.1845 6.44462 35.1847 6.4521C35.1772 6.45878 35.1701 6.46588 35.1634 6.47338C35.1258 6.50284 35.0669 6.46192 35.0587 6.42264C35.0554 6.3889 35.0554 6.35491 35.0587 6.32117C35.0365 6.70419 35.0573 7.08849 35.1209 7.46686C35.1323 7.53887 35.0423 7.54869 35.0063 7.50123C34.9679 7.45299 34.9329 7.40213 34.9016 7.34902C35.0314 7.745 35.0694 8.16532 35.0129 8.57818C35.0014 8.65183 34.9261 8.66165 34.8721 8.62237C34.781 8.5361 34.7159 8.42614 34.6839 8.30485C34.7327 8.55127 34.7393 8.80418 34.7035 9.05282C34.7004 9.06669 34.6932 9.07932 34.6829 9.08912C34.6726 9.09892 34.6597 9.10546 34.6457 9.10791C34.6317 9.11036 34.6173 9.10861 34.6043 9.10288C34.5913 9.09716 34.5802 9.08772 34.5726 9.07574C34.6543 9.31063 34.7205 9.55066 34.7706 9.79425C34.8836 10.3229 34.967 10.9825 34.7346 11.4932C34.7019 11.5652 34.5922 11.5455 34.5709 11.4751C34.4531 11.1773 34.3287 10.881 34.201 10.5848C34.0567 10.268 33.8848 9.96459 33.6871 9.67805C33.7837 10.1854 33.8639 10.6961 33.9572 11.2035C34.0717 11.8254 34.3385 12.3721 34.5153 12.9695C34.5333 13.03 34.4711 13.048 34.4236 13.03C34.5031 13.1595 34.5669 13.2979 34.6135 13.4425C34.4713 13.4609 34.327 13.4322 34.2027 13.3606C34.1176 13.2788 34.039 13.1855 33.9686 13.1184C33.9277 13.0824 33.8868 13.0415 33.8459 12.9989C33.9362 13.2322 33.9914 13.4777 34.0096 13.7273C33.9682 13.8706 33.9076 14.0077 33.8295 14.1348C33.8207 14.126 33.814 14.1154 33.8099 14.1037C33.7514 13.9214 33.6837 13.7422 33.6069 13.5669C33.6535 13.7104 33.6874 13.8577 33.7084 14.0071C33.7215 14.1037 33.62 14.1364 33.5447 14.0841C33.5022 14.0497 33.458 14.0186 33.4154 13.9858C33.5627 14.1855 33.7428 14.3836 33.8033 14.6078C33.7212 14.5734 33.6364 14.546 33.5496 14.526C33.3375 14.3378 33.1 14.1802 32.8442 14.0579C32.9424 14.1462 33.0423 14.2346 33.147 14.3116C32.9473 14.2674 32.7493 14.2199 32.5513 14.1692L32.4383 14.125C31.3577 13.7664 30.3088 13.3186 29.3024 12.7861C28.3924 12.3066 27.4333 11.7828 26.7442 11.0021C25.9755 10.0942 25.5625 8.93793 25.5822 7.74837Z" fill="#432918"/>
</g>
<path d="M32.7477 9.33433C32.8526 9.25704 32.9743 9.20547 33.1028 9.18376C33.3551 9.1493 33.6111 9.21125 33.8197 9.35725C34.3435 9.70914 34.6724 10.5995 34.7755 11.246C34.8246 11.5619 34.8934 11.9972 34.7363 12.2706C34.476 12.7256 33.8508 12.0644 33.53 11.845C32.8851 11.4048 32.6282 11.3458 32.4416 10.7468C32.1928 9.93664 32.4792 9.52583 32.7477 9.33433Z" fill="#F1D2B3"/>
<path d="M33.2894 11.0267C33.3696 11.205 33.5005 11.3558 33.6658 11.4603C33.8311 11.5648 34.0235 11.6183 34.219 11.6143C34.3827 11.6012 34.5071 11.5373 34.44 11.3491C34.3979 11.2638 34.3355 11.1902 34.2583 11.1347C34.1454 11.0545 34.1061 10.8156 34.0946 10.6912C34.0504 10.3638 34.0194 9.91864 33.5562 9.95464C33.1257 9.98574 33.0979 10.3949 33.1846 10.7386C33.2096 10.838 33.2447 10.9345 33.2894 11.0267Z" fill="#E7C19C"/>
<path d="M25.6002 8.18864C25.3252 6.92347 25.1894 5.40624 26.0372 3.70571C28.2876 -0.808321 37.8738 -2.10295 39.3468 5.02817C39.3468 5.02817 26.9308 11.2002 26.8408 11.1036C26.6752 10.907 26.5227 10.6998 26.3841 10.4833C26.7258 10.3614 27.0548 10.2062 27.3662 10.0201C26.6951 8.17882 26.1157 8.14281 25.6002 8.18864Z" fill="#C65733"/>
<path d="M25.6002 8.18864C25.3252 6.92347 25.1894 5.40624 26.0372 3.70571C28.2876 -0.808321 37.8738 -2.10295 39.3468 5.02817C39.3468 5.02817 26.9308 11.2002 26.8408 11.1036C26.6752 10.907 26.5227 10.6998 26.3841 10.4833C26.7258 10.3614 27.0548 10.2062 27.3662 10.0201C26.6951 8.17882 26.1157 8.14281 25.6002 8.18864Z" fill="#E9B21B"/>
<path d="M34.4105 4.78591C33.9932 3.96756 33.638 3.08374 33.1012 2.33086C32.3679 1.31447 31.3401 0.785811 30.2107 0.447013C33.8115 -0.719957 38.3697 0.301346 39.3468 5.02978C39.3468 5.02978 37.6217 5.88578 35.4547 6.95618C35.1405 6.22458 34.7755 5.50443 34.4105 4.78591Z" fill="#C36015"/>
<path d="M26.0371 3.7106C26.7311 2.32104 28.1207 1.23754 29.7541 0.610687C29.5561 0.938028 29.2958 1.23263 29.0716 1.5567C28.7884 1.9626 28.5037 2.37505 28.2532 2.80551C27.7393 3.60932 27.4835 4.55107 27.52 5.50443C27.5904 6.57156 27.9652 7.63215 28.3154 8.64036C28.4955 9.15755 28.6886 9.66657 28.8981 10.1723C27.682 10.7517 26.8637 11.1347 26.8375 11.1085C26.6719 10.9119 26.5194 10.7047 26.3809 10.4882C26.7225 10.3663 27.0515 10.2111 27.3629 10.025C26.6902 8.17881 26.1108 8.1428 25.5952 8.19354C25.3252 6.92836 25.1893 5.40623 26.0371 3.7106Z" fill="#C36015"/>
<g style="mix-blend-mode:multiply" opacity="0.3">
<g style="mix-blend-mode:multiply" opacity="0.3">
<path d="M30.3171 6.73852C31.729 6.85099 33.1497 6.72259 34.5186 6.35881C35.443 6.12625 36.3426 5.80392 37.2044 5.39642C37.8984 5.05763 38.4598 4.54207 39.103 4.12962C39.203 4.42539 39.2845 4.72714 39.3468 5.03308C39.3468 5.03308 26.9308 11.2051 26.8375 11.1085C26.672 10.9119 26.5194 10.7047 26.3809 10.4882C26.7226 10.3663 27.0515 10.2111 27.3629 10.025C26.6902 8.17882 26.1108 8.14281 25.5953 8.19355C25.3595 7.23776 25.3255 6.24334 25.4954 5.27367C26.9308 6.16895 28.6935 6.60759 30.3171 6.73852Z" fill="#E35925"/>
</g>
</g>
<path d="M39.049 4.07233C39.049 4.07233 43.342 4.69264 43.3551 4.71228C43.3682 4.73192 44.5794 4.71228 43.7496 5.8416C41.9378 8.29666 35.3729 7.00039 35.3729 7.00039C35.3729 7.00039 38.8542 5.26057 39.049 4.07233Z" fill="#853F24"/>
<path d="M39.0391 3.94958C39.0391 3.94958 43.3306 4.56989 43.3437 4.58953C43.3568 4.60917 44.5696 4.58953 43.7381 5.71885C41.9279 8.17391 35.5235 6.92674 35.5235 6.92674C35.5235 6.92674 38.8444 5.13619 39.0391 3.94958Z" fill="#E06918"/>
<path d="M23.9766 18.4737C23.0224 18.8649 21.9111 20.8256 21.6591 21.1742C20.9302 22.1997 20.255 23.2623 19.6361 24.3576C19.0469 25.4019 18.7032 26.0876 18.731 26.2873L19.3857 26.7243C19.7965 27.0206 19.5035 27.0615 24.0421 22.5736L25.6952 20.6096C26.0012 19.6456 24.9537 17.7912 23.9766 18.4737Z" fill="#E7C19C"/>
<path d="M24.1256 21.1186L33.098 19.0776C33.589 18.8452 34.0063 18.4017 34.0112 17.3787C34.0112 17.3787 33.805 15.7568 31.8966 16.0252L24.4087 18.2969C23.4938 19.0089 23.1795 21.1055 24.1256 21.1186Z" fill="#E7C19C"/>
<path d="M27.0012 17.1594L31.1568 15.7846C34.3959 15.2035 34.7134 16.9548 34.7134 16.9548C34.7134 16.9548 34.7903 18.418 33.494 19.1987C32.1258 20.0171 27.9293 20.4214 27.9293 20.4214C27.0913 19.4099 26.4497 18.2462 27.0012 17.1594Z" fill="#28ACAC"/>
<path d="M26.7295 26.888C27.5456 25.645 28.1609 24.2813 28.5528 22.847C29.0228 21.2022 29.5779 19.583 30.2157 17.9958C30.3454 17.7964 30.4864 17.6046 30.638 17.4213C31.0753 16.6508 31.6779 15.9868 32.4024 15.4769C33.152 14.9859 33.9687 15.3591 35.008 16.2069C35.5264 16.6641 35.9526 17.2163 36.2633 17.8338C36.3435 17.986 36.427 18.1431 36.5236 18.3068C36.8787 20.518 37.5154 22.5278 36.9835 24.7701C36.5438 26.5156 35.9927 28.2311 35.3337 29.9061C35.1013 30.5199 34.4564 33.8718 33.697 34.1812C31.5791 35.0552 29.1224 34.1386 27.9227 33.628C27.2435 33.3366 24.6493 32.1058 24.5544 31.2547C24.4398 30.1631 26.2238 27.6523 26.7295 26.888Z" fill="#28DADA"/>
<g style="mix-blend-mode:multiply" opacity="0.3">
<g style="mix-blend-mode:multiply" opacity="0.3">
<path d="M26.7296 26.888C27.5456 25.645 28.1609 24.2813 28.5529 22.847C29.0228 21.2022 29.5779 19.583 30.2157 17.9958C30.3454 17.7964 30.4864 17.6046 30.638 17.4213C31.0753 16.6508 31.6779 15.9868 32.4024 15.4769C32.6663 15.2956 32.9894 15.2218 33.3058 15.2707C33.368 15.7044 33.4695 16.1365 33.5694 16.5702C33.7191 17.1153 33.7875 17.6795 33.7723 18.2446C33.7145 18.7813 33.584 19.3077 33.3844 19.8093C32.9916 20.8813 32.4629 21.8928 31.9654 22.919C31.5022 23.8716 31.1143 24.8601 30.6855 25.8291C30.439 26.4318 30.1525 27.0174 29.8278 27.582C29.5594 28.0173 29.2599 28.4314 28.9931 28.8668C28.619 29.4884 28.3029 30.1431 28.0487 30.8226C27.7142 31.6316 27.4534 32.4692 27.2697 33.3252C26.25 32.8341 24.6297 31.9241 24.556 31.2547C24.4398 30.163 26.2238 27.6523 26.7296 26.888Z" fill="#28ACAC"/>
</g>
</g>
<path d="M36.3386 17.9827C36.3386 17.9827 36.571 17.2265 36.6136 16.9418C36.6562 16.657 34.0751 14.6847 32.8934 14.5718C32.6171 14.9054 32.3737 15.265 32.1667 15.6455C32.1667 15.6455 34.5137 16.5686 36.3386 17.9827Z" fill="#7E7F89"/>
<path d="M16.1744 29.1057C16.1754 29.2051 16.1847 29.3042 16.2023 29.402C16.2563 29.695 16.3659 29.6933 16.6327 29.6459C16.626 29.7223 16.6354 29.7992 16.6606 29.8717C16.6832 29.9393 16.7214 30.0007 16.7719 30.051C16.8225 30.1013 16.8841 30.1391 16.9519 30.1614C17.0599 30.2023 17.1614 30.1189 17.2661 30.132C17.2804 30.2541 17.3386 30.367 17.4298 30.4495C17.6098 30.587 18.1156 30.5444 18.3087 30.4626C18.8816 30.2203 19.3709 29.6606 19.6426 29.0615C19.7899 28.8586 19.9209 28.6393 20.0518 28.4592C20.2744 28.1564 20.2744 27.6884 20.2695 27.3299C20.2695 27.1221 20.2809 26.8978 20.2597 26.6834C20.2805 26.5016 20.2497 26.3176 20.1706 26.1526C20.0916 25.9876 19.9676 25.8482 19.8128 25.7505C19.4004 25.5017 19.0567 25.5754 18.7015 25.7505C18.1834 25.8825 17.6903 26.0981 17.2416 26.3888C16.8308 26.6531 16.5341 27.062 16.4101 27.5345C16.3156 27.5672 16.2271 27.6154 16.1483 27.6769C15.8978 27.8946 15.5672 29.1467 16.1744 29.1057Z" fill="#E7C19C"/>
<path d="M16.9666 27.7702C16.6072 28.0919 16.3477 28.51 16.2187 28.9748C16.2187 29.001 16.2187 29.0272 16.2187 29.055C16.3231 28.6851 16.5037 28.3411 16.7489 28.0452C16.9421 27.8324 17.7097 27.1761 17.731 27.9584C17.6819 27.983 17.6393 28.0075 17.6082 28.0271C17.1008 28.3545 16.7653 29.0255 16.6033 29.5918C16.6048 29.6044 16.6087 29.6166 16.6147 29.6278C16.7588 29.2596 16.9421 28.7522 17.2187 28.4658C17.3624 28.2855 17.5363 28.1316 17.7326 28.0108C18.0403 27.8749 18.204 28.0108 18.1696 28.2907C18.0967 28.3407 18.0297 28.3989 17.9699 28.4641C17.8691 28.5676 17.7862 28.6871 17.7244 28.8177C17.6447 28.8361 17.5701 28.8721 17.5061 28.9231C17.4421 28.974 17.3903 29.0387 17.3545 29.1123C17.1909 29.4756 17.4642 29.4396 17.767 29.4887C17.9563 29.5331 18.1398 29.5996 18.3136 29.6868C18.3021 29.8694 18.2397 30.0451 18.1336 30.1941C18.2014 30.1301 18.2548 30.0522 18.29 29.9658C18.3253 29.8795 18.3417 29.7865 18.3382 29.6933C18.4445 29.7499 18.5658 29.7723 18.6853 29.7574C18.8048 29.7424 18.9168 29.6909 19.006 29.6098C19.4239 29.2324 19.7909 28.8022 20.0976 28.3299C19.8398 28.6846 19.5565 29.0199 19.2498 29.3332C18.9339 29.6458 18.7163 29.7997 18.2449 29.6197C18.1164 29.5508 17.9809 29.4959 17.8406 29.456C17.749 29.4413 17.6491 29.4314 17.5542 29.4167C17.5125 29.4256 17.4691 29.4216 17.4298 29.4053C17.4005 29.3899 17.3765 29.3661 17.3611 29.3369C17.3456 29.3077 17.3393 29.2744 17.3431 29.2416C17.3234 29.1303 17.4118 29.0452 17.5166 28.9846C17.5496 28.9595 17.5859 28.9391 17.6246 28.9241L17.6753 28.9126L17.7375 28.893C17.9012 28.8406 18.0829 28.8308 18.2531 28.7833C18.432 28.7213 18.5936 28.6175 18.7244 28.4805C18.9323 28.0091 18.7605 27.4019 19.096 26.9502C18.7539 27.3708 18.8374 27.9322 18.6803 28.4134C18.6687 28.4326 18.6561 28.4512 18.6426 28.4691C18.639 28.4457 18.6318 28.4231 18.6213 28.402C18.5943 28.3511 18.5544 28.3083 18.5055 28.2779C18.4567 28.2474 18.4006 28.2304 18.3431 28.2285C18.2842 28.2304 18.2273 28.2498 18.1794 28.2841C18.2187 28.1384 18.2531 28.0337 18.1352 27.9306C18.0174 27.8275 17.8652 27.8897 17.7359 27.9519C17.7833 27.4969 17.4347 27.4379 17.0976 27.6671C17.0538 27.6969 17.0117 27.7291 16.9715 27.7636C16.9715 27.6573 17.0157 27.5149 16.8881 27.4756C16.7812 27.4468 16.6689 27.444 16.5607 27.4674C16.5271 27.497 16.4916 27.5243 16.4543 27.5492C16.5754 27.5169 16.7007 27.5036 16.8259 27.5099C16.9846 27.5296 16.9568 27.654 16.9666 27.7702ZM18.2613 28.3201C18.3 28.2941 18.3463 28.2817 18.3928 28.285C18.4394 28.2882 18.4835 28.3069 18.5182 28.3381C18.5501 28.3543 18.5765 28.3795 18.594 28.4107C18.6115 28.4419 18.6193 28.4776 18.6164 28.5132C18.4069 28.7588 18.0485 28.7375 17.7555 28.8177C17.8371 28.6918 17.9363 28.5782 18.0501 28.4805C18.1138 28.4188 18.1847 28.3649 18.2613 28.3201Z" fill="#C3A479"/>
<path d="M17.3087 29.9568C17.3443 29.7912 17.4068 29.6325 17.4936 29.4871C17.5035 29.4756 17.5198 29.4953 17.5133 29.5067C17.4561 29.624 17.4095 29.7461 17.3742 29.8717C17.3251 30.0059 17.2465 30.1598 17.3218 30.3054C17.2962 30.2512 17.2819 30.1924 17.2797 30.1325C17.2774 30.0726 17.2873 30.0128 17.3087 29.9568Z" fill="#C3A479"/>
<path d="M39.9885 25.2104C39.1063 25.5132 38.9475 24.3233 38.9901 23.7635C39.0916 22.3952 40.7905 21.7668 41.8118 21.1448C44.8511 19.4819 45.7611 18.8141 46.3225 18.4508C46.4236 18.4381 46.5263 18.4501 46.6218 18.4858C46.7173 18.5214 46.8027 18.5796 46.8708 18.6554C46.9475 18.7443 47.0034 18.8492 47.0345 18.9625C47.0657 19.0757 47.0712 19.1944 47.0509 19.3101C46.9608 19.5818 46.6842 19.914 46.0214 20.5687C45.1253 21.4453 44.1852 22.2756 43.2046 23.0565C42.8609 23.3216 41.0147 25.0909 39.9885 25.2104Z" fill="#F1D2B3"/>
<path d="M41.4762 23.6031C41.4762 23.6031 36.3828 18.7847 35.2568 17.801C35.2568 17.801 32.9539 19.2102 33.3697 19.8747L39.3142 25.0811C40.306 25.8143 41.5123 24.0958 41.4762 23.6031Z" fill="#F1D2B3"/>
<path d="M32.7739 17.1905C32.7739 17.1905 33.3566 16.6422 34.7379 17.0007C36.0702 17.346 38.7511 20.8895 39.3207 21.5065C38.3796 22.1056 37.8722 22.4362 37.2601 23.3642C37.1023 23.5664 36.9585 23.7791 36.8296 24.0009L32.7264 20.4001C31.4334 18.1889 32.7739 17.1905 32.7739 17.1905Z" fill="#28FFFF"/>
<path d="M44.7889 19.6931C44.7398 19.4541 45.005 19.202 45.149 19.004C45.3618 18.4344 45.6531 17.8812 45.8659 17.3149C46.1105 16.6422 46.5202 16.0417 47.0574 15.5686C47.5484 15.1447 48.028 15.2412 48.6205 15.3492C49.0018 15.4213 49.8185 15.436 49.7334 16.0039C49.8671 16.0267 49.9982 16.0629 50.1246 16.1119C50.3963 16.22 50.6303 16.5555 50.4421 16.837H50.4339C50.7138 16.9336 50.8857 17.1283 50.7842 17.5801C50.8081 17.5964 50.8278 17.6183 50.8415 17.6439C50.8707 17.7076 50.8895 17.7756 50.8971 17.8452C50.8513 18.0285 50.8186 18.2217 50.7793 18.4066C50.7629 18.4492 50.7465 18.4917 50.7285 18.5343C50.7194 18.5396 50.7116 18.5468 50.7056 18.5555C50.578 18.783 50.3963 19.0089 50.1148 19.0466C49.9315 19.0662 49.663 19.094 49.5567 18.8829C49.5354 18.842 49.4339 18.7945 49.4126 18.86C49.3619 19.0056 49.303 19.1497 49.2408 19.2953C49.1442 19.4133 49.0343 19.5199 48.9134 19.6129C48.2817 20.0924 47.6745 20.4148 46.8676 20.3657C46.735 20.3657 46.6024 20.3461 46.4715 20.3281C46.2505 20.2982 46.026 20.3444 45.8348 20.459C45.7437 20.4903 45.6461 20.4981 45.5512 20.4818C45.4562 20.4655 45.3669 20.4256 45.2914 20.3657C45.0454 20.2126 44.866 19.9724 44.7889 19.6931Z" fill="#F1D2B3"/>
<path d="M49.1982 17.3198C49.4764 17.2724 49.74 17.3788 50.0166 17.4148C50.2932 17.4508 50.6254 17.4246 50.8349 17.6455C50.5992 17.4573 50.2473 17.4819 49.9593 17.4409C49.7056 17.4049 49.4519 17.2953 49.1982 17.3182C49.1966 17.3231 49.1949 17.3198 49.1982 17.3198Z" fill="#C3A479"/>
<path d="M48.9429 16.5588C49.0669 16.5728 49.1882 16.6048 49.303 16.6537C49.4811 16.6933 49.6615 16.7223 49.8431 16.7404C50.0935 16.7715 50.4323 16.7912 50.6352 16.9598C50.4208 16.7961 50.0329 16.7846 49.7711 16.7519C49.6172 16.7323 49.4552 16.7093 49.303 16.675C49.1835 16.6488 49.064 16.5784 48.9445 16.5637C48.9331 16.5669 48.9331 16.5604 48.9429 16.5588Z" fill="#C3A479"/>
<path d="M48.6057 15.819C48.812 16.0416 49.2866 16.0186 49.5583 15.999C49.781 15.9944 50.0006 16.051 50.1933 16.1627C49.866 16.0203 49.5386 16.0547 49.1917 16.0219C48.9887 16.0023 48.7432 15.9957 48.6074 15.8206L48.6057 15.819Z" fill="#C3A479"/>
<path d="M48.0362 15.5538C47.9964 15.5388 47.9598 15.5166 47.9281 15.4884C47.9281 15.4884 47.9281 15.4884 47.9281 15.4884C47.9838 15.5391 48.0689 15.5407 48.1229 15.5964C48.1812 15.6757 48.2096 15.7731 48.2031 15.8713C48.2031 15.8844 48.1867 15.8812 48.1835 15.8713C48.1491 15.7486 48.1736 15.634 48.0362 15.5538Z" fill="#C3A479"/>
<path d="M48.5108 16.5637C48.5517 16.621 48.6156 16.6586 48.6074 16.7388C48.6074 16.7388 48.5926 16.7388 48.591 16.7388C48.5789 16.6748 48.5514 16.6147 48.5108 16.5637Z" fill="#C3A479"/>
<path d="M49.082 19.4066C49.2866 19.243 49.3521 18.986 49.4683 18.7651C49.4701 18.7441 49.4733 18.7233 49.4781 18.7029C49.4781 18.6898 49.4961 18.693 49.501 18.7029C49.5253 18.6286 49.5702 18.5628 49.6303 18.513C49.7042 18.4543 49.7903 18.4129 49.8824 18.3919C49.9684 18.3815 50.0517 18.3548 50.1279 18.3133C50.0804 18.3722 49.9642 18.387 49.8955 18.4148C49.8033 18.4462 49.7207 18.5005 49.6555 18.5727C49.5902 18.6449 49.5443 18.7325 49.5223 18.8272C49.6385 19.1841 50.375 19.0678 50.5239 18.842C50.6274 18.6825 50.7146 18.5131 50.7842 18.3362C50.6451 18.6979 50.5567 19.0056 50.1295 19.0777C49.9233 19.112 49.5092 19.0678 49.4748 18.8207C49.4454 18.8845 49.4208 18.95 49.3963 19.0073C49.3484 19.1772 49.2417 19.3246 49.0951 19.423C49.0951 19.423 49.0738 19.4132 49.082 19.4066Z" fill="#C3A479"/>
</svg>
