<svg width="288" height="216" viewBox="0 0 288 216" fill="none" xmlns="http://www.w3.org/2000/svg">
<g clip-path="url(#clip0_51:420)">
<path d="M39.374 0H38.3926V349.463H39.374V0Z" fill="#B66D12"/>
<path d="M80.9445 0H79.9631V110.304H80.9445V0Z" fill="#B66D12"/>
<path d="M80.4539 107.5L78.8415 116.963L69.3544 115.561L77.8367 120.023L73.5839 128.622L80.4539 121.916L87.3005 128.622L83.0477 120.023L91.5534 115.561L82.0662 116.963L80.4539 107.5Z" fill="#B66D12"/>
<path d="M18.6472 0H17.6658V170.888H18.6472V0Z" fill="#B66D12"/>
<path d="M18.1565 168.084L15.5627 183.294L0.327148 181.051L13.9737 188.201L7.12705 202.009L18.1565 191.238L29.1858 202.009L22.3392 188.201L35.9858 181.051L20.7502 183.294L18.1565 168.084Z" fill="#B66D12"/>
<path d="M101.344 0H100.363V428.271H101.344V0Z" fill="#B66D12"/>
<path d="M61.5263 205.444C58.9559 206.028 58.4652 206.495 57.881 209.065C57.3202 206.495 56.8294 206.028 54.259 205.444C56.8294 204.86 57.3202 204.393 57.881 201.822C58.4184 204.393 58.9559 204.86 61.5263 205.444Z" fill="#002747"/>
<path d="M122.538 58.4112C118.823 59.2523 118.122 59.9299 117.304 63.6448C116.463 59.9299 115.762 59.2523 112.047 58.4112C115.762 57.5701 116.463 56.8925 117.304 53.1776C118.122 56.9392 118.823 57.6168 122.538 58.4112Z" fill="#002747"/>
<path d="M135.905 180.958C132.189 181.799 131.488 182.477 130.67 186.192C129.829 182.477 129.128 181.799 125.413 180.958C129.128 180.117 129.829 179.439 130.67 175.724C131.488 179.439 132.189 180.117 135.905 180.958Z" fill="#002747"/>
<path d="M8.85623 89.6262C5.72501 90.3505 5.14082 90.9112 4.4398 94.0654C3.71541 90.9112 3.15459 90.3505 0 89.6262C3.15459 88.9252 3.71541 88.3411 4.4398 85.2103C5.14082 88.3411 5.72501 88.9252 8.85623 89.6262Z" fill="#002747"/>
<path d="M63.4658 59.8364C67.4665 59.8364 70.7097 56.5936 70.7097 52.5935C70.7097 48.5933 67.4665 45.3505 63.4658 45.3505C59.4651 45.3505 56.2219 48.5933 56.2219 52.5935C56.2219 56.5936 59.4651 59.8364 63.4658 59.8364Z" fill="#002747"/>
</g>
<g clip-path="url(#clip1_51:420)">
<path d="M191.015 0H190.034V349.463H191.015V0Z" fill="#B66D12"/>
<path d="M232.585 0H231.604V110.304H232.585V0Z" fill="#B66D12"/>
<path d="M232.095 107.5L230.482 116.963L220.995 115.561L229.478 120.023L225.225 128.622L232.095 121.916L238.941 128.622L234.689 120.023L243.194 115.561L233.707 116.963L232.095 107.5Z" fill="#B66D12"/>
<path d="M170.288 0H169.307V170.888H170.288V0Z" fill="#B66D12"/>
<path d="M169.797 168.084L167.204 183.294L151.968 181.051L165.615 188.201L158.768 202.009L169.797 191.238L180.827 202.009L173.98 188.201L187.627 181.051L172.391 183.294L169.797 168.084Z" fill="#B66D12"/>
<path d="M252.985 0H252.004V428.271H252.985V0Z" fill="#B66D12"/>
<path d="M213.167 205.444C210.597 206.028 210.106 206.495 209.522 209.065C208.961 206.495 208.47 206.028 205.9 205.444C208.47 204.86 208.961 204.393 209.522 201.822C210.059 204.393 210.597 204.86 213.167 205.444Z" fill="#002747"/>
<path d="M274.179 58.4112C270.464 59.2523 269.763 59.9299 268.945 63.6448C268.104 59.9299 267.403 59.2523 263.688 58.4112C267.403 57.5701 268.104 56.8925 268.945 53.1776C269.763 56.9392 270.464 57.6168 274.179 58.4112Z" fill="#002747"/>
<path d="M287.546 180.958C283.83 181.799 283.129 182.477 282.311 186.192C281.47 182.477 280.769 181.799 277.054 180.958C280.769 180.117 281.47 179.439 282.311 175.724C283.129 179.439 283.83 180.117 287.546 180.958Z" fill="#002747"/>
<path d="M160.497 89.6262C157.366 90.3505 156.782 90.9112 156.081 94.0654C155.356 90.9112 154.796 90.3505 151.641 89.6262C154.796 88.9252 155.356 88.3411 156.081 85.2103C156.782 88.3411 157.366 88.9252 160.497 89.6262Z" fill="#002747"/>
<path d="M215.107 59.8364C219.107 59.8364 222.351 56.5936 222.351 52.5935C222.351 48.5933 219.107 45.3505 215.107 45.3505C211.106 45.3505 207.863 48.5933 207.863 52.5935C207.863 56.5936 211.106 59.8364 215.107 59.8364Z" fill="#002747"/>
</g>
<defs>
<clipPath id="clip0_51:420">
<rect width="135.905" height="510" fill="white"/>
</clipPath>
<clipPath id="clip1_51:420">
<rect width="135.905" height="510" fill="white" transform="translate(151.641)"/>
</clipPath>
</defs>
</svg>
